<?xml version="1.0" encoding="UTF-8"?>
<svg version="1.1" id="Ebene_1" xmlns="http://www.w3.org/2000/svg" xmlns:xlink="http://www.w3.org/1999/xlink" x="0px" y="0px" viewBox="0 0 1988.1 656" style="enable-background:new 0 0 1988.1 656;" xml:space="preserve">
<g>
	<g>
		<path d="M347.9,321.3v225.3h-99V351.2c0-40.5-22.6-63.8-59.1-63.8c-33.9,0-63.8,11.3-89.7,33.2v226h-99V214.3h99v39.9    c39.2-31.2,82.4-46.5,129.6-46.5C296.1,207.7,347.9,245.6,347.9,321.3z"/>
		<path d="M562.6,207.7c51.8,0,95.7,16.6,132.3,50.5s55.2,74.4,55.2,122.3s-18.6,88.4-55.2,122.3c-36.6,33.9-80.4,50.5-132.3,50.5    c-51.2,0-95.7-16.6-132.3-50.5s-54.5-74.4-54.5-122.3s17.9-88.4,54.5-122.3S511.4,207.7,562.6,207.7z M561.9,291.4    c-24.6,0-45.2,8.6-63.1,26.6c-17.3,17.3-25.9,37.9-25.9,62.5s8.6,45.2,25.9,63.1c17.9,17.3,38.5,25.9,63.1,25.9    s45.9-8.6,63.1-25.9c17.9-17.9,26.6-38.5,26.6-63.1S643,335.3,625,318C607.8,300.1,586.5,291.4,561.9,291.4z"/>
		<path d="M1064.4,278.8L899.6,466.9h172.1v79.8H761.3v-64.5l164.2-188.1H774.6v-79.8h289.8V278.8z"/>
		<path d="M1208.6,97.4c21.3,16.6,21.3,45.2,0,63.1c-20.6,17.9-53.2,17.9-74.4,0c-20.6-17.9-20.6-46.5,0-63.1    C1155.4,79.4,1188,79.4,1208.6,97.4z M1221.2,546.6h-99V214.3h99V546.6z"/>
		<path d="M1386.7,546.6h-99V81.4h99V546.6z"/>
		<path d="M1531.6,546.6h-99V81.4h99V546.6z"/>
	</g>
	<g>
		<g>
			<path d="M1779.2,326.6c-2.3-30.1-19.1-49.3-59.6-49.3c-32.1,0-64.2,11.6-100.9,30.8l-39.8-66.4c48.2-26,102.5-44.5,162.1-44.5     c97.1,0,150.6,49.3,150.6,153.4v194.5h-99.8l-0.4-34.9h-2.3c-32.1,25.3-68,43.1-110.9,43.1c-68.8,0-112.4-45.2-112.4-102.7     C1565.8,379.4,1629.3,340.3,1779.2,326.6z M1716.5,475.2c26,0,42.8-11,62.7-28.8v-59.6c-80.3,9.6-106.3,30.1-106.3,56.2     C1672.9,465,1689.7,475.2,1716.5,475.2z"/>
		</g>
	</g>
</g>
</svg>
