<svg id="Ebene_1" data-name="Ebene 1" xmlns="http://www.w3.org/2000/svg" viewBox="0 0 1200.08 1106.42"><defs><style>.cls-1{fill:#f9f9f9;}.cls-2{fill:#fff;}</style></defs><path class="cls-1" d="M978.72,277.36c.22,10.24.49,20.47.65,30.71.12,8.32.14,16.64.12,25,0,1.9-.37,3.8-.55,5.71a5.87,5.87,0,0,1-1.66,3.38,72.19,72.19,0,0,1-22.95,17c-11,5.22-22.35,9.53-33.75,13.71q-26.12,9.57-52.26,19.06a31.08,31.08,0,0,0-8.57,4.21,7.07,7.07,0,0,0-2.38,2.87c-2.44,6.63-3.57,13.58-4.55,20.55-1.6,11.41-2.93,22.86-4.89,34.2-4,23.32-8,46.65-11,70.13-.09.63-.38,1.23-.5,1.86a6.23,6.23,0,0,1-5.66,4.31c-4.46-.31-8.94-.5-13.36-1.14-15.82-2.31-31.59-5-47.51-6.47-7.67-.74-15.12-2.54-22.62-4.12a7.59,7.59,0,0,1-5-5.32c-.22-1.26-.57-2.5-.73-3.76-1.73-14-3.39-27.94-5.17-41.9q-3.15-24.75-6.48-49.47c-1.35-10.15-2.78-20.28-4.21-30.42a10.32,10.32,0,0,0-5.12-7.69c-3.83-2.31-7.7-4.56-11.64-6.67-5.64-3-11.5-5.66-17-8.88-18.66-10.91-17.6-9.83-18.44-29.76-.14-3.19,0-6.39-.07-9.59,0-7,.21-14.1-.19-21.12-1.19-21.11-.51-42.22-.73-63.34a69.66,69.66,0,0,1,2-19,9.74,9.74,0,0,0,.32-3.79,3.25,3.25,0,0,0-2.32-2.58,2.78,2.78,0,0,0-1.89,0,10.72,10.72,0,0,0-5.52,7.4,46.66,46.66,0,0,0-1.09,9.5c-.15,9,0,17.92-.1,26.88,0,2.55-.24,5.1-.37,7.65-.12,2.1-2.45,4.71-4.84,5.31-17.36,4.38-34.69,8.84-51.7,14.45a54.32,54.32,0,0,1-13.18,2.43c-12.82.89-25.25,3.76-37.64,7.08-34,9.12-67.05,21.17-99.76,34.14-3.56,1.41-7.09,2.92-10.56,4.54a26.91,26.91,0,0,0-4.89,3,7.73,7.73,0,0,0-2.46,2.85,59.56,59.56,0,0,0-3.34,9q-9.41,37.2-18.59,74.45a43.07,43.07,0,0,0-.92,5.66,6.34,6.34,0,0,0,1.85,5.21c4,4.2,9,7.17,13.87,10.22a98,98,0,0,1,16.41,13.18,4.56,4.56,0,0,1,.94,3.55c-2,10.7-5.53,21-8.33,31.5-3.63,13.59-7.45,27.12-11.2,40.67-.6,2.16-3.9,3.32-6.42,2.4-3.73-1.36-6.87-3.3-8.5-7.18a53,53,0,0,0-3.4-6.88c-4.41-7.31-10.13-13.15-18.49-15.92a49.11,49.11,0,0,1-5.35-2.11,10.44,10.44,0,0,1-4.28-3.71,90,90,0,0,0-5.42-7.88c-5.09-6.07-11.33-10.31-19.4-11.38-1.27-.16-2.54-.34-3.79-.6a9.85,9.85,0,0,1-5.11-2.42c-1.83-1.79-3.6-3.63-5.45-5.4-4.27-4.12-9.15-7-15.27-7.14a12,12,0,0,1-1.89-.32,9.76,9.76,0,0,1-7.16-5.76,31.64,31.64,0,0,1-1.2-3.64c-.79-2.44-1.58-4.87-2.4-7.29a23.36,23.36,0,0,0-9.11-12c-3.8-2.62-6.66-5.75-7.74-10.49a39.44,39.44,0,0,0-3.39-9,36.39,36.39,0,0,0-10.79-13.28,13.83,13.83,0,0,0-7-2.89,15.28,15.28,0,0,0-12.23,4.4,11,11,0,0,0-3.35,6.72,19.23,19.23,0,0,0,2.81,12.86c1.67,2.71,3.89,5.07,5.67,7.72a12.53,12.53,0,0,1,1.12,12.76c-1.32,2.9-3,5.62-4.61,8.41a14.83,14.83,0,0,0-1.86,7.36c0,7-.07,14.07.08,21.09s-1.38,12.48-8.09,15.73a22.71,22.71,0,0,0-4.68,3.34c-3.43,3-6.25,6.43-7.29,11-.71,3.12-1.33,6.25-2,9.38a22.28,22.28,0,0,1-3.74,8.75c-1.9,2.57-3.81,5.14-5.62,7.78a15.47,15.47,0,0,0-3.09,9,26.61,26.61,0,0,1-7.07,19.22c-3.42,3.83-4.83,9-6.58,13.79-1.33,3.67-2.17,7.52-1.29,11.3,1.64,7.1,1.48,13.85-1.78,20.53-1.09,2.24-1.35,4.92-1.78,7.43a24.59,24.59,0,0,0,3.61,18.36c1.42,2.13,2.9,4.23,4.48,6.23a14.65,14.65,0,0,1,3,8.9,109.43,109.43,0,0,0,10.74,44.41c.55,1.16.88,2.4,1.39,3.58a40.82,40.82,0,0,0,5.82,9.88,39.91,39.91,0,0,1,4.28,6.35,32.55,32.55,0,0,0,5.79,7.59c2.7,2.72,5.51,5.35,8.09,8.19,7.87,8.66,17.51,14.88,27.68,20.39,2.8,1.52,5.8,2.68,8.66,4.1,1.71.85,3.33,1.88,5,2.84,1.8,1,3.09,4.19,2.56,6.76a6,6,0,0,1-3.56,4.16,10.36,10.36,0,0,1-1.86.48,329.37,329.37,0,0,0-43.33,15.35,97.11,97.11,0,0,0-15.1,8.31,47.06,47.06,0,0,0-15.54,16.68,164.64,164.64,0,0,0-7.72,15.44,320.35,320.35,0,0,0-12.23,34.32,575.28,575.28,0,0,0-14.43,67.48,9.76,9.76,0,0,0,.26,3.8,4.42,4.42,0,0,0,2.5,2.63,2.41,2.41,0,0,0,3.41-.67,11,11,0,0,0,2.69-5c1.32-6.9,2.47-13.85,3.94-20.72,3.6-16.89,7.68-33.64,12.54-50.23A259.74,259.74,0,0,1,231.29,818a30.48,30.48,0,0,1,4.33-6.29c4.19-4.88,8.91-9.16,14.79-12,4-2,7.9-4.23,12-6.07,4.64-2.09,9.28-4.3,14.4-5.06a3.54,3.54,0,0,1,1.78.5c1.13.5,1.5,1.7.57,3-2.94,4.18-6.11,8.2-9,12.38a19,19,0,0,0-2.57,5.11,6.54,6.54,0,0,0,.25,3.7,8.34,8.34,0,0,0,1.89,3.29c4,4.09,9.3,6.78,13,11.29,1,1.24,1.43,4,.52,5.35-2.54,3.68-5.16,7.3-7.55,11.07a6.72,6.72,0,0,0-.88,5.5c1.71,6.22,4.65,11.93,7.53,17.61,8.07,16,16.48,31.79,24.71,47.69a25.86,25.86,0,0,0,5.73,7.6c2,1.78,2.71,4.26,3.18,6.81a17,17,0,0,0,.4,1.88c1.12,3.57,3.52,5.55,6.81,5.56h30.71c8.31,0,16.63,0,24.95-.15a22.87,22.87,0,0,0,5.57-1,4,4,0,0,0,2.57-2.59c1.28-3.09.75-6.3.7-9.48a16.14,16.14,0,0,1,1.45-7.46c10.39-21.36,16.9-44.16,24.6-66.52a37.13,37.13,0,0,0,1.46-7.5,8.74,8.74,0,0,0-2.2-7.09c-1.72-1.87-3.9-3.31-5.79-5-3.87-3.55-4.19-6.32-1.3-9.81s5.7-6.89,8.5-10.38c1.33-1.65,1.42-5.68.28-7.28a27.84,27.84,0,0,0-2.23-3.11c-3.48-3.74-7.13-7.33-10.51-11.16-.64-.73-.47-2.29-.42-3.45,0-.27,1.09-.69,1.69-.7a21.86,21.86,0,0,1,5.67.2,107.76,107.76,0,0,1,21.72,7.51c9.73,4.83,19.32,10,28.91,15.07a19.94,19.94,0,0,1,4.48,3.52,7.71,7.71,0,0,1,1.87,3.24,21.39,21.39,0,0,1,.92,5.65q0,18.23-.12,36.47a11.65,11.65,0,0,1-1.39,5.48c-.7,1.34-1.51,2.05-3,1.93a21.4,21.4,0,0,1-3.77-.23c-6.79-1.82-13.53-3.8-20.32-5.63a56.3,56.3,0,0,0-5.64-1c-1.21-.2-3.95,2-4.28,3.33-1,3.83-.11,7.57.25,11.38.83,8.92,1.22,17.87,2,26.78.88,9.55,2,19.08,3.09,28.61.21,1.9.57,3.79.94,5.67a9.84,9.84,0,0,0,.76,1.7c.62,1.42,1.62,1.74,3,1.78a2.46,2.46,0,0,0,2.81-1.92c1.59-4.38.8-8.88.56-13.29-.32-5.73-1.1-11.46-2-17.14a188.79,188.79,0,0,1-2.3-28.66c0-5.26,2-6.61,7.52-5.28s11.12,2.92,16.67,4.43c1.59.43,4.57,4,4.67,5.71.32,5.11.57,10.22.9,15.32s3.22,7.7,8.85,7.8,11.52.12,17.28.12H641.09c5.76,0,11.52,0,17.28.06,1.91,0,3.82.25,5.74.37a6.19,6.19,0,0,1,4.3,3.27c2.47,7.36,2.85,15.05,3.7,22.66a12.29,12.29,0,0,0,1.74,5.37,3.44,3.44,0,0,0,3.19,1.61,2.5,2.5,0,0,0,2.88-1.86,13.59,13.59,0,0,0,.76-5.6q-.31-10.53-.65-21.07c0-1.25,2.26-4.07,3.37-4.18,1.91-.19,3.81-.5,5.72-.56,7-.24,14.06-.38,21.08-.61,2.18-.08,4.69-2.75,4.82-5.15.25-4.46.57-8.93.57-13.39,0-30.08-.18-60.16-.15-90.23,0-21.12.28-42.24.43-63.35,0-.64,0-1.28,0-1.91,0-2.79-3.15-6.38-5.94-6.57-4.46-.3-8.93-.59-13.4-.66-7.68-.14-15.35,0-23-.19a35.19,35.19,0,0,1-5.64-.89,3.43,3.43,0,0,1-2.7-2.44c-2.62-7.06,1-10.35,5.52-12.11a28.06,28.06,0,0,1,3.62-1.23c4.35-1,8.74-1.94,13.07-3,20.44-5.22,41-10,61.32-15.58,21-5.7,42.28-10,63.26-15.78,11.38-3.12,12.43-3.17,24.32.9,15.73,5.38,31.46,10.75,47.27,15.86,23.73,7.66,47.36,15.64,70.77,24.21,19.23,7,38.87,12.71,58.47,18.56a3.17,3.17,0,0,0,1.9.05,8.65,8.65,0,0,0,3.13-1.83c.93-1,0-4.55-1.1-5.18a33.21,33.21,0,0,0-5.06-2.61c-10.91-3.67-21.9-7.08-32.77-10.84C942,696,905.07,683.41,868,671.16c-12.13-4-24.31-7.9-36.43-11.95a26.22,26.22,0,0,0-15.09-.6c-32.88,8.15-65.78,16.28-98.59,24.75-24.14,6.24-48.35,12.19-72.42,18.72a57.5,57.5,0,0,1-7.55,1.13c-2.06.26-5.41-1.84-6.22-3.78-.49-1.17-1.06-2.32-1.53-3.51-4-10.12-6.65-20.69-9.8-31.09-9.8-32.45-19-65.06-27.34-97.92-3.6-14.26-8-28.32-10.79-42.78-2.42-12.56-4.69-25.15-7.29-37.66-5.2-25.06-9.24-50.32-13.43-75.55q-5.5-33.12-10.77-66.28c-.3-1.89-.48-3.8-.62-5.72-.28-4.07,1.39-7.49,3.87-10.53a23.52,23.52,0,0,1,4.11-4c8.23-6.09,16.47-12.16,24.82-18.08a71.78,71.78,0,0,1,22.44-10.58c8.62-2.4,17.18-5,25.81-7.39,8-2.19,16.09-4.18,24.15-6.2a36.69,36.69,0,0,1,3.81-.44c1.55-.21,4.09,1.55,4.3,3,1.52,10.16,1.1,20.39,1.27,30.61s.2,20.47.57,30.7c.41,11-.45,12.77,11.57,19.85.55.32,1.05.73,1.57,1.1a11.65,11.65,0,0,1,5.25,7.64c1.32,7.56,3.24,15,4.44,22.59,3.37,21.48,7.3,42.87,10.77,64.34a63.32,63.32,0,0,0,11.66,28.05c8,10.8,15.85,21.69,23,33.06a9.4,9.4,0,0,0,6.29,4c7.5,1.62,15,3,22.67,4,14.6,1.76,29.17,3.79,43.71,6,10.15,1.53,20.35,2.1,30.57,2.62a17,17,0,0,0,9.25-2.17c7.23-4.1,14.45-8.22,21.5-12.62q35-21.87,69.82-44a15.8,15.8,0,0,0,7-8.84c1.48-4.89,2.84-9.83,4-14.82,2.3-10,4.64-19.93,6.55-30,3.11-16.33,7.53-32.39,10.24-48.81.52-3.15,1.47-6.22,2.13-9.35s1.94-6,4.67-8.07a85.64,85.64,0,0,0,12.65-11.72A12.93,12.93,0,0,0,987.8,342a55.87,55.87,0,0,0,.53-7.65c0-12.16,0-24.32,0-36.48,0-2.53.27-5.07.42-7.61.08-1.35,2.84-3.31,4.28-3,3.74.84,7.52,1.55,11.19,2.64,3.06.9,6,2.18,9.23,2.46a4.19,4.19,0,0,0,3.51-1,4.13,4.13,0,0,0,.24-5.07,9.37,9.37,0,0,0-4.68-3.15c-7.26-2.45-14.58-4.74-21.89-7.06a4.82,4.82,0,0,1-3.22-4.29,74.25,74.25,0,0,1-.65-9.55c-.17-9.6-.17-19.2-.38-28.8a100.15,100.15,0,0,0-.91-11.47,15.93,15.93,0,0,0-2-5.37,6.41,6.41,0,0,0-2.75-2.15c-1.13-.57-3.81,2-3.9,3.52a23.41,23.41,0,0,0-.27,3.81C978.55,240.25,977.56,258.85,978.72,277.36Z"/><path class="cls-1" d="M849.68,354.34v-.65c7.65,0,15.31.15,23-.05,6.37-.17,12.72-.69,19.08-1.16,3.16-.23,6.37-3.15,6.71-5.85,1.6-12.74.79-25.46-.33-38.17-.17-1.93-3.61-4.32-5.68-4-1.88.31-3.78.52-5.63,1-13,3.11-26,6.51-39,9.33-11.23,2.42-22.31,5.38-33.37,8.42a13.75,13.75,0,0,0-3.49,1.47,7.16,7.16,0,0,0-3.48,4.3,7.71,7.71,0,0,0-.46,1.85c0,5.73,0,11.47.13,17.2.06,3,3.08,5.81,6.29,6,1.91.12,3.81.31,5.72.31C829.27,354.36,839.48,354.34,849.68,354.34Z"/><path class="cls-1" d="M763.63,338.63c0-6.42.19-9,0-11.52-.31-3.43-2.43-5.79-5.32-7.44a25.48,25.48,0,0,0-3.53-1.47c-11.91-4.59-23.77-9.3-35.74-13.72-7.78-2.87-15.71-5.34-23.59-7.91a30.86,30.86,0,0,0-3.77-.61c-2.28-.42-5.3,1.8-5.56,4.05-1.28,10.84-.52,21.68.1,32.51.21,3.69,3.3,7.05,7.22,8,2.48.58,5,1.17,7.48,1.54,15.15,2.26,30.4,3.83,45.51,6.42,3.73.64,7.61.46,11.43.58,2.18.08,5-2.55,5.25-4.75C763.4,341.11,763.7,338,763.63,338.63Z"/><path class="cls-1" d="M258.2,894.36l-.43-.06c.61-4.41,1.28-8.82,1.78-13.24a9.74,9.74,0,0,0-.44-3.74,4.27,4.27,0,0,0-2.54-2.58,2.33,2.33,0,0,0-3.3.87c-.71,1-1.88,2-2.05,3.11-.94,6.29-1.27,12.69-2.52,18.91-2.14,10.63-2.88,21.44-4.56,32.12a9.49,9.49,0,0,0,.35,3.73,3.5,3.5,0,0,0,2.6,2.42,3.09,3.09,0,0,0,3.5-.76c.82-.92,1.89-1.95,2.06-3C254.59,919.53,256.37,906.94,258.2,894.36Z"/><path d="M978.72,277.36c-1.16-18.51-.17-37.11-2.08-55.6a23.41,23.41,0,0,1,.27-3.81c.09-1.53,2.77-4.09,3.9-3.52a6.41,6.41,0,0,1,2.75,2.15,15.93,15.93,0,0,1,2,5.37,100.15,100.15,0,0,1,.91,11.47c.21,9.6.21,19.2.38,28.8a74.25,74.25,0,0,0,.65,9.55,4.82,4.82,0,0,0,3.22,4.29c7.31,2.32,14.63,4.61,21.89,7.06a9.37,9.37,0,0,1,4.68,3.15,4.13,4.13,0,0,1-.24,5.07,4.19,4.19,0,0,1-3.51,1c-3.24-.28-6.17-1.56-9.23-2.46-3.67-1.09-7.45-1.8-11.19-2.64-1.44-.33-4.2,1.63-4.28,3-.15,2.54-.41,5.08-.42,7.61,0,12.16,0,24.32,0,36.48a55.87,55.87,0,0,1-.53,7.65,12.93,12.93,0,0,1-3.17,6.85A85.64,85.64,0,0,1,972,360.55c-2.73,2.05-4,4.85-4.67,8.07s-1.61,6.2-2.13,9.35c-2.71,16.42-7.13,32.48-10.24,48.81-1.91,10.05-4.25,20-6.55,30-1.15,5-2.51,9.93-4,14.82a15.8,15.8,0,0,1-7,8.84q-34.87,22-69.82,44c-7.05,4.4-14.27,8.52-21.5,12.62a17,17,0,0,1-9.25,2.17c-10.22-.52-20.42-1.09-30.57-2.62-14.54-2.2-29.11-4.23-43.71-6-7.65-.93-15.17-2.35-22.67-4a9.4,9.4,0,0,1-6.29-4c-7.17-11.37-15-22.26-23-33.06a63.32,63.32,0,0,1-11.66-28.05c-3.47-21.47-7.4-42.86-10.77-64.34-1.2-7.61-3.12-15-4.44-22.59a11.65,11.65,0,0,0-5.25-7.64c-.52-.37-1-.78-1.57-1.1-12-7.08-11.16-8.87-11.57-19.85-.37-10.23-.41-20.47-.57-30.7s.25-20.45-1.27-30.61c-.21-1.4-2.75-3.16-4.3-3a36.69,36.69,0,0,0-3.81.44c-8.06,2-16.13,4-24.15,6.2-8.63,2.36-17.19,5-25.81,7.39A71.78,71.78,0,0,0,583,306.32c-8.35,5.92-16.59,12-24.82,18.08a23.52,23.52,0,0,0-4.11,4c-2.48,3-4.15,6.46-3.87,10.53.14,1.92.32,3.83.62,5.72q5.31,33.15,10.77,66.28c4.19,25.23,8.23,50.49,13.43,75.55,2.6,12.51,4.87,25.1,7.29,37.66,2.78,14.46,7.19,28.52,10.79,42.78,8.31,32.86,17.54,65.47,27.34,97.92,3.15,10.4,5.78,21,9.8,31.09.47,1.19,1,2.34,1.53,3.51.81,1.94,4.16,4,6.22,3.78a57.5,57.5,0,0,0,7.55-1.13c24.07-6.53,48.28-12.48,72.42-18.72,32.81-8.47,65.71-16.6,98.59-24.75a26.22,26.22,0,0,1,15.09.6c12.12,4,24.3,7.94,36.43,11.95,37,12.25,73.93,24.87,110.8,37.61,10.87,3.76,21.86,7.17,32.77,10.84a33.21,33.21,0,0,1,5.06,2.61c1.14.63,2,4.15,1.1,5.18a8.65,8.65,0,0,1-3.13,1.83,3.17,3.17,0,0,1-1.9-.05c-19.6-5.85-39.24-11.53-58.47-18.56-23.41-8.57-47-16.55-70.77-24.21-15.81-5.11-31.54-10.48-47.27-15.86-11.89-4.07-12.94-4-24.32-.9-21,5.74-42.29,10.08-63.26,15.78C728.3,691,707.77,695.79,687.33,701c-4.33,1.11-8.72,2-13.07,3a28.06,28.06,0,0,0-3.62,1.23c-4.49,1.76-8.14,5.05-5.52,12.11a3.43,3.43,0,0,0,2.7,2.44,35.19,35.19,0,0,0,5.64.89c7.68.14,15.35,0,23,.19,4.47.07,8.94.36,13.4.66,2.79.19,5.93,3.78,5.94,6.57,0,.63,0,1.27,0,1.91-.15,21.11-.41,42.23-.43,63.35,0,30.07.14,60.15.15,90.23,0,4.46-.32,8.93-.57,13.39-.13,2.4-2.64,5.07-4.82,5.15-7,.23-14.05.37-21.08.61-1.91.06-3.81.37-5.72.56-1.11.11-3.41,2.93-3.37,4.18q.35,10.54.65,21.07a13.59,13.59,0,0,1-.76,5.6,2.5,2.5,0,0,1-2.88,1.86,3.44,3.44,0,0,1-3.19-1.61,12.29,12.29,0,0,1-1.74-5.37c-.85-7.61-1.23-15.3-3.7-22.66a6.19,6.19,0,0,0-4.3-3.27c-1.92-.12-3.83-.34-5.74-.37-5.76-.06-11.52-.06-17.28-.06H493.3c-5.76,0-11.52,0-17.28-.12s-8.51-2.67-8.85-7.8-.58-10.21-.9-15.32c-.1-1.66-3.08-5.28-4.67-5.71-5.55-1.51-11.08-3.08-16.67-4.43s-7.52,0-7.52,5.28a188.79,188.79,0,0,0,2.3,28.66c.87,5.68,1.65,11.41,2,17.14.24,4.41,1,8.91-.56,13.29a2.46,2.46,0,0,1-2.81,1.92c-1.4,0-2.4-.36-3-1.78a9.84,9.84,0,0,1-.76-1.7c-.37-1.88-.73-3.77-.94-5.67-1.07-9.53-2.21-19.06-3.09-28.61-.82-8.91-1.21-17.86-2-26.78-.36-3.81-1.22-7.55-.25-11.38.33-1.28,3.07-3.53,4.28-3.33a56.3,56.3,0,0,1,5.64,1c6.79,1.83,13.53,3.81,20.32,5.63a21.4,21.4,0,0,0,3.77.23c1.48.12,2.29-.59,3-1.93a11.65,11.65,0,0,0,1.39-5.48q.15-18.24.12-36.47a21.39,21.39,0,0,0-.92-5.65,7.71,7.71,0,0,0-1.87-3.24,19.94,19.94,0,0,0-4.48-3.52c-9.59-5.11-19.18-10.24-28.91-15.07a107.76,107.76,0,0,0-21.72-7.51,21.86,21.86,0,0,0-5.67-.2c-.6,0-1.68.43-1.69.7,0,1.16-.22,2.72.42,3.45,3.38,3.83,7,7.42,10.51,11.16a27.84,27.84,0,0,1,2.23,3.11c1.14,1.6,1.05,5.63-.28,7.28-2.8,3.49-5.64,6.93-8.5,10.38s-2.57,6.26,1.3,9.81c1.89,1.73,4.07,3.17,5.79,5a8.74,8.74,0,0,1,2.2,7.09,37.13,37.13,0,0,1-1.46,7.5c-7.7,22.36-14.21,45.16-24.6,66.52a16.14,16.14,0,0,0-1.45,7.46c.05,3.18.58,6.39-.7,9.48a4,4,0,0,1-2.57,2.59,22.87,22.87,0,0,1-5.57,1c-8.32.14-16.64.13-24.95.15H323.12c-3.29,0-5.69-2-6.81-5.56a17,17,0,0,1-.4-1.88c-.47-2.55-1.2-5-3.18-6.81A25.86,25.86,0,0,1,307,915c-8.23-15.9-16.64-31.71-24.71-47.69-2.88-5.68-5.82-11.39-7.53-17.61a6.72,6.72,0,0,1,.88-5.5c2.39-3.77,5-7.39,7.55-11.07.91-1.31.49-4.11-.52-5.35-3.7-4.51-9-7.2-13-11.29a8.34,8.34,0,0,1-1.89-3.29,6.54,6.54,0,0,1-.25-3.7,19,19,0,0,1,2.57-5.11c2.93-4.18,6.1-8.2,9-12.38.93-1.32.56-2.52-.57-3a3.54,3.54,0,0,0-1.78-.5c-5.12.76-9.76,3-14.4,5.06-4.08,1.84-8,4.11-12,6.07-5.88,2.85-10.6,7.13-14.79,12a30.48,30.48,0,0,0-4.33,6.29A259.74,259.74,0,0,0,215,858.89c-4.86,16.59-8.94,33.34-12.54,50.23-1.47,6.87-2.62,13.82-3.94,20.72a11,11,0,0,1-2.69,5,2.41,2.41,0,0,1-3.41.67,4.42,4.42,0,0,1-2.5-2.63,9.76,9.76,0,0,1-.26-3.8,575.28,575.28,0,0,1,14.43-67.48,320.35,320.35,0,0,1,12.23-34.32,164.64,164.64,0,0,1,7.72-15.44,47.06,47.06,0,0,1,15.54-16.68,97.11,97.11,0,0,1,15.1-8.31A329.37,329.37,0,0,1,298,771.47a10.36,10.36,0,0,0,1.86-.48,6,6,0,0,0,3.56-4.16c.53-2.57-.76-5.71-2.56-6.76-1.65-1-3.27-2-5-2.84-2.86-1.42-5.86-2.58-8.66-4.1-10.17-5.51-19.81-11.73-27.68-20.39-2.58-2.84-5.39-5.47-8.09-8.19a32.55,32.55,0,0,1-5.79-7.59,39.91,39.91,0,0,0-4.28-6.35,40.82,40.82,0,0,1-5.82-9.88c-.51-1.18-.84-2.42-1.39-3.58a109.43,109.43,0,0,1-10.74-44.41,14.65,14.65,0,0,0-3-8.9c-1.58-2-3.06-4.1-4.48-6.23a24.59,24.59,0,0,1-3.61-18.36c.43-2.51.69-5.19,1.78-7.43,3.26-6.68,3.42-13.43,1.78-20.53-.88-3.78,0-7.63,1.29-11.3,1.75-4.82,3.16-10,6.58-13.79A26.61,26.61,0,0,0,230.82,547a15.47,15.47,0,0,1,3.09-9c1.81-2.64,3.72-5.21,5.62-7.78a22.28,22.28,0,0,0,3.74-8.75c.66-3.13,1.28-6.26,2-9.38,1-4.57,3.86-8,7.29-11a22.71,22.71,0,0,1,4.68-3.34c6.71-3.25,8.25-8.68,8.09-15.73s-.07-14.06-.08-21.09a14.83,14.83,0,0,1,1.86-7.36c1.56-2.79,3.29-5.51,4.61-8.41a12.53,12.53,0,0,0-1.12-12.76c-1.78-2.65-4-5-5.67-7.72a19.23,19.23,0,0,1-2.81-12.86,11,11,0,0,1,3.35-6.72,15.28,15.28,0,0,1,12.23-4.4,13.83,13.83,0,0,1,7,2.89,36.39,36.39,0,0,1,10.79,13.28,39.44,39.44,0,0,1,3.39,9c1.08,4.74,3.94,7.87,7.74,10.49a23.36,23.36,0,0,1,9.11,12c.82,2.42,1.61,4.85,2.4,7.29a31.64,31.64,0,0,0,1.2,3.64,9.76,9.76,0,0,0,7.16,5.76,12,12,0,0,0,1.89.32c6.12.18,11,3,15.27,7.14,1.85,1.77,3.62,3.61,5.45,5.4a9.85,9.85,0,0,0,5.11,2.42c1.25.26,2.52.44,3.79.6,8.07,1.07,14.31,5.31,19.4,11.38a90,90,0,0,1,5.42,7.88,10.44,10.44,0,0,0,4.28,3.71,49.11,49.11,0,0,0,5.35,2.11c8.36,2.77,14.08,8.61,18.49,15.92a53,53,0,0,1,3.4,6.88c1.63,3.88,4.77,5.82,8.5,7.18,2.52.92,5.82-.24,6.42-2.4,3.75-13.55,7.57-27.08,11.2-40.67,2.8-10.49,6.34-20.8,8.33-31.5a4.56,4.56,0,0,0-.94-3.55,98,98,0,0,0-16.41-13.18c-4.86-3.05-9.84-6-13.87-10.22a6.34,6.34,0,0,1-1.85-5.21,43.07,43.07,0,0,1,.92-5.66q9.24-37.23,18.59-74.45a59.56,59.56,0,0,1,3.34-9,7.73,7.73,0,0,1,2.46-2.85,26.91,26.91,0,0,1,4.89-3c3.47-1.62,7-3.13,10.56-4.54,32.71-13,65.73-25,99.76-34.14,12.39-3.32,24.82-6.19,37.64-7.08a54.32,54.32,0,0,0,13.18-2.43c17-5.61,34.34-10.07,51.7-14.45,2.39-.6,4.72-3.21,4.84-5.31.13-2.55.36-5.1.37-7.65.06-9-.05-17.92.1-26.88a46.66,46.66,0,0,1,1.09-9.5,10.72,10.72,0,0,1,5.52-7.4,2.78,2.78,0,0,1,1.89,0,3.25,3.25,0,0,1,2.32,2.58,9.74,9.74,0,0,1-.32,3.79,69.66,69.66,0,0,0-2,19c.22,21.12-.46,42.23.73,63.34.4,7,.15,14.08.19,21.12,0,3.2-.07,6.4.07,9.59.84,19.93-.22,18.85,18.44,29.76,5.51,3.22,11.37,5.85,17,8.88,3.94,2.11,7.81,4.36,11.64,6.67a10.32,10.32,0,0,1,5.12,7.69c1.43,10.14,2.86,20.27,4.21,30.42q3.3,24.72,6.48,49.47c1.78,14,3.44,27.93,5.17,41.9.16,1.26.51,2.5.73,3.76a7.59,7.59,0,0,0,5,5.32c7.5,1.58,15,3.38,22.62,4.12,15.92,1.52,31.69,4.16,47.51,6.47,4.42.64,8.9.83,13.36,1.14a6.23,6.23,0,0,0,5.66-4.31c.12-.63.41-1.23.5-1.86,3-23.48,6.94-46.81,11-70.13,2-11.34,3.29-22.79,4.89-34.2,1-7,2.11-13.92,4.55-20.55a7.07,7.07,0,0,1,2.38-2.87,31.08,31.08,0,0,1,8.57-4.21q26.14-9.48,52.26-19.06c11.4-4.18,22.76-8.49,33.75-13.71a72.19,72.19,0,0,0,22.95-17,5.87,5.87,0,0,0,1.66-3.38c.18-1.91.54-3.81.55-5.71,0-8.32,0-16.64-.12-25C979.21,297.83,978.94,287.6,978.72,277.36ZM377,511l.6.61a14.57,14.57,0,0,0-2.49-7.15,55.74,55.74,0,0,0-12-12.26,14.18,14.18,0,0,0-3.39-1.76,17,17,0,0,0-3.69-1c-16.38-2.49-12.28.41-21.9-12.19a9,9,0,0,0-4.78-3,11.86,11.86,0,0,0-3.75-.64c-5.61.24-9.72-2.19-13.17-6.48-2-2.51-4.6-1.05-6.89,0-1.48.69-2.59.45-3.18-1a2,2,0,0,1,.06-1.63c1.07-1.56,2.34-3,3.45-4.52,3.46-4.83,3-10.38-1.21-13.66a26,26,0,0,0-3.07-2.29,24,24,0,0,1-12.28-16.34,12.58,12.58,0,0,0-1.53-3.44,2.25,2.25,0,0,0-1.41-1.11c-2.87-.2-4.93-.62-3.47-4.43,1.36-3.53-.66-6.06-3.4-8.06-1.39-1-4.52-1.12-5.29,0a6.22,6.22,0,0,0-1.24,3.47,15.85,15.85,0,0,0,1.1,5.55c1,2.33,2.78,4.33,3.69,6.68,3.58,9.27,4.77,18.54-.79,27.62a24.22,24.22,0,0,0-2.38,5.23,7.74,7.74,0,0,0,.39,5.56c.76,1.72,1.62,3.49,1.16,5.52-2,8.75-2.71,17.67-3.63,26.57a6.73,6.73,0,0,1-2.94,4.73A53.45,53.45,0,0,1,263,505.5c-6.67,3.66-10.52,9.14-11,16.82-.05.64-.15,1.28-.15,1.91.05,4.07-1.74,7.29-4.25,10.38A106.31,106.31,0,0,0,241,544a12.93,12.93,0,0,0-2.1,7.26,28.68,28.68,0,0,0,.11,3.83c.68,4.71-.27,8.83-3.79,12.28a40.6,40.6,0,0,0-4.92,5.87c-4.08,6-6.46,12.45-4.55,19.86.16.62.27,1.25.38,1.88.73,3.84.78,7.66-.88,11.28-2.45,5.35-2.85,11.12-3.42,16.83a25.62,25.62,0,0,0,.47,5.7c.71,5.28,5.65,7.7,9.67,4.78a40.36,40.36,0,0,0,4.62-3.39c7.86-7.72,17.2-13.22,26.89-18.22,4-2,7.92-4.17,11.88-6.25A124,124,0,0,1,303.94,595c3.71-.93,7.47-1.81,11.06-3.1a306.88,306.88,0,0,1,33.18-9.39,144,144,0,0,1,49.48-3.46C407.82,580.18,418,581,428,583.7a27.08,27.08,0,0,0,9.51.78c1.51-.13,3.41-2.73,2.85-4.19-1.15-3-1.89-6.21-3.58-8.84A138.36,138.36,0,0,1,426.18,551a10.75,10.75,0,0,0-5.26-5.37c-3.42-1.71-7.32-2.68-10.38-4.86-3.84-2.74-3.18-8.2-5.75-11.89-.72-1-1.15-2.29-1.86-3.35-3.28-4.89-7.4-8.86-13.1-10.74C385.59,513.44,381.52,511.44,377,511Zm212.7,383.13h13.42q43.13,0,86.26,0c4.47,0,9,.18,13.37-.78,1.09-.23,3.56-2.81,3.87-3.9,1.25-4.39.89-8.87.89-13.32q0-60.39,0-120.8c0-5.11-.13-10.22-.33-15.33-.07-1.9-.49-3.79-.75-5.68-.19-1.34-2.52-3.59-3.87-3.78a29.31,29.31,0,0,0-3.78-.58q-35.46,0-70.92,0c-3.34,0-6.24,1.06-8.1,4.11-1,1.64-2,3.28-3.1,4.83-3.94,5.55-9.58,8.34-16.09,9.42a50.86,50.86,0,0,1-9.54.66c-11.39-.3-21.16-4.31-28.68-13.14-.83-1-1.61-2-2.39-3a7.68,7.68,0,0,0-4.92-2.62,20.14,20.14,0,0,0-3.8-.37q-33.56,0-67.09.12a35.3,35.3,0,0,0-3.8.5c-1.32.16-3.71,2.47-3.79,3.8-.25,3.81-.63,7.63-.64,11.45q-.11,65.19-.1,130.39c0,3.19,0,6.39.2,9.58.06,1.25.53,2.48.68,3.73s2.75,3.72,3.82,3.95c4.42,1,8.9.78,13.37.78Q541.78,894.1,589.71,894.08ZM384.11,587.8v0h-7.67c-6.41,0-12.83.2-19.05,1.76-7.43,1.87-15,3.14-22.31,5.53-10.31,3.36-20.81,6.17-31.19,9.36-3.65,1.12-7.2,2.62-10.76,4-11.31,4.47-22.08,10-32.8,15.75-9.71,5.16-17.76,12.43-25.84,19.67a8.12,8.12,0,0,0-2.46,7c.5,4.44,1.11,8.87,1.79,13.29a110.67,110.67,0,0,0,22.78,52.06,109,109,0,0,0,38.6,30.87c8.63,4.2,17.64,7.78,27.18,9,15.92,2.1,31.73,2,47.53-2.28,19.16-5.13,35.15-15.17,48.52-29.39,14.36-15.27,22.49-34,27.31-54.16a145.12,145.12,0,0,0,2.64-17,49.15,49.15,0,0,0,0-9.55c-.32-3.82-1.22-7.58-1.59-11.39-.87-9-3.53-17.52-6.4-26a37.34,37.34,0,0,0-3.34-6.88,10,10,0,0,0-5.81-4.73c-5.53-1.56-11.16-2.78-16.71-4.26a83.48,83.48,0,0,0-20.86-2.64C390.5,587.77,387.31,587.8,384.11,587.8Zm83.07,171.28h-.31c0-8.32,0-16.64,0-25,0-2.56.26-5.11.44-7.66.15-2.18,2.82-4.88,5-5.14A205.26,205.26,0,0,1,499.15,720a107.43,107.43,0,0,0,11.49-.42c2.73-.26,4.48-2.18,5.6-4.64a11.41,11.41,0,0,0,.69-1.79Q525,683.5,533.36,654c8.55-30.14,16.67-60.41,25-90.62q2.28-8.33,4.46-16.68c.92-3.5-.45-6.38-3.13-8.43-3.53-2.73-7.32-5.12-11-7.64-7.4-5.05-15-9.84-22.17-15.17-18-13.33-35.79-26.91-53.68-40.38-2.55-1.92-5.15-3.79-7.77-5.62-1-.73-2.23-1.25-3.33-1.91-1.55-.92-4.14-.19-4.79,1.44a60,60,0,0,0-2.71,7.15q-7,26.91-13.83,53.87c-1.25,5-2.29,10-3.55,14.93-1,4,0,7.63,1.71,11.1,1.43,2.85,3.37,5.45,4.79,8.31a98.85,98.85,0,0,1,5.41,12.26c1.66,4.95,2,10-1.12,14.76-1.95,2.89-1.92,6-.78,9.11,1.53,4.21,3.18,8.37,4.62,12.61,6.41,18.84,7.84,46.17,1.93,66.25A186.12,186.12,0,0,1,447,697.39a100.45,100.45,0,0,1-14.63,24.7c-12.18,15.08-26.31,27.93-44.73,35.23-3,1.18-5.86,2.56-8.75,3.93-.52.25-.86.88-1.26,1.36a3.25,3.25,0,0,0-.53,3.56,2.57,2.57,0,0,0,1.07,1.3c4.11,1.81,8.67,2,12.9,3.46,2.39.82,5,1,7.53,1.4A84.35,84.35,0,0,1,408,774c10.42,3.1,20.8,6.37,30.57,11.23,6.3,3.14,12.51,6.44,18.8,9.6a32.48,32.48,0,0,0,5.31,2.12,2.71,2.71,0,0,0,3-1.62,16.82,16.82,0,0,0,1.42-7.47ZM557.94,444c-2.63-15.67-4.42-26.37-6.22-37.06-3-17.62-6.05-35.22-8.87-52.87-.9-5.66-1.17-11.42-1.59-17.15a19.55,19.55,0,0,1,.31-5.72,12.08,12.08,0,0,1,2.24-5.16,87.86,87.86,0,0,1,9.36-9.54c4.37-3.71,9.12-7,13.64-10.5a1.72,1.72,0,0,0-1.27-2.76c-9,.87-17.34,4.14-25.86,6.72-29.33,8.88-57.92,19.85-86.45,31-4.5,1.76-7.42,4.75-8.58,9.47-.3,1.24-.88,2.41-1.17,3.65-5.06,21.76-10.42,43.43-16.4,65a25.61,25.61,0,0,0-.73,5.67,7.82,7.82,0,0,0,2.92,6.73c3,2.4,6,4.76,9.08,7,5.16,3.76,10.45,7.35,15.58,11.14q41.6,30.72,83.16,61.47c10.28,7.56,20.72,14.91,31.13,22.29a13.07,13.07,0,0,0,3.53,1.32c1.58.5,2.82-.09,2.82-1.69,0-5.1-2.26-9.84-2.54-14.94a43.47,43.47,0,0,0-1.49-7.5C565,486.9,561.42,462.9,557.94,444Zm292.33,79a21.83,21.83,0,0,0,3.52-1.44q38.25-23.81,76.48-47.65c3.41-2.12,5.85-4.81,6.74-8.84,2.75-12.48,5.63-24.93,8.34-37.42,3.52-16.23,6.93-32.49,10.34-48.75a21.92,21.92,0,0,0,.28-3.81,9.18,9.18,0,0,0-.22-1.87c-.29-1.58-1.14-2.35-2.48-2.13-8.95,1.48-16.65,6.36-25.08,9.27-18.11,6.26-36.1,12.86-54.14,19.34a36,36,0,0,0-5.29,2.17A7,7,0,0,0,865,406a52,52,0,0,0-1.37,5.57c-2.6,17.05-5.11,34.12-7.7,51.18-1.44,9.48-3,18.94-4.48,28.41s-3.11,18.91-4.61,28.37a3.68,3.68,0,0,0,.41,1.79A2.78,2.78,0,0,0,850.27,523Zm-213,197.84v-.23c3.19,0,6.39.09,9.58,0a18.91,18.91,0,0,0,3.69-.9c2.1-.52,3.75-4.1,2.88-6.27-.52-1.32-3.27-2.61-4.8-2.22-1.85.47-3.71.9-5.56,1.38s-3.68,1.13-5.55,1.49c-6,1.17-9.87-1.16-12.43-6.47a66.17,66.17,0,0,1-2.83-7.11c-5.46-15.7-9.84-31.75-14.91-47.58-4.68-14.62-9-29.32-12.8-44.2-3.45-13.63-7.08-27.22-10.71-40.8-1-3.7-2.2-7.34-3.41-11a12,12,0,0,0-1.71-3.39,7.21,7.21,0,0,0-4.76-2.81c-1.29-.2-3.75,1.9-4.14,3.49-6.34,25.44-13.72,50.6-20.41,75.94-1.8,6.8-3.8,13.54-5.73,20.3-5.29,18.44-10.64,36.86-15.83,55.32a80,80,0,0,0-1.58,9.41c-.21,1.31,1.94,4.16,3.15,4.15,5.75,0,11.5,0,17.24-.21,2.58-.11,5.06-1,6-3.88,2.62-8,8.65-12.41,16.16-15.16a32.07,32.07,0,0,1,5.58-1.39,59.69,59.69,0,0,1,21,.12,25.08,25.08,0,0,1,13.46,6.85c2.74,2.69,5.71,5.26,7.86,8.38,3.7,5.36,8.63,7.24,14.82,6.83C633.45,720.75,635.38,720.85,637.3,720.85Zm92.88-232.19c-.33-3.13-.62-7-1.17-10.73-.74-5-1.94-10-2.49-15.07q-1.37-12.35-3.3-24.61c-2-12.58-3.58-25.23-4.89-37.9-1.23-11.9-2.93-13.42-13.14-19-2.2-1.2-4.4-2.45-7.05-2.62-1.63-.11-2.27.4-2.65,2a22.27,22.27,0,0,0,.27,9.45c3.08,16.27,5.55,32.64,8.38,48.95,1.3,7.54,2.63,15.06,3.68,22.63a29.17,29.17,0,0,0,3.43,10.89c4.19,7.13,8.57,14.17,14.53,20a3.66,3.66,0,0,0,1.66.54c1.64.38,2.43-.32,2.44-2.06C729.88,490.59,730,490,730.18,488.66ZM308.84,842.11c-.35-5.42-.76-11.16-1.1-16.9-.79-13.39-2.63-26.67-4.65-39.92A2.19,2.19,0,0,0,302,784a2.77,2.77,0,0,0-3.56.49c-6.85,6.73-12.46,14.5-18.41,22a5.67,5.67,0,0,0-.86,1.7,3.79,3.79,0,0,0,.37,3.59,26.44,26.44,0,0,0,3.71,4.32c3.81,3.4,7.75,6.64,11.62,10,1.06.92,1.45,4.26.65,5.37-1.5,2.07-3.07,4.09-4.52,6.19s-2.83,4.26-4.22,6.39a8.77,8.77,0,0,0-.63,9.09q11.29,23.25,22.74,46.45a2.94,2.94,0,0,0,1.44,1.22,2.7,2.7,0,0,0,1.84.2,1.77,1.77,0,0,0,1-1.32c-.56-8.9-1.31-17.78-1.81-26.68C310.81,862.77,310.47,852.55,308.84,842.11Zm74.11.62c.16,2,.63,7.1.92,12.19.64,11.45,1.2,22.91,1.75,34.37.08,1.56.5,2.6,1.67,2.76a2.73,2.73,0,0,0,3.08-1.62q6.17-18.09,12.12-36.24a89.3,89.3,0,0,0,2.2-9.31,7.06,7.06,0,0,0-2.05-7c-3.27-3-6.71-5.84-10-8.8-1.61-1.44-1.88-5.41-.46-7.08,3.29-3.88,6.64-7.71,9.95-11.56,1-1.17,1.43-4.33.75-5.37-4.94-7.48-10.57-14.34-17.8-19.77a2.86,2.86,0,0,0-3.52-.11,3,3,0,0,0-1.84,2.93C380.51,805.33,380.73,822.55,383,842.73ZM584.56,706.92c-2.1.25-5.25.47-8.34,1a26.44,26.44,0,0,0-10.29,4.51c-1.9,1.33-3.15,4.6-2.52,6.57,6,18.59,25.39,24.93,41.33,18.29a7.57,7.57,0,0,0,1.51-1.12c5.74-4.32,6.81-13.23,2.35-18.52a34.89,34.89,0,0,0-10.18-8.31,20.87,20.87,0,0,0-9-2.45C588.13,706.87,586.86,706.92,584.56,706.92ZM320.07,764.8c-1.26.05-2.53.14-3.79.16s-3.31,2.79-3.09,4.27c1.08,7.06,5.8,11.25,11.8,13.9,9.64,4.25,19.76,5.1,29.71,1.27,6.78-2.61,11.8-7.35,12.65-15.2a2.55,2.55,0,0,0-1.87-3c-1.19-.37-2.47-1-3.62-.82a141,141,0,0,1-38-.26C322.6,765,321.33,764.92,320.07,764.8Z"/><path d="M849.68,354.34c-10.2,0-20.41,0-30.61,0-1.91,0-3.81-.19-5.72-.31-3.21-.2-6.23-3-6.29-6-.12-5.73-.13-11.47-.13-17.2a7.71,7.71,0,0,1,.46-1.85,7.16,7.16,0,0,1,3.48-4.3,13.75,13.75,0,0,1,3.49-1.47c11.06-3,22.14-6,33.37-8.42,13.07-2.82,26-6.22,39-9.33,1.85-.44,3.75-.65,5.63-1,2.07-.33,5.51,2.06,5.68,4,1.12,12.71,1.93,25.43.33,38.17-.34,2.7-3.55,5.62-6.71,5.85-6.36.47-12.71,1-19.08,1.16-7.64.2-15.3.05-23,.05Zm.21-9.31c4,0,10.35,0,16.74,0a80.86,80.86,0,0,0,20.82-2.64,3.39,3.39,0,0,0,2.46-2.66c1.63-6.94,1-13.93.37-20.92-.1-1.28-2.75-3.69-4-3.56-2.52.24-5.13.14-7.53.81-12.31,3.42-24.75,6.33-37.17,9.27-6.84,1.62-13.65,3.35-20.45,5.11a15.24,15.24,0,0,0-3.5,1.51,3.89,3.89,0,0,0-1.23,1.45c-1.73,2.93-2,6-.3,9a5.65,5.65,0,0,0,2.77,2.37,17.71,17.71,0,0,0,5.61.84C832.12,345.52,839.79,345.28,849.89,345Z"/><path d="M763.63,338.63c.07-.68-.23,2.48-.56,5.65-.22,2.2-3.07,4.83-5.25,4.75-3.82-.12-7.7.06-11.43-.58-15.11-2.59-30.36-4.16-45.51-6.42-2.52-.37-5-1-7.48-1.54-3.92-.92-7-4.28-7.22-8-.62-10.83-1.38-21.67-.1-32.51.26-2.25,3.28-4.47,5.56-4.05a30.86,30.86,0,0,1,3.77.61c7.88,2.57,15.81,5,23.59,7.91,12,4.42,23.83,9.13,35.74,13.72a25.48,25.48,0,0,1,3.53,1.47c2.89,1.65,5,4,5.32,7.44C763.82,329.64,763.63,332.21,763.63,338.63ZM694.4,315.5c.33,4.79.53,8,.79,11.15a10,10,0,0,0,.5,1.81,4.34,4.34,0,0,0,2.3,2.89,23.74,23.74,0,0,0,5.24,2.18c6.89,1.32,13.79,2.52,20.73,3.55,6.3.94,12.63,1.74,19,2.31a31.49,31.49,0,0,0,7.53-.61,3.86,3.86,0,0,0,2.74-2.37c1.69-3.51.37-8.29-2.76-10.06a14.4,14.4,0,0,0-1.61-1q-23.12-9.09-46.24-18.12a25,25,0,0,0-3.72-.75c-1.39-.3-4.11,1.65-4.18,3C694.57,312,694.45,314.56,694.4,315.5Z"/><path d="M258.2,894.36c-1.83,12.58-3.61,25.17-5.55,37.73-.17,1.1-1.24,2.13-2.06,3a3.09,3.09,0,0,1-3.5.76,3.5,3.5,0,0,1-2.6-2.42,9.49,9.49,0,0,1-.35-3.73c1.68-10.68,2.42-21.49,4.56-32.12,1.25-6.22,1.58-12.62,2.52-18.91.17-1.11,1.34-2.08,2.05-3.11a2.33,2.33,0,0,1,3.3-.87,4.27,4.27,0,0,1,2.54,2.58,9.74,9.74,0,0,1,.44,3.74c-.5,4.42-1.17,8.83-1.78,13.24Z"/><path class="cls-2" d="M589.71,894.08q-47.93,0-95.85,0c-4.47,0-8.95.17-13.37-.78-1.07-.23-3.67-2.8-3.82-3.95s-.62-2.48-.68-3.73c-.15-3.19-.2-6.39-.2-9.58q0-65.19.1-130.39c0-3.82.39-7.64.64-11.45.08-1.33,2.47-3.64,3.79-3.8a35.3,35.3,0,0,1,3.8-.5q33.54-.1,67.09-.12a20.14,20.14,0,0,1,3.8.37,7.68,7.68,0,0,1,4.92,2.62c.78,1,1.56,2,2.39,3,7.52,8.83,17.29,12.84,28.68,13.14a50.86,50.86,0,0,0,9.54-.66c6.51-1.08,12.15-3.87,16.09-9.42,1.11-1.55,2.11-3.19,3.1-4.83,1.86-3,4.76-4.11,8.1-4.11q35.46,0,70.92,0a29.31,29.31,0,0,1,3.78.58c1.35.19,3.68,2.44,3.87,3.78.26,1.89.68,3.78.75,5.68.2,5.11.33,10.22.33,15.33q.06,60.4,0,120.8c0,4.45.36,8.93-.89,13.32-.31,1.09-2.78,3.67-3.87,3.9-4.42,1-8.9.78-13.37.78q-43.12,0-86.26,0H589.71ZM577.89,832c-2.1-.45-2.72-2.47-4-3.76-1.53-1.51-4-1.63-5.11-.19-1.54,2-2.93,4.14-4.47,6.16-1.07,1.4-2.06,1.31-3,.11-2-2.42-3.27-5.51-6.31-7a3.85,3.85,0,0,0-3.68,0,3.34,3.34,0,0,0-1.38,3.22c.36,4.58,2.66,8.57,4.53,12.56a40.71,40.71,0,0,1,3.77,16.67,22.24,22.24,0,0,0,.44,3.81,4.86,4.86,0,0,0,.93,1.65,3.79,3.79,0,0,0,3.22,1.6c.4,0,.88-.75,1.15-1.25,1.92-3.52.9-7.56,1.93-11.21A80.78,80.78,0,0,1,573.94,835c1-1.73,2.81-2.54,4.44-3.54-2.62,8.66-2,17.46-1.09,26.27a7.62,7.62,0,0,0,.38,1.84c1.64,4.32,4.23,7.83,8.92,9a10.85,10.85,0,0,0,12.64-5.85,40.21,40.21,0,0,0,3.34-8.8,30.16,30.16,0,0,0-4.69-23.44,8.75,8.75,0,0,0-4.39-3.36,12.92,12.92,0,0,0-10.91,1.37C581,829.47,579.57,830.7,577.89,832Zm-28.31-47.59c.45-5.6.64-7.5.74-9.42a10.21,10.21,0,0,0-.25-1.88,3.32,3.32,0,0,0-2.17-2.87c-.37-.14-1.14.32-1.5.71-.86.91-1.57,2-2.37,2.93-2.47,3-3.76,3-5.53-.11-.63-1.09-1.1-2.28-1.77-3.33-.87-1.39-4.44-1.18-5.1.31a52,52,0,0,0-2,5.3c-.48,1.49-1.17,2.34-2.21,2-.53-.15-1-.8-1.31-1.32-1-1.62-1.87-3.36-3-4.92a2.79,2.79,0,0,0-3.07-1.32,3.12,3.12,0,0,0-2.15,3c-.38,7.06,1,14,2.09,20.87.7,4.39,2.08,8.68,3.1,13a2.69,2.69,0,0,0,2.61,2.37c2.55.24,3.4-.12,4.54-2.34.58-1.13,1.15-2.27,1.71-3.41a2.75,2.75,0,0,1,3.12-1.72,2,2,0,0,1,1.27,1c.81,1.73,1.4,3.56,2.24,5.26a3.52,3.52,0,0,0,3,1.94,3,3,0,0,0,3.13-1.63,44.75,44.75,0,0,0,2-5.36C549,796.06,549.31,788.38,549.58,784.42Zm86.68,9.29c0-7.5.09-13.25-.07-19,0-1.15-1-2.29-1.55-3.4-.77-1.47-1.88-1.77-3.18-.89-.47.32-1.13.73-1.22,1.19-.47,2.49-.87,5-1.15,7.52-.17,1.58-.59,2.6-1.57,2.57a2.45,2.45,0,0,1-1.64-.87c-1.17-1.49-2.24-3.06-3.28-4.65s-2-3.25-3-4.82c-.93-1.4-3.37-2-5.12-1.22a3.56,3.56,0,0,0-2.36,2.78c-.5,3.15-1.37,6.31-1.28,9.45.21,7.65.88,15.29,1.4,22.93a2.83,2.83,0,0,0,.63,1.78c.86.76,1.91,1.76,2.91,1.79,1.4,0,2.17-1.18,2.35-2.57.41-3.14.82-6.28,1.32-9.41a1.45,1.45,0,0,1,1.07-.93,2.33,2.33,0,0,1,1.68.76c1.37,2.15,2.59,4.39,3.89,6.59,1,1.63,1.92,3.27,3,4.83a2.85,2.85,0,0,0,3.35,1.31c1-.4,2.51-1.39,2.62-2.26C635.67,802.15,636,797.05,636.26,793.71Zm-52.68-2.91H584c0,3.17,0,6.35,0,9.52,0,1.9.24,3.8.36,5.69s1.26,3.16,3.58,3.54a2.25,2.25,0,0,0,2.78-2c.39-1.85.78-3.7,1.15-5.56.32-1.56,1-2.4,2-2.19a2.54,2.54,0,0,1,1.55.95c1,1.59,1.92,3.28,2.87,4.93a18.45,18.45,0,0,0,2,3.24,3.76,3.76,0,0,0,3.49.93c1.34-.18,2.43-1,2.15-2.48-.58-3.08-1.63-6.07-2.35-9.14-.58-2.5-.67-5,.86-7.3a30,30,0,0,0,2-3.26c3.64-7.43-.25-19.2-11.38-19-1.9,0-3.8.15-5.69.31-2.62.22-5,2.34-5.11,4.67C583.94,779.41,583.78,785.11,583.58,790.8Zm84.33-2.43c0,6.47,0,12.17,0,17.86,0,2.28,2.54,4.62,5.08,4.46s5.14-.09,7.49-.83c5.81-1.84,9.83-5.66,11-11.88a42.41,42.41,0,0,0-.25-17,15,15,0,0,0-3.38-6.69c-4.06-4.67-9.17-6.46-15.29-5.66-1.62.21-3.89,2-3.95,3.44C668.34,777.77,668.11,783.46,667.91,788.37ZM577.4,800.54c-2.18-8.85-4.07-16.94-6.23-24.95-.47-1.75-1.79-3.32-2.9-4.84-1.4-1.91-5.67-1.39-6.52.73a59.11,59.11,0,0,0-2.73,7.11c-1.93,7.41-3.71,14.87-5.4,22.34a21.8,21.8,0,0,0-.37,5.71,3.14,3.14,0,0,0,1.92,2.86,3.09,3.09,0,0,0,3.51-.77c.85-.92,1.5-2,2.36-2.93a14.06,14.06,0,0,1,2.8-2.44,3,3,0,0,1,3.6.17c2.31,2.12,4.42,4.44,6.72,6.57.28.27,1.21-.06,1.8-.25,1.15-.39,2.46-1.3,2.43-2.57A49,49,0,0,0,577.4,800.54ZM607,841c0,6,0,9.75,0,13.56a25.53,25.53,0,0,0,.51,3.76,13.27,13.27,0,0,0,4.77,8,11.31,11.31,0,0,0,15.4-1.23,13,13,0,0,0,3-6.86,111.31,111.31,0,0,0,.16-26.56,17.71,17.71,0,0,0-.65-1.75c-.36-1.7-1.21-2.06-2.8-1.59a3.18,3.18,0,0,0-2.55,2.34,17,17,0,0,0-.81,3.67c-.21,5.71-.2,11.42-.46,17.12a22.68,22.68,0,0,1-1.23,5.52,2.8,2.8,0,0,1-2.61,2.12,3.16,3.16,0,0,1-3.21-1.51c-.32-.54-.89-1-1-1.57a36,36,0,0,1-.84-5.62c-.21-5.71-.21-11.42-.41-17.12a19.11,19.11,0,0,0-.94-3.62c-.39-1.59-1.29-1.94-2.84-1.81a2.55,2.55,0,0,0-2.57,2.11C606.64,834.28,607.18,838.75,607,841Zm34.63-53.51c.19,6.26.33,11.94.54,17.62.13,3.4,2.42,5.4,6.24,5.59s7.57.4,11.3-.49a3.53,3.53,0,0,0,1.68-.81,4,4,0,0,0,.66-1.63,2.67,2.67,0,0,0-1.14-3.26,12.91,12.91,0,0,0-3.48-1.32c-1.21-.34-2.49-.42-3.71-.74-2.19-.58-3.65-2.09-3.7-3.73-.08-2.6.22-5,2.93-6.36,1.12-.55,2.17-1.23,3.25-1.88,1.59-1,1.61-3.49.29-4.88s-3.31-1.71-4.88-2.69a3.42,3.42,0,0,1-1.46-3.14,2.85,2.85,0,0,1,2-2.84c2.28-1,5-.77,6.92-2.57a2.72,2.72,0,0,0,.66-3.41c-.26-.52-.47-1.33-.88-1.47a25.7,25.7,0,0,0-13.06-.48c-1.31.24-3.45,2.48-3.52,3.92C642,778,641.84,783,641.65,787.5Zm-149.39,2.11h-.33c.16,5.06.3,10.13.48,15.19a6.19,6.19,0,0,0,.4,1.83,4,4,0,0,0,2.38,2.52c1.45.62,3.69-1.07,3.93-2.93a25.87,25.87,0,0,0,.56-3.76c-.15-9.5-.38-19-.62-28.49,0-.6-.47-1.17-.57-1.78-.26-1.73-1.07-2.06-2.72-1.72-1.29.28-2.26.69-2.65,2.17a17,17,0,0,0-.82,3.65C492.2,780.74,492.26,785.18,492.26,789.61Z"/><path class="cls-2" d="M384.11,587.8c3.2,0,6.39,0,9.59,0a83.48,83.48,0,0,1,20.86,2.64c5.55,1.48,11.18,2.7,16.71,4.26a10,10,0,0,1,5.81,4.73,37.34,37.34,0,0,1,3.34,6.88c2.87,8.48,5.53,17,6.4,26,.37,3.81,1.27,7.57,1.59,11.39a49.15,49.15,0,0,1,0,9.55,145.12,145.12,0,0,1-2.64,17c-4.82,20.18-12.95,38.89-27.31,54.16-13.37,14.22-29.36,24.26-48.52,29.39-15.8,4.23-31.61,4.38-47.53,2.28-9.54-1.26-18.55-4.84-27.18-9a109,109,0,0,1-38.6-30.87,110.67,110.67,0,0,1-22.78-52.06c-.68-4.42-1.29-8.85-1.79-13.29a8.12,8.12,0,0,1,2.46-7c8.08-7.24,16.13-14.51,25.84-19.67,10.72-5.7,21.49-11.28,32.8-15.75,3.56-1.4,7.11-2.9,10.76-4,10.38-3.19,20.88-6,31.19-9.36,7.33-2.39,14.88-3.66,22.31-5.53,6.22-1.56,12.64-1.76,19.05-1.76h7.67Zm.27,91.69c10.45-1.35,17.4-2.2,24.34-3.19a17.22,17.22,0,0,0,3.48-1.37c1.49-.58,1.82-1.58,1.51-3.13a2.92,2.92,0,0,0-2.23-2.58,8.57,8.57,0,0,0-1.81-.5c-14.18-.91-27.95,1.35-41.41,5.67a13.46,13.46,0,0,0-4.75,3.08,2.52,2.52,0,0,0,.29,3.31,5.25,5.25,0,0,0,3.34,1.48C374.18,682.19,380.86,679.45,384.38,679.49ZM343.51,625.2a14.74,14.74,0,0,0-3.56,1.18c-4.22,2.73-5.27,6.84-4.6,11.56a10.56,10.56,0,0,0,8.85,8.65,8.1,8.1,0,0,0,5.39-1.29,9.22,9.22,0,0,0,4.58-7.79,28.81,28.81,0,0,0-.55-5.63C352.87,627.7,348.19,624.68,343.51,625.2Zm79.12.61a29.71,29.71,0,0,0-.24-3.95,8.38,8.38,0,0,0-9.46-7c-4.19.47-6.82,3.09-8.29,6.68-1.26,3.08-.18,6.09,1.86,8.69a15.05,15.05,0,0,0,1.22,1.41,9.61,9.61,0,0,0,10.41,1.51A8.08,8.08,0,0,0,422.63,625.81ZM348.72,607.3a29.67,29.67,0,0,0-5.12.3c-6.74,1.45-13.18,3.7-18.84,7.83a3.33,3.33,0,0,0-1.42,3.21,3.46,3.46,0,0,0,3.73,3.11c.6-.12,1.3.12,1.84-.1,7-2.74,14.39-4.13,21.62-6.07a12.42,12.42,0,0,0,1.78-.6c.55-.24,1.05-.64,1.62-.85,1.58-.6,1.69-3,.26-4.59S351.05,607.66,348.72,607.3ZM407.29,597c-.62.11-1.25.19-1.86.34s-1.22.37-1.82.58c-1.62.57-3.68,3-3.58,4.12s2.65,3.18,4.26,3.36c2.06.23,18.25,3.92,20.24,4.54a4.32,4.32,0,0,0,1.86.1,3.33,3.33,0,0,0,1.76-.66,1.7,1.7,0,0,0,.07-1.52,9,9,0,0,0-1.82-3.26c-4.93-4.3-10.83-6.57-17.21-7.7A8.17,8.17,0,0,0,407.29,597Z"/><path class="cls-2" d="M467.18,759.08v28.79a16.82,16.82,0,0,1-1.42,7.47,2.71,2.71,0,0,1-3,1.62,32.48,32.48,0,0,1-5.31-2.12c-6.29-3.16-12.5-6.46-18.8-9.6-9.77-4.86-20.15-8.13-30.57-11.23a84.35,84.35,0,0,0-9.42-1.68c-2.52-.44-5.14-.58-7.53-1.4-4.23-1.46-8.79-1.65-12.9-3.46a2.57,2.57,0,0,1-1.07-1.3,3.25,3.25,0,0,1,.53-3.56c.4-.48.74-1.11,1.26-1.36,2.89-1.37,5.78-2.75,8.75-3.93,18.42-7.3,32.55-20.15,44.73-35.23A100.45,100.45,0,0,0,447,697.39a186.12,186.12,0,0,0,6.34-18.08c5.91-20.08,4.48-47.41-1.93-66.25-1.44-4.24-3.09-8.4-4.62-12.61-1.14-3.15-1.17-6.22.78-9.11,3.16-4.71,2.78-9.81,1.12-14.76a98.85,98.85,0,0,0-5.41-12.26c-1.42-2.86-3.36-5.46-4.79-8.31-1.74-3.47-2.73-7.12-1.71-11.1,1.26-5,2.3-10,3.55-14.93q6.86-27,13.83-53.87a60,60,0,0,1,2.71-7.15c.65-1.63,3.24-2.36,4.79-1.44,1.1.66,2.29,1.18,3.33,1.91,2.62,1.83,5.22,3.7,7.77,5.62,17.89,13.47,35.69,27.05,53.68,40.38,7.19,5.33,14.77,10.12,22.17,15.17,3.7,2.52,7.49,4.91,11,7.64,2.68,2,4.05,4.93,3.13,8.43q-2.17,8.36-4.46,16.68c-8.29,30.21-16.41,60.48-25,90.62Q525,683.5,516.93,713.11a11.41,11.41,0,0,1-.69,1.79c-1.12,2.46-2.87,4.38-5.6,4.64a107.43,107.43,0,0,1-11.49.42,205.26,205.26,0,0,0-26.81,1.36c-2.19.26-4.86,3-5,5.14-.18,2.55-.42,5.1-.44,7.66-.05,8.32,0,16.64,0,25Z"/><path class="cls-2" d="M557.94,444c3.48,18.9,7,42.9,12.6,66.53A43.47,43.47,0,0,1,572,518c.28,5.1,2.54,9.84,2.54,14.94,0,1.6-1.24,2.19-2.82,1.69a13.07,13.07,0,0,1-3.53-1.32c-10.41-7.38-20.85-14.73-31.13-22.29q-41.63-30.66-83.16-61.47c-5.13-3.79-10.42-7.38-15.58-11.14-3.08-2.25-6.1-4.61-9.08-7a7.82,7.82,0,0,1-2.92-6.73,25.61,25.61,0,0,1,.73-5.67c6-21.53,11.34-43.2,16.4-65,.29-1.24.87-2.41,1.17-3.65,1.16-4.72,4.08-7.71,8.58-9.47,28.53-11.14,57.12-22.11,86.45-31,8.52-2.58,16.89-5.85,25.86-6.72a1.72,1.72,0,0,1,1.27,2.76c-4.52,3.53-9.27,6.79-13.64,10.5a87.86,87.86,0,0,0-9.36,9.54,12.08,12.08,0,0,0-2.24,5.16,19.55,19.55,0,0,0-.31,5.72c.42,5.73.69,11.49,1.59,17.15,2.82,17.65,5.9,35.25,8.87,52.87C553.52,417.63,555.31,428.33,557.94,444Z"/><path class="cls-2" d="M377,511c4.51.49,8.58,2.49,12.82,3.88,5.7,1.88,9.82,5.85,13.1,10.74.71,1.06,1.14,2.31,1.86,3.35,2.57,3.69,1.91,9.15,5.75,11.89,3.06,2.18,7,3.15,10.38,4.86a10.75,10.75,0,0,1,5.26,5.37,138.36,138.36,0,0,0,10.56,20.41c1.69,2.63,2.43,5.87,3.58,8.84.56,1.46-1.34,4.06-2.85,4.19a27.08,27.08,0,0,1-9.51-.78c-9.93-2.72-20.14-3.52-30.3-4.65a144,144,0,0,0-49.48,3.46A306.88,306.88,0,0,0,315,591.9c-3.59,1.29-7.35,2.17-11.06,3.1a124,124,0,0,0-28.56,10.75c-4,2.08-7.9,4.2-11.88,6.25-9.69,5-19,10.5-26.89,18.22a40.36,40.36,0,0,1-4.62,3.39c-4,2.92-9,.5-9.67-4.78a25.62,25.62,0,0,1-.47-5.7c.57-5.71,1-11.48,3.42-16.83,1.66-3.62,1.61-7.44.88-11.28-.11-.63-.22-1.26-.38-1.88-1.91-7.41.47-13.86,4.55-19.86a40.6,40.6,0,0,1,4.92-5.87c3.52-3.45,4.47-7.57,3.79-12.28a28.68,28.68,0,0,1-.11-3.83A12.93,12.93,0,0,1,241,544a106.31,106.31,0,0,1,6.55-9.43c2.51-3.09,4.3-6.31,4.25-10.38,0-.63.1-1.27.15-1.91.51-7.68,4.36-13.16,11-16.82a53.45,53.45,0,0,0,6.55-3.95,6.73,6.73,0,0,0,2.94-4.73c.92-8.9,1.63-17.82,3.63-26.57.46-2-.4-3.8-1.16-5.52a7.74,7.74,0,0,1-.39-5.56,24.22,24.22,0,0,1,2.38-5.23c5.56-9.08,4.37-18.35.79-27.62-.91-2.35-2.69-4.35-3.69-6.68a15.85,15.85,0,0,1-1.1-5.55,6.22,6.22,0,0,1,1.24-3.47c.77-1.12,3.9-1,5.29,0,2.74,2,4.76,4.53,3.4,8.06-1.46,3.81.6,4.23,3.47,4.43a2.25,2.25,0,0,1,1.41,1.11,12.58,12.58,0,0,1,1.53,3.44A24,24,0,0,0,301.57,444a26,26,0,0,1,3.07,2.29c4.17,3.28,4.67,8.83,1.21,13.66-1.11,1.54-2.38,3-3.45,4.52a2,2,0,0,0-.06,1.63c.59,1.43,1.7,1.67,3.18,1,2.29-1.08,4.88-2.54,6.89,0,3.45,4.29,7.56,6.72,13.17,6.48a11.86,11.86,0,0,1,3.75.64,9,9,0,0,1,4.78,3c9.62,12.6,5.52,9.7,21.9,12.19a17,17,0,0,1,3.69,1,14.18,14.18,0,0,1,3.39,1.76,55.74,55.74,0,0,1,12,12.26,14.46,14.46,0,0,1,2.48,7.15,35.37,35.37,0,0,1-5.58-.35c-3.67-.84-7.26-2-10.88-3a17.87,17.87,0,0,0-11.08.48c-1.18.43-2.39.78-3.58,1.17.67-1.07,1.28-2.17,2-3.19a2.42,2.42,0,0,0-.16-3.44,3.63,3.63,0,0,0-3.24-1.3,7,7,0,0,0-3.5,1.28,37.54,37.54,0,0,1-18.3,9.17,2.68,2.68,0,0,0-1.47,1,2.84,2.84,0,0,0-.62,1.75,2.22,2.22,0,0,0,1,1.36,2.46,2.46,0,0,0,1.64.48c8.76-1.72,9.65-2.06,21.13-7.4.51-.24,1.25,0,2,0,1.35,0,2.77-.33,3.8.17,2.8,1.38,5.36,3.25,8.15,4.66,3.95,2,8.07,3.54,12.64,3.15a4.15,4.15,0,0,0,4-3.19A30.6,30.6,0,0,1,377,511ZM256.1,562.17c4,.71,7.95,1.73,12.07,1.2,1.48-2.73,4.26-4.14,6.3-6.14-1.24.3-1.39.11-.44-.55,0,.36.07.72.11,1.09-1.6.3-3.69.1-4.68,1s-.88,3-1.45,4.48a12.15,12.15,0,0,0-6.75-1.11c-1.72.18-3.45.14-5.11.38q-1,3.71-1.93,7.39a7,7,0,0,0-5.47.92c-2.71,1.69-5.35,3.5-8,5.18,1.21-.18,1.34,0,.39.52l0-1.12a27.25,27.25,0,0,0,3.72.11,6.84,6.84,0,0,0,4.93-2.27c1.18-1.42,2.62-2.61,3.91-4C256.23,567.52,255.87,564.75,256.1,562.17Zm30.8-105.81a12.66,12.66,0,0,0,3.41,1c1.61,0,2.17-1.13,1.4-2.55a1.76,1.76,0,0,0-1.68-.27,10.65,10.65,0,0,0-2.58,2.2l.65.43ZM297,563c-1.77,1.48-4,1.61-6.1,2.26a3.55,3.55,0,0,0-2.55,3.67c-.86,1.67-2.27,3.28-2.49,5-.93,7.47-4.68,13-10.7,17.28a53.46,53.46,0,0,0-5.94,4.77,2,2,0,0,0-.14,3.13c.44.41,1.09,1,1.56.89,1.86-.27,4-.31,5.46-1.26a103.89,103.89,0,0,0,9.1-6.88c3.28-2.61,4.24-6.3,4.05-10.21-.22-4.43-.89-8.84-1.35-13.25a14.68,14.68,0,0,0,3.53.26c3.74-.63,5.06-.77,5.51-5.59,1.6-.4,3,1.15,4.67.42C300.1,563.12,298.43,564.09,297,563Zm34.33-34c.63,1.19.49,1.49-.43.92l1-.34c-6.89-3.34-13.71-3.51-20.47.39a5.21,5.21,0,0,1-1.67.43c1.24-.75,1.47-.59.7.45-.15-.39-.31-.78-.47-1.17,4.78,0,9.55.18,14.32.1A65,65,0,0,0,331.33,529Zm37,4.21a28.53,28.53,0,0,1-9.12.6,61.14,61.14,0,0,0-7.29,0,2.2,2.2,0,0,0-1.44,1.07,2.36,2.36,0,0,0,.49,3.09,13.42,13.42,0,0,0,4.71,2.72,87.49,87.49,0,0,0,9.05,1.46c-1,5.3-4.62,9-8,12.78-5.17,5.8-11.84,7.25-19.17,6.32a37.9,37.9,0,0,1-7.32-2.12,20.55,20.55,0,0,0-7.46-1.46c-1.47.05-2.59.54-2.79,1.5a2,2,0,0,0,.85,1.64c3.89,2.19,7.8,4.33,11.78,6.36a10.54,10.54,0,0,0,3.67,1c5.79.54,11.47.13,16.9-2.22a9.13,9.13,0,0,0,4.4-3.52c1.31-2.18,2.4-4.51,3.61-6.76,2.55-4.74,6.69-7.56,11.56-9.48a4.05,4.05,0,0,1,3.7.35c4.88,3,9.69,6.14,14.63,9.05a8.6,8.6,0,0,0,3.7.68,3.77,3.77,0,0,0,1.71-.57c1.4-.65,1.35-1.56.25-3-6.37-8.11-14.22-12.62-24.92-10.7a66.87,66.87,0,0,1-7.59.59,39.24,39.24,0,0,0,3.84-9.79,16,16,0,0,0,6.27,3.44,4.07,4.07,0,0,0,5.35-3.17,2,2,0,0,0-1.55-2.8C374.27,529.34,371.06,530.61,368.29,533.24ZM306,478.36a8.41,8.41,0,0,1-4.61,2.95,22.89,22.89,0,0,1-9.29.07,25.57,25.57,0,0,0-5.53-.48,2.54,2.54,0,0,0-2.55,2.31c-.37,1.88,1.47,3.22,3.49,2.3A24.6,24.6,0,0,1,300.17,483c2.95.28,4.37-1.76,5.25-4.17l.95.6ZM262.78,580.2a3.69,3.69,0,0,0-2.43-2.75,2.76,2.76,0,0,0-3.37,1.16,103.73,103.73,0,0,0-9.28,16.44c-2.53,5.47-5.88,9.63-11.24,12.26a19.42,19.42,0,0,0-7.35,5.83,2.22,2.22,0,0,0,.53,3.26c.45.33,1.13.74,1.59.62,5.62-1.4,10.28-4.67,14.83-8a10,10,0,0,0,3.36-4.49,49.55,49.55,0,0,1,11.68-19.27,9.31,9.31,0,0,0,1.64-3.39A4.37,4.37,0,0,0,262.78,580.2Zm20.5-69.47c-3.27,4.69-7.39,5.83-9.16,9.41-.12.25.28,1,.62,1.22a2.43,2.43,0,0,0,1.61.66c4.53-.93,8-3.86,11.13-6.88,5.07-4.81,10.14-9.53,16.57-12.52a2.8,2.8,0,0,0,1.14-1.34,2.45,2.45,0,0,0,.24-1.73c-.22-.52-.93-1.23-1.38-1.2-6,.37-10.63,3.72-15.1,7.24C286.47,507.55,284.26,509.84,283.28,510.73Zm-1.54,27.41c-.05-1.25-.59-2.63-1.85-2.85a73.36,73.36,0,0,0-18.64-1.21,7.14,7.14,0,0,0-5.89,4.1,2.6,2.6,0,0,0-.23,1.59,2.48,2.48,0,0,0,2.7,2,19.93,19.93,0,0,0,7.29-1.48,16.43,16.43,0,0,1,7.39-.66,6.51,6.51,0,0,1,4.61,2.84c1.41,1.85,2.67,1.54,3.6-.8A35.42,35.42,0,0,0,281.74,538.14Zm127.78,15.44a4.24,4.24,0,0,0-3.35,1.38,2.92,2.92,0,0,0-.49,3.34,13.49,13.49,0,0,0,9.94,7.69,2.42,2.42,0,0,0,2.77-1.72,2.27,2.27,0,0,0-.1-1.83,83.45,83.45,0,0,0-5.48-7.45C412.11,554.18,410.64,554,409.52,553.58Z"/><path class="cls-2" d="M850.27,523a2.78,2.78,0,0,1-3-1.71,3.68,3.68,0,0,1-.41-1.79c1.5-9.46,3.09-18.91,4.61-28.37s3-18.93,4.48-28.41c2.59-17.06,5.1-34.13,7.7-51.18A52,52,0,0,1,865,406a7,7,0,0,1,3.78-4.1,36,36,0,0,1,5.29-2.17c18-6.48,36-13.08,54.14-19.34,8.43-2.91,16.13-7.79,25.08-9.27,1.34-.22,2.19.55,2.48,2.13a9.18,9.18,0,0,1,.22,1.87,21.92,21.92,0,0,1-.28,3.81c-3.41,16.26-6.82,32.52-10.34,48.75-2.71,12.49-5.59,24.94-8.34,37.42-.89,4-3.33,6.72-6.74,8.84Q892,497.71,853.79,521.57A21.83,21.83,0,0,1,850.27,523Z"/><path class="cls-2" d="M637.3,720.85c-1.92,0-3.85-.1-5.76,0-6.19.41-11.12-1.47-14.82-6.83-2.15-3.12-5.12-5.69-7.86-8.38a25.08,25.08,0,0,0-13.46-6.85,59.69,59.69,0,0,0-21-.12,32.07,32.07,0,0,0-5.58,1.39c-7.51,2.75-13.54,7.13-16.16,15.16-.93,2.84-3.41,3.77-6,3.88-5.74.24-11.49.17-17.24.21-1.21,0-3.36-2.84-3.15-4.15a80,80,0,0,1,1.58-9.41c5.19-18.46,10.54-36.88,15.83-55.32,1.93-6.76,3.93-13.5,5.73-20.3,6.69-25.34,14.07-50.5,20.41-75.94.39-1.59,2.85-3.69,4.14-3.49a7.21,7.21,0,0,1,4.76,2.81,12,12,0,0,1,1.71,3.39c1.21,3.64,2.42,7.28,3.41,11,3.63,13.58,7.26,27.17,10.71,40.8,3.75,14.88,8.12,29.58,12.8,44.2,5.07,15.83,9.45,31.88,14.91,47.58a66.17,66.17,0,0,0,2.83,7.11c2.56,5.31,6.41,7.64,12.43,6.47,1.87-.36,3.69-1,5.55-1.49s3.71-.91,5.56-1.38c1.53-.39,4.28.9,4.8,2.22.87,2.17-.78,5.75-2.88,6.27a18.91,18.91,0,0,1-3.69.9c-3.19.13-6.39,0-9.58,0Z"/><path class="cls-2" d="M730.18,488.66c-.16,1.3-.3,1.93-.3,2.55,0,1.74-.8,2.44-2.44,2.06a3.66,3.66,0,0,1-1.66-.54c-6-5.86-10.34-12.9-14.53-20a29.17,29.17,0,0,1-3.43-10.89c-1.05-7.57-2.38-15.09-3.68-22.63-2.83-16.31-5.3-32.68-8.38-48.95a22.27,22.27,0,0,1-.27-9.45c.38-1.62,1-2.13,2.65-2,2.65.17,4.85,1.42,7.05,2.62,10.21,5.55,11.91,7.07,13.14,19,1.31,12.67,2.9,25.32,4.89,37.9q1.95,12.28,3.3,24.61c.55,5.06,1.75,10,2.49,15.07C729.56,481.71,729.85,485.53,730.18,488.66Z"/><path class="cls-2" d="M308.84,842.11c1.63,10.44,2,20.66,2.54,30.86.5,8.9,1.25,17.78,1.81,26.68a1.77,1.77,0,0,1-1,1.32,2.7,2.7,0,0,1-1.84-.2,2.94,2.94,0,0,1-1.44-1.22q-11.43-23.2-22.74-46.45a8.77,8.77,0,0,1,.63-9.09c1.39-2.13,2.76-4.3,4.22-6.39s3-4.12,4.52-6.19c.8-1.11.41-4.45-.65-5.37-3.87-3.33-7.81-6.57-11.62-10a26.44,26.44,0,0,1-3.71-4.32,3.79,3.79,0,0,1-.37-3.59,5.67,5.67,0,0,1,.86-1.7c5.95-7.49,11.56-15.26,18.41-22A2.77,2.77,0,0,1,302,784a2.19,2.19,0,0,1,1.08,1.29c2,13.25,3.86,26.53,4.65,39.92C308.08,831,308.49,836.69,308.84,842.11Z"/><path class="cls-2" d="M383,842.73c-2.22-20.18-2.44-37.4-3.27-54.58a3,3,0,0,1,1.84-2.93,2.86,2.86,0,0,1,3.52.11c7.23,5.43,12.86,12.29,17.8,19.77.68,1,.27,4.2-.75,5.37-3.31,3.85-6.66,7.68-9.95,11.56-1.42,1.67-1.15,5.64.46,7.08,3.33,3,6.77,5.79,10,8.8a7.06,7.06,0,0,1,2.05,7,89.3,89.3,0,0,1-2.2,9.31q-5.92,18.16-12.12,36.24a2.73,2.73,0,0,1-3.08,1.62c-1.17-.16-1.59-1.2-1.67-2.76-.55-11.46-1.11-22.92-1.75-34.37C383.58,849.83,383.11,844.74,383,842.73Z"/><path class="cls-2" d="M584.56,706.92c2.3,0,3.57,0,4.82,0a20.87,20.87,0,0,1,9,2.45,34.89,34.89,0,0,1,10.18,8.31c4.46,5.29,3.39,14.2-2.35,18.52a7.57,7.57,0,0,1-1.51,1.12c-15.94,6.64-35.37.3-41.33-18.29-.63-2,.62-5.24,2.52-6.57A26.44,26.44,0,0,1,576.22,708C579.31,707.39,582.46,707.17,584.56,706.92Z"/><path class="cls-2" d="M320.07,764.8c1.26.12,2.53.2,3.79.37a141,141,0,0,0,38,.26c1.15-.16,2.43.45,3.62.82a2.55,2.55,0,0,1,1.87,3c-.85,7.85-5.87,12.59-12.65,15.2-9.95,3.83-20.07,3-29.71-1.27-6-2.65-10.72-6.84-11.8-13.9C313,767.75,315,765,316.28,765S318.81,764.85,320.07,764.8Z"/><path class="cls-2" d="M849.89,345c-10.1.25-17.77.49-25.43.57a17.71,17.71,0,0,1-5.61-.84,5.65,5.65,0,0,1-2.77-2.37c-1.75-3-1.43-6.07.3-9a3.89,3.89,0,0,1,1.23-1.45,15.24,15.24,0,0,1,3.5-1.51c6.8-1.76,13.61-3.49,20.45-5.11,12.42-2.94,24.86-5.85,37.17-9.27,2.4-.67,5-.57,7.53-.81,1.27-.13,3.92,2.28,4,3.56.6,7,1.26,14-.37,20.92a3.39,3.39,0,0,1-2.46,2.66A80.86,80.86,0,0,1,866.63,345C860.24,345.07,853.85,345,849.89,345Z"/><path class="cls-2" d="M694.4,315.5c.05-.94.17-3.47.29-6,.07-1.37,2.79-3.32,4.18-3a25,25,0,0,1,3.72.75q23.14,9,46.24,18.12a14.4,14.4,0,0,1,1.61,1c3.13,1.77,4.45,6.55,2.76,10.06a3.86,3.86,0,0,1-2.74,2.37,31.49,31.49,0,0,1-7.53.61c-6.34-.57-12.67-1.37-19-2.31-6.94-1-13.84-2.23-20.73-3.55a23.74,23.74,0,0,1-5.24-2.18,4.34,4.34,0,0,1-2.3-2.89,10,10,0,0,1-.5-1.81C694.93,323.47,694.73,320.29,694.4,315.5Z"/><path d="M549.58,784.42c-.27,4-.58,11.64-2.87,19.05a44.75,44.75,0,0,1-2,5.36,3,3,0,0,1-3.13,1.63,3.52,3.52,0,0,1-3-1.94c-.84-1.7-1.43-3.53-2.24-5.26a2,2,0,0,0-1.27-1A2.75,2.75,0,0,0,532,804c-.56,1.14-1.13,2.28-1.71,3.41-1.14,2.22-2,2.58-4.54,2.34a2.69,2.69,0,0,1-2.61-2.37c-1-4.35-2.4-8.64-3.1-13-1.09-6.91-2.47-13.81-2.09-20.87a3.12,3.12,0,0,1,2.15-3,2.79,2.79,0,0,1,3.07,1.32c1.09,1.56,1.94,3.3,3,4.92.33.52.78,1.17,1.31,1.32,1,.31,1.73-.54,2.21-2a52,52,0,0,1,2-5.3c.66-1.49,4.23-1.7,5.1-.31.67,1,1.14,2.24,1.77,3.33,1.77,3.08,3.06,3.1,5.53.11.8-1,1.51-2,2.37-2.93.36-.39,1.13-.85,1.5-.71a3.32,3.32,0,0,1,2.17,2.87,10.21,10.21,0,0,1,.25,1.88C550.22,776.92,550,778.82,549.58,784.42Z"/><path d="M636.26,793.71c-.28,3.34-.59,8.44-1.25,13.49-.11.87-1.58,1.86-2.62,2.26a2.85,2.85,0,0,1-3.35-1.31c-1.06-1.56-2-3.2-3-4.83-1.3-2.2-2.52-4.44-3.89-6.59a2.33,2.33,0,0,0-1.68-.76,1.45,1.45,0,0,0-1.07.93c-.5,3.13-.91,6.27-1.32,9.41-.18,1.39-1,2.62-2.35,2.57-1,0-2-1-2.91-1.79a2.83,2.83,0,0,1-.63-1.78c-.52-7.64-1.19-15.28-1.4-22.93-.09-3.14.78-6.3,1.28-9.45a3.56,3.56,0,0,1,2.36-2.78c1.75-.73,4.19-.18,5.12,1.22,1.06,1.57,2,3.24,3,4.82s2.11,3.16,3.28,4.65a2.45,2.45,0,0,0,1.64.87c1,0,1.4-1,1.57-2.57.28-2.52.68-5,1.15-7.52.09-.46.75-.87,1.22-1.19,1.3-.88,2.41-.58,3.18.89.58,1.11,1.52,2.25,1.55,3.4C636.35,780.46,636.26,786.21,636.26,793.71Z"/><path d="M583.58,790.8c.2-5.69.36-11.39.61-17.09.11-2.33,2.49-4.45,5.11-4.67,1.89-.16,3.79-.27,5.69-.31,11.13-.21,15,11.56,11.38,19a30,30,0,0,1-2,3.26c-1.53,2.3-1.44,4.8-.86,7.3.72,3.07,1.77,6.06,2.35,9.14.28,1.49-.81,2.3-2.15,2.48a3.76,3.76,0,0,1-3.49-.93,18.45,18.45,0,0,1-2-3.24c-.95-1.65-1.84-3.34-2.87-4.93a2.54,2.54,0,0,0-1.55-.95c-1-.21-1.72.63-2,2.19-.37,1.86-.76,3.71-1.15,5.56a2.25,2.25,0,0,1-2.78,2c-2.32-.38-3.46-1.63-3.58-3.54s-.32-3.79-.36-5.69c-.06-3.17,0-6.35,0-9.52Zm11-13.85a3.42,3.42,0,0,0-2.89,3.76,5.24,5.24,0,0,0,.29,1.76,10.87,10.87,0,0,0,1.91,2.94c.77.75,3.7-.59,4.53-2.07,1-1.76.38-3.43-.68-5A3.15,3.15,0,0,0,594.6,777Z"/><path d="M667.91,788.37c.2-4.91.43-10.6.67-16.28.06-1.42,2.33-3.23,3.95-3.44,6.12-.8,11.23,1,15.29,5.66A15,15,0,0,1,691.2,781a42.41,42.41,0,0,1,.25,17c-1.14,6.22-5.16,10-11,11.88-2.35.74-5,.68-7.49.83s-5.08-2.18-5.08-4.46C667.92,800.54,667.91,794.84,667.91,788.37Zm7.65.09c.22,3.29.43,6.44.65,9.6a2.73,2.73,0,0,0,3.87,2.28c1.65-1,3.12-2.06,3.66-4.06a24.92,24.92,0,0,0-.06-13.11A7,7,0,0,0,680.2,779a2.49,2.49,0,0,0-4,2.08C675.87,783.52,675.77,786.06,675.56,788.46Z"/><path d="M577.4,800.54a49,49,0,0,1,1,6.74c0,1.27-1.28,2.18-2.43,2.57-.59.19-1.52.52-1.8.25-2.3-2.13-4.41-4.45-6.72-6.57a3,3,0,0,0-3.6-.17,14.06,14.06,0,0,0-2.8,2.44c-.86.91-1.51,2-2.36,2.93a3.09,3.09,0,0,1-3.51.77,3.14,3.14,0,0,1-1.92-2.86,21.8,21.8,0,0,1,.37-5.71c1.69-7.47,3.47-14.93,5.4-22.34a59.11,59.11,0,0,1,2.73-7.11c.85-2.12,5.12-2.64,6.52-.73,1.11,1.52,2.43,3.09,2.9,4.84C573.33,783.6,575.22,791.69,577.4,800.54Z"/><path d="M578.06,831.83c1.51-1.13,3-2.36,4.52-3.39a12.92,12.92,0,0,1,10.91-1.37,8.75,8.75,0,0,1,4.39,3.36,30.16,30.16,0,0,1,4.69,23.44,40.21,40.21,0,0,1-3.34,8.8,10.85,10.85,0,0,1-12.64,5.85c-4.69-1.15-7.28-4.66-8.92-9a7.62,7.62,0,0,1-.38-1.84c-.94-8.81-1.53-17.61,1.09-26.27Zm17.17,15.85c-.12-2.69-.08-4.58-.34-6.43a17,17,0,0,0-1.18-3.52c-.5-1.3-3.39-3.28-4.4-2.83a8.81,8.81,0,0,0-3,2.12,7.88,7.88,0,0,0-1.66,3.27,31.08,31.08,0,0,0,0,14.88,12.7,12.7,0,0,0,1.7,3.29c.8,1.27,3.94,1.53,5,.5a8.59,8.59,0,0,0,2.9-4.65C594.68,851.85,595,849.37,595.23,847.68Z"/><path d="M607,841c.16-2.26-.38-6.73.94-11.07a2.55,2.55,0,0,1,2.57-2.11c1.55-.13,2.45.22,2.84,1.81a19.11,19.11,0,0,1,.94,3.62c.2,5.7.2,11.41.41,17.12a36,36,0,0,0,.84,5.62c.12.57.69,1,1,1.57a3.16,3.16,0,0,0,3.21,1.51,2.8,2.8,0,0,0,2.61-2.12,22.68,22.68,0,0,0,1.23-5.52c.26-5.7.25-11.41.46-17.12a17,17,0,0,1,.81-3.67,3.18,3.18,0,0,1,2.55-2.34c1.59-.47,2.44-.11,2.8,1.59a17.71,17.71,0,0,1,.65,1.75,111.31,111.31,0,0,1-.16,26.56,13,13,0,0,1-3,6.86,11.31,11.31,0,0,1-15.4,1.23,13.27,13.27,0,0,1-4.77-8,25.53,25.53,0,0,1-.51-3.76C607,850.76,607,847,607,841Z"/><path d="M641.65,787.5c.19-4.48.39-9.52.62-14.57.07-1.44,2.21-3.68,3.52-3.92a25.7,25.7,0,0,1,13.06.48c.41.14.62,1,.88,1.47a2.72,2.72,0,0,1-.66,3.41c-1.94,1.8-4.64,1.62-6.92,2.57a2.85,2.85,0,0,0-2,2.84,3.42,3.42,0,0,0,1.46,3.14c1.57,1,3.51,1.25,4.88,2.69s1.3,3.91-.29,4.88c-1.08.65-2.13,1.33-3.25,1.88-2.71,1.34-3,3.76-2.93,6.36.05,1.64,1.51,3.15,3.7,3.73,1.22.32,2.5.4,3.71.74a12.91,12.91,0,0,1,3.48,1.32,2.67,2.67,0,0,1,1.14,3.26,4,4,0,0,1-.66,1.63,3.53,3.53,0,0,1-1.68.81c-3.73.89-7.52.68-11.3.49s-6.11-2.19-6.24-5.59C642,799.44,641.84,793.76,641.65,787.5Z"/><path d="M578.38,831.43c-1.63,1-3.42,1.81-4.44,3.54a80.78,80.78,0,0,0-8.09,19.39c-1,3.65,0,7.69-1.93,11.21-.27.5-.75,1.24-1.15,1.25a3.79,3.79,0,0,1-3.22-1.6,4.86,4.86,0,0,1-.93-1.65,22.24,22.24,0,0,1-.44-3.81,40.71,40.71,0,0,0-3.77-16.67c-1.87-4-4.17-8-4.53-12.56a3.34,3.34,0,0,1,1.38-3.22,3.85,3.85,0,0,1,3.68,0c3,1.47,4.31,4.56,6.31,7,1,1.2,2,1.29,3-.11,1.54-2,2.93-4.15,4.47-6.16,1.1-1.44,3.58-1.32,5.11.19,1.3,1.29,1.92,3.31,4.11,3.67Z"/><path d="M492.26,789.61c0-4.43-.06-8.87,0-13.31a17,17,0,0,1,.82-3.65c.39-1.48,1.36-1.89,2.65-2.17,1.65-.34,2.46,0,2.72,1.72.1.61.56,1.18.57,1.78.24,9.5.47,19,.62,28.49a25.87,25.87,0,0,1-.56,3.76c-.24,1.86-2.48,3.55-3.93,2.93a4,4,0,0,1-2.38-2.52,6.19,6.19,0,0,1-.4-1.83c-.18-5.06-.32-10.13-.48-15.19Z"/><path d="M384.38,679.49c-3.52,0-10.2,2.7-17.24,2.77a5.25,5.25,0,0,1-3.34-1.48,2.52,2.52,0,0,1-.29-3.31,13.46,13.46,0,0,1,4.75-3.08c13.46-4.32,27.23-6.58,41.41-5.67a8.57,8.57,0,0,1,1.81.5,2.92,2.92,0,0,1,2.23,2.58c.31,1.55,0,2.55-1.51,3.13a17.22,17.22,0,0,1-3.48,1.37C401.78,677.29,394.83,678.14,384.38,679.49Z"/><path d="M343.51,625.2c4.68-.52,9.36,2.5,10.11,6.68a28.81,28.81,0,0,1,.55,5.63,9.22,9.22,0,0,1-4.58,7.79,8.1,8.1,0,0,1-5.39,1.29,10.56,10.56,0,0,1-8.85-8.65c-.67-4.72.38-8.83,4.6-11.56A14.74,14.74,0,0,1,343.51,625.2Z"/><path d="M422.63,625.81a8.08,8.08,0,0,1-4.5,7.33,9.61,9.61,0,0,1-10.41-1.51,15.05,15.05,0,0,1-1.22-1.41c-2-2.6-3.12-5.61-1.86-8.69,1.47-3.59,4.1-6.21,8.29-6.68a8.38,8.38,0,0,1,9.46,7A29.71,29.71,0,0,1,422.63,625.81Z"/><path d="M348.72,607.3c2.33.36,4.12.75,5.47,2.24s1.32,4-.26,4.59c-.57.21-1.07.61-1.62.85a12.42,12.42,0,0,1-1.78.6c-7.23,1.94-14.61,3.33-21.62,6.07-.54.22-1.24,0-1.84.1a3.46,3.46,0,0,1-3.73-3.11,3.33,3.33,0,0,1,1.42-3.21c5.66-4.13,12.1-6.38,18.84-7.83A29.67,29.67,0,0,1,348.72,607.3Z"/><path d="M407.29,597a8.17,8.17,0,0,1,1.9-.1c6.38,1.13,12.28,3.4,17.21,7.7a9,9,0,0,1,1.82,3.26,1.7,1.7,0,0,1-.07,1.52,3.33,3.33,0,0,1-1.76.66,4.32,4.32,0,0,1-1.86-.1c-2-.62-18.18-4.31-20.24-4.54-1.61-.18-4.16-2.19-4.26-3.36s2-3.55,3.58-4.12c.6-.21,1.2-.43,1.82-.58S406.67,597.1,407.29,597Z"/><path d="M364.13,542.67a74.46,74.46,0,0,0,7.64-.62c10.7-1.92,18.55,2.59,24.92,10.7,1.1,1.4,1.15,2.31-.25,3a3.77,3.77,0,0,1-1.71.57,8.6,8.6,0,0,1-3.7-.68c-4.94-2.91-9.75-6-14.63-9.05a4.05,4.05,0,0,0-3.7-.35c-4.87,1.92-9,4.74-11.56,9.48-1.21,2.25-2.3,4.58-3.61,6.76a9.13,9.13,0,0,1-4.4,3.52c-5.43,2.35-11.11,2.76-16.9,2.22a10.54,10.54,0,0,1-3.67-1c-4-2-7.89-4.17-11.78-6.36a2,2,0,0,1-.85-1.64c.2-1,1.32-1.45,2.79-1.5a20.55,20.55,0,0,1,7.46,1.46,37.9,37.9,0,0,0,7.32,2.12c7.33.93,14-.52,19.17-6.32,3.4-3.8,7-7.48,8-12.78Z"/><path d="M262.78,580.2a4.37,4.37,0,0,1,0,1.64,9.31,9.31,0,0,1-1.64,3.39,49.55,49.55,0,0,0-11.68,19.27,10,10,0,0,1-3.36,4.49c-4.55,3.36-9.21,6.63-14.83,8-.46.12-1.14-.29-1.59-.62a2.22,2.22,0,0,1-.53-3.26,19.42,19.42,0,0,1,7.35-5.83c5.36-2.63,8.71-6.79,11.24-12.26A103.73,103.73,0,0,1,257,578.61a2.76,2.76,0,0,1,3.37-1.16A3.69,3.69,0,0,1,262.78,580.2Z"/><path d="M287.89,568.44c.47,4.42,1.14,8.83,1.36,13.26.19,3.91-.77,7.6-4.05,10.21a103.89,103.89,0,0,1-9.1,6.88c-1.49,1-3.6,1-5.46,1.26-.47.07-1.12-.48-1.56-.89a2,2,0,0,1,.14-3.13,53.46,53.46,0,0,1,5.94-4.77c6-4.26,9.77-9.81,10.7-17.28.22-1.75,1.63-3.36,2.49-5Z"/><path d="M283.28,510.73c1-.89,3.19-3.18,5.67-5.14,4.47-3.52,9.11-6.87,15.1-7.24.45,0,1.16.68,1.38,1.2a2.45,2.45,0,0,1-.24,1.73,2.8,2.8,0,0,1-1.14,1.34c-6.43,3-11.5,7.71-16.57,12.52-3.17,3-6.6,6-11.13,6.88a2.43,2.43,0,0,1-1.61-.66c-.34-.27-.74-1-.62-1.22C275.89,516.56,280,515.42,283.28,510.73Z"/><path d="M346.82,509.7c-.63,0-1.37-.31-1.88-.07-11.48,5.34-12.37,5.68-21.13,7.4a2.46,2.46,0,0,1-1.64-.48,2.22,2.22,0,0,1-1-1.36,2.84,2.84,0,0,1,.62-1.75,2.68,2.68,0,0,1,1.47-1,37.54,37.54,0,0,0,18.3-9.17,7,7,0,0,1,3.5-1.28,3.63,3.63,0,0,1,3.24,1.3,2.42,2.42,0,0,1,.16,3.44c-.74,1-1.35,2.12-2,3.16Z"/><path d="M281.74,538.14a35.42,35.42,0,0,1-1,3.56c-.93,2.34-2.19,2.65-3.6.8a6.51,6.51,0,0,0-4.61-2.84,16.43,16.43,0,0,0-7.39.66,19.93,19.93,0,0,1-7.29,1.48,2.48,2.48,0,0,1-2.7-2,2.6,2.6,0,0,1,.23-1.59,7.14,7.14,0,0,1,5.89-4.1,73.36,73.36,0,0,1,18.64,1.21C281.15,535.51,281.69,536.89,281.74,538.14Z"/><path d="M377,511a30.6,30.6,0,0,0-1.46,3.46,4.15,4.15,0,0,1-4,3.19c-4.57.39-8.69-1.17-12.64-3.15-2.79-1.41-5.35-3.28-8.15-4.66-1-.5-2.45-.18-3.8-.17-.11.08-.32.19-.39.23,1.13-.36,2.34-.71,3.52-1.14a17.87,17.87,0,0,1,11.08-.48c3.62,1,7.21,2.14,10.88,3a35.37,35.37,0,0,0,5.58.35S377,511,377,511Z"/><path d="M409.52,553.57c1.12.46,2.59.61,3.29,1.42a83.45,83.45,0,0,1,5.48,7.45,2.27,2.27,0,0,1,.1,1.83,2.42,2.42,0,0,1-2.77,1.72,13.49,13.49,0,0,1-9.94-7.69,2.92,2.92,0,0,1,.49-3.34A4.28,4.28,0,0,1,409.52,553.57Z"/><path d="M305.43,478.78c-.89,2.49-2.31,4.53-5.26,4.25a24.6,24.6,0,0,0-12.69,2.48c-2,.92-3.86-.42-3.49-2.3a2.54,2.54,0,0,1,2.55-2.31,25.57,25.57,0,0,1,5.53.48,22.89,22.89,0,0,0,9.29-.07,8.41,8.41,0,0,0,4.61-2.95Z"/><path d="M364.69,542.16a87.49,87.49,0,0,1-9.05-1.46,13.42,13.42,0,0,1-4.71-2.72,2.36,2.36,0,0,1-.49-3.09,2.2,2.2,0,0,1,1.44-1.07,61.14,61.14,0,0,1,7.29,0,28.53,28.53,0,0,0,9.12-.6l-.32-.46c-.62,3.53-2.22,6.69-3.82,9.88Z"/><path d="M309.72,530.5a7.87,7.87,0,0,0,1.71-.5c6.76-3.9,13.58-3.73,20.47-.39l-.5-.56c-2.36.27-4.73.72-7.09.76-4.77.08-9.54-.06-14.32-.1Z"/><path d="M368.29,533.24c2.77-2.63,6-3.9,9.8-2.92a2,2,0,0,1,1.55,2.8,4.07,4.07,0,0,1-5.35,3.17,15.8,15.8,0,0,1-6.29-3.48S368.29,533.24,368.29,533.24Z"/><path d="M240.73,576.12c2.67-1.75,5.31-3.56,8-5.25a7.12,7.12,0,0,1,5.46-1l-.47-.54c-1.32,1.3-2.76,2.49-3.94,3.91a6.84,6.84,0,0,1-4.93,2.27,27.25,27.25,0,0,1-3.72-.11Z"/><path d="M288.35,569a3.55,3.55,0,0,1,2.55-3.67c2.08-.65,4.33-.78,6.1-2.26l-.09.11c-.42,4.81-1.74,5-5.48,5.58a14.2,14.2,0,0,1-3.53-.27S288.35,569,288.35,569Z"/><path d="M287.23,456.67a23.59,23.59,0,0,1,2.8-2.14,1.76,1.76,0,0,1,1.68.27c.77,1.42.21,2.54-1.4,2.55a12.66,12.66,0,0,1-3.41-1Z"/><path d="M268.21,563.44c.37-1.59.26-3.68,1.25-4.63s3.08-.74,4.68-1l.39-.63c-2.1,2.09-4.88,3.5-6.47,6.16C268,563.22,268.21,563.44,268.21,563.44Z"/><path d="M256.08,562.38c1.73-.06,3.46,0,5.18-.2a12,12,0,0,1,6.85,1.19c.1.07-.16-.15-.05-.07-4,.6-8-.42-12-1.13Z"/><path d="M297,563c1.43,1.07,3.1.1,4.61.52-1.64.73-3.07-.82-4.68-.41C296.91,563.13,297,563,297,563Z"/><path d="M241.15,575.45l0,1.12c.95-.52.82-.7-.42-.49Z"/><path d="M256.1,562.17c-.23,2.58.13,5.35-2.38,7.19l.49.56c.66-2.43,1.3-4.89,1.91-7.45A.85.85,0,0,1,256.1,562.17Z"/><path d="M274.14,557.77c0-.37-.07-.73-.11-1.09-.95.66-.8.85.47.5Z"/><path d="M331.9,529.61l-1,.34c.92.57,1.06.27.47-.91C331.4,529.05,331.9,529.61,331.9,529.61Z"/><path d="M310,529.71c.16.39.32.78.47,1.17.77-1,.54-1.2-.72-.41C309.72,530.5,310,529.71,310,529.71Z"/><path d="M306,478.36l.4,1.1a11.15,11.15,0,0,1-.94-.64A5.51,5.51,0,0,1,306,478.36Z"/><path d="M286.9,456.36l1.2.8a8.34,8.34,0,0,0-.76-.46A2.33,2.33,0,0,1,286.9,456.36Z"/><path class="cls-2" d="M594.6,777a3.15,3.15,0,0,1,3.16,1.42c1.06,1.54,1.65,3.21.68,5-.83,1.48-3.76,2.82-4.53,2.07a10.87,10.87,0,0,1-1.91-2.94,5.24,5.24,0,0,1-.29-1.76A3.42,3.42,0,0,1,594.6,777Z"/><path class="cls-2" d="M675.56,788.46c.21-2.4.31-4.94.69-7.43a2.49,2.49,0,0,1,4-2.08,7,7,0,0,1,3.48,4.22,24.92,24.92,0,0,1,.06,13.11c-.54,2-2,3.08-3.66,4.06a2.73,2.73,0,0,1-3.87-2.28C676,794.9,675.78,791.75,675.56,788.46Z"/><path class="cls-2" d="M595.23,847.68c-.24,1.69-.55,4.17-1,6.63a8.59,8.59,0,0,1-2.9,4.65c-1,1-4.19.77-5-.5a12.7,12.7,0,0,1-1.7-3.29,31.08,31.08,0,0,1,0-14.88,7.88,7.88,0,0,1,1.66-3.27,8.81,8.81,0,0,1,3-2.12c1-.45,3.9,1.53,4.4,2.83a17,17,0,0,1,1.18,3.52C595.15,843.1,595.11,845,595.23,847.68Z"/></svg>