<svg id="Ebene_1" data-name="Ebene 1" xmlns="http://www.w3.org/2000/svg" viewBox="0 0 1200.08 1106.42"><defs><style>.cls-1{fill:#f9f9f9;}.cls-2{fill:#fff;}</style></defs><path class="cls-1" d="M692,204.3v-.16c-1.92,0-3.84,0-5.76,0a435.34,435.34,0,0,0-93.38,9.08,477.22,477.22,0,0,0-61,16.74,496.16,496.16,0,0,0-66.78,29,417.21,417.21,0,0,0-52.24,32.15c-21.18,15.54-40.78,33-59.47,51.43a479.83,479.83,0,0,0-41.73,47.58c-7.84,10.11-15.92,20-22.71,30.93-10.82,17.37-21.78,34.65-32.49,52.09-14.58,23.73-16.91,27.69-31.81,47.95-9.52,12.93-20.3,24.71-33.78,33.71-2.66,1.78-5.37,3.48-8,5.33a28.33,28.33,0,0,0-2.7,2.67,3.5,3.5,0,0,0,.16,5,3.33,3.33,0,0,0,3.5.87,48.33,48.33,0,0,0,8.51-4.34,172.91,172.91,0,0,0,33.81-31.08,233.89,233.89,0,0,0,18.22-24.7q19.4-30.87,38.72-61.78c12.57-20.08,25.66-39.81,40.75-58.1C338.56,371,353.52,353.52,370.66,338c12.82-11.59,25.49-23.33,39.34-33.68,21.05-15.71,42.9-30.14,66.64-41.58a592.23,592.23,0,0,1,65.53-27.08c22.45-7.68,45.51-12.79,68.68-17.56,14.61-1.64,29.09-4.26,43.83-5,14.07-.7,28.13-.84,42.2-.79,22.41.08,44.74,1.08,66.89,4.84a414.44,414.44,0,0,1,57.8,13.63,367.17,367.17,0,0,1,53.2,21.78c14.28,7.21,28.37,14.89,41.44,24.1A329.94,329.94,0,0,1,965.68,319a195.66,195.66,0,0,1,29.25,40.24c1.86,3.35,3.51,6.82,5.37,10.18a31.57,31.57,0,0,1,3.35,8.94c.9,4.37,3.12,8.44,3.1,13,0,3.3-.79,6.3-3.79,8.3a4.68,4.68,0,0,1-3.61.85,18,18,0,0,1-6.9-3.14c-4.29-2.86-7.86-6.54-11.63-10a38,38,0,0,0-13.08-7.83,10.65,10.65,0,0,0-9.2.92,9.91,9.91,0,0,0-5.32,9.49c.22,4.46.93,8.89,1.47,13.33.69,5.71,1.57,11.41,2.08,17.14a27.41,27.41,0,0,1-.55,7.6,10.43,10.43,0,0,1-5.69,7.31,19.57,19.57,0,0,1-5.46,1.69,10,10,0,0,1-7.3-1.61,23.47,23.47,0,0,1-3-2.38,116.28,116.28,0,0,1-12.86-14.21,129.86,129.86,0,0,0-18.72-19.22,19.12,19.12,0,0,0-10.32-4.74,10.6,10.6,0,0,0-7.31,1.63,11.38,11.38,0,0,0-5.2,7.71,147.23,147.23,0,0,1-4.49,20.61,12.58,12.58,0,0,1-6,7.16,45.85,45.85,0,0,1-5.29,2.24,8.53,8.53,0,0,1-5.62,0,23,23,0,0,1-8.49-4.32,117.16,117.16,0,0,1-17.5-17.7c-5.93-7.54-12-14.95-18.17-22.32-2.45-2.95-5.11-5.73-7.8-8.46a43,43,0,0,0-14.39-9.36,20,20,0,0,0-13.16-.81,11.18,11.18,0,0,0-6.15,4.32,16.46,16.46,0,0,0-3.2,6.9c-.86,5-1.26,10.16-2.22,15.18a15.35,15.35,0,0,1-4.64,8.23A17.15,17.15,0,0,1,742,408a99.72,99.72,0,0,1-17.9-14.41Q707.83,377.27,691.5,361a274.61,274.61,0,0,0-40.1-32.69C639.19,320,626.22,313.15,612,308.76c-4.89-1.51-9.67-3.34-14.57-4.8a130.25,130.25,0,0,0-26.28-5.34c-21.71-1.86-43.33-2-64.86,2.93-26.32,6-51.61,14.59-75.76,26.7-13.83,6.94-26.26,15.82-38.05,25.71a11.12,11.12,0,0,0-4.2,6.24,3,3,0,0,0,1.5,3.28,4.44,4.44,0,0,0,3.62.44c3.21-.89,5.48-3.25,7.92-5.25,12.45-10.18,26.14-18.3,40.48-25.52a277.8,277.8,0,0,1,78-25.9c10.34-1.79,41.37-2,51.66-.19,5,.89,10.1,1.73,15.06,2.95,12.43,3.05,24.69,6.68,36.18,12.48a16.59,16.59,0,0,1,2.84,2.5c1.28,1.08,1.16,2,0,3.3a21.09,21.09,0,0,1-6.24,4.3c-23.23,12.1-41.5,29.68-56.06,51.23-11.53,17.08-20.49,35.41-25.76,55.41-1.79,6.79-3.41,13.63-5.07,20.45a3.83,3.83,0,0,0,.1,1.9,4,4,0,0,0,1,1.56,3,3,0,0,0,4.77-.37c2-3.37,2.86-7.09,3.56-10.86,4.88-26.37,17.13-49.38,32.43-71A100.6,100.6,0,0,1,583,370.71a196.7,196.7,0,0,1,19.62-18.34,86,86,0,0,1,10.89-7.83c6.62-3.86,13.42-7.45,20.3-10.84,3.59-1.77,7.46-1.4,11.09.44a13,13,0,0,1,1.65,1c16.69,11.9,32.79,24.51,46.62,39.77a16,16,0,0,1,2.06,3.18,2.71,2.71,0,0,1-.43,3.5c-3.86,3.35-7.78,6.61-11.68,9.91-2.44,2.06-5.06,3.95-7.29,6.23-10.4,10.65-18.64,22.72-23.54,36.89a4.53,4.53,0,0,0-.12,1.91,3.1,3.1,0,0,0,2.11,2.69,2.35,2.35,0,0,0,3.21-1.22c2.34-4.54,4.77-9,7-13.63,4-8.14,9.71-15.11,15.95-21.49,5.79-5.91,12.78-10.56,19.4-15.56.94-.71,4.72-.62,5.55.08a21.23,21.23,0,0,1,2.86,2.47c6.56,8,14.6,14.32,22.57,20.71a38.38,38.38,0,0,0,19.1,8.38,19.34,19.34,0,0,0,11.17-1.82,31.16,31.16,0,0,0,10.42-8.32,19.21,19.21,0,0,0,4.22-8.53c.72-3.76,1-7.6,1.56-11.39a51.09,51.09,0,0,1,1.3-5.57c.45-1.69,4.25-4.05,6.1-4a12.74,12.74,0,0,1,5.54,1.24,50.69,50.69,0,0,1,19.55,17.92c1.3,2,.25,5.37-2.13,6.41-3.52,1.53-7.08,3-10.58,4.54a119,119,0,0,0-34.46,24c-9.23,9.06-16.61,19.42-23.36,30.32-11.33,18.3-17.13,38.52-20,59.59a153.85,153.85,0,0,0-.82,30.66c.85,12.79,2.17,25.49,5.2,38,.46,1.86.83,3.74,1.22,5.62.3,1.44-2.43,3.48-4,3a256.23,256.23,0,0,1-30.35-11.7c-7.13-3.39-14.41-5.15-22.3-3.77a25.56,25.56,0,0,1-3.82.1c-1.59,0-2.45-.64-2.7-2a4.17,4.17,0,0,1,.74-3.57c2-2.46,4.21-4.83,6.3-7.25a49.06,49.06,0,0,0,8.55-14.87c3.25-8.48,4.32-17.35,5.41-26.24a17.61,17.61,0,0,0,0-3.84c-1.11-10.86-2.87-21.52-8.19-31.34a54.26,54.26,0,0,0-8.77-12.51c-11.6-11.77-25.71-18.81-41.82-21.94-8.3-1.62-16.52-.68-24.75,1s-15.7,5.47-22.75,9.85c-3.2,2-5.73,5.07-8.51,7.71a68.37,68.37,0,0,0-18,29.09,52,52,0,0,0-2.83,15q-.13,6.71-.36,13.42a6.07,6.07,0,0,1-4.48,5.48c-15.62,3.45-31.4,6-47.2,8.43a51.82,51.82,0,0,0-12.93,3.45c-3,1.28-5.36,4.47-5.09,7.45.47,5.09.65,10.27,1.75,15.23,2.48,11.27,3.2,22.79,5.47,34.08a15.16,15.16,0,0,1,0,1.91c.13,2.12-2.44,4.81-4.75,5.21a24,24,0,0,1-9.52-.12,6.54,6.54,0,0,1-4.51-3.25,43.8,43.8,0,0,1-3.12-7q-7.56-24.76-14.87-49.61c-1.43-4.91-2.61-9.87-4.35-14.71-2.6-7.21-5-14.52-7.16-21.87-2-6.73-3.47-13.63-5.5-20.36-2.21-7.34-5.81-14.2-7.67-21.69-.93-3.72-2.27-7.33-3.4-11-2.27-7.33-4.46-14.69-6.82-22-2.95-9.12-6-18.2-9.06-27.3-.63-1.9-2.08-3.16-3.45-4.5a3.36,3.36,0,0,0-4.9.52c-1.63,2.71-2.76,5.89-4.9,8.1-2.63,2.7-6.08,4.6-9.18,6.85-.51.38-1,.78-1.53,1.15a49,49,0,0,1-19.31,8.09,153.76,153.76,0,0,1-22.84,2.82c-4.47.21-9,.31-13.41.71a50.78,50.78,0,0,0-9.45,1.55A98.24,98.24,0,0,0,293.41,454a38.76,38.76,0,0,0-9.17,6.91,11.07,11.07,0,0,0-3,6.87,23.22,23.22,0,0,0,1.27,9.43c3.81,11.54,7.54,23.1,11.45,34.6,3.71,10.89,7.6,21.73,11.48,32.56a10,10,0,0,0,2,3.16,3.41,3.41,0,0,0,3.39,1.05c3.28-.82,5.34-3.44,7.73-5.51a47.74,47.74,0,0,1,24-11.17c6.31-1,12.57-2.2,19-2.23,5.74,0,11.49-.75,17.24-.88a57,57,0,0,0,22.26-5.15c4.68-2.08,9.36-4.13,13.58-7.11,1.55-1.1,3.26-2,4.91-2.95,1.9-1.12,5.27.38,6.14,2.83,3,8.43,6.38,16.75,8.78,25.34,5.67,20.33,12.05,40.44,18.31,60.59,1.32,4.26,2.23,8.65,3.3,13,.37,1.5-1.33,4.14-2.84,4.36-2.53.38-5.08.62-7.59,1.07a21,21,0,0,0-5.53,1.46,39.84,39.84,0,0,0-14.63,12.12,9.48,9.48,0,0,0-1.67,7.27,15.06,15.06,0,0,0,1.81,5.4,59.79,59.79,0,0,0,16.92,18.1c9,6.1,17.9,12.35,27.46,17.57,2.22,1.22,4.21,2.84,6.32,4.26,1.18.78,1.75,3.93,1,5.29-.61,1.12-1.15,2.28-1.8,3.37a75.61,75.61,0,0,1-14.8,17.54c-1.88,1.69-3.86,3.31-5.06,5.68-.64,1.26-.52,4.34.64,5.33,1,.82,1.78,2,2.89,2.46,5.86,2.61,11.9,4.72,18.37,5.14a72,72,0,0,0,26.56-2.88c4.3-1.35,8.34-3.23,12.47-4.94,3.53-1.47,7.06-3,10.64-4.32a10.25,10.25,0,0,1,7.49-.1c3,1.17,6,2.32,8.87,3.62,28.6,12.76,57.19,25.58,86.84,35.79q22.66,7.8,45.42,15.36c15.17,5,30.64,9,46,13.3,18.49,5.16,37.2,9.33,56,13.23,17.52,3.63,35.06,7.27,52.78,9.92,9.47,1.42,18.82,3.73,28.3,5.1,23.43,3.37,46.89,6.52,70.66,6.07,1.91,0,3.84,0,5.75.09a53.45,53.45,0,0,1,22.2,5.34c5.7,2.88,11.61,5.36,17.42,8,9.31,4.25,18.73,8.24,28.41,11.58a10.4,10.4,0,0,0,5.66.63c1.32-.29,2.47-1,2.7-2.11a3.15,3.15,0,0,0-1.53-3.3,39,39,0,0,0-5-2.68c-8.83-3.73-17.71-7.36-26.09-12a2.18,2.18,0,0,1-.9-1.59c0-1.08.84-2,2.31-2.24,3.77-.62,7.57-1.17,11.37-1.6,7-.78,14-1.31,21-2.23a18.57,18.57,0,0,0,11.49-6.39,8.32,8.32,0,0,0,2.1-5.23,12.75,12.75,0,0,0-1.58-7.38,54,54,0,0,0-5.61-7.73c-7.73-8.7-17.24-15.24-27-21.42s-19.58-12.14-29.54-17.91c-16.05-9.28-32.28-18.23-49.13-26.06-18.55-8.62-37.06-17.35-56.16-24.74a7.27,7.27,0,0,1-4.08-3.86c-2.45-5.91-4.73-11.88-7-17.85-2.75-7.16-5.39-14.37-8.22-21.5a63.47,63.47,0,0,0-3.47-6.83c-2.28-4.17-5.93-6.58-10.39-7.92a15.33,15.33,0,0,0-7.58-.55,187,187,0,0,0-20.38,5.41c-9.06,3.08-18.23,5.87-27.4,8.6a4.08,4.08,0,0,1-3.52-.92,93.05,93.05,0,0,1-14.25-22.64,6.16,6.16,0,0,1,1.06-5.35c5.83-6,13.27-9.94,20-14.84a4,4,0,0,1,3.6-.32,25,25,0,0,0,12.84,3.26c5.75.13,11.51.1,17.26-.15a23.61,23.61,0,0,0,7.48-1.51c1.69-.65,3.08-2.19,4.44-3.5.94-.9.83-4.63-.08-5.43-1.42-1.26-2.76-2.76-4.42-3.55-2.28-1.1-4.84-1.59-7.26-2.42-.58-.21-1.45-.66-1.5-1.09-.15-1.08.61-2.08,1.75-2.88a66.48,66.48,0,0,0,6.26-4.43A19.31,19.31,0,0,0,819,581.2c1.6-9-.45-16.47-8.09-22-2-1.42-2.45-3.81-.42-6.65,2.24-3.12,4.3-6.36,6.59-9.44a8.67,8.67,0,0,1,6.49-3.57,35.58,35.58,0,0,0,9.4-1.67,21.94,21.94,0,0,0,10.81-7.63c6.59-9.14,6.49-19.31-.21-28.48a40.61,40.61,0,0,0-5.42-5.39A10.17,10.17,0,0,0,833,494a28,28,0,0,0-11.43,0c-6.53,1.41-11.94,4.57-15.17,10.68-1.19,2.25-2.16,4.61-3.22,6.94a5.37,5.37,0,0,1-4.59,3,67.83,67.83,0,0,1-9.56.39c-7-.14-14-.5-21.08-.67-1.89-.05-3.79.3-5.69.44-2.31.18-4.12,3.78-3,5.92A59.36,59.36,0,0,0,766.4,532c4.47,5.43,9,10.79,13.46,16.26a60.41,60.41,0,0,1,4.28,6.32,2.79,2.79,0,0,1-.19,3.52c-4.13,4.07-7.67,8.5-9.81,14a14.39,14.39,0,0,1-4.56,6.08q-13.56,10.68-27.19,21.3a15.22,15.22,0,0,1-1.74.76c-1.48.84-4.38.07-5-1.32a109.5,109.5,0,0,1-8.6-35.23c-.54-7-.83-14.06-.91-21.09-.21-19.48,4.24-38,11.35-56.05,4.26-10.79,10.17-20.58,16.67-30.15,11.4-16.79,26.2-29.6,43.84-39.33a62.92,62.92,0,0,1,18-6.48,5.36,5.36,0,0,1,5.25,1.73A133.26,133.26,0,0,0,837.69,431a57.57,57.57,0,0,0,17.72,11.22,17.32,17.32,0,0,0,13.06.21c8.34-3.17,13.95-8.85,16.18-17.61,1.57-6.18,3.06-12.38,4.59-18.57.37-1.48,3.1-2.81,4.72-2.24a12.85,12.85,0,0,1,3.49,1.51,90.3,90.3,0,0,1,14.75,15c4.84,6,9.77,11.84,14.91,17.54A28.37,28.37,0,0,0,940,446.14a9.38,9.38,0,0,0,5.64.38,37,37,0,0,0,12-5.73,19.6,19.6,0,0,0,3.94-4.09,17.13,17.13,0,0,0,3.19-8.92A82.31,82.31,0,0,0,962.86,403a93.4,93.4,0,0,1-1.65-9.43,15.27,15.27,0,0,1,.46-3.75c.2-1.53,2.76-2.72,4.48-2.22a22,22,0,0,1,8.26,4.72c5.82,5,11.35,10.35,18.08,14.19a16.74,16.74,0,0,0,7.21,2.35,13.49,13.49,0,0,0,14.5-12.3,43.22,43.22,0,0,0-1.68-17.05,149.34,149.34,0,0,0-26-48.9,308.35,308.35,0,0,0-73.89-66.44c-24.33-15.67-50.33-27.87-77.45-37.73-19.25-7-39.12-11.89-59.18-15.91-9.39-1.88-18.91-3.24-28.43-4.27s-19.13-1.56-28.71-1.89C710,204.06,701,204.3,692,204.3Z"/><path class="cls-1" d="M325.22,786.25c-12.52.62-22.37,5.38-28.36,16.75a29.51,29.51,0,0,0-3.68,14.71c.14,5.81.52,11.51,3.46,16.72a3.79,3.79,0,0,1,.53,1.83,2.42,2.42,0,0,1-.67,1.72,1.91,1.91,0,0,1-1.81.07c-8.36-7-15.69-14.95-21.21-24.53-2.53-4.38-5.15-8.86-9-12.32A5.81,5.81,0,0,0,261,800a8.2,8.2,0,0,0-3.64,1c-4.55,2.19-6.19,7-3.93,11.19a33,33,0,0,0,1.73,3.41c5.49,7.88,10.88,15.82,16.62,23.5a98.42,98.42,0,0,0,9.08,9.88c3.58,3.65,7.42,7,10.94,10.76a6.93,6.93,0,0,1,1.66,5.35,39.68,39.68,0,0,1-1.06,7.57,145.45,145.45,0,0,0-3.5,16.89,139.91,139.91,0,0,0-1.5,21A29,29,0,0,1,284,923.43c-2,3.91-5.42,6-9.25,5.11-4.36-1-8.69-2.11-13-3.24a36.63,36.63,0,0,0-9.42-1.57c-1.42,0-4.39,1.39-4.89,2.49-1.87,4.09-3.5,8.26-3.81,12.8a23.06,23.06,0,0,0,.2,3.8c.14,1.61,2.63,3.66,4,3.31,1.22-.3,2.67-.23,3.62-.9,4.06-2.89,8.14-3,12.59-.94,6.43,3,13.38,4.29,20.32,5.39a9.14,9.14,0,0,0,8.6-3.21,43.85,43.85,0,0,0,4.4-6.24c2.62-4.39,5-9,7.67-13.29a9.47,9.47,0,0,1,8-4.66q11.51-.27,23-.07a10.63,10.63,0,0,1,9.52,5.45q5.82,9.93,11.79,19.78A55.46,55.46,0,0,0,360.8,952a6.37,6.37,0,0,0,5.25,1.72A43.4,43.4,0,0,0,380.13,948a13,13,0,0,0,2.59-2.78c1.68-2.09,1-5.57-1.23-6.54a14.32,14.32,0,0,0-3.53-1.34c-4.1-.61-6.8-2.73-8.93-6.36-3.89-6.61-8.17-13-12.51-19.32a14.89,14.89,0,0,0-9.42-6.15c-4.37-.94-8.9-1-13.12-2.74-2-.83-4.1-3.78-3.83-6.09.76-6.35,1.41-12.72,2.38-19a36.34,36.34,0,0,1,2.34-7.26,8.47,8.47,0,0,1,3.82-4.13,24.71,24.71,0,0,1,9-3.28,53.06,53.06,0,0,0,12.8-3.9,133.7,133.7,0,0,0,31.1-18.75c.5-.4.85-1,1.31-1.4,4.1-3.95,2.93-10-2.53-12.49a5.16,5.16,0,0,0-3.63-.28,48.19,48.19,0,0,0-6.75,3.62c-5.45,3.35-10.84,6.78-16.25,10.18a44.53,44.53,0,0,1-14.23,5.52,2.75,2.75,0,0,1-3.29-1.3,2.38,2.38,0,0,1,.32-1.82,14,14,0,0,1,2.07-3.15c5.13-5.32,7.11-12,8.41-19a14.74,14.74,0,0,0-.18-5.69,73.54,73.54,0,0,0-2.72-9.2,19.93,19.93,0,0,0-2.74-5C344.81,791.46,335.7,787.46,325.22,786.25Z"/><path class="cls-1" d="M503.39,973.48c5-.2,10.7-.33,16.43-.74a5.25,5.25,0,0,0,3.19-1.91,5.73,5.73,0,0,0,1.3-3.52,118.8,118.8,0,0,0-2.49-20.91q-2.57-11.21-4.78-22.49a121.78,121.78,0,0,1-2.59-20.84,2.62,2.62,0,0,1,.75-1.73c.88-.88,1.85-2.19,2.89-2.29,7-.7,14-1.07,21-1.67,3.57-.3,7-4.47,6.8-8.08a40.61,40.61,0,0,0-.95-7.56c-3.28-12.34-7.71-24.36-10.35-36.89-.32-1.51-3-2.46-4.74-1.72-.59.26-1.18.5-1.75.77-3.13,1.52-5,4-5.06,7.48,0,3.82.38,7.64.42,11.47a21.7,21.7,0,0,0,2.36,9.18,24.88,24.88,0,0,1,1.16,3.64c.62,2.11-1.8,5.28-4.17,5.29-3.83,0-7.66.14-11.46-.12a21.74,21.74,0,0,1-5.47-1.59c-2.3-.82-3.38-2.87-2.24-4.25,2-2.44,4.13-4.83,6-7.37,10.09-13.38,5.46-30.28-2.44-38.82a28.86,28.86,0,0,0-24-9.69c-1.91.11-3.82.35-5.73.52-6,.52-10.93,3.32-15.17,7.44a31.18,31.18,0,0,0-9.6,20.34c-.75,8.71,1.52,16.48,7.39,23a81.44,81.44,0,0,0,7,6.52c1.43,1.26,3,2.31,4.53,3.5,1.29,1,1,3.91-.66,4.68-5.79,2.75-10.34,7.57-16.38,9.83a2.5,2.5,0,0,1-3.13-1.31c-2-6.14-1.57-12.61-2.4-18.91-.44-3.28-2.81-5.58-5.95-6.93-1.71-.75-6,.79-6.31,3-.16,1.24-.86,2.42-1,3.65-1,11.51-.37,23,.74,34.46a35.44,35.44,0,0,0,2,7.36,7.55,7.55,0,0,0,9.24,4.75,52.5,52.5,0,0,0,7.19-2.55c4.09-1.77,7.24-5.27,11.68-6.44a2.49,2.49,0,0,1,3.13,1.37c2.1,4.06,2.65,8.51,3,13,1,12.15,3.93,23.95,6.14,35.88.46,2.49,1.45,4.89,2.15,7.34.4,1.38,2.82,3.4,4.2,3.44C491.1,973.17,496.85,973.31,503.39,973.48Z"/><path class="cls-1" d="M442.48,433.77c-.5,5.93-1.1,8.46-.1,10.93.21.52.61,1.24,1.06,1.35,1.5.38,2.62-.19,3-1.47,2.67-9.85,5.08-19.77,8-29.55,5.48-18.5,13.47-35.77,25.43-51.1a134.72,134.72,0,0,1,18.26-19.55,7.65,7.65,0,0,0,1.62-3.26,2.65,2.65,0,0,0-.16-1.83,2.45,2.45,0,0,0-3.09-1.5,10.7,10.7,0,0,0-3.44,1.46A110.28,110.28,0,0,0,468.56,366C454.52,387.76,445.64,411.47,442.48,433.77Z"/><path class="cls-1" d="M996.94,440.52c-2.06-.11-4.08,1.27-4.26,2.89-1,8.93-.78,21.25.72,28.58a33.79,33.79,0,0,0,4,10.71c2.85,4.77,6.93,7.33,12.64,7.06a9.4,9.4,0,0,0,6.87-2.92c4.44-5.16,6.19-11.09,3.7-17.77a59.66,59.66,0,0,0-20.14-27.39C999.55,441,998.14,440.89,996.94,440.52Z"/><path class="cls-1" d="M927.92,490.82c-.11-6.55-.68-11.55-2.72-16.25a54.33,54.33,0,0,0-7.75-12.92,13.56,13.56,0,0,0-6.14-4.19,3.17,3.17,0,0,0-3.42.64,10.57,10.57,0,0,0-3.5,6.51c-1.08,7.48-2,15-3,22.48-.51,3.88.57,7.51,2,11a12.37,12.37,0,0,0,11.44,8.38,10.84,10.84,0,0,0,11.44-7.91C927.11,495.6,927.57,492.48,927.92,490.82Z"/><path class="cls-1" d="M297.65,652.65c.13,1.08.45,4.21.91,7.32a13.88,13.88,0,0,0,1.07,3.61,10.53,10.53,0,0,0,8.43,6.68,11,11,0,0,0,11.17-5.43,26.43,26.43,0,0,0,2.8-9,44.43,44.43,0,0,0-2.42-20.46c-1.54-4.41-7.95-7.37-12.53-5.68a12.74,12.74,0,0,0-7.69,7.82C297.82,641.74,297.54,646.15,297.65,652.65Z"/><path class="cls-1" d="M769.92,890.89c-.42-3.64-.52-8.17-1.59-12.46a10.3,10.3,0,0,0-7.91-7.56,10.17,10.17,0,0,0-10.48,2.92,16,16,0,0,0-3.71,6.61A37.17,37.17,0,0,0,746.9,903a15.4,15.4,0,0,0,4.32,6.23,8.54,8.54,0,0,0,8.88,1.64,13.57,13.57,0,0,0,8.49-9.68C769.35,898.16,769.43,894.91,769.92,890.89Z"/><path class="cls-1" d="M484.57,412.37c.16,4,.24,7.16.43,10.3a19.71,19.71,0,0,0,.59,3.73,11,11,0,0,0,7.16,8.09c4.5,1.71,13.29-1.27,14.76-8.37a52.24,52.24,0,0,0-.71-24.33c-1.56-5.88-9.81-9.7-15.37-7a10,10,0,0,0-5.62,7.2C485.1,405.65,484.9,409.45,484.57,412.37Z"/><path class="cls-1" d="M401.24,601.94c-.17-3.81-.3-7-.46-10.13,0-.63-.19-1.25-.27-1.88-.4-3.29-3.89-6.86-7.44-7.78-7.24-1.88-14.25,3.47-15.4,10.35a57.42,57.42,0,0,0,.66,20.75,10.61,10.61,0,0,0,13,8,17.36,17.36,0,0,0,5.1-2.39,8.85,8.85,0,0,0,4-6.21C400.88,608.87,401,605.08,401.24,601.94Z"/><path class="cls-1" d="M381.91,695.52c.13,2.62.09,5.79.5,8.89a15.26,15.26,0,0,0,5.52,9.59,9.92,9.92,0,0,0,5.08,2.24,10.87,10.87,0,0,0,12.07-6.84,24.27,24.27,0,0,0,2.31-9.09c0-3.77.07-7.56-.2-11.31a15.54,15.54,0,0,0-5-9.91c-5-5-12.21-4.17-16.29,1.66a18.59,18.59,0,0,0-3.6,8.6C382.11,691.22,382.06,693.11,381.91,695.52Z"/><path class="cls-1" d="M446.21,752.9a28.92,28.92,0,0,0-4.55-16.16,10,10,0,0,0-13.41-3.37,11.83,11.83,0,0,0-3.05,2.27,16.62,16.62,0,0,0-4.26,8.45c-1.35,8.4-.77,16.54,3.69,24.11,2,3.43,7.85,5.53,11.74,4a13.72,13.72,0,0,0,8-7.78A29.91,29.91,0,0,0,446.21,752.9Z"/><path class="cls-1" d="M209.43,644.14a28.45,28.45,0,0,0,.4,4.87,35.65,35.65,0,0,0,2.14,7.24,9.86,9.86,0,0,0,8.72,6.28,16.88,16.88,0,0,0,3.76,0A8.58,8.58,0,0,0,231.6,657a37.86,37.86,0,0,0-.1-29.54,9.57,9.57,0,0,0-14.26-4.34,13.18,13.18,0,0,0-4.06,3.88C210.38,631.44,209.3,636.29,209.43,644.14Z"/><path class="cls-1" d="M235.31,873.57c-.12-2.5-.17-4.42-.32-6.32a18.26,18.26,0,0,0-3.39-8.81c-4.35-6.48-15.25-6.39-19.12,1.2-1.46,2.88-2.76,5.81-2.8,9.06a101.8,101.8,0,0,0,.38,11.45,20.41,20.41,0,0,0,3.16,9,9.23,9.23,0,0,0,4.24,3.67,11.83,11.83,0,0,0,13.78-3.45,17.25,17.25,0,0,0,3.68-8.69C235.17,878.09,235.21,875.54,235.31,873.57Z"/><path class="cls-1" d="M549.91,356.81c-.23-2.69-.35-5.86-.83-9a16.43,16.43,0,0,0-4.18-8.35c-3.16-3.58-9.82-4.42-13.93-1.73a5.3,5.3,0,0,0-1.38,1.29,26.24,26.24,0,0,0-5.11,14,102.36,102.36,0,0,0,.11,11.35,13.26,13.26,0,0,0,3.86,8.45c5.71,6.06,15.66,4.59,19-2.68C549.43,366,549.93,361.72,549.91,356.81Z"/><path class="cls-1" d="M285.17,725c0-6.67.15-9.19,0-11.69a17.76,17.76,0,0,0-6.94-12.88,8.34,8.34,0,0,0-8.84-1.23,12.51,12.51,0,0,0-7.52,8c-2.56,8.09-1.92,16.18.35,24.17,1.32,4.66,4.84,7.25,9.52,8,4.12.7,7.27-1.16,9.77-4.34a15.47,15.47,0,0,0,3.59-8.54C285.22,724.61,285.3,722.72,285.17,725Z"/><path class="cls-1" d="M702,450.82c-.21-1.54-.58-4.66-1.07-7.77a14.68,14.68,0,0,0-1.06-3.61,10.17,10.17,0,0,0-3.52-4.31,11.35,11.35,0,0,0-15.23,2.28,17.51,17.51,0,0,0-3.72,8.52c-1.17,7.72.28,15,3.43,22.07,1.93,4.33,8,7.13,12.76,5.6a9.35,9.35,0,0,0,6.53-6.26A53.2,53.2,0,0,0,702,450.82Z"/><path class="cls-1" d="M584.39,813.38c-.13-2.62-.23-5.16-.38-7.7a6.91,6.91,0,0,0-.31-1.87c-.6-1.8-1.16-3.62-1.93-5.35-1.74-3.91-6.59-6.76-10.81-6.14a11.11,11.11,0,0,0-8.78,6.53,27.64,27.64,0,0,0-1.33,3.56c-2.4,7.61-1.52,15.06,1.06,22.44,2.82,8.09,12.71,8.51,17.22,4.15a15.5,15.5,0,0,0,4.94-10C584.25,817.11,584.29,815.21,584.39,813.38Z"/><path class="cls-1" d="M642.44,845.94a89.5,89.5,0,0,0,1.27,9.08,13.62,13.62,0,0,0,6.51,8.89,8,8,0,0,0,7.22.66c4.41-1.74,7.28-4.75,8.25-9.49a49.06,49.06,0,0,0-.35-22.48c-1-3.94-5.48-7.79-9.5-8.05a10.37,10.37,0,0,0-10.55,6.39,21.64,21.64,0,0,0-1.88,5.32C642.89,839.35,642.76,842.51,642.44,845.94Z"/><path class="cls-1" d="M235.37,784.87c-.26-2.5-.36-5-.82-7.53a15,15,0,0,0-5.81-9.51,9,9,0,0,0-5.28-1.87c-5.84-.08-9.91,2.76-11.54,7.92a38,38,0,0,0,.91,26.07A10.9,10.9,0,0,0,215,803c3.73,4.1,11.94,4,15.39-.24a19.72,19.72,0,0,0,4.55-10.28C235.22,790,235.23,787.44,235.37,784.87Z"/><path class="cls-1" d="M535.75,787.48c-.25-3-.44-6.17-.8-9.31a20.79,20.79,0,0,0-1-3.65c-2.13-6.91-11.86-9.4-17.18-4.39a15.13,15.13,0,0,0-4.65,8.09,45.34,45.34,0,0,0,.53,20.69,13.52,13.52,0,0,0,5.31,7.62,7.69,7.69,0,0,0,7.19,1.11c5.85-2,9.54-6,10.08-12.44C535.45,792.68,535.58,790.16,535.75,787.48Z"/><path class="cls-1" d="M923.91,876.73c-.26-3.85-.37-7.63-.83-11.37a14.91,14.91,0,0,0-1.75-5.35c-4.12-7.27-13.84-6.75-17.54-1.67a15.13,15.13,0,0,0-3.1,6.8,69.11,69.11,0,0,0,0,18.84,15,15,0,0,0,3.09,6.79c3.35,4.59,8.59,5.58,13.25,2.46,3.28-2.2,5.59-5.07,6.18-9.05C923.54,881.7,923.68,879.18,923.91,876.73Z"/><path class="cls-1" d="M597.66,895.61c-.38-2.56-.81-6.36-1.51-10.11-.78-4.1-5.37-7.7-9.71-7.89a10.76,10.76,0,0,0-10.77,6.4,18,18,0,0,0-1.38,3.56,45,45,0,0,0-.67,17.11,18.12,18.12,0,0,0,3.71,8.71,10.27,10.27,0,0,0,10.14,3.9c4.25-.65,6.68-3.43,8.09-7.23C597.14,905.81,597.4,901.34,597.66,895.61Z"/><path class="cls-1" d="M1057.55,421.6c0,.56-.8-2.37-2.62-5.07a33,33,0,0,0-14.25-11.86,6.41,6.41,0,0,0-8,2.87,15.4,15.4,0,0,0-.79,1.7,14.5,14.5,0,0,0-.64,7.41,32.61,32.61,0,0,0,7.8,16.82,9.42,9.42,0,0,0,6.61,3.12C1052.73,437.1,1057.92,432.25,1057.55,421.6Z"/><path class="cls-1" d="M797,915.52c.63,0,1.26-.14,1.89-.16,2-.05,3.82-2,3.24-3.6a36.46,36.46,0,0,1-2.27-13c.06-6.35-.24-12.7-.39-19,0-1.52-2.67-3.38-4.13-2.87a21.46,21.46,0,0,0-3.44,1.59c-2.49,1.42-3.6,3.82-2,6.4a16.63,16.63,0,0,1,2.9,8.86c.13,6.34,0,12.64-2,18.8-.31,1,1.15,2.19,2.36,2.52A27.08,27.08,0,0,0,797,915.52Z"/><path class="cls-1" d="M719,881.22a16.84,16.84,0,0,1-4,12.42c-1.21,1.42.14,3.37,2.31,3.69a22.39,22.39,0,0,0,9.5-.31,2.84,2.84,0,0,0,1.37-4.32,15.09,15.09,0,0,1-2.48-7.17c-.23-5.75-.23-11.51-.41-17.26-.06-1.91-.4-3.8-.6-5.7-.15-1.4-3.34-3.2-4.54-2.47a19.45,19.45,0,0,0-3.12,2.12c-2.95,2.71-3.23,4.77-.77,8.15a10.84,10.84,0,0,1,2.36,5.11C718.85,877.38,718.88,879.31,719,881.22Z"/><path class="cls-1" d="M471.29,781.79c-.42,2-.52,2.61-.68,3.22-.31,1.22-.71,2.43-.95,3.66-.42,2.11.8,4,2.62,4.06s3.76.11,5.64,0c2.14-.06,3.71-1.8,3.06-3.63a38.18,38.18,0,0,1-2-13c0-6.29.51-12.61-.54-18.88-.36-2.2-3.62-3.78-5.87-2.64a20.93,20.93,0,0,0-3.2,2c-2.25,1.75-2.83,4-1.1,6.47a15.28,15.28,0,0,1,3,8.76C471.33,775.61,471.29,779.39,471.29,781.79Z"/><path class="cls-1" d="M613,851.61c1.8-.19,3.07-.29,4.32-.46,2.39-.32,3.76-1.91,2.87-3.5-1.9-3.35-3.44-6.74-3.34-10.76.13-5.09,0-10.19-.1-15.28,0-1.88-.53-3.75-.75-5.63-.16-1.36-3.07-3.23-4.4-2.63a28.46,28.46,0,0,0-4.91,2.81c-1.39,1-1.64,3.3-.54,5,1.78,2.69,3.18,5.51,3.16,8.82,0,3.82.14,7.65-.19,11.44-.21,2.43-1.22,4.78-1.73,7.2-.11.53.25,1.59.63,1.71C609.79,850.93,611.66,851.29,613,851.61Z"/><path class="cls-1" d="M615.93,414.28c0-3.15.1-6.3,0-9.43a48,48,0,0,0-.84-5.55c-.24-1.41-3.1-2.84-4.58-2.14a31.38,31.38,0,0,0-4.92,2.64c-1.87,1.34-2.09,4.83-.36,6.61,2.28,2.34,4,4.79,3.67,8.25-.17,1.87-.22,3.76-.26,5.65-.05,2.51-.1,5,0,7.54a9,9,0,0,0,.67,3.68,7.13,7.13,0,0,0,2.5,2.44c1.35.89,3.53-.89,3.92-2.76C616.83,425.58,616.16,419.93,615.93,414.28Z"/><path class="cls-1" d="M405,772.19c-.61-5.79.58-11.53-.95-17.18a3.33,3.33,0,0,0-4.48-1.83,16.19,16.19,0,0,0-3.16,2.06c-2.38,2.09-3.16,4.25-1.7,6.62a14.24,14.24,0,0,1,2.55,7c.17,5.08.2,10.16.4,15.24a11.14,11.14,0,0,0,.9,3.6,2.78,2.78,0,0,0,3.06,1.74,2.39,2.39,0,0,0,2.51-2.18C404.55,782.22,404.74,777.15,405,772.19Z"/><path class="cls-1" d="M669.08,914.72H669c0-2.54,0-5.08,0-7.62s-.18-5.06-.31-7.6c-.19-3.72-3-4.9-6.81-2.85a14.11,14.11,0,0,0-1.61,1c-1.55,1.16-2.3,3.46-1.44,5,1.55,2.74,3.18,5.38,3.15,8.73,0,5.07,0,10.14.17,15.22a10.19,10.19,0,0,0,.85,3.58,2.86,2.86,0,0,0,3,1.72c1.32,0,2.57-.56,2.65-2C668.93,924.81,669,919.76,669.08,914.72Z"/><path class="cls-1" d="M696.47,848.58c0-4.93.06-9.38,0-13.82a25.78,25.78,0,0,0-.77-3.69c-.25-1.58-1.11-2.06-2.7-2.1a7.62,7.62,0,0,0-7.49,4.67c-.92,1.87-.22,3.71,1.09,5.12a10.52,10.52,0,0,1,2.81,6.88c.24,5.71.28,11.42.35,17.14,0,1.85,1.33,3.2,3.43,3.57,1.46.25,4.28-1.79,4.2-3.05C697.05,858.23,696.75,853.17,696.47,848.58Z"/><path class="cls-1" d="M503.87,486.77h-.09c0-4.43.06-8.86,0-13.28a12.33,12.33,0,0,0-.81-3.67,2.72,2.72,0,0,0-2.95-1.69,7.8,7.8,0,0,0-5.05,2.15c-2,1.89-3.07,4.89-1.58,6.67a13.58,13.58,0,0,1,3.31,8.6c.22,5.66-.56,11.38.6,17a3,3,0,0,0,2.56,2.28A2.67,2.67,0,0,0,503,503.6c.31-.55.86-1.1.87-1.66C503.9,496.88,503.87,491.82,503.87,486.77Z"/><path class="cls-1" d="M845.75,847.1l-.56,0c0-3.76,0-7.52,0-11.28,0-2.45-2.16-4.14-5.09-4.38a10,10,0,0,0-5.36,1.32,3.86,3.86,0,0,0-2,2.9c-.35,1.46.28,1.92,1.66,2.72,3.92,2.26,3.82,2.4,4.12,5.68.41,4.36.68,8.73,1.17,13.08a11,11,0,0,0,1.32,3.46,2.85,2.85,0,0,0,1.26,1.19c1.65.76,2.36.17,2.47-1.59C845,855.81,845.39,851.45,845.75,847.1Z"/><path class="cls-1" d="M269.49,663.31c-3.58-6.42-1.37-14.85-2.29-23-.28-2.52-.4-5.06-.66-7.59a2.77,2.77,0,0,0-.63-1.76c-.93-.72-2.14-1.78-3.08-1.64a9.73,9.73,0,0,0-6.17,4.1,2.83,2.83,0,0,0-.23,3.47A16.68,16.68,0,0,1,260.78,649c-.2,5.08.13,10.14-1.52,15.1-.74,2.25,2.17,5.22,4.6,4.66a18.67,18.67,0,0,0,3.6-.94C268.73,667.25,269.29,666.08,269.49,663.31Z"/><path class="cls-1" d="M960.76,876.84c-.2-1.16-.55-3.55-1-5.92-.28-1.44-3-2.61-4.55-2a9.41,9.41,0,0,0-4.37,3.18c-1.16,1.54-1.43,3.54-.11,5,2.08,2.25,2.81,5.57,5.51,7.21a2.59,2.59,0,0,0,3.15-.86C960.62,881.86,960.48,879.94,960.76,876.84Z"/><path class="cls-1" d="M316.27,759.64c.28,2.59.58,5.68,1,8.75a4.09,4.09,0,0,0,.84,1.61,3.34,3.34,0,0,0,3.14,1.49c.44,0,.87-.82,1.17-1.35a4.86,4.86,0,0,0,.6-1.7,18,18,0,0,0-2.53-12.5c-.57-.93-1.88-1.42-2.86-2.11a7.14,7.14,0,0,0-.81,1.67C316.56,756.69,316.48,757.92,316.27,759.64Z"/><path class="cls-1" d="M848.31,909.29c-1.54-2-2.66-2.81-4.38-3.22-5.07-1.22-9.62,1.32-11.91,6.72a2.34,2.34,0,0,0-.12,1.75A3.4,3.4,0,0,0,835,916.2c2,0,3.45-1.35,5.15-2.09a11.66,11.66,0,0,1,3.55-1.17c1.89-.18,3.72-.38,5-1.87C849,910.8,848.47,909.9,848.31,909.29Z"/><path class="cls-1" d="M344.76,773.71a8.47,8.47,0,0,0,1.7-.56,6.63,6.63,0,0,0,1.46-1.24,25,25,0,0,0,4.93-8.12,2.54,2.54,0,0,0-1-3.42,2.7,2.7,0,0,0-3.41.11c-3.22,3.17-5.92,6.72-6.6,11.37-.07.43.63,1.12,1.14,1.44A5.35,5.35,0,0,0,344.76,773.71Z"/><path class="cls-1" d="M299.72,782.05c-.12-.61,0-1.37-.38-1.8-1.92-2.44-4-4.71-7.07-5.76-1.44-.48-2.55-.13-3.14,1.26a2.33,2.33,0,0,0,.1,1.66c1.61,3.68,4.7,5.63,8.36,6.7C298.75,784.46,299.54,783.48,299.72,782.05Z"/><path class="cls-1" d="M370.61,783c-.11-1.38-.83-2.56-2.14-2.53-3.44.07-5.87,2-7.82,4.74a2.54,2.54,0,0,0,1.72,4.12C365.59,789.85,369.8,786.61,370.61,783Z"/><path d="M692,204.3c9,0,17.92-.24,26.87.07,9.58.33,19.18.87,28.71,1.89s19,2.39,28.43,4.27c20.06,4,39.93,8.91,59.18,15.91,27.12,9.86,53.12,22.06,77.45,37.73a308.35,308.35,0,0,1,73.89,66.44,149.34,149.34,0,0,1,26,48.9,43.22,43.22,0,0,1,1.68,17.05,13.49,13.49,0,0,1-14.5,12.3,16.74,16.74,0,0,1-7.21-2.35c-6.73-3.84-12.26-9.19-18.08-14.19a22,22,0,0,0-8.26-4.72c-1.72-.5-4.28.69-4.48,2.22a15.27,15.27,0,0,0-.46,3.75,93.4,93.4,0,0,0,1.65,9.43,82.31,82.31,0,0,1,1.94,24.78,17.13,17.13,0,0,1-3.19,8.92,19.6,19.6,0,0,1-3.94,4.09,37,37,0,0,1-12,5.73,9.38,9.38,0,0,1-5.64-.38,28.37,28.37,0,0,1-12.87-8.07c-5.14-5.7-10.07-11.59-14.91-17.54a90.3,90.3,0,0,0-14.75-15A12.85,12.85,0,0,0,894,404c-1.62-.57-4.35.76-4.72,2.24-1.53,6.19-3,12.39-4.59,18.57-2.23,8.76-7.84,14.44-16.18,17.61a17.32,17.32,0,0,1-13.06-.21A57.57,57.57,0,0,1,837.69,431a133.26,133.26,0,0,1-16.45-18.67A5.36,5.36,0,0,0,816,410.6a62.92,62.92,0,0,0-18,6.48c-17.64,9.73-32.44,22.54-43.84,39.33-6.5,9.57-12.41,19.36-16.67,30.15-7.11,18-11.56,36.57-11.35,56.05.08,7,.37,14.08.91,21.09a109.5,109.5,0,0,0,8.6,35.23c.6,1.39,3.5,2.16,5,1.32a15.22,15.22,0,0,0,1.74-.76q13.62-10.62,27.19-21.3a14.39,14.39,0,0,0,4.56-6.08c2.14-5.49,5.68-9.92,9.81-14a2.79,2.79,0,0,0,.19-3.52,60.41,60.41,0,0,0-4.28-6.32c-4.42-5.47-9-10.83-13.46-16.26a59.36,59.36,0,0,1-7.15-11.34c-1.08-2.14.73-5.74,3-5.92,1.9-.14,3.8-.49,5.69-.44,7,.17,14,.53,21.08.67a67.83,67.83,0,0,0,9.56-.39,5.37,5.37,0,0,0,4.59-3c1.06-2.33,2-4.69,3.22-6.94,3.23-6.11,8.64-9.27,15.17-10.68A28,28,0,0,1,833,494a10.17,10.17,0,0,1,5.16,2.34,40.61,40.61,0,0,1,5.42,5.39c6.7,9.17,6.8,19.34.21,28.48A21.94,21.94,0,0,1,833,537.86a35.58,35.58,0,0,1-9.4,1.67,8.67,8.67,0,0,0-6.49,3.57c-2.29,3.08-4.35,6.32-6.59,9.44-2,2.84-1.55,5.23.42,6.65,7.64,5.54,9.69,13,8.09,22a19.31,19.31,0,0,1-6.41,11.46,66.48,66.48,0,0,1-6.26,4.43c-1.14.8-1.9,1.8-1.75,2.88,0,.43.92.88,1.5,1.09,2.42.83,5,1.32,7.26,2.42,1.66.79,3,2.29,4.42,3.55.91.8,1,4.53.08,5.43-1.36,1.31-2.75,2.85-4.44,3.5a23.61,23.61,0,0,1-7.48,1.51c-5.75.25-11.51.28-17.26.15a25,25,0,0,1-12.84-3.26,4,4,0,0,0-3.6.32c-6.68,4.9-14.12,8.79-20,14.84a6.16,6.16,0,0,0-1.06,5.35,93.05,93.05,0,0,0,14.25,22.64,4.08,4.08,0,0,0,3.52.92c9.17-2.73,18.34-5.52,27.4-8.6a187,187,0,0,1,20.38-5.41,15.33,15.33,0,0,1,7.58.55c4.46,1.34,8.11,3.75,10.39,7.92a63.47,63.47,0,0,1,3.47,6.83c2.83,7.13,5.47,14.34,8.22,21.5,2.3,6,4.58,11.94,7,17.85a7.27,7.27,0,0,0,4.08,3.86c19.1,7.39,37.61,16.12,56.16,24.74,16.85,7.83,33.08,16.78,49.13,26.06q14.94,8.65,29.54,17.91c9.72,6.18,19.23,12.72,27,21.42a54,54,0,0,1,5.61,7.73,12.75,12.75,0,0,1,1.58,7.38,8.32,8.32,0,0,1-2.1,5.23,18.57,18.57,0,0,1-11.49,6.39c-7,.92-14,1.45-21,2.23-3.8.43-7.6,1-11.37,1.6-1.47.24-2.35,1.16-2.31,2.24a2.18,2.18,0,0,0,.9,1.59c8.38,4.69,17.26,8.32,26.09,12a39,39,0,0,1,5,2.68,3.15,3.15,0,0,1,1.53,3.3c-.23,1.13-1.38,1.82-2.7,2.11a10.4,10.4,0,0,1-5.66-.63c-9.68-3.34-19.1-7.33-28.41-11.58-5.81-2.66-11.72-5.14-17.42-8a53.45,53.45,0,0,0-22.2-5.34c-1.91-.09-3.84-.12-5.75-.09-23.77.45-47.23-2.7-70.66-6.07-9.48-1.37-18.83-3.68-28.3-5.1-17.72-2.65-35.26-6.29-52.78-9.92-18.76-3.9-37.47-8.07-56-13.23-15.39-4.28-30.86-8.27-46-13.3S645.65,764.15,630.54,759c-29.65-10.21-58.24-23-86.84-35.79-2.91-1.3-5.89-2.45-8.87-3.62a10.25,10.25,0,0,0-7.49.1c-3.58,1.34-7.11,2.85-10.64,4.32-4.13,1.71-8.17,3.59-12.47,4.94a72,72,0,0,1-26.56,2.88c-6.47-.42-12.51-2.53-18.37-5.14-1.11-.5-1.93-1.64-2.89-2.46-1.16-1-1.28-4.07-.64-5.33,1.2-2.37,3.18-4,5.06-5.68a75.61,75.61,0,0,0,14.8-17.54c.65-1.09,1.19-2.25,1.8-3.37.74-1.36.17-4.51-1-5.29-2.11-1.42-4.1-3-6.32-4.26-9.56-5.22-18.46-11.47-27.46-17.57A59.79,59.79,0,0,1,425.72,647a15.06,15.06,0,0,1-1.81-5.4,9.48,9.48,0,0,1,1.67-7.27,39.84,39.84,0,0,1,14.63-12.12,21,21,0,0,1,5.53-1.46c2.51-.45,5.06-.69,7.59-1.07,1.51-.22,3.21-2.86,2.84-4.36-1.07-4.34-2-8.73-3.3-13-6.26-20.15-12.64-40.26-18.31-60.59-2.4-8.59-5.8-16.91-8.78-25.34-.87-2.45-4.24-4-6.14-2.83-1.65,1-3.36,1.85-4.91,2.95-4.22,3-8.9,5-13.58,7.11a57,57,0,0,1-22.26,5.15c-5.75.13-11.5.85-17.24.88-6.46,0-12.72,1.18-19,2.23a47.74,47.74,0,0,0-24,11.17c-2.39,2.07-4.45,4.69-7.73,5.51a3.41,3.41,0,0,1-3.39-1.05,10,10,0,0,1-2-3.16c-3.88-10.83-7.77-21.67-11.48-32.56-3.91-11.5-7.64-23.06-11.45-34.6a23.22,23.22,0,0,1-1.27-9.43,11.07,11.07,0,0,1,3-6.87,38.76,38.76,0,0,1,9.17-6.91,98.24,98.24,0,0,1,21.27-8.66,50.78,50.78,0,0,1,9.45-1.55c4.45-.4,8.94-.5,13.41-.71a153.76,153.76,0,0,0,22.84-2.82,49,49,0,0,0,19.31-8.09c.52-.37,1-.77,1.53-1.15,3.1-2.25,6.55-4.15,9.18-6.85,2.14-2.21,3.27-5.39,4.9-8.1a3.36,3.36,0,0,1,4.9-.52c1.37,1.34,2.82,2.6,3.45,4.5,3,9.1,6.11,18.18,9.06,27.3,2.36,7.31,4.55,14.67,6.82,22,1.13,3.66,2.47,7.27,3.4,11,1.86,7.49,5.46,14.35,7.67,21.69,2,6.73,3.5,13.63,5.5,20.36,2.19,7.35,4.56,14.66,7.16,21.87,1.74,4.84,2.92,9.8,4.35,14.71q7.26,24.86,14.87,49.61a43.8,43.8,0,0,0,3.12,7,6.54,6.54,0,0,0,4.51,3.25,24,24,0,0,0,9.52.12c2.31-.4,4.88-3.09,4.75-5.21a15.16,15.16,0,0,0,0-1.91c-2.27-11.29-3-22.81-5.47-34.08-1.1-5-1.28-10.14-1.75-15.23-.27-3,2.14-6.17,5.09-7.45a51.82,51.82,0,0,1,12.93-3.45c15.8-2.44,31.58-5,47.2-8.43a6.07,6.07,0,0,0,4.48-5.48q.23-6.71.36-13.42a52,52,0,0,1,2.83-15,68.37,68.37,0,0,1,18-29.09c2.78-2.64,5.31-5.72,8.51-7.71,7-4.38,14.44-8.15,22.75-9.85s16.45-2.62,24.75-1c16.11,3.13,30.22,10.17,41.82,21.94a54.26,54.26,0,0,1,8.77,12.51c5.32,9.82,7.08,20.48,8.19,31.34a17.61,17.61,0,0,1,0,3.84c-1.09,8.89-2.16,17.76-5.41,26.24a49.06,49.06,0,0,1-8.55,14.87c-2.09,2.42-4.25,4.79-6.3,7.25a4.17,4.17,0,0,0-.74,3.57c.25,1.36,1.11,2,2.7,2a25.56,25.56,0,0,0,3.82-.1c7.89-1.38,15.17.38,22.3,3.77a256.23,256.23,0,0,0,30.35,11.7c1.53.5,4.26-1.54,4-3-.39-1.88-.76-3.76-1.22-5.62-3-12.48-4.35-25.18-5.2-38a153.85,153.85,0,0,1,.82-30.66c2.84-21.07,8.64-41.29,20-59.59,6.75-10.9,14.13-21.26,23.36-30.32a119,119,0,0,1,34.46-24c3.5-1.58,7.06-3,10.58-4.54,2.38-1,3.43-4.4,2.13-6.41a50.69,50.69,0,0,0-19.55-17.92,12.74,12.74,0,0,0-5.54-1.24c-1.85-.08-5.65,2.28-6.1,4a51.09,51.09,0,0,0-1.3,5.57c-.58,3.79-.84,7.63-1.56,11.39a19.21,19.21,0,0,1-4.22,8.53,31.16,31.16,0,0,1-10.42,8.32,19.34,19.34,0,0,1-11.17,1.82,38.38,38.38,0,0,1-19.1-8.38c-8-6.39-16-12.75-22.57-20.71a21.23,21.23,0,0,0-2.86-2.47c-.83-.7-4.61-.79-5.55-.08-6.62,5-13.61,9.65-19.4,15.56-6.24,6.38-11.94,13.35-15.95,21.49-2.25,4.59-4.68,9.09-7,13.63a2.35,2.35,0,0,1-3.21,1.22,3.1,3.1,0,0,1-2.11-2.69,4.53,4.53,0,0,1,.12-1.91c4.9-14.17,13.14-26.24,23.54-36.89,2.23-2.28,4.85-4.17,7.29-6.23,3.9-3.3,7.82-6.56,11.68-9.91a2.71,2.71,0,0,0,.43-3.5,16,16,0,0,0-2.06-3.18c-13.83-15.26-29.93-27.87-46.62-39.77a13,13,0,0,0-1.65-1c-3.63-1.84-7.5-2.21-11.09-.44-6.88,3.39-13.68,7-20.3,10.84a86,86,0,0,0-10.89,7.83A196.7,196.7,0,0,0,583,370.71,100.6,100.6,0,0,0,574.27,381c-15.3,21.58-27.55,44.59-32.43,71-.7,3.77-1.53,7.49-3.56,10.86a3,3,0,0,1-4.77.37,4,4,0,0,1-1-1.56,3.83,3.83,0,0,1-.1-1.9c1.66-6.82,3.28-13.66,5.07-20.45,5.27-20,14.23-38.33,25.76-55.41,14.56-21.55,32.83-39.13,56.06-51.23a21.09,21.09,0,0,0,6.24-4.3c1.14-1.26,1.26-2.22,0-3.3a16.59,16.59,0,0,0-2.84-2.5c-11.49-5.8-23.75-9.43-36.18-12.48-5-1.22-10-2.06-15.06-2.95-10.29-1.83-41.32-1.6-51.66.19a277.8,277.8,0,0,0-78,25.9c-14.34,7.22-28,15.34-40.48,25.52-2.44,2-4.71,4.36-7.92,5.25a4.44,4.44,0,0,1-3.62-.44,3,3,0,0,1-1.5-3.28,11.12,11.12,0,0,1,4.2-6.24c11.79-9.89,24.22-18.77,38.05-25.71,24.15-12.11,49.44-20.66,75.76-26.7,21.53-4.95,43.15-4.79,64.86-2.93A130.25,130.25,0,0,1,597.47,304c4.9,1.46,9.68,3.29,14.57,4.8,14.18,4.39,27.15,11.28,39.36,19.57A274.61,274.61,0,0,1,691.5,361q16.32,16.28,32.59,32.57A99.72,99.72,0,0,0,742,408a17.15,17.15,0,0,0,21.21-2.12,15.35,15.35,0,0,0,4.64-8.23c1-5,1.36-10.14,2.22-15.18a16.46,16.46,0,0,1,3.2-6.9,11.18,11.18,0,0,1,6.15-4.32,20,20,0,0,1,13.16.81A43,43,0,0,1,807,381.42c2.69,2.73,5.35,5.51,7.8,8.46,6.13,7.37,12.24,14.78,18.17,22.32a117.16,117.16,0,0,0,17.5,17.7,23,23,0,0,0,8.49,4.32,8.53,8.53,0,0,0,5.62,0,45.85,45.85,0,0,0,5.29-2.24,12.58,12.58,0,0,0,6-7.16,147.23,147.23,0,0,0,4.49-20.61,11.38,11.38,0,0,1,5.2-7.71,10.6,10.6,0,0,1,7.31-1.63,19.12,19.12,0,0,1,10.32,4.74,129.86,129.86,0,0,1,18.72,19.22,116.28,116.28,0,0,0,12.86,14.21,23.47,23.47,0,0,0,3,2.38,10,10,0,0,0,7.3,1.61,19.57,19.57,0,0,0,5.46-1.69,10.43,10.43,0,0,0,5.69-7.31,27.41,27.41,0,0,0,.55-7.6c-.51-5.73-1.39-11.43-2.08-17.14-.54-4.44-1.25-8.87-1.47-13.33a9.91,9.91,0,0,1,5.32-9.49,10.65,10.65,0,0,1,9.2-.92,38,38,0,0,1,13.08,7.83c3.77,3.46,7.34,7.14,11.63,10a18,18,0,0,0,6.9,3.14,4.68,4.68,0,0,0,3.61-.85c3-2,3.77-5,3.79-8.3,0-4.58-2.2-8.65-3.1-13a31.57,31.57,0,0,0-3.35-8.94c-1.86-3.36-3.51-6.83-5.37-10.18A195.66,195.66,0,0,0,965.68,319a329.94,329.94,0,0,0-49.47-42.38c-13.07-9.21-27.16-16.89-41.44-24.1a367.17,367.17,0,0,0-53.2-21.78,414.44,414.44,0,0,0-57.8-13.63c-22.15-3.76-44.48-4.76-66.89-4.84-14.07-.05-28.13.09-42.2.79-14.74.74-29.22,3.36-43.83,5-23.17,4.77-46.23,9.88-68.68,17.56a592.23,592.23,0,0,0-65.53,27.08c-23.74,11.44-45.59,25.87-66.64,41.58-13.85,10.35-26.52,22.09-39.34,33.68-17.14,15.52-32.1,33-46.77,50.75-15.09,18.29-28.18,38-40.75,58.1q-19.33,30.9-38.72,61.78a233.89,233.89,0,0,1-18.22,24.7,172.91,172.91,0,0,1-33.81,31.08,48.33,48.33,0,0,1-8.51,4.34,3.33,3.33,0,0,1-3.5-.87,3.5,3.5,0,0,1-.16-5,28.33,28.33,0,0,1,2.7-2.67c2.61-1.85,5.32-3.55,8-5.33,13.48-9,24.26-20.78,33.78-33.71,14.9-20.26,17.23-24.22,31.81-47.95,10.71-17.44,21.67-34.72,32.49-52.09,6.79-10.89,14.87-20.82,22.71-30.93a479.83,479.83,0,0,1,41.73-47.58c18.69-18.44,38.29-35.89,59.47-51.43A417.21,417.21,0,0,1,465.13,259a496.16,496.16,0,0,1,66.78-29,477.22,477.22,0,0,1,61-16.74,435.34,435.34,0,0,1,93.38-9.08c1.92,0,3.84,0,5.76,0ZM540.13,676.13c.42-.35.79-.84,1.27-1s.81.24,1.23.38c-.65,1.06-1.54,1.16-2.66.31a5.64,5.64,0,0,1-.28-1.69c.21-1.49-.34-2.2-1.59-1.59-.48.24.3,1.3,1.53,2.1C540,674.89,540,675.69,540.13,676.13Zm51,15.58a7,7,0,0,1,1.4-1.06,10.11,10.11,0,0,1,3.3-1.13c3.94-.15,4.33-3.09,5-5.92,6.79,2.06,13.57,2.61,20.35-.05,2.12-1.42,4.61-1.59,7-2,1.67-.31,2.3-1,1.61-1.78a2.56,2.56,0,0,0-1.6-.64c-3.55-.37-5.78,1.26-6.92,4.54-3-1.39-6.07-1.32-9.23-1-3.73.39-7.39,1.68-11.21,1-.35.46-.61,1.09-1.07,1.35a7.78,7.78,0,0,1-3.07,1.27c-3.64.23-4.66,2.68-5.44,5.5-1.66-.47-3.31-1-5-1.38a3.43,3.43,0,0,0-1.71.1c-.41.12-1.06.57-1,.8.14,1,1,1.18,2.51.91C587.67,691.87,589.39,691.85,591.1,691.71Zm-92.73-70.14a55.44,55.44,0,0,0-1,12.73c.05,1.84.44,2.49,1.73,1.65.34-.23.42-1.09.38-1.64-.31-4.24-.68-8.47-1-12.71-1.5-2.1-1.85-4.51-2.06-7-.42-4.92-.38-9.94-2.45-14.59-.39-2.48-1-4.94-1.15-7.44-.57-8.14-.9-16.3-3.87-24.08-.65-1.69-.38-3.73-.53-5.61,2.35-.28,4.69-.67,7-.8,2-.11,2.35-.6.88-1.7-.4-.29-1.16-.16-1.74-.13-2.42.11-4.75.41-5.8,3.08a3.68,3.68,0,0,0-2.44,2.53c-.48,3.12-.76,6.39.34,9.34,2,5.41,2.46,11,2.91,16.65a10.5,10.5,0,0,0,4.56,7.87c-1.57,5.45-1.09,10.95-.45,16.47.25,2.11,1.79,3.11,3.18,4.27C497.32,620.84,497.86,621.14,498.37,621.57Zm224.49,14.6c.15-1.78-.22-2-1.09-.72l1.49.33a3.65,3.65,0,0,0,.63,3.5q10.7,10.71,21.46,21.32a3.82,3.82,0,0,0,1.58,1,19.38,19.38,0,0,0,3.62.66c2.56.19,4.77-3,3.6-5.17C750.83,651,747.54,644.93,744,639a5.81,5.81,0,0,0-4.46-3.18c-4.39-.33-8.78-.65-13.18-.76C725.23,635,724,635.76,722.86,636.17ZM955.8,813.93c8.31,0,16.63,0,24.94,0a177.14,177.14,0,0,0,26.73-2.06,1.9,1.9,0,0,0,1.26-1,2.35,2.35,0,0,0-1.31-3.22,37.16,37.16,0,0,0-5.12-2.49c-13.35-4.41-26.74-8.69-40.09-13.09-17-5.6-34-11.28-51-16.88-2.42-.79-4.93-1.31-7.38-2a3.31,3.31,0,0,0-3.54.93c-1.75,1.86-3.55,3.67-5.21,5.59-1.85,2.14-4.38,2.68-6.9,2.76a31.89,31.89,0,0,1-7.6-.76c-3.12-.68-6.14-1.75-9.2-2.67-17.74-5.36-35.37-11.14-53.25-16-33.31-9.06-66.4-18.85-99.52-28.55-6.75-2-13.43-4.22-20-6.61-6-2.18-12-4.84-16.78-9.11-5.72-5.07-11.84-9.69-16.75-15.73-4-4.93-8.94-9.12-13.54-13.56-2.43-2.35-5.4-3.51-8.75-2.48C628.11,691.55,613,694.3,598,697.6c-20.44,4.52-14,5.42-32.84-3.07-11.65-5.25-23.47-10.14-35-15.65-9.79-4.68-19.67-9.18-29.43-13.94a5.63,5.63,0,0,1-3-4.64c-.32-4.45-.61-8.8-4.13-12.3-2.28-2.27-3.36-5.41-4-8.57-.54-2.5-1-5-1.49-7.53a5.72,5.72,0,0,0-4.13-3.5c-2.54-.14-5.09-.26-7.63-.34a15.23,15.23,0,0,0-1.89.23c-1.73.15-2.86,2.82-1.74,4.37s2.59,2.87,3.53,4.51a7.7,7.7,0,0,1,.55,3.59c0,1.64-2.06,2.79-4.25,2.92a64.45,64.45,0,0,1-15.25-1.37c-5.66-1-11.28-2.27-16.94-3.3a10.58,10.58,0,0,0-3.71.2,2.36,2.36,0,0,0-1.51,1.12,5.63,5.63,0,0,0,0,5.43,30.62,30.62,0,0,0,4.61,6c9.21,9.05,20.11,15.74,31.29,22,4.46,2.5,9.17,4.64,13.35,7.53,13.74,9.49,28.71,16.78,43.49,24.34,22.76,11.65,46.27,21.74,70,31.33,11.26,4.55,22.5,9.17,33.93,13.26,14.44,5.16,28.94,10.2,43.63,14.56,15.93,4.72,31.8,9.62,47.89,13.81,14.85,3.86,29.87,7,44.7,10.85,15.47,4,31.14,7.1,46.86,9.89,6.92,1.22,13.92,2,20.86,3.12,16.41,2.68,32.74,5.83,49.36,7,2.55.17,5.06.74,7.6,1,7.63.86,15.25,1.75,22.88,2.48C928.93,814.24,942.37,814,955.8,813.93ZM614.57,470.33v.07c-2.56,0-5.12-.06-7.68,0a38.7,38.7,0,0,0-14.79,3.64,60.08,60.08,0,0,0-19.9,14.73c-10.89,11.8-16.79,25.58-15.64,41.87a103.56,103.56,0,0,0,2.15,15.17,39.14,39.14,0,0,0,9.4,18.61c1.74,1.87,3.25,4,5.08,5.74a59.09,59.09,0,0,0,32.16,15.88,76.5,76.5,0,0,0,21,.34,47.4,47.4,0,0,0,26.06-11.1,68,68,0,0,0,11.61-12.73,50.21,50.21,0,0,0,8.47-19.19c2.65-13.45,2.33-26.73-4.39-39.21a26.06,26.06,0,0,1-1.67-3.45c-1.58-4.35-4.5-7.74-7.78-10.82a104,104,0,0,0-10.09-8.83c-9-6.47-18.85-10.78-30.2-10.73ZM322.9,529.9l-.13-.28c3.5-1.53,6.88-3.49,10.52-4.49,8.61-2.37,17.35-4.18,26.38-4.09,6.38.06,12.76-.17,19.13-.42a36.93,36.93,0,0,0,7.57-1c12-3,22.8-8.15,31.37-17.31a6.61,6.61,0,0,0,1.69-5.26,8.36,8.36,0,0,0-.23-1.89q-9.66-29-19.4-58.05a8.72,8.72,0,0,0-2-3.18,3.6,3.6,0,0,0-3.44-.95c-2.58.61-4.41,2.51-6.5,3.94a73.69,73.69,0,0,1-39.3,13.37c-5.73.24-11.45.83-17.18,1a59.28,59.28,0,0,0-22.21,5.28,74.89,74.89,0,0,0-14.91,8.54c-3.67,2.7-5,5.91-3.78,9.83,3.71,11.54,7.32,23.11,11.18,34.59,2.44,7.25,5.24,14.37,7.9,21.54.7,1.88,4.66,3.22,6.53,2.24C318.3,532.11,320.61,531,322.9,529.9Zm179.19,72.29.3,0c.58,4.4,1.23,8.79,1.73,13.21a129,129,0,0,0,3.93,20.54c.38,1.37,2.87,3,4.41,3a56.65,56.65,0,0,0,18.67-3.1,4.43,4.43,0,0,0,2.58-2.54c3.95-16,8.83-31.78,14.29-47.36,1.47-4.19,3-8.35,4.51-12.54.63-1.8,1.11-3.64,1.61-5.48.16-.61.15-1.26.28-1.88a5.23,5.23,0,0,0-5.66-5.88c-15,2.37-29.91,5.71-45,7.67-.62.08-1.2.39-1.82.53-1.87.42-4.59,3.88-4.31,5.65C499.07,583.39,500.59,592.79,502.09,602.19Zm43.71,49c-5.09.23-10.17.43-15.26.7-3.87.2-5.13,1.06-4,2.6.74,1,1.41,2.26,2.43,2.78,15.34,7.74,30.77,15.3,46.42,22.4a17.53,17.53,0,0,0,13,.7,309.42,309.42,0,0,1,31.47-7.91c2.5-.48,4.95-1.22,7.42-1.84a3.64,3.64,0,0,0,2.26-5.8c-4.65-6.9-10.82-12.5-16.1-18.86a6.92,6.92,0,0,0-5.16-2.08,19.44,19.44,0,0,0-3.81.28c-10.05,1.64-20.13,3.11-30.13,5A126.19,126.19,0,0,1,545.8,651.2Zm465.27,147.59a6.42,6.42,0,0,0-.45-1.75,13.43,13.43,0,0,0-2.2-3,132.93,132.93,0,0,0-16.77-12.52c-23.94-15.67-49-29.31-74.56-42.16a8.54,8.54,0,0,0-3.72-.56c-.39,0-1,.79-1.15,1.31-.93,3.67-1.63,7.4-2.68,11s-2.43,7.2-3.66,10.79c-.52,1.51.8,3.84,2.55,4.56,10.56,4.38,21.35,8.08,32.25,11.51q10,3.15,20,6.32,24.43,7.8,48.88,15.54C1009.89,799.93,1010.55,799.15,1011.07,798.79ZM817,724.57c1.57.29,3.43.69,5.3.93a3,3,0,0,0,1.65-.61,2.55,2.55,0,0,0,1.14-3.26c-2.46-6.52-4.95-13-7.55-19.5a10.88,10.88,0,0,0-4.92-5.64c-3.91-2.08-7.76-4.55-12-5.73-4.52-1.27-8.38,2.27-12.55,3.61-6.64,2.14-13.13,4.7-19.69,7.09-.6.21-1.22.36-1.8.62a3.48,3.48,0,0,0-2.22,2.65,2.38,2.38,0,0,0,1.74,3q18.93,6.35,37.87,12.67C808.2,721.82,812.44,723.12,817,724.57Zm-21.1-203c-7.31.27-14.23.51-21.15.83-.49,0-1,.54-1.44.93a2.48,2.48,0,0,0-.53,3.46A285.25,285.25,0,0,0,792.59,552c.4.46,1,.74,1.47,1.17,1.05,1,4.18.87,5.19-.25,7.2-8,13.45-16.59,17.83-26.47.66-1.48-1-4-2.73-4.08C808.07,522.08,801.78,521.82,795.87,521.57Zm-314.43,202c9.39.09,11.74-.19,20.44-3.2,4.16-1.44,8.21-3.25,12.28-5,.55-.23.91-.88,1.43-1.23,1.46-1,1.51-3.87,0-4.69a274.19,274.19,0,0,0-27-13.69,2.89,2.89,0,0,0-3.36,1c-5.2,6.33-9.22,13.58-15.13,19.36a5,5,0,0,0-.71,1.7,2.59,2.59,0,0,0,1.11,3.26C473.84,723.51,477.68,723.34,481.44,723.54Zm400.64,21.82c3.33-.69,5.44-3.29,8.14-4.93,3.26-2,6.7-3.66,10-5.54.53-.29,1.33-1.16,1.23-1.35-.59-1.1-1.19-2.54-2.2-3-12-5.83-24-11.83-36.69-16.14a2.45,2.45,0,0,0-1.8.21,2.81,2.81,0,0,0-1.39,3.26c4.19,19,4.49,18.28,21,26.82A16,16,0,0,0,882.08,745.36Zm-40.31-229.1c.3-10.84-12.15-18.68-21.66-13.48-2.17,1.18-3.93,3.19-5.7,5s-2.19,4.1-1,5a10,10,0,0,0,3.09,2c3.66,1,7.63.16,11.22,1.84,1.43.66,2.1,1.55,1.64,3a20.94,20.94,0,0,1-1.38,3.44c-.87,1.69-1.89,3.3-2.84,5-.83,1.45-.59,2.59.84,3.07,1.15.39,2.52.92,3.59.64a16.85,16.85,0,0,0,9.08-6.6A14.59,14.59,0,0,0,841.77,516.26ZM612.07,599.7c-.13-.45-.13-1.11-.43-1.32-3.82-2.56-8.49-2.37-12.67-3.78-4.81-1.62-9.66-3.13-14.53-4.57a2.94,2.94,0,0,0-3.28,1.31c-3.21,5.57-4.18,11.95-6.23,17.94-.55,1.63,1.62,3.43,3.64,3.08,6-1,21.57-6.39,32.32-11.21C611.4,600.92,611.68,600.19,612.07,599.7Zm187.48-26.56c0,4.76-.07,7.27,0,9.78a29.33,29.33,0,0,0,.7,3.65c.25,1.49,2.94,2.45,4.43,1.53,4.66-2.9,6.64-7.29,7-12.59s-2.48-9.15-8.28-10.77a2.26,2.26,0,0,0-3,1.42C799,569.14,799.61,572.3,799.55,573.14Zm-8.22,5.63h.33c-.15-2.49-.27-5-.47-7.46a3.11,3.11,0,0,0-1.85-2.79,2.87,2.87,0,0,0-3.48.53c-6.82,5.93-5.72,14.74,0,19.42a3.22,3.22,0,0,0,3.5.5,2.88,2.88,0,0,0,1.91-2.73C791.4,583.75,791.33,581.26,791.33,578.77ZM453.52,627.4c-2.1.24-4,.32-5.77.69-1.43.3-2.24,1.2-2.2,2.18.06,1.41.95,2.15,2.2,2.75,3.4,1.64,6.89,2.88,10.69,2.22a3.9,3.9,0,0,0,2.69-2.09c.27-.91-.55-2.23-1.08-3.28a2.56,2.56,0,0,0-1.4-1.16C456.9,628.17,455.1,627.79,453.52,627.4Zm65.94-71.18c-1.9-.19-3.79-.25-5.46.93.27.36.55,1,.83,1.05,1.9,0,3.81-.09,5.7-.27.27,0,.47-.72.7-1.11A8,8,0,0,0,519.46,556.22Zm21.41-3.16c-1.06-.09-2.11-.21-3.17-.22-.14,0-.3.57-.44.88a10.25,10.25,0,0,0,1.53.35,4.45,4.45,0,0,0,1.63-.12C540.64,553.88,540.72,553.37,540.87,553.06Z"/><path d="M325.22,786.25c10.48,1.21,19.59,5.21,26.12,14a19.93,19.93,0,0,1,2.74,5,73.54,73.54,0,0,1,2.72,9.2,14.74,14.74,0,0,1,.18,5.69c-1.3,7-3.28,13.68-8.41,19a14,14,0,0,0-2.07,3.15,2.38,2.38,0,0,0-.32,1.82,2.75,2.75,0,0,0,3.29,1.3,44.53,44.53,0,0,0,14.23-5.52c5.41-3.4,10.8-6.83,16.25-10.18a48.19,48.19,0,0,1,6.75-3.62,5.16,5.16,0,0,1,3.63.28c5.46,2.44,6.63,8.54,2.53,12.49-.46.44-.81,1-1.31,1.4A133.7,133.7,0,0,1,360.45,859a53.06,53.06,0,0,1-12.8,3.9,24.71,24.71,0,0,0-9,3.28,8.47,8.47,0,0,0-3.82,4.13,36.34,36.34,0,0,0-2.34,7.26c-1,6.32-1.62,12.69-2.38,19-.27,2.31,1.79,5.26,3.83,6.09,4.22,1.71,8.75,1.8,13.12,2.74a14.89,14.89,0,0,1,9.42,6.15C360.86,918,365.14,924.34,369,931c2.13,3.63,4.83,5.75,8.93,6.36a14.32,14.32,0,0,1,3.53,1.34c2.23,1,2.91,4.45,1.23,6.54a13,13,0,0,1-2.59,2.78,43.4,43.4,0,0,1-14.08,5.77A6.37,6.37,0,0,1,360.8,952a55.46,55.46,0,0,1-3.41-4.58q-6-9.84-11.79-19.78a10.63,10.63,0,0,0-9.52-5.45q-11.5-.21-23,.07a9.47,9.47,0,0,0-8,4.66c-2.7,4.34-5.05,8.9-7.67,13.29a43.85,43.85,0,0,1-4.4,6.24,9.14,9.14,0,0,1-8.6,3.21c-6.94-1.1-13.89-2.39-20.32-5.39-4.45-2.09-8.53-1.95-12.59.94-1,.67-2.4.6-3.62.9-1.41.35-3.9-1.7-4-3.31a23.06,23.06,0,0,1-.2-3.8c.31-4.54,1.94-8.71,3.81-12.8.5-1.1,3.47-2.48,4.89-2.49a36.63,36.63,0,0,1,9.42,1.57c4.32,1.13,8.65,2.27,13,3.24,3.83.85,7.23-1.2,9.25-5.11a29,29,0,0,0,3.34-12.88,139.91,139.91,0,0,1,1.5-21,145.45,145.45,0,0,1,3.5-16.89,39.68,39.68,0,0,0,1.06-7.57,6.93,6.93,0,0,0-1.66-5.35c-3.52-3.71-7.36-7.11-10.94-10.76a98.42,98.42,0,0,1-9.08-9.88c-5.74-7.68-11.13-15.62-16.62-23.5a33,33,0,0,1-1.73-3.41c-2.26-4.2-.62-9,3.93-11.19a8.2,8.2,0,0,1,3.64-1,5.81,5.81,0,0,1,3.53,1.2c3.82,3.46,6.44,7.94,9,12.32,5.52,9.58,12.85,17.48,21.21,24.53a1.91,1.91,0,0,0,1.81-.07,2.42,2.42,0,0,0,.67-1.72,3.79,3.79,0,0,0-.53-1.83c-2.94-5.21-3.32-10.91-3.46-16.72A29.51,29.51,0,0,1,296.86,803C302.85,791.63,312.7,786.87,325.22,786.25Zm-24.33,28.29c-.72,8.21,1,13.56,4.71,18.24a29.26,29.26,0,0,0,3.82,4.26c4.49,3.77,9.44,6.54,15.64,5.71,1.38-.18,2.42-.87,2.62-1.92.07-.37-.7-1.09-1.23-1.36-2.84-1.4-6-2.07-8.64-3.94-3.33-2.32-3.47-9.26.08-11.69a14.29,14.29,0,0,1,5.12-2.4,28.79,28.79,0,0,1,11.4,0,6.77,6.77,0,0,1,3.25,1.78c1.35,1.33,2.35,3,3.6,4.43,1.82,2.1,4.77,1.39,5.89-1.48a41,41,0,0,0,1.73-5.41,2.42,2.42,0,0,0-1.66-3,25.09,25.09,0,0,0-3.65-.84c-2.81-.5-3.85-1.19-4-3a5.12,5.12,0,0,1,2.25-4.8c2.79-2.21,2.67-2.48,1.11-4.28-1.24-1.45-2.51-2.88-3.74-4.33-6.2-7.32-14.47-8.22-22.52-5.17a31.83,31.83,0,0,0-9.73,6,15.8,15.8,0,0,0-5.6,9.72C301.05,813,300.85,814.85,300.89,814.54Z"/><path d="M503.39,973.48c-6.54-.17-12.29-.31-18-.47-1.38,0-3.8-2.06-4.2-3.44-.7-2.45-1.69-4.85-2.15-7.34-2.21-11.93-5.16-23.73-6.14-35.88-.36-4.45-.91-8.9-3-13a2.49,2.49,0,0,0-3.13-1.37c-4.44,1.17-7.59,4.67-11.68,6.44a52.5,52.5,0,0,1-7.19,2.55,7.55,7.55,0,0,1-9.24-4.75,35.44,35.44,0,0,1-2-7.36c-1.11-11.46-1.76-22.95-.74-34.46.1-1.23.8-2.41,1-3.65.29-2.18,4.6-3.72,6.31-3,3.14,1.35,5.51,3.65,5.95,6.93.83,6.3.4,12.77,2.4,18.91a2.5,2.5,0,0,0,3.13,1.31c6-2.26,10.59-7.08,16.38-9.83,1.62-.77,1.95-3.65.66-4.68-1.49-1.19-3.1-2.24-4.53-3.5a81.44,81.44,0,0,1-7-6.52c-5.87-6.54-8.14-14.31-7.39-23a31.18,31.18,0,0,1,9.6-20.34c4.24-4.12,9.15-6.92,15.17-7.44,1.91-.17,3.82-.41,5.73-.52a28.86,28.86,0,0,1,24,9.69c7.9,8.54,12.53,25.44,2.44,38.82-1.91,2.54-4,4.93-6,7.37-1.14,1.38-.06,3.43,2.24,4.25a21.74,21.74,0,0,0,5.47,1.59c3.8.26,7.63.14,11.46.12,2.37,0,4.79-3.18,4.17-5.29a24.88,24.88,0,0,0-1.16-3.64,21.7,21.7,0,0,1-2.36-9.18c0-3.83-.46-7.65-.42-11.47,0-3.48,1.93-6,5.06-7.48.57-.27,1.16-.51,1.75-.77,1.7-.74,4.42.21,4.74,1.72,2.64,12.53,7.07,24.55,10.35,36.89a40.61,40.61,0,0,1,.95,7.56c.25,3.61-3.23,7.78-6.8,8.08-7,.6-14,1-21,1.67-1,.1-2,1.41-2.89,2.29a2.62,2.62,0,0,0-.75,1.73A121.78,121.78,0,0,0,517,923.91q2.24,11.28,4.78,22.49a118.8,118.8,0,0,1,2.49,20.91,5.73,5.73,0,0,1-1.3,3.52,5.25,5.25,0,0,1-3.19,1.91C514.09,973.15,508.35,973.28,503.39,973.48ZM473.87,870a4.13,4.13,0,0,0,3.5,3.81,33.44,33.44,0,0,0,11.42-.23,4.56,4.56,0,0,0,3.75-3.68c4.21,1,7.56-.64,10-3.84a29.18,29.18,0,0,0,4.62-8.22c2.76-8.34,1.87-16.19-4.15-23.11-8.45-9.72-20.3-13-32.4-6.37a8.29,8.29,0,0,0-1.49,1.16c-.45.43-.82.94-1.26,1.39-1.47,1.47-1.15,3.39.87,4.65,1.07.66,2.31,1.07,3.35,1.77,1.36.91,2.14,4,1.37,5a4.12,4.12,0,0,1-3.32,1.51,73,73,0,0,0-7.54.6c-1.94.29-3,2-3.17,4.1a22.81,22.81,0,0,0,3.08,12.73c1.58,2.83,3.89,4.94,7.51,4.74C470.45,869.36,470.45,869.36,473.87,870Z"/><path d="M442.48,433.77c3.16-22.3,12-46,26.08-67.79A110.28,110.28,0,0,1,493,339.25a10.7,10.7,0,0,1,3.44-1.46,2.45,2.45,0,0,1,3.09,1.5,2.65,2.65,0,0,1,.16,1.83,7.65,7.65,0,0,1-1.62,3.26,134.72,134.72,0,0,0-18.26,19.55c-12,15.33-19.95,32.6-25.43,51.1-2.9,9.78-5.31,19.7-8,29.55-.34,1.28-1.46,1.85-3,1.47-.45-.11-.85-.83-1.06-1.35C441.38,442.23,442,439.7,442.48,433.77Z"/><path d="M996.94,440.52c1.2.37,2.61.45,3.55,1.16a59.66,59.66,0,0,1,20.14,27.39c2.49,6.68.74,12.61-3.7,17.77a9.4,9.4,0,0,1-6.87,2.92c-5.71.27-9.79-2.29-12.64-7.06a33.79,33.79,0,0,1-4-10.71c-1.5-7.33-1.72-19.65-.72-28.58C992.86,441.79,994.88,440.41,996.94,440.52Zm5.27,15.56c-.47.24-1.27.4-1.36.75-1.82,7.08-1.33,13.89,2.77,20.16a21.08,21.08,0,0,0,2.54,2.82c1.73,1.8,5.42,1,6.35-1.37a9,9,0,0,0,.56-5.57,40.2,40.2,0,0,0-7.48-15.37C1004.92,456.66,1003.36,456.53,1002.21,456.08Z"/><path d="M927.92,490.82c-.35,1.66-.81,4.78-1.67,7.78a10.84,10.84,0,0,1-11.44,7.91,12.37,12.37,0,0,1-11.44-8.38c-1.4-3.53-2.48-7.16-2-11,1-7.49,1.91-15,3-22.48a10.57,10.57,0,0,1,3.5-6.51,3.17,3.17,0,0,1,3.42-.64,13.56,13.56,0,0,1,6.14,4.19,54.33,54.33,0,0,1,7.75,12.92C927.24,479.27,927.81,484.27,927.92,490.82Zm-18-6.24c-.09,1.64-.34,4.19-.31,6.73a14.44,14.44,0,0,0,.88,3.7c.4,1.36,3,3.12,4.48,3.1a5.42,5.42,0,0,0,4.19-3.28,28.64,28.64,0,0,0-1.49-18.73,12.81,12.81,0,0,0-2.34-3c-1.12-1.32-2.11-1.45-2.93-.44-.4.49-1.06.95-1.14,1.5C910.78,477.34,910.43,480.51,909.93,484.58Z"/><path d="M297.65,652.65c-.11-6.5.17-10.91,1.74-15.1a12.74,12.74,0,0,1,7.69-7.82c4.58-1.69,11,1.27,12.53,5.68A44.43,44.43,0,0,1,322,655.87a26.43,26.43,0,0,1-2.8,9,11,11,0,0,1-11.17,5.43,10.53,10.53,0,0,1-8.43-6.68,13.88,13.88,0,0,1-1.07-3.61C298.1,656.86,297.78,653.73,297.65,652.65Zm7.05-3.29c.33,2.6.52,5.1,1,7.53a7.26,7.26,0,0,0,1.66,3.28c.76.84,2,1.81,3,1.72a4.22,4.22,0,0,0,2.77-2.18,24.24,24.24,0,0,0,1.24-18.24,5.57,5.57,0,0,0-3.55-4.05c-1.56-.46-4.39,2.22-4.89,4.65S305.1,647,304.7,649.36Z"/><path d="M769.92,890.89c-.49,4-.57,7.27-1.33,10.34a13.57,13.57,0,0,1-8.49,9.68,8.54,8.54,0,0,1-8.88-1.64A15.4,15.4,0,0,1,746.9,903a37.17,37.17,0,0,1-.67-22.64,16,16,0,0,1,3.71-6.61,10.17,10.17,0,0,1,10.48-2.92,10.3,10.3,0,0,1,7.91,7.56C769.4,882.72,769.5,887.25,769.92,890.89Zm-17.56.86c.07.82.2,3.36.59,5.86a16,16,0,0,0,1.35,3.52,3.48,3.48,0,0,0,6,.39,14.36,14.36,0,0,0,2.38-7.11,35.77,35.77,0,0,0-1.37-13.2c-.41-1.48-3-3.05-4.44-2.63a4.15,4.15,0,0,0-2.77,2.2C752.65,883.68,752.39,886.83,752.36,891.75Z"/><path d="M484.57,412.37c.33-2.92.53-6.72,1.24-10.41a10,10,0,0,1,5.62-7.2c5.56-2.67,13.81,1.15,15.37,7a52.24,52.24,0,0,1,.71,24.33c-1.47,7.1-10.26,10.08-14.76,8.37a11,11,0,0,1-7.16-8.09,19.71,19.71,0,0,1-.59-3.73C484.81,419.53,484.73,416.37,484.57,412.37Zm17.68,4.53a33.42,33.42,0,0,0-2.64-12.81,4.1,4.1,0,0,0-2.87-1.93c-1-.1-2.76.55-3.1,1.34a31.46,31.46,0,0,0-1.51,20.11c.14.59.54,1.12.72,1.71.5,1.66,2.2,2.62,4.41,2.46a3.35,3.35,0,0,0,2.9-1.95A21.28,21.28,0,0,0,502.25,416.9Z"/><path d="M401.24,601.94c-.23,3.14-.36,6.93-.82,10.69a8.85,8.85,0,0,1-4,6.21,17.36,17.36,0,0,1-5.1,2.39,10.61,10.61,0,0,1-13-8,57.42,57.42,0,0,1-.66-20.75c1.15-6.88,8.16-12.23,15.4-10.35,3.55.92,7,4.49,7.44,7.78.08.63.23,1.25.27,1.88C400.94,595,401.07,598.13,401.24,601.94Zm-6.86,3.19c-.09-5.26.23-9.16-1.36-12.74a6,6,0,0,0-2.67-2.28c-1.11-.62-4.33,1.35-4.65,2.56a34.29,34.29,0,0,0,0,18.87c.31,1.06,3.91,2.77,4.95,2.12s2.33-1.45,2.63-2.45A42.2,42.2,0,0,0,394.38,605.13Z"/><path d="M381.91,695.52c.15-2.41.2-4.3.41-6.17a18.59,18.59,0,0,1,3.6-8.6c4.08-5.83,11.25-6.65,16.29-1.66a15.54,15.54,0,0,1,5,9.91c.27,3.75.21,7.54.2,11.31a24.27,24.27,0,0,1-2.31,9.09A10.87,10.87,0,0,1,393,716.24a9.92,9.92,0,0,1-5.08-2.24,15.26,15.26,0,0,1-5.52-9.59C382,701.31,382,698.14,381.91,695.52Zm7.35-2c0,4.86,0,6.77,0,8.67a4.61,4.61,0,0,0,.44,1.85,11.74,11.74,0,0,0,1.81,3.26,5.32,5.32,0,0,0,3.16,1.86,5.21,5.21,0,0,0,3.19-1.75,7.12,7.12,0,0,0,1.81-3.26,31.47,31.47,0,0,0-.83-16.91,3.65,3.65,0,0,0-1.12-1.53c-1-.8-2-2.06-3-2.08s-2.24,1.11-3.06,2a7.42,7.42,0,0,0-1.78,3.26A33.5,33.5,0,0,0,389.26,693.53Z"/><path d="M446.21,752.9a29.91,29.91,0,0,1-1.86,11.48,13.72,13.72,0,0,1-8,7.78c-3.89,1.57-9.72-.53-11.74-4-4.46-7.57-5-15.71-3.69-24.11a16.62,16.62,0,0,1,4.26-8.45,11.83,11.83,0,0,1,3.05-2.27,10,10,0,0,1,13.41,3.37A28.92,28.92,0,0,1,446.21,752.9Zm-6.94-.62c-.15-1.26-.41-3.78-.75-6.29a7.85,7.85,0,0,0-2.84-4.74c-1.15-1.07-4.17-.79-5,.55a12.46,12.46,0,0,0-1.79,3.32,33.1,33.1,0,0,0-.12,15.11,12.16,12.16,0,0,0,1.56,3.43,4.16,4.16,0,0,0,4.82,1.74,4.33,4.33,0,0,0,2.65-2.5C439.09,759.91,439.11,756.74,439.27,752.28Z"/><path d="M209.43,644.14c-.13-7.85.95-12.7,3.75-17.13a13.18,13.18,0,0,1,4.06-3.88,9.57,9.57,0,0,1,14.26,4.34,37.86,37.86,0,0,1,.1,29.54,8.58,8.58,0,0,1-7.15,5.48,16.88,16.88,0,0,1-3.76,0,9.86,9.86,0,0,1-8.72-6.28,35.65,35.65,0,0,1-2.14-7.24A28.45,28.45,0,0,1,209.43,644.14Zm18.29-2.73c-.12-1.17-.37-3.7-.66-6.22a7.6,7.6,0,0,0-2.76-4.79,2.47,2.47,0,0,0-3.39-.3,7.14,7.14,0,0,0-3.27,4.45,32.43,32.43,0,0,0-.29,15.11,7.58,7.58,0,0,0,4.58,5.58c.95.43,3.71-1.87,4.31-3.14C227.64,649.12,227.63,646,227.72,641.41Z"/><path d="M235.31,873.57c-.1,2-.14,4.52-.39,7.06a17.25,17.25,0,0,1-3.68,8.69,11.83,11.83,0,0,1-13.78,3.45,9.23,9.23,0,0,1-4.24-3.67,20.41,20.41,0,0,1-3.16-9,101.8,101.8,0,0,1-.38-11.45c0-3.25,1.34-6.18,2.8-9.06,3.87-7.59,14.77-7.68,19.12-1.2a18.26,18.26,0,0,1,3.39,8.81C235.14,869.15,235.19,871.07,235.31,873.57Zm-17.93,1.28a24.27,24.27,0,0,0,.39,5.37,13.87,13.87,0,0,0,2.72,4.93,3,3,0,0,0,3.45.78,5.26,5.26,0,0,0,3.65-4,34.06,34.06,0,0,0,0-15.2,17.42,17.42,0,0,0-1.4-3.53,14.66,14.66,0,0,0-1.05-1.6c-.86-1.34-4.1-1.28-5,0C217.81,864.94,217.58,868.75,217.38,874.85Z"/><path d="M549.91,356.81c0,4.91-.48,9.19-2.42,13.35-3.38,7.27-13.33,8.74-19,2.68a13.26,13.26,0,0,1-3.86-8.45,102.36,102.36,0,0,1-.11-11.35,26.24,26.24,0,0,1,5.11-14,5.3,5.3,0,0,1,1.38-1.29c4.11-2.69,10.77-1.85,13.93,1.73a16.43,16.43,0,0,1,4.18,8.35C549.56,351,549.68,354.12,549.91,356.81Zm-7.27-.57c-.29-4,.29-7.21-1.31-10.2a2.88,2.88,0,0,0-3-1.77c-2.68.2-5.13,2-5.79,4a32.24,32.24,0,0,0-.72,15.12,8.56,8.56,0,0,0,3,4.73c1.26,1.21,4.08,1.24,5-.06a8.54,8.54,0,0,0,1.91-3.22C542.25,361.75,542.41,358.57,542.64,356.24Z"/><path d="M285.17,725c.13-2.27.05-.38-.1,1.5a15.47,15.47,0,0,1-3.59,8.54c-2.5,3.18-5.65,5-9.77,4.34-4.68-.8-8.2-3.39-9.52-8-2.27-8-2.91-16.08-.35-24.17a12.51,12.51,0,0,1,7.52-8,8.34,8.34,0,0,1,8.84,1.23,17.76,17.76,0,0,1,6.94,12.88C285.32,715.8,285.17,718.32,285.17,725ZM267,720c.05.88.11,2.14.2,3.39a5.54,5.54,0,0,0,.29,1.84,38.34,38.34,0,0,0,2.52,5c1.17,1.83,5.45,1.44,6.45-.5,3.39-6.56,3.24-13.22.45-19.92-.53-1.26-3.41-3.27-4.43-2.94a6.8,6.8,0,0,0-4.18,3.53C267,713.32,266.92,716.5,267,720Z"/><path d="M702,450.82a53.2,53.2,0,0,1-1.88,16.52,9.35,9.35,0,0,1-6.53,6.26c-4.72,1.53-10.83-1.27-12.76-5.6-3.15-7-4.6-14.35-3.43-22.07a17.51,17.51,0,0,1,3.72-8.52,11.35,11.35,0,0,1,15.23-2.28,10.17,10.17,0,0,1,3.52,4.31,14.68,14.68,0,0,1,1.06,3.61C701.41,446.16,701.78,449.28,702,450.82Zm-5.67,4c-.33-2.52-.66-5.62-1.17-8.69-.32-1.91-1.62-3.33-2.9-4.71-1.6-1.73-5.4-.94-6.27,1.31a14.28,14.28,0,0,0-.83,1.66,35.65,35.65,0,0,0-.06,16.78,6.85,6.85,0,0,0,1.84,3.17,5.1,5.1,0,0,0,3.14,1.69,5.42,5.42,0,0,0,3.1-1.86,8.44,8.44,0,0,0,1.82-3.22C695.55,459.15,695.8,457.27,696.32,454.8Z"/><path d="M584.39,813.38c-.1,1.83-.14,3.73-.32,5.63a15.5,15.5,0,0,1-4.94,10c-4.51,4.36-14.4,3.94-17.22-4.15-2.58-7.38-3.46-14.83-1.06-22.44a27.64,27.64,0,0,1,1.33-3.56,11.11,11.11,0,0,1,8.78-6.53c4.22-.62,9.07,2.23,10.81,6.14.77,1.73,1.33,3.55,1.93,5.35a6.91,6.91,0,0,1,.31,1.87C584.16,808.22,584.26,810.76,584.39,813.38Zm-6.78-1.1c-.3-2.7-.56-5.21-.88-7.71a16.65,16.65,0,0,0-.56-1.78,4.44,4.44,0,0,0-4.46-2.6A3.91,3.91,0,0,0,569,802.6a22.25,22.25,0,0,0-.06,18.35c.83,1.88,2.05,2.68,4.41,2.58,1.57-.07,3.29-2,3.51-3.89C577.11,817.14,577.36,814.63,577.61,812.28Z"/><path d="M642.44,845.94c.32-3.43.45-6.59,1-9.68a21.64,21.64,0,0,1,1.88-5.32,10.37,10.37,0,0,1,10.55-6.39c4,.26,8.48,4.11,9.5,8.05a49.06,49.06,0,0,1,.35,22.48c-1,4.74-3.84,7.75-8.25,9.49a8,8,0,0,1-7.22-.66,13.62,13.62,0,0,1-6.51-8.89A89.5,89.5,0,0,1,642.44,845.94Zm7.35-3.7c0,4,0,5.23,0,6.49a7.92,7.92,0,0,0,.18,1.89c.32,1.21.71,2.41,1.12,3.59s3.29,3.28,4.38,3.24,3.92-2.32,4.26-3.5c.17-.61.39-1.21.52-1.82a35.89,35.89,0,0,0,.17-13.23,16.46,16.46,0,0,0-2.24-5.16c-1.1-2-5.24-1.79-6.36.21a11.15,11.15,0,0,0-1.46,3.44C649.93,839.87,649.78,842.4,649.79,842.24Z"/><path d="M235.37,784.87c-.14,2.57-.15,5.12-.44,7.63a19.72,19.72,0,0,1-4.55,10.28c-3.45,4.21-11.66,4.34-15.39.24a10.9,10.9,0,0,1-2.16-3.07,38,38,0,0,1-.91-26.07c1.63-5.16,5.7-8,11.54-7.92a9,9,0,0,1,5.28,1.87,15,15,0,0,1,5.81,9.51C235,779.82,235.11,782.37,235.37,784.87Zm-7.17,5.66c0-5.17.09-7.69,0-10.2a19.72,19.72,0,0,0-.86-3.65c-.3-1.14-3.31-3.5-4.36-3.16a7.48,7.48,0,0,0-3.1,1.82,7.86,7.86,0,0,0-1.87,3.22,28,28,0,0,0-.16,14.88,7.62,7.62,0,0,0,3.42,4.28c1.73,1.23,5.83-.36,6.19-2.39C227.85,792.86,228.22,790.39,228.2,790.53Z"/><path d="M535.75,787.48c-.17,2.68-.3,5.2-.51,7.72-.54,6.43-4.23,10.41-10.08,12.44a7.69,7.69,0,0,1-7.19-1.11,13.52,13.52,0,0,1-5.31-7.62,45.34,45.34,0,0,1-.53-20.69,15.13,15.13,0,0,1,4.65-8.09c5.32-5,15.05-2.52,17.18,4.39a20.79,20.79,0,0,1,1,3.65C535.31,781.31,535.5,784.46,535.75,787.48Zm-17.4,1.69c.16,1.27.46,3.78.83,6.29a15.59,15.59,0,0,0,.57,1.8c.41,1.39,2.87,3.32,4.26,3.32s3.76-1.83,4.29-3.28c.22-.6.52-1.17.68-1.78a24.32,24.32,0,0,0-2.09-18.44,4.83,4.83,0,0,0-3.1-1.75,3,3,0,0,0-3.17,1.49C518.63,780.24,518.53,784.08,518.35,789.17Z"/><path d="M923.91,876.73c-.23,2.45-.37,5-.74,7.45-.59,4-2.9,6.85-6.18,9.05-4.66,3.12-9.9,2.13-13.25-2.46a15,15,0,0,1-3.09-6.79,69.11,69.11,0,0,1,0-18.84,15.13,15.13,0,0,1,3.1-6.8c3.7-5.08,13.42-5.6,17.54,1.67a14.91,14.91,0,0,1,1.75,5.35C923.54,869.1,923.65,872.88,923.91,876.73Zm-16.68-7.09c0,5.81-.08,8.36,0,10.91a25.79,25.79,0,0,0,.71,3.75c.24,1.23,3.12,3.73,4.24,3.39a7.55,7.55,0,0,0,3.18-1.79,7.38,7.38,0,0,0,1.9-3.23,28.79,28.79,0,0,0-.59-16.94,17.59,17.59,0,0,0-1.88-3.31c-.78-1.26-4.29-1.54-5.13-.36a9.38,9.38,0,0,0-1.87,3.25A24,24,0,0,0,907.23,869.64Z"/><path d="M597.66,895.61c-.26,5.73-.52,10.2-2.1,14.45-1.41,3.8-3.84,6.58-8.09,7.23a10.27,10.27,0,0,1-10.14-3.9,18.12,18.12,0,0,1-3.71-8.71,45,45,0,0,1,.67-17.11,18,18,0,0,1,1.38-3.56,10.76,10.76,0,0,1,10.77-6.4c4.34.19,8.93,3.79,9.71,7.89C596.85,889.25,597.28,893.05,597.66,895.61Zm-17.37.81c.11,1.87.18,4.42.48,6.94a17.71,17.71,0,0,0,1.07,3.63c.39,1.15,3.46,3.17,4.61,2.74a7.39,7.39,0,0,0,3-2.19,8.1,8.1,0,0,0,1.67-3.37,30.78,30.78,0,0,0,0-13.27,18.23,18.23,0,0,0-1.37-3.54,3.4,3.4,0,0,0-1.08-1.55,8.24,8.24,0,0,0-3.27-1.32c-1.35-.11-2.31.87-3,2C580.57,889.38,580.7,892.6,580.29,896.42Z"/><path d="M1057.55,421.6c.37,10.65-4.82,15.5-11.89,15a9.42,9.42,0,0,1-6.61-3.12,32.61,32.61,0,0,1-7.8-16.82,14.5,14.5,0,0,1,.64-7.41,15.4,15.4,0,0,1,.79-1.7,6.41,6.41,0,0,1,8-2.87,33,33,0,0,1,14.25,11.86C1056.75,419.23,1057.57,422.16,1057.55,421.6Zm-8,1.94c-.21-4.07-2.34-6.82-5.94-8.51a2.33,2.33,0,0,0-1.81-.06,3.09,3.09,0,0,0-1.78,2.91,13.33,13.33,0,0,0,3.4,8.33,3.91,3.91,0,0,0,3.33,1.31C1048.28,427.43,1049.72,425.4,1049.52,423.54Z"/><path d="M797,915.52a27.08,27.08,0,0,1-3.75-.52c-1.21-.33-2.67-1.55-2.36-2.52,2-6.16,2.08-12.46,2-18.8a16.63,16.63,0,0,0-2.9-8.86c-1.64-2.58-.53-5,2-6.4a21.46,21.46,0,0,1,3.44-1.59c1.46-.51,4.1,1.35,4.13,2.87.15,6.35.45,12.7.39,19a36.46,36.46,0,0,0,2.27,13c.58,1.59-1.27,3.55-3.24,3.6C798.29,915.38,797.66,915.47,797,915.52Z"/><path d="M719,881.22c-.12-1.91-.15-3.84-.37-5.74a10.84,10.84,0,0,0-2.36-5.11c-2.46-3.38-2.18-5.44.77-8.15a19.45,19.45,0,0,1,3.12-2.12c1.2-.73,4.39,1.07,4.54,2.47.2,1.9.54,3.79.6,5.7.18,5.75.18,11.51.41,17.26a15.09,15.09,0,0,0,2.48,7.17,2.84,2.84,0,0,1-1.37,4.32,22.39,22.39,0,0,1-9.5.31c-2.17-.32-3.52-2.27-2.31-3.69A16.84,16.84,0,0,0,719,881.22Z"/><path d="M471.29,781.79c0-2.4,0-6.18,0-10a15.28,15.28,0,0,0-3-8.76c-1.73-2.46-1.15-4.72,1.1-6.47a20.93,20.93,0,0,1,3.2-2c2.25-1.14,5.51.44,5.87,2.64,1.05,6.27.53,12.59.54,18.88a38.18,38.18,0,0,0,2,13c.65,1.83-.92,3.57-3.06,3.63-1.88.06-3.76,0-5.64,0s-3-2-2.62-4.06c.24-1.23.64-2.44.95-3.66C470.77,784.4,470.87,783.78,471.29,781.79Z"/><path d="M613,851.61c-1.33-.32-3.2-.68-5-1.29-.38-.12-.74-1.18-.63-1.71.51-2.42,1.52-4.77,1.73-7.2.33-3.79.18-7.62.19-11.44,0-3.31-1.38-6.13-3.16-8.82-1.1-1.69-.85-4,.54-5a28.46,28.46,0,0,1,4.91-2.81c1.33-.6,4.24,1.27,4.4,2.63.22,1.88.7,3.75.75,5.63.14,5.09.23,10.19.1,15.28-.1,4,1.44,7.41,3.34,10.76.89,1.59-.48,3.18-2.87,3.5C616.06,851.32,614.79,851.42,613,851.61Z"/><path d="M615.93,414.28c.23,5.65.9,11.3-.26,16.93-.39,1.87-2.57,3.65-3.92,2.76a7.13,7.13,0,0,1-2.5-2.44,9,9,0,0,1-.67-3.68c-.08-2.51,0-5,0-7.54,0-1.89.09-3.78.26-5.65.31-3.46-1.39-5.91-3.67-8.25-1.73-1.78-1.51-5.27.36-6.61a31.38,31.38,0,0,1,4.92-2.64c1.48-.7,4.34.73,4.58,2.14a48,48,0,0,1,.84,5.55C616,408,615.93,411.13,615.93,414.28Z"/><path d="M405,772.19c-.27,5-.46,10-.87,15.08a2.39,2.39,0,0,1-2.51,2.18,2.78,2.78,0,0,1-3.06-1.74,11.14,11.14,0,0,1-.9-3.6c-.2-5.08-.23-10.16-.4-15.24a14.24,14.24,0,0,0-2.55-7c-1.46-2.37-.68-4.53,1.7-6.62a16.19,16.19,0,0,1,3.16-2.06,3.33,3.33,0,0,1,4.48,1.83C405.59,760.66,404.4,766.4,405,772.19Z"/><path d="M669.08,914.72c-.13,5-.15,10.09-.43,15.13-.08,1.48-1.33,2-2.65,2a2.86,2.86,0,0,1-3-1.72,10.19,10.19,0,0,1-.85-3.58c-.14-5.08-.21-10.15-.17-15.22,0-3.35-1.6-6-3.15-8.73-.86-1.51-.11-3.81,1.44-5a14.11,14.11,0,0,1,1.61-1c3.8-2,6.62-.87,6.81,2.85.13,2.54.26,5.07.31,7.6s0,5.08,0,7.62Z"/><path d="M696.47,848.58c.28,4.59.58,9.65.88,14.72.08,1.26-2.74,3.3-4.2,3.05-2.1-.37-3.4-1.72-3.43-3.57-.07-5.72-.11-11.43-.35-17.14a10.52,10.52,0,0,0-2.81-6.88c-1.31-1.41-2-3.25-1.09-5.12A7.62,7.62,0,0,1,693,829c1.59,0,2.45.52,2.7,2.1a25.78,25.78,0,0,1,.77,3.69C696.53,839.2,696.47,843.65,696.47,848.58Z"/><path d="M503.87,486.77c0,5.05,0,10.11,0,15.17,0,.56-.56,1.11-.87,1.66a2.67,2.67,0,0,1-3.14,1.22,3,3,0,0,1-2.56-2.28c-1.16-5.61-.38-11.33-.6-17a13.58,13.58,0,0,0-3.31-8.6c-1.49-1.78-.41-4.78,1.58-6.67a7.8,7.8,0,0,1,5.05-2.15,2.72,2.72,0,0,1,2.95,1.69,12.33,12.33,0,0,1,.81,3.67c.1,4.42,0,8.85,0,13.28Z"/><path d="M845.75,847.1c-.36,4.35-.77,8.71-1.06,13.07-.11,1.76-.82,2.35-2.47,1.59a2.85,2.85,0,0,1-1.26-1.19,11,11,0,0,1-1.32-3.46c-.49-4.35-.76-8.72-1.17-13.08-.3-3.28-.2-3.42-4.12-5.68-1.38-.8-2-1.26-1.66-2.72a3.86,3.86,0,0,1,2-2.9,10,10,0,0,1,5.36-1.32c2.93.24,5,1.93,5.09,4.38.05,3.76,0,7.52,0,11.28Z"/><path d="M269.49,663.31c-.2,2.77-.76,3.94-2,4.51a18.67,18.67,0,0,1-3.6.94c-2.43.56-5.34-2.41-4.6-4.66,1.65-5,1.32-10,1.52-15.1a16.68,16.68,0,0,0-4.35-12.12,2.83,2.83,0,0,1,.23-3.47,9.73,9.73,0,0,1,6.17-4.1c.94-.14,2.15.92,3.08,1.64a2.77,2.77,0,0,1,.63,1.76c.26,2.53.38,5.07.66,7.59C268.12,648.46,265.91,656.89,269.49,663.31Z"/><path d="M960.76,876.84c-.28,3.1-.14,5-1.38,6.55a2.59,2.59,0,0,1-3.15.86c-2.7-1.64-3.43-5-5.51-7.21-1.32-1.43-1.05-3.43.11-5a9.41,9.41,0,0,1,4.37-3.18c1.55-.58,4.27.59,4.55,2C960.21,873.29,960.56,875.68,960.76,876.84Z"/><path d="M316.27,759.64c.21-1.72.29-2.95.53-4.14a7.14,7.14,0,0,1,.81-1.67c1,.69,2.29,1.18,2.86,2.11a18,18,0,0,1,2.53,12.5,4.86,4.86,0,0,1-.6,1.7c-.3.53-.73,1.31-1.17,1.35a3.34,3.34,0,0,1-3.14-1.49,4.09,4.09,0,0,1-.84-1.61C316.85,765.32,316.55,762.23,316.27,759.64Z"/><path d="M848.31,909.29c.16.61.66,1.51.43,1.78-1.3,1.49-3.13,1.69-5,1.87a11.66,11.66,0,0,0-3.55,1.17c-1.7.74-3.11,2.12-5.15,2.09a3.4,3.4,0,0,1-3.12-1.66,2.34,2.34,0,0,1,.12-1.75c2.29-5.4,6.84-7.94,11.91-6.72C845.65,906.48,846.77,907.31,848.31,909.29Z"/><path d="M344.76,773.71a5.35,5.35,0,0,1-1.75-.42c-.51-.32-1.21-1-1.14-1.44.68-4.65,3.38-8.2,6.6-11.37a2.7,2.7,0,0,1,3.41-.11,2.54,2.54,0,0,1,1,3.42,25,25,0,0,1-4.93,8.12,6.63,6.63,0,0,1-1.46,1.24A8.47,8.47,0,0,1,344.76,773.71Z"/><path d="M299.72,782.05c-.18,1.43-1,2.41-2.13,2.06-3.66-1.07-6.75-3-8.36-6.7a2.33,2.33,0,0,1-.1-1.66c.59-1.39,1.7-1.74,3.14-1.26,3.07,1,5.15,3.32,7.07,5.76C299.68,780.68,299.6,781.44,299.72,782.05Z"/><path d="M370.61,783c-.81,3.61-5,6.85-8.24,6.33a2.54,2.54,0,0,1-1.72-4.12c2-2.71,4.38-4.67,7.82-4.74C369.78,780.44,370.5,781.62,370.61,783Z"/><path class="cls-2" d="M955.8,813.93c-13.43,0-26.87.31-40.27-.95-7.63-.73-15.25-1.62-22.88-2.48-2.54-.28-5-.85-7.6-1-16.62-1.15-32.95-4.3-49.36-7-6.94-1.13-13.94-1.9-20.86-3.12-15.72-2.79-31.39-5.85-46.86-9.89-14.83-3.87-29.85-7-44.7-10.85-16.09-4.19-32-9.09-47.89-13.81-14.69-4.36-29.19-9.4-43.63-14.56-11.43-4.09-22.67-8.71-33.93-13.26-23.71-9.59-47.22-19.68-70-31.33-14.78-7.56-29.75-14.85-43.49-24.34-4.18-2.89-8.89-5-13.35-7.53-11.18-6.26-22.08-12.95-31.29-22a30.62,30.62,0,0,1-4.61-6,5.63,5.63,0,0,1,0-5.43,2.36,2.36,0,0,1,1.51-1.12,10.58,10.58,0,0,1,3.71-.2c5.66,1,11.28,2.25,16.94,3.3a64.45,64.45,0,0,0,15.25,1.37c2.19-.13,4.27-1.28,4.25-2.92a7.7,7.7,0,0,0-.55-3.59c-.94-1.64-2.42-3-3.53-4.51s0-4.22,1.74-4.37a15.23,15.23,0,0,1,1.89-.23c2.54.08,5.09.2,7.63.34a5.72,5.72,0,0,1,4.13,3.5c.52,2.5.95,5,1.49,7.53.68,3.16,1.76,6.3,4,8.57,3.52,3.5,3.81,7.85,4.13,12.3a5.63,5.63,0,0,0,3,4.64c9.76,4.76,19.64,9.26,29.43,13.94,11.54,5.51,23.36,10.4,35,15.65,18.86,8.49,12.4,7.59,32.84,3.07,15-3.3,30.08-6.05,44.77-10.58,3.35-1,6.32.13,8.75,2.48,4.6,4.44,9.53,8.63,13.54,13.56,4.91,6,11,10.66,16.75,15.73,4.81,4.27,10.75,6.93,16.78,9.11,6.6,2.39,13.28,4.63,20,6.61,33.12,9.7,66.21,19.49,99.52,28.55,17.88,4.86,35.51,10.64,53.25,16,3.06.92,6.08,2,9.2,2.67a31.89,31.89,0,0,0,7.6.76c2.52-.08,5-.62,6.9-2.76,1.66-1.92,3.46-3.73,5.21-5.59a3.31,3.31,0,0,1,3.54-.93c2.45.68,5,1.2,7.38,2,17,5.6,34,11.28,51,16.88,13.35,4.4,26.74,8.68,40.09,13.09a37.16,37.16,0,0,1,5.12,2.49,2.35,2.35,0,0,1,1.31,3.22,1.9,1.9,0,0,1-1.26,1,177.14,177.14,0,0,1-26.73,2.06C972.43,814,964.11,813.93,955.8,813.93Z"/><path class="cls-2" d="M614.57,470.33h3.84c11.35-.05,21.21,4.26,30.2,10.73a104,104,0,0,1,10.09,8.83c3.28,3.08,6.2,6.47,7.78,10.82a26.06,26.06,0,0,0,1.67,3.45c6.72,12.48,7,25.76,4.39,39.21a50.21,50.21,0,0,1-8.47,19.19,68,68,0,0,1-11.61,12.73,47.4,47.4,0,0,1-26.06,11.1,76.5,76.5,0,0,1-21-.34,59.09,59.09,0,0,1-32.16-15.88c-1.83-1.77-3.34-3.87-5.08-5.74a39.14,39.14,0,0,1-9.4-18.61,103.56,103.56,0,0,1-2.15-15.17c-1.15-16.29,4.75-30.07,15.64-41.87a60.08,60.08,0,0,1,19.9-14.73,38.7,38.7,0,0,1,14.79-3.64c2.56-.07,5.12,0,7.68,0ZM626,555c6.35.63,11.72-1.44,17.09-3.45,4.37-1.63,7.45-4.79,9.82-8.68a7.57,7.57,0,0,0,.91-5.49,2.53,2.53,0,0,0-1.22-1.41,2.13,2.13,0,0,0-1.57-.16c-3.21,1-4.81,4-7.22,6a23.1,23.1,0,0,1-13.91,5.57c-3.14.18-6.33-.78-9.42.28a2.1,2.1,0,0,0-1.53,2.87,5.22,5.22,0,0,0,3.74,3.85C624,554.71,625.21,554.85,626,555Zm-25.62-29.34c-.83-.1-1.46-.19-2.1-.24s-1.27,0-1.9-.07a3,3,0,0,0-3,1.77,4,4,0,0,0,2,4.66c6.4,2,12.45,1.86,17.75-2.94a6.21,6.21,0,0,0,2-3.18c.59-2.26-.12-5.12-1.39-5s-2.55.18-3.34.85C607.43,524,604.45,526.3,600.41,525.65Zm56.49-17.28a3.14,3.14,0,0,0-1.71-3.1,2.25,2.25,0,0,0-1.82.31,9.84,9.84,0,0,0-2.84,2.37,9.06,9.06,0,0,1-7.86,4.47,19.76,19.76,0,0,0-3.77.27,2.76,2.76,0,0,0-2.42,2.28,3.51,3.51,0,0,0,1.85,3.14,7.89,7.89,0,0,0,5.3,1.63,17.45,17.45,0,0,0,8.73-3.43A10.31,10.31,0,0,0,656.9,508.37Z"/><path class="cls-2" d="M322.9,529.9c-2.29,1.12-4.6,2.21-6.85,3.39-1.87,1-5.83-.36-6.53-2.24-2.66-7.17-5.46-14.29-7.9-21.54-3.86-11.48-7.47-23.05-11.18-34.59-1.26-3.92.11-7.13,3.78-9.83a74.89,74.89,0,0,1,14.91-8.54,59.28,59.28,0,0,1,22.21-5.28c5.73-.13,11.45-.72,17.18-1a73.69,73.69,0,0,0,39.3-13.37c2.09-1.43,3.92-3.33,6.5-3.94a3.6,3.6,0,0,1,3.44.95,8.72,8.72,0,0,1,2,3.18q9.76,29,19.4,58.05a8.36,8.36,0,0,1,.23,1.89,6.61,6.61,0,0,1-1.69,5.26c-8.57,9.16-19.41,14.3-31.37,17.31a36.93,36.93,0,0,1-7.57,1c-6.37.25-12.75.48-19.13.42-9-.09-17.77,1.72-26.38,4.09-3.64,1-7,3-10.52,4.49Z"/><path class="cls-2" d="M502.09,602.19c-1.5-9.4-3-18.8-4.5-28.2-.28-1.77,2.44-5.23,4.31-5.65.62-.14,1.2-.45,1.82-.53,15.11-2,30-5.3,45-7.67A5.23,5.23,0,0,1,554.4,566c-.13.62-.12,1.27-.28,1.88-.5,1.84-1,3.68-1.61,5.48-1.46,4.19-3,8.35-4.51,12.54-5.46,15.58-10.34,31.33-14.29,47.36a4.43,4.43,0,0,1-2.58,2.54,56.65,56.65,0,0,1-18.67,3.1c-1.54,0-4-1.65-4.41-3a129,129,0,0,1-3.93-20.54c-.5-4.42-1.15-8.81-1.73-13.21Z"/><path class="cls-2" d="M545.8,651.2a126.19,126.19,0,0,0,28.51-2c10-1.93,20.08-3.4,30.13-5a19.44,19.44,0,0,1,3.81-.28,6.92,6.92,0,0,1,5.16,2.08c5.28,6.36,11.45,12,16.1,18.86a3.64,3.64,0,0,1-2.26,5.8c-2.47.62-4.92,1.36-7.42,1.84a309.42,309.42,0,0,0-31.47,7.91,17.53,17.53,0,0,1-13-.7c-15.65-7.1-31.08-14.66-46.42-22.4-1-.52-1.69-1.79-2.43-2.78-1.14-1.54.12-2.4,4-2.6C535.63,651.63,540.71,651.43,545.8,651.2Z"/><path class="cls-2" d="M1011.07,798.79c-.52.36-1.18,1.14-1.55,1q-24.46-7.7-48.88-15.54-10-3.18-20-6.32c-10.9-3.43-21.69-7.13-32.25-11.51-1.75-.72-3.07-3.05-2.55-4.56,1.23-3.59,2.61-7.14,3.66-10.79s1.75-7.36,2.68-11c.14-.52.76-1.31,1.15-1.31a8.54,8.54,0,0,1,3.72.56c25.53,12.85,50.62,26.49,74.56,42.16A132.93,132.93,0,0,1,1008.42,794a13.43,13.43,0,0,1,2.2,3A6.42,6.42,0,0,1,1011.07,798.79Z"/><path class="cls-2" d="M817,724.57c-4.53-1.45-8.77-2.75-13-4.16q-18.94-6.3-37.87-12.67a2.38,2.38,0,0,1-1.74-3,3.48,3.48,0,0,1,2.22-2.65c.58-.26,1.2-.41,1.8-.62,6.56-2.39,13.05-5,19.69-7.09,4.17-1.34,8-4.88,12.55-3.61,4.19,1.18,8,3.65,12,5.73a10.88,10.88,0,0,1,4.92,5.64c2.6,6.46,5.09,13,7.55,19.5a2.55,2.55,0,0,1-1.14,3.26,3,3,0,0,1-1.65.61C820.4,725.26,818.54,724.86,817,724.57Z"/><path class="cls-2" d="M795.87,521.57c5.91.25,12.2.51,18.48.81,1.76.08,3.39,2.6,2.73,4.08-4.38,9.88-10.63,18.5-17.83,26.47-1,1.12-4.14,1.26-5.19.25-.45-.43-1.07-.71-1.47-1.17a285.25,285.25,0,0,1-19.84-25.22,2.48,2.48,0,0,1,.53-3.46c.42-.39,1-.91,1.44-.93C781.64,522.08,788.56,521.84,795.87,521.57Z"/><path class="cls-2" d="M481.44,723.54c-3.76-.2-7.6,0-10.87-2.48a2.59,2.59,0,0,1-1.11-3.26,5,5,0,0,1,.71-1.7c5.91-5.78,9.93-13,15.13-19.36a2.89,2.89,0,0,1,3.36-1,274.19,274.19,0,0,1,27,13.69c1.46.82,1.41,3.72,0,4.69-.52.35-.88,1-1.43,1.23-4.07,1.71-8.12,3.52-12.28,5C493.18,723.35,490.83,723.63,481.44,723.54Z"/><path class="cls-2" d="M882.08,745.36a16,16,0,0,1-1.73-.69c-16.46-8.54-16.76-7.78-21-26.82a2.81,2.81,0,0,1,1.39-3.26,2.45,2.45,0,0,1,1.8-.21c12.69,4.31,24.66,10.31,36.69,16.14,1,.48,1.61,1.92,2.2,3,.1.19-.7,1.06-1.23,1.35-3.33,1.88-6.77,3.56-10,5.54C887.52,742.07,885.41,744.67,882.08,745.36Z"/><path class="cls-2" d="M841.77,516.26a14.59,14.59,0,0,1-3.09,8.85,16.85,16.85,0,0,1-9.08,6.6c-1.07.28-2.44-.25-3.59-.64-1.43-.48-1.67-1.62-.84-3.07,1-1.65,2-3.26,2.84-5a20.94,20.94,0,0,0,1.38-3.44c.46-1.47-.21-2.36-1.64-3-3.59-1.68-7.56-.86-11.22-1.84a10,10,0,0,1-3.09-2c-1.22-.92-.85-3.17,1-5s3.53-3.82,5.7-5C829.62,497.58,842.07,505.42,841.77,516.26Z"/><path class="cls-2" d="M612.07,599.7c-.39.49-.67,1.22-1.18,1.45-10.75,4.82-26.28,10.17-32.32,11.21-2,.35-4.19-1.45-3.64-3.08,2.05-6,3-12.37,6.23-17.94a2.94,2.94,0,0,1,3.28-1.31c4.87,1.44,9.72,3,14.53,4.57,4.18,1.41,8.85,1.22,12.67,3.78C611.94,598.59,611.94,599.25,612.07,599.7Z"/><path class="cls-2" d="M722.85,636.17c1.19-.41,2.38-1.19,3.55-1.16,4.4.11,8.79.43,13.18.76A5.81,5.81,0,0,1,744,639c3.5,6,6.79,12.08,10.11,18.15,1.17,2.13-1,5.36-3.6,5.17a19.38,19.38,0,0,1-3.62-.66,3.82,3.82,0,0,1-1.58-1Q734.59,650,723.89,639.28a3.65,3.65,0,0,1-.63-3.5Z"/><path class="cls-2" d="M799.55,573.14c.06-.84-.56-4,.89-7a2.26,2.26,0,0,1,3-1.42c5.8,1.62,8.64,5.33,8.28,10.77s-2.32,9.69-7,12.59c-1.49.92-4.18,0-4.43-1.53a29.33,29.33,0,0,1-.7-3.65C799.48,580.41,799.55,577.9,799.55,573.14Z"/><path class="cls-2" d="M791.33,578.77c0,2.49.07,5,0,7.47A2.88,2.88,0,0,1,789.4,589a3.22,3.22,0,0,1-3.5-.5c-5.76-4.68-6.86-13.49,0-19.42a2.87,2.87,0,0,1,3.48-.53,3.11,3.11,0,0,1,1.85,2.79c.2,2.48.32,5,.47,7.46Z"/><path class="cls-2" d="M488.34,562.87c.16,1.88-.11,3.92.54,5.61,3,7.78,3.3,15.94,3.87,24.08.18,2.5.76,5,1.15,7.44l.3-.4a10,10,0,0,1-4.65-7.76c-.45-5.63-.89-11.24-2.91-16.65-1.1-3-.82-6.22-.34-9.34a3.68,3.68,0,0,1,2.44-2.53Z"/><path class="cls-2" d="M453.52,627.4c1.58.39,3.38.77,5.13,1.31a2.56,2.56,0,0,1,1.4,1.16c.53,1,1.35,2.37,1.08,3.28a3.9,3.9,0,0,1-2.69,2.09c-3.8.66-7.29-.58-10.69-2.22-1.25-.6-2.14-1.34-2.2-2.75,0-1,.77-1.88,2.2-2.18C449.56,627.72,451.42,627.64,453.52,627.4Z"/><path class="cls-2" d="M493.9,600c2.07,4.65,2,9.67,2.45,14.59.21,2.5.56,4.91,2.06,7l0-.12a18,18,0,0,1-1.54-1c-1.39-1.16-2.93-2.16-3.18-4.27-.64-5.52-1.12-11,.49-16.53C494.2,599.6,493.9,600,493.9,600Z"/><path class="cls-2" d="M519.46,556.22a8,8,0,0,1,1.77.6c-.23.39-.43,1.09-.7,1.11-1.89.18-3.8.27-5.7.27-.28,0-.56-.69-.83-1.05C515.67,556,517.56,556,519.46,556.22Z"/><path class="cls-2" d="M498.41,621.6c.35,4.24.72,8.47,1,12.71,0,.55,0,1.41-.38,1.64-1.29.84-1.68.19-1.73-1.65a55.55,55.55,0,0,1,1.05-12.78S498.41,621.6,498.41,621.6Z"/><path class="cls-2" d="M621.34,683.74c1-3.38,3.25-5,6.8-4.64a2.56,2.56,0,0,1,1.6.64c.69.77.06,1.47-1.61,1.78-2.41.44-4.9.61-7.1,2Z"/><path class="cls-2" d="M540.87,553.06c-.15.31-.23.82-.45.89a4.45,4.45,0,0,1-1.63.12,10.25,10.25,0,0,1-1.53-.35c.14-.31.3-.88.44-.88C538.76,552.85,539.81,553,540.87,553.06Z"/><path class="cls-2" d="M488.74,563.32c1.05-2.67,3.38-3,5.8-3.08.58,0,1.34-.16,1.74.13,1.47,1.1,1.12,1.59-.88,1.7-2.36.13-4.7.52-7,.8C488.34,562.87,488.74,563.32,488.74,563.32Z"/><path class="cls-2" d="M600.75,683.6c-.62,2.83-1,5.77-5,5.92a10.11,10.11,0,0,0-3.3,1.13,7,7,0,0,0-1.4,1.06l.29.17c.59-3,1.61-5.41,5.25-5.64a7.78,7.78,0,0,0,3.07-1.27c.46-.26.72-.89,1.07-1.35Z"/><path class="cls-2" d="M600.78,683.62c3.82.7,7.48-.59,11.21-1,3.16-.32,6.27-.39,9.29,1.05l-.25-.2c-6.7,2.72-13.48,2.17-20.28.11Z"/><path class="cls-2" d="M591.1,691.71c-1.71.14-3.43.16-5.11.46-1.47.27-2.37.13-2.51-.91,0-.23.62-.68,1-.8a3.43,3.43,0,0,1,1.71-.1c1.67.4,3.32.91,5.07,1.45C591.39,691.88,591.1,691.71,591.1,691.71Z"/><path class="cls-2" d="M540.13,676.23c-.16-.54-.14-1.34-.5-1.58-1.23-.8-2-1.86-1.53-2.1,1.25-.61,1.8.1,1.59,1.59a5.64,5.64,0,0,0,.28,1.69Z"/><path class="cls-2" d="M540,675.83c1.12.85,2,.75,2.66-.31-.42-.14-.9-.49-1.23-.38a3.91,3.91,0,0,0-1.27,1A2.36,2.36,0,0,1,540,675.83Z"/><path class="cls-2" d="M723.26,635.78l-1.49-.33c.87-1.3,1.24-1.06,1.09.72Z"/><path class="cls-2" d="M300.89,814.54c0,.31.16-1.59.44-3.48a15.8,15.8,0,0,1,5.6-9.72,31.83,31.83,0,0,1,9.73-6c8-3.05,16.32-2.15,22.52,5.17,1.23,1.45,2.5,2.88,3.74,4.33,1.56,1.8,1.68,2.07-1.11,4.28a5.12,5.12,0,0,0-2.25,4.8c.16,1.8,1.2,2.49,4,3a25.09,25.09,0,0,1,3.65.84,2.42,2.42,0,0,1,1.66,3,41,41,0,0,1-1.73,5.41c-1.12,2.87-4.07,3.58-5.89,1.48-1.25-1.43-2.25-3.1-3.6-4.43a6.77,6.77,0,0,0-3.25-1.78,28.79,28.79,0,0,0-11.4,0,14.29,14.29,0,0,0-5.12,2.4c-3.55,2.43-3.41,9.37-.08,11.69,2.67,1.87,5.8,2.54,8.64,3.94.53.27,1.3,1,1.23,1.36-.2,1-1.24,1.74-2.62,1.92-6.2.83-11.15-1.94-15.64-5.71a29.26,29.26,0,0,1-3.82-4.26C301.86,828.1,300.17,822.75,300.89,814.54Zm13.91-4a2.12,2.12,0,0,0-2.24,1.64c-.51,1.35-.11,2.41,1.26,2.81,1,.29,1.81-.4,2.24-1.59A2,2,0,0,0,314.8,810.54Z"/><path class="cls-2" d="M470,866c-3.62.2-5.93-1.91-7.51-4.74a22.81,22.81,0,0,1-3.08-12.73c.13-2.12,1.23-3.81,3.17-4.1a73,73,0,0,1,7.54-.6,4.12,4.12,0,0,0,3.32-1.51c.77-1,0-4.09-1.37-5-1-.7-2.28-1.11-3.35-1.77-2-1.26-2.34-3.18-.87-4.65.44-.45.81-1,1.26-1.39a8.29,8.29,0,0,1,1.49-1.16c12.1-6.62,24-3.35,32.4,6.37,6,6.92,6.91,14.77,4.15,23.11a29.18,29.18,0,0,1-4.62,8.22c-2.42,3.2-5.77,4.85-10,3.84l.35.57c.84-1.69,2-3.3,2.42-5.09a10.84,10.84,0,0,0,0-5.54,11.18,11.18,0,0,0-9.44-8.22,58,58,0,0,0-9.42-.34c-5,.12-9.91,3.05-8.14,9.74.49,1.82.77,3.7,1.15,5.55Zm26.36-28.34c.16-2-.33-3.89-1.69-4.75a2.71,2.71,0,0,0-3.29.34c-.39.33-.89.88-.85,1.29.2,2.4,2.58,4.69,4.67,4.46C495.62,839,496,838.13,496.35,837.66Z"/><path class="cls-2" d="M492.54,869.89a4.56,4.56,0,0,1-3.75,3.68,33.44,33.44,0,0,1-11.42.23,4.13,4.13,0,0,1-3.5-3.81l-.49.46h19.51Z"/><path class="cls-2" d="M473.87,870c-3.42-.63-3.42-.63-3.88-4l-.51.56a4.93,4.93,0,0,1,3.9,3.89Z"/><path class="cls-2" d="M1002.21,456.08c1.15.45,2.71.58,3.38,1.42a40.2,40.2,0,0,1,7.48,15.37,9,9,0,0,1-.56,5.57c-.93,2.34-4.62,3.17-6.35,1.37a21.08,21.08,0,0,1-2.54-2.82c-4.1-6.27-4.59-13.08-2.77-20.16C1000.94,456.48,1001.74,456.32,1002.21,456.08Z"/><path class="cls-2" d="M909.93,484.58c.5-4.07.85-7.24,1.34-10.39.08-.55.74-1,1.14-1.5.82-1,1.81-.88,2.93.44a12.81,12.81,0,0,1,2.34,3,28.64,28.64,0,0,1,1.49,18.73,5.42,5.42,0,0,1-4.19,3.28c-1.47,0-4.08-1.74-4.48-3.1a14.44,14.44,0,0,1-.88-3.7C909.59,488.77,909.84,486.22,909.93,484.58Z"/><path class="cls-2" d="M304.7,649.36c.4-2.39.74-4.86,1.24-7.29s3.33-5.11,4.89-4.65a5.57,5.57,0,0,1,3.55,4.05,24.24,24.24,0,0,1-1.24,18.24,4.22,4.22,0,0,1-2.77,2.18c-1,.09-2.24-.88-3-1.72a7.26,7.26,0,0,1-1.66-3.28C305.22,654.46,305,652,304.7,649.36Z"/><path class="cls-2" d="M752.36,891.75c0-4.92.29-8.07,1.78-11a4.15,4.15,0,0,1,2.77-2.2c1.46-.42,4,1.15,4.44,2.63a35.77,35.77,0,0,1,1.37,13.2,14.36,14.36,0,0,1-2.38,7.11,3.48,3.48,0,0,1-6-.39,16,16,0,0,1-1.35-3.52C752.56,895.11,752.43,892.57,752.36,891.75Z"/><path class="cls-2" d="M502.25,416.9a21.28,21.28,0,0,1-2.09,8.93,3.35,3.35,0,0,1-2.9,1.95c-2.21.16-3.91-.8-4.41-2.46-.18-.59-.58-1.12-.72-1.71a31.46,31.46,0,0,1,1.51-20.11c.34-.79,2.09-1.44,3.1-1.34a4.1,4.1,0,0,1,2.87,1.93A33.42,33.42,0,0,1,502.25,416.9Z"/><path class="cls-2" d="M394.38,605.13a42.2,42.2,0,0,1-1.12,6.08c-.3,1-1.62,1.82-2.63,2.45s-4.64-1.06-4.95-2.12a34.29,34.29,0,0,1,0-18.87c.32-1.21,3.54-3.18,4.65-2.56a6,6,0,0,1,2.67,2.28C394.61,596,394.29,599.87,394.38,605.13Z"/><path class="cls-2" d="M389.26,693.53a33.5,33.5,0,0,1,.61-4.61,7.42,7.42,0,0,1,1.78-3.26c.82-.91,2-2,3.06-2s2.07,1.28,3,2.08a3.65,3.65,0,0,1,1.12,1.53,31.47,31.47,0,0,1,.83,16.91,7.12,7.12,0,0,1-1.81,3.26,5.21,5.21,0,0,1-3.19,1.75,5.32,5.32,0,0,1-3.16-1.86,11.74,11.74,0,0,1-1.81-3.26,4.61,4.61,0,0,1-.44-1.85C389.22,700.3,389.26,698.39,389.26,693.53Z"/><path class="cls-2" d="M439.27,752.28c-.16,4.46-.18,7.63-1.51,10.62a4.33,4.33,0,0,1-2.65,2.5,4.16,4.16,0,0,1-4.82-1.74,12.16,12.16,0,0,1-1.56-3.43,33.1,33.1,0,0,1,.12-15.11,12.46,12.46,0,0,1,1.79-3.32c.87-1.34,3.89-1.62,5-.55a7.85,7.85,0,0,1,2.84,4.74C438.86,748.5,439.12,751,439.27,752.28Z"/><path class="cls-2" d="M227.72,641.41c-.09,4.54-.08,7.71-1.48,10.69-.6,1.27-3.36,3.57-4.31,3.14a7.58,7.58,0,0,1-4.58-5.58,32.43,32.43,0,0,1,.29-15.11,7.14,7.14,0,0,1,3.27-4.45,2.47,2.47,0,0,1,3.39.3,7.6,7.6,0,0,1,2.76,4.79C227.35,637.71,227.6,640.24,227.72,641.41Z"/><path class="cls-2" d="M217.38,874.85c.2-6.1.43-9.91,2.77-13.24.89-1.27,4.13-1.33,5,0a14.66,14.66,0,0,1,1.05,1.6,17.42,17.42,0,0,1,1.4,3.53,34.06,34.06,0,0,1,0,15.2,5.26,5.26,0,0,1-3.65,4,3,3,0,0,1-3.45-.78,13.87,13.87,0,0,1-2.72-4.93A24.27,24.27,0,0,1,217.38,874.85Z"/><path class="cls-2" d="M542.64,356.24c-.23,2.33-.39,5.51-.92,8.64a8.54,8.54,0,0,1-1.91,3.22c-1,1.3-3.78,1.27-5,.06a8.56,8.56,0,0,1-3-4.73,32.24,32.24,0,0,1,.72-15.12c.66-2.07,3.11-3.84,5.79-4a2.88,2.88,0,0,1,3,1.77C542.93,349,542.35,352.25,542.64,356.24Z"/><path class="cls-2" d="M267,720c-.09-3.52-.06-6.7,1.3-9.6a6.8,6.8,0,0,1,4.18-3.53c1-.33,3.9,1.68,4.43,2.94,2.79,6.7,2.94,13.36-.45,19.92-1,1.94-5.28,2.33-6.45.5a38.34,38.34,0,0,1-2.52-5,5.54,5.54,0,0,1-.29-1.84C267.12,722.16,267.06,720.9,267,720Z"/><path class="cls-2" d="M696.32,454.8c-.52,2.47-.77,4.35-1.33,6.13a8.44,8.44,0,0,1-1.82,3.22,5.42,5.42,0,0,1-3.1,1.86,5.1,5.1,0,0,1-3.14-1.69,6.85,6.85,0,0,1-1.84-3.17,35.65,35.65,0,0,1,.06-16.78,14.28,14.28,0,0,1,.83-1.66c.87-2.25,4.67-3,6.27-1.31,1.28,1.38,2.58,2.8,2.9,4.71C695.66,449.18,696,452.28,696.32,454.8Z"/><path class="cls-2" d="M577.61,812.28c-.25,2.35-.5,4.86-.78,7.36-.22,1.89-1.94,3.82-3.51,3.89-2.36.1-3.58-.7-4.41-2.58A22.25,22.25,0,0,1,569,802.6a3.91,3.91,0,0,1,2.74-2.41,4.44,4.44,0,0,1,4.46,2.6,16.65,16.65,0,0,1,.56,1.78C577.05,807.07,577.31,809.58,577.61,812.28Z"/><path class="cls-2" d="M649.79,842.24c0,.16.14-2.37.58-4.85a11.15,11.15,0,0,1,1.46-3.44c1.12-2,5.26-2.17,6.36-.21a16.46,16.46,0,0,1,2.24,5.16,35.89,35.89,0,0,1-.17,13.23c-.13.61-.35,1.21-.52,1.82-.34,1.18-3.11,3.46-4.26,3.5s-4-2.05-4.38-3.24-.8-2.38-1.12-3.59a7.92,7.92,0,0,1-.18-1.89C649.78,847.47,649.79,846.2,649.79,842.24Z"/><path class="cls-2" d="M228.2,790.53c0-.14-.35,2.33-.78,4.8-.36,2-4.46,3.62-6.19,2.39a7.62,7.62,0,0,1-3.42-4.28,28,28,0,0,1,.16-14.88,7.86,7.86,0,0,1,1.87-3.22,7.48,7.48,0,0,1,3.1-1.82c1.05-.34,4.06,2,4.36,3.16a19.72,19.72,0,0,1,.86,3.65C228.29,782.84,228.2,785.36,228.2,790.53Z"/><path class="cls-2" d="M518.35,789.17c.18-5.09.28-8.93,2.27-12.35a3,3,0,0,1,3.17-1.49,4.83,4.83,0,0,1,3.1,1.75A24.32,24.32,0,0,1,529,795.52c-.16.61-.46,1.18-.68,1.78-.53,1.45-2.91,3.27-4.29,3.28s-3.85-1.93-4.26-3.32a15.59,15.59,0,0,1-.57-1.8C518.81,793,518.51,790.44,518.35,789.17Z"/><path class="cls-2" d="M907.23,869.64a24,24,0,0,1,.59-4.33,9.38,9.38,0,0,1,1.87-3.25c.84-1.18,4.35-.9,5.13.36a17.59,17.59,0,0,1,1.88,3.31,28.79,28.79,0,0,1,.59,16.94,7.38,7.38,0,0,1-1.9,3.23,7.55,7.55,0,0,1-3.18,1.79c-1.12.34-4-2.16-4.24-3.39a25.79,25.79,0,0,1-.71-3.75C907.15,878,907.23,875.45,907.23,869.64Z"/><path class="cls-2" d="M580.29,896.42c.41-3.82.28-7,2-9.89.71-1.17,1.67-2.15,3-2a8.24,8.24,0,0,1,3.27,1.32,3.4,3.4,0,0,1,1.08,1.55,18.23,18.23,0,0,1,1.37,3.54,30.78,30.78,0,0,1,0,13.27,8.1,8.1,0,0,1-1.67,3.37,7.39,7.39,0,0,1-3,2.19c-1.15.43-4.22-1.59-4.61-2.74a17.71,17.71,0,0,1-1.07-3.63C580.47,900.84,580.4,898.29,580.29,896.42Z"/><path class="cls-2" d="M1049.52,423.54c.2,1.86-1.24,3.89-2.8,4a3.91,3.91,0,0,1-3.33-1.31,13.33,13.33,0,0,1-3.4-8.33,3.09,3.09,0,0,1,1.78-2.91,2.33,2.33,0,0,1,1.81.06C1047.18,416.72,1049.31,419.47,1049.52,423.54Z"/><path d="M626,555c-.82-.14-2.08-.28-3.31-.58a5.22,5.22,0,0,1-3.74-3.85,2.1,2.1,0,0,1,1.53-2.87c3.09-1.06,6.28-.1,9.42-.28a23.1,23.1,0,0,0,13.91-5.57c2.41-2,4-5,7.22-6a2.13,2.13,0,0,1,1.57.16,2.53,2.53,0,0,1,1.22,1.41,7.57,7.57,0,0,1-.91,5.49c-2.37,3.89-5.45,7-9.82,8.68C637.75,553.55,632.38,555.62,626,555Z"/><path d="M600.41,525.65c4,.65,7-1.62,10-4.15.79-.67,2.19-.74,3.34-.85s2,2.74,1.39,5a6.21,6.21,0,0,1-2,3.18c-5.3,4.8-11.35,4.94-17.75,2.94a4,4,0,0,1-2-4.66,3,3,0,0,1,3-1.77c.63,0,1.27,0,1.9.07S599.58,525.55,600.41,525.65Z"/><path d="M656.9,508.37a10.31,10.31,0,0,1-4.54,7.94,17.45,17.45,0,0,1-8.73,3.43,7.89,7.89,0,0,1-5.3-1.63,3.51,3.51,0,0,1-1.85-3.14,2.76,2.76,0,0,1,2.42-2.28,19.76,19.76,0,0,1,3.77-.27,9.06,9.06,0,0,0,7.86-4.47,9.84,9.84,0,0,1,2.84-2.37,2.25,2.25,0,0,1,1.82-.31A3.14,3.14,0,0,1,656.9,508.37Z"/><path d="M314.8,810.54a2,2,0,0,1,1.26,2.86c-.43,1.19-1.26,1.88-2.24,1.59-1.37-.4-1.77-1.46-1.26-2.81A2.12,2.12,0,0,1,314.8,810.54Z"/><path d="M473.38,870.45a4.93,4.93,0,0,0-3.9-3.89c-.38-1.85-.66-3.73-1.15-5.55-1.77-6.69,3.16-9.62,8.14-9.74a58,58,0,0,1,9.42.34,11.18,11.18,0,0,1,9.44,8.22,10.84,10.84,0,0,1,0,5.54c-.42,1.79-1.58,3.4-2.42,5.09Z"/><path d="M496.35,837.66c-.38.47-.73,1.29-1.16,1.34-2.09.23-4.47-2.06-4.67-4.46,0-.41.46-1,.85-1.29a2.71,2.71,0,0,1,3.29-.34C496,833.77,496.51,835.67,496.35,837.66Z"/></svg>