<svg id="Ebene_1" data-name="Ebene 1" xmlns="http://www.w3.org/2000/svg" viewBox="0 0 1200.08 1106.42"><defs><style>.cls-1{fill:#f9f9f9;}.cls-2{fill:#fff;}</style></defs><path class="cls-1" d="M251.45,526.54v-.18H372.38c4.48,0,9,0,13.44,0,1.91,0,3.81.27,5.72.41s4.82,2.49,5.44,4.79c2,7.4,4.06,14.79,5.83,22.24,3.4,14.31,6.43,28.71,10,43,4.32,17.38,7.93,34.92,12.07,52.34.44,1.85.56,3.79.83,5.68.35,2.46-1.12,5.62-3.07,6.53-1.73.81-3.45,1.63-5.21,2.38-7.65,3.25-15.55,6-22.91,9.81-14.76,7.64-29.38,15.61-43.13,25-8.44,5.78-16.88,11.63-24.78,18.11a533.3,533.3,0,0,0-45,41.79c-13,13.43-23.56,28.6-32.6,44.88a25.39,25.39,0,0,0-2.09,5.35,6.36,6.36,0,0,0,.83,5.49,26.77,26.77,0,0,0,5,5.7,174.43,174.43,0,0,0,22.55,14.55,100.62,100.62,0,0,0,21.17,8.95c22.28,6.4,44.94,9.93,68.22,7.79,4.46-.41,8.92-.77,13.37-1.24,11.45-1.23,22.89-2.52,34.34-3.75a48.12,48.12,0,0,1,7.65-.56,125.44,125.44,0,0,1,28.35,4.49c11.64,3.45,23.32,6.82,34.91,10.44,11,3.43,22.15,6.23,33.38,8.76,26.27,5.9,52.77,10,79.78,10,3.2,0,6.4.18,9.59.34,22.41,1.12,44.76-.3,67.1-1.79,1.28-.09,2.56-.19,3.82-.38,29.12-4.4,58-10,85.94-19.44q11.81-4,23.73-7.68c7.95-2.46,16-4.73,24.37-5,12.78-.38,25.55-.58,38.31,1.19a224.46,224.46,0,0,0,44.06,1.27,107,107,0,0,0,35.32-8.26,207.29,207.29,0,0,0,18.82-9.51,64.19,64.19,0,0,0,16.48-13.06,9.62,9.62,0,0,0,1.7-10.65,200.75,200.75,0,0,0-10.91-18.05c-11.5-17-25-32.4-39.53-46.79-18.24-18.06-38.09-34.19-60.3-47.19-22.63-13.26-45.42-26.24-69.71-36.32-1.77-.73-3.5-1.57-5.19-2.46-2.52-1.31-3.46-3.7-3.75-6.29s-.19-5.11-.25-7.66c-.08-3.95.69-7.61,3.49-10.64a14.68,14.68,0,0,0,3.41-6.76q4-16.8,8.06-33.57a88,88,0,0,1,2.73-9.18,6.55,6.55,0,0,1,3.84-4c1.8-.64,3.72-.89,5.57-1.39a13.3,13.3,0,0,0,7.59-5.53,45.17,45.17,0,0,0,7.25-17.6,30.81,30.81,0,0,0-1.33-17c-.71-1.79-1.93-3.6-1.92-5.39,0-8.89-1.33-17.76,1.25-26.66,3.91-13.51,7.15-27.22,11.18-40.7a39.12,39.12,0,0,0,2-13.19c-.07-1.4-1.72-4.37-2.86-4.67-4.32-1.13-8.64-2.3-13-3.34-5.59-1.34-11.23-2.5-16.82-3.89a11.64,11.64,0,0,1-6.46-3.87c-2.92-3.6-6.85-5.68-11.07-7.31a6.32,6.32,0,0,1-3.59-4.16c-.43-1.19-.55-2.51-1-3.69-2.42-6.18-6.86-9.16-13.24-8.94-3.94.13-7.6,1.12-10.56,3.88-1.4,1.31-2.62,2.81-4,4.18a9.61,9.61,0,0,1-6.89,2.79c-2.56.06-5.12.09-7.66.39a9.24,9.24,0,0,0-5.22,2.18,36.34,36.34,0,0,0-2.8,2.6,10.12,10.12,0,0,1-8.52,3.51c-5.1-.33-10.23-.5-15.29-1.12a23.15,23.15,0,0,1-12.27-5c-.49-.41-1-.81-1.47-1.23C676.24,413.12,664.05,408,650.41,406a10.48,10.48,0,0,1-3.51-1.39c-.39-.22-.54-1-.62-1.59s-.22-1.4.09-1.74c1.33-1.49,3.25-1.9,5.1-2.37,17.87-4.54,32.85-13.87,45.39-27.29a87.39,87.39,0,0,0,16.95-25.41A103.74,103.74,0,0,0,722,301.28a88.6,88.6,0,0,0-2.26-19A94,94,0,0,0,694.12,238c-18.77-18.55-41.51-27.1-67.57-27.18-18.48-.06-35.14,6.22-50.46,16.16-7,4.53-13.57,9.72-18.82,16.26a102.28,102.28,0,0,0-22.88,61.87,53.64,53.64,0,0,0,.52,9.56,112.59,112.59,0,0,0,20.64,51.07,39.66,39.66,0,0,0,4.87,5.91c8,7.38,15.78,15,25.9,19.58,1.74.78,3.33,1.88,5,2.82a3.07,3.07,0,0,1,1.7,3.1,2.06,2.06,0,0,1-2.32,2.25,140.7,140.7,0,0,0-26.59,3.43A94.7,94.7,0,0,0,539,412a40.81,40.81,0,0,0-16.49,15.65,109.2,109.2,0,0,0-9.08,19c-5.11,14.47-10,29-14.58,43.67a347.23,347.23,0,0,0-10.08,42.92,77,77,0,0,0-1.1,19.11,19.93,19.93,0,0,0,2.23,7.28A23.22,23.22,0,0,0,502.3,571c2.95,1.21,6.09,1.93,9.12,3,2.25.75,4.23,3.7,4,5.93-1,8.89-1.44,17.85-3.33,26.64a69.71,69.71,0,0,0-1.58,15.25,10.48,10.48,0,0,0,1.88,5.33c.32.55.74,1,1.07,1.59,1.15,1.87.49,3.76-1.41,4.21-24.88,6-49.6,12.49-73.32,22.32-1.53.63-4.41-.61-4.81-2-1.21-4.3-2.54-8.57-3.54-12.92s-1.5-8.83-2.48-13.19q-9.11-40.23-18.32-80.43c-.71-3.12-1.63-6.19-2.26-9.33a54.09,54.09,0,0,1-.55-5.71c-.13-1.42,1.91-4,3.09-4.4,3.12-1,6.31-.88,9.48-.89,17.91-.06,35.83-.05,53.74-.12,2.54,0,5.12,0,7.48-1.28a2,2,0,0,0,.75-3.06,5.79,5.79,0,0,0-2.56-2.49c-3-1.08-6.29-.87-9.48-.87-18.56,0-37.11.05-55.67,0a51.91,51.91,0,0,1-7.55-.75,3.4,3.4,0,0,1-2.76-2.36,58.2,58.2,0,0,1-2.27-7.31c-2.53-13.2-5.91-26.19-9.13-39.23-2.76-11.17-5.56-22.35-7.69-33.65-4.89-25.78-12.05-51-17.27-76.73a7,7,0,0,0-.94-1.64,3.75,3.75,0,0,0-3-2.16,3.07,3.07,0,0,0-2.87,1.82,11.41,11.41,0,0,0-1.23,3.62,4.15,4.15,0,0,1-3.73,3.73c-5.08.4-10.21.24-15.32.42A61,61,0,0,0,321,367.61c-4.81,1.74-9.82,2.95-14.54,4.89-10.06,4.12-20.19,8.07-29.81,13.19a197.78,197.78,0,0,1-37.35,14.92,49.28,49.28,0,0,1-9.38,1.85,146.8,146.8,0,0,1-28.74.21,20.34,20.34,0,0,0-5.6.67,2.45,2.45,0,0,0-2.11,2.73c.07,6.45,1.75,12.65,3.15,18.85,5.06,22.46,10.47,44.83,15.72,67.25a73.83,73.83,0,0,0,2.33,7.31,6.43,6.43,0,0,0,5.58,4.58,139.33,139.33,0,0,0,28.73-.12c17.36-1.83,33.74-7,49.45-14.53,7.5-3.57,14.93-7.33,22.54-10.64a153.22,153.22,0,0,1,55.85-12.44c1.89-.08,5.64,2.36,6.11,4,4,14.15,7,28.56,10.22,42.9.52,2.3-1.76,4.84-4.42,5-3.84.16-7.67.36-11.5.36q-92.14,0-184.27,0-36.48,0-72.94.08a41.34,41.34,0,0,0-7.63.58c-1,.2-2,1.38-2.8,2.33-1.09,1.34.22,4.27,1.85,4.44a34.5,34.5,0,0,0,3.74.57Q183.32,526.55,251.45,526.54Z"/><path class="cls-1" d="M966.75,526.36h128.6l5.76,0c.64,0,1.27-.06,1.91-.08a6,6,0,0,0,5.86-6.19q.15-29.75.21-59.5c0-.63-.22-1.26-.25-1.9-.11-2.5-2.4-5.14-4.56-5.36-8.94-.92-17.85-1.21-26.7.77-1.43.32-3.07-1.68-3.37-3.63-1-6.37-.59-12.78-.59-19.16a293.43,293.43,0,0,0-1.43-30.67,8.44,8.44,0,0,0-1-3.67,6.25,6.25,0,0,0-3-2.24,9.53,9.53,0,0,0-3.78-.28c-2.92.16-5.18,2-5.48,4.28a182.57,182.57,0,0,0-1.63,21c-.15,8.31-.67,16.62-1.09,24.92a38.34,38.34,0,0,1-.62,3.79c-.2,1.27-2.7,3.32-4.11,3.34-4,.07-6-1.68-6.14-5.42-.15-4.47-.21-9-.36-13.42q-.55-16.31-1.18-32.6a6.27,6.27,0,0,0-6.19-5.94,16.88,16.88,0,0,0-5.62.74,4.32,4.32,0,0,0-2.5,2.54,34,34,0,0,0-1,7.51,567.83,567.83,0,0,1-4.92,65,26.13,26.13,0,0,1-.92,3.66,3.44,3.44,0,0,1-2.71,2.5c-2.16.51-4.2-.2-4.92-1.8a10.94,10.94,0,0,1-1.34-3.49c-.28-4.47-.19-9-.51-13.42-.16-2.3.7-5.32-2.51-6.32-2-.63-3.5.9-5,2a36.65,36.65,0,0,1-4.8,3.09c-2,1.07-4.82.18-6.68-1.88-.83-.91-1.56-2.25-2.59-2.56s-2.5.19-3.66.63a22.77,22.77,0,0,0-3.3,1.91c-.55.33-1.07.72-1.63,1-2.67,1.43-4.81.92-6.53-1.53-3.52-5-4.41-5.22-8.73-1.83-1.51,1.19-2.88,2.55-4.4,3.71-1,.78-2.17,1.34-3.25,2-1.44.91-4.13-.33-4.54-1.94-1.46-5.67-.79-11.44-.93-17.16a54.05,54.05,0,0,0-2.14-15.12,6.3,6.3,0,0,0-6-3.86c-3.77.28-5.82,2.33-5.91,6.05-.11,4.47-.09,8.95-.24,13.43-.29,8.31-.57,16.62-1,24.92-.18,3.18-.84,6.32-1.31,9.48a2.43,2.43,0,0,1-2.57,2.27c-1.29.07-2-.58-2-2.28-.34-13.43-.64-26.86-1-40.29-.08-3.19-.31-6.38-.55-9.56-.22-3-3.17-5-7-4.83-1.51.07-4,1.95-4.22,3.24a43.78,43.78,0,0,0-.93,5.65c-.7,16-1.84,31.94-1.71,48a18.64,18.64,0,0,1-.9,5.64,5.22,5.22,0,0,1-2.28,2.84,14.93,14.93,0,0,1-5.44,1.57c-7.38.53-13.33,4-18.86,8.58a29.8,29.8,0,0,0-8.22,10.47C881,508,879.91,511,878.78,514a5.94,5.94,0,0,1-5.76,4.13c-10.23.19-20.46.23-30.69.42-3.83.07-7.66.36-11.48.65-.54.05-1,.68-1.55,1.05a3.15,3.15,0,0,0-1.34,3.3,2.81,2.81,0,0,0,2.55,2.22c5.1.35,10.21.6,15.32.6Q906.3,526.41,966.75,526.36Z"/><path class="cls-1" d="M348,879.93c4.58.53,7.74,1,10.92,1.23a89.5,89.5,0,0,0,9.55.24,32.06,32.06,0,0,0,5.62-1c1.95-.41,4.16-3.14,3.24-4s-1.93-1.7-2.93-1.73q-20.09-.65-40.12-2.16c-6.35-.47-12.82-.89-19-2.44-16.72-4.23-33.1-9.54-48.45-17.62-3.95-2.08-8-4-12-6a137.23,137.23,0,0,1-18.14-10.66c-5.27-3.6-10.56-7.18-15.73-10.92a29,29,0,0,1-5.64-5.13c-2.49-3.09-3.71-6.56-2.08-10.66a17,17,0,0,1,9-9.46c5.2-2.37,10.67-4.14,16-6.26.34-.14.52-1.05.53-1.6a2.26,2.26,0,0,0-2.21-2.45c-8.56.14-16.13,3.23-22.93,8.28a19.43,19.43,0,0,0-6,7.36c-4.14,8.86-1.78,17.1,4.79,22.45,4.44,3.61,9.31,6.7,14,10a249.47,249.47,0,0,0,59.29,30.71c18.1,6.49,36.56,11.33,55.93,11.74C344.3,880,346.85,879.93,348,879.93Z"/><path class="cls-1" d="M1013.05,810.49c-.09-1.78-.12-3.06-.23-4.33a17.47,17.47,0,0,0-7.14-13c-4.09-3.06-8.36-5.88-12.45-8.94a108.63,108.63,0,0,0-30.44-15.84,2.72,2.72,0,0,0-3.27,1.27c-.17.25.43,1.19.87,1.61a10.4,10.4,0,0,0,2.94,2.36c8.4,3.36,15.78,8.34,22.85,13.88,3,2.37,6.27,4.42,9.32,6.74a58.73,58.73,0,0,1,5.78,5c4.53,4.5,6.22,10.1,3.47,17.67a16,16,0,0,1-5.61,7.63c-4.69,3.32-9.63,6.29-14.46,9.41a216.64,216.64,0,0,1-59.13,26.78,179.85,179.85,0,0,0-23.56,8,2.22,2.22,0,0,0-1.32,3.2,3.18,3.18,0,0,0,3.34,1.5,49,49,0,0,0,5.69-.6c13.79-2.95,27.06-7.59,40.16-12.71,19.19-7.48,36.74-17.89,53.12-30.31A24.22,24.22,0,0,0,1013.05,810.49Z"/><path class="cls-1" d="M611.18,908.78a263.28,263.28,0,0,0,47.57-3c8.8-1.36,17.58-2.79,26.37-4.23a2.5,2.5,0,0,0,1.64-.89,2.39,2.39,0,0,0,.07-1.86,3.73,3.73,0,0,0-4.31-2.69c-13.26,1.75-26.64,2.36-39.89,4.41a152.68,152.68,0,0,1-21,1.33q-19.11.28-38.24,0a142.66,142.66,0,0,1-19.06-1.25c-15.11-2.27-30.25-4.52-45-9a35.56,35.56,0,0,0-5.61-1.15,14.23,14.23,0,0,0-3.74.12,2.24,2.24,0,0,0-1.6.92,2.44,2.44,0,0,0,1.06,3c10.06,4.15,20.75,5.88,31.32,8.21a247.92,247.92,0,0,0,62.61,6C604.73,908.74,606,908.78,611.18,908.78Z"/><path class="cls-1" d="M561.5,942.54c7.14-.57,14.13-1.09,21.11-1.71a15.92,15.92,0,0,0,3.66-1c.6-.2,1.38-.51,1.6-1a9.83,9.83,0,0,0,.87-3.32c0-.29-1-.81-1.55-1-2.52-.72-5-.12-7.52.24a148.45,148.45,0,0,1-38.14.19c-25.35-2.86-27.19-3.19-52.36-10.5-1.22-.35-2.4-.88-3.64-1.16-9.33-2.05-18.48-5-28-5.8a173.3,173.3,0,0,0-30.56.19c-.61.06-1.17.5-1.79.62-1.58.31-1.92,1.17-1.48,2.83a2.77,2.77,0,0,0,2.42,2.36c5.7,1,11.43.11,17.14.13a124.32,124.32,0,0,1,30.28,3.63c8.66,2.18,17.22,4.63,25.79,7.1C519.67,940.24,540.52,942.43,561.5,942.54Z"/><path class="cls-1" d="M258.62,664.39c2.38-.16,4.28-.25,6.18-.42a10.81,10.81,0,0,0,1.8-.52c1.62-.46,2-1.36,1.57-2.81-.4-1.18-1.05-2.48-2.4-2.61-5.69-.53-11.4-.95-17.12-1.2a69.45,69.45,0,0,1-27.54-7.14c-2.86-1.38-5.68-2.87-8.59-4.16-3.11-1.39-6.22-.93-9.19.54-1.14.57-2.19,1.29-3.28,2a67.66,67.66,0,0,1-25,8.9c-1.26.2-2.53.34-3.78.57a24.28,24.28,0,0,0-3.71.82,3.46,3.46,0,0,0-2.3,2.77c-.24,1.22.41,2.12,2,2.32a43.28,43.28,0,0,0,22.45-3.19c5.26-2.26,10.44-4.71,15.73-6.91a6.67,6.67,0,0,1,5.52-.08C226.28,660.06,242.46,663.16,258.62,664.39Z"/><path class="cls-1" d="M1013.6,671.27c-1.46.09-.18,0,1.09-.07a10,10,0,0,0,1.88-.3,3,3,0,0,0,2.46-2.26,2.36,2.36,0,0,0-1.72-2.92c-2.44-1-5-1-7.51-1a85.15,85.15,0,0,1-40.33-10.49,25.15,25.15,0,0,0-5.25-2.2,8.75,8.75,0,0,0-3.74,0,10.87,10.87,0,0,0-3.58,1.28,69.58,69.58,0,0,1-32.49,10.39A8.63,8.63,0,0,0,921,665.1a2.4,2.4,0,0,0-1,1.57c-.06.34.49,1,.91,1.16a10.88,10.88,0,0,0,3.52,1.23,49.35,49.35,0,0,0,22.47-3.55c3.55-1.42,7.07-3,10.52-4.61a9.38,9.38,0,0,1,9.1.14c11.43,6.31,24.25,7.63,36.72,10.16C1005.68,671.7,1008.32,671.27,1013.6,671.27Z"/><path class="cls-1" d="M229.9,767.42c-6.4.89-16.16,3.7-25.68,7.35A99.27,99.27,0,0,0,172,794.67a42.16,42.16,0,0,0-9,12.18,16,16,0,0,0-1.63,5.44c-.39,3.79-.55,7.63.66,11.34a2.18,2.18,0,0,0,1.43,1.14c.43.09,1.38-.41,1.42-.73.39-3.1.23-6.32,1-9.29A42.28,42.28,0,0,1,177,797.22a75.25,75.25,0,0,1,18.94-12.69c5.68-2.78,11.22-6,17.86-6.17a18.66,18.66,0,0,0,5.54-1.28,209.91,209.91,0,0,1,23.88-6.46,2.55,2.55,0,0,0,2-2.78c-.09-1.25-.93-2.53-2.19-2.43C239.86,765.64,236.74,766.32,229.9,767.42Z"/><path class="cls-1" d="M329.05,629.78c.81-.07,2.69-.16,4.55-.38s2.31-1,1.62-2.33c-.29-.52-.47-1.28-.92-1.51-3.42-1.78-7.24-2.12-10.94-2.88s-7.42-1.53-11.05-2.57-7.1-3-10.78-3.49c-3.84-.55-7.07,2.29-10.6,3.56s-7.34,1.78-11,2.59a17.6,17.6,0,0,0-6.87,3.05,2.43,2.43,0,0,0-.58,1.74,1.93,1.93,0,0,0,.72,1.29,3.22,3.22,0,0,0,1.66.8c6.36.45,12.64.19,18.62-2.34,5.08-4.19,10.49-3.24,16-1C315.36,628.81,321.66,629.3,329.05,629.78Z"/><path class="cls-1" d="M1016.1,630.93c5.78,1.44,11.34,2.85,16.91,4.2a40.12,40.12,0,0,0,11.4,1,18.47,18.47,0,0,0,3.69-.81,2.55,2.55,0,0,0,2-2.83,2.06,2.06,0,0,0-2.19-2.31,113.75,113.75,0,0,1-27.94-6.12c-.6-.21-1.23-.32-1.83-.51a6.8,6.8,0,0,0-5.53.77,46.08,46.08,0,0,1-16.15,5.59c-1.78.25-2.28,1.23-1.4,2.79A3.92,3.92,0,0,0,996.3,634a8.84,8.84,0,0,0,7.32,1.21C1007.89,634,1012,632.35,1016.1,630.93Z"/><path class="cls-1" d="M1023.27,848c-.43-.43-1.08-1.34-1.3-1.25a36.3,36.3,0,0,0-6.73,3.32,95.51,95.51,0,0,1-30.56,14.55,7.61,7.61,0,0,0-3.27,1.74c-.81.8-1.11,2.11-1.64,3.19a14,14,0,0,0,3.2,1.4,9.69,9.69,0,0,0,3.75-.17,75.18,75.18,0,0,0,36.17-19.38A3,3,0,0,0,1023.27,848Z"/><path class="cls-1" d="M840,878.66c-3.77.32-8.23.64-12.68,1.11a13.43,13.43,0,0,0-3.62,1.07,3.57,3.57,0,0,0-2.15,2.94,2.09,2.09,0,0,0,1.84,2.65c11.61.64,22.75-2.47,34-4.56a1.93,1.93,0,0,0,1.5-2.9,3.4,3.4,0,0,0-3-1.93C850.75,876.53,845.83,878.52,840,878.66Z"/><path class="cls-1" d="M1033.52,786a33.08,33.08,0,0,0-3.57-1.42,2.31,2.31,0,0,0-1.61.51c-1,.73-.8,1.73.18,3a19.44,19.44,0,0,0,7.53,5.59,20.8,20.8,0,0,1,10.14,10.75,4,4,0,0,0,1.27,1.38c.5.38,1.21.94,1.65.81,1.05-.29,1.64-1.39,1.69-2.78.18-4.89-2.45-8.41-6-11.29A38.51,38.51,0,0,0,1033.52,786Z"/><path d="M251.45,526.54q-68.14,0-136.28,0a34.5,34.5,0,0,1-3.74-.57c-1.63-.17-2.94-3.1-1.85-4.44.76-1,1.75-2.13,2.8-2.33a41.34,41.34,0,0,1,7.63-.58q36.46-.09,72.94-.08,92.13,0,184.27,0c3.83,0,7.66-.2,11.5-.36,2.66-.12,4.94-2.66,4.42-5-3.23-14.34-6.21-28.75-10.22-42.9-.47-1.63-4.22-4.07-6.11-4A153.22,153.22,0,0,0,321,478.77c-7.61,3.31-15,7.07-22.54,10.64-15.71,7.49-32.09,12.7-49.45,14.53a139.33,139.33,0,0,1-28.73.12,6.43,6.43,0,0,1-5.58-4.58,73.83,73.83,0,0,1-2.33-7.31c-5.25-22.42-10.66-44.79-15.72-67.25-1.4-6.2-3.08-12.4-3.15-18.85a2.45,2.45,0,0,1,2.11-2.73,20.34,20.34,0,0,1,5.6-.67,146.8,146.8,0,0,0,28.74-.21,49.28,49.28,0,0,0,9.38-1.85,197.78,197.78,0,0,0,37.35-14.92c9.62-5.12,19.75-9.07,29.81-13.19,4.72-1.94,9.73-3.15,14.54-4.89a61,61,0,0,1,18.82-3.32c5.11-.18,10.24,0,15.32-.42a4.15,4.15,0,0,0,3.73-3.73,11.41,11.41,0,0,1,1.23-3.62A3.07,3.07,0,0,1,363,354.7a3.75,3.75,0,0,1,3,2.16,7,7,0,0,1,.94,1.64c5.22,25.69,12.38,50.95,17.27,76.73,2.13,11.3,4.93,22.48,7.69,33.65,3.22,13,6.6,26,9.13,39.23a58.2,58.2,0,0,0,2.27,7.31,3.4,3.4,0,0,0,2.76,2.36,51.91,51.91,0,0,0,7.55.75c18.56.05,37.11,0,55.67,0,3.19,0,6.44-.21,9.48.87a5.79,5.79,0,0,1,2.56,2.49,2,2,0,0,1-.75,3.06c-2.36,1.31-4.94,1.27-7.48,1.28-17.91.07-35.83.06-53.74.12-3.17,0-6.36-.16-9.48.89-1.18.4-3.22,3-3.09,4.4a54.09,54.09,0,0,0,.55,5.71c.63,3.14,1.55,6.21,2.26,9.33q9.18,40.2,18.32,80.43c1,4.36,1.48,8.84,2.48,13.19s2.33,8.62,3.54,12.92c.4,1.42,3.28,2.66,4.81,2,23.72-9.83,48.44-16.34,73.32-22.32,1.9-.45,2.56-2.34,1.41-4.21-.33-.55-.75-1-1.07-1.59a10.48,10.48,0,0,1-1.88-5.33,69.71,69.71,0,0,1,1.58-15.25c1.89-8.79,2.29-17.75,3.33-26.64.27-2.23-1.71-5.18-4-5.93-3-1-6.17-1.74-9.12-3a23.22,23.22,0,0,1-12.45-11.4,19.93,19.93,0,0,1-2.23-7.28,77,77,0,0,1,1.1-19.11,347.23,347.23,0,0,1,10.08-42.92c4.56-14.67,9.47-29.2,14.58-43.67a109.2,109.2,0,0,1,9.08-19A40.81,40.81,0,0,1,539,412a94.7,94.7,0,0,1,25.15-9.14,140.7,140.7,0,0,1,26.59-3.43,2.06,2.06,0,0,0,2.32-2.25,3.07,3.07,0,0,0-1.7-3.1c-1.66-.94-3.25-2-5-2.82-10.12-4.57-17.93-12.2-25.9-19.58a39.66,39.66,0,0,1-4.87-5.91,112.59,112.59,0,0,1-20.64-51.07,53.64,53.64,0,0,1-.52-9.56,102.28,102.28,0,0,1,22.88-61.87c5.25-6.54,11.84-11.73,18.82-16.26,15.32-9.94,32-16.22,50.46-16.16,26.06.08,48.8,8.63,67.57,27.18a94,94,0,0,1,25.65,44.24,88.6,88.6,0,0,1,2.26,19,103.74,103.74,0,0,1-8.22,44.93,87.39,87.39,0,0,1-16.95,25.41c-12.54,13.42-27.52,22.75-45.39,27.29-1.85.47-3.77.88-5.1,2.37-.31.34-.18,1.16-.09,1.74s.23,1.37.62,1.59a10.48,10.48,0,0,0,3.51,1.39c13.64,2,25.83,7.12,36.21,16.31.48.42,1,.82,1.47,1.23a23.15,23.15,0,0,0,12.27,5c5.06.62,10.19.79,15.29,1.12a10.12,10.12,0,0,0,8.52-3.51,36.34,36.34,0,0,1,2.8-2.6,9.24,9.24,0,0,1,5.22-2.18c2.54-.3,5.1-.33,7.66-.39a9.61,9.61,0,0,0,6.89-2.79c1.34-1.37,2.56-2.87,4-4.18,3-2.76,6.62-3.75,10.56-3.88,6.38-.22,10.82,2.76,13.24,8.94.46,1.18.58,2.5,1,3.69A6.32,6.32,0,0,0,779.1,427c4.22,1.63,8.15,3.71,11.07,7.31a11.64,11.64,0,0,0,6.46,3.87c5.59,1.39,11.23,2.55,16.82,3.89,4.35,1,8.67,2.21,13,3.34,1.14.3,2.79,3.27,2.86,4.67a39.12,39.12,0,0,1-2,13.19c-4,13.48-7.27,27.19-11.18,40.7-2.58,8.9-1.24,17.77-1.25,26.66,0,1.79,1.21,3.6,1.92,5.39a30.81,30.81,0,0,1,1.33,17,45.17,45.17,0,0,1-7.25,17.6,13.3,13.3,0,0,1-7.59,5.53c-1.85.5-3.77.75-5.57,1.39a6.55,6.55,0,0,0-3.84,4,88,88,0,0,0-2.73,9.18Q787,607.48,783,624.28a14.68,14.68,0,0,1-3.41,6.76c-2.8,3-3.57,6.69-3.49,10.64.06,2.55,0,5.13.25,7.66s1.23,5,3.75,6.29c1.69.89,3.42,1.73,5.19,2.46,24.29,10.08,47.08,23.06,69.71,36.32,22.21,13,42.06,29.13,60.3,47.19,14.54,14.39,28,29.76,39.53,46.79a200.75,200.75,0,0,1,10.91,18.05,9.62,9.62,0,0,1-1.7,10.65,64.19,64.19,0,0,1-16.48,13.06,207.29,207.29,0,0,1-18.82,9.51,107,107,0,0,1-35.32,8.26,224.46,224.46,0,0,1-44.06-1.27c-12.76-1.77-25.53-1.57-38.31-1.19-8.33.24-16.42,2.51-24.37,5s-15.86,5-23.73,7.68c-28,9.48-56.82,15-85.94,19.44-1.26.19-2.54.29-3.82.38-22.34,1.49-44.69,2.91-67.1,1.79-3.19-.16-6.39-.33-9.59-.34-27,0-53.51-4.15-79.78-10-11.23-2.53-22.38-5.33-33.38-8.76-11.59-3.62-23.27-7-34.91-10.44a125.44,125.44,0,0,0-28.35-4.49,48.12,48.12,0,0,0-7.65.56c-11.45,1.23-22.89,2.52-34.34,3.75-4.45.47-8.91.83-13.37,1.24-23.28,2.14-45.94-1.39-68.22-7.79a100.62,100.62,0,0,1-21.17-8.95,174.43,174.43,0,0,1-22.55-14.55,26.77,26.77,0,0,1-5-5.7,6.36,6.36,0,0,1-.83-5.49,25.39,25.39,0,0,1,2.09-5.35c9-16.28,19.6-31.45,32.6-44.88a533.3,533.3,0,0,1,45-41.79c7.9-6.48,16.34-12.33,24.78-18.11,13.75-9.4,28.37-17.37,43.13-25,7.36-3.81,15.26-6.56,22.91-9.81,1.76-.75,3.48-1.57,5.21-2.38,1.95-.91,3.42-4.07,3.07-6.53-.27-1.89-.39-3.83-.83-5.68-4.14-17.42-7.75-35-12.07-52.34-3.55-14.26-6.58-28.66-10-43C401,546.41,399,539,397,531.62c-.62-2.3-3.43-4.65-5.44-4.79s-3.81-.38-5.72-.41c-4.48-.07-9,0-13.44,0H251.45ZM756.3,422.43A9,9,0,0,0,752,426a8.37,8.37,0,0,1-6.48,3.48c-3.8.32-7.63.53-11.41,1-2.72.37-4.47,2.22-5.59,4.68-.26.58-.56,1.14-.8,1.74-1.33,3.29.44,6.83,3.69,7.38,8.18,1.39,16.34,2.82,24.53,4.15,7.54,1.23,15.1,2.45,22.68,3.45a4.7,4.7,0,0,0,4.84-2.34,22.34,22.34,0,0,0,1.73-3.37c1.06-3-.52-7.08-3.2-8.18-2.94-1.21-6-2.26-8.94-3.34-1.78-.64-4-.73-5.32-1.88-3-2.61-6.89-3.29-10-5.51-.62-1.78-1.23-3.56-1.85-5.35,3,.77,6.06,1.58,9.11,2.28.31.07.91-.45,1.15-.83.65-1.08.88-2.61-.06-3.48a7.2,7.2,0,0,0-7-1.57A3.62,3.62,0,0,0,756.3,422.43ZM438.38,699.14c-2.13.79-5.09,2-8.13,3-2.41.77-4.67,2.16-7.31,2.1a2.8,2.8,0,0,1-2.79-1.94,2.36,2.36,0,0,1,.39-1.84c2-2.57,5.4-3.12,7.66-5.38a8.76,8.76,0,0,0,2.46-5,7.18,7.18,0,0,0,0-1.91c-.5-4.44-1-8.89-1.58-13.32-.3-2.37-3.42-4.21-5.78-3.44s-4.89,1.48-7.22,2.5c-34.2,14.92-65.84,34-94.24,58.32-31.13,26.63-48.2,47.17-65.6,74.53a5.19,5.19,0,0,0,.32,5.42,18,18,0,0,0,3.93,4.09,181.32,181.32,0,0,0,34.27,17,159.38,159.38,0,0,0,52.57,9.57c16.66.18,33.19-1.5,49.7-3.54,6.34-.78,12.7-1.46,19.06-2a76.94,76.94,0,0,1,28.46,2.92c3.06.93,6.16,1.7,9.22,2.62,12.24,3.67,24.5,7.3,36.71,11.08a407.75,407.75,0,0,0,90.32,16.68c21.69,1.63,43.45,1.32,65.2.69,11.54-.34,22.88-2.42,34.36-3.23,12.8-.9,25.33-3.51,37.79-6.34,17.46-4,34.65-8.91,51.64-14.59,7.27-2.43,14.69-4.4,22-6.82,8.62-2.86,17.47-3.52,26.48-3.58a460.7,460.7,0,0,1,47.86,2.66,102.94,102.94,0,0,0,21.06.07c3.81-.41,7.59-1.16,11.4-1.54A105.8,105.8,0,0,0,930,829.4c5.87-2.51,11.59-5.37,17.39-8,3.66-1.69,6-4.73,8-8a7.2,7.2,0,0,0,.55-7.27,56.63,56.63,0,0,0-3.85-6.61,336.35,336.35,0,0,0-56.82-64.66c-33.59-29.4-71.61-51.29-112.71-68.18-3.71-1.52-6.68,0-6.89,3.52-.76,12.78-2.26,25.48-3.63,38.2-1.09,10.17-1.74,20.38-2.56,30.58-.1,1.27,0,2.56,0,3.84,0,.63.12,1.27.18,1.9a6.53,6.53,0,0,0,2.83,4.8c6.39,4.22,13,8.17,19.4,12.33a31.43,31.43,0,0,1,7.21,6.27,14.39,14.39,0,0,1,3.13,12.55,5.56,5.56,0,0,1-2.06,3.09,12.73,12.73,0,0,1-5,2.53c-5.72,1-11.49.45-17.18-.5-6.93-1.15-13.88-2.31-20.73-3.89-8.71-2-17.49-3.91-25.68-7.68a5.37,5.37,0,0,1-2.35-2.86,17.62,17.62,0,0,1-1.14-5.59c-.2-8.31,0-16.63-.33-24.94-.3-8.94-1-17.87-1.44-26.8-.8-15.34-.83-30.69-1-46,0-3.19-.32-6.37-.53-9.56a6.42,6.42,0,0,0-4.82-5.24,41.76,41.76,0,0,0-11.44-.2c-.63.06-1.25.26-1.88.38-3.68.72-7.16,4.31-7.27,7.84-.6,19.83-2.27,39.58-4.21,59.31-.12,1.28-.15,2.56-.23,3.84A252.14,252.14,0,0,1,692.22,751c-.83,5-1.12,10.17-1.52,15.27a47.83,47.83,0,0,0,.18,5.73,6.33,6.33,0,0,0,2.61,4.92c6.79,4.79,13.79,9.27,20.59,14.05a25.46,25.46,0,0,1,9.76,13.85c1.15,3.76-1.67,8.19-5.36,8.51a67.47,67.47,0,0,1-21-1.14c-10-2.28-19.94-4.55-29.87-7a63.44,63.44,0,0,1-9.06-3.14,24.28,24.28,0,0,1-4.89-3,9,9,0,0,1-3.92-6.32c-.69-7-.94-14-1.88-21-.77-5.71-1.26-11.42-1.69-17.17-1.67-22.31-1.69-44.74-4.74-67-.43-3.16-.34-6.39-.57-9.58-.08-1.27-.38-2.52-.55-3.79-.28-2.17-3.31-4.5-5.57-4.21-3.16.41-6.35.73-9.48,1.35-10,2-20,4.13-30,6.2A104.42,104.42,0,0,1,564.68,679a65.66,65.66,0,0,1-25.5-7.78,30.26,30.26,0,0,1-14.13-15.11c-1.72-4.12-3.24-8.32-4.86-12.48-.37-1-3.83-2.66-5-2.58-3.86.29-7.5,1.54-11.23,2.39-20.62,4.7-40.54,11.59-60.36,18.84-1.19.44-2.28,1.15-3.43,1.71-1.42.68-2.68,3.07-2.73,4.73-.16,5.86,1.61,11.36,3.06,16.91A13.68,13.68,0,0,0,442.2,689a3.46,3.46,0,0,0,1.38,1.28,5,5,0,0,0,1.9.22c3.18,0,6.38-.11,9.55.18a1.89,1.89,0,0,1,1.88,2.38,2.68,2.68,0,0,1-1,1.56C450.7,697.23,444.91,697.75,438.38,699.14ZM713.61,305.36a74.9,74.9,0,0,0-1.85-18.8,87.53,87.53,0,0,0-31.2-49.15c-12.29-9.82-26.54-15.1-41.92-17.5a62,62,0,0,0-19.09,0,96,96,0,0,0-30.78,10c-18.88,10.12-31.79,25.5-39.29,45.24-6.76,17.79-7.25,36.21-2.34,54.61,5.85,21.93,18.41,39.06,37.72,51.09,16.25,10.13,33.67,15,52.91,11.45,2.51-.47,5.08-.62,7.58-1.09a51,51,0,0,0,7.43-1.81c17.88-6.24,33-16.08,44.33-31.81C706.49,344.57,714.23,322,713.61,305.36ZM756,621.72c6.73.65,9.27.92,11.82,1.13.62,0,1.27-.13,1.9-.09,1.37.09,4.54-1.55,4.88-2.53,4.76-13.93,7.85-28.28,10.77-42.67a6.74,6.74,0,0,0-.8-3.67,44.69,44.69,0,0,0-2.76-5,13.26,13.26,0,0,1-1.78-9.19,64.54,64.54,0,0,1,7-21.8,14.29,14.29,0,0,1,8.62-7.1,30.37,30.37,0,0,0,3.65-1.16,5.86,5.86,0,0,0,3.51-4.17c4.1-17.41,9.38-34.52,12.93-52.07,1-5,2.74-9.84,4.12-14.76.18-.61.22-1.26.41-1.86.6-2-1.62-5-4-5.63a69.78,69.78,0,0,0-20.81-2.62,5.11,5.11,0,0,0-4.6,2.88,32.67,32.67,0,0,1-3.07,4.81,6.82,6.82,0,0,1-6.75,2.65c-3.79-.55-7.52-1.66-11.32-1.93-11.5-.83-22.75-3.35-34.15-4.83a74.5,74.5,0,0,1-7.49-1.6,20.13,20.13,0,0,1-3.65-1.16,5.53,5.53,0,0,1-3.47-4.11c-.36-1.83-.46-4-1.51-5.35-1.62-2.11-4.44-2.2-7-2.4-5.73-.45-11.46-.95-17.2-1.36a30.53,30.53,0,0,0-3.8.24c-1.46.08-3.68,1.93-4.22,3.43-2.42,6.64-3.38,13.64-5.11,20.44-4.57,18-9.36,35.85-14,53.78-1,3.7-1.72,7.44-2.56,11.17-.35,1.61,1,3.68,2.94,4.39,3.59,1.34,7.22,2.57,10.76,4a8,8,0,0,1,3,2.28c5.18,6.29,6.63,17.78,1.31,25.1a86,86,0,0,1-5.9,7.52,19,19,0,0,1-11.54,6.3c-3.17.45-6.36.67-9.51,1.18-1.89.3-3.6,1.07-4.37,3.13-2.9,7.82-4.3,16-5.82,24.15.68,1,1.15,2.5,2.1,2.94a26,26,0,0,0,7.24,2.34c13.92,1.93,27.86,3.68,41.81,5.46,14.57,1.86,29.15,3.66,43.72,5.57C747.53,620.36,753.83,621.4,756,621.72ZM231.85,497.89c2.94,0,4.87.18,6.76,0,13.34-1.44,26.55-3.39,39.11-8.53,8.26-3.39,16.62-6.53,24.67-10.42,5.74-2.77,11.6-5.31,17.35-8.05C332,465,345,462,358.32,460.29c3.8-.47,7.6-.93,11.39-1.46,1.88-.27,3.75-.69,5.63-1,2.43-.45,4.49-3.26,4.07-5.55-4.52-24.47-10.93-48.5-16.68-72.69-.15-.61-.48-1.18-.67-1.79-1.14-3.61-3.44-5.5-6.73-5.71a92.63,92.63,0,0,0-30.31,3,183.81,183.81,0,0,0-28.72,10.45c-5.8,2.65-11.41,5.71-17.22,8.33C269.78,398,260.46,402.19,251,406a61.44,61.44,0,0,1-24.26,4.7c-6.37-.11-12.76.18-19.12.47a5,5,0,0,0-3.33,1.65c-.69.89-.75,2.4-.81,3.65a15.21,15.21,0,0,0,.36,3.8c4.89,23.09,10.7,46,16.55,68.82.31,1.23.85,2.41,1.26,3.61a8.07,8.07,0,0,0,7.4,5.05Zm446.21,51.05c.55-3.93-3.2-9.32-7.18-10.11-3.13-.62-6.29-1.06-9.44-1.53a10,10,0,0,1-6.35-3.87,36.18,36.18,0,0,0-2.67-2.73c-1.15-1.13-3.72-1-5.08.15a39.74,39.74,0,0,0-9.86,11.6A37.56,37.56,0,0,0,634,551.3a8.41,8.41,0,0,0,1.63,7.22,13.28,13.28,0,0,0,5.8,4.82,68.79,68.79,0,0,0,9.15,2.77c7.29,1.58,14-.41,20-4.37C675,558.82,677.38,554.28,678.06,548.94Zm131.88.11c0-2.5,0-3.77,0-5-.22-4.74-5-7.6-9.68-5.91a11,11,0,0,0-5.66,4.81c-3.06,4.89-4.56,10.42-6.08,15.93-.91,3.31,2.14,7.86,5.74,8.55a10.92,10.92,0,0,0,1.9.18c4.19,0,7.18-2.13,9.41-5.42A26.05,26.05,0,0,0,809.94,549.05ZM624.09,415.2a38.84,38.84,0,0,0,5.9-1.35,9.55,9.55,0,0,0,6.11-6.54c.47-1.54-1.1-4.21-2.61-4.25a177.58,177.58,0,0,1-27.9-2.75,16.56,16.56,0,0,0-2.7,2.35,2.87,2.87,0,0,0,.08,3.45c2.08,3.39,5.58,4.92,8.84,6.7S618.85,415.32,624.09,415.2Zm-9.49,43.27c.13-1.61.65-5.35.73-9.11.06-3.33-1.69-5.89-4.45-7.75-1.76-1.19-3.62-.69-5.38-.14a5.3,5.3,0,0,0-3.11,4.29c0,.62-.16,1.26-.08,1.86a151.3,151.3,0,0,0,5.41,23.78c.48,1.57,1.63,1.92,3,1.14.5-.27,1.18-.49,1.41-.93C614,468.17,613.68,464.3,614.6,458.47Zm19.93,15c.46-.17,1.18-.21,1.34-.53,4-8.06,5.42-16.71,5.69-25.61.06-1.91-2.54-4.93-4.68-5.46-2.32-.58-5.52,1.46-5.64,3.6a14,14,0,0,0-.33,1.86q1.25,12.28,2.59,24.56C633.57,472.48,634.18,473,634.53,473.5Zm-21.81-49.74a3.83,3.83,0,0,0-1.91-3.19Q604,417.18,597.06,414a2.54,2.54,0,0,0-3.28,3.23c1.35,4.94,2.57,9.92,5.11,14.42a3.21,3.21,0,0,0,3.25,1.51c4.88-.54,8.17-3.29,10.25-7.62A6.77,6.77,0,0,0,612.72,423.76Zm31.95,0c.48-6.72-1.6-7.92-6.77-5.37a11,11,0,0,0-2.88,2.27,4.2,4.2,0,0,0-.43,5.1c1.06,1.53,2.07,3.1,3.23,4.55a4,4,0,0,0,3.24,1.42,2.34,2.34,0,0,0,2.56-2.11C644.1,427.22,644.6,424.78,644.67,423.79Z"/><path d="M966.75,526.36q-60.46,0-120.92,0c-5.11,0-10.22-.25-15.32-.6a2.81,2.81,0,0,1-2.55-2.22,3.15,3.15,0,0,1,1.34-3.3c.51-.37,1-1,1.55-1.05,3.82-.29,7.65-.58,11.48-.65,10.23-.19,20.46-.23,30.69-.42a5.94,5.94,0,0,0,5.76-4.13c1.13-3,2.21-6,3.56-8.89a29.8,29.8,0,0,1,8.22-10.47c5.53-4.56,11.48-8.05,18.86-8.58a14.93,14.93,0,0,0,5.44-1.57,5.22,5.22,0,0,0,2.28-2.84A18.64,18.64,0,0,0,918,476c-.13-16,1-32,1.71-48a43.78,43.78,0,0,1,.93-5.65c.23-1.29,2.71-3.17,4.22-3.24,3.83-.17,6.78,1.83,7,4.83.24,3.18.47,6.37.55,9.56.37,13.43.67,26.86,1,40.29,0,1.7.72,2.35,2,2.28a2.43,2.43,0,0,0,2.57-2.27c.47-3.16,1.13-6.3,1.31-9.48.47-8.3.75-16.61,1-24.92.15-4.48.13-9,.24-13.43.09-3.72,2.14-5.77,5.91-6.05a6.3,6.3,0,0,1,6,3.86,54.05,54.05,0,0,1,2.14,15.12c.14,5.72-.53,11.49.93,17.16.41,1.61,3.1,2.85,4.54,1.94,1.08-.69,2.24-1.25,3.25-2,1.52-1.16,2.89-2.52,4.4-3.71,4.32-3.39,5.21-3.2,8.73,1.83,1.72,2.45,3.86,3,6.53,1.53.56-.3,1.08-.69,1.63-1a22.77,22.77,0,0,1,3.3-1.91c1.16-.44,2.6-1,3.66-.63s1.76,1.65,2.59,2.56c1.86,2.06,4.68,2.95,6.68,1.88a36.65,36.65,0,0,0,4.8-3.09c1.53-1.14,3-2.67,5-2,3.21,1,2.35,4,2.51,6.32.32,4.46.23,9,.51,13.42a10.94,10.94,0,0,0,1.34,3.49c.72,1.6,2.76,2.31,4.92,1.8a3.44,3.44,0,0,0,2.71-2.5,26.13,26.13,0,0,0,.92-3.66,567.83,567.83,0,0,0,4.92-65,34,34,0,0,1,1-7.51,4.32,4.32,0,0,1,2.5-2.54,16.88,16.88,0,0,1,5.62-.74,6.27,6.27,0,0,1,6.19,5.94q.63,16.29,1.18,32.6c.15,4.47.21,8.95.36,13.42.13,3.74,2.15,5.49,6.14,5.42,1.41,0,3.91-2.07,4.11-3.34a38.34,38.34,0,0,0,.62-3.79c.42-8.3.94-16.61,1.09-24.92a182.57,182.57,0,0,1,1.63-21c.3-2.27,2.56-4.12,5.48-4.28a9.53,9.53,0,0,1,3.78.28,6.25,6.25,0,0,1,3,2.24,8.44,8.44,0,0,1,1,3.67,293.43,293.43,0,0,1,1.43,30.67c0,6.38-.39,12.79.59,19.16.3,1.95,1.94,3.95,3.37,3.63,8.85-2,17.76-1.69,26.7-.77,2.16.22,4.45,2.86,4.56,5.36,0,.64.25,1.27.25,1.9q-.09,29.75-.21,59.5a6,6,0,0,1-5.86,6.19c-.64,0-1.27.08-1.91.08l-5.76,0H966.75Z"/><path d="M348,879.93c-1.16,0-3.71.05-6.26,0-19.37-.41-37.83-5.25-55.93-11.74a249.47,249.47,0,0,1-59.29-30.71c-4.7-3.29-9.57-6.38-14-10-6.57-5.35-8.93-13.59-4.79-22.45a19.43,19.43,0,0,1,6-7.36c6.8-5,14.37-8.14,22.93-8.28a2.26,2.26,0,0,1,2.21,2.45c0,.55-.19,1.46-.53,1.6-5.32,2.12-10.79,3.89-16,6.26a17,17,0,0,0-9,9.46c-1.63,4.1-.41,7.57,2.08,10.66A29,29,0,0,0,221,825c5.17,3.74,10.46,7.32,15.73,10.92a137.23,137.23,0,0,0,18.14,10.66c4,1.92,8,3.87,12,6,15.35,8.08,31.73,13.39,48.45,17.62,6.13,1.55,12.6,2,19,2.44q20,1.51,40.12,2.16c1,0,2.08,1,2.93,1.73s-1.29,3.54-3.24,4a32.06,32.06,0,0,1-5.62,1,89.5,89.5,0,0,1-9.55-.24C355.75,880.94,352.59,880.46,348,879.93Z"/><path d="M1013.05,810.49A24.22,24.22,0,0,1,1003,829.76c-16.38,12.42-33.93,22.83-53.12,30.31-13.1,5.12-26.37,9.76-40.16,12.71a49,49,0,0,1-5.69.6,3.18,3.18,0,0,1-3.34-1.5,2.22,2.22,0,0,1,1.32-3.2,179.85,179.85,0,0,1,23.56-8,216.64,216.64,0,0,0,59.13-26.78c4.83-3.12,9.77-6.09,14.46-9.41a16,16,0,0,0,5.61-7.63c2.75-7.57,1.06-13.17-3.47-17.67a58.73,58.73,0,0,0-5.78-5c-3-2.32-6.31-4.37-9.32-6.74-7.07-5.54-14.45-10.52-22.85-13.88a10.4,10.4,0,0,1-2.94-2.36c-.44-.42-1-1.36-.87-1.61a2.72,2.72,0,0,1,3.27-1.27,108.63,108.63,0,0,1,30.44,15.84c4.09,3.06,8.36,5.88,12.45,8.94a17.47,17.47,0,0,1,7.14,13C1012.93,807.43,1013,808.71,1013.05,810.49Z"/><path d="M611.18,908.78c-5.18,0-6.45,0-7.73,0a247.92,247.92,0,0,1-62.61-6c-10.57-2.33-21.26-4.06-31.32-8.21a2.44,2.44,0,0,1-1.06-3,2.24,2.24,0,0,1,1.6-.92,14.23,14.23,0,0,1,3.74-.12,35.56,35.56,0,0,1,5.61,1.15c14.7,4.43,29.84,6.68,45,9a142.66,142.66,0,0,0,19.06,1.25q19.13.28,38.24,0a152.68,152.68,0,0,0,21-1.33c13.25-2,26.63-2.66,39.89-4.41a3.73,3.73,0,0,1,4.31,2.69,2.39,2.39,0,0,1-.07,1.86,2.5,2.5,0,0,1-1.64.89c-8.79,1.44-17.57,2.87-26.37,4.23A263.28,263.28,0,0,1,611.18,908.78Z"/><path d="M561.5,942.54c-21-.11-41.83-2.3-62.21-8.16-8.57-2.47-17.13-4.92-25.79-7.1a124.32,124.32,0,0,0-30.28-3.63c-5.71,0-11.44.82-17.14-.13a2.77,2.77,0,0,1-2.42-2.36c-.44-1.66-.1-2.52,1.48-2.83.62-.12,1.18-.56,1.79-.62a173.3,173.3,0,0,1,30.56-.19c9.56.76,18.71,3.75,28,5.8,1.24.28,2.42.81,3.64,1.16,25.17,7.31,27,7.64,52.36,10.5a148.45,148.45,0,0,0,38.14-.19c2.49-.36,5-1,7.52-.24.59.16,1.57.68,1.55,1a9.83,9.83,0,0,1-.87,3.32c-.22.48-1,.79-1.6,1a15.92,15.92,0,0,1-3.66,1C575.63,941.45,568.64,942,561.5,942.54Z"/><path d="M258.62,664.39c-16.16-1.23-32.34-4.33-47.65-11.16a6.67,6.67,0,0,0-5.52.08c-5.29,2.2-10.47,4.65-15.73,6.91a43.28,43.28,0,0,1-22.45,3.19c-1.63-.2-2.28-1.1-2-2.32a3.46,3.46,0,0,1,2.3-2.77,24.28,24.28,0,0,1,3.71-.82c1.25-.23,2.52-.37,3.78-.57a67.66,67.66,0,0,0,25-8.9c1.09-.67,2.14-1.39,3.28-2,3-1.47,6.08-1.93,9.19-.54,2.91,1.29,5.73,2.78,8.59,4.16a69.45,69.45,0,0,0,27.54,7.14c5.72.25,11.43.67,17.12,1.2,1.35.13,2,1.43,2.4,2.61.48,1.45.05,2.35-1.57,2.81a10.81,10.81,0,0,1-1.8.52C262.9,664.14,261,664.23,258.62,664.39Z"/><path d="M1013.6,671.27c-5.28,0-7.92.43-10.37-.07-12.47-2.53-25.29-3.85-36.72-10.16a9.38,9.38,0,0,0-9.1-.14c-3.45,1.66-7,3.19-10.52,4.61a49.35,49.35,0,0,1-22.47,3.55,10.88,10.88,0,0,1-3.52-1.23c-.42-.19-1-.82-.91-1.16a2.4,2.4,0,0,1,1-1.57,8.63,8.63,0,0,1,3.41-1.34,69.58,69.58,0,0,0,32.49-10.39,10.87,10.87,0,0,1,3.58-1.28,8.75,8.75,0,0,1,3.74,0,25.15,25.15,0,0,1,5.25,2.2,85.15,85.15,0,0,0,40.33,10.49c2.53,0,5.07-.06,7.51,1a2.36,2.36,0,0,1,1.72,2.92,3,3,0,0,1-2.46,2.26,10,10,0,0,1-1.88.3C1013.42,671.3,1012.14,671.36,1013.6,671.27Z"/><path d="M229.9,767.42c6.84-1.1,10-1.78,13.1-2,1.26-.1,2.1,1.18,2.19,2.43a2.55,2.55,0,0,1-2,2.78,209.91,209.91,0,0,0-23.88,6.46,18.66,18.66,0,0,1-5.54,1.28c-6.64.16-12.18,3.39-17.86,6.17A75.25,75.25,0,0,0,177,797.22a42.28,42.28,0,0,0-11.09,17.53c-.82,3-.66,6.19-1,9.29,0,.32-1,.82-1.42.73a2.18,2.18,0,0,1-1.43-1.14c-1.21-3.71-1-7.55-.66-11.34a16,16,0,0,1,1.63-5.44,42.16,42.16,0,0,1,9-12.18,99.27,99.27,0,0,1,32.23-19.9C213.74,771.12,223.5,768.31,229.9,767.42Z"/><path d="M329.05,629.78c-7.39-.48-13.69-1-19.64-3.44-5.47-2.27-10.88-3.22-16,1-6,2.53-12.26,2.79-18.62,2.34a3.22,3.22,0,0,1-1.66-.8,1.93,1.93,0,0,1-.72-1.29,2.43,2.43,0,0,1,.58-1.74,17.6,17.6,0,0,1,6.87-3.05c3.69-.81,7.5-1.32,11-2.59s6.76-4.11,10.6-3.56c3.68.52,7.14,2.45,10.78,3.49s7.34,1.8,11.05,2.57,7.52,1.1,10.94,2.88c.45.23.63,1,.92,1.51.69,1.29.15,2.13-1.62,2.33S329.86,629.71,329.05,629.78Z"/><path d="M1016.1,630.93c-4.06,1.42-8.21,3.06-12.48,4.31A8.84,8.84,0,0,1,996.3,634a3.92,3.92,0,0,1-1.23-1.33c-.88-1.56-.38-2.54,1.4-2.79a46.08,46.08,0,0,0,16.15-5.59,6.8,6.8,0,0,1,5.53-.77c.6.19,1.23.3,1.83.51a113.75,113.75,0,0,0,27.94,6.12,2.06,2.06,0,0,1,2.19,2.31,2.55,2.55,0,0,1-2,2.83,18.47,18.47,0,0,1-3.69.81,40.12,40.12,0,0,1-11.4-1C1027.44,633.78,1021.88,632.37,1016.1,630.93Z"/><path d="M1023.27,848a3,3,0,0,1-.38,3.4,75.18,75.18,0,0,1-36.17,19.38,9.69,9.69,0,0,1-3.75.17,14,14,0,0,1-3.2-1.4c.53-1.08.83-2.39,1.64-3.19a7.61,7.61,0,0,1,3.27-1.74A95.51,95.51,0,0,0,1015.24,850a36.3,36.3,0,0,1,6.73-3.32C1022.19,846.61,1022.84,847.52,1023.27,848Z"/><path d="M840,878.66c5.81-.14,10.73-2.13,15.91-1.62a3.4,3.4,0,0,1,3,1.93,1.93,1.93,0,0,1-1.5,2.9c-11.27,2.09-22.41,5.2-34,4.56a2.09,2.09,0,0,1-1.84-2.65,3.57,3.57,0,0,1,2.15-2.94,13.43,13.43,0,0,1,3.62-1.07C831.79,879.3,836.25,879,840,878.66Z"/><path d="M1033.52,786a38.51,38.51,0,0,1,11.33,6.58c3.5,2.88,6.13,6.4,6,11.29,0,1.39-.64,2.49-1.69,2.78-.44.13-1.15-.43-1.65-.81a4,4,0,0,1-1.27-1.38,20.8,20.8,0,0,0-10.14-10.75,19.44,19.44,0,0,1-7.53-5.59c-1-1.3-1.18-2.3-.18-3a2.31,2.31,0,0,1,1.61-.51A33.08,33.08,0,0,1,1033.52,786Z"/><path class="cls-2" d="M438.38,699.14c6.53-1.39,12.32-1.91,17.56-4.53a2.68,2.68,0,0,0,1-1.56,1.89,1.89,0,0,0-1.88-2.38c-3.17-.29-6.37-.14-9.55-.18a5,5,0,0,1-1.9-.22A3.46,3.46,0,0,1,442.2,689a13.68,13.68,0,0,1-1.65-3.37c-1.45-5.55-3.22-11-3.06-16.91.05-1.66,1.31-4.05,2.73-4.73,1.15-.56,2.24-1.27,3.43-1.71,19.82-7.25,39.74-14.14,60.36-18.84,3.73-.85,7.37-2.1,11.23-2.39,1.12-.08,4.58,1.63,5,2.58,1.62,4.16,3.14,8.36,4.86,12.48a30.26,30.26,0,0,0,14.13,15.11,65.66,65.66,0,0,0,25.5,7.78,104.42,104.42,0,0,0,30.56-1.36c10-2.07,20-4.2,30-6.2,3.13-.62,6.32-.94,9.48-1.35,2.26-.29,5.29,2,5.57,4.21.17,1.27.47,2.52.55,3.79.23,3.19.14,6.42.57,9.58,3,22.21,3.07,44.64,4.74,67,.43,5.75.92,11.46,1.69,17.17.94,7,1.19,14,1.88,21a9,9,0,0,0,3.92,6.32,24.28,24.28,0,0,0,4.89,3,63.44,63.44,0,0,0,9.06,3.14c9.93,2.43,19.9,4.7,29.87,7a67.47,67.47,0,0,0,21,1.14c3.69-.32,6.51-4.75,5.36-8.51A25.46,25.46,0,0,0,714.08,791c-6.8-4.78-13.8-9.26-20.59-14.05a6.33,6.33,0,0,1-2.61-4.92,47.83,47.83,0,0,1-.18-5.73c.4-5.1.69-10.23,1.52-15.27a252.14,252.14,0,0,0,2.67-26.71c.08-1.28.11-2.56.23-3.84,1.94-19.73,3.61-39.48,4.21-59.31.11-3.53,3.59-7.12,7.27-7.84.63-.12,1.25-.32,1.88-.38a41.76,41.76,0,0,1,11.44.2,6.42,6.42,0,0,1,4.82,5.24c.21,3.19.51,6.37.53,9.56.14,15.35.17,30.7,1,46,.46,8.93,1.14,17.86,1.44,26.8.28,8.31.13,16.63.33,24.94a17.62,17.62,0,0,0,1.14,5.59,5.37,5.37,0,0,0,2.35,2.86c8.19,3.77,17,5.66,25.68,7.68,6.85,1.58,13.8,2.74,20.73,3.89,5.69.95,11.46,1.49,17.18.5a12.73,12.73,0,0,0,5-2.53,5.56,5.56,0,0,0,2.06-3.09,14.39,14.39,0,0,0-3.13-12.55,31.43,31.43,0,0,0-7.21-6.27c-6.44-4.16-13-8.11-19.4-12.33a6.53,6.53,0,0,1-2.83-4.8c-.06-.63-.16-1.27-.18-1.9,0-1.28-.09-2.57,0-3.84.82-10.2,1.47-20.41,2.56-30.58,1.37-12.72,2.87-25.42,3.63-38.2.21-3.53,3.18-5,6.89-3.52,41.1,16.89,79.12,38.78,112.71,68.18a336.35,336.35,0,0,1,56.82,64.66,56.63,56.63,0,0,1,3.85,6.61,7.2,7.2,0,0,1-.55,7.27c-2,3.28-4.34,6.32-8,8-5.8,2.68-11.52,5.54-17.39,8a105.8,105.8,0,0,1-31.35,8.49c-3.81.38-7.59,1.13-11.4,1.54a102.94,102.94,0,0,1-21.06-.07,460.7,460.7,0,0,0-47.86-2.66c-9,.06-17.86.72-26.48,3.58-7.28,2.42-14.7,4.39-22,6.82-17,5.68-34.18,10.63-51.64,14.59-12.46,2.83-25,5.44-37.79,6.34-11.48.81-22.82,2.89-34.36,3.23-21.75.63-43.51.94-65.2-.69a407.75,407.75,0,0,1-90.32-16.68c-12.21-3.78-24.47-7.41-36.71-11.08-3.06-.92-6.16-1.69-9.22-2.62a76.94,76.94,0,0,0-28.46-2.92c-6.36.5-12.72,1.18-19.06,2-16.51,2-33,3.72-49.7,3.54a159.38,159.38,0,0,1-52.57-9.57,181.32,181.32,0,0,1-34.27-17,18,18,0,0,1-3.93-4.09,5.19,5.19,0,0,1-.32-5.42c17.4-27.36,34.47-47.9,65.6-74.53,28.4-24.29,60-43.4,94.24-58.32,2.33-1,4.8-1.71,7.22-2.5s5.48,1.07,5.78,3.44c.57,4.43,1.08,8.88,1.58,13.32a7.18,7.18,0,0,1,0,1.91,8.76,8.76,0,0,1-2.46,5c-2.26,2.26-5.68,2.81-7.66,5.38a2.36,2.36,0,0,0-.39,1.84,2.8,2.8,0,0,0,2.79,1.94c2.64.06,4.9-1.33,7.31-2.1C433.29,701.14,436.25,699.93,438.38,699.14Z"/><path class="cls-2" d="M713.61,305.36c.62,16.64-7.12,39.21-16.5,52.25-11.31,15.73-26.45,25.57-44.33,31.81a51,51,0,0,1-7.43,1.81c-2.5.47-5.07.62-7.58,1.09-19.24,3.59-36.66-1.32-52.91-11.45-19.31-12-31.87-29.16-37.72-51.09-4.91-18.4-4.42-36.82,2.34-54.61,7.5-19.74,20.41-35.12,39.29-45.24a96,96,0,0,1,30.78-10,62,62,0,0,1,19.09,0c15.38,2.4,29.63,7.68,41.92,17.5a87.53,87.53,0,0,1,31.2,49.15A74.9,74.9,0,0,1,713.61,305.36Zm-71.85,49.11c-2.45.13-3.71.15-5,.29a6.43,6.43,0,0,0-1.73.54,2.64,2.64,0,0,0-1.75,3,2.58,2.58,0,0,0,2.37,2.27c9.33,1.1,18.68,2.1,28,3.1a20.45,20.45,0,0,0,3.75.11c1.23-.09,2.44-.43,3.66-.64,1.69-.3,2.1-1.16,1.6-2.72a3.25,3.25,0,0,0-2.34-2.54C660.55,355.87,650.52,355.56,641.76,354.47Zm-8-33.87a21.82,21.82,0,0,0-.93-3.64,7.91,7.91,0,0,0-11.11-3.54,11.89,11.89,0,0,0-1.56,1.06c-3,2.45-4.35,6.92-3,10.16,1.57,3.7,4.78,5.56,9.12,5.28a8.35,8.35,0,0,0,7.35-7.44C633.72,321.86,633.71,321.22,633.75,320.6Zm62.63,3.67c-.43-4.27-4.61-7.6-9.24-7.35-4.15.23-7.47,4.49-7.2,9.25.23,4.11,4.5,7.35,9.2,7.29S696.86,327.89,696.38,324.27Z"/><path class="cls-2" d="M756,621.72c-2.17-.32-8.47-1.36-14.8-2.19-14.57-1.91-29.15-3.71-43.72-5.57-14-1.78-27.89-3.53-41.81-5.46a26,26,0,0,1-7.24-2.34c-.95-.44-1.42-1.93-2.1-2.94,1.52-8.15,2.92-16.33,5.82-24.15.77-2.06,2.48-2.83,4.37-3.13,3.15-.51,6.34-.73,9.51-1.18a19,19,0,0,0,11.54-6.3,86,86,0,0,0,5.9-7.52c5.32-7.32,3.87-18.81-1.31-25.1a8,8,0,0,0-3-2.28c-3.54-1.44-7.17-2.67-10.76-4-1.91-.71-3.29-2.78-2.94-4.39.84-3.73,1.6-7.47,2.56-11.17,4.66-17.93,9.45-35.83,14-53.78,1.73-6.8,2.69-13.8,5.11-20.44.54-1.5,2.76-3.35,4.22-3.43a30.53,30.53,0,0,1,3.8-.24c5.74.41,11.47.91,17.2,1.36,2.56.2,5.38.29,7,2.4,1.05,1.37,1.15,3.52,1.51,5.35a5.53,5.53,0,0,0,3.47,4.11,20.13,20.13,0,0,0,3.65,1.16,74.5,74.5,0,0,0,7.49,1.6c11.4,1.48,22.65,4,34.15,4.83,3.8.27,7.53,1.38,11.32,1.93a6.82,6.82,0,0,0,6.75-2.65,32.67,32.67,0,0,0,3.07-4.81,5.11,5.11,0,0,1,4.6-2.88,69.78,69.78,0,0,1,20.81,2.62c2.4.67,4.62,3.67,4,5.63-.19.6-.23,1.25-.41,1.86-1.38,4.92-3.12,9.76-4.12,14.76-3.55,17.55-8.83,34.66-12.93,52.07a5.86,5.86,0,0,1-3.51,4.17,30.37,30.37,0,0,1-3.65,1.16,14.29,14.29,0,0,0-8.62,7.1,64.54,64.54,0,0,0-7,21.8,13.26,13.26,0,0,0,1.78,9.19,44.69,44.69,0,0,1,2.76,5,6.74,6.74,0,0,1,.8,3.67c-2.92,14.39-6,28.74-10.77,42.67-.34,1-3.51,2.62-4.88,2.53-.63,0-1.28.14-1.9.09C765.27,622.64,762.73,622.37,756,621.72ZM727.59,494.3c2.16-.05,3.11,1.72,4.46,2.91,2,1.8,4.47,2,7,1.74s3.74-1.69,2.32-3.2c-2.33-2.47-3.31-5.1-2.47-8.46,1.06-4.25,2.12-8.53,1.59-13a2.39,2.39,0,0,0-2.24-2.24,2.57,2.57,0,0,0-1.69.73c-2.27,2.28-4,5.05-4,8.24-.07,5.3-2.39,9.61-5,13.88A39.35,39.35,0,0,0,730,476.24c-.7-5.15-3.09-7.73-8.74-8.23a11.38,11.38,0,0,0-7.3,1.53,5.08,5.08,0,0,1-6.85-.7c-3.33-3.54-7.34-4.67-12-4.7a6.2,6.2,0,0,0-5.6,4.23,52.18,52.18,0,0,0-2.56,16.85c0,1.5.72,2.5,1.74,2.64a2.26,2.26,0,0,0,1.78-.4,11.81,11.81,0,0,1,7.86-4.83c1.88-.29,3.71-.84,5.58-1.22,1.52-.32,3.92,1.25,4.35,2.8.67,2.44,1.14,4.94,2,7.3a5.41,5.41,0,0,0,4.14,3.51,24.4,24.4,0,0,0,5.64.44C722.55,495.31,724.93,494.06,727.59,494.3Zm39.63-.45a25.82,25.82,0,0,1,1-9.09c.64-2.3,4.43-4,6.11-2.34,1.9,1.83,3.75,3.18,6.53,3.27,4.41.13,5.3,2,5.67,6,.34,3.78.46,7.59.76,11.38,0,.56.46,1.5.79,1.55a3.15,3.15,0,0,0,3.25-1.45c3.39-6.08,6.76-12.19,10-18.35a3.34,3.34,0,0,0-.67-3.55c-.23-.27-1.27-.08-1.82.17-1.13.51-2.19,1.21-3.28,1.83-3,1.69-3.43,1.77-4.64-.31-1.39-2.39-3-4-6-3.61-2.71.41-4.83-.65-7-2.12a10.45,10.45,0,0,0-9.17-1.16c-2.29.74-4.22,2.53-6.4,3.71a1.91,1.91,0,0,1-1.75-.54c-1-1.5-1.24-3.58-3-4.51a2.49,2.49,0,0,0-3.32.9c-2.3,4-2.27,8.57-2.88,13-.43,3.08-2,6.07-1.05,9.28a3.08,3.08,0,0,0,2.85,2.14,2.27,2.27,0,0,0,1.73-.68,25.93,25.93,0,0,0,1.75-3.35c.27-.52.43-1.37.84-1.52,1.26-.45,1.56.57,2.22,2,2.74,6,5.66,7.52,12,6.86a4.69,4.69,0,0,0,3.3-1.75,3.49,3.49,0,0,0,.74-3.43,2.07,2.07,0,0,0-3-1.35c-1.29.5-2.42.84-3.61.31S767.44,495.62,767.22,493.85Z"/><path class="cls-2" d="M231.85,497.89l-2.8-.15a8.07,8.07,0,0,1-7.4-5.05c-.41-1.2-1-2.38-1.26-3.61-5.85-22.86-11.66-45.73-16.55-68.82a15.21,15.21,0,0,1-.36-3.8c.06-1.25.12-2.76.81-3.65a5,5,0,0,1,3.33-1.65c6.36-.29,12.75-.58,19.12-.47A61.44,61.44,0,0,0,251,406c9.46-3.8,18.78-8,28.08-12.15,5.81-2.62,11.42-5.68,17.22-8.33A183.81,183.81,0,0,1,325,375.06a92.63,92.63,0,0,1,30.31-3c3.29.21,5.59,2.1,6.73,5.71.19.61.52,1.18.67,1.79,5.75,24.19,12.16,48.22,16.68,72.69.42,2.29-1.64,5.1-4.07,5.55-1.88.35-3.75.77-5.63,1-3.79.53-7.59,1-11.39,1.46C345,462,332,465,319.74,470.86c-5.75,2.74-11.61,5.28-17.35,8.05-8.05,3.89-16.41,7-24.67,10.42-12.56,5.14-25.77,7.09-39.11,8.53C236.72,498.07,234.79,497.89,231.85,497.89Zm77.54-54.83c-4-.93-5.92-2.91-6.07-6-.13-2.5,0-5-.21-7.51-.32-4.91-3.05-8.07-7.48-9.88a3.69,3.69,0,0,0-1.82-.4,31,31,0,0,0-10.47,4A3,3,0,0,0,282,426.6c1.3,6.13,2.63,12.26,4.08,18.36a51.79,51.79,0,0,0,1.91,5.31,2.88,2.88,0,0,0,2.85,2.05,3,3,0,0,0,3.06-1.47,34.51,34.51,0,0,0,1.13-3.57c.82-2.31,2.23-2.7,4-1.14,1.4,1.23,2.76,2.52,4.24,3.66s3.79-.12,4.44-2c.58-1.71-.05-3.73,1.42-5.13a40.67,40.67,0,0,0,4.44,3.58,5.75,5.75,0,0,0,3.6.79c3.73-.62,7.52-1.18,10.85-3.15.36-.21.46-1.23.35-1.8s-.61-1.26-1.05-1.34a46.55,46.55,0,0,0-5.54-.67,3.12,3.12,0,0,1-3-2c-.89-2.1-.7-3.57.85-5.1.9-.89,2-1.61,2.87-2.51,1.88-1.91,1.73-3.63-.32-4.17-1.82-.49-3.67-.85-5.49-1.34-1.59-.41-2.27-3.63-.93-4.85s3.1-2.08,4.54-3.25c.29-.23.16-1.21,0-1.75a2,2,0,0,0-1.09-1.16c-3.91-1-7.57.06-11,1.84A4.32,4.32,0,0,0,306.6,419a36.72,36.72,0,0,0,2,13.12,40,40,0,0,1,1.79,7.37C310.53,440.64,309.75,441.88,309.39,443.06Zm-75.13-2a3.58,3.58,0,0,1-3.47-.07c-2-1.28-3.8-3.15-6.54-3-1.48.1-2.52.75-2.61,2.21-.41,6.26,1.17,12.26,2.61,18.26.58,2.4,1.51,4.72,2.22,7.09a2.32,2.32,0,0,0,2.76,1.91c2.34-.24,3-.71,3.62-3.26.31-1.2.69-2.38,1-3.57l-.48.34a8.75,8.75,0,0,1,1.88-.25c2,.17,3.16,1.79,4.78,2.63,4.22,2.18,6.54,1.48,9.14-2.79,1.43-2.35,2-2.54,4.21-1.41a62.16,62.16,0,0,0,6.73,3.37,7.37,7.37,0,0,0,5.52-.34c4.8-2,7.08-5.24,6.9-10.15a77.29,77.29,0,0,0-1-11.28c-.45-2.41-1.74-4.69-2.81-7-2.2-4.67-9.8-7.26-14.77-4.64a9.41,9.41,0,0,0-4.83,5.49c-1,3.07-1,6.21-.88,9.36,0,.62-.17,1.76-.35,1.78-1.37.12-1.92-.84-2.53-2.2a81,81,0,0,0-4.41-8.28,2,2,0,0,0-3.23-.28,53,53,0,0,0-3.91,6.35Zm105.08-34.27c-6.31.16-11.65,5.91-11.22,11.38.41,5.06,1.08,10.1,3.07,14.81a16.86,16.86,0,0,0,3.14,4.71c2.81,3.05,6.39,3.85,10.38,2.8a13.42,13.42,0,0,0,6.33-4,7.15,7.15,0,0,0,1.87-5.22,20.8,20.8,0,0,0-1.11-5.55c-1-3-4.4-4.23-7.75-3.09-1.4.48-1.81,1.43-1.27,3,.62,1.77,1.26,3.54,1.73,5.35.1.38-.45,1-.84,1.41a2.47,2.47,0,0,1-3.38.34c-3.4-2.9-5.49-8.44-5.38-13.55a5.53,5.53,0,0,1,2.89-4.58,3.67,3.67,0,0,1,1.67-.77,34.4,34.4,0,0,1,3.79.22,3.94,3.94,0,0,0,3.43-1.22c.52-.61-1.45-4.28-2.6-4.7C342.33,407.47,340.49,407.08,339.34,406.77Zm24.2,25.32c-.35-.43-.66-1.12-1.08-1.21s-1.55.25-1.6.54c-.28,1.62.46,2.46,1.83,2.11C363.07,433.44,363.26,432.59,363.54,432.09Z"/><path class="cls-2" d="M678.06,548.94c-.68,5.34-3,9.88-7.51,12.8-6,4-12.71,6-20,4.37a68.79,68.79,0,0,1-9.15-2.77,13.28,13.28,0,0,1-5.8-4.82A8.41,8.41,0,0,1,634,551.3a37.56,37.56,0,0,1,3.51-8.85,39.74,39.74,0,0,1,9.86-11.6c1.36-1.13,3.93-1.28,5.08-.15a36.18,36.18,0,0,1,2.67,2.73,10,10,0,0,0,6.35,3.87c3.15.47,6.31.91,9.44,1.53C674.86,539.62,678.61,545,678.06,548.94Z"/><path class="cls-2" d="M755.89,421.93c.62,1.79,1.23,3.57,1.85,5.35,3.1,2.22,7,2.9,10,5.51,1.31,1.15,3.54,1.24,5.32,1.88,3,1.08,6,2.13,8.94,3.34,2.68,1.1,4.26,5.18,3.2,8.18a22.34,22.34,0,0,1-1.73,3.37,4.7,4.7,0,0,1-4.84,2.34c-7.58-1-15.14-2.22-22.68-3.45-8.19-1.33-16.35-2.76-24.53-4.15-3.25-.55-5-4.09-3.69-7.38.24-.6.54-1.16.8-1.74,1.12-2.46,2.87-4.31,5.59-4.68,3.78-.51,7.61-.72,11.41-1A8.37,8.37,0,0,0,752,426a9,9,0,0,1,4.3-3.55Z"/><path class="cls-2" d="M809.94,549.05a26.05,26.05,0,0,1-4.38,13.11c-2.23,3.29-5.22,5.46-9.41,5.42a10.92,10.92,0,0,1-1.9-.18c-3.6-.69-6.65-5.24-5.74-8.55,1.52-5.51,3-11,6.08-15.93a11,11,0,0,1,5.66-4.81c4.67-1.69,9.46,1.17,9.68,5.91C810,545.28,809.94,546.55,809.94,549.05Z"/><path class="cls-2" d="M624.09,415.2c-5.24.12-8.94-.55-12.28-2.39s-6.76-3.31-8.84-6.7a2.87,2.87,0,0,1-.08-3.45,16.56,16.56,0,0,1,2.7-2.35,177.58,177.58,0,0,0,27.9,2.75c1.51,0,3.08,2.71,2.61,4.25a9.55,9.55,0,0,1-6.11,6.54A38.84,38.84,0,0,1,624.09,415.2Z"/><path class="cls-2" d="M614.6,458.47c-.92,5.83-.64,9.7-2.47,13.14-.23.44-.91.66-1.41.93-1.37.78-2.52.43-3-1.14a151.3,151.3,0,0,1-5.41-23.78c-.08-.6.12-1.24.08-1.86a5.3,5.3,0,0,1,3.11-4.29c1.76-.55,3.62-1.05,5.38.14,2.76,1.86,4.51,4.42,4.45,7.75C615.25,453.12,614.73,456.86,614.6,458.47Z"/><path class="cls-2" d="M634.53,473.5c-.35-.53-1-1-1-1.58q-1.37-12.27-2.59-24.56a14,14,0,0,1,.33-1.86c.12-2.14,3.32-4.18,5.64-3.6,2.14.53,4.74,3.55,4.68,5.46-.27,8.9-1.66,17.55-5.69,25.61C635.71,473.29,635,473.33,634.53,473.5Z"/><path class="cls-2" d="M612.72,423.76a6.77,6.77,0,0,1-.33,1.78c-2.08,4.33-5.37,7.08-10.25,7.62a3.21,3.21,0,0,1-3.25-1.51c-2.54-4.5-3.76-9.48-5.11-14.42a2.54,2.54,0,0,1,3.28-3.23q6.91,3.19,13.75,6.57A3.83,3.83,0,0,1,612.72,423.76Z"/><path class="cls-2" d="M644.67,423.79c-.07,1-.57,3.43-1,5.86a2.34,2.34,0,0,1-2.56,2.11,4,4,0,0,1-3.24-1.42c-1.16-1.45-2.17-3-3.23-4.55a4.2,4.2,0,0,1,.43-5.1,11,11,0,0,1,2.88-2.27C643.07,415.87,645.15,417.07,644.67,423.79Z"/><path class="cls-2" d="M756.3,422.43a3.62,3.62,0,0,1,2.8-4.1,7.2,7.2,0,0,1,7,1.57c.94.87.71,2.4.06,3.48-.24.38-.84.9-1.15.83-3-.7-6.08-1.51-9.11-2.28Z"/><path d="M641.76,354.47c8.76,1.09,18.79,1.4,28.64,3.42a3.25,3.25,0,0,1,2.34,2.54c.5,1.56.09,2.42-1.6,2.72-1.22.21-2.43.55-3.66.64a20.45,20.45,0,0,1-3.75-.11c-9.35-1-18.7-2-28-3.1a2.58,2.58,0,0,1-2.37-2.27,2.64,2.64,0,0,1,1.75-3,6.43,6.43,0,0,1,1.73-.54C638.05,354.62,639.31,354.6,641.76,354.47Z"/><path d="M633.75,320.6c0,.62,0,1.26-.1,1.88a8.35,8.35,0,0,1-7.35,7.44c-4.34.28-7.55-1.58-9.12-5.28-1.38-3.24-.08-7.71,3-10.16a11.89,11.89,0,0,1,1.56-1.06A7.91,7.91,0,0,1,632.82,317,21.82,21.82,0,0,1,633.75,320.6Z"/><path d="M696.38,324.27c.48,3.62-2.64,9.13-7.24,9.19s-9-3.18-9.2-7.29c-.27-4.76,3-9,7.2-9.25C691.77,316.67,696,320,696.38,324.27Z"/><path d="M767.22,493.85c.22,1.77.86,2.76,2,3.25s2.32.19,3.61-.31a2.07,2.07,0,0,1,3,1.35,3.49,3.49,0,0,1-.74,3.43,4.69,4.69,0,0,1-3.3,1.75c-6.32.66-9.24-.87-12-6.86-.66-1.45-1-2.47-2.22-2-.41.15-.57,1-.84,1.52a25.93,25.93,0,0,1-1.75,3.35,2.27,2.27,0,0,1-1.73.68,3.08,3.08,0,0,1-2.85-2.14c-1-3.21.62-6.2,1.05-9.28.61-4.39.58-9,2.88-13a2.49,2.49,0,0,1,3.32-.9c1.78.93,2,3,3,4.51a1.91,1.91,0,0,0,1.75.54c2.18-1.18,4.11-3,6.4-3.71a10.45,10.45,0,0,1,9.17,1.16c2.19,1.47,4.31,2.53,7,2.12,2.94-.43,4.59,1.22,6,3.61,1.21,2.08,1.67,2,4.64.31,1.09-.62,2.15-1.32,3.28-1.83.55-.25,1.59-.44,1.82-.17a3.34,3.34,0,0,1,.67,3.55c-3.27,6.16-6.64,12.27-10,18.35a3.15,3.15,0,0,1-3.25,1.45c-.33-.05-.75-1-.79-1.55-.3-3.79-.42-7.6-.76-11.38-.37-4-1.26-5.85-5.67-6-2.78-.09-4.63-1.44-6.53-3.27-1.68-1.62-5.47,0-6.11,2.34A25.82,25.82,0,0,0,767.22,493.85Z"/><path d="M727.53,494.51c-2.6-.45-5,.8-7.48.95a24.4,24.4,0,0,1-5.64-.44,5.41,5.41,0,0,1-4.14-3.51c-.89-2.36-1.36-4.86-2-7.3-.43-1.55-2.83-3.12-4.35-2.8-1.87.38-3.7.93-5.58,1.22a11.81,11.81,0,0,0-7.86,4.83,2.26,2.26,0,0,1-1.78.4c-1-.14-1.76-1.14-1.74-2.64a52.18,52.18,0,0,1,2.56-16.85,6.2,6.2,0,0,1,5.6-4.23c4.64,0,8.65,1.16,12,4.7a5.08,5.08,0,0,0,6.85.7,11.38,11.38,0,0,1,7.3-1.53c5.65.5,8,3.08,8.74,8.23a39.35,39.35,0,0,1-2.41,18.69Zm-9.79-5.08c.6,0,1.44.36,1.76.08,4.15-3.54,5.47-8.11,4.42-13.36a3.59,3.59,0,0,0-2.51-2.41,2.3,2.3,0,0,0-3.17,1.08,19.58,19.58,0,0,0-3.44,10.44A4.4,4.4,0,0,0,717.74,489.43Zm-21-18.36a2.77,2.77,0,0,0-1.24,3.25,2.07,2.07,0,0,0,1.35,1.18,3.28,3.28,0,0,0,3.3-1.26,2,2,0,0,0-.19-1.77A3,3,0,0,0,696.74,471.07Z"/><path d="M727.55,494.93c2.65-4.27,5-8.58,5-13.88,0-3.19,1.73-6,4-8.24a2.57,2.57,0,0,1,1.69-.73,2.39,2.39,0,0,1,2.24,2.24c.53,4.44-.53,8.72-1.59,13-.84,3.36.14,6,2.47,8.46,1.42,1.51.33,2.91-2.32,3.2s-5,.06-7-1.74c-1.35-1.19-2.3-3-4.49-2.81A3.28,3.28,0,0,0,727.55,494.93Z"/><path d="M233.89,460.66c-.35,1.19-.73,2.37-1,3.57-.66,2.55-1.28,3-3.62,3.26a2.32,2.32,0,0,1-2.76-1.91c-.71-2.37-1.64-4.69-2.22-7.09-1.44-6-3-12-2.61-18.26.09-1.46,1.13-2.11,2.61-2.21,2.74-.2,4.49,1.67,6.54,3a3.56,3.56,0,0,0,3.46.07c-.11.42-.37.88-.28,1.26,0,.19,1,.43,1,.35.62-1,.19-1.42-1.17-1.25a53,53,0,0,1,3.91-6.35,2,2,0,0,1,3.23.28,81,81,0,0,1,4.41,8.28c.61,1.36,1.16,2.32,2.53,2.2.18,0,.37-1.16.35-1.78-.08-3.15-.14-6.29.88-9.36a9.41,9.41,0,0,1,4.83-5.49c5-2.62,12.57,0,14.77,4.64,1.07,2.27,2.36,4.55,2.81,7a77.29,77.29,0,0,1,1,11.28c.18,4.91-2.1,8.1-6.9,10.15a7.37,7.37,0,0,1-5.52.34,62.16,62.16,0,0,1-6.73-3.37c-2.19-1.13-2.78-.94-4.21,1.41-2.6,4.27-4.92,5-9.14,2.79-1.62-.84-2.82-2.46-4.78-2.63a9,9,0,0,0-1.86.24c.7-1.32.49-1.73-.61-1.23ZM265,450.74a22.3,22.3,0,0,0-1.56-11,11.27,11.27,0,0,0-2.07-3.05c-1.27-1.49-3.84-1.21-4.37.4-1.87,5.66-1,11,2.09,16a3.71,3.71,0,0,0,3.15,1.75C263.57,454.89,265,452.69,265,450.74Z"/><path d="M309.05,442.55c-1.4,1.5-.77,3.52-1.35,5.23-.65,1.9-3.09,3.06-4.44,2s-2.84-2.43-4.24-3.66c-1.77-1.56-3.18-1.17-4,1.14a34.51,34.51,0,0,1-1.13,3.57,3,3,0,0,1-3.06,1.47,2.88,2.88,0,0,1-2.85-2.05,51.79,51.79,0,0,1-1.91-5.31c-1.45-6.1-2.78-12.23-4.08-18.36a3,3,0,0,1,1.35-3.29,31,31,0,0,1,10.47-4,3.69,3.69,0,0,1,1.82.4c4.43,1.81,7.16,5,7.48,9.88.17,2.5.08,5,.21,7.51.15,3.06,2.08,5,6.07,6Zm-14.23-11.67a2.57,2.57,0,0,0-1.33-3.12c-.26-.13-1,.33-1.31.71a2.32,2.32,0,0,0,.18,3.12,1.5,1.5,0,0,0,1.26.47C294.1,431.86,294.43,431.29,294.82,430.88Z"/><path d="M339.34,406.77c1.15.31,3,.7,4.75,1.34,1.15.42,3.12,4.09,2.6,4.7a3.94,3.94,0,0,1-3.43,1.22,34.4,34.4,0,0,0-3.79-.22,3.67,3.67,0,0,0-1.67.77,5.53,5.53,0,0,0-2.89,4.58c-.11,5.11,2,10.65,5.38,13.55a2.47,2.47,0,0,0,3.38-.34c.39-.38.94-1,.84-1.41-.47-1.81-1.11-3.58-1.73-5.35-.54-1.55-.13-2.5,1.27-3,3.35-1.14,6.78.12,7.75,3.09a20.8,20.8,0,0,1,1.11,5.55,7.15,7.15,0,0,1-1.87,5.22,13.42,13.42,0,0,1-6.33,4c-4,1-7.57.25-10.38-2.8a16.86,16.86,0,0,1-3.14-4.71c-2-4.71-2.66-9.75-3.07-14.81C327.69,412.68,333,406.93,339.34,406.77Z"/><path d="M309.39,443.06c.36-1.18,1.14-2.42,1-3.54a40,40,0,0,0-1.79-7.37,36.72,36.72,0,0,1-2-13.12,4.32,4.32,0,0,1,1.59-3.23c3.4-1.78,7.06-2.82,11-1.84a2,2,0,0,1,1.09,1.16c.2.54.33,1.52,0,1.75-1.44,1.17-3.16,2-4.54,3.25s-.66,4.44.93,4.85c1.82.49,3.67.85,5.49,1.34,2.05.54,2.2,2.26.32,4.17-.89.9-2,1.62-2.87,2.51-1.55,1.53-1.74,3-.85,5.1a3.12,3.12,0,0,0,3,2,46.55,46.55,0,0,1,5.54.67c.44.08.95.82,1.05,1.34s0,1.59-.35,1.8c-3.33,2-7.12,2.53-10.85,3.15a5.75,5.75,0,0,1-3.6-.79,39.56,39.56,0,0,1-4.48-3.63Z"/><path d="M363.54,432.09c-.28.5-.47,1.35-.85,1.44-1.37.35-2.11-.49-1.83-2.11.05-.29,1.1-.64,1.6-.54S363.19,431.66,363.54,432.09Z"/><path class="cls-2" d="M717.74,489.43a4.4,4.4,0,0,1-2.94-4.17,19.58,19.58,0,0,1,3.44-10.44,2.3,2.3,0,0,1,3.17-1.08,3.59,3.59,0,0,1,2.51,2.41c1.05,5.25-.27,9.82-4.42,13.36C719.18,489.79,718.34,489.47,717.74,489.43Z"/><path class="cls-2" d="M696.74,471.07a3,3,0,0,1,3.22,1.4,2,2,0,0,1,.19,1.77,3.28,3.28,0,0,1-3.3,1.26,2.07,2.07,0,0,1-1.35-1.18A2.77,2.77,0,0,1,696.74,471.07Z"/><path class="cls-2" d="M265,450.74c0,1.95-1.47,4.15-2.76,4.09a3.71,3.71,0,0,1-3.15-1.75c-3.05-5-4-10.32-2.09-16,.53-1.61,3.1-1.89,4.37-.4a11.27,11.27,0,0,1,2.07,3.05A22.3,22.3,0,0,1,265,450.74Z"/><path class="cls-2" d="M233.82,441.4c1.36-.17,1.79.27,1.17,1.25-.05.08-1-.16-1-.35-.09-.38.17-.84.28-1.26Z"/><path class="cls-2" d="M233.89,460.66l-1.07-.9c1.1-.5,1.31-.09.61,1.23Z"/><path class="cls-2" d="M294.82,430.88c-.39.41-.72,1-1.2,1.18a1.5,1.5,0,0,1-1.26-.47,2.32,2.32,0,0,1-.18-3.12c.28-.38,1.05-.84,1.31-.71A2.57,2.57,0,0,1,294.82,430.88Z"/></svg>