<svg id="Ebene_1" data-name="Ebene 1" xmlns="http://www.w3.org/2000/svg" viewBox="0 0 1200.08 1106.42"><defs><style>.cls-1{fill:#f9f9f9;}.cls-2{fill:#fff;}</style></defs><path class="cls-1" d="M634.55,262.33h-.1c.21,3.18.24,6.4.69,9.56.81,5.64-1.38,9.89-5.38,13.62a68.58,68.58,0,0,0-9.11,9.84c-12,16.63-26.34,31.32-38.88,47.5A30.67,30.67,0,0,1,566,353.29c-1.22.38-2.45.74-3.67,1.11-19,5.7-38,11.31-57.11,16.48-12.35,3.33-24.68,6.7-37,10a22.17,22.17,0,0,1-5.67.74,10.59,10.59,0,0,1-3.58-1.07c-1.58-.61-2.7-3.55-1.94-4.82,1-1.63,1.89-3.31,3-4.87a86.49,86.49,0,0,0,13.86-31.4,105.32,105.32,0,0,0,.33-43.84c-1.87-8.78-4.59-17.32-9.36-25a97.51,97.51,0,0,0-35.39-34.4c-13.06-7.36-27.19-10.92-42.09-11.7-7.1-.37-14,.94-20.91,2.19a85,85,0,0,0-30.19,11.81c-19.15,12-31.93,29-38.67,50.73-3.48,11.2-4.29,22.56-3.88,34.14A78.56,78.56,0,0,0,300.8,353c1.57,3.49,3.27,6.94,5.1,10.31a86.23,86.23,0,0,0,25,28.66c8.33,6.12,17.6,10.29,27.41,13.48a58.05,58.05,0,0,0,18.82,3.13c3.84-.05,7.68,0,11.51,0,1.91,0,3.82.29,5.73.35,1.69.05,2.43.83,2,2.51a2.53,2.53,0,0,1-.94,1.48c-7.51,4.84-15.11,9.54-22.58,14.44C346.06,445,322,466,298.06,487.26a60.59,60.59,0,0,0-17.64,26.93c-1.39,4.26-2.84,8.5-4,12.82-3.45,13-6.54,26-8.77,39.3s-5.47,26.33-5.2,39.89a11.13,11.13,0,0,1-2.58,7.07c-4.28,5.58-8.61,11.12-12.87,16.72a61.28,61.28,0,0,0-9.2,16.74,8.82,8.82,0,0,0,4.68,11.2c4.09,1.91,5.65,4.69,5.85,8.88a25.87,25.87,0,0,0,1.08,5.61c.75,2.67,4.49,5.18,7.34,5.31,3.29.15,6.28-.92,9.3-1.93a4.57,4.57,0,0,1,5.06,1.43,27.3,27.3,0,0,0,2.63,2.74c5.06,4,14.16,1.48,16-4.56,1.3-4.27,2.41-8.61,3.41-13,.87-3.73,1.44-7.52,2.18-11.27.49-2.44,3.72-3.36,6.15-1.76,1.06.71,2,1.55,3.11,2.23a24.08,24.08,0,0,0,3.34,1.83,8.1,8.1,0,0,0,11-4.56,12.68,12.68,0,0,0,.65-7.51,32.8,32.8,0,0,0-4.32-10.62c-2-3.24-4.17-6.44-6.46-9.52-2.9-3.89-3.36-8.23-2.56-12.76.68-3.77,1.92-7.44,2.56-11.21,3.26-18.93,8.32-37.43,13-56a91.08,91.08,0,0,1,3.52-10.94,12.83,12.83,0,0,1,3.22-4.68,93.61,93.61,0,0,1,10.31-8.58c11.62-7.93,23.4-15.62,35.14-23.37a3,3,0,0,1,1.82-.51c1.21.15,2.66.2,3.54.89,3.1,2.4,4.79,6,6.73,9.23,9.15,15.39,18.28,30.8,27.24,46.31a365.4,365.4,0,0,1,19.21,37.54c5.07,11.74,10.06,23.52,15.09,35.27,4.27,10,8.46,20,12.87,30a33.88,33.88,0,0,0,4.19,6.33,3.23,3.23,0,0,0,3.46,1.13,20.54,20.54,0,0,0,5.16-2.39c6.38-4.26,12.27-9.25,19.09-12.82a5.12,5.12,0,0,1,3.66-.16,21.3,21.3,0,0,1,5,2.72c13.6,9.59,27.63,18.49,41.7,27.36,15.14,9.54,29.85,19.76,44.75,29.69,1.21.81,2.21,4.06,1.64,5.2-.85,1.71-1.69,3.42-2.57,5.11-11.85,22.67-23.59,45.4-34,68.78-2.34,5.26-4.48,10.6-6.8,15.86a44,44,0,0,1-5.9,9.85c-2.4,3-4.69,6.06-6.91,9.18-2.1,3-1.79,7.75.4,10.84a33.64,33.64,0,0,0,6.63,6.85c16.58,13.16,34.5,24.27,52.86,34.72a37.07,37.07,0,0,0,5.31,2.09c2.08.77,5.46-1.3,5.85-3.51a17.33,17.33,0,0,0-.48-9.45,76.5,76.5,0,0,0-4.68-10.49c-3.82-6.65-8-13.1-12-19.66-1.32-2.17-2.56-4.4-3.77-6.64a3.44,3.44,0,0,1,.14-3.66c6.79-10.07,13.08-20.44,19.79-30.57,7.76-11.71,14.37-24.17,22-36,4.83-7.54,9.46-15.2,14.19-22.8,4.06-6.52,8-13.14,10.72-20.33a25.94,25.94,0,0,0-.65-20.53,40.07,40.07,0,0,0-7.15-11.3c-4-4.19-7.92-8.36-12-12.37-16-15.63-32.32-31-49.37-45.49-1.35-1.15-1.36-4,0-5,2.57-1.88,5-4,7.77-5.56q21.49-12.64,43.12-25.06,20-11.4,40.18-22.43a138.94,138.94,0,0,1,13.87-6.51,13,13,0,0,1,5.68-.51,29,29,0,0,1,5.6,1.24c16,4.49,32,9.18,48,13.47s31.62,10.29,48.19,12.59a22.17,22.17,0,0,1,5.37,2c2.93,1.25,5.81,2.67,8.77,3.85,2.37.94,4.84,1.66,7.27,2.43,3.74,1.19,7.51-.26,9.91-3.86,1.77-2.65,3.58-5.3,5.16-8.07,3.47-6.12,6.6-12.44,10.23-18.45,6-9.91,10.16-20.64,14.76-31.18a8.84,8.84,0,0,0,.83-3.72,27.44,27.44,0,0,0-.89-5.61c-.38-1.53-2.88-3.08-4.39-3.18a16.24,16.24,0,0,0-9.18,2.15,144.06,144.06,0,0,0-26.74,18.54c-1.42,1.28-2.81,2.61-4.29,3.81a7,7,0,0,1-7.2,1.16c-4.74-1.9-9.36-4.12-14-6.24-14.56-6.62-29.47-12.37-44.33-18.24-12.48-4.94-25.17-9.32-37.71-14.11-6.62-2.52-13.53-3.8-20.38-5.37a19.72,19.72,0,0,0-9.5.28A139.87,139.87,0,0,0,653.43,507c-12.16,5.67-24.29,11.42-36.44,17.13-4.63,2.17-9.24,4.39-13.92,6.45a46,46,0,0,1-5.49,1.71,5.6,5.6,0,0,1-5.34-1.25c-7.41-6.2-12.87-14.18-19.26-21.32a163.28,163.28,0,0,1-25.31-38.3c-6.39-13.24-12.46-26.64-18.53-40a40.3,40.3,0,0,1-2-7.35,3.13,3.13,0,0,1,1.3-3.36,20.76,20.76,0,0,1,4.86-3c12.67-4.49,24.88-10.08,37.33-15.09,10.12-4.06,19.66-9.26,29.43-14a36.14,36.14,0,0,0,9.19-6.84A174.12,174.12,0,0,0,625.62,363c14.88-19.23,29.52-38.63,41.88-59.63a24.46,24.46,0,0,1,9.61-9.1q11.76-6.48,23.4-13.17a19,19,0,0,0,8.35-10.17,10.53,10.53,0,0,0,.17-7.5,8.07,8.07,0,0,0-3.41-4.39c-1.45-.88-3.28-1.88-1.84-4.4a17.4,17.4,0,0,0,2.13-9.23c-.13-5.24-5.24-9.8-10.25-9-1.25.19-2.43.75-3.67,1-2.86.68-3.62.14-3.71-2.54a13.5,13.5,0,0,1,.07-1.91c.33-2.9-1-4.87-3.47-6.18-4.79-2.58-8.59-2.13-12.31,1.19a61.17,61.17,0,0,0-10.2,11.41c-1.77,2.63-3.75,5.12-5.67,7.66a3,3,0,0,1-4.62-.15c-.65-1.1-1.15-2.29-1.84-3.36a9,9,0,0,0-11.85-2.69,7.8,7.8,0,0,0-2.6,2.69,12.83,12.83,0,0,0-1.93,7.32C633.9,254.68,634.3,258.5,634.55,262.33Z"/><path class="cls-1" d="M816.69,989.19c21.86.36,28.21-.17,47.75-4.32,13.81-2.93,27.16-7.19,39.52-14.22,3.89-2.21,8.08-3.87,12-6.1,11.64-6.72,23-13.88,33-23,30.54-27.92,51.35-61.66,61.16-102.07,1.82-7.52,2.45-15.15,3.31-22.75,1.31-11.42,2.83-22.94,1.68-34.43-1.27-12.7-2.68-25.38-5.7-37.89C1001,710,984.66,680.17,959.85,655c-2.7-2.74-5.48-5.38-8.13-8.16A108.3,108.3,0,0,0,932.53,631a225.55,225.55,0,0,0-31.72-17.85,221.51,221.51,0,0,0-23.37-8.6c-10.43-3.3-21.15-4.92-31.9-6.38a192.88,192.88,0,0,0-72.36,4.13,185.76,185.76,0,0,0-70.29,34c-9.1,7.06-18,14.38-25.38,23.33-5.69,6.91-11.25,13.93-16.8,21a14,14,0,0,0-2.66,10.86c.33,2.54.79,5,1.15,7.59a26.74,26.74,0,0,1-1.58,13.19c-4.21,11.49-9.62,22.32-17.94,31.46a32.64,32.64,0,0,0-7.79,15.16c-.69,3.11-1.86,6.12-2.62,9.22a58.32,58.32,0,0,0-1.33,7.54,195.24,195.24,0,0,0,1.11,47.83c2.86,20.38,9.57,39.73,18.58,58.24,12,24.55,29.47,44.74,49.57,62.89.94.85,2,1.56,3,2.34a233.73,233.73,0,0,0,35.39,22.88,176.12,176.12,0,0,0,41.3,15.12c6.83,1.61,13.69,3.24,20.77,3.53S811.74,989,816.69,989.19Z"/><path class="cls-1" d="M843.8,358.23c-.5-.84-.9-2.2-1.81-2.93a51.33,51.33,0,0,0-6.36-4.24c-10.47-6.08-20.94-12.15-31.48-18.12q-16.64-9.42-33.4-18.62a55.67,55.67,0,0,0-7-2.93c-1.82-.7-6.14.73-7,2.2-.61,1.1-1.31,2.17-1.83,3.32a187.82,187.82,0,0,1-11.62,21.95A196.89,196.89,0,0,1,714,376.47c-7.28,7.18-15,13.79-23,20.21a13.85,13.85,0,0,0-3.82,4.14,3.64,3.64,0,0,0,0,3.65c1.18,2.35,3.22,3.88,5.11,5.57,21.41,19.12,44.21,36.57,65.87,55.38a7.15,7.15,0,0,0,8.82,0c12.46-10,24.18-20.76,34-33.42q4.11-5.28,8.37-10.45c14.78-17.87,25.09-38.33,34.31-59.4C844.2,361.14,843.8,359.71,843.8,358.23Z"/><path class="cls-1" d="M457.71,773.07c-.67-1.05-1.12-2.38-2-3.09-3.54-2.71-7.2-5.28-10.88-7.8A156.62,156.62,0,0,1,418.55,740c-13.51-14.49-26-29.8-35.45-47.35a17.47,17.47,0,0,0-3.25-4.68c-1.13-1-3.92-1.92-5.23-1.21-1.11.61-2.37,1-3.42,1.67-22.94,15-45.65,30.4-67.57,46.91-1,.75-1.84,1.75-2.78,2.6-1.27,1.15-2.1,3.91-1.5,5.24a85.94,85.94,0,0,0,3.91,8.69c3.87,6.6,8,13,12,19.55A225.82,225.82,0,0,0,341,804.64c8.62,9.45,18.17,17.88,27.36,26.72,3.67,3.52,7.77,6.6,11.69,9.86.49.41,1.1.66,1.61,1,2.72,2,8,1.71,10.77-.55,1.48-1.21,3-2.38,4.35-3.72q10.23-10.07,20.37-20.21c12.19-12.17,24.41-24.32,36.5-36.58a34.15,34.15,0,0,0,4.29-6.26C458.17,774.51,457.79,773.7,457.71,773.07Z"/><path class="cls-1" d="M553.21,253.72c1.41-.92,3.41-1.63,4.48-3,8.51-11.18,17.82-21.68,26.74-32.51,7.29-8.85,14.2-18,21.16-27.15a47.67,47.67,0,0,0,3.73-6.63c1-1.86-.11-5.66-1.89-6.89-1.57-1.08-3-2.33-4.68-3.27-8.31-4.78-16.08-10.34-23.94-15.8A150.23,150.23,0,0,1,543.22,124c-4.16-5.64-8.5-11.14-12.77-16.7-2.21-2.88-7.46-3.87-10.38-1.85a93.14,93.14,0,0,0-7.65,5.7c-13.52,11.66-27,23.32-40.41,35.14-4.76,4.21-9.12,8.88-13.65,13.35-1,1-1.26,3.83-.46,5.42,1.14,2.27,2.19,4.61,3.5,6.78,8.64,14.28,19.48,26.78,31.28,38.49,15.95,15.81,34,28.8,53.26,40.3a49.79,49.79,0,0,0,5.15,2.48A14.42,14.42,0,0,0,553.21,253.72Z"/><path class="cls-1" d="M205.77,616.78a17.92,17.92,0,0,0-3.79-.14c-5,.84-10,1.88-15.06,2.75-17,3-33.94,5.84-50.9,8.84-3.13.56-6.2,1.53-9.28,2.36-4.11,1.1-5.92,4-5.35,8.68.38,3.16.78,6.33,1.41,9.45.76,3.75,1.71,7.47,2.71,11.16,2.83,10.47,5.85,20.89,8.58,31.39a31,31,0,0,0,13.07,18.24c4.21,2.87,8.25,6,12.67,8.57,9.43,5.36,19,10.43,28.59,15.52a17.94,17.94,0,0,0,13,1.63c11.17-2.67,22.21-5.8,33.08-9.52a22.77,22.77,0,0,0,3.35-1.82,5.85,5.85,0,0,0,2.2-4.94c-1.27-5-3.64-9.49-5.68-14.14-3.58-8.18-7.06-16.38-9.9-24.88a316.28,316.28,0,0,1-11.8-44.34c-.9-5-2.1-10-3.15-15C209.18,619,207.14,616.87,205.77,616.78Z"/><path class="cls-1" d="M816.93,302a152.68,152.68,0,0,0,16.85-3.49c17.92-4.59,35.93-8.81,53.9-13.18,1.86-.45,3.73-.89,5.57-1.4s3.66-1.11,5.49-1.68c3.33-1,5.49-4.13,5-7.18a264.08,264.08,0,0,0-8.88-39.15,240.22,240.22,0,0,0-41.64-77.05c-.39-.48-1-.81-1.41-1.27-1.06-1.15-4-1.83-5.31-1.2-26.56,12.46-52.89,25.4-79.1,38.58-.55.27-1,.82-1.5,1.15-2,1.2-2.86,4.8-1.92,6.76,2,4.11,5.18,7.25,8,10.73,18.46,23,29.22,49.19,33.3,78.27.35,2.51,1,5,1.52,7.47.19.92,3.6,3.47,4.46,3.36Z"/><path class="cls-1" d="M917,521.26c1.22-.25,2.62-.21,3.62-.83a58.48,58.48,0,0,0,7.8-5.49,245.38,245.38,0,0,0,36.21-39.45,169.4,169.4,0,0,0,9.51-14.38c4.55-7.69,8.88-15.52,13.12-23.39a85.16,85.16,0,0,0,3.7-8.8c.53-1.29-.31-4.33-1.42-5.29-1.44-1.24-2.83-2.57-4.37-3.68Q955.65,398.71,926,377.53c-.51-.37-1.06-.71-1.58-1.07-4.82-3.29-8.78-2.5-10.86,2.47a199.32,199.32,0,0,1-12.06,23.94c-11.41,19.47-25.48,36.67-43.26,50.72-2,1.58-3.89,3.31-5.78,5s-1.83,6.88.15,8.83c2.73,2.68,5.42,5.41,8.31,7.91q21,18.15,42.17,36.19c3.39,2.9,6.8,5.78,10.33,8.5C914.4,520.76,915.83,520.87,917,521.26Z"/><path d="M634.55,262.33c-.25-3.83-.65-7.65-.69-11.48a12.83,12.83,0,0,1,1.93-7.32,7.8,7.8,0,0,1,2.6-2.69,9,9,0,0,1,11.85,2.69c.69,1.07,1.19,2.26,1.84,3.36a3,3,0,0,0,4.62.15c1.92-2.54,3.9-5,5.67-7.66A61.17,61.17,0,0,1,672.57,228c3.72-3.32,7.52-3.77,12.31-1.19,2.44,1.31,3.8,3.28,3.47,6.18a13.5,13.5,0,0,0-.07,1.91c.09,2.68.85,3.22,3.71,2.54,1.24-.3,2.42-.86,3.67-1,5-.76,10.12,3.8,10.25,9a17.4,17.4,0,0,1-2.13,9.23c-1.44,2.52.39,3.52,1.84,4.4a8.07,8.07,0,0,1,3.41,4.39,10.53,10.53,0,0,1-.17,7.5,19,19,0,0,1-8.35,10.17q-11.65,6.68-23.4,13.17a24.46,24.46,0,0,0-9.61,9.1c-12.36,21-27,40.4-41.88,59.63a174.12,174.12,0,0,1-16.39,18.78,36.14,36.14,0,0,1-9.19,6.84c-9.77,4.73-19.31,9.93-29.43,14-12.45,5-24.66,10.6-37.33,15.09a20.76,20.76,0,0,0-4.86,3,3.13,3.13,0,0,0-1.3,3.36,40.3,40.3,0,0,0,2,7.35c6.07,13.39,12.14,26.79,18.53,40A163.28,163.28,0,0,0,573,509.74c6.39,7.14,11.85,15.12,19.26,21.32a5.6,5.6,0,0,0,5.34,1.25,46,46,0,0,0,5.49-1.71c4.68-2.06,9.29-4.28,13.92-6.45,12.15-5.71,24.28-11.46,36.44-17.13a139.87,139.87,0,0,1,23.35-8.65,19.72,19.72,0,0,1,9.5-.28c6.85,1.57,13.76,2.85,20.38,5.37,12.54,4.79,25.23,9.17,37.71,14.11,14.86,5.87,29.77,11.62,44.33,18.24,4.65,2.12,9.27,4.34,14,6.24a7,7,0,0,0,7.2-1.16c1.48-1.2,2.87-2.53,4.29-3.81a144.06,144.06,0,0,1,26.74-18.54,16.24,16.24,0,0,1,9.18-2.15c1.51.1,4,1.65,4.39,3.18a27.44,27.44,0,0,1,.89,5.61,8.84,8.84,0,0,1-.83,3.72c-4.6,10.54-8.78,21.27-14.76,31.18-3.63,6-6.76,12.33-10.23,18.45-1.58,2.77-3.39,5.42-5.16,8.07-2.4,3.6-6.17,5-9.91,3.86-2.43-.77-4.9-1.49-7.27-2.43-3-1.18-5.84-2.6-8.77-3.85a22.17,22.17,0,0,0-5.37-2c-16.57-2.3-32.16-8.3-48.19-12.59s-32-9-48-13.47a29,29,0,0,0-5.6-1.24,13,13,0,0,0-5.68.51,138.94,138.94,0,0,0-13.87,6.51q-20.18,11.05-40.18,22.43-21.66,12.36-43.12,25.06c-2.73,1.61-5.2,3.68-7.77,5.56-1.34,1-1.33,3.83,0,5,17,14.51,33.34,29.86,49.37,45.49,4.12,4,8.09,8.18,12,12.37a40.07,40.07,0,0,1,7.15,11.3,25.94,25.94,0,0,1,.65,20.53c-2.74,7.19-6.66,13.81-10.72,20.33-4.73,7.6-9.36,15.26-14.19,22.8-7.6,11.84-14.21,24.3-22,36-6.71,10.13-13,20.5-19.79,30.57a3.44,3.44,0,0,0-.14,3.66c1.21,2.24,2.45,4.47,3.77,6.64,4,6.56,8.16,13,12,19.66a76.5,76.5,0,0,1,4.68,10.49,17.33,17.33,0,0,1,.48,9.45c-.39,2.21-3.77,4.28-5.85,3.51a37.07,37.07,0,0,1-5.31-2.09c-18.36-10.45-36.28-21.56-52.86-34.72a33.64,33.64,0,0,1-6.63-6.85c-2.19-3.09-2.5-7.88-.4-10.84,2.22-3.12,4.51-6.2,6.91-9.18a44,44,0,0,0,5.9-9.85c2.32-5.26,4.46-10.6,6.8-15.86,10.4-23.38,22.14-46.11,34-68.78.88-1.69,1.72-3.4,2.57-5.11.57-1.14-.43-4.39-1.64-5.2-14.9-9.93-29.61-20.15-44.75-29.69-14.07-8.87-28.1-17.77-41.7-27.36a21.3,21.3,0,0,0-5-2.72,5.12,5.12,0,0,0-3.66.16c-6.82,3.57-12.71,8.56-19.09,12.82a20.54,20.54,0,0,1-5.16,2.39,3.23,3.23,0,0,1-3.46-1.13,33.88,33.88,0,0,1-4.19-6.33c-4.41-9.94-8.6-20-12.87-30-5-11.75-10-23.53-15.09-35.27a365.4,365.4,0,0,0-19.21-37.54c-9-15.51-18.09-30.92-27.24-46.31-1.94-3.27-3.63-6.83-6.73-9.23-.88-.69-2.33-.74-3.54-.89a3,3,0,0,0-1.82.51c-11.74,7.75-23.52,15.44-35.14,23.37a93.61,93.61,0,0,0-10.31,8.58,12.83,12.83,0,0,0-3.22,4.68,91.08,91.08,0,0,0-3.52,10.94c-4.68,18.6-9.74,37.1-13,56-.64,3.77-1.88,7.44-2.56,11.21-.8,4.53-.34,8.87,2.56,12.76,2.29,3.08,4.42,6.28,6.46,9.52a32.8,32.8,0,0,1,4.32,10.62,12.68,12.68,0,0,1-.65,7.51,8.1,8.1,0,0,1-11,4.56,24.08,24.08,0,0,1-3.34-1.83c-1.07-.68-2.05-1.52-3.11-2.23-2.43-1.6-5.66-.68-6.15,1.76-.74,3.75-1.31,7.54-2.18,11.27-1,4.35-2.11,8.69-3.41,13-1.84,6-10.94,8.59-16,4.56a27.3,27.3,0,0,1-2.63-2.74,4.57,4.57,0,0,0-5.06-1.43c-3,1-6,2.08-9.3,1.93-2.85-.13-6.59-2.64-7.34-5.31a25.87,25.87,0,0,1-1.08-5.61c-.2-4.19-1.76-7-5.85-8.88a8.82,8.82,0,0,1-4.68-11.2A61.28,61.28,0,0,1,247,630c4.26-5.6,8.59-11.14,12.87-16.72a11.13,11.13,0,0,0,2.58-7.07c-.27-13.56,3-26.66,5.2-39.89S273,540,276.43,527c1.15-4.32,2.6-8.56,4-12.82a60.59,60.59,0,0,1,17.64-26.93C322,466,346.06,445,372.89,427.37c7.47-4.9,15.07-9.6,22.58-14.44a2.53,2.53,0,0,0,.94-1.48c.4-1.68-.34-2.46-2-2.51-1.91-.06-3.82-.31-5.73-.35-3.83-.06-7.67-.08-11.51,0a58.05,58.05,0,0,1-18.82-3.13c-9.81-3.19-19.08-7.36-27.41-13.48a86.23,86.23,0,0,1-25-28.66c-1.83-3.37-3.53-6.82-5.1-10.31a78.56,78.56,0,0,1-7.11-29.65c-.41-11.58.4-22.94,3.88-34.14,6.74-21.68,19.52-38.72,38.67-50.73a85,85,0,0,1,30.19-11.81c6.94-1.25,13.81-2.56,20.91-2.19,14.9.78,29,4.34,42.09,11.7a97.51,97.51,0,0,1,35.39,34.4c4.77,7.72,7.49,16.26,9.36,25a105.32,105.32,0,0,1-.33,43.84A86.49,86.49,0,0,1,460,370.84c-1.09,1.56-2,3.24-3,4.87-.76,1.27.36,4.21,1.94,4.82a10.59,10.59,0,0,0,3.58,1.07,22.17,22.17,0,0,0,5.67-.74c12.36-3.28,24.69-6.65,37-10,19.13-5.17,38.13-10.78,57.11-16.48,1.22-.37,2.45-.73,3.67-1.11a30.67,30.67,0,0,0,15.75-10.43c12.54-16.18,26.91-30.87,38.88-47.5a68.58,68.58,0,0,1,9.11-9.84c4-3.73,6.19-8,5.38-13.62-.45-3.16-.48-6.38-.69-9.56Zm49.71-8.89c4-.09,4-.09,3.86-4.52,1.21-1.13,1.71-.9,1.51.72a2.74,2.74,0,0,0-1.16-.12c-1.21,1.51-2.42,3-3.54,4.6-1.54,1.14-3,2.33-3.57,4.29-1.21.39-2.41.88-3.64,1.15-4.25.95-7.37-2.49-6.24-6.85.16-.62.42-1.21.63-1.81.42-1.21.88-2.4,1.26-3.62a3.48,3.48,0,0,0-.55-3.49c-.89-1-1.88-.64-2.92.7q-6.48,8.3-13,16.54c-.89,1.12-3.9,1.87-5.31,1.34a15.25,15.25,0,0,1-1.78-.69c-1.63-.89-3-2.33-5.08-2.26a11.58,11.58,0,0,0-.81,5.61c.15,3.82.23,7.66.49,11.47a14.17,14.17,0,0,0,2.89,7,25.88,25.88,0,0,0,8.44,7.65c2.94,1.7,5.95,2.35,9,.5,4.37-2.64,8.75-5.27,13-8.16a149.16,149.16,0,0,1,12.87-8.18c.71-1,1.42-1.93,2.07-2.93,0,0-.69-.76-1.07-.77-2-.07-2,.44-.4,4.27a21,21,0,0,0-6.1-4.42,6.5,6.5,0,0,1-3.6-6.13c0-2.47.69-5-.53-7.32C685.47,258.24,685.66,258,684.26,253.44ZM254,645.14a3.81,3.81,0,0,1,1.6-3.24,9.94,9.94,0,0,1,1.63-.9,3.79,3.79,0,0,1,5.23,3.49c.1,5.83-3,11.07-2.84,16.86,0,1.46.66,2.61,1.66,2.73,1.38.16,2.32-.71,3.16-1.79a32.37,32.37,0,0,0,3.54-6.71,19.61,19.61,0,0,1,3-4.79,6.39,6.39,0,0,1,3.22-1.57c1.24-.31,3.69,2.16,3.8,3.71.23,3.17.32,6.35.61,9.51a14.31,14.31,0,0,0,1,3.59,6,6,0,0,0,1.19,1.47c.46-.4,1.06-.71,1.34-1.21,3.15-5.69,3.6-12.08,4.69-18.31a25.19,25.19,0,0,1,3.41-8.83,7.88,7.88,0,0,1,8-3.78c2,.34,3.41,1.6,5,2.68a3.25,3.25,0,0,0,3.46.45c1.13-.59,1.24-1.73.39-3.09-3.38-5.39-6.73-10.79-10.19-16.11a7.43,7.43,0,0,0-4.55-3.23c-4.94-1.15-9.88-2.37-14.88-3.27a8.82,8.82,0,0,0-8.62,2.91,140.89,140.89,0,0,0-15.41,21.69,4.47,4.47,0,0,0-.24,3.72c.39,1.2.74,2.42,1.11,3.59-1.24.38-1.47.19-.68-.56ZM383.3,400.75c13.79,0,13.87,0,26.05-4,2.42-.81,4.83-1.66,7.24-2.49a67.22,67.22,0,0,0,32.1-23.19c7.88-10.21,13.82-21.43,16.56-34.15,2.29-10.66,3.74-21.38,2-32.29-2-12.77-5.92-24.8-14.12-35.09-2-2.5-3.76-5.16-5.78-7.63a58.62,58.62,0,0,0-5.21-5.59c-13-12-28-19.83-45.63-22.5a71.56,71.56,0,0,0-21-.24,95.24,95.24,0,0,0-38.94,15.12,35.69,35.69,0,0,0-4.48,3.58A108.27,108.27,0,0,0,315.77,271a79.53,79.53,0,0,0-13.18,35.57c-1.75,14.13.36,28,5.15,41.42,2.83,7.95,7.46,14.79,12.59,21.32a78.74,78.74,0,0,0,26.18,22C358.62,397.43,371.16,401.73,383.3,400.75ZM423.84,409a86,86,0,0,0,9.22-1.08,21.65,21.65,0,0,0,14.84-10.6c.93-1.63,1.72-3.35,2.5-5.06a13.06,13.06,0,0,0,.47-1.79,3,3,0,0,0-1-3.41,3.24,3.24,0,0,0-3.37-.41,6.51,6.51,0,0,0-1.58,1c-8.53,6.5-17.5,12.19-27.92,15.25a3.73,3.73,0,0,0-1.47,1.12,5.3,5.3,0,0,0-1,1.48c-.65,1.53-.06,2.37,1.67,2.57C418.73,408.35,421.21,408.67,423.84,409ZM456,450.45c-2.25-5.7-3.63-9.25-5-12.77a11.89,11.89,0,0,0-3.6-4.34c-1.34-1.18-4-1.09-5,.29-1.5,2-2.92,4.08-4.38,6.11-.38.52-1.22,1.11-1.12,1.46a7.35,7.35,0,0,0,1.54,3.39c6,5.63,12.12,11.13,18.22,16.65a3.56,3.56,0,0,0,1.66.79,2.37,2.37,0,0,0,1.65-.22c.42-.28.91-1.12.77-1.44C458.87,456.34,456.94,452.35,456,450.45ZM426.42,416c-5.72.44-7.58.55-9.44.75-1.23.13-2.45.4-3.67.58a2.12,2.12,0,0,0-1.91,2.6,2.6,2.6,0,0,0,.56,1.6c4.57,4.33,10.15,7,15.78,9.58a9,9,0,0,0,1.83.28c2.24.5,5.5-1.49,5.62-3.63.14-2.47.07-4.95,0-7.42-.08-2.27-2.76-4.38-5.15-4.35S425,416,426.42,416Zm52,17.28c-.73-1.83-2.19-6.06-4.1-10.08-1.42-3-4.16-4.63-7.43-5.4a2.44,2.44,0,0,0-3.19,1.37c-1.24,2.42-1.65,5-.06,7.2,4.43,6.22,8.59,12.66,14.17,18,1.21,1.16,2.27,1.28,2.85.38a2.7,2.7,0,0,0,.59-1.73C480.64,440.53,479.86,438.11,478.43,433.27Zm-11.05-27.09c-.14-3.76-.51-7.44-3.31-10.38-1-1.06-2.19-1.53-3.36-.63a19.11,19.11,0,0,0-5.56,7.23,2.82,2.82,0,0,0,.72,3.39,11.07,11.07,0,0,0,8.7,2.49A3.82,3.82,0,0,0,467.38,406.18Z"/><path d="M816.69,989.19c-5-.22-12-.57-19-.85s-13.94-1.92-20.77-3.53a176.12,176.12,0,0,1-41.3-15.12,233.73,233.73,0,0,1-35.39-22.88c-1-.78-2.09-1.49-3-2.34-20.1-18.15-37.62-38.34-49.57-62.89-9-18.51-15.72-37.86-18.58-58.24a195.24,195.24,0,0,1-1.11-47.83,58.32,58.32,0,0,1,1.33-7.54c.76-3.1,1.93-6.11,2.62-9.22a32.64,32.64,0,0,1,7.79-15.16c8.32-9.14,13.73-20,17.94-31.46a26.74,26.74,0,0,0,1.58-13.19c-.36-2.54-.82-5.05-1.15-7.59a14,14,0,0,1,2.66-10.86c5.55-7,11.11-14,16.8-21,7.37-8.95,16.28-16.27,25.38-23.33a185.76,185.76,0,0,1,70.29-34,192.88,192.88,0,0,1,72.36-4.13c10.75,1.46,21.47,3.08,31.9,6.38a221.51,221.51,0,0,1,23.37,8.6A225.55,225.55,0,0,1,932.53,631a108.3,108.3,0,0,1,19.19,15.85c2.65,2.78,5.43,5.42,8.13,8.16,24.81,25.21,41.16,55,49.5,89.46,3,12.51,4.43,25.19,5.7,37.89,1.15,11.49-.37,23-1.68,34.43-.86,7.6-1.49,15.23-3.31,22.75-9.81,40.41-30.62,74.15-61.16,102.07-10,9.11-21.34,16.27-33,23-3.88,2.23-8.07,3.89-12,6.1-12.36,7-25.71,11.29-39.52,14.22C844.9,989,838.55,989.55,816.69,989.19ZM952.17,782.77c1.21.81,1.34,1.77.22,2.67-.21.17-1.22-.14-1.29-.4-.42-1.45.22-2.12,1.69-1.95-.58-.24-1.35-.32-1.72-.74-1.21-1.43-2.27-3-3.39-4.47s-2.07-1.78-2.62-.93c-.67,1-.16,2.14.7,3.27C947.44,782.43,949.52,783.37,952.17,782.77Zm-92-45.4c1.1.57,2.18,1.58,3.3,1.62,4.95.22,9.92.29,14.88.15a12.37,12.37,0,0,0,8.27-3.73,4.55,4.55,0,0,0-1.59-7.49,14.31,14.31,0,0,0-3.57-.45,5,5,0,0,0-.41-1.54c-.12-.18-1.12-.06-1.13,0-.2,1.38.47,1.75,1.9,1.1a7.49,7.49,0,0,0-1.56,1c-2.81,2.87-3.21,2.83-5.58.06-2.54-3-3.63-3-5.69-.58-2.85,3.33-5.63,6.71-8.17,10.18.74,2,1.14,2.16.84.58C861.55,737.89,860.66,737.67,860.14,737.37Zm-120-72.89q.76,3.9,1.52,7.78A24.61,24.61,0,0,1,752.54,685c1.73,4.24,3.55,8.18,2.45,12.85-.78,3.3,1.48,6.12,1.54,9.3a4.62,4.62,0,0,1-3.46,4c-2.64.51-5.06.25-7.09-1.65-1.39-1.3-2.54-2.92-4.09-4a5.06,5.06,0,0,0-3.54-.28,2.43,2.43,0,0,0-1.83,2.94c.3,1.88.75,3.74,1,5.63.35,2.61-1.45,4.79-4.25,5.3a9.51,9.51,0,0,1-1.89.29c-6.29-.1-10.91,3.12-14.87,7.54s-7.9,8.38-11,13.32a21.79,21.79,0,0,1-6.55,6.92c-5.6,3.62-7.07,8.73-6.18,15a10.85,10.85,0,0,1-.51,3.75,2,2,0,0,1-1,1.25A2.47,2.47,0,0,1,688,766.1c-.87-1.66-1.48-3.46-2.23-5.19a9.2,9.2,0,0,0-9.18-5.44,24.07,24.07,0,0,0-9,3,9.3,9.3,0,0,0-4.76,5.75,82.88,82.88,0,0,0-1.7,11.32,7,7,0,0,0,1.14,3.54,2.29,2.29,0,0,0,3.28,1.08,39.35,39.35,0,0,0,4.79-3.07,3,3,0,0,1,3.6-.38A3.47,3.47,0,0,1,676,779.6a12.88,12.88,0,0,1-.41,3.77c-.75,2.67-.51,5.2,1.71,6.91a8.87,8.87,0,0,1,3.78,8.21,24.66,24.66,0,0,0,.21,3.83c.36,3.56,2.44,5.62,5.71,6.87,2.53,1,4.77,1.41,6.84-.86a19.67,19.67,0,0,1,2.83-2.57c3.32-2.47,7.05-3.17,10.82-1.48,4.08,1.82,7.95,4,12.55,4.42,1.79.18,3.56,1.31,5.15,2.32a53.08,53.08,0,0,1,7.78,5.56,45.09,45.09,0,0,0,11.16,7.31,13,13,0,0,1,7,8.72c1.24,5,4.51,7.15,9.3,8.33,8.15,2,15.29,6.41,22.42,10.65,2.22,1.32,3.23,3.9,3.22,6.59a10.09,10.09,0,0,1-.49,3.78c-2.74,6.52-4.76,13.2-4.85,20.35a7.19,7.19,0,0,1-.36,1.88c-1.5,5-3.4,9.68-8,12.68-1.07.69-2.08,1.49-3.15,2.19a13.09,13.09,0,0,0-5.41,7.65A40.18,40.18,0,0,1,758.85,917c-3.72,5.94-6.79,12.27-10.06,18.48a7.13,7.13,0,0,0-.37,5.58c.57,1.82,1.49,3.53,2.09,5.35a49.65,49.65,0,0,0,5.81,11.49c1.14,1.53-.06,3.46-2.37,3.62a9.65,9.65,0,0,1-3.76-.3,19.36,19.36,0,0,1-10.38-8.09c-3-4.89-5.59-10.07-8.64-14.94a105.37,105.37,0,0,1-12.87-31.87c-.74-3.11-1.4-6.24-2-9.38a29.24,29.24,0,0,0-6.8-13.55c-2.08-2.42-4.4-4.64-6.54-7a98.27,98.27,0,0,1-15.34-22c-3.22-6.57-4.15-13.4-1.11-20.37.76-1.76,1.87-3.46,2.21-5.29,1-5.38.93-11.75-6-14.41-.59-.23-1.11-.62-1.69-.9a12.84,12.84,0,0,1-5.35-5.35c-1.27-2.2-2.11-4.65-3.21-7s-2.73-4.31-5.44-5c-4.61-1.12-7-5.49-11-7.42-7.75-3.75-10.87-10.42-12.32-18.34A11.75,11.75,0,0,0,642.2,767a1.61,1.61,0,0,0-3-.12,8.92,8.92,0,0,0-1.71,3.3A175,175,0,0,0,640.93,835c7.63,32.34,23,60.87,45,85.8A148.85,148.85,0,0,0,701,935.5c16.16,13.77,33.72,25.35,53.76,32.79.6.22,1.22.4,1.8.66,8.27,3.7,17.06,5.33,25.94,6.52a14.55,14.55,0,0,0,5.66-.59,29.81,29.81,0,0,0,7.13-2.77c4.62-2.71,9.59-3.35,14.76-3.34h23c5.12,0,10.27.32,15.34-.2a90.67,90.67,0,0,1,26.72.83,22.2,22.2,0,0,0,11.33-1.29,91.29,91.29,0,0,0,8.94-3.47,187,187,0,0,0,64.05-47.85c4.17-4.83,7.91-10.06,11.65-15.24,12.85-17.79,22.52-37.14,28.06-58.44,1.29-5,2.05-10,3.27-15,2.91-11.93,3-24.09,3.08-36.25a36.16,36.16,0,0,0-2.16-13.2A58.87,58.87,0,0,0,996.47,765a7.13,7.13,0,0,0-4.8-2.73,12.1,12.1,0,0,0-1.91-.12c-3.32-.08-5.2,1.86-3.71,4.34,2.72,4.51,2,8.6-.76,12.54-2.54,3.67-5.33,7.18-8.09,10.69-1.58,2-3.49,3.75-5,5.83-1.09,1.57-1.49,3.36.13,5.13a8.44,8.44,0,0,1,2,7.15,30.87,30.87,0,0,1-1.8,7.41,80.43,80.43,0,0,1-8.72,14.87c-3.31,4.7-6.51,9.48-9.64,14.31a24.37,24.37,0,0,0-3.77,10.77c-.48,4.45-.75,8.92-1.22,13.37a16.53,16.53,0,0,1-3.88,8.62,12.4,12.4,0,0,1-1.31,1.4,35.77,35.77,0,0,0-9.87,14,13.68,13.68,0,0,1-3.1,4.81c-3.7,3.64-6.38,8-9.16,12.25a21.41,21.41,0,0,1-7.07,6.36,42,42,0,0,1-12.4,5c-2.13.51-5.81-.71-6.94-2.37-2.9-4.24-5.7-8.62-5.88-13.9a71.57,71.57,0,0,0-3.31-18.8,17.19,17.19,0,0,1,.45-11.31c.69-1.79,1.44-3.56,2-5.38a16.79,16.79,0,0,0-.6-13.09,49,49,0,0,1-4.7-16.5,28.81,28.81,0,0,0-1.1-5.62,6.55,6.55,0,0,0-2.16-3.08c-4.68-3.43-9.52-6.61-15.82-5-7.55,1.94-15.21,1.69-22.88,1.17a10.73,10.73,0,0,1-6.76-3.22c-4.18-4-7.43-8.76-10.76-13.45-2.78-3.91-3.72-8-1.9-12.64,1.93-4.9,1.3-10.07,1.09-15.18-.14-3.3.57-6.59,3-8.79,8.71-7.75,8.49-11,15-22,1-1.63,2.12-3.15,3.08-4.79a3,3,0,0,0-.43-3.58c-2.43-3.17-3.71-6.62-2.82-10.72.54-2.5.7-5.07,1.08-7.59.31-2,2.94-4.21,5.53-4.58,1.26-.18,2.53-.32,3.79-.53,3.26-.53,4.69-2.65,3.28-5.18-1.89-3.38-3.7-6.7-3.39-10.75a10.28,10.28,0,0,0-.17-1.91c-.61-4.54-1.51-5-5.39-3.11a10.94,10.94,0,0,1-3.57.81c-1.58.17-3.4-2.66-2.78-4.14.24-.57.18-1.29.5-1.78q3.64-5.6,7.41-11.1c1.23-1.82,5.87-1.43,6.59.68a33.42,33.42,0,0,0,6.43,11.68c.42.48.81,1,1.21,1.49,1.12,1.4,3,1.41,5,0a16.45,16.45,0,0,1,1.57-1.1,8.94,8.94,0,0,0,5.3-9.25c-.07-1.19,1.09-2.49.94-3.64s-1.63-1.72-2.86-2.24a13.53,13.53,0,0,1-3.19-2.07c-2.27-1.87-3.09-6.53-1.47-8.76a27.15,27.15,0,0,1,3.71-4.29,18.91,18.91,0,0,0,5.19-7.92,69,69,0,0,1,2.75-7.13,8.41,8.41,0,0,1,2.57-2.75,21,21,0,0,1,3.35-1.86,17.9,17.9,0,0,1,14.83-1.16c4.79,1.76,9.64,3.39,14.59,5.12,4.15-1,8.48-2.07,12.8-3.17a2.78,2.78,0,0,0,2.36-2.4,4.37,4.37,0,0,0-1.29-3.5,45,45,0,0,0-10.49-8.31,273.06,273.06,0,0,0-29.2-14.45A102.18,102.18,0,0,0,869.86,612c-8.76-1.83-17.51-3.72-26.28-5.54a114.25,114.25,0,0,0-21-2c-19.41-.39-38.19,3.34-56.56,9.1-7.9,2.48-15.69,5.54-22.63,10.28a7,7,0,0,0-2.78,4.77c-1.69-.89-3.42-1.26-5.15-.19a21.49,21.49,0,0,0-6.57,6.38,3.62,3.62,0,0,0,.75,4.85c2.08,2,4.42,2.13,6.5.38a8,8,0,0,0,2.88-4.57c.47-2.42.73-4.88,1.09-7.32.55.29,1.32.45,1.63.91,2.11,3.15,4.41,6,8.26,7.23a5.88,5.88,0,0,1,2.88,2.34,76.59,76.59,0,0,1,8.34,16.78,2.71,2.71,0,0,1-1.36,3.26,9.14,9.14,0,0,1-3.36,1.49,5.65,5.65,0,0,0-5.28,4.47c-.78,2.64-2.41,4-5.15,4.69-1.68.42-3.05,2.08-4.48,3a8.09,8.09,0,0,0-1.81-7.49c-.74-2.49-1.17-4.89.81-7.13a12.76,12.76,0,0,0,1.87-3.28,2.55,2.55,0,0,0,.19-1.86,3,3,0,0,0-2.89-1.76c-3.16.3-6.31.7-7.9,4.2a10.33,10.33,0,0,1-7.14,5.83c-1.22.32-2.53.35-3.73.75a21.92,21.92,0,0,0-11.81,9.18c-.75,1.16-.53,4.46.28,5.46a32.25,32.25,0,0,0,8.82,7.16,20.3,20.3,0,0,0,2.58-2.76,42,42,0,0,0,2.7-5c2.59-5.58,6.61-9.26,12.89-10.17A35,35,0,0,0,740.1,664.48Zm185.16,88.31c1.39.14,2.65.28,3.91.38.64.05,1.27,0,1.91,0,1.59.06,3.84-1.7,4-3.27a23.62,23.62,0,0,0,.31-3.75c-.06-2.49-2.33-5.09-4.62-5.23-2.53-.17-5.09,0-7.58-.33a4.62,4.62,0,0,1-2.87-2.14c-.92-1.62-1.13-3.63-2-5.25-.55-1-2-.89-3.23-.2-1.78,1-2.05,3.07-2.91,4.71a3,3,0,0,1-4.7.93,15.44,15.44,0,0,1-2.61-2.69c-.79-1.09-1.76-2.15-3.07-1.93-1.88.32-3.84,1.37-4.38,3.2-1,3.53-3.46,4.85-6.71,5.71a2.43,2.43,0,0,0-1.14,4.27,21,21,0,0,0,13.85,5.06c.53,0,1-.66,1.59-1a7.49,7.49,0,0,1,5.44-1.05C915.37,751.45,920.2,753.19,925.26,752.79Zm-35.16-74-.27,0c-.29,2.44-.62,4.88-.82,7.33,0,.38.51,1,.92,1.19a2.29,2.29,0,0,0,1.76.24c3.63-1.89,4.88-5.35,5.83-9,.69-2.69.72-3.26-1.45-4.8a20.26,20.26,0,0,1-4-3.73c-1-1.27-1.93-.51-1.69,1.43a11.46,11.46,0,0,1,.08,1.85C890.35,675.11,890.22,677,890.1,678.8Z"/><path d="M843.8,358.23c0,1.48.4,2.91-.06,4-9.22,21.07-19.53,41.53-34.31,59.4q-4.26,5.16-8.37,10.45c-9.86,12.66-21.58,23.42-34,33.42a7.15,7.15,0,0,1-8.82,0c-21.66-18.81-44.46-36.26-65.87-55.38-1.89-1.69-3.93-3.22-5.11-5.57a3.64,3.64,0,0,1,0-3.65,13.85,13.85,0,0,1,3.82-4.14c7.92-6.42,15.68-13,23-20.21a196.89,196.89,0,0,0,29.32-37.61,187.82,187.82,0,0,0,11.62-21.95c.52-1.15,1.22-2.22,1.83-3.32.81-1.47,5.13-2.9,7-2.2a55.67,55.67,0,0,1,7,2.93q16.75,9.21,33.4,18.62c10.54,6,21,12,31.48,18.12A51.33,51.33,0,0,1,842,355.3C842.9,356,843.3,357.39,843.8,358.23ZM834.32,362c-.22-.57-.28-1.3-.68-1.69a21.19,21.19,0,0,0-4.22-3.78q-30.93-17.31-61.95-34.45a9.88,9.88,0,0,0-1.8-.65,3.18,3.18,0,0,0-3.46.81,20.36,20.36,0,0,0-3.27,4.65c-6.79,14.59-16.09,27.54-25.8,40.26a146.44,146.44,0,0,1-22.38,23.57c-3.91,3.27-7.59,6.82-11.39,10.22-1.32,1.19-1.06,3.36.64,4.9,6.16,5.55,12.22,11.24,18.54,16.6,13.64,11.56,27.42,23,41.14,34.42,1.27,1.06,3.9.92,5.34-.16,7.72-5.76,14.18-12.89,20.81-19.77,12-12.44,23.13-25.58,31.86-40.62,6.1-10.51,11.45-21.38,16.5-32.41A5.39,5.39,0,0,0,834.32,362Z"/><path d="M457.71,773.07c.08.63.46,1.44.2,1.86a34.15,34.15,0,0,1-4.29,6.26c-12.09,12.26-24.31,24.41-36.5,36.58Q407,827.91,396.75,838c-1.35,1.34-2.87,2.51-4.35,3.72-2.75,2.26-8,2.51-10.77.55-.51-.37-1.12-.62-1.61-1-3.92-3.26-8-6.34-11.69-9.86-9.19-8.84-18.74-17.27-27.36-26.72a225.82,225.82,0,0,1-25.68-33.26c-4-6.51-8.16-13-12-19.55a85.94,85.94,0,0,1-3.91-8.69c-.6-1.33.23-4.09,1.5-5.24.94-.85,1.77-1.85,2.78-2.6,21.92-16.51,44.63-31.87,67.57-46.91,1.05-.69,2.31-1.06,3.42-1.67,1.31-.71,4.1.16,5.23,1.21a17.47,17.47,0,0,1,3.25,4.68c9.45,17.55,21.94,32.86,35.45,47.35a156.62,156.62,0,0,0,26.23,22.22c3.68,2.52,7.34,5.09,10.88,7.8C456.59,770.69,457,772,457.71,773.07Zm-11.89,1.86a5.61,5.61,0,0,0-.79-1.73,28.73,28.73,0,0,0-4.18-3.78,176,176,0,0,1-41.61-39.08c-7-9.1-14-18.16-20-28-.65-1.08-1.54-2-2.29-3-1.08-1.47-3.77-2.23-5.1-1.34-7.43,4.91-14.93,9.74-22.26,14.81-11.53,8-23,16.08-34.39,24.2a46,46,0,0,0-4.24,3.8,6.19,6.19,0,0,0-1.13,5.34,152.75,152.75,0,0,0,12.4,21.48A297.78,297.78,0,0,0,367,819.68c4.2,3.9,8.61,7.57,13,11.24,4.87,4,7.43,4,11.62.2.94-.86,1.93-1.66,2.84-2.56q23.06-22.9,46.06-45.87a48.17,48.17,0,0,0,4.6-6.05A7.31,7.31,0,0,0,445.82,774.93Z"/><path d="M553.21,253.72a14.42,14.42,0,0,1-2.12-.58,49.79,49.79,0,0,1-5.15-2.48c-19.22-11.5-37.31-24.49-53.26-40.3-11.8-11.71-22.64-24.21-31.28-38.49-1.31-2.17-2.36-4.51-3.5-6.78-.8-1.59-.58-4.39.46-5.42,4.53-4.47,8.89-9.14,13.65-13.35,13.37-11.82,26.89-23.48,40.41-35.14a93.14,93.14,0,0,1,7.65-5.7c2.92-2,8.17-1,10.38,1.85,4.27,5.56,8.61,11.06,12.77,16.7a150.23,150.23,0,0,0,35.59,34.4c7.86,5.46,15.63,11,23.94,15.8,1.64.94,3.11,2.19,4.68,3.27,1.78,1.23,2.87,5,1.89,6.89a47.67,47.67,0,0,1-3.73,6.63c-7,9.13-13.87,18.3-21.16,27.15-8.92,10.83-18.23,21.33-26.74,32.51C556.62,252.09,554.62,252.8,553.21,253.72ZM522.65,113.51a20.1,20.1,0,0,0-3.32,1.83c-16.73,13.78-32.83,28.29-49,42.72-3.62,3.23-4.15,6.47-1.88,10.09a190.66,190.66,0,0,0,39.87,46.07,346.48,346.48,0,0,0,40.34,28.95c1.35.83,4.38.46,5.31-.7,5.19-6.45,10-13.19,15.62-19.28,8.62-9.43,16-19.87,24.5-29.36a27,27,0,0,0,5.15-8,2.59,2.59,0,0,0-.74-3.4c-6.31-5.39-13.4-9.71-20.13-14.52-15.11-10.82-29.06-22.82-40.3-37.75-5-4.91-8.52-11.09-13.71-15.83A6.69,6.69,0,0,0,522.65,113.51Z"/><path d="M205.77,616.78c1.37.09,3.41,2.18,3.75,3.84,1,5,2.25,10,3.15,15a316.28,316.28,0,0,0,11.8,44.34c2.84,8.5,6.32,16.7,9.9,24.88,2,4.65,4.41,9.17,5.68,14.14a5.85,5.85,0,0,1-2.2,4.94,22.77,22.77,0,0,1-3.35,1.82c-10.87,3.72-21.91,6.85-33.08,9.52a17.94,17.94,0,0,1-13-1.63c-9.57-5.09-19.16-10.16-28.59-15.52-4.42-2.52-8.46-5.7-12.67-8.57a31,31,0,0,1-13.07-18.24c-2.73-10.5-5.75-20.92-8.58-31.39-1-3.69-2-7.41-2.71-11.16-.63-3.12-1-6.29-1.41-9.45-.57-4.69,1.24-7.58,5.35-8.68,3.08-.83,6.15-1.8,9.28-2.36,17-3,33.94-5.88,50.9-8.84,5-.87,10-1.91,15.06-2.75A17.92,17.92,0,0,1,205.77,616.78Zm23.34,98.4a19.38,19.38,0,0,0-.77-3.71c-1.48-3.54-3.23-7-4.67-10.52-6.45-16-12.43-32.18-15.39-49.3-.87-5-2-10-3.1-15-.55-2.49-1.29-4.94-2-7.4s-3.5-4.4-5.69-4c-13.87,2.28-27.75,4.48-41.61,6.84-6.93,1.18-13.8,2.65-20.7,4-.63.13-1.24.34-1.86.48-2.06.46-4,3.78-3.54,6.12a386.34,386.34,0,0,0,13.51,49.91,8.8,8.8,0,0,0,1.92,3.26,6.48,6.48,0,0,0,3.16,1.93,22.72,22.72,0,0,0,5.71.16c7-.53,14-1.23,21-1.73a30.21,30.21,0,0,1,5.68.39,5,5,0,0,1,4.27,3.37c2.28,7.32,4.29,14.71,8,21.52,2.16,4,5.28,5.79,9.29,4.87,5-1.15,10-2.19,14.93-3.51,3.07-.82,6-2,9-3.11C228,719.08,229.52,716.63,229.11,715.18ZM171,703.57c-2.07.24-4.59.51-7.1.84a3.43,3.43,0,0,0-3,1.73,2.76,2.76,0,0,0,1.13,3.4,83.46,83.46,0,0,0,16.3,9.6,2.24,2.24,0,0,0,3.1-1,3.5,3.5,0,0,0,.62-1.75,30.57,30.57,0,0,0-3.74-10.69c-.49-.92-2-1.52-3.11-1.85A20.72,20.72,0,0,0,171,703.57Z"/><path d="M816.93,302l-5.69.72c-.86.11-4.27-2.44-4.46-3.36-.53-2.49-1.17-5-1.52-7.47-4.08-29.08-14.84-55.32-33.3-78.27-2.79-3.48-6-6.62-8-10.73-.94-2-.08-5.56,1.92-6.76.54-.33,1-.88,1.5-1.15,26.21-13.18,52.54-26.12,79.1-38.58,1.36-.63,4.25.05,5.31,1.2.43.46,1,.79,1.41,1.27a240.22,240.22,0,0,1,41.64,77.05A264.08,264.08,0,0,1,903.75,275c.48,3.05-1.68,6.14-5,7.18-1.83.57-3.64,1.17-5.49,1.68s-3.71.95-5.57,1.4c-18,4.37-36,8.59-53.9,13.18A152.68,152.68,0,0,1,816.93,302Zm77.45-35.65c-3.77-19.88-8.41-35.1-15.58-49.5-1.7-3.43-3.37-6.88-4.92-10.39-6.27-14.11-15.07-26.62-24.48-38.74-1.24-1.61-4.93-2.28-7.1-1.29-3.48,1.6-7,3.18-10.39,4.89-5.71,2.84-11.34,5.87-17.07,8.67-12.05,5.88-24.15,11.64-36.21,17.5a7.92,7.92,0,0,0-3,2.26c-.65.94-.68,2.31-1,3.48,2.93,4.17,5.84,8.36,8.81,12.51a144.07,144.07,0,0,1,18.16,33.59c5.15,13.78,9.88,27.64,11.88,42.29.18,1.33,3.09,3.4,4.36,3.15,4.37-.87,8.78-1.6,13.09-2.69,19.19-4.83,38.2-10.36,57.51-14.71.62-.14,1.21-.4,1.83-.56a6.17,6.17,0,0,0,4.79-7.06C894.58,267.2,894.05,264.7,894.38,266.3Z"/><path d="M917,521.26c-1.21-.39-2.64-.5-3.59-1.23-3.53-2.72-6.94-5.6-10.33-8.5Q882,493.47,861,475.34c-2.89-2.5-5.58-5.23-8.31-7.91-2-1.95-2-7.12-.15-8.83s3.78-3.43,5.78-5c17.78-14,31.85-31.25,43.26-50.72a199.32,199.32,0,0,0,12.06-23.94c2.08-5,6-5.76,10.86-2.47.52.36,1.07.7,1.58,1.07q29.6,21.2,59.18,42.42c1.54,1.11,2.93,2.44,4.37,3.68,1.11,1,1.95,4,1.42,5.29a85.16,85.16,0,0,1-3.7,8.8c-4.24,7.87-8.57,15.7-13.12,23.39a169.4,169.4,0,0,1-9.51,14.38,245.38,245.38,0,0,1-36.21,39.45,58.48,58.48,0,0,1-7.8,5.49C919.66,521.05,918.26,521,917,521.26Zm4.37-135.44a10.47,10.47,0,0,0-1.59,1.06c-2.37,2.26-3.45,5.31-4.93,8.12-12,22.78-27.35,43-46.76,60.08-1.91,1.67-3.67,3.51-5.49,5.29-1.41,1.38-1.7,4-.59,5.16,1.34,1.35,2.52,2.89,4,4.14q23.85,20.7,47.75,41.33c1.68,1.45,5.18,1.29,7.13-.19,10.25-7.74,19-17.05,27.33-26.71,6.63-7.71,13.11-15.7,18.24-24.57,4.78-8.29,9.23-16.76,13.76-25.19a9,9,0,0,0,1.09-3.63,6.11,6.11,0,0,0-.72-3.62,17,17,0,0,0-4-4q-25.76-18.27-51.63-36.4a5.34,5.34,0,0,0-1.77-.68A11.41,11.41,0,0,0,921.41,385.82Z"/><path class="cls-2" d="M383.3,400.75c-12.14,1-24.68-3.32-36.79-9.5a78.74,78.74,0,0,1-26.18-22c-5.13-6.53-9.76-13.37-12.59-21.32-4.79-13.46-6.9-27.29-5.15-41.42A79.53,79.53,0,0,1,315.77,271a108.27,108.27,0,0,1,16.35-18.7,35.69,35.69,0,0,1,4.48-3.58,95.24,95.24,0,0,1,38.94-15.12,71.56,71.56,0,0,1,21,.24c17.61,2.67,32.65,10.49,45.63,22.5a58.62,58.62,0,0,1,5.21,5.59c2,2.47,3.79,5.13,5.78,7.63,8.2,10.29,12.09,22.32,14.12,35.09,1.74,10.91.29,21.63-2,32.29-2.74,12.72-8.68,23.94-16.56,34.15a67.22,67.22,0,0,1-32.1,23.19c-2.41.83-4.82,1.68-7.24,2.49C397.17,400.76,397.09,400.77,383.3,400.75Zm57.33-69.92c-3.08.35-5.64.52-8.15.95-13,2.21-24.21,7.64-32.73,18.09a28.34,28.34,0,0,0-6.84,17.46,18,18,0,0,0,.37,3.79,8.82,8.82,0,0,0,10.11,6.64,22.35,22.35,0,0,0,5.43-1.73c11.86-6.24,23.67-12.58,35.49-18.9.56-.3,1.1-.64,1.65-.95,1.11-.64,2.24-1.24,3.32-1.91,4.79-3,6.89-7.29,6.48-12.93a10.5,10.5,0,0,0-8.09-9.52A63,63,0,0,0,440.63,330.83ZM355,310.11c1.08-.6,2.69-.93,3.15-1.84,4-7.88,7.33-16.14,12.31-23.55.74-1.09-.1-2.48-1.17-3.29a3.42,3.42,0,0,0-3.48-.48,8.18,8.18,0,0,0-4.32,3.57c-3.33,6.13-6.6,12.3-9.69,18.55a6.71,6.71,0,0,0,.23,5.5C352.62,310,353.61,310.55,355,310.11Zm67.69-47.6a43,43,0,0,0-5.36-.92,2.81,2.81,0,0,0-2.8,1.82c-.61,1.45-.15,2.46,1.22,3.23,1.1.61,2,1.71,3.15,2.07,6.65,2.08,13.41,3.63,20.47,3.12a9,9,0,0,0,1.78-.53c1.41-.41,2.92-3,2.39-4.62a7.78,7.78,0,0,0-2-2.95,4,4,0,0,0-3.59-.87C432.89,263.71,427.88,264.23,422.68,262.51Zm-35.34,58.56c.88-7.23-5.56-11.84-11.91-9.3a16,16,0,0,0-1.61.9,4.42,4.42,0,0,0-2.19,2.83c-2.41,7.65,3.66,12.46,9.79,11.71A7,7,0,0,0,387.34,321.07Zm48.74-35c-4.9.34-8.19,4.51-7.19,9.13.75,3.49,4.58,6.35,8.49,6.33s6.81-2.92,7.24-7.19C445,290.36,440.38,285.47,436.08,286.06Z"/><path class="cls-2" d="M254.28,644.75c-.37-1.21-.72-2.43-1.11-3.63a4.47,4.47,0,0,1,.24-3.72,140.89,140.89,0,0,1,15.41-21.69,8.82,8.82,0,0,1,8.62-2.91c5,.9,9.94,2.12,14.88,3.27a7.43,7.43,0,0,1,4.55,3.23c3.46,5.32,6.81,10.72,10.19,16.11.85,1.36.74,2.5-.39,3.09a3.25,3.25,0,0,1-3.46-.45c-1.55-1.08-3-2.34-5-2.68a7.88,7.88,0,0,0-8,3.78,25.19,25.19,0,0,0-3.41,8.83c-1.09,6.23-1.54,12.62-4.69,18.31-.28.5-.88.81-1.34,1.21a6,6,0,0,1-1.19-1.47,14.31,14.31,0,0,1-1-3.59c-.29-3.16-.38-6.34-.61-9.51-.11-1.55-2.56-4-3.8-3.71a6.39,6.39,0,0,0-3.22,1.57,19.61,19.61,0,0,0-3,4.79,32.37,32.37,0,0,1-3.54,6.71c-.84,1.08-1.78,2-3.16,1.79-1-.12-1.62-1.27-1.66-2.73-.19-5.79,2.94-11,2.84-16.86a3.79,3.79,0,0,0-5.23-3.49,9.94,9.94,0,0,0-1.63.9,3.81,3.81,0,0,0-1.6,3.24Z"/><path class="cls-2" d="M680.89,258c1.27,2.37.55,4.89.58,7.36a6.5,6.5,0,0,0,3.6,6.13,21,21,0,0,1,6.1,4.42l-.46-.44a110.81,110.81,0,0,0-13,8.05c-4.21,2.89-8.59,5.52-13,8.16-3.06,1.85-6.07,1.2-9-.5a25.88,25.88,0,0,1-8.44-7.65,14.17,14.17,0,0,1-2.89-7c-.26-3.81-.34-7.65-.49-11.47a11.58,11.58,0,0,1,.81-5.61c2.06-.07,3.45,1.37,5.08,2.26a15.25,15.25,0,0,0,1.78.69c1.41.53,4.42-.22,5.31-1.34q6.52-8.25,13-16.54c1-1.34,2-1.68,2.92-.7a3.48,3.48,0,0,1,.55,3.49c-.38,1.22-.84,2.41-1.26,3.62-.21.6-.47,1.19-.63,1.81-1.13,4.36,2,7.8,6.24,6.85,1.23-.27,2.43-.76,3.64-1.15Z"/><path class="cls-2" d="M423.84,409c-2.63-.32-5.11-.64-7.6-.92-1.73-.2-2.32-1-1.67-2.57a5.3,5.3,0,0,1,1-1.48A3.73,3.73,0,0,1,417,402.9c10.42-3.06,19.39-8.75,27.92-15.25a6.51,6.51,0,0,1,1.58-1,3.24,3.24,0,0,1,3.37.41,3,3,0,0,1,1,3.41,13.06,13.06,0,0,1-.47,1.79c-.78,1.71-1.57,3.43-2.5,5.06a21.65,21.65,0,0,1-14.84,10.6A86,86,0,0,1,423.84,409Z"/><path class="cls-2" d="M456,450.45c.9,1.9,2.83,5.89,4.65,9.92.14.32-.35,1.16-.77,1.44a2.37,2.37,0,0,1-1.65.22,3.56,3.56,0,0,1-1.66-.79c-6.1-5.52-12.22-11-18.22-16.65a7.35,7.35,0,0,1-1.54-3.39c-.1-.35.74-.94,1.12-1.46,1.46-2,2.88-4.1,4.38-6.11,1-1.38,3.71-1.47,5-.29a11.89,11.89,0,0,1,3.6,4.34C452.41,441.2,453.79,444.75,456,450.45Z"/><path class="cls-2" d="M426.42,416c-1.38,0,1.1,0,3.59,0s5.07,2.08,5.15,4.35c.1,2.47.17,4.95,0,7.42-.12,2.14-3.38,4.13-5.62,3.63a9,9,0,0,1-1.83-.28c-5.63-2.57-11.21-5.25-15.78-9.58a2.6,2.6,0,0,1-.56-1.6,2.12,2.12,0,0,1,1.91-2.6c1.22-.18,2.44-.45,3.67-.58C418.84,416.54,420.7,416.43,426.42,416Z"/><path class="cls-2" d="M478.43,433.27c1.43,4.84,2.21,7.26,2.83,9.72a2.7,2.7,0,0,1-.59,1.73c-.58.9-1.64.78-2.85-.38-5.58-5.32-9.74-11.76-14.17-18-1.59-2.23-1.18-4.78.06-7.2a2.44,2.44,0,0,1,3.19-1.37c3.27.77,6,2.41,7.43,5.4C476.24,427.21,477.7,431.44,478.43,433.27Z"/><path class="cls-2" d="M467.38,406.18a3.82,3.82,0,0,1-2.81,2.1,11.07,11.07,0,0,1-8.7-2.49,2.82,2.82,0,0,1-.72-3.39,19.11,19.11,0,0,1,5.56-7.23c1.17-.9,2.35-.43,3.36.63C466.87,398.74,467.24,402.42,467.38,406.18Z"/><path class="cls-2" d="M691.17,275.88c-1.62-3.83-1.57-4.34.4-4.27.38,0,1.08.74,1.07.77-.65,1-1.36,2-2,3Z"/><path class="cls-2" d="M688.35,249.34l1.28.3c.2-1.62-.3-1.85-1.51-.72Z"/><path class="cls-2" d="M688.12,248.92c.1,4.43.1,4.43-3.82,4.57l.54.54c1.21-1.5,2.42-3,3.57-4.6C688.35,249.34,688.12,248.92,688.12,248.92Z"/><path class="cls-2" d="M681.36,258.41c.55-2,2-3.15,3.52-4.33l-.58-.59c1.36,4.48,1.17,4.75-3.39,4.5Z"/><path class="cls-2" d="M254,645.14l-.39-1c-.79.75-.56.94.68.58C254.28,644.75,254,645.14,254,645.14Z"/><path class="cls-2" d="M740.69,628.7a6.77,6.77,0,0,1,2.73-4.83c6.94-4.74,14.73-7.8,22.63-10.28,18.37-5.76,37.15-9.49,56.56-9.1a114.25,114.25,0,0,1,21,2c8.77,1.82,17.52,3.71,26.28,5.54a102.18,102.18,0,0,1,18.25,5.79,273.06,273.06,0,0,1,29.2,14.45,45,45,0,0,1,10.49,8.31,4.37,4.37,0,0,1,1.29,3.5,2.78,2.78,0,0,1-2.36,2.4c-4.32,1.1-8.65,2.14-12.8,3.17-4.95-1.73-9.8-3.36-14.59-5.12a17.9,17.9,0,0,0-14.83,1.16,21,21,0,0,0-3.35,1.86,8.41,8.41,0,0,0-2.57,2.75,69,69,0,0,0-2.75,7.13,18.91,18.91,0,0,1-5.19,7.92,27.15,27.15,0,0,0-3.71,4.29c-1.62,2.23-.8,6.89,1.47,8.76a13.53,13.53,0,0,0,3.19,2.07c1.23.52,2.69,1,2.86,2.24s-1,2.45-.94,3.64a8.94,8.94,0,0,1-5.3,9.25,16.45,16.45,0,0,0-1.57,1.1c-2.06,1.41-3.89,1.4-5,0-.4-.5-.79-1-1.21-1.49A33.42,33.42,0,0,1,854,683.53c-.72-2.11-5.36-2.5-6.59-.68q-3.75,5.52-7.41,11.1c-.32.49-.26,1.21-.5,1.78-.62,1.48,1.2,4.31,2.78,4.14a10.94,10.94,0,0,0,3.57-.81c3.88-1.9,4.78-1.43,5.39,3.11a10.28,10.28,0,0,1,.17,1.91c-.31,4,1.5,7.37,3.39,10.75,1.41,2.53,0,4.65-3.28,5.18-1.26.21-2.53.35-3.79.53-2.59.37-5.22,2.59-5.53,4.58-.38,2.52-.54,5.09-1.08,7.59-.89,4.1.39,7.55,2.82,10.72a3,3,0,0,1,.43,3.58c-1,1.64-2.11,3.16-3.08,4.79-6.56,11-6.34,14.24-15,22-2.48,2.2-3.19,5.49-3,8.79.21,5.11.84,10.28-1.09,15.18-1.82,4.66-.88,8.73,1.9,12.64,3.33,4.69,6.58,9.45,10.76,13.45a10.73,10.73,0,0,0,6.76,3.22c7.67.52,15.33.77,22.88-1.17,6.3-1.62,11.14,1.56,15.82,5a6.55,6.55,0,0,1,2.16,3.08,28.81,28.81,0,0,1,1.1,5.62,49,49,0,0,0,4.7,16.5,16.79,16.79,0,0,1,.6,13.09c-.6,1.82-1.35,3.59-2,5.38a17.19,17.19,0,0,0-.45,11.31,71.57,71.57,0,0,1,3.31,18.8c.18,5.28,3,9.66,5.88,13.9,1.13,1.66,4.81,2.88,6.94,2.37a42,42,0,0,0,12.4-5,21.41,21.41,0,0,0,7.07-6.36c2.78-4.29,5.46-8.61,9.16-12.25a13.68,13.68,0,0,0,3.1-4.81,35.77,35.77,0,0,1,9.87-14,12.4,12.4,0,0,0,1.31-1.4,16.53,16.53,0,0,0,3.88-8.62c.47-4.45.74-8.92,1.22-13.37a24.37,24.37,0,0,1,3.77-10.77c3.13-4.83,6.33-9.61,9.64-14.31a80.43,80.43,0,0,0,8.72-14.87,30.87,30.87,0,0,0,1.8-7.41,8.44,8.44,0,0,0-2-7.15c-1.62-1.77-1.22-3.56-.13-5.13,1.46-2.08,3.37-3.83,5-5.83,2.76-3.51,5.55-7,8.09-10.69,2.72-3.94,3.48-8,.76-12.54-1.49-2.48.39-4.42,3.71-4.34a12.1,12.1,0,0,1,1.91.12,7.13,7.13,0,0,1,4.8,2.73,58.87,58.87,0,0,1,6.87,13.68,36.16,36.16,0,0,1,2.16,13.2c-.07,12.16-.17,24.32-3.08,36.25-1.22,5-2,10-3.27,15-5.54,21.3-15.21,40.65-28.06,58.44-3.74,5.18-7.48,10.41-11.65,15.24a187,187,0,0,1-64.05,47.85,91.29,91.29,0,0,1-8.94,3.47,22.2,22.2,0,0,1-11.33,1.29,90.67,90.67,0,0,0-26.72-.83c-5.07.52-10.22.18-15.34.2H810c-5.17,0-10.14.63-14.76,3.34a29.81,29.81,0,0,1-7.13,2.77,14.55,14.55,0,0,1-5.66.59c-8.88-1.19-17.67-2.82-25.94-6.52-.58-.26-1.2-.44-1.8-.66-20-7.44-37.6-19-53.76-32.79a148.85,148.85,0,0,1-15.07-14.75c-21.94-24.93-37.35-53.46-45-85.8a175,175,0,0,1-3.47-64.79,8.92,8.92,0,0,1,1.71-3.3,1.61,1.61,0,0,1,3,.12,11.75,11.75,0,0,1,1.46,3.43c1.45,7.92,4.57,14.59,12.32,18.34,4,1.93,6.43,6.3,11,7.42,2.71.65,4.31,2.58,5.44,5s1.94,4.76,3.21,7a12.84,12.84,0,0,0,5.35,5.35c.58.28,1.1.67,1.69.9,6.92,2.66,7,9,6,14.41-.34,1.83-1.45,3.53-2.21,5.29-3,7-2.11,13.8,1.11,20.37a98.27,98.27,0,0,0,15.34,22c2.14,2.38,4.46,4.6,6.54,7a29.24,29.24,0,0,1,6.8,13.55c.62,3.14,1.28,6.27,2,9.38a105.37,105.37,0,0,0,12.87,31.87c3.05,4.87,5.61,10.05,8.64,14.94a19.36,19.36,0,0,0,10.38,8.09,9.65,9.65,0,0,0,3.76.3c2.31-.16,3.51-2.09,2.37-3.62a49.65,49.65,0,0,1-5.81-11.49c-.6-1.82-1.52-3.53-2.09-5.35a7.13,7.13,0,0,1,.37-5.58c3.27-6.21,6.34-12.54,10.06-18.48a40.18,40.18,0,0,0,4.92-10.28,13.09,13.09,0,0,1,5.41-7.65c1.07-.7,2.08-1.5,3.15-2.19,4.62-3,6.52-7.72,8-12.68a7.19,7.19,0,0,0,.36-1.88c.09-7.15,2.11-13.83,4.85-20.35a10.09,10.09,0,0,0,.49-3.78c0-2.69-1-5.27-3.22-6.59-7.13-4.24-14.27-8.65-22.42-10.65-4.79-1.18-8.06-3.3-9.3-8.33a13,13,0,0,0-7-8.72A45.09,45.09,0,0,1,733,816.58a53.08,53.08,0,0,0-7.78-5.56c-1.59-1-3.36-2.14-5.15-2.32-4.6-.47-8.47-2.6-12.55-4.42-3.77-1.69-7.5-1-10.82,1.48a19.67,19.67,0,0,0-2.83,2.57c-2.07,2.27-4.31,1.82-6.84.86-3.27-1.25-5.35-3.31-5.71-6.87a24.66,24.66,0,0,1-.21-3.83,8.87,8.87,0,0,0-3.78-8.21c-2.22-1.71-2.46-4.24-1.71-6.91a12.88,12.88,0,0,0,.41-3.77,3.47,3.47,0,0,0-2.09-2.88,3,3,0,0,0-3.6.38,39.35,39.35,0,0,1-4.79,3.07,2.29,2.29,0,0,1-3.28-1.08,7,7,0,0,1-1.14-3.54,82.88,82.88,0,0,1,1.7-11.32,9.3,9.3,0,0,1,4.76-5.75,24.07,24.07,0,0,1,9-3,9.2,9.2,0,0,1,9.18,5.44c.75,1.73,1.36,3.53,2.23,5.19a2.47,2.47,0,0,0,3.33,1.07,2,2,0,0,0,1-1.25,10.85,10.85,0,0,0,.51-3.75c-.89-6.25.58-11.36,6.18-15a21.79,21.79,0,0,0,6.55-6.92c3.06-4.94,7.12-9,11-13.32s8.58-7.64,14.87-7.54a9.51,9.51,0,0,0,1.89-.29c2.8-.51,4.6-2.69,4.25-5.3-.26-1.89-.71-3.75-1-5.63a2.43,2.43,0,0,1,1.83-2.94,5.06,5.06,0,0,1,3.54.28c1.55,1,2.7,2.65,4.09,4,2,1.9,4.45,2.16,7.09,1.65a4.62,4.62,0,0,0,3.46-4c-.06-3.18-2.32-6-1.54-9.3,1.1-4.67-.72-8.61-2.45-12.85a24.61,24.61,0,0,0-10.92-12.74l-.07.27c1.5-1.11,2.87-2.77,4.55-3.19,2.74-.7,4.37-2.05,5.15-4.69a5.65,5.65,0,0,1,5.28-4.47,9.14,9.14,0,0,0,3.36-1.49,2.71,2.71,0,0,0,1.36-3.26,76.59,76.59,0,0,0-8.34-16.78,5.88,5.88,0,0,0-2.88-2.34c-3.85-1.24-6.15-4.08-8.26-7.23-.31-.46-1.08-.62-1.63-.91ZM694.82,775.87c-1.34,3.46-1.09,4,2.29,5.35a6.89,6.89,0,0,0-.25,1.83c.46,3.33,1.56,4.66,4.44,4.79,3.65.17,7.27,1.57,10.93.3.19-.06.32-1.12.09-1.4-1.69-2-4.51-1.41-6.53-2.68s-4-2.93-6.48-3.34a7.38,7.38,0,0,0-1.85.15c.29-2.36-1.54-3.4-2.94-4.71a24.43,24.43,0,0,0-3-1.67A1.63,1.63,0,0,0,690,775a1.8,1.8,0,0,0,.36,1.57,1.87,1.87,0,0,0,1.5.68A25,25,0,0,0,694.82,775.87Zm134-142.6c1.62-4.5,2.5-6.9,3.35-9.31,1-2.78.19-4.37-3-5.75a34.33,34.33,0,0,0-5.4-1.83,15.15,15.15,0,0,0-3.81-.33c-5.75.07-11.5.25-17.26.3-5.11,0-10.28-.14-15.21,1.45-5.71,1.85-11.46-.67-17.15.42-1.88.36-3.77.69-5.64,1.11-4.25,1-7.17,4.54-7.77,9.64,0,.36.85,1.1,1.39,1.21,3.35.66,6-1.93,9.1-2.18,1.91-.15,3.88-.18,5.3,1.45,2.1,2.4,4.21,4.78,6.17,7.29a5.83,5.83,0,0,1,.67,5.48,24.35,24.35,0,0,1-2.48,5.14,23.69,23.69,0,0,0-3,16.6,29.36,29.36,0,0,0,1.16,5.62,28.82,28.82,0,0,0,2.75,5c.83,1.35,4,1.8,5,.75a29.28,29.28,0,0,0,3.91-4.13,25.24,25.24,0,0,1,11.43-9.85c2.94-1.23,5.79-2.71,8.63-4.16a74,74,0,0,0,17.21-12.09c1.86-1.75,3.39-3.71,3.69-6.47A43,43,0,0,1,828.86,633.27ZM966.09,869c-.61-1.52-1.6-2.12-2.78-1.46-9.15,5.13-13.07,13.3-13.28,23.47,0,.91,1.21,2,2.07,2.73.29.26,1.28,0,1.8-.28,1.07-.62,2.39-1.2,3-2.17a102.81,102.81,0,0,0,9.33-18.61C966.58,871.58,966.15,870.21,966.09,869ZM822,665.47a50.7,50.7,0,0,0,5.07-.39,13.2,13.2,0,0,0,3.39-1.33c1.76-.85,2.87-3.52,1.81-4.58a6.47,6.47,0,0,0-2.87-2c-3.76-.7-7.34.32-10.68,1.95-1.14.55-1.33,2-1.15,3.25a3.23,3.23,0,0,0,2.19,2.62A14.17,14.17,0,0,0,822,665.47Zm52.19-40.9a3.37,3.37,0,0,0-3.92-3.38c-2.84.52-4,2.3-3.69,5.46a3.47,3.47,0,0,0,2,3,3.4,3.4,0,0,0,3.42-.55A5.17,5.17,0,0,0,874.17,624.57Z"/><path class="cls-2" d="M925.26,752.79c-5.06.4-9.89-1.34-14.81-2.5a7.49,7.49,0,0,0-5.44,1.05c-.55.3-1.06,1-1.59,1a21,21,0,0,1-13.85-5.06,2.43,2.43,0,0,1,1.14-4.27c3.25-.86,5.66-2.18,6.71-5.71.54-1.83,2.5-2.88,4.38-3.2,1.31-.22,2.28.84,3.07,1.93a15.44,15.44,0,0,0,2.61,2.69,3,3,0,0,0,4.7-.93c.86-1.64,1.13-3.67,2.91-4.71,1.2-.69,2.68-.77,3.23.2.92,1.62,1.13,3.63,2,5.25a4.62,4.62,0,0,0,2.87,2.14c2.49.37,5,.16,7.58.33,2.29.14,4.56,2.74,4.62,5.23a23.62,23.62,0,0,1-.31,3.75c-.21,1.57-2.46,3.33-4,3.27-.64,0-1.27,0-1.91,0C927.91,753.07,926.65,752.93,925.26,752.79Z"/><path class="cls-2" d="M740.14,664.41a25.35,25.35,0,0,1-3.66,1.05c-6.28.91-10.3,4.59-12.89,10.17a42,42,0,0,1-2.7,5,20.3,20.3,0,0,1-2.58,2.76,32.25,32.25,0,0,1-8.82-7.16c-.81-1-1-4.3-.28-5.46A21.92,21.92,0,0,1,721,661.63c1.2-.4,2.51-.43,3.73-.75a10.33,10.33,0,0,0,7.14-5.83c1.59-3.5,4.74-3.9,7.9-4.2a3,3,0,0,1,2.89,1.76,2.55,2.55,0,0,1-.19,1.86,12.76,12.76,0,0,1-1.87,3.28c-2,2.24-1.55,4.64-.84,7.17Z"/><path class="cls-2" d="M881.43,727.47a14.31,14.31,0,0,1,3.57.45,4.55,4.55,0,0,1,1.59,7.49,12.37,12.37,0,0,1-8.27,3.73c-5,.14-9.93.07-14.88-.15-1.12,0-2.2-1-3.3-1.62l.38.21c2.81-3.36,5.59-6.74,8.44-10.07,2.06-2.42,3.15-2.38,5.69.58,2.37,2.77,2.77,2.81,5.58-.06a7.49,7.49,0,0,1,1.56-1Z"/><path class="cls-2" d="M890.1,678.8c.12-1.84.25-3.69.35-5.54a11.46,11.46,0,0,0-.08-1.85c-.24-1.94.65-2.7,1.69-1.43a20.26,20.26,0,0,0,4,3.73c2.17,1.54,2.14,2.11,1.45,4.8-.95,3.68-2.2,7.14-5.83,9a2.29,2.29,0,0,1-1.76-.24c-.41-.21-.95-.81-.92-1.19.2-2.45.53-4.89.82-7.33Z"/><path class="cls-2" d="M740.14,628.17c-.36,2.44-.62,4.9-1.09,7.32a8,8,0,0,1-2.88,4.57c-2.08,1.75-4.42,1.66-6.5-.38a3.62,3.62,0,0,1-.75-4.85,21.49,21.49,0,0,1,6.57-6.38c1.73-1.07,3.46-.7,5.17.22Z"/><path class="cls-2" d="M952.26,782.78a6,6,0,0,1-6.5-2.56c-.86-1.13-1.37-2.23-.7-3.27.55-.85,1.61-.42,2.62.93s2.18,3,3.39,4.47c.37.42,1.14.5,1.72.74Z"/><path class="cls-2" d="M952.79,783.09c-1.47-.17-2.11.5-1.69,1.95.07.26,1.08.57,1.29.4,1.12-.9,1-1.86-.17-2.67C952.26,782.78,952.79,783.09,952.79,783.09Z"/><path class="cls-2" d="M860.14,737.37c.52.3,1.41.52,1.49.9.3,1.58-.1,1.41-1-.63C860.52,737.58,860.14,737.37,860.14,737.37Z"/><path class="cls-2" d="M881.79,727.05c-1.43.65-2.1.28-1.9-1.1,0-.08,1-.2,1.13,0a5,5,0,0,1,.41,1.54Z"/><path class="cls-2" d="M741.62,672.26c-.5-2.59-1-5.18-1.5-7.81,0,0-.37.51-.34.47a7.9,7.9,0,0,1,1.8,7.53C741.55,672.53,741.62,672.26,741.62,672.26Z"/><path class="cls-2" d="M834.32,362a5.39,5.39,0,0,1-.12,1.9c-5.05,11-10.4,21.9-16.5,32.41-8.73,15-19.88,28.18-31.86,40.62-6.63,6.88-13.09,14-20.81,19.77-1.44,1.08-4.07,1.22-5.34.16C746,445.4,732.19,434,718.55,422.44c-6.32-5.36-12.38-11.05-18.54-16.6-1.7-1.54-2-3.71-.64-4.9,3.8-3.4,7.48-6.95,11.39-10.22a146.44,146.44,0,0,0,22.38-23.57c9.71-12.72,19-25.67,25.8-40.26a20.36,20.36,0,0,1,3.27-4.65,3.18,3.18,0,0,1,3.46-.81,9.88,9.88,0,0,1,1.8.65q31,17.19,61.95,34.45a21.19,21.19,0,0,1,4.22,3.78C834,360.7,834.1,361.43,834.32,362Zm-48.9,27.22c1.24-.17,2.5-.24,3.72-.53a3.13,3.13,0,0,0,2.55-4.17c-.45-1.81-1-3.59-1.42-5.42-.31-1.53,1.28-3.9,2.88-4.33,1.81-.48,3.78-.58,5.47-1.31a2.6,2.6,0,0,0,1.27-3.12c-.14-.6-.25-1.54-.64-1.7-7.6-3.28-21.6-7.28-28.79-8.24-.49-.07-1.12.46-1.62.8a3.82,3.82,0,0,0-1.13,4.92c3.25,6.25,8.82,10.6,13,16.07.71.92.81,2.3,1.19,3.47-5.71-.11-11.35.28-16.8,2.2a3.28,3.28,0,0,1-3.34-1.19,2,2,0,0,1-.11-1.72,9.58,9.58,0,0,1,2.2-2.83c1.27-1,1.68-1.87.94-3.1a3.19,3.19,0,0,0-3-1.69,22.74,22.74,0,0,0-5.6.8,7.45,7.45,0,0,0-5,5.24c-.9,3,.62,6.33-1.07,9.25-1.22.36-2.47.67-3.66,1.11a2.88,2.88,0,0,0-1.21,4.54c3.35,4,8,6.31,11.73,9.8a37,37,0,0,1,3.72,4.27,2.2,2.2,0,0,1,.44,1.81,4.62,4.62,0,0,1-4.85,1.62c-4.29-2.75-8.51-5.62-12.8-8.38a26.23,26.23,0,0,0-5-2.68c-1.24-.46-2.47.2-3.53.89-1.42.91-1.21,3.71.44,4.83,5.78,3.95,11.51,8,17.43,11.72,2.8,1.77,6.11,1.66,9.28.74,3.39-1,7-5.26,7-8.37a10.9,10.9,0,0,0-2.5-7.08,43.52,43.52,0,0,0-5.5-5.27c-3.91-3.24-8.6-5.58-11.42-10a17.63,17.63,0,0,1,3.74.65c5.46,2.18,10.94,3.3,16.74,1.32a10.58,10.58,0,0,1,3.78-.28,2.72,2.72,0,0,1,1.66.86c.69.72.3,1.73-.88,2.8a21.15,21.15,0,0,0-2.75,2.59,3.1,3.1,0,0,0-.17,3.44c.24.43,1.12.57,1.74.7,6.33,1.29,11.45-3.39,11.87-9.33C785.46,393.05,785.39,391.13,785.42,389.22Z"/><path class="cls-2" d="M445.82,774.93a7.31,7.31,0,0,1-.66,1.71,48.17,48.17,0,0,1-4.6,6.05q-23,23-46.06,45.87c-.91.9-1.9,1.7-2.84,2.56-4.19,3.83-6.75,3.84-11.62-.2-4.41-3.67-8.82-7.34-13-11.24a297.78,297.78,0,0,1-44.77-52.07,152.75,152.75,0,0,1-12.4-21.48,6.19,6.19,0,0,1,1.13-5.34,46,46,0,0,1,4.24-3.8c11.43-8.12,22.86-16.23,34.39-24.2,7.33-5.07,14.83-9.9,22.26-14.81,1.33-.89,4-.13,5.1,1.34.75,1,1.64,1.95,2.29,3,6,9.83,13,18.89,20,28a176,176,0,0,0,41.61,39.08A28.73,28.73,0,0,1,445,773.2,5.61,5.61,0,0,1,445.82,774.93Zm-82.09-1.38c0,.64,0,1.28-.05,1.9-.63,5.06,1.86,8.43,5.85,11,4.65,3,9.52,3.51,14.37.83A84.61,84.61,0,0,0,400.67,775a8.27,8.27,0,0,0,1-1.59c.88-1.36.69-2.43-.56-3.23a3.42,3.42,0,0,0-3.5-.38c-2.23,1.16-4.35,2.56-6.47,3.92-3.74,2.38-7.4,4.89-11.19,7.18a7,7,0,0,1-5.47.4c-1.56-.41-2.47-3.34-1.67-4.65a20,20,0,0,1,5.43-5.24c4.05-3,8.18-6,12.26-8.95,2.37-1.75,2-4.22-.84-5.93-1.08-.65-2.25-1.16-3.38-1.74-.82-2.35-1.6-4.72-2.48-7a24.72,24.72,0,0,0-5.26-7.73c-1.73-1.9-5-2.52-6.84-1.25q-10.89,7.39-21.76,14.83a5.64,5.64,0,0,0-1.54,6.67,26.12,26.12,0,0,0,10.47,10.47C360.54,771.59,362.12,772.61,363.73,773.55Z"/><path class="cls-2" d="M522.65,113.51a6.69,6.69,0,0,1,1.72.83c5.19,4.74,8.71,10.92,13.71,15.83,11.24,14.93,25.19,26.93,40.3,37.75,6.73,4.81,13.82,9.13,20.13,14.52a2.59,2.59,0,0,1,.74,3.4,27,27,0,0,1-5.15,8c-8.52,9.49-15.88,19.93-24.5,29.36C564,229.28,559.17,236,554,242.47c-.93,1.16-4,1.53-5.31.7a346.48,346.48,0,0,1-40.34-28.95,190.66,190.66,0,0,1-39.87-46.07c-2.27-3.62-1.74-6.86,1.88-10.09,16.16-14.43,32.26-28.94,49-42.72A20.1,20.1,0,0,1,522.65,113.51Zm-5.93,41.88a40,40,0,0,0-.4-5.6,8.41,8.41,0,0,0-6.11-6.48A12.47,12.47,0,0,0,499.45,145a23.87,23.87,0,0,0-7.78,8,19.34,19.34,0,0,0-2,5.22c-1,4.4,2.32,8.81,6.92,9.4a21.06,21.06,0,0,0,9.21-1.28,10.77,10.77,0,0,0-3,4.77c-.14.6-.28,1.45,0,1.85a3.34,3.34,0,0,0,3.36,1.33,24.5,24.5,0,0,0,3.54-1.26,33.92,33.92,0,0,1,3.49-1.46,2.81,2.81,0,0,1,3.16,1.36,2.44,2.44,0,0,1,.26,1.86c-.61,1.77-1.39,3.48-2.14,5.21-.58,1.34-.53,2.84.73,3.43a4.74,4.74,0,0,0,3.43-.42c4.19-1.92,7-5.48,9.92-8.85a26.37,26.37,0,0,1-4.3,8,26.9,26.9,0,0,0-2.64,4.72,1.88,1.88,0,0,0,1.53,2.64,28.84,28.84,0,0,0,5.42,0c0,.64-.05,1.27,0,1.91.2,5.14.76,5.53,5.31,3.69,5.14-2.07,5.28-2,4.54,3.87-.08.63-.3,1.24-.36,1.86-.2,2,.17,3.86,2,4.9,3.86,2.19,7.79,4.15,12.44,4.23,2.85.05,4.38,2.2,5.58,4.51.29.56.38,1.21.63,1.79.58,1.4,1.43,2.18,2.4,2a2.51,2.51,0,0,0,1.51-1.1c3.35-6.11,6.65-12.27,8.45-19.07a8.37,8.37,0,0,0,.15-3.69,2.37,2.37,0,0,0-2.81-2,18.35,18.35,0,0,0-5.1,2.21c-3.74,2.34-6.79,5.76-11.19,7a3,3,0,0,1-1.78,0,1.89,1.89,0,0,1-1-3.09c1.44-2.08,3.15-4,4.7-6a31.54,31.54,0,0,0,3.27-4.66,5.61,5.61,0,0,0,.38-3.61c-.25-1-1.66-1.13-3.08-.76-1.21.31-2.5,1-3.65.78-2.91-.48-1.43-2.85-1.61-4.5-.07-.62-.19-1.24-.3-1.86a3.26,3.26,0,0,0-4.41-2c-1.64.91-3,2.37-5,2.58,0-1.24,0-2.48.08-3.72.11-3.19-1.1-4.46-4.08-4.27-1.24.08-2.48.1-3.72.14.48-1.12,1-2.23,1.43-3.37a4.1,4.1,0,0,0,.27-1.79c-.12-1.18-1-1.81-2.43-1.89-2.08-.11-3.13,1.58-4.6,2.57s-3.15,1.84-4.93.79c-1.41-.84-1.72-3.16-.73-4.9.6-1.06,1.34-2,2-3.06a3.19,3.19,0,0,0,.41-3.34c-.56-1.09-1.66-1.36-3.07-1C519.12,154.92,517.91,155.14,516.72,155.39Z"/><path class="cls-2" d="M229.11,715.18c.41,1.45-1.11,3.9-2.79,4.5-3,1.08-6,2.29-9,3.11-4.94,1.32-10,2.36-14.93,3.51-4,.92-7.13-.86-9.29-4.87-3.68-6.81-5.69-14.2-8-21.52a5,5,0,0,0-4.27-3.37,30.21,30.21,0,0,0-5.68-.39c-7,.5-14,1.2-21,1.73a22.72,22.72,0,0,1-5.71-.16,6.48,6.48,0,0,1-3.16-1.93,8.8,8.8,0,0,1-1.92-3.26,386.34,386.34,0,0,1-13.51-49.91c-.46-2.34,1.48-5.66,3.54-6.12.62-.14,1.23-.35,1.86-.48,6.9-1.34,13.77-2.81,20.7-4,13.86-2.36,27.74-4.56,41.61-6.84,2.19-.36,5,1.6,5.69,4s1.43,4.91,2,7.4c1.1,5,2.23,10,3.1,15,3,17.12,8.94,33.29,15.39,49.3,1.44,3.55,3.19,7,4.67,10.52A19.38,19.38,0,0,1,229.11,715.18Z"/><path class="cls-2" d="M171,703.57a20.72,20.72,0,0,1,4.23.3c1.14.33,2.62.93,3.11,1.85A30.57,30.57,0,0,1,182,716.41a3.5,3.5,0,0,1-.62,1.75,2.24,2.24,0,0,1-3.1,1,83.46,83.46,0,0,1-16.3-9.6,2.76,2.76,0,0,1-1.13-3.4,3.43,3.43,0,0,1,3-1.73C166.37,704.08,168.89,703.81,171,703.57Z"/><path class="cls-2" d="M894.38,266.3c-.33-1.6.2.9.7,3.4a6.17,6.17,0,0,1-4.79,7.06c-.62.16-1.21.42-1.83.56C869.15,281.67,850.14,287.2,831,292c-4.31,1.09-8.72,1.82-13.09,2.69-1.27.25-4.18-1.82-4.36-3.15-2-14.65-6.73-28.51-11.88-42.29a144.07,144.07,0,0,0-18.16-33.59c-3-4.15-5.88-8.34-8.81-12.51.3-1.17.33-2.54,1-3.48a7.92,7.92,0,0,1,3-2.26c12.06-5.86,24.16-11.62,36.21-17.5,5.73-2.8,11.36-5.83,17.07-8.67,3.42-1.71,6.91-3.29,10.39-4.89,2.17-1,5.86-.32,7.1,1.29,9.41,12.12,18.21,24.63,24.48,38.74,1.55,3.51,3.22,7,4.92,10.39C886,231.2,890.61,246.42,894.38,266.3Zm-60.61-39.4-.44-.16c-1.44,2.08-2.88,4.15-4.3,6.24-1,1.51-.37,4.43,1.22,5,2.38.87,4.81,1.61,7.21,2.41,1.95.66,2.24,2.65.61,4.62-.8,1-1.82,1.8-2.63,2.78a2.69,2.69,0,0,0-.26,3.45c.74,1.1,1.9,2,3.09,1.7,7.44-2.07,15.21-1.56,22.7-3.13a2.21,2.21,0,0,0,1.22-1.17,2.67,2.67,0,0,0-.72-3.48,17.1,17.1,0,0,0-3.36-1.62c-3.16-1.46-3.32-1.54-2-4,1.56-3,2.65-5.72.16-8.78-.74-.91-.72-2.4-1.32-3.48a11,11,0,0,0-2.34-2.84c-.93-.81-2.56-1.13-3-2.08s.24-2.45.23-3.71a2,2,0,0,0-.94-1.32c-2.37-1.38-5-.21-7.49-.71a2.87,2.87,0,0,1-2.51-2.25,2.25,2.25,0,0,1,.54-1.79,35.31,35.31,0,0,1,4.44-3.58c1.28-.84,1.92-1.95.88-3.15a4.3,4.3,0,0,0-3.24-1.33c-4.43.48-8.84,1.24-13.25,1.95a6.11,6.11,0,0,1-5.23-1.58c-1.45-1.25-3.07-2.29-4.57-3.48-2.1-1.67-2.09-5.31.08-6.56s4.49-2.36,6.81-3.39c1.52-.67,4.3.58,4.82,2.06a21.58,21.58,0,0,1,1,3.68,3.8,3.8,0,0,0,2,3.06c1,.52,3.53-1.43,4-3.18.7-2.53.79-5-.86-7.28a9.16,9.16,0,0,0-6.22-4,19.13,19.13,0,0,0-17.5,5.69c-4.4,4.42-4,9.65-.6,13.87,2.38,3,5.15,5.63,7.73,8.43a3.67,3.67,0,0,0,3.48,1.17c1.26-.2,2.55-.19,3.79-.42a2.6,2.6,0,0,1,3.22,1.52c.77,1.77.27,3-2,4.49-.53.36-1.17.56-1.67,1-1.59,1.24-2.38,3.55-1.58,4.89a3.82,3.82,0,0,0,3.29,1.71A8.59,8.59,0,0,0,833.77,226.9Zm21.29,31c-6,0-9.73-.08-13.47,0a2.65,2.65,0,0,0-2.55,2.33c-.26,1.17.24,2.13,1.55,2.88.55.31,1.11.59,1.65.9,3.14,1.82,4.24,4.33,2.84,7.85a7.71,7.71,0,0,0-.67,3.63,2.11,2.11,0,0,0,2.77,1.47,81.88,81.88,0,0,0,17.69-10.34,7.42,7.42,0,0,0,1.1-1.47c1.31-1.8-.07-5.69-2-6.36C860.32,257.57,856.57,258,855.06,257.91Z"/><path class="cls-2" d="M921.41,385.82a11.41,11.41,0,0,1,1.76.18,5.34,5.34,0,0,1,1.77.68q25.84,18.17,51.63,36.4a17,17,0,0,1,4,4,6.11,6.11,0,0,1,.72,3.62,9,9,0,0,1-1.09,3.63c-4.53,8.43-9,16.9-13.76,25.19-5.13,8.87-11.61,16.86-18.24,24.57-8.29,9.66-17.08,19-27.33,26.71-2,1.48-5.45,1.64-7.13.19Q889.87,490.35,866,469.67c-1.43-1.25-2.61-2.79-4-4.14-1.11-1.12-.82-3.78.59-5.16,1.82-1.78,3.58-3.62,5.49-5.29,19.41-17.06,34.72-37.3,46.76-60.08,1.48-2.81,2.56-5.86,4.93-8.12A10.47,10.47,0,0,1,921.41,385.82Z"/><path d="M440.63,330.83a63,63,0,0,1,7,1,10.5,10.5,0,0,1,8.09,9.52c.41,5.64-1.69,9.94-6.48,12.93-1.08.67-2.21,1.27-3.32,1.91-.55.31-1.09.65-1.65.95-11.82,6.32-23.63,12.66-35.49,18.9a22.35,22.35,0,0,1-5.43,1.73,8.82,8.82,0,0,1-10.11-6.64,18,18,0,0,1-.37-3.79,28.34,28.34,0,0,1,6.84-17.46c8.52-10.45,19.72-15.88,32.73-18.09C435,331.35,437.55,331.18,440.63,330.83Z"/><path d="M355,310.11c-1.38.44-2.37-.07-3-1.54a6.71,6.71,0,0,1-.23-5.5c3.09-6.25,6.36-12.42,9.69-18.55A8.18,8.18,0,0,1,365.8,281a3.42,3.42,0,0,1,3.48.48c1.07.81,1.91,2.2,1.17,3.29-5,7.41-8.28,15.67-12.31,23.55C357.68,309.18,356.07,309.51,355,310.11Z"/><path d="M422.68,262.51c5.2,1.72,10.21,1.2,15.23.35a4,4,0,0,1,3.59.87,7.78,7.78,0,0,1,2,2.95c.53,1.62-1,4.21-2.39,4.62a9,9,0,0,1-1.78.53c-7.06.51-13.82-1-20.47-3.12-1.15-.36-2.05-1.46-3.15-2.07-1.37-.77-1.83-1.78-1.22-3.23a2.81,2.81,0,0,1,2.8-1.82A43,43,0,0,1,422.68,262.51Z"/><path d="M387.34,321.07a7,7,0,0,1-5.92,6.14c-6.13.75-12.2-4.06-9.79-11.71a4.42,4.42,0,0,1,2.19-2.83,16,16,0,0,1,1.61-.9C381.78,309.23,388.22,313.84,387.34,321.07Z"/><path d="M436.08,286.06c4.3-.59,8.94,4.3,8.54,8.27-.43,4.27-3.2,7.16-7.24,7.19s-7.74-2.84-8.49-6.33C427.89,290.57,431.18,286.4,436.08,286.06Z"/><path d="M828.86,633.27a43,43,0,0,0-1,5.33c-.3,2.76-1.83,4.72-3.69,6.47A74,74,0,0,1,807,657.16c-2.84,1.45-5.69,2.93-8.63,4.16a25.24,25.24,0,0,0-11.43,9.85A29.28,29.28,0,0,1,783,675.3c-1,1.05-4.16.6-5-.75a28.82,28.82,0,0,1-2.75-5,29.36,29.36,0,0,1-1.16-5.62,23.69,23.69,0,0,1,3-16.6,24.35,24.35,0,0,0,2.48-5.14,5.83,5.83,0,0,0-.67-5.48c-2-2.51-4.07-4.89-6.17-7.29-1.42-1.63-3.39-1.6-5.3-1.45-3.14.25-5.75,2.84-9.1,2.18-.54-.11-1.43-.85-1.39-1.21.6-5.1,3.52-8.67,7.77-9.64,1.87-.42,3.76-.75,5.64-1.11,5.69-1.09,11.44,1.43,17.15-.42,4.93-1.59,10.1-1.41,15.21-1.45,5.76-.05,11.51-.23,17.26-.3a15.15,15.15,0,0,1,3.81.33,34.33,34.33,0,0,1,5.4,1.83c3.2,1.38,4,3,3,5.75C831.36,626.37,830.48,628.77,828.86,633.27Z"/><path d="M966.09,869c.06,1.23.49,2.6.11,3.68a102.81,102.81,0,0,1-9.33,18.61c-.58,1-1.9,1.55-3,2.17-.52.29-1.51.54-1.8.28C951.24,893,950,891.9,950,891c.21-10.17,4.13-18.34,13.28-23.47C964.49,866.86,965.48,867.46,966.09,869Z"/><path d="M822,665.47a14.17,14.17,0,0,1-2.24-.44,3.23,3.23,0,0,1-2.19-2.62c-.18-1.24,0-2.7,1.15-3.25,3.34-1.63,6.92-2.65,10.68-1.95a6.47,6.47,0,0,1,2.87,2c1.06,1.06,0,3.73-1.81,4.58a13.2,13.2,0,0,1-3.39,1.33A50.7,50.7,0,0,1,822,665.47Z"/><path d="M697.47,780.87a7.26,7.26,0,0,1,1.84-.15c2.51.41,4.41,2,6.48,3.34s4.84.66,6.53,2.68c.23.28.1,1.34-.09,1.4-3.66,1.27-7.28-.13-10.93-.3-2.88-.13-4-1.46-4.44-4.79a6.89,6.89,0,0,1,.25-1.83Z"/><path d="M874.17,624.57a5.17,5.17,0,0,1-2.2,4.54,3.4,3.4,0,0,1-3.42.55,3.47,3.47,0,0,1-2-3c-.34-3.16.85-4.94,3.69-5.46A3.37,3.37,0,0,1,874.17,624.57Z"/><path d="M694.91,775.78a20.46,20.46,0,0,1-3,1.43,1.87,1.87,0,0,1-1.5-.68A1.8,1.8,0,0,1,690,775a1.63,1.63,0,0,1,1.52-.47,17,17,0,0,1,2.94,1.72Z"/><path d="M697.11,781.22c-3.38-1.31-3.63-1.89-2.24-5.39,0-.05-.46.43-.4.38,1.45,1.26,3.28,2.3,3,4.66Z"/><path d="M749.53,392.17c2.88,4.42,7.57,6.76,11.48,10a43.52,43.52,0,0,1,5.5,5.27,10.9,10.9,0,0,1,2.5,7.08c0,3.11-3.56,7.38-7,8.37-3.17.92-6.48,1-9.28-.74-5.92-3.73-11.65-7.77-17.43-11.72-1.65-1.12-1.86-3.92-.44-4.83,1.06-.69,2.29-1.35,3.53-.89a26.23,26.23,0,0,1,5,2.68c4.29,2.76,8.51,5.63,12.8,8.38a4.62,4.62,0,0,0,4.85-1.62,2.2,2.2,0,0,0-.44-1.81,37,37,0,0,0-3.72-4.27c-3.72-3.49-8.38-5.83-11.73-9.8a2.88,2.88,0,0,1,1.21-4.54c1.19-.44,2.44-.75,3.69-1.08Z"/><path d="M781.9,385.66c-.38-1.17-.48-2.55-1.19-3.47-4.18-5.47-9.75-9.82-13-16.07a3.82,3.82,0,0,1,1.13-4.92c.5-.34,1.13-.87,1.62-.8,7.19,1,21.19,5,28.79,8.24.39.16.5,1.1.64,1.7a2.6,2.6,0,0,1-1.27,3.12c-1.69.73-3.66.83-5.47,1.31-1.6.43-3.19,2.8-2.88,4.33.38,1.83,1,3.61,1.42,5.42a3.13,3.13,0,0,1-2.55,4.17c-1.22.29-2.48.36-3.72.53l.47.51a10.61,10.61,0,0,0-4.58-4.58Z"/><path d="M785.42,389.22c0,1.91,0,3.83-.1,5.74-.42,5.94-5.54,10.62-11.87,9.33-.62-.13-1.5-.27-1.74-.7a3.1,3.1,0,0,1,.17-3.44,21.15,21.15,0,0,1,2.75-2.59c1.18-1.07,1.57-2.08.88-2.8a2.72,2.72,0,0,0-1.66-.86,10.58,10.58,0,0,0-3.78.28c-5.8,2-11.28.86-16.74-1.32a18.91,18.91,0,0,0-3.77-.67l.58.46c1.66-2.95.14-6.24,1-9.28a7.45,7.45,0,0,1,5-5.24,22.74,22.74,0,0,1,5.6-.8,3.19,3.19,0,0,1,3,1.69c.74,1.23.33,2.11-.94,3.1a9.58,9.58,0,0,0-2.2,2.83,2,2,0,0,0,.11,1.72,3.28,3.28,0,0,0,3.34,1.19c5.45-1.92,11.09-2.31,16.8-2.2l-.59-.5a11.64,11.64,0,0,0,4.58,4.57Z"/><path d="M386.29,754.79c1.13.57,2.3,1.08,3.38,1.73,2.87,1.71,3.21,4.18.84,5.93-4.08,3-8.21,5.91-12.26,8.95a20,20,0,0,0-5.43,5.24c-.8,1.31.11,4.24,1.67,4.65a7,7,0,0,0,5.47-.4c3.79-2.29,7.45-4.8,11.19-7.18,2.12-1.36,4.24-2.76,6.47-3.92a3.42,3.42,0,0,1,3.5.38c1.25.8,1.44,1.87.56,3.23a8.27,8.27,0,0,1-1,1.59,84.61,84.61,0,0,1-16.77,12.34c-4.85,2.68-9.72,2.21-14.37-.83-4-2.62-6.48-6-5.85-11,.07-.62,0-1.26.05-1.9l-.64.28c7.35-5.53,14.73-11,22-16.64.83-.64,1.06-2.08,1.57-3.14Z"/><path d="M363.73,773.55c-1.61-.94-3.19-2-4.85-2.83a26.12,26.12,0,0,1-10.47-10.47,5.64,5.64,0,0,1,1.54-6.67q10.86-7.44,21.76-14.83c1.88-1.27,5.11-.65,6.84,1.25a24.72,24.72,0,0,1,5.26,7.73c.88,2.33,1.66,4.7,2.48,7l.38-.73c-3.85-2.22-7.63-4.55-11.57-6.58a2.59,2.59,0,0,0-3.22,1.14c-1.18,1.7-.8,3.62-.86,5.51-.11,3.07-1.07,4-3.12,3.1-1.17-.48-2.25-1.15-3.4-1.67a5.71,5.71,0,0,0-1.84-.53,6,6,0,0,0-5.15,1.76,4.06,4.06,0,0,0,0,5.18c3.24,3.35,4.66,7.48,5.61,11.87Z"/><path d="M539.66,178.5c2-.22,3.35-1.68,5-2.59a3.26,3.26,0,0,1,4.41,2c.11.62.23,1.24.3,1.86.18,1.65-1.3,4,1.61,4.5,1.15.18,2.44-.47,3.65-.78,1.42-.37,2.83-.24,3.08.76a5.61,5.61,0,0,1-.38,3.61,31.54,31.54,0,0,1-3.27,4.66c-1.55,2-3.26,3.89-4.7,6a1.89,1.89,0,0,0,1,3.09,3,3,0,0,0,1.78,0c4.4-1.27,7.45-4.69,11.19-7a18.35,18.35,0,0,1,5.1-2.21,2.37,2.37,0,0,1,2.81,2,8.37,8.37,0,0,1-.15,3.69c-1.8,6.8-5.1,13-8.45,19.07a2.51,2.51,0,0,1-1.51,1.1c-1,.22-1.82-.56-2.4-2-.25-.58-.34-1.23-.63-1.79-1.2-2.31-2.73-4.46-5.58-4.51-4.65-.08-8.58-2-12.44-4.23-1.83-1-2.2-2.92-2-4.9.06-.62.28-1.23.36-1.86.74-5.82.6-5.94-4.54-3.87-4.55,1.84-5.11,1.45-5.31-3.69,0-.64,0-1.27,0-1.91l-.58.55a5.83,5.83,0,0,0,4.52-4.52l-.67.68a5.66,5.66,0,0,0,4.52-4.51l-.68.68a5.58,5.58,0,0,0,4.52-4.52Z"/><path d="M528.59,174.15c-2.94,3.37-5.74,6.93-9.93,8.85a4.74,4.74,0,0,1-3.43.42c-1.26-.59-1.31-2.09-.73-3.43.75-1.73,1.53-3.44,2.14-5.21a2.44,2.44,0,0,0-.26-1.86,2.81,2.81,0,0,0-3.16-1.36,33.92,33.92,0,0,0-3.49,1.46,24.5,24.5,0,0,1-3.54,1.26,3.34,3.34,0,0,1-3.36-1.33c-.3-.4-.16-1.25,0-1.85a10.77,10.77,0,0,1,3-4.77l-.56.64a16.9,16.9,0,0,0,8.95-7.74c.85-1.51,2-2.86,3-4.28l-.41.44c1.19-.25,2.4-.47,3.58-.76,1.41-.34,2.51-.07,3.07,1A3.19,3.19,0,0,1,523,159c-.67,1-1.41,2-2,3.06-1,1.74-.68,4.06.73,4.9,1.78,1.05,3.45.21,4.93-.79s2.52-2.68,4.6-2.57c1.42.08,2.31.71,2.43,1.89a4.1,4.1,0,0,1-.27,1.79c-.42,1.14-1,2.25-1.43,3.37l.49-.46-4.35,4.38Z"/><path d="M505.79,166.33a21.06,21.06,0,0,1-9.21,1.28c-4.6-.59-8-5-6.92-9.4a19.34,19.34,0,0,1,2-5.22,23.87,23.87,0,0,1,7.78-8,12.47,12.47,0,0,1,10.76-1.66,8.41,8.41,0,0,1,6.11,6.48,40,40,0,0,1,.4,5.6l.41-.44c-3.44,1.07-6,.37-7.44-3.3-.42-1.09-1.23-2.59-2.13-2.81-1.88-.46-3.59.71-5,2a51.53,51.53,0,0,0-4,4c-3.13,3.54-2.27,6.16.84,7.62,2.29,1.08,4.44,2.28,5.8,4.54Z"/><path d="M528.59,189.51a28.84,28.84,0,0,1-5.42,0,1.88,1.88,0,0,1-1.53-2.64,26.9,26.9,0,0,1,2.64-4.72,26.62,26.62,0,0,0,4.31-8l-.51.4a8.55,8.55,0,0,0,4.35-4.37l-.49.46c1.24,0,2.48-.06,3.72-.14,3-.19,4.19,1.08,4.08,4.27,0,1.24,0,2.48-.08,3.72l.56-.62a4.84,4.84,0,0,0-4.52,4.52l.68-.68a5,5,0,0,0-4.52,4.51l.67-.68a5.49,5.49,0,0,0-4.52,4.52Z"/><path d="M833.77,226.9a8.59,8.59,0,0,1-5.45,1.22,3.82,3.82,0,0,1-3.29-1.71c-.8-1.34,0-3.65,1.58-4.89.5-.39,1.14-.59,1.67-1,2.22-1.52,2.72-2.72,2-4.49a2.6,2.6,0,0,0-3.22-1.52c-1.24.23-2.53.22-3.79.42a3.67,3.67,0,0,1-3.48-1.17c-2.58-2.8-5.35-5.46-7.73-8.43-3.38-4.22-3.8-9.45.6-13.87a19.13,19.13,0,0,1,17.5-5.69,9.16,9.16,0,0,1,6.22,4c1.65,2.32,1.56,4.75.86,7.28-.48,1.75-3,3.7-4,3.18a3.8,3.8,0,0,1-2-3.06,21.58,21.58,0,0,0-1-3.68c-.52-1.48-3.3-2.73-4.82-2.06-2.32,1-4.61,2.14-6.81,3.39s-2.18,4.89-.08,6.56c1.5,1.19,3.12,2.23,4.57,3.48a6.11,6.11,0,0,0,5.23,1.58c4.41-.71,8.82-1.47,13.25-1.95a4.3,4.3,0,0,1,3.24,1.33c1,1.2.4,2.31-.88,3.15a35.31,35.31,0,0,0-4.44,3.58,2.25,2.25,0,0,0-.54,1.79,2.87,2.87,0,0,0,2.51,2.25c2.47.5,5.12-.67,7.49.71a2,2,0,0,1,.94,1.32c0,1.26-.69,2.73-.23,3.71s2.08,1.27,3,2.08a11,11,0,0,1,2.34,2.84c.6,1.08.58,2.57,1.32,3.48,2.49,3.06,1.4,5.81-.16,8.78-1.32,2.5-1.16,2.58,2,4a17.1,17.1,0,0,1,3.36,1.62,2.67,2.67,0,0,1,.72,3.48,2.21,2.21,0,0,1-1.22,1.17c-7.49,1.57-15.26,1.06-22.7,3.13-1.19.33-2.35-.6-3.09-1.7a2.69,2.69,0,0,1,.26-3.45c.81-1,1.83-1.79,2.63-2.78,1.63-2,1.34-4-.61-4.62-2.4-.8-4.83-1.54-7.21-2.41-1.59-.59-2.26-3.51-1.22-5,1.42-2.09,2.86-4.16,4.38-6.19a30.42,30.42,0,0,0,3.65.47c.38,0,.78-.46,1.17-.71C836.64,225.31,835.32,227.61,833.77,226.9Z"/><path d="M855.06,257.91c1.51.07,5.26-.34,8.93.92,1.91.67,3.29,4.56,2,6.36a7.42,7.42,0,0,1-1.1,1.47A81.88,81.88,0,0,1,847.18,277a2.11,2.11,0,0,1-2.77-1.47,7.71,7.71,0,0,1,.67-3.63c1.4-3.52.3-6-2.84-7.85-.54-.31-1.1-.59-1.65-.9-1.31-.75-1.81-1.71-1.55-2.88a2.65,2.65,0,0,1,2.55-2.33C845.33,257.83,849.09,257.91,855.06,257.91Z"/><path class="cls-2" d="M785.89,389.73a11.64,11.64,0,0,1-4.58-4.57A10.53,10.53,0,0,1,785.89,389.73Z"/><path class="cls-2" d="M363.09,773.83c-.95-4.39-2.37-8.52-5.61-11.87a4.06,4.06,0,0,1,0-5.18,6,6,0,0,1,5.15-1.76,5.71,5.71,0,0,1,1.84.53c1.15.52,2.23,1.19,3.4,1.67,2.05.85,3,0,3.12-3.1.06-1.89-.32-3.81.86-5.51a2.59,2.59,0,0,1,3.22-1.14c3.94,2,7.72,4.36,11.57,6.58-.51,1.06-.74,2.5-1.57,3.14C377.82,762.82,370.44,768.3,363.09,773.83Z"/><path class="cls-2" d="M535.7,182.39a4.84,4.84,0,0,1,4.52-4.52A5.58,5.58,0,0,1,535.7,182.39Z"/><path class="cls-2" d="M531.86,186.22a5,5,0,0,1,4.52-4.51A5.66,5.66,0,0,1,531.86,186.22Z"/><path class="cls-2" d="M528,190.06a5.49,5.49,0,0,1,4.52-4.52A5.83,5.83,0,0,1,528,190.06Z"/><path class="cls-2" d="M505.23,167c-1.36-2.26-3.51-3.46-5.8-4.54-3.11-1.46-4-4.08-.84-7.62a51.53,51.53,0,0,1,4-4c1.41-1.27,3.12-2.44,5-2,.9.22,1.71,1.72,2.13,2.81,1.41,3.67,4,4.37,7.44,3.3-1,1.42-2.1,2.77-3,4.28A16.9,16.9,0,0,1,505.23,167Z"/><path class="cls-2" d="M532.43,170.18a8.55,8.55,0,0,1-4.35,4.37Z"/><path class="cls-2" d="M833.77,226.9c1.55.71,2.87-1.59,4.46-.35-.39.25-.79.72-1.17.71a30.42,30.42,0,0,1-3.65-.47C833.33,226.74,833.77,226.9,833.77,226.9Z"/></svg>