<svg id="Ebene_1" data-name="Ebene 1" xmlns="http://www.w3.org/2000/svg" viewBox="0 0 1200.08 1106.42"><defs><style>.cls-1{fill:#f9f9f9;}.cls-2{fill:#fff;}</style></defs><path class="cls-1" d="M344.31,789.67l0-.2c10.66-2.1,21.35-4.06,32-6.33,21.88-4.66,44-8.34,65.71-13.63,5.58-1.35,11.3-2.07,17-3,1.82-.32,3.92,1.61,3.62,3.37-.43,2.5-.89,5-1.32,7.5-.86,5,1.86,7.12,5.87,8.34a24.72,24.72,0,0,0,5.63,1.1c6.38.43,12.77.66,19.16,1,1.9.11,3.8.42,5.7.61,2.15.23,4.94,2.86,5.13,5,.28,3.17.69,6.34.71,9.52q.21,46.05.3,92.12c0,12.15-.44,24.31,1,36.42a8.8,8.8,0,0,1,0,1.92c-.39,3.28-1.43,6.28-4.35,8.15-3.23,2.06-6.6,3.9-9.84,6-4.86,3.08-9.67,6.24-14.46,9.42a15.88,15.88,0,0,0-5.13,5.62,17.22,17.22,0,0,0-1.93,5.33c-.71,4,2,8.06,5.75,8.57a132.61,132.61,0,0,0,13.33,1.38c17.93.66,35.76-1.18,53.61-2.57a11.19,11.19,0,0,0,1.88-.38c.61-.15,1.21-.37,1.83-.53,3.12-.82,7-5,7.24-8.25.5-6.37.27-12.84,1.36-19.09a223.78,223.78,0,0,0,2.73-32.47c.1-3.82.65-7.64,1-11.46.41-4.46.75-8.92,1.22-13.37,1.39-13.35,1.7-26.8,3.41-40.14.9-7,1.12-14,1.63-21,.63-8.93,1.41-17.83,2.63-26.72,1.9-13.94,3.49-27.93,4.92-41.92,1.5-14.63,2.63-29.3,4-43.94a19.36,19.36,0,0,1,1.24-5.55c.43-1,1.66-1.8,2.64-2.54a3.42,3.42,0,0,1,1.82-.55,54.6,54.6,0,0,1,5.72-.11,6.91,6.91,0,0,1,6.6,5.75c.34,2.53.83,5.06,1,7.6.51,10.23,1.59,20.39,2.86,30.56,2.06,16.49,3.6,33,5.42,49.58.56,5.08,1.31,10.14,2,15.22.4,3.17.88,6.33,1.12,9.52q2.74,37.3,5.41,74.62c.37,5.1,1,10.19,1.2,15.29.74,15.33,3.37,30.52,3.32,45.9a16.28,16.28,0,0,0,.6,3.77,11.54,11.54,0,0,0,7,8.48,27.76,27.76,0,0,0,9.3,2.14c11.49.71,23,1.46,34.47,2a148.1,148.1,0,0,0,15.34,0c4.45-.26,8.87-1,13.29-1.72,3.5-.55,6.4-5.34,5.31-8.89a15.06,15.06,0,0,0-2.44-5.14,42.26,42.26,0,0,0-6.72-6.78c-4-3.12-8.31-6-12.63-8.7-3.24-2-6.74-3.66-10.1-5.51a8.7,8.7,0,0,1-4.85-7.72c-.23-14.71-.48-29.42-.46-44.13q.06-27.82.54-55.66c.2-12.15.66-24.29,1.06-36.44a10,10,0,0,1,.82-3.71c.77-1.73,1.78-3.47,3.81-4a55,55,0,0,1,7.49-1.43c7.63-.76,15.29-1.3,22.92-2.07a39.14,39.14,0,0,0,5.5-1.45c1.26-.32,3.24-3.08,3.17-4.44-.22-4.47-.34-8.94-.7-13.4-.55-7-1.3-14-1.89-21-.16-1.9,0-3.83,0-5.74a4.07,4.07,0,0,1,4.87-4.15c26.88,5.79,53.49,12.67,80.17,19.24,20.48,5,40.83,10.61,61.25,15.88q22.27,5.74,44.6,11.33a48.37,48.37,0,0,0,5.67.81c1.07.13,4.49-1.71,5-2.55a38.1,38.1,0,0,0,4-10.72c2.15-8.68,3.8-17.5,6.17-26.13,9.47-34.52,16.92-69.55,25.69-104.25,7.52-29.74,14.21-59.69,21.39-89.51,5.09-21.14,10.42-42.21,15.56-63.33,1.05-4.34,1.79-8.76,2.58-13.16.58-3.23-1.49-6.82-4.34-7.61-5.54-1.55-11.07-3.1-16.64-4.52-10.53-2.68-21.09-5.24-31.62-7.9a20.23,20.23,0,0,1-3.52-1.45A5.08,5.08,0,0,1,926,450.6a4.87,4.87,0,0,1-1.06-1.59c-.92-2.36-1.63-4.82-2.7-7.11a6.41,6.41,0,0,0-2.53-2.75c-6.74-3.67-14.52-5-21-9.37a6.17,6.17,0,0,1-2.34-2.87c-.81-2.4-1.14-5-1.82-7.41a17.6,17.6,0,0,0-7.81-10.56c-5.62-3.44-11.67-5-18.28-2.44a20.37,20.37,0,0,0-9.33,6.41c-.78,1-1.63,2-2.36,3-2.14,3-5.24,3.4-8.5,2.92-3.79-.57-7.53-1.45-11.31-2.07a28,28,0,0,0-5.7-.43,6.57,6.57,0,0,0-3.56,1.14c-2,1.56-3.74,3.45-5.61,5.18-1.43,1.32-3,2.32-5.1,1.8q-6.51-1.62-13-3.32c-13-3.38-26-6.7-39.22-8.87-2-.33-5.72,1.59-6.49,3.3a13.6,13.6,0,0,0-.85,1.71Q753,433,748.65,448.66c-1.37,4.93-2.65,9.88-4,14.81-.51,1.86-3.18,2.66-4.39,1.34-4.75-5.16-9.55-10.3-14.24-15.53-9-10-18.15-19.8-27.79-29.16a58.87,58.87,0,0,0-21-13.15,333.64,333.64,0,0,0-38.44-11.89c-6.18-1.45-12.56-2.51-18.38-5.25-1-.45-1.58-1.89-2.09-3-.17-.37.38-1.23.8-1.67a10,10,0,0,1,2.8-2.49c16-7.19,29.41-17.9,41.1-30.89a40.71,40.71,0,0,0,5.79-7.6c1.84-3.37,3.68-6.74,5.68-10a68.58,68.58,0,0,0,7.19-17.71c2.57-9.28,3.29-18.87,4.06-28.43a28.38,28.38,0,0,0-.19-5.75c-.8-6.34-1.69-12.68-2.61-19a44.51,44.51,0,0,0-1.18-5.62c-6-20.93-17.29-38.41-34.49-51.8a109.26,109.26,0,0,0-34-17.43,78.12,78.12,0,0,0-26.44-3.89c-6.39.19-12.83-.19-19.13,1.1-18.48,3.77-35.33,11.12-49.87,23.31-13.55,11.37-23,25.71-29.09,42.18-6.31,17.18-7.12,35.12-4.49,53,2.15,14.69,8.23,28.17,16.08,40.77a32.25,32.25,0,0,0,3.51,4.55c1.72,1.9,3.65,3.6,5.38,5.48,10.57,11.41,22.71,20.59,37.26,26.39a16.35,16.35,0,0,1,3.23,2,6,6,0,0,1,1.34,1.32,2.77,2.77,0,0,1,.23,3.49c-.34.51-.61,1.36-1.06,1.47-12.4,3.06-24.62,6.75-36.86,10.37-9.21,2.72-18.15,6.16-27.07,9.69a47,47,0,0,0-14.54,9.09c-3.31,3-6.57,6.11-9.57,9.43-6.86,7.58-13.55,15.32-20.3,23a11.09,11.09,0,0,1-1.18,1.51,3.14,3.14,0,0,1-1.72.78,3,3,0,0,1-2.75-2c-3.19-8.4-4.82-17.21-6.58-26a45.12,45.12,0,0,0-4.12-12.72c-.79-1.45-3.12-3.1-4.62-2.92-6.33.75-12.74,1.17-19,2.4-15.68,3.07-31.29,6.52-46.93,9.78a20.12,20.12,0,0,1-3.8.34,6.89,6.89,0,0,1-5-2.3,10,10,0,0,1-.95-1.66,21.18,21.18,0,0,0-2.17-3.15,10.53,10.53,0,0,0-6.66-3.38c-7.06-.86-14,.5-21,.88a5.16,5.16,0,0,1-3.52-1.17c-2.72-2.67-5.13-5.66-7.78-8.41a16.65,16.65,0,0,0-8.37-4.41,25,25,0,0,0-13.25.36,15.12,15.12,0,0,0-9.82,8.48c-1.58,3.48-2.76,7.14-4.11,10.72a4.82,4.82,0,0,1-2.5,2.81,147.06,147.06,0,0,1-19.58,7.59,8.68,8.68,0,0,0-6.12,6.75c-.6,2.47-1.11,5-1.7,7.44a3.6,3.6,0,0,1-2.52,2.7,93.19,93.19,0,0,1-9.12,2.83c-8.76,1.81-17.57,3.42-26.37,5.06a340.43,340.43,0,0,0-37.29,8.79c-1.65.5-4.34,4.16-4.29,5.94a35.09,35.09,0,0,0,.3,5.72q3.59,18.84,7.36,37.66c4.13,20.69,8.63,41.31,12.36,62.07C182,589.46,185,605.15,188,620.84q5.77,30.13,11.53,60.27c4.08,21.35,8.53,42.63,12.44,64,3.55,19.48,8.28,38.74,11.5,58.3a8.46,8.46,0,0,0,.51,1.85c.5,1.17,1.05,2.32,1.61,3.47a7.35,7.35,0,0,0,7.95,3.87c30.55-6.92,61.26-13.09,92-19.17C331.78,792.21,338,790.93,344.31,789.67Z"/><path d="M344.31,789.67c-6.27,1.26-12.53,2.54-18.8,3.78-30.72,6.08-61.43,12.25-92,19.17a7.35,7.35,0,0,1-7.95-3.87c-.56-1.15-1.11-2.3-1.61-3.47a8.46,8.46,0,0,1-.51-1.85c-3.22-19.56-8-38.82-11.5-58.3-3.91-21.39-8.36-42.67-12.44-64Q193.76,651,188,620.84c-3-15.69-6-31.38-8.85-47.11-3.73-20.76-8.23-41.38-12.36-62.07Q163,492.84,159.42,474a35.09,35.09,0,0,1-.3-5.72c-.05-1.78,2.64-5.44,4.29-5.94a340.43,340.43,0,0,1,37.29-8.79c8.8-1.64,17.61-3.25,26.37-5.06a93.19,93.19,0,0,0,9.12-2.83,3.6,3.6,0,0,0,2.52-2.7c.59-2.48,1.1-5,1.7-7.44a8.68,8.68,0,0,1,6.12-6.75,147.06,147.06,0,0,0,19.58-7.59,4.82,4.82,0,0,0,2.5-2.81c1.35-3.58,2.53-7.24,4.11-10.72a15.12,15.12,0,0,1,9.82-8.48,25,25,0,0,1,13.25-.36,16.65,16.65,0,0,1,8.37,4.41c2.65,2.75,5.06,5.74,7.78,8.41a5.16,5.16,0,0,0,3.52,1.17c7-.38,14-1.74,21-.88a10.53,10.53,0,0,1,6.66,3.38,21.18,21.18,0,0,1,2.17,3.15,10,10,0,0,0,.95,1.66,6.89,6.89,0,0,0,5,2.3,20.12,20.12,0,0,0,3.8-.34c15.64-3.26,31.25-6.71,46.93-9.78,6.24-1.23,12.65-1.65,19-2.4,1.5-.18,3.83,1.47,4.62,2.92a45.12,45.12,0,0,1,4.12,12.72c1.76,8.76,3.39,17.57,6.58,26a3,3,0,0,0,2.75,2,3.14,3.14,0,0,0,1.72-.78,11.09,11.09,0,0,0,1.18-1.51c6.75-7.68,13.44-15.42,20.3-23,3-3.32,6.26-6.41,9.57-9.43a47,47,0,0,1,14.54-9.09c8.92-3.53,17.86-7,27.07-9.69,12.24-3.62,24.46-7.31,36.86-10.37.45-.11.72-1,1.06-1.47a2.77,2.77,0,0,0-.23-3.49,6,6,0,0,0-1.34-1.32,16.35,16.35,0,0,0-3.23-2c-14.55-5.8-26.69-15-37.26-26.39-1.73-1.88-3.66-3.58-5.38-5.48a32.25,32.25,0,0,1-3.51-4.55c-7.85-12.6-13.93-26.08-16.08-40.77-2.63-17.9-1.82-35.84,4.49-53,6.06-16.47,15.54-30.81,29.09-42.18,14.54-12.19,31.39-19.54,49.87-23.31,6.3-1.29,12.74-.91,19.13-1.1a78.12,78.12,0,0,1,26.44,3.89,109.26,109.26,0,0,1,34,17.43c17.2,13.39,28.5,30.87,34.49,51.8a44.51,44.51,0,0,1,1.18,5.62c.92,6.33,1.81,12.67,2.61,19a28.38,28.38,0,0,1,.19,5.75c-.77,9.56-1.49,19.15-4.06,28.43a68.58,68.58,0,0,1-7.19,17.71c-2,3.27-3.84,6.64-5.68,10a40.71,40.71,0,0,1-5.79,7.6c-11.69,13-25.05,23.7-41.1,30.89a10,10,0,0,0-2.8,2.49c-.42.44-1,1.3-.8,1.67.51,1.1,1.12,2.54,2.09,3,5.82,2.74,12.2,3.8,18.38,5.25A333.64,333.64,0,0,1,677.28,407a58.87,58.87,0,0,1,21,13.15c9.64,9.36,18.82,19.15,27.79,29.16,4.69,5.23,9.49,10.37,14.24,15.53,1.21,1.32,3.88.52,4.39-1.34,1.35-4.93,2.63-9.88,4-14.81q4.36-15.69,8.8-31.37a13.6,13.6,0,0,1,.85-1.71c.77-1.71,4.51-3.63,6.49-3.3C778,414.45,791,417.77,804,421.15q6.5,1.69,13,3.32c2.08.52,3.67-.48,5.1-1.8,1.87-1.73,3.61-3.62,5.61-5.18a6.57,6.57,0,0,1,3.56-1.14,28,28,0,0,1,5.7.43c3.78.62,7.52,1.5,11.31,2.07,3.26.48,6.36.11,8.5-2.92.73-1,1.58-2,2.36-3a20.37,20.37,0,0,1,9.33-6.41c6.61-2.52,12.66-1,18.28,2.44a17.6,17.6,0,0,1,7.81,10.56c.68,2.45,1,5,1.82,7.41a6.17,6.17,0,0,0,2.34,2.87c6.43,4.34,14.21,5.7,21,9.37a6.41,6.41,0,0,1,2.53,2.75c1.07,2.29,1.78,4.75,2.7,7.11A4.87,4.87,0,0,0,926,450.6a5.08,5.08,0,0,0,1.52,1.12,20.23,20.23,0,0,0,3.52,1.45c10.53,2.66,21.09,5.22,31.62,7.9,5.57,1.42,11.1,3,16.64,4.52,2.85.79,4.92,4.38,4.34,7.61-.79,4.4-1.53,8.82-2.58,13.16-5.14,21.12-10.47,42.19-15.56,63.33-7.18,29.82-13.87,59.77-21.39,89.51-8.77,34.7-16.22,69.73-25.69,104.25-2.37,8.63-4,17.45-6.17,26.13a38.1,38.1,0,0,1-4,10.72c-.51.84-3.93,2.68-5,2.55a48.37,48.37,0,0,1-5.67-.81q-22.32-5.6-44.6-11.33c-20.42-5.27-40.77-10.83-61.25-15.88-26.68-6.57-53.29-13.45-80.17-19.24a4.07,4.07,0,0,0-4.87,4.15c0,1.91-.16,3.84,0,5.74.59,7,1.34,14,1.89,21,.36,4.46.48,8.93.7,13.4.07,1.36-1.91,4.12-3.17,4.44a39.14,39.14,0,0,1-5.5,1.45c-7.63.77-15.29,1.31-22.92,2.07a55,55,0,0,0-7.49,1.43c-2,.49-3,2.23-3.81,4a10,10,0,0,0-.82,3.71c-.4,12.15-.86,24.29-1.06,36.44q-.44,27.83-.54,55.66c0,14.71.23,29.42.46,44.13a8.7,8.7,0,0,0,4.85,7.72c3.36,1.85,6.86,3.48,10.1,5.51,4.32,2.72,8.59,5.58,12.63,8.7a42.26,42.26,0,0,1,6.72,6.78,15.06,15.06,0,0,1,2.44,5.14c1.09,3.55-1.81,8.34-5.31,8.89-4.42.68-8.84,1.46-13.29,1.72a148.1,148.1,0,0,1-15.34,0c-11.5-.56-23-1.31-34.47-2a27.76,27.76,0,0,1-9.3-2.14,11.54,11.54,0,0,1-7-8.48,16.28,16.28,0,0,1-.6-3.77c.05-15.38-2.58-30.57-3.32-45.9-.24-5.1-.83-10.19-1.2-15.29q-2.71-37.31-5.41-74.62c-.24-3.19-.72-6.35-1.12-9.52-.64-5.08-1.39-10.14-2-15.22-1.82-16.53-3.36-33.09-5.42-49.58-1.27-10.17-2.35-20.33-2.86-30.56-.12-2.54-.61-5.07-1-7.6a6.91,6.91,0,0,0-6.6-5.75,54.6,54.6,0,0,0-5.72.11,3.42,3.42,0,0,0-1.82.55c-1,.74-2.21,1.5-2.64,2.54a19.36,19.36,0,0,0-1.24,5.55c-1.37,14.64-2.5,29.31-4,43.94-1.43,14-3,28-4.92,41.92-1.22,8.89-2,17.79-2.63,26.72-.51,7-.73,14.08-1.63,21-1.71,13.34-2,26.79-3.41,40.14-.47,4.45-.81,8.91-1.22,13.37-.34,3.82-.89,7.64-1,11.46A223.78,223.78,0,0,1,554,947c-1.09,6.25-.86,12.72-1.36,19.09-.26,3.22-4.12,7.43-7.24,8.25-.62.16-1.22.38-1.83.53a11.19,11.19,0,0,1-1.88.38c-17.85,1.39-35.68,3.23-53.61,2.57a132.61,132.61,0,0,1-13.33-1.38c-3.76-.51-6.46-4.53-5.75-8.57a17.22,17.22,0,0,1,1.93-5.33,15.88,15.88,0,0,1,5.13-5.62c4.79-3.18,9.6-6.34,14.46-9.42,3.24-2.05,6.61-3.89,9.84-6,2.92-1.87,4-4.87,4.35-8.15a8.8,8.8,0,0,0,0-1.92c-1.44-12.11-1-24.27-1-36.42q-.14-46.06-.3-92.12c0-3.18-.43-6.35-.71-9.52-.19-2.13-3-4.76-5.13-5-1.9-.19-3.8-.5-5.7-.61-6.39-.37-12.78-.6-19.16-1a24.72,24.72,0,0,1-5.63-1.1c-4-1.22-6.73-3.38-5.87-8.34.43-2.5.89-5,1.32-7.5.3-1.76-1.8-3.69-3.62-3.37-5.67,1-11.39,1.7-17,3-21.75,5.29-43.83,9-65.71,13.63-10.62,2.27-21.31,4.23-32,6.33Zm540-369.57.47.34c-.4-.5-.77-1-1.2-1.49-1.27-1.41-2.57-2.8-4.62-3-1.89-.21-3.78-.43-5.68-.52a7.88,7.88,0,0,0-6.75,2.8c-2.4,2.93-4.5,6.11-7,9a4.5,4.5,0,0,1-3.31,1.53c-5-.64-10-1.64-15-2.43-2.5-.39-5-1-7.55-.52a4.76,4.76,0,0,0-3.33,1.63,24.87,24.87,0,0,0-4.71,14.15,3.17,3.17,0,0,0,1.65,3.19,29.74,29.74,0,0,0,5.22,2.08c23.84,6.68,48,12.06,72,18.12a18.8,18.8,0,0,0,3.76.1c1.22,0,4.14-2.11,4.32-3.31.57-3.75,1.15-7.51,1.59-11.29.25-2.08-1.8-5.47-3.55-6.31a34.74,34.74,0,0,0-3.42-1.66c-4.8-1.64-9.65-3.17-14.46-4.8-3.4-1.16-4.87-3.75-5.19-7.2a52.14,52.14,0,0,0-1-7.51C886.27,421.89,885.05,421.05,884.26,420.1ZM483.58,744.82c-.41-3-.78-6.84-1.45-10.61-6.14-34.62-13.35-69-20.05-103.55-2.8-14.43-6-28.79-8.56-43.26-6-34-13.16-67.76-20.4-101.5-.94-4.38-2.15-8.72-2.76-13.14-2.24-16.49-6.47-32.59-9.68-48.88a6.58,6.58,0,0,0-7.17-5c-3.81.34-7.71.42-11.4,1.3q-17.73,4.25-35.62,7.64c-4.38.83-8.67,2.19-13,3.39a2.82,2.82,0,0,0-1.52,1.12c-.63,1.05-1.52,2.24-1.46,3.32a28.87,28.87,0,0,0,1.32,5.55c1.17,4.54-.71,6.55-4,7.24q-29.06,6.18-58.18,12.07c-11.9,2.42-23.81,4.77-35.75,7a24.9,24.9,0,0,1-7.61,0,4.74,4.74,0,0,1-4.24-3.34c-.51-1.83-.76-3.73-1.24-5.56a3.62,3.62,0,0,0-4.16-2.91c-18.17,3.63-36.35,7.21-54.51,10.89a101.56,101.56,0,0,0-11.13,2.88,4.39,4.39,0,0,0-2.3,2.82c-.75,3.16-.12,6.37.52,9.5,4.49,21.91,8.89,43.85,12.85,65.86,3.28,18.24,7.52,36.29,10.42,54.6,1.4,8.83,3.47,17.55,5.22,26.33,3.11,15.67,6.17,31.36,9.31,47,3.51,17.54,6.94,35.11,10.42,52.66,3.36,16.92,7.34,33.73,9.75,50.84.88,6.3,2.74,12.47,4.24,18.68.71,2.93,4.41,5.16,7.44,4.68.63-.1,1.29-.05,1.91-.18q29.05-6.22,58.21-11.93c30.11-5.85,60.12-12.2,90.16-18.39,19.4-4,38.83-7.9,58.15-12.27,10-2.26,20-4.35,30-6.19a9.62,9.62,0,0,0,3.65-1,6.25,6.25,0,0,0,2.12-3C483.58,748.26,483.43,746.9,483.58,744.82ZM816.32,443.5c.15-.92.25-1.56.34-2.19s.11-1.28.21-1.91c.68-4.26-2-6.36-4.73-7.2-14.06-4.33-28.34-7.81-42.67-11.08a6.5,6.5,0,0,0-1.92,0,3.52,3.52,0,0,0-3.15,1.77c-4.3,10.06-5.86,20.89-8.39,31.43-5.54,23-11.74,45.83-16.59,69-10.21,38.29-18.88,77-29.17,115.24-5,18.52-9.67,37.11-13.94,55.8-1.71,7.46-3.44,14.92-4.7,22.48-.22,1.3,1.48,4.41,2.63,4.78,3.64,1.19,7.23,2.61,11,3.52q27,6.6,54.07,13c34.22,8.08,68.35,16.47,102.23,25.91,9.23,2.57,18.5,5,27.78,7.44a23.44,23.44,0,0,0,9.48.95,4.75,4.75,0,0,0,3.08-2,28.93,28.93,0,0,0,2.92-7c7.22-29.82,14.61-59.6,22.38-89.28,2.92-11.13,5.26-22.41,7.88-33.61q9.6-41.1,20.12-82c1.75-6.81,3.12-13.71,4.7-20.56,2.59-11.21,5.12-22.43,7.83-33.6,2-8.08,4.21-16.09,6.23-24.15a7.6,7.6,0,0,0,0-3.76c-.34-1.13-1.1-2.65-2-3-15-5.67-30.81-8.28-46.34-11.95a4.55,4.55,0,0,0-4.66,2.52c-1,2.33-1.93,4.73-3,7.05-1.45,3.13-4.85,5-7.76,4.31-1.24-.27-2.5-.53-3.73-.85-14.85-3.84-29.73-7.52-44.75-10.69A324.56,324.56,0,0,1,824.54,454a28.4,28.4,0,0,1-5.23-2.21,7.11,7.11,0,0,1-2.93-4.76A14.46,14.46,0,0,1,816.32,443.5ZM614.5,669.66v40.25q0,30.68,0,61.34c0,6.82,1.93,9.62,8.71,9.55,5.75-.06,11.5-.23,17.25-.15,15.34.21,30.64-.83,45.94-1.65,1.9-.1,3.79-.51,5.68-.79,4.26-.64,7-3.64,6.82-7.69q-.55-14.35-1.24-28.71a27.29,27.29,0,0,0-.56-3.79c-.71-3.95-2.12-7.33-6.56-8.44a20,20,0,0,1-7-3c-1.43-1-2.66-3.23-2.34-4.87,2.33-11.9,4.73-23.78,7.75-35.54,1.75-6.78,2.92-13.72,4.35-20.59-.59-4.43-1.33-8.84-1.72-13.29-.44-5.08-.56-10.2-.84-15.3-.31-5.74-.59-11.49-1-17.22q-1.47-22.95-3-45.88c-.46-7-1-14-1.46-21-.83-12.74-1.71-25.49-2.41-38.24-.21-3.81.12-7.64.16-11.47,0-1.5,2.84-3.24,4.12-2.55a17.2,17.2,0,0,1,3.33,1.81q8.67,7.53,17.22,15.22c4.75,4.25,9.44,8.59,14.19,12.86,2.13,1.93,5.56,1,6.29-1.16,5-15.2,7.68-31,11.22-46.49a8,8,0,0,0-1.87-7.16q-17.22-19.31-34.45-38.57c-1.71-1.91-3.56-3.67-5.24-5.6-6.89-7.88-15.48-13.2-25.07-17.15a97.06,97.06,0,0,0-20.13-5.85c-.5-.09-1.19.41-1.64.8a2.15,2.15,0,0,0-.75,1.4c0,2.68,1.59,4.83,2.81,7,2.5,4.47,5,8.9,6.46,13.85a9.24,9.24,0,0,1-1.69,9c-2.93,3.37-6.24,6.4-9.36,9.6-2.37,2.43-2.21,5.31.45,8.33,1.68,1.91,3.51,3.71,5.06,5.72a8.05,8.05,0,0,1,1.2,7.29,58.52,58.52,0,0,1-3.55,8.88c-2.5,5.17-5.41,10.14-7.81,15.36-8,17.41-16,34.81-24.93,51.76a29.83,29.83,0,0,0-3.23,11,234.65,234.65,0,0,0-1.23,24.87C614.53,612.16,614.49,640.91,614.5,669.66Zm-59.59-.35h0q0-24.94,0-49.88c0-4.47.31-9-.25-13.41-1.38-10.84-1.1-21.7-1.2-32.56-.19-21.42-.87-18.66-8.55-34.78q-12.78-26.82-25.37-53.74c-1.89-4-3.43-8.25-4.93-12.45a8.78,8.78,0,0,1,1-7.38c1.27-2.21,2.93-4.19,4.34-6.32.71-1.06,1.27-2.21,1.89-3.33s.08-4.76-.74-5.51c-1.89-1.71-3.81-3.38-5.71-5.08a68.26,68.26,0,0,1-5.63-5.11,5.72,5.72,0,0,1-1.21-5.35c1.82-7.5,6.14-14,8.42-21.32a2.58,2.58,0,0,0-.1-1.88,2.9,2.9,0,0,0-3.11-1.57c-9.47,1.9-18.29,5.68-27,9.75a42.9,42.9,0,0,0-10.93,7.72c-12.14,11.41-23,24-33.42,36.95a12.51,12.51,0,0,0-2.93,10.72q4.68,22.53,9.29,45.06c.13.62.5,1.18.64,1.79.35,1.55,3.18,2.43,4.74,1.52a17.88,17.88,0,0,0,3.26-1.94c3.77-3.46,7.53-6.93,11.1-10.59a61.53,61.53,0,0,1,12.14-9.3,11.54,11.54,0,0,1,1.84-.51c1.47-.56,4.11,1,4.32,2.57,1.16,8.32-.06,16.56-.79,24.82-1.12,12.73-2.21,25.46-2.58,38.25q-.4,14.37-1.65,28.71c-1.5,17.2-2.21,34.44-3.08,51.68a144.84,144.84,0,0,0,2,32.45c3.95,22.65,8.29,45.24,12.44,67.87.35,1.88.52,3.79.77,5.68s-2,5.37-4,6c-1.82.58-3.64,1.18-5.5,1.61-2.49.58-5,.91-7.5,1.52a6.32,6.32,0,0,0-4.8,5.34A27.18,27.18,0,0,0,472,773a4.71,4.71,0,0,0,3.49,4c5,.81,10.06,2,15.13,2.29,15.94,1.05,31.89,1.82,47.85,2.65,2.55.13,5.11,0,7.67-.07.63,0,1.26-.2,1.9-.24,2.29-.15,4.93-2.64,5-5,.34-8.93.46-17.88,1-26.81.8-14.69.94-29.39.93-44.1Q554.89,687.54,554.91,669.31Zm121.5-385.47s-.14-3.83-.44-7.65c-1.38-17.71-7.76-33.45-18.57-47.51a92.83,92.83,0,0,0-19.48-18.34c-14.9-10.86-31.67-16.27-50.07-16.9A88.4,88.4,0,0,0,565,195.85c-21.93,5-40.32,15.72-54.18,33.69-13.42,17.38-19.11,37.31-19.27,59,0,6.45,1.63,12.65,2.84,18.93a82,82,0,0,0,10.21,26.74c12.68,21.23,31,35.27,54.61,42.61a82.4,82.4,0,0,0,37.92,2.85,90.92,90.92,0,0,0,49.23-24,146.3,146.3,0,0,0,10.19-11.45c12.48-14.65,18.74-31.74,19.8-50.84C676.5,291.51,676.41,289.59,676.41,283.84ZM248.09,444.59c.23,1.76.63,4.91,1.06,8a14.76,14.76,0,0,0,.51,1.84c.32,1.2,3.13,3.18,4.33,3.31,5.15.6,10.16-.44,15.11-1.45,20.56-4.19,41.1-8.55,61.64-12.87,2.48-.53,4.94-1.2,7.41-1.81,1.33-.33,3.07-3,3.1-4.37a29,29,0,0,0-3.85-14.57,7.65,7.65,0,0,0-6.35-3.52c-1.26.13-2.53.23-3.79.41-5,.7-10.05,1.52-15.1,2.12a7.09,7.09,0,0,1-6.61-3c-1.92-2.51-3.51-5.28-5.45-7.78a9.8,9.8,0,0,0-6.54-3.54,17.82,17.82,0,0,0-7.55.41,9.77,9.77,0,0,0-5.87,4.54,20.43,20.43,0,0,0-2.63,9.08,8.6,8.6,0,0,1-6.61,8.26c-6.07,1.87-12.13,3.8-18.15,5.83-2.66.9-3.67,3.3-4.36,5.79A25.15,25.15,0,0,0,248.09,444.59Zm301.55,50.15c-.63-14.83-1.72-30.09-3.73-45.27-.25-1.89-.22-3.82-.35-5.72-1-14-2.28-22.47-5.91-37.68a2.88,2.88,0,0,0-2.88-2c-1.93-.07-3.91.32-5.12,1.91-5.81,7.7-9.61,16.46-13,25.38a5.1,5.1,0,0,0,.91,5.41c2.23,2.24,4.77,4.17,7.06,6.35,1.83,1.75,3.53,3.65,5.22,5.55a6.45,6.45,0,0,1,.36,7.17c-2.67,3.56-5.4,7.07-8.11,10.61a5.41,5.41,0,0,0-1.05,5.36c7.37,17.64,15.16,35.09,23.81,52.14a4,4,0,0,0,1.33,1.34,4.86,4.86,0,0,0,1.65.67c1.47.33,2.21-.43,2.13-2.16-.21-4.45-.33-8.91-.69-13.35C550.84,505.34,550.22,500.27,549.64,494.74Zm173.18,56.63c-.46,1.86.07,0,.44-1.87a7.38,7.38,0,0,0-2.15-7c-7.83-7.53-15.77-14.94-23.71-22.36a3.57,3.57,0,0,0-1.74-.72,5.9,5.9,0,0,0-1.83,0,2.24,2.24,0,0,0-2.11,2.62c.69,10.2,1.78,20.38,2.09,30.58.76,25.58,3.47,51,4.94,76.55a11,11,0,0,0,1.09,3.56,2.79,2.79,0,0,0,1.8-.3,7.26,7.26,0,0,0,3.05-4.57c1.36-5.59,2.44-11.24,3.77-16.83C712.91,592.37,717.43,573.74,722.82,551.37Zm-105-45.25c.37,4.9-1.25,10,0,15a2.25,2.25,0,0,0,.93,1.39,2.19,2.19,0,0,0,3.18-1c1.19-2.23,2.5-4.41,3.58-6.69,5.7-12.06,11.11-24.26,17.12-36.16,3.74-7.4,3.19-13.33-3.58-18.43-1-.74-1.52-2-2.33-3a5.61,5.61,0,0,1-.2-5.39c1.09-1.54,2.12-3.14,3.35-4.57,3.3-3.85,7.59-6.82,10.13-11.32.59-1,1.27-2.64.89-3.58a135.73,135.73,0,0,0-14.21-26.81c-.57-.83-2.18-1.15-3.35-1.31a2.64,2.64,0,0,0-3,1.66,130.07,130.07,0,0,0-4.81,22.28c-2.5,22.74-4.13,45.56-7,68.26C618.12,499.61,618,502.8,617.81,506.12ZM575,451c-.22-1.86-.38-4.39-.82-6.88-.8-4.58-6.05-7.44-10.09-5.57-2.3,1.07-4.53,2.31-6.82,3.42a5.46,5.46,0,0,0-3,4.55,38,38,0,0,0,0,7.61c1.53,15.85,3.21,31.68,4.71,47.53.66,7,1.06,14,1.49,21,.86,14,1,28,1.06,42,0,1.69.64,2.83.9,2.49a8.78,8.78,0,0,0,1.5-3.34,203.94,203.94,0,0,0,3.7-30.28c.88-21,4-41.84,5.1-62.83.2-3.8.9-7.58,1.34-11.38C574.39,456.71,574.65,454.18,575,451Zm39.3,7.28c.09-2.65.35-7.11.37-11.58a7.63,7.63,0,0,0-3.6-6.37c-2.6-1.83-5.23-3.59-8.41-4.36a3.51,3.51,0,0,0-3.47.94c-3.1,2.64-5,5.81-4.71,9.95.37,5.74.52,11.52,1.43,17.18a271,271,0,0,1,2.92,30.48c.25,5.1.78,10.19,1.34,15.27,1.2,10.79,2.23,21.59,2.53,32.45.12,4.47.55,8.92.92,13.38.16,1.89.86,2.43,1.68,1.52a3.12,3.12,0,0,0,.85-1.62c1-11.45,2-22.9,2.78-34.36,1.07-14.64,1.65-29.32,3.79-43.88C613.56,471.55,613.71,465.78,614.31,458.23ZM474.63,567.12c1-14.6,2.16-30.42,3.22-46.25a2.08,2.08,0,0,0-.82-1.65,3.38,3.38,0,0,0-3.62,0q-9.06,6.93-18,14.07a7.22,7.22,0,0,0-2.47,6.84c.39,3.14.91,6.28,1.59,9.38,3.72,16.75,7.73,33.43,10.43,50.4.69,4.37,2.18,8.62,3.14,13,.33,1.48.88,2.46,2.4,2.5.25,0,.6-.88.77-1.4a7,7,0,0,0,.32-1.86C472,597.48,473.05,582.9,474.63,567.12ZM583,640.36c6.42-.68,12.86,0,19.18-1.22,1.48-.29,3.75-2.42,3.92-3.78a116.55,116.55,0,0,0,.27-21.05c-.09-1.62-.86-2.46-2.31-2.37a2.74,2.74,0,0,0-1.66.52c-3.54,3.68-7,7.42-10.5,11.16-1.31,1.4-2.58,2.83-3.85,4.26a5.12,5.12,0,0,1-6.86.33c-5.75-5.19-9.56-12-14.68-17.67-.24-.26-1.18-.08-1.69.14s-1.16.68-1.27,1.15c-1.62,6.95-.3,14-.47,21a22.36,22.36,0,0,0,.68,3.73c.19,1.19,2.86,3.82,4,3.82Zm-.8-250.64c-6.41-.4-10.86-.73-15.3-.92a14.58,14.58,0,0,0-3.76.48A2.92,2.92,0,0,0,561,392a6.16,6.16,0,0,0,3.19,6.34,77.71,77.71,0,0,0,19.16,8.38,11.92,11.92,0,0,0,7.51-.5,70.16,70.16,0,0,0,15.17-8,18.6,18.6,0,0,0,1.4-1.28c1.61-1.36,1.84-3.17,1.64-5.1-.17-1.58-2.45-3.36-4.08-3.3-1.91.07-3.81.08-5.72.18C592.92,389.11,586.58,389.47,582.18,389.72Zm-22.78,16c-.72-.37-4-2.08-7.42-3.71-1.62-.78-2.41-.16-2.55,1.64-.65,8.36,2.29,16,4.48,23.85.81,2.88,5.28,3.91,7.87,2.05a59.54,59.54,0,0,0,10.79-10.43c1.53-1.83,1.22-5.61-.67-6.65C568.61,410.69,565.29,408.92,559.4,405.74Zm57.45-3.46a27.18,27.18,0,0,0-3.88,2.07,61.45,61.45,0,0,1-13.33,7.41,6.62,6.62,0,0,0-3.08,2.09c-.61.9-1.06,2.65-.59,3.44,3.33,5.61,8.6,9.26,13.75,13,1.67,1.22,5.51-.39,6.26-2.62,2-6,4.61-17.43,5-22.26a13.86,13.86,0,0,0-.28-1.87C620.58,401.88,619.71,401.33,616.85,402.28Z"/><path class="cls-2" d="M483.58,744.82c-.15,2.08,0,3.44-.41,4.6a6.25,6.25,0,0,1-2.12,3,9.62,9.62,0,0,1-3.65,1c-10.06,1.84-20.06,3.93-30,6.19-19.32,4.37-38.75,8.26-58.15,12.27-30,6.19-60,12.54-90.16,18.39q-29.18,5.65-58.21,11.93c-.62.13-1.28.08-1.91.18-3,.48-6.73-1.75-7.44-4.68-1.5-6.21-3.36-12.38-4.24-18.68-2.41-17.11-6.39-33.92-9.75-50.84-3.48-17.55-6.91-35.12-10.42-52.66-3.14-15.67-6.2-31.36-9.31-47-1.75-8.78-3.82-17.5-5.22-26.33-2.9-18.31-7.14-36.36-10.42-54.6-4-22-8.36-43.95-12.85-65.86-.64-3.13-1.27-6.34-.52-9.5a4.39,4.39,0,0,1,2.3-2.82,101.56,101.56,0,0,1,11.13-2.88c18.16-3.68,36.34-7.26,54.51-10.89a3.62,3.62,0,0,1,4.16,2.91c.48,1.83.73,3.73,1.24,5.56a4.74,4.74,0,0,0,4.24,3.34,24.9,24.9,0,0,0,7.61,0c11.94-2.19,23.85-4.54,35.75-7q29.12-5.93,58.18-12.07c3.26-.69,5.14-2.7,4-7.24a28.87,28.87,0,0,1-1.32-5.55c-.06-1.08.83-2.27,1.46-3.32a2.82,2.82,0,0,1,1.52-1.12c4.31-1.2,8.6-2.56,13-3.39q17.89-3.41,35.62-7.64c3.69-.88,7.59-1,11.4-1.3a6.58,6.58,0,0,1,7.17,5c3.21,16.29,7.44,32.39,9.68,48.88.61,4.42,1.82,8.76,2.76,13.14,7.24,33.74,14.36,67.51,20.4,101.5,2.57,14.47,5.76,28.83,8.56,43.26,6.7,34.51,13.91,68.93,20.05,103.55C482.8,738,483.17,741.81,483.58,744.82Zm-225.76,2c-.79,1.1-.94,1.79-.45,2.08a7.08,7.08,0,0,0,.43-1.13c.1-.5.11-1,.16-1.51a31.11,31.11,0,0,0-.85,3.65,5.14,5.14,0,0,0,2.15,4.95,113.33,113.33,0,0,0,10.08,5.26c2,1,5.43-.34,6.46-2.46.82-1.71,1.8-3.36,2.53-5.1,4.18-9.9,8.67-19.64,13.66-29.15a2.26,2.26,0,0,0-1-3.2,2,2,0,0,0-1.77.47c-1.37,1.27-3.18,2.47-3.79,4.08-2.67,7.14-6.54,13.68-9.9,20.47a38.32,38.32,0,0,1-3.17,4.7,5.69,5.69,0,0,1-6.72,1.93A32.22,32.22,0,0,1,257.82,746.85Zm51.91-247c-1.08-5.15-2.52-12-4-18.87a14.28,14.28,0,0,0-.86-1.7c-.52-1.41-2.83-2.51-4.78-2.23s-3.79,2-3.77,3.61a24,24,0,0,0,0,3.79c.52,3.13,1.23,6.24,1.83,9.36.25,1.33-1.48,4.24-2.88,4.58a18.82,18.82,0,0,1-5.62.84,5.14,5.14,0,0,1-4.45-3.14c-1.07-3-1.53-6.18-2.37-9.25a8.85,8.85,0,0,0-1.54-3.43,6.74,6.74,0,0,0-3.1-1.91c-1.27-.37-4.19,1.91-4.36,3.15a12.79,12.79,0,0,0-.3,3.77Q277,507.19,280.74,526a6,6,0,0,0,2.13,2.94c1.6,1.37,5.95.56,6.88-1.24a6.76,6.76,0,0,0,1-3.51c-.47-3.79-1.28-7.52-1.93-11.29-.24-1.39,1.44-4.1,2.88-4.54a21.44,21.44,0,0,1,3.73-.75c2.34-.25,5.66,1.69,6.07,3.63.79,3.73,1.36,7.51,2.16,11.23a3.86,3.86,0,0,0,2.5,2.55c3.08,1.48,7.25-2.35,6.86-4.61C312,514.11,311,507.82,309.73,499.81Zm93-4.95c-.17-1.34-.34-3.23-.68-5.1a7.35,7.35,0,0,0-2.94-4.74,34.87,34.87,0,0,0-6.55-3.86c-2.91-1.23-6.13-1.76-8.8-3.59a8.86,8.86,0,0,1-2.77-2.52,7,7,0,0,1-.62-3.57c.07-1.31,3.35-2.83,4.68-2.24,1.16.51,2.23,1.24,3.39,1.75a18.67,18.67,0,0,0,3.53,1.22c1.49.33,4.74-1.06,4.9-2.18a6.74,6.74,0,0,0-.3-3.66c-3.14-6.57-9.26-9.47-15.64-7.43a29.63,29.63,0,0,0-7,3,11.22,11.22,0,0,0-5.32,7.6,28.37,28.37,0,0,0-.39,5.67c.21,4.9,2.81,8.36,7.06,10.54a36.39,36.39,0,0,0,5.36,1.94c2.4.79,4.9,1.34,7.22,2.32,2.58,1.07,3.59,3.4,3.89,6.06a4.67,4.67,0,0,1-2.76,4.47,4.28,4.28,0,0,1-3.68-.46c-2.18-1.24-3.9-3.23-6.57-3.67-1.55-.25-4.32.74-4.94,2.11a4.88,4.88,0,0,0,.65,5.26,16.6,16.6,0,0,0,15.4,5.64,18.82,18.82,0,0,0,7.1-2.64,11,11,0,0,0,5.33-7.55C402.54,498,402.57,496.69,402.74,494.86Zm-114.1,75.5c8.8-1.43,13.86-2.06,18.84-3.1,28-5.86,56-11.87,84.06-17.69a127.44,127.44,0,0,0,18.35-5.06c.35-.13.55-1,.58-1.59a2.22,2.22,0,0,0-2.09-2.49,25.77,25.77,0,0,0-5.67.43c-18.24,2.9-36.18,7.33-54.3,10.84-16.87,3.27-33.67,6.88-50.49,10.38-3.74.78-7.45,1.71-11.16,2.6a19,19,0,0,0-1.78.65,2.19,2.19,0,0,0-1.41,3c.15.49.85.92,1.4,1.18C287.41,570.64,289.91,570.12,288.64,570.36Zm98.74,140.86c-7.35,1.59-11.06,2.57-14.84,3.19-14.5,2.37-28.79,5.75-43.14,8.79-4.32.91-8.74,1.68-12.71,3.78a2.05,2.05,0,0,0-.89,1.62c0,.37.81.91,1.34,1,7.06,1.51,13.89-.21,20.75-1.59,24.41-4.9,48.68-10.47,73.18-14.92,8.79-1.6,17.51-3.59,26.26-5.42,1.87-.4,3.73-.88,5.57-1.4a10.17,10.17,0,0,0,1.66-.88,3.1,3.1,0,0,0,1.92-3.08,2.29,2.29,0,0,0-2.59-1.88c-10,1.86-19.95,4.38-30,5.79S393.79,710,387.38,711.22ZM222.87,542.06c1.46-.24,5.85-.86,10.2-1.75a37.66,37.66,0,0,0,5.3-2,2.22,2.22,0,0,0,1.51-3.05,3.45,3.45,0,0,0-2.45-2.44c-3.77-1.12-7.47,1-11.28.32-1.43-.28-2.42-.73-2.9-2.08-.2-.59-.56-1.13-.74-1.73-1.52-4.83-.52-7.52,3.54-9.41,1.14-.54,2.38-.87,3.56-1.32a9.13,9.13,0,0,0,1.72-.75,3.77,3.77,0,0,0,1.74-3c.19-1.68-.37-2.49-2-2.58-3.15-.17-6.29-.38-9.43-.61-1.5-.11-3-2.06-3.24-4.07-.27-2.51,1.25-5.84,3.05-6.34,2.44-.67,4.89-1.28,7.37-1.78a5.5,5.5,0,0,0,3.23-1.83c.84-1,1.52-2.15.91-3.39-.48-1-1.64-2.24-2.56-2.29-7.06-.39-13.82,1.26-20.47,3.47-1.43.48-3.33,2.85-3.26,4.23a39.8,39.8,0,0,0,.33,5.69c2.07,10.57,4.25,21.12,6.42,31.67.12.61.49,1.17.67,1.77C214.82,541.22,217.31,542.78,222.87,542.06Zm110.37-52.67c.07.68.4,5.14,1,9.56a27.54,27.54,0,0,0,4.16,10.62,14.48,14.48,0,0,0,9.13,6.47,17.14,17.14,0,0,0,3.78.45,21,21,0,0,0,9.25-2.09c3.67-1.65,7.3-8.09,7.12-12.68a3.54,3.54,0,0,0-3.68-3.47,6.49,6.49,0,0,0-5,2.39c-1.12,1.52-1.77,3.39-2.94,4.86a5.13,5.13,0,0,1-5,1.95,6.17,6.17,0,0,1-4.4-3.25,6.54,6.54,0,0,1-.78-1.73c-1.1-5.63-2.29-11.25-3.14-16.92a16,16,0,0,1,.67-5.62,4.55,4.55,0,0,1,4-3.54A5.87,5.87,0,0,1,351,477c2.15,1.29,4,3,6.1,4.46,1.27.9,3.8.21,5.16-1.26a4.93,4.93,0,0,0,.77-5.25,16.48,16.48,0,0,0-11.91-8.72,9.18,9.18,0,0,0-3.79-.11c-10.09,2.73-13.83,7.95-14.1,15.68C333.21,483.05,333.24,484.33,333.24,489.39ZM357.5,605.58c-15.7,2.79-31.07,7.15-46.79,9.89-5.63,1-11.13,2.72-16.66,4.21-.33.09-.54,1-.65,1.5a2.9,2.9,0,0,0,3.53,3.17c12.5-2.49,25-5,37.49-7.49,14.37-2.91,28.66-6.24,43.11-8.67,9.46-1.58,18.72-3.94,28.13-5.68,5-.92,9.78-2.75,14.65-4.24a2.32,2.32,0,0,0,1.63-3.07,2.75,2.75,0,0,0-2.65-2.09,15.65,15.65,0,0,0-3.78.42c-8.09,1.78-16.14,3.73-24.26,5.4C380,601.25,368.75,603.38,357.5,605.58ZM309,677c2.21-.29,5.4-.5,8.49-1.16,8.7-1.87,17.45-3.46,26.17-5.15,23.08-4.48,45.9-10.21,69.06-14.28,5.62-1,11.1-2.7,16.66-4,1.46-.34,2.23-1.15,1.95-2.72a2.42,2.42,0,0,0-2.53-2.06c-12.7,1-24.95,4.73-37.53,6.45-23.49,5.62-47.22,10.07-70.93,14.59a75.39,75.39,0,0,0-14.65,4.14,2,2,0,0,0-1.05,2.84,2.91,2.91,0,0,0,1.51,1.11A14.32,14.32,0,0,0,309,677ZM267.36,488.52c.56-1.56,0-2.42-1.4-3.18a8.16,8.16,0,0,0-5.43-.83,168.57,168.57,0,0,0-20.18,4.79c-1.44.43-1.87,1.5-1.89,3a2.6,2.6,0,0,0,1.81,2.83,33.06,33.06,0,0,0,3.62.92,6.08,6.08,0,0,1,4.92,5c.64,3.1,1.13,6.22,1.79,9.32q2.16,10.19,4.46,20.35c.41,1.84,3.51,3.5,6.09,3.33.62,0,1.47,0,1.81-.41.81-.91,1.88-2,2-3.09.44-5.73-.73-11.32-2.15-16.84a60.38,60.38,0,0,1-2.3-15c0-2.54.81-4.91,3.35-6.31C265.42,491.52,267.09,490.58,267.36,488.52ZM292,588.58c3.77-.58,7.6-.94,11.31-1.8,11.78-2.71,23.63-5.14,35.49-7.49,11.23-2.23,22.36-4.95,33.52-7.52a16.1,16.1,0,0,0,3.44-1.57,3.59,3.59,0,0,0,2.12-3c.06-.91-1-1.65-2.49-1.8a13.15,13.15,0,0,0-3.81.15c-24.37,4.75-48.62,10-72.86,15.4a36.6,36.6,0,0,0-3.65,1.13c-1.21.4-2.39.86-3.6,1.27-2.09.71-3.7,2.73-2.91,3.76A3.85,3.85,0,0,0,292,588.58Zm11.17,52.91a75,75,0,0,0,15.16-2.26c6.75-1.75,13.53-3.4,20.35-4.87,15.49-3.36,31-6.55,46.51-9.91a8.51,8.51,0,0,0,3.2-1.92,3,3,0,0,0,.67-1.75c.17-1-.56-2-2.11-2.26a26.55,26.55,0,0,0-11.29,1c-13.45,3.83-27.19,6.28-40.84,9.19-10.54,2.25-21.05,4.63-31.56,7a8.39,8.39,0,0,0-3.42,1.58,13.59,13.59,0,0,0-2.05,3,9.44,9.44,0,0,0,1.77.7C300.78,641.28,302,641.36,303.16,641.49ZM323.1,749a43.57,43.57,0,0,0,6.94-.59c13.07-3,26.23-5.46,39.42-7.87,11.91-2.18,23.64-5.36,35.45-8.12,1.12-.26,4.06-3.84,3.55-4.23a7.62,7.62,0,0,0-5.31-1.29,15.2,15.2,0,0,0-1.9.25l-37.51,7.69-35.63,7.37a18.4,18.4,0,0,0-7,2.87,3,3,0,0,0-.83,1.7C320,747.79,320.83,748.49,323.1,749Zm-11.87-53.84a39,39,0,0,0,13.08-1.43c7.39-2,14.77-4,22.24-5.66,14.32-3.11,28.72-5.86,43.05-8.93a62.81,62.81,0,0,0,9-3.1c.48-.18.82-1,1.05-1.52.4-1-.28-2-1.92-2.14-3.84-.41-7.6.38-11.35,1.24-9.3,2.14-18.54,4.78-28,6.2-14.54,2.2-28.67,6.11-43,9.2a20.79,20.79,0,0,0-5.19,2.39c-.48.26-.72,1-1,1.58C308.75,694.08,309.39,694.81,311.23,695.19ZM330.34,514.4c-.18-1.77-.27-3.67-.6-5.53-1.66-9.33-3.32-18.66-5.12-28a17.13,17.13,0,0,0-2.07-5.26,5.11,5.11,0,0,0-2.82-2.21,4.7,4.7,0,0,0-3.52.56,6,6,0,0,0-1.92,3.12,10.82,10.82,0,0,0-.33,3.73c.49,10.16,4.07,19.78,5.32,29.82a28,28,0,0,0,1.55,5.46,9.46,9.46,0,0,0,1.67,3.36,7.45,7.45,0,0,0,3.12,1.75c1.37.44,4.14-1.64,4.27-3S330.18,515.77,330.34,514.4ZM275.77,682c1.35-3.91,2.61-7.48,3.77-11.08a1.92,1.92,0,0,0-.4-1.7c-.9-.73-1.68-.06-2.71,1.06-3.89,4.25-7.11,8.73-8.55,14.52a23.28,23.28,0,0,1-5.61,9.8,6.11,6.11,0,0,1-6.8,1.73c-2.35-.89-4.12-3-6.77-3.19a2.38,2.38,0,0,0-1.59.37,2.67,2.67,0,0,0-.77,3.46c2.85,5.46,7.64,8.13,13.52,9.09a3.77,3.77,0,0,0,3.46-1.27,53.81,53.81,0,0,0,3.69-4.29C271.21,694.86,273.4,688.21,275.77,682Zm-13.12-51.19-.13-.06c2.31-5.23,4.64-10.45,6.88-15.72a2,2,0,0,0-.48-1.61,1.89,1.89,0,0,0-3.07.17c-5.22,7.27-9,15.39-12.93,23.37a56.52,56.52,0,0,1-3,4.85,4,4,0,0,1-4.89,1.33c-2.92-1.21-5.23-3.72-8.55-4a2.34,2.34,0,0,0-1.5.61,2.43,2.43,0,0,0-.55,3.43c3.26,4.06,7.77,6.4,12.36,8.59,2,.94,5.35-.1,6.69-2.12a38.26,38.26,0,0,0,3-4.82C258.67,640.23,260.62,635.52,262.65,630.85ZM252,577.12c1.38-5.69,5.32-10.15,7.39-15.49.16-.43-.22-1.19-.55-1.65-.21-.29-.94-.58-1.18-.44-2.86,1.71-4.57,4.48-6,7.29-2.65,5.1-4.9,10.4-7.54,15.5a39.72,39.72,0,0,1-4.32,6.27,3.35,3.35,0,0,1-3.42,1.1,17.5,17.5,0,0,1-3.49-1.5c-1.7-.84-3.34-1.8-5.07-2.55a2.37,2.37,0,0,0-1.87.17,2.42,2.42,0,0,0-1.28,3.17c2.59,5.76,7.44,8.43,13.41,9.33,2,.3,3.68-.89,5-2.25a10.37,10.37,0,0,0,2.23-3.06C247.59,587.74,249.75,582.42,252,577.12Z"/><path class="cls-2" d="M816.32,443.5a14.46,14.46,0,0,0,.06,3.52,7.11,7.11,0,0,0,2.93,4.76,28.4,28.4,0,0,0,5.23,2.21,324.56,324.56,0,0,0,37.05,9.84c15,3.17,29.9,6.85,44.75,10.69,1.23.32,2.49.58,3.73.85,2.91.65,6.31-1.18,7.76-4.31,1.08-2.32,2-4.72,3-7.05a4.55,4.55,0,0,1,4.66-2.52c15.53,3.67,31.34,6.28,46.34,11.95.94.36,1.7,1.88,2,3a7.6,7.6,0,0,1,0,3.76c-2,8.06-4.27,16.07-6.23,24.15-2.71,11.17-5.24,22.39-7.83,33.6-1.58,6.85-3,13.75-4.7,20.56q-10.54,40.86-20.12,82c-2.62,11.2-5,22.48-7.88,33.61-7.77,29.68-15.16,59.46-22.38,89.28a28.93,28.93,0,0,1-2.92,7,4.75,4.75,0,0,1-3.08,2,23.44,23.44,0,0,1-9.48-.95C880,769,870.72,766.57,861.49,764c-33.88-9.44-68-17.83-102.23-25.91q-27.06-6.39-54.07-13c-3.72-.91-7.31-2.33-11-3.52-1.15-.37-2.85-3.48-2.63-4.78,1.26-7.56,3-15,4.7-22.48,4.27-18.69,9-37.28,13.94-55.8,10.29-38.27,19-76.95,29.17-115.24,4.85-23.16,11.05-46,16.59-69,2.53-10.54,4.09-21.37,8.39-31.43a3.52,3.52,0,0,1,3.15-1.77,6.5,6.5,0,0,1,1.92,0c14.33,3.27,28.61,6.75,42.67,11.08,2.74.84,5.41,2.94,4.73,7.2-.1.63-.13,1.28-.21,1.91S816.47,442.58,816.32,443.5Zm115.86,79.31a21,21,0,0,0,2.6,0c1.42-.25,2.59-.9,2.69-1.88a3,3,0,0,0-2-3,40.66,40.66,0,0,0-5.29-2.14c-12.33-3.32-24.68-6.56-37-9.81l-48.15-12.65a10.18,10.18,0,0,0-5.58-.09c-1.61.47-2.13,1.43-1.53,2.87a5.21,5.21,0,0,0,.73,1.58,3.85,3.85,0,0,0,1.65.95c11.07,3.06,22.17,6,33.22,9.15,12.89,3.67,25.93,6.76,38.79,10.59C919,520.34,925.77,522.52,932.18,522.81Zm-49.76,198.9a12.76,12.76,0,0,0,2.5,0,3.74,3.74,0,0,0,1.64-.91c.73-.77.68-2-.33-3.11a7.08,7.08,0,0,0-3-2.15c-17.06-4.92-34.46-8.5-51.61-13.08-12.86-3.44-25.75-6.73-38.8-9.38a12,12,0,0,0-3.74,0,2.18,2.18,0,0,0-1.55,1c-.17.4.27,1.16.6,1.64a8,8,0,0,0,4.61,3.07c20.75,5.85,41.57,11.45,62.56,16.39C864.54,717.3,873.76,719.6,882.42,721.71ZM826,542.65c-.56.3-1.39.47-1.61.93s.32,1.14.66,1.64a7.4,7.4,0,0,0,4.5,3.24c14.21,3.39,28.29,7.33,42.44,11q24.91,6.42,50.12,11.66a2.87,2.87,0,0,0,1.73-.41,2.91,2.91,0,0,0,1.35-1.26,2.18,2.18,0,0,0-.21-1.83,8.24,8.24,0,0,0-2.76-2.29c-8.3-3.36-17.21-4.46-25.8-6.78-22.09-5.94-44.39-11.06-66.7-16.13C828.53,542.13,827.21,542.55,826,542.65Zm-8.18,49.43a20.9,20.9,0,0,0-3.26,0,3.47,3.47,0,0,0-1.72.8c-.64.67-.43,2,.9,2.78,7.35,4.12,15.69,5.24,23.68,7.39,13,3.48,26,6.71,39,9.95,9.92,2.47,19.87,4.83,29.82,7.15a8.8,8.8,0,0,0,3.75-.1,2.12,2.12,0,0,0,1.84-2.75c-.12-.55-.29-1.43-.62-1.53-5.51-1.63-11-3.19-16.57-4.72C875.51,605.81,856,602,837.06,596.3,830.11,595.26,823.54,592.35,817.79,592.08Zm35.13,67.52c14.76,3.69,29.33,8.19,44.33,10.86a2.69,2.69,0,0,0,2.9-1.77,2.41,2.41,0,0,0-1.29-3.14A79.17,79.17,0,0,0,888.08,662c-9.94-2.12-19.71-4.86-29.54-7.39-16.58-4.25-33.37-7.66-49.91-12.11a17.67,17.67,0,0,0-5.68-.19c-1.63.12-2.39,1-2.12,2a2.9,2.9,0,0,0,.87,1.65,18.52,18.52,0,0,0,5,2.64c11.69,2.9,23.44,5.63,35.16,8.42C845.54,657.83,849.23,658.72,852.92,659.6Zm14.83,19.54c.58-.25,1.49-.38,1.66-.81s-.28-1.24-.68-1.7c-.79-.94-1.59-2.23-2.64-2.55-4.25-1.3-8.59-2.3-12.9-3.41-16.63-4.3-33.3-8.44-50.17-11.72a11.18,11.18,0,0,0-3.69.1,2.21,2.21,0,0,0-1.48,1.1,2.07,2.07,0,0,0,.28,1.82A7.29,7.29,0,0,0,801,664q22.15,5.73,44.38,11.27c6.17,1.53,12.39,2.86,18.62,4.14A13.21,13.21,0,0,0,867.75,679.14Zm-26-169.58a41.77,41.77,0,0,0-4.81-.18,2.16,2.16,0,0,0-1.52,1.06c-.54,1.17-.34,2.71.73,3.11a151.52,151.52,0,0,0,14.46,4.86q23.07,6.06,46.27,11.71a62.64,62.64,0,0,0,9.41,1.12,2.09,2.09,0,0,0,1.54-1c.55-1.12.33-2.63-.78-3A131.42,131.42,0,0,0,894.36,523c-11.08-2.9-22.22-5.57-33.32-8.38C854.26,512.9,847.51,511.07,841.74,509.56ZM858.46,566c-11.07-2.76-22.12-5.61-33.42-7.27-.47-.07-1.22.53-1.55,1-.62.94-.8,2.68.18,3.23,5,2.83,10.61,4.14,16.18,5.41,16.09,3.67,32.2,7.24,48.15,11.51a8.88,8.88,0,0,0,3.76.24,13.64,13.64,0,0,0,3.28-1.56,14.18,14.18,0,0,0-1.88-3.19,7.19,7.19,0,0,0-3.23-1.85C879.46,571,869,568.5,858.46,566Zm-44.8,41.87c-2.34-.46-5.58.57-5.56,1.42s2.67,3.58,3.89,4c.61.19,1.19.46,1.81.61,7.39,1.76,14.8,3.46,22.18,5.26,13.53,3.32,27.18,6.13,40.51,10.21a11,11,0,0,0,3.76.36c1.34-.08,2.55-.85,2.64-1.92a3.44,3.44,0,0,0-1.88-3.11,13.41,13.41,0,0,0-3.36-1.64C856.23,617.34,834.65,612.32,813.66,607.87Zm-37.74-55.44a6.8,6.8,0,0,0,1.89.15,21.57,21.57,0,0,0,10.23-5c6.62-6,13.48-11.73,19.05-18.77,1-1.31.72-2.51-.74-3.12a2.54,2.54,0,0,0-1.78.08c-5.9,2.66-10.58,7-15.54,11-2.95,2.37-5.71,5.12-9.49,6.31a3.42,3.42,0,0,1-3.6-.53c-1.84-1.77-3.59-3.63-5.25-5.55-1-1.12-2.05-1.66-3.39-1a2.63,2.63,0,0,0-1.25,3.15c1.08,4.46,3.69,8.1,6.54,11.55C773.3,551.66,774.78,551.9,775.92,552.43ZM751,652.23a15,15,0,0,0,3.39-1.57c8.81-7.12,18.13-13.54,27.48-19.92a3.55,3.55,0,0,0,1.08-1.51,1.63,1.63,0,0,0,0-1.37,2.35,2.35,0,0,0-1.56-.9,11,11,0,0,0-3.66.7,99.34,99.34,0,0,0-18,10.34c-8,5.59-8.3,5.18-14.29-.64a4.6,4.6,0,0,0-1.59-1,2,2,0,0,0-1.46,0,2.67,2.67,0,0,0-1.25,3.3,23.33,23.33,0,0,0,6.5,11.24C748.5,651.67,749.9,651.81,751,652.23Zm30.08-166c-.36.51-1.09,1.06-1,1.52.65,5.23,3.47,9.43,6.65,13.44.91,1.15,4.1,1.7,5.25.86,2.56-1.89,5.19-3.7,7.64-5.71,5.9-4.86,11.82-9.67,18.46-13.52a21.52,21.52,0,0,0,2.87-2.48c1.44-1.24,1.36-2.19-.27-2.76a4.51,4.51,0,0,0-1.78-.27,12.2,12.2,0,0,0-5.22,2.11c-6.55,3.93-13.11,7.83-19.72,11.62a4.94,4.94,0,0,1-5.35-.52c-2.08-1.38-3.22-4-5.92-4.54A5,5,0,0,0,781.11,486.22Zm-12.49,192c-.59-.36-1.19-1.06-1.66-1a34.75,34.75,0,0,0-13.79,6.2c-3.64,2.57-7.13,5.33-10.72,8-1.75,1.3-5.39.94-7.07-.73-1.34-1.32-2.5-2.83-3.85-4.15a2.23,2.23,0,0,0-1.75-.62,2.38,2.38,0,0,0-1.85,2.81,19.91,19.91,0,0,0,6,11.61c1.14,1.12,4.15,1.74,5.28.9,4.6-3.41,9.13-6.91,13.77-10.26s9.42-6.47,14-9.84C767.84,680.57,768.11,679.24,768.62,678.25Zm27.86-99.8A7,7,0,0,0,795,577.3a3.62,3.62,0,0,0-3.5.35c-6.7,4.73-13.34,9.54-20,14.25-2.83,2-5.9,1.56-8.38-1.27a24.07,24.07,0,0,0-2.74-2.6,4.27,4.27,0,0,0-1.6-.85,2.7,2.7,0,0,0-1.82,0,2.21,2.21,0,0,0-.93,1.59c-.25,6.41,3.94,10.21,8.34,13.83a2.8,2.8,0,0,0,3.53,0c9.47-6.3,18.17-13.59,26.79-21C795.51,580.84,795.88,579.51,796.48,578.45Z"/><path class="cls-2" d="M614.5,669.66c0-28.75,0-57.5,0-86.26a234.65,234.65,0,0,1,1.23-24.87,29.83,29.83,0,0,1,3.23-11c8.94-16.95,17-34.35,24.93-51.76,2.4-5.22,5.31-10.19,7.81-15.36a58.52,58.52,0,0,0,3.55-8.88,8.05,8.05,0,0,0-1.2-7.29c-1.55-2-3.38-3.81-5.06-5.72-2.66-3-2.82-5.9-.45-8.33,3.12-3.2,6.43-6.23,9.36-9.6a9.24,9.24,0,0,0,1.69-9c-1.44-4.95-4-9.38-6.46-13.85-1.22-2.2-2.77-4.35-2.81-7a2.15,2.15,0,0,1,.75-1.4c.45-.39,1.14-.89,1.64-.8a97.06,97.06,0,0,1,20.13,5.85c9.59,3.95,18.18,9.27,25.07,17.15,1.68,1.93,3.53,3.69,5.24,5.6q17.24,19.26,34.45,38.57a8,8,0,0,1,1.87,7.16c-3.54,15.54-6.25,31.29-11.22,46.49-.73,2.21-4.16,3.09-6.29,1.16-4.75-4.27-9.44-8.61-14.19-12.86q-8.57-7.67-17.22-15.22a17.2,17.2,0,0,0-3.33-1.81c-1.28-.69-4.11,1.05-4.12,2.55,0,3.83-.37,7.66-.16,11.47.7,12.75,1.58,25.5,2.41,38.24.46,7,1,14,1.46,21q1.51,22.94,3,45.88c.36,5.73.64,11.48,1,17.22.28,5.1.4,10.22.84,15.3.39,4.45,1.13,8.86,1.72,13.29-1.43,6.87-2.6,13.81-4.35,20.59-3,11.76-5.42,23.64-7.75,35.54-.32,1.64.91,3.84,2.34,4.87a20,20,0,0,0,7,3c4.44,1.11,5.85,4.49,6.56,8.44a27.29,27.29,0,0,1,.56,3.79q.68,14.36,1.24,28.71c.16,4.05-2.56,7.05-6.82,7.69-1.89.28-3.78.69-5.68.79-15.3.82-30.6,1.86-45.94,1.65-5.75-.08-11.5.09-17.25.15-6.78.07-8.72-2.73-8.71-9.55q0-30.66,0-61.34ZM665,662c-10.89-.6-18.44-.29-25.92,1.16a16.64,16.64,0,0,0-3.49,1.28,2.41,2.41,0,0,0-1.48,3c.22,1.42.75,2.36,2.23,2.68a14.48,14.48,0,0,0,3.66.69c10.69-.66,21.38-1.42,32.07-2.19a18.61,18.61,0,0,0,3.67-.78,4,4,0,0,0,1.63-.94,3.32,3.32,0,0,0,.72-1.44,2.13,2.13,0,0,0-1.42-2.93C671.8,660.55,666.72,662.12,665,662Z"/><path class="cls-2" d="M554.91,669.31q0,18.23,0,36.45c0,14.71-.13,29.41-.93,44.1-.49,8.93-.61,17.88-1,26.81-.09,2.31-2.73,4.8-5,5-.64,0-1.27.23-1.9.24-2.56,0-5.12.2-7.67.07-16-.83-31.91-1.6-47.85-2.65-5.07-.34-10.09-1.48-15.13-2.29a4.71,4.71,0,0,1-3.49-4,27.18,27.18,0,0,1,.18-5.71A6.32,6.32,0,0,1,477,762c2.47-.61,5-.94,7.5-1.52,1.86-.43,3.68-1,5.5-1.61,2-.62,4.23-4,4-6s-.42-3.8-.77-5.68c-4.15-22.63-8.49-45.22-12.44-67.87a144.84,144.84,0,0,1-2-32.45c.87-17.24,1.58-34.48,3.08-51.68q1.24-14.32,1.65-28.71c.37-12.79,1.46-25.52,2.58-38.25.73-8.26,1.95-16.5.79-24.82-.21-1.53-2.85-3.13-4.32-2.57a11.54,11.54,0,0,0-1.84.51,61.53,61.53,0,0,0-12.14,9.3c-3.57,3.66-7.33,7.13-11.1,10.59a17.88,17.88,0,0,1-3.26,1.94c-1.56.91-4.39,0-4.74-1.52-.14-.61-.51-1.17-.64-1.79q-4.65-22.53-9.29-45.06a12.51,12.51,0,0,1,2.93-10.72c10.47-12.92,21.28-25.54,33.42-36.95a42.9,42.9,0,0,1,10.93-7.72c8.67-4.07,17.49-7.85,27-9.75a2.9,2.9,0,0,1,3.11,1.57,2.58,2.58,0,0,1,.1,1.88c-2.28,7.31-6.6,13.82-8.42,21.32a5.72,5.72,0,0,0,1.21,5.35,68.26,68.26,0,0,0,5.63,5.11c1.9,1.7,3.82,3.37,5.71,5.08.82.75,1.29,4.52.74,5.51s-1.18,2.27-1.89,3.33c-1.41,2.13-3.07,4.11-4.34,6.32a8.78,8.78,0,0,0-1,7.38c1.5,4.2,3,8.41,4.93,12.45q12.57,26.93,25.37,53.74c7.68,16.12,8.36,13.36,8.55,34.78.1,10.86-.18,21.72,1.2,32.56.56,4.41.24,8.94.25,13.41q0,24.95,0,49.88Zm-50.65-7.65c-.77,0-4.53.18-8.29.39a12.34,12.34,0,0,0-1.76.56c-1.52.33-1.93,1.23-2.14,2.68s.06,2.31,1.69,2.69a31.91,31.91,0,0,0,5.45,1.22c6.9.36,13.78.72,20.66,1.5a59.86,59.86,0,0,0,11.26-.33,5.55,5.55,0,0,0,3.29-1.6,2.51,2.51,0,0,0,.37-3.23,6.18,6.18,0,0,0-3.18-1.82A158.88,158.88,0,0,0,504.26,661.66Z"/><path class="cls-2" d="M676.41,283.84c0,5.75.09,7.67,0,9.59-1.06,19.1-7.32,36.19-19.8,50.84a146.3,146.3,0,0,1-10.19,11.45,90.92,90.92,0,0,1-49.23,24,82.4,82.4,0,0,1-37.92-2.85c-23.58-7.34-41.93-21.38-54.61-42.61a82,82,0,0,1-10.21-26.74c-1.21-6.28-2.88-12.48-2.84-18.93.16-21.73,5.85-41.66,19.27-59,13.86-18,32.25-28.69,54.18-33.69a88.4,88.4,0,0,1,22.81-2.41c18.4.63,35.17,6,50.07,16.9a92.83,92.83,0,0,1,19.48,18.34c10.81,14.06,17.19,29.8,18.57,47.51C676.27,280,676.41,283.84,676.41,283.84Zm-124.74-1.08c1.65-2.09,4.28-2.62,6.36-4a4.08,4.08,0,0,0,.78-5.07,14,14,0,0,0-2.34-2.94c-6.88-5-14.73-7.31-23.14-7.83a13.14,13.14,0,0,0-3.74.59,3.8,3.8,0,0,0-1.67.91,12.38,12.38,0,0,0-2.36,2.82c-.52,1,1.83,4,3.2,4.28,3.71.85,7.44,1.59,11.12,2.57a2,2,0,0,1,1,3c-1.28,2.16-3.11,4-4.45,6.11a6.56,6.56,0,0,0,0,7.18,10.34,10.34,0,0,0,7.6,5.17,7.71,7.71,0,0,0,8.8-7.71c-.09-1.83-1-3.62-1.5-5.42Zm36.4,78.49h.82c11.85,0,22.51-3.8,32.37-10.14a80.37,80.37,0,0,0,17.22-15.06,49.88,49.88,0,0,0,9.64-16.39A24.49,24.49,0,0,0,649,314c.25-2.55-2.35-5-4.56-4.34-3.06.86-6.17,1.6-9.19,2.61a139.32,139.32,0,0,1-43.17,7.34c-1.91,0-3.82.2-5.73.24-12.77.25-25.42-.17-37.94-3.38-6.78-1.73-13.64-3.2-20.43-4.91a23.61,23.61,0,0,0-3.78-.3c-1.64-.14-3.57,2-3.52,3.61a17.47,17.47,0,0,0,1.74,7.37A104.52,104.52,0,0,0,529,333.9c6.65,9.67,15.29,17.06,26.29,21.41A78.58,78.58,0,0,0,588.07,361.25Zm54.74-93.36c.22-1.21-1.59-4.14-2.87-4.33a11.41,11.41,0,0,0-3.75-.26c-8.78,1.76-17,5.25-25.31,8.42-.58.22-1.07.69-1.64,1a2.76,2.76,0,0,0-1.74,3.08,3.65,3.65,0,0,0,1.78,3,4.65,4.65,0,0,0,1.81.59c1.85.17,4,0,5.21,1.49s.7,3.66.87,5.55c.05.63.11,1.26.19,1.89a7.87,7.87,0,0,0,7.88,6.82,6.9,6.9,0,0,0,3.58-1,8.75,8.75,0,0,0,3.09-11.67c-.86-1.68-2-3.21-2.95-4.85s.33-3.55,2.61-4.06c2.48-.56,5-.86,7.45-1.59A5.69,5.69,0,0,0,642.81,267.89Z"/><path class="cls-2" d="M248.09,444.59a25.15,25.15,0,0,1,.3-3.3c.69-2.49,1.7-4.89,4.36-5.79,6-2,12.08-4,18.15-5.83a8.6,8.6,0,0,0,6.61-8.26,20.43,20.43,0,0,1,2.63-9.08,9.77,9.77,0,0,1,5.87-4.54,17.82,17.82,0,0,1,7.55-.41,9.8,9.8,0,0,1,6.54,3.54c1.94,2.5,3.53,5.27,5.45,7.78a7.09,7.09,0,0,0,6.61,3c5-.6,10.07-1.42,15.1-2.12,1.26-.18,2.53-.28,3.79-.41a7.65,7.65,0,0,1,6.35,3.52,29,29,0,0,1,3.85,14.57c0,1.4-1.77,4-3.1,4.37-2.47.61-4.93,1.28-7.41,1.81-20.54,4.32-41.08,8.68-61.64,12.87-5,1-10,2.05-15.11,1.45-1.2-.13-4-2.11-4.33-3.31a14.76,14.76,0,0,1-.51-1.84C248.72,449.5,248.32,446.35,248.09,444.59Zm43.38-20.78c3-.05,5.36-1.85,5.38-4.08,0-3.75-1.69-5.41-5.61-5.88-2.05-.24-4.26,2.21-4.46,5.09A5,5,0,0,0,291.47,423.81Z"/><path class="cls-2" d="M884.26,420.1c.79.95,2,1.79,2.27,2.87a52.14,52.14,0,0,1,1,7.51c.32,3.45,1.79,6,5.19,7.2,4.81,1.63,9.66,3.16,14.46,4.8a34.74,34.74,0,0,1,3.42,1.66c1.75.84,3.8,4.23,3.55,6.31-.44,3.78-1,7.54-1.59,11.29-.18,1.2-3.1,3.35-4.32,3.31a18.8,18.8,0,0,1-3.76-.1c-24-6.06-48.17-11.44-72-18.12a29.74,29.74,0,0,1-5.22-2.08,3.17,3.17,0,0,1-1.65-3.19,24.87,24.87,0,0,1,4.71-14.15,4.76,4.76,0,0,1,3.33-1.63c2.57-.45,5.05.13,7.55.52,5,.79,10,1.79,15,2.43a4.5,4.5,0,0,0,3.31-1.53c2.45-2.88,4.55-6.06,7-9a7.88,7.88,0,0,1,6.75-2.8c1.9.09,3.79.31,5.68.52,2.05.22,3.35,1.61,4.62,3a17.56,17.56,0,0,1,1.14,1.45c-2.5-.65-4.91-1.4-7.38-1.81a7.79,7.79,0,0,0-3.66.43c-4.22,1.46-5.27,7.67-1.9,10.82,1.68,1.57,5.6,1.35,6.9-.3a20.65,20.65,0,0,0,3.3-6.72C882.26,421.78,883.46,421,884.26,420.1Z"/><path class="cls-2" d="M549.64,494.74c.58,5.53,1.2,10.6,1.61,15.68.36,4.44.48,8.9.69,13.35.08,1.73-.66,2.49-2.13,2.16a4.86,4.86,0,0,1-1.65-.67,4,4,0,0,1-1.33-1.34c-8.65-17-16.44-34.5-23.81-52.14a5.41,5.41,0,0,1,1.05-5.36c2.71-3.54,5.44-7.05,8.11-10.61a6.45,6.45,0,0,0-.36-7.17c-1.69-1.9-3.39-3.8-5.22-5.55-2.29-2.18-4.83-4.11-7.06-6.35a5.1,5.1,0,0,1-.91-5.41c3.41-8.92,7.21-17.68,13-25.38,1.21-1.59,3.19-2,5.12-1.91a2.88,2.88,0,0,1,2.88,2c3.63,15.21,4.94,23.71,5.91,37.68.13,1.9.1,3.83.35,5.72C547.92,464.65,549,479.91,549.64,494.74Z"/><path class="cls-2" d="M722.82,551.37c-5.39,22.37-9.91,41-14.36,59.64-1.33,5.59-2.41,11.24-3.77,16.83a7.26,7.26,0,0,1-3.05,4.57,2.79,2.79,0,0,1-1.8.3,11,11,0,0,1-1.09-3.56c-1.47-25.53-4.18-51-4.94-76.55-.31-10.2-1.4-20.38-2.09-30.58a2.24,2.24,0,0,1,2.11-2.62,5.9,5.9,0,0,1,1.83,0,3.57,3.57,0,0,1,1.74.72c7.94,7.42,15.88,14.83,23.71,22.36a7.38,7.38,0,0,1,2.15,7C722.89,551.38,722.36,553.23,722.82,551.37Z"/><path class="cls-2" d="M617.81,506.12c.23-3.32.31-6.51.7-9.66,2.84-22.7,4.47-45.52,7-68.26a130.07,130.07,0,0,1,4.81-22.28,2.64,2.64,0,0,1,3-1.66c1.17.16,2.78.48,3.35,1.31a135.73,135.73,0,0,1,14.21,26.81c.38.94-.3,2.53-.89,3.58-2.54,4.5-6.83,7.47-10.13,11.32-1.23,1.43-2.26,3-3.35,4.57a5.61,5.61,0,0,0,.2,5.39c.81,1,1.36,2.25,2.33,3,6.77,5.1,7.32,11,3.58,18.43-6,11.9-11.42,24.1-17.12,36.16-1.08,2.28-2.39,4.46-3.58,6.69a2.19,2.19,0,0,1-3.18,1,2.25,2.25,0,0,1-.93-1.39C616.56,516.07,618.18,511,617.81,506.12Z"/><path class="cls-2" d="M575,451c-.36,3.23-.62,5.76-.92,8.29-.44,3.8-1.14,7.58-1.34,11.38-1.12,21-4.22,41.82-5.1,62.83a203.94,203.94,0,0,1-3.7,30.28,8.78,8.78,0,0,1-1.5,3.34c-.26.34-.89-.8-.9-2.49-.06-14-.2-28-1.06-42-.43-7-.83-14-1.49-21-1.5-15.85-3.18-31.68-4.71-47.53a38,38,0,0,1,0-7.61,5.46,5.46,0,0,1,3-4.55c2.29-1.11,4.52-2.35,6.82-3.42,4-1.87,9.29,1,10.09,5.57C574.63,446.56,574.79,449.09,575,451Z"/><path class="cls-2" d="M614.31,458.23c-.6,7.55-.75,13.32-1.58,19-2.14,14.56-2.72,29.24-3.79,43.88-.83,11.46-1.82,22.91-2.78,34.36a3.12,3.12,0,0,1-.85,1.62c-.82.91-1.52.37-1.68-1.52-.37-4.46-.8-8.91-.92-13.38-.3-10.86-1.33-21.66-2.53-32.45-.56-5.08-1.09-10.17-1.34-15.27A271,271,0,0,0,595.92,464c-.91-5.66-1.06-11.44-1.43-17.18-.27-4.14,1.61-7.31,4.71-9.95a3.51,3.51,0,0,1,3.47-.94c3.18.77,5.81,2.53,8.41,4.36a7.63,7.63,0,0,1,3.6,6.37C614.66,451.12,614.4,455.58,614.31,458.23Z"/><path class="cls-2" d="M474.63,567.12c-1.58,15.78-2.63,30.36-3,45a7,7,0,0,1-.32,1.86c-.17.52-.52,1.41-.77,1.4-1.52,0-2.07-1-2.4-2.5-1-4.34-2.45-8.59-3.14-13-2.7-17-6.71-33.65-10.43-50.4-.68-3.1-1.2-6.24-1.59-9.38a7.22,7.22,0,0,1,2.47-6.84q8.9-7.15,18-14.07a3.38,3.38,0,0,1,3.62,0,2.08,2.08,0,0,1,.82,1.65C476.79,536.7,475.66,552.52,474.63,567.12Z"/><path class="cls-2" d="M583,640.36H567.71c-1.11,0-3.78-2.63-4-3.82a22.36,22.36,0,0,1-.68-3.73c.17-7-1.15-14,.47-21,.11-.47.76-.94,1.27-1.15s1.45-.4,1.69-.14c5.12,5.7,8.93,12.48,14.68,17.67a5.12,5.12,0,0,0,6.86-.33c1.27-1.43,2.54-2.86,3.85-4.26,3.48-3.74,7-7.48,10.5-11.16a2.74,2.74,0,0,1,1.66-.52c1.45-.09,2.22.75,2.31,2.37a116.55,116.55,0,0,1-.27,21.05c-.17,1.36-2.44,3.49-3.92,3.78C595.84,640.38,589.4,639.68,583,640.36Z"/><path class="cls-2" d="M582.18,389.72c4.4-.25,10.74-.61,17.09-1,1.91-.1,3.81-.11,5.72-.18,1.63-.06,3.91,1.72,4.08,3.3.2,1.93,0,3.74-1.64,5.1a18.6,18.6,0,0,1-1.4,1.28,70.16,70.16,0,0,1-15.17,8,11.92,11.92,0,0,1-7.51.5,77.71,77.71,0,0,1-19.16-8.38A6.16,6.16,0,0,1,561,392a2.92,2.92,0,0,1,2.12-2.73,14.58,14.58,0,0,1,3.76-.48C571.32,389,575.77,389.32,582.18,389.72Z"/><path class="cls-2" d="M559.4,405.74c5.89,3.18,9.21,4.95,12.5,6.75,1.89,1,2.2,4.82.67,6.65a59.54,59.54,0,0,1-10.79,10.43c-2.59,1.86-7.06.83-7.87-2.05-2.19-7.81-5.13-15.49-4.48-23.85.14-1.8.93-2.42,2.55-1.64C555.35,403.66,558.68,405.37,559.4,405.74Z"/><path class="cls-2" d="M616.85,402.28c2.86-.95,3.73-.4,3.85,1.26a13.86,13.86,0,0,1,.28,1.87c-.39,4.83-3,16.29-5,22.26-.75,2.23-4.59,3.84-6.26,2.62-5.15-3.74-10.42-7.39-13.75-13-.47-.79,0-2.54.59-3.44a6.62,6.62,0,0,1,3.08-2.09A61.45,61.45,0,0,0,613,404.35,27.18,27.18,0,0,1,616.85,402.28Z"/><path d="M309.73,499.81c1.28,8,2.23,14.3,3.31,20.56.39,2.26-3.78,6.09-6.86,4.61a3.86,3.86,0,0,1-2.5-2.55c-.8-3.72-1.37-7.5-2.16-11.23-.41-1.94-3.73-3.88-6.07-3.63a21.44,21.44,0,0,0-3.73.75c-1.44.44-3.12,3.15-2.88,4.54.65,3.77,1.46,7.5,1.93,11.29a6.76,6.76,0,0,1-1,3.51c-.93,1.8-5.28,2.61-6.88,1.24a6,6,0,0,1-2.13-2.94q-3.74-18.76-7.17-37.58a12.79,12.79,0,0,1,.3-3.77c.17-1.24,3.09-3.52,4.36-3.15a6.74,6.74,0,0,1,3.1,1.91,8.85,8.85,0,0,1,1.54,3.43c.84,3.07,1.3,6.26,2.37,9.25a5.14,5.14,0,0,0,4.45,3.14,18.82,18.82,0,0,0,5.62-.84c1.4-.34,3.13-3.25,2.88-4.58-.6-3.12-1.31-6.23-1.83-9.36a24,24,0,0,1,0-3.79c0-1.59,1.8-3.32,3.77-3.61s4.26.82,4.78,2.23a14.28,14.28,0,0,1,.86,1.7C307.21,487.79,308.65,494.66,309.73,499.81Z"/><path d="M402.74,494.86c-.17,1.83-.2,3.11-.43,4.36a11,11,0,0,1-5.33,7.55,18.82,18.82,0,0,1-7.1,2.64,16.6,16.6,0,0,1-15.4-5.64,4.88,4.88,0,0,1-.65-5.26c.62-1.37,3.39-2.36,4.94-2.11,2.67.44,4.39,2.43,6.57,3.67a4.28,4.28,0,0,0,3.68.46,4.67,4.67,0,0,0,2.76-4.47c-.3-2.66-1.31-5-3.89-6.06-2.32-1-4.82-1.53-7.22-2.32a36.39,36.39,0,0,1-5.36-1.94c-4.25-2.18-6.85-5.64-7.06-10.54a28.37,28.37,0,0,1,.39-5.67,11.22,11.22,0,0,1,5.32-7.6,29.63,29.63,0,0,1,7-3c6.38-2,12.5.86,15.64,7.43a6.74,6.74,0,0,1,.3,3.66c-.16,1.12-3.41,2.51-4.9,2.18a18.67,18.67,0,0,1-3.53-1.22c-1.16-.51-2.23-1.24-3.39-1.75-1.33-.59-4.61.93-4.68,2.24a7,7,0,0,0,.62,3.57,8.86,8.86,0,0,0,2.77,2.52c2.67,1.83,5.89,2.36,8.8,3.59a34.87,34.87,0,0,1,6.55,3.86,7.35,7.35,0,0,1,2.94,4.74C402.4,491.63,402.57,493.52,402.74,494.86Z"/><path d="M288.64,570.36c1.27-.24-1.23.28-3.67-.85-.55-.26-1.25-.69-1.4-1.18a2.19,2.19,0,0,1,1.41-3,19,19,0,0,1,1.78-.65c3.71-.89,7.42-1.82,11.16-2.6,16.82-3.5,33.62-7.11,50.49-10.38,18.12-3.51,36.06-7.94,54.3-10.84a25.77,25.77,0,0,1,5.67-.43,2.22,2.22,0,0,1,2.09,2.49c0,.56-.23,1.46-.58,1.59a127.44,127.44,0,0,1-18.35,5.06c-28,5.82-56,11.83-84.06,17.69C302.5,568.3,297.44,568.93,288.64,570.36Z"/><path d="M387.38,711.22c6.41-1.19,16.33-3.56,26.48-5s20-3.93,30-5.79a2.29,2.29,0,0,1,2.59,1.88,3.1,3.1,0,0,1-1.92,3.08,10.17,10.17,0,0,1-1.66.88c-1.84.52-3.7,1-5.57,1.4-8.75,1.83-17.47,3.82-26.26,5.42-24.5,4.45-48.77,10-73.18,14.92-6.86,1.38-13.69,3.1-20.75,1.59-.53-.11-1.33-.65-1.34-1a2.05,2.05,0,0,1,.89-1.62c4-2.1,8.39-2.87,12.71-3.78,14.35-3,28.64-6.42,43.14-8.79C376.32,713.79,380,712.81,387.38,711.22Z"/><path d="M222.87,542.06c-5.56.72-8.05-.84-8.8-3.28-.18-.6-.55-1.16-.67-1.77-2.17-10.55-4.35-21.1-6.42-31.67a39.8,39.8,0,0,1-.33-5.69c-.07-1.38,1.83-3.75,3.26-4.23,6.65-2.21,13.41-3.86,20.47-3.47.92.05,2.08,1.31,2.56,2.29.61,1.24-.07,2.42-.91,3.39a5.5,5.5,0,0,1-3.23,1.83c-2.48.5-4.93,1.11-7.37,1.78-1.8.5-3.32,3.83-3.05,6.34.22,2,1.74,4,3.24,4.07,3.14.23,6.28.44,9.43.61,1.65.09,2.21.9,2,2.58a3.77,3.77,0,0,1-1.74,3,9.13,9.13,0,0,1-1.72.75c-1.18.45-2.42.78-3.56,1.32-4.06,1.89-5.06,4.58-3.54,9.41.18.6.54,1.14.74,1.73.48,1.35,1.47,1.8,2.9,2.08,3.81.72,7.51-1.44,11.28-.32a3.45,3.45,0,0,1,2.45,2.44,2.22,2.22,0,0,1-1.51,3.05,37.66,37.66,0,0,1-5.3,2C228.72,541.2,224.33,541.82,222.87,542.06Z"/><path d="M333.24,489.39c0-5.06,0-6.34,0-7.61.27-7.73,4-12.95,14.1-15.68a9.18,9.18,0,0,1,3.79.11,16.48,16.48,0,0,1,11.91,8.72,4.93,4.93,0,0,1-.77,5.25c-1.36,1.47-3.89,2.16-5.16,1.26-2.06-1.45-3.95-3.17-6.1-4.46a5.87,5.87,0,0,0-3.66-.59,4.55,4.55,0,0,0-4,3.54,16,16,0,0,0-.67,5.62c.85,5.67,2,11.29,3.14,16.92a6.54,6.54,0,0,0,.78,1.73,6.17,6.17,0,0,0,4.4,3.25,5.13,5.13,0,0,0,5-1.95c1.17-1.47,1.82-3.34,2.94-4.86a6.49,6.49,0,0,1,5-2.39,3.54,3.54,0,0,1,3.68,3.47c.18,4.59-3.45,11-7.12,12.68a21,21,0,0,1-9.25,2.09,17.14,17.14,0,0,1-3.78-.45,14.48,14.48,0,0,1-9.13-6.47A27.54,27.54,0,0,1,334.23,499C333.64,494.53,333.31,490.07,333.24,489.39Z"/><path d="M357.5,605.58c11.25-2.2,22.52-4.33,33.75-6.65,8.12-1.67,16.17-3.62,24.26-5.4a15.65,15.65,0,0,1,3.78-.42,2.75,2.75,0,0,1,2.65,2.09,2.32,2.32,0,0,1-1.63,3.07c-4.87,1.49-9.68,3.32-14.65,4.24-9.41,1.74-18.67,4.1-28.13,5.68-14.45,2.43-28.74,5.76-43.11,8.67-12.49,2.53-25,5-37.49,7.49a2.9,2.9,0,0,1-3.53-3.17c.11-.54.32-1.41.65-1.5,5.53-1.49,11-3.24,16.66-4.21C326.43,612.73,341.8,608.37,357.5,605.58Z"/><path d="M309,677a14.32,14.32,0,0,1-2.85-.25,2.91,2.91,0,0,1-1.51-1.11,2,2,0,0,1,1.05-2.84,75.39,75.39,0,0,1,14.65-4.14c23.71-4.52,47.44-9,70.93-14.59,12.58-1.72,24.83-5.4,37.53-6.45a2.42,2.42,0,0,1,2.53,2.06c.28,1.57-.49,2.38-1.95,2.72-5.56,1.31-11,3-16.66,4-23.16,4.07-46,9.8-69.06,14.28-8.72,1.69-17.47,3.28-26.17,5.15C314.4,676.5,311.21,676.71,309,677Z"/><path d="M267.36,488.52c-.27,2.06-1.94,3-3.54,3.89-2.54,1.4-3.35,3.77-3.35,6.31a60.38,60.38,0,0,0,2.3,15c1.42,5.52,2.59,11.11,2.15,16.84-.08,1.09-1.15,2.18-2,3.09-.34.38-1.19.37-1.81.41-2.58.17-5.68-1.49-6.09-3.33q-2.28-10.17-4.46-20.35c-.66-3.1-1.15-6.22-1.79-9.32a6.08,6.08,0,0,0-4.92-5,33.06,33.06,0,0,1-3.62-.92,2.6,2.6,0,0,1-1.81-2.83c0-1.46.45-2.53,1.89-3a168.57,168.57,0,0,1,20.18-4.79,8.16,8.16,0,0,1,5.43.83C267.35,486.1,267.92,487,267.36,488.52Z"/><path d="M292,588.58a3.85,3.85,0,0,1-3.44-1.45c-.79-1,.82-3,2.91-3.76,1.21-.41,2.39-.87,3.6-1.27a36.6,36.6,0,0,1,3.65-1.13c24.24-5.35,48.49-10.65,72.86-15.4a13.15,13.15,0,0,1,3.81-.15c1.53.15,2.55.89,2.49,1.8a3.59,3.59,0,0,1-2.12,3,16.1,16.1,0,0,1-3.44,1.57c-11.16,2.57-22.29,5.29-33.52,7.52-11.86,2.35-23.71,4.78-35.49,7.49C299.59,587.64,295.76,588,292,588.58Z"/><path d="M303.16,641.49c-1.12-.13-2.38-.21-3.61-.42a9.44,9.44,0,0,1-1.77-.7,13.59,13.59,0,0,1,2.05-3,8.39,8.39,0,0,1,3.42-1.58c10.51-2.39,21-4.77,31.56-7,13.65-2.91,27.39-5.36,40.84-9.19a26.55,26.55,0,0,1,11.29-1c1.55.24,2.28,1.21,2.11,2.26a3,3,0,0,1-.67,1.75,8.51,8.51,0,0,1-3.2,1.92c-15.5,3.36-31,6.55-46.51,9.91-6.82,1.47-13.6,3.12-20.35,4.87A75,75,0,0,1,303.16,641.49Z"/><path d="M323.1,749c-2.27-.54-3.07-1.24-2.84-2.22a3,3,0,0,1,.83-1.7,18.4,18.4,0,0,1,7-2.87l35.63-7.37,37.51-7.69a15.2,15.2,0,0,1,1.9-.25,7.62,7.62,0,0,1,5.31,1.29c.51.39-2.43,4-3.55,4.23-11.81,2.76-23.54,5.94-35.45,8.12-13.19,2.41-26.35,4.88-39.42,7.87A43.57,43.57,0,0,1,323.1,749Z"/><path d="M311.23,695.19c-1.84-.38-2.48-1.11-2-2.17.27-.57.51-1.32,1-1.58a20.79,20.79,0,0,1,5.19-2.39c14.33-3.09,28.46-7,43-9.2,9.42-1.42,18.66-4.06,28-6.2,3.75-.86,7.51-1.65,11.35-1.24,1.64.18,2.32,1.17,1.92,2.14-.23.57-.57,1.34-1.05,1.52a62.81,62.81,0,0,1-9,3.1c-14.33,3.07-28.73,5.82-43.05,8.93-7.47,1.62-14.85,3.68-22.24,5.66A39,39,0,0,1,311.23,695.19Z"/><path d="M330.34,514.4c-.16,1.37-.32,2.62-.45,3.87s-2.9,3.41-4.27,3a7.45,7.45,0,0,1-3.12-1.75,9.46,9.46,0,0,1-1.67-3.36,28,28,0,0,1-1.55-5.46c-1.25-10-4.83-19.66-5.32-29.82a10.82,10.82,0,0,1,.33-3.73,6,6,0,0,1,1.92-3.12,4.7,4.7,0,0,1,3.52-.56,5.11,5.11,0,0,1,2.82,2.21,17.13,17.13,0,0,1,2.07,5.26c1.8,9.3,3.46,18.63,5.12,28C330.07,510.73,330.16,512.63,330.34,514.4Z"/><path d="M275.77,682c-2.37,6.17-4.56,12.82-8.76,18.5a53.81,53.81,0,0,1-3.69,4.29,3.77,3.77,0,0,1-3.46,1.27c-5.88-1-10.67-3.63-13.52-9.09a2.67,2.67,0,0,1,.77-3.46,2.38,2.38,0,0,1,1.59-.37c2.65.19,4.42,2.3,6.77,3.19a6.11,6.11,0,0,0,6.8-1.73,23.28,23.28,0,0,0,5.61-9.8c1.44-5.79,4.66-10.27,8.55-14.52,1-1.12,1.81-1.79,2.71-1.06a1.92,1.92,0,0,1,.4,1.7C278.38,674.56,277.12,678.13,275.77,682Z"/><path d="M262.65,630.85c-2,4.67-4,9.38-6.12,14a38.26,38.26,0,0,1-3,4.82c-1.34,2-4.72,3.06-6.69,2.12-4.59-2.19-9.1-4.53-12.36-8.59a2.43,2.43,0,0,1,.55-3.43,2.34,2.34,0,0,1,1.5-.61c3.32.3,5.63,2.81,8.55,4a4,4,0,0,0,4.89-1.33,56.52,56.52,0,0,0,3-4.85c4-8,7.71-16.1,12.93-23.37a1.89,1.89,0,0,1,3.07-.17,2,2,0,0,1,.48,1.61c-2.24,5.27-4.57,10.49-6.88,15.72Z"/><path d="M252,577.12c-2.22,5.3-4.38,10.62-6.68,15.89a10.37,10.37,0,0,1-2.23,3.06c-1.36,1.36-3,2.55-5,2.25-6-.9-10.82-3.57-13.41-9.33a2.42,2.42,0,0,1,1.28-3.17,2.37,2.37,0,0,1,1.87-.17c1.73.75,3.37,1.71,5.07,2.55a17.5,17.5,0,0,0,3.49,1.5,3.35,3.35,0,0,0,3.42-1.1,39.72,39.72,0,0,0,4.32-6.27c2.64-5.1,4.89-10.4,7.54-15.5,1.46-2.81,3.17-5.58,6-7.29.24-.14,1,.15,1.18.44.33.46.71,1.22.55,1.65C257.29,567,253.35,571.43,252,577.12Z"/><path d="M257.84,746.55a25.79,25.79,0,0,0,7.76,5.34,5.69,5.69,0,0,0,6.72-1.93,38.32,38.32,0,0,0,3.17-4.7c3.36-6.79,7.23-13.33,9.9-20.47.61-1.61,2.42-2.81,3.79-4.08a2,2,0,0,1,1.77-.47,2.26,2.26,0,0,1,1,3.2c-5,9.51-9.48,19.25-13.66,29.15-.73,1.74-1.71,3.39-2.53,5.1-1,2.12-4.45,3.47-6.46,2.46a113.33,113.33,0,0,1-10.08-5.26,5.14,5.14,0,0,1-2.15-4.95,31.11,31.11,0,0,1,.85-3.65Z"/><path d="M258,746.29c0,.5-.06,1-.16,1.51a7.08,7.08,0,0,1-.43,1.13c-.49-.29-.34-1,.46-2.23A1.62,1.62,0,0,1,258,746.29Z"/><path d="M932.18,522.81c-6.41-.29-13.17-2.47-19.85-4.45-12.86-3.83-25.9-6.92-38.79-10.59-11-3.15-22.15-6.09-33.22-9.15a3.85,3.85,0,0,1-1.65-.95,5.21,5.21,0,0,1-.73-1.58c-.6-1.44-.08-2.4,1.53-2.87a10.18,10.18,0,0,1,5.58.09L893.2,506c12.34,3.25,24.69,6.49,37,9.81a40.66,40.66,0,0,1,5.29,2.14,3,3,0,0,1,2,3c-.1,1-1.27,1.63-2.69,1.88A21,21,0,0,1,932.18,522.81Z"/><path d="M882.42,721.71c-8.66-2.11-17.88-4.41-27.12-6.59-21-4.94-41.81-10.54-62.56-16.39a8,8,0,0,1-4.61-3.07c-.33-.48-.77-1.24-.6-1.64a2.18,2.18,0,0,1,1.55-1,12,12,0,0,1,3.74,0c13,2.65,25.94,5.94,38.8,9.38,17.15,4.58,34.55,8.16,51.61,13.08a7.08,7.08,0,0,1,3,2.15c1,1.12,1.06,2.34.33,3.11a3.74,3.74,0,0,1-1.64.91A12.76,12.76,0,0,1,882.42,721.71Z"/><path d="M826,542.65c1.24-.1,2.56-.52,3.72-.25,22.31,5.07,44.61,10.19,66.7,16.13,8.59,2.32,17.5,3.42,25.8,6.78A8.24,8.24,0,0,1,925,567.6a2.18,2.18,0,0,1,.21,1.83,2.91,2.91,0,0,1-1.35,1.26,2.87,2.87,0,0,1-1.73.41q-25.2-5.21-50.12-11.66c-14.15-3.65-28.23-7.59-42.44-11a7.4,7.4,0,0,1-4.5-3.24c-.34-.5-.83-1.27-.66-1.64S825.41,543,826,542.65Z"/><path d="M817.79,592.08c5.75.27,12.32,3.18,19.27,4.22,19,5.69,38.45,9.51,57.54,14.78,5.53,1.53,11.06,3.09,16.57,4.72.33.1.5,1,.62,1.53a2.12,2.12,0,0,1-1.84,2.75,8.8,8.8,0,0,1-3.75.1c-10-2.32-19.9-4.68-29.82-7.15-13-3.24-26-6.47-39-9.95-8-2.15-16.33-3.27-23.68-7.39-1.33-.75-1.54-2.11-.9-2.78a3.47,3.47,0,0,1,1.72-.8A20.9,20.9,0,0,1,817.79,592.08Z"/><path d="M852.92,659.6c-3.69-.88-7.38-1.77-11.08-2.64-11.72-2.79-23.47-5.52-35.16-8.42a18.52,18.52,0,0,1-5-2.64,2.9,2.9,0,0,1-.87-1.65c-.27-1,.49-1.85,2.12-2a17.67,17.67,0,0,1,5.68.19c16.54,4.45,33.33,7.86,49.91,12.11,9.83,2.53,19.6,5.27,29.54,7.39a79.17,79.17,0,0,1,10.78,3.58,2.41,2.41,0,0,1,1.29,3.14,2.69,2.69,0,0,1-2.9,1.77C882.25,667.79,867.68,663.29,852.92,659.6Z"/><path d="M867.75,679.15a13.57,13.57,0,0,1-3.72.29c-6.23-1.28-12.45-2.61-18.62-4.14Q823.2,669.78,801,664a7.29,7.29,0,0,1-2.9-2.06,2.07,2.07,0,0,1-.28-1.82,2.21,2.21,0,0,1,1.48-1.1A11.18,11.18,0,0,1,803,659c16.87,3.28,33.54,7.42,50.17,11.72,4.31,1.11,8.65,2.11,12.9,3.41,1,.32,1.85,1.61,2.64,2.55.4.46.84,1.28.68,1.7S868.33,678.89,867.75,679.15Z"/><path d="M841.74,509.56c5.77,1.51,12.52,3.34,19.3,5.07,11.1,2.81,22.24,5.48,33.32,8.38A131.42,131.42,0,0,1,907,527.18c1.11.41,1.33,1.92.78,3a2.09,2.09,0,0,1-1.54,1,62.64,62.64,0,0,1-9.41-1.12q-23.18-5.68-46.27-11.71a151.52,151.52,0,0,1-14.46-4.86c-1.07-.4-1.27-1.94-.73-3.11a2.16,2.16,0,0,1,1.52-1.06A41.77,41.77,0,0,1,841.74,509.56Z"/><path d="M858.46,566c10.5,2.5,21,5,31.47,7.54a7.19,7.19,0,0,1,3.23,1.85,14.18,14.18,0,0,1,1.88,3.19,13.64,13.64,0,0,1-3.28,1.56,8.88,8.88,0,0,1-3.76-.24c-16-4.27-32.06-7.84-48.15-11.51-5.57-1.27-11.16-2.58-16.18-5.41-1-.55-.8-2.29-.18-3.23.33-.49,1.08-1.09,1.55-1C836.34,560.39,847.39,563.24,858.46,566Z"/><path d="M813.66,607.87c21,4.45,42.57,9.47,64,15.14a13.41,13.41,0,0,1,3.36,1.64,3.44,3.44,0,0,1,1.88,3.11c-.09,1.07-1.3,1.84-2.64,1.92a11,11,0,0,1-3.76-.36c-13.33-4.08-27-6.89-40.51-10.21-7.38-1.8-14.79-3.5-22.18-5.26-.62-.15-1.2-.42-1.81-.61-1.22-.37-3.88-3.06-3.89-4S811.32,607.41,813.66,607.87Z"/><path d="M775.91,552.43c-1.13-.53-2.61-.77-3.32-1.64-2.85-3.45-5.46-7.09-6.54-11.55a2.63,2.63,0,0,1,1.25-3.15c1.34-.7,2.42-.16,3.39,1,1.66,1.92,3.41,3.78,5.25,5.55a3.42,3.42,0,0,0,3.6.53c3.78-1.19,6.54-3.94,9.49-6.31,5-4,9.64-8.35,15.54-11a2.54,2.54,0,0,1,1.78-.08c1.46.61,1.78,1.81.74,3.12-5.57,7-12.43,12.8-19.05,18.77a21.57,21.57,0,0,1-10.23,5A6.9,6.9,0,0,1,775.91,552.43Z"/><path d="M751,652.23c-1.13-.42-2.53-.56-3.33-1.33a23.33,23.33,0,0,1-6.5-11.24,2.67,2.67,0,0,1,1.25-3.3,2,2,0,0,1,1.46,0,4.6,4.6,0,0,1,1.59,1c6,5.82,6.31,6.23,14.29.64a99.34,99.34,0,0,1,18-10.34,11,11,0,0,1,3.66-.7,2.35,2.35,0,0,1,1.56.9,1.63,1.63,0,0,1,0,1.37,3.55,3.55,0,0,1-1.08,1.51c-9.35,6.38-18.67,12.8-27.48,19.92A15,15,0,0,1,751,652.23Z"/><path d="M781.11,486.22a5,5,0,0,1,1.58-.25c2.7.54,3.84,3.16,5.92,4.54A4.94,4.94,0,0,0,794,491c6.61-3.79,13.17-7.69,19.72-11.62a12.2,12.2,0,0,1,5.22-2.11,4.51,4.51,0,0,1,1.78.27c1.63.57,1.71,1.52.27,2.76a21.52,21.52,0,0,1-2.87,2.48c-6.64,3.85-12.56,8.66-18.46,13.52-2.45,2-5.08,3.82-7.64,5.71-1.15.84-4.34.29-5.25-.86-3.18-4-6-8.21-6.65-13.44C780,487.28,780.75,486.73,781.11,486.22Z"/><path d="M768.62,678.25c-.51,1-.78,2.32-1.59,2.92-4.6,3.37-9.38,6.5-14,9.84s-9.17,6.85-13.77,10.26c-1.13.84-4.14.22-5.28-.9a19.91,19.91,0,0,1-6-11.61,2.38,2.38,0,0,1,1.85-2.81,2.23,2.23,0,0,1,1.75.62c1.35,1.32,2.51,2.83,3.85,4.15,1.68,1.67,5.32,2,7.07.73,3.59-2.64,7.08-5.4,10.72-8a34.75,34.75,0,0,1,13.79-6.2C767.43,677.19,768,677.89,768.62,678.25Z"/><path d="M796.48,578.45c-.6,1.06-1,2.39-1.85,3.14-8.62,7.37-17.32,14.66-26.79,21a2.8,2.8,0,0,1-3.53,0c-4.4-3.62-8.59-7.42-8.34-13.83a2.21,2.21,0,0,1,.93-1.59,2.7,2.7,0,0,1,1.82,0,4.27,4.27,0,0,1,1.6.85,24.07,24.07,0,0,1,2.74,2.6c2.48,2.83,5.55,3.25,8.38,1.27,6.71-4.71,13.35-9.52,20-14.25a3.62,3.62,0,0,1,3.5-.35A7,7,0,0,1,796.48,578.45Z"/><path d="M665,662c1.68.17,6.76-1.4,11.67.51a2.13,2.13,0,0,1,1.42,2.93,3.32,3.32,0,0,1-.72,1.44,4,4,0,0,1-1.63.94,18.61,18.61,0,0,1-3.67.78c-10.69.77-21.38,1.53-32.07,2.19a14.48,14.48,0,0,1-3.66-.69c-1.48-.32-2-1.26-2.23-2.68a2.41,2.41,0,0,1,1.48-3,16.64,16.64,0,0,1,3.49-1.28C646.6,661.66,654.15,661.35,665,662Z"/><path d="M504.26,661.66a158.88,158.88,0,0,1,27.35,2.06,6.18,6.18,0,0,1,3.18,1.82,2.51,2.51,0,0,1-.37,3.23,5.55,5.55,0,0,1-3.29,1.6,59.86,59.86,0,0,1-11.26.33c-6.88-.78-13.76-1.14-20.66-1.5a31.91,31.91,0,0,1-5.45-1.22c-1.63-.38-1.89-1.23-1.69-2.69s.62-2.35,2.14-2.68a12.34,12.34,0,0,1,1.76-.56C499.73,661.84,503.49,661.69,504.26,661.66Z"/><path d="M588.07,361.25a78.58,78.58,0,0,1-32.77-5.94c-11-4.35-19.64-11.74-26.29-21.41a104.52,104.52,0,0,1-6.59-11.63,17.47,17.47,0,0,1-1.74-7.37c0-1.63,1.88-3.75,3.52-3.61a23.61,23.61,0,0,1,3.78.3c6.79,1.71,13.65,3.18,20.43,4.91,12.52,3.21,25.17,3.63,37.94,3.38,1.91,0,3.82-.22,5.73-.24a139.32,139.32,0,0,0,43.17-7.34c3-1,6.13-1.75,9.19-2.61,2.21-.62,4.81,1.79,4.56,4.34a24.49,24.49,0,0,1-.88,5.63,49.88,49.88,0,0,1-9.64,16.39,80.37,80.37,0,0,1-17.22,15.06c-9.86,6.34-20.52,10.15-32.37,10.14ZM532.93,323.3c.62-1.2.43-1.52-.57-.95l1,.59a2.29,2.29,0,0,0,.31,3.24c.4.38,1.06.88,1.45.77s.87-.82,1-1.34a2.52,2.52,0,0,0-.21-1.71C535.23,322.6,534.15,322.44,532.93,323.3Zm54.47,17.19c.18,2.84.33,5.35.48,7.86.2,3.27,2.85,5.32,6.5,5.14a14.51,14.51,0,0,0,7.23-1.81,6.13,6.13,0,0,0,3.24-4.35,67.41,67.41,0,0,0,.32-16.91c-.13-1.13-2.71-3.27-4.06-3.43a24.39,24.39,0,0,0-9.32.54c-1.38.38-3.52,2.54-3.64,3.9C587.89,334.56,587.63,337.68,587.4,340.49Zm-7,4.2c0-6.16,0-8.68,0-11.21a13.94,13.94,0,0,0-.45-1.83c-.24-1.56-2.14-3.73-3.55-4-3.75-.68-7.53-1.24-11.19.2a4.77,4.77,0,0,0-2.62,2.52,32.37,32.37,0,0,0-.16,16.81,5.32,5.32,0,0,0,2.14,3,14.76,14.76,0,0,0,12.52,2.6,3.89,3.89,0,0,0,2.49-2.43A41.18,41.18,0,0,0,580.35,344.69Zm45-15.53c0,.2-.1-1.07-.25-2.34a4.53,4.53,0,0,0-4-3.37c-1.26.06-2.53.15-3.79.29-2.19.26-4.88,3.26-4.86,5.26,0,4.47,0,8.94,1.09,13.34a3.59,3.59,0,0,0,4.33,2.32,11.47,11.47,0,0,0,7.48-10.2C625.46,333.2,625.36,331.91,625.36,329.16Zm-69.41,7c-.12-2.13-.18-4-.35-5.94a4.64,4.64,0,0,0-.64-1.79c-1.39-2.41-3.69-3.23-6.28-3.61a3.88,3.88,0,0,0-4,3.1,19.3,19.3,0,0,0,.4,11.26,4.86,4.86,0,0,0,2.39,2.86c1.13.59,2.2,1.29,3.34,1.84,1.49.72,4.38-.75,4.54-2.24C555.56,339.7,555.76,337.8,556,336.12Zm78.44-9.82c.63-.11,1.47,0,1.85-.36,1.7-1.61,2-4,.73-4.95a2.38,2.38,0,0,0-1.63-.4,2.82,2.82,0,0,0-2.23,2.57A2.74,2.74,0,0,0,634.39,326.3Z"/><path d="M551.37,282.4c.53,1.8,1.41,3.59,1.5,5.42a7.71,7.71,0,0,1-8.8,7.71,10.34,10.34,0,0,1-7.6-5.17,6.56,6.56,0,0,1,0-7.18c1.34-2.13,3.17-3.95,4.45-6.11a2,2,0,0,0-1-3c-3.68-1-7.41-1.72-11.12-2.57-1.37-.31-3.72-3.29-3.2-4.28a12.38,12.38,0,0,1,2.36-2.82,3.8,3.8,0,0,1,1.67-.91,13.14,13.14,0,0,1,3.74-.59c8.41.52,16.26,2.8,23.14,7.83a14,14,0,0,1,2.34,2.94,4.08,4.08,0,0,1-.78,5.07c-2.08,1.42-4.71,1.95-6.36,4,0,0,.31-1.4.31-1.4Z"/><path d="M642.81,267.89A5.69,5.69,0,0,1,639,272c-2.42.73-5,1-7.45,1.59-2.28.51-3.54,2.45-2.61,4.06s2.09,3.17,2.95,4.85a8.75,8.75,0,0,1-3.09,11.67,6.9,6.9,0,0,1-3.58,1,7.87,7.87,0,0,1-7.88-6.82c-.08-.63-.14-1.26-.19-1.89-.17-1.89.4-4.06-.87-5.55s-3.36-1.32-5.21-1.49a4.65,4.65,0,0,1-1.81-.59,3.65,3.65,0,0,1-1.78-3,2.76,2.76,0,0,1,1.74-3.08c.57-.27,1.06-.74,1.64-1,8.32-3.17,16.53-6.66,25.31-8.42a11.41,11.41,0,0,1,3.75.26C641.22,263.75,643,266.68,642.81,267.89Z"/><path d="M291.47,423.81a5,5,0,0,1-4.69-4.87c.2-2.88,2.41-5.33,4.46-5.09,3.92.47,5.64,2.13,5.61,5.88C296.83,422,294.44,423.76,291.47,423.81Z"/><path d="M884.26,420.1c-.8.9-2,1.68-2.33,2.72a20.65,20.65,0,0,1-3.3,6.72c-1.3,1.65-5.22,1.87-6.9.3-3.37-3.15-2.32-9.36,1.9-10.82a7.79,7.79,0,0,1,3.66-.43c2.47.41,4.88,1.16,7.38,1.81Z"/><path class="cls-2" d="M587.4,340.49c.23-2.81.49-5.93.75-9.06.12-1.36,2.26-3.52,3.64-3.9a24.39,24.39,0,0,1,9.32-.54c1.35.16,3.93,2.3,4.06,3.43a67.41,67.41,0,0,1-.32,16.91,6.13,6.13,0,0,1-3.24,4.35,14.51,14.51,0,0,1-7.23,1.81c-3.65.18-6.3-1.87-6.5-5.14C587.73,345.84,587.58,343.33,587.4,340.49Z"/><path class="cls-2" d="M580.35,344.69a41.18,41.18,0,0,1-.85,5.7,3.89,3.89,0,0,1-2.49,2.43,14.76,14.76,0,0,1-12.52-2.6,5.32,5.32,0,0,1-2.14-3,32.37,32.37,0,0,1,.16-16.81,4.77,4.77,0,0,1,2.62-2.52c3.66-1.44,7.44-.88,11.19-.2,1.41.26,3.31,2.43,3.55,4a13.94,13.94,0,0,1,.45,1.83C580.38,336,580.35,338.53,580.35,344.69Z"/><path class="cls-2" d="M625.36,329.16c0,2.75.1,4,0,5.3a11.47,11.47,0,0,1-7.48,10.2,3.59,3.59,0,0,1-4.33-2.32c-1-4.4-1-8.87-1.09-13.34,0-2,2.67-5,4.86-5.26,1.26-.14,2.53-.23,3.79-.29a4.53,4.53,0,0,1,4,3.37C625.26,328.09,625.38,329.36,625.36,329.16Z"/><path class="cls-2" d="M556,336.12c-.19,1.68-.39,3.58-.6,5.48-.16,1.49-3.05,3-4.54,2.24-1.14-.55-2.21-1.25-3.34-1.84a4.86,4.86,0,0,1-2.39-2.86,19.3,19.3,0,0,1-.4-11.26,3.88,3.88,0,0,1,4-3.1c2.59.38,4.89,1.2,6.28,3.61a4.64,4.64,0,0,1,.64,1.79C555.77,332.08,555.83,334,556,336.12Z"/><path class="cls-2" d="M634.39,326.3a2.74,2.74,0,0,1-1.28-3.14,2.82,2.82,0,0,1,2.23-2.57,2.38,2.38,0,0,1,1.63.4c1.28,1,1,3.34-.73,4.95C635.86,326.31,635,326.19,634.39,326.3Z"/><path class="cls-2" d="M532.91,323.3c1.24-.86,2.32-.7,3,.6a2.52,2.52,0,0,1,.21,1.71c-.14.52-.57,1.23-1,1.34s-1-.39-1.45-.77a2.29,2.29,0,0,1-.31-3.24Z"/><path class="cls-2" d="M533.39,322.94l-1-.59c1-.57,1.19-.25.56.95Z"/><path class="cls-2" d="M551.37,282.4l.61-1.06s-.31,1.37-.31,1.4S551.37,282.4,551.37,282.4Z"/></svg>