<svg id="Ebene_1" data-name="Ebene 1" xmlns="http://www.w3.org/2000/svg" viewBox="0 0 1200.08 1106.42"><defs><style>.cls-1{fill:#f9f9f9;}.cls-2{fill:#fff;}</style></defs><path class="cls-1" d="M979.68,356.44c0-2.75-1.21-4.63-4-5.36,0-1.89.34-3.86-.06-5.66-.84-3.73-2.32-7.28-2.47-11.19-.27-7.05-.6-14.06,2.48-20.72.51-1.1.26-2.53.44-3.79a31.28,31.28,0,0,1,.73-3.74,6.24,6.24,0,0,1,3.6-4.19c22.83-10,45.49-20.39,67.85-31.41,2.28-1.13,4.43-2.52,6.63-3.81,1.41-.82,1.72-3.5.8-5.08-2.6-4.45-6.08-8.22-9.34-12.16-13-15.77-26.59-31.11-39.89-46.66-3.91-4.57-8.23-7.8-14.27-8.9-6.28-1.14-12.44-3-18.71-4.22-10.63-2.18-21.33-4-31.91-6.54s-21.36-4-32.05-5.95c-4.4-.82-8.76-1.83-13.14-2.77-2.5-.54-5-1.11-7.49-1.67A28.77,28.77,0,0,1,872.73,163c-3.32-3.89-6.79-7.66-10.24-11.44a21.22,21.22,0,0,0-7.94-5.22c-3-1.2-5.89-2.53-9.11-2.86-5.75-.59-11.27-2.25-16.89-3.46-3.73-.81-7.56-1.18-11.35-1.72-1.31-.19-3.81,2.88-3.26,4,1.38,2.87,2.62,5.83,4.23,8.57,4.53,7.72,9.24,15.34,13.81,23a53.34,53.34,0,0,1,2.5,5.16,8.77,8.77,0,0,1,.45,1.85,5.21,5.21,0,0,1-.69,3.61c-.71,1.27-1.67,1.55-3.2,1.42-3.92-.34-7.26-2.38-10.94-3.41-2.62-.73-5.36.26-6.18,2.72-1.1,3.29-2.82,5.74-6.54,5.92-12.81.65-25.37,3.06-38,5.31a4.34,4.34,0,0,0-2.79,2.35,25.24,25.24,0,0,1-3.37,6.8,4.78,4.78,0,0,0,.92,6.71c7.41,6.17,15.68,11,24,15.84A28.56,28.56,0,0,0,799,231.93a18.13,18.13,0,0,1,3.73.82,4.55,4.55,0,0,1,3.4,4.11c.23,4.14,1.79,7.34,5.82,9.06a16.88,16.88,0,0,1,3.18,2.05c1.71,1.28,2,5.11.83,7.05a13.08,13.08,0,0,1-4,4.06A231.61,231.61,0,0,0,786.2,279c-.88.79-1.23,2.17-1.75,3.31a2.65,2.65,0,0,0,.89,3.45c1,.76,2,1.8,3.13,2,5,1.07,10.11,1.62,15.06,2.87,6.22,1.58,12.56,2.35,18.86,3.43a21.24,21.24,0,0,0,13.14-1.67c8.06-4,16.8-6.12,25.05-9.55a16.14,16.14,0,0,1,9.43-.65c5.64,1.09,11.2,2.56,16.78,3.9,1.35.33,3.19,3.06,3,4.49-.77,7-1.27,14-2.4,20.92-4,24.61-8.29,49.19-12.37,73.79-4.6,27.75-9.06,55.53-13.65,83.29-2.09,12.62-4.47,25.19-6.47,37.82-3,18.95-7.17,37.7-9.66,56.74-1.07,8.24-2,16.54-3.8,24.63-4.18,18.75-5.9,37.91-9.84,56.69-.2,7.74-2.85,15.08-3.76,22.66-1.13,9.55-3.22,18.89-5,28.3a2.83,2.83,0,0,1-.85,1.68,2,2,0,0,1-1.74.14c-1.13-.47-2.67-.91-3.14-1.82a393.54,393.54,0,0,0-25.27-43c-10.5-15.3-20-31.22-29.51-47.16a381.69,381.69,0,0,1-27.41-57c-4.18-10.72-7.57-21.72-10.75-32.79-.18-.61-.21-1.26-.35-1.88-.61-2.71,1-5.59,3.09-6.26,7.94-2.52,15.72-5.4,22.32-10.73,4-3.22,8.15-6.2,12-9.58C768,481.2,774.6,475.2,781,468.94q13.72-13.4,27-27.25a7,7,0,0,0,1.61-7.16c-.86-2.4-1.79-4.79-2.83-7.12-3.38-7.58-6.83-15.13-10.23-22.71a6.39,6.39,0,0,1,.34-5.57,45.91,45.91,0,0,1,5-8.14c4.42-5.47,9-10.79,13.74-16A115.89,115.89,0,0,0,829,356.3a44.73,44.73,0,0,0,6.17-29.48,17.88,17.88,0,0,0-3.47-8.83,51.79,51.79,0,0,0-5.13-5.65,16.27,16.27,0,0,0-10.33-4.54,46.43,46.43,0,0,0-7.64.15,11.79,11.79,0,0,0-9.34,6c-2.57,4.4-4.77,9-7.14,13.55-.84,1.61-2.74,1.88-4.88.65s-4-3.1-6.6-3.78c-2.08-.55-5.64.38-7,2a13.24,13.24,0,0,0-3.3,6.77,33.41,33.41,0,0,0,.07,11.46c.59,3.14,1.38,6.24,2.1,9.36,1,4.61.86,8.81-3.14,12.21a36.94,36.94,0,0,0-5.18,5.63c-7.41,9.62-14.72,19.33-22.12,29q-8.76,11.43-17.64,22.74a54.44,54.44,0,0,1-5.13,5.7,8.66,8.66,0,0,1-8.88,2,46.93,46.93,0,0,1-15.21-8,23.25,23.25,0,0,1-5.91-7.47A62.09,62.09,0,0,0,676,399.42a38.55,38.55,0,0,0-16.71-9.07c-4.94-1.21-10.23-1.08-15.1-2.49-5.48-1.57-10.6-4.35-16-6.31-3-1.09-6.21-1.51-9.28-2.4a14.82,14.82,0,0,1-3.34-1.75c-1.28-.76-1.46-1.94-.32-3.16a41.6,41.6,0,0,1,4.19-3.89,121.52,121.52,0,0,0,17.93-17.27,95,95,0,0,0,19.82-39c3.22-13.69,5.23-27.69,1.8-41.82-.6-2.47-.58-5.08-1-7.6a34.46,34.46,0,0,0-1.38-5.58c-4.48-12.77-11.23-24.35-18.91-35.42a28.67,28.67,0,0,0-2.49-2.92c-8.73-9.51-18.49-17.66-30.49-22.8-2.35-1-4.62-2.24-7-3-5.46-1.79-10.9-3.84-16.51-4.93-9.44-1.83-19.09-1.65-28.69-1.69-28,2.82-51.59,13.94-69.12,36.56-.78,1-1.54,2-2.32,3-10.32,13.42-17.55,28.17-19.45,45.21-2.45,7.52-1.76,15.21-1,22.85.49,5.09,1.29,10.16,2.22,15.18a71.38,71.38,0,0,0,8.57,23.31c6.85,11.61,14.71,22.48,25.22,31.17,3.44,2.84,6.79,5.79,10.13,8.75.44.39.93,1.34.74,1.69-.53,1-1.22,2.46-2.14,2.73-13.48,4-26.59,9.12-40.58,11.35A36.78,36.78,0,0,0,442,403.35c-1.64,2-3.32,3.89-4.83,5.95-1.89,2.58-3.61,5.28-5.4,7.93a28.65,28.65,0,0,1-9.85,8.95c-2.79,1.56-5.66,3-8.57,4.29a15.33,15.33,0,0,1-3.71.88,8.3,8.3,0,0,1-7.08-2.11,30.6,30.6,0,0,1-3.86-4.25c-8.75-11-17.26-22.24-26.24-33.07-7.76-9.37-14.66-19.37-22-29.07-1.62-2.15-1.82-4.75-1.77-7.32a50.08,50.08,0,0,1,.55-5.72c.5-3.8,1.26-7.58,1.52-11.39a37.59,37.59,0,0,0-.53-7.62c-.59-4.31-6.33-7.13-10.4-5.12-1.71.84-3.29,2-4.95,2.91-1.42.81-3.86,0-4.82-1.67-2.6-4.39-5-8.88-7.83-13.14a12.71,12.71,0,0,0-5.78-4.89c-7.28-2.94-18.06-1.8-24.11,6.53a30.53,30.53,0,0,0-6.27,17.79,41.26,41.26,0,0,0,1.82,13.24,67.89,67.89,0,0,0,15.19,26.37c4.8,5.14,9.54,10.34,14.27,15.55,8.69,9.57,9.29,12.87,4.44,24-1,2.35-2.13,4.66-3.14,7-2,4.7-4.14,9.36-6,14.13a7.6,7.6,0,0,0,.89,7.3,90.62,90.62,0,0,0,12.46,14.51c9.84,9.14,19.45,18.53,29.34,27.62,7.06,6.49,14.48,12.56,22.94,17.27a80.09,80.09,0,0,1,9.39,6.54c1.61,1.24,1.93,3.25,1.82,5.2a13.58,13.58,0,0,1-.69,3.75c-7.54,21.17-18.05,40.92-28.85,60.53-.62,1.12-1.32,2.2-2,3.26-5.64,8.54-11.31,17-17.44,25.27-9.18,12.31-18.95,24.15-28.67,36-5.27,6.43-10.51,12.89-15.52,19.52-10.49,13.87-18.36,29.19-24.64,45.37-4,10.21-6,20.88-7.66,31.62a33.89,33.89,0,0,0-.17,7.67c.71,9.66,2.86,19,7.52,27.54a81,81,0,0,0,12.37,17c8.93,9.51,19.72,16.15,31.46,21.46,2.61,1.18,6.82-1.69,6.85-4.66,0-1.27.08-2.54.06-3.81-.11-8.31-.41-16.63-.27-24.94.06-3.79.95-7.58,1.58-11.36a7,7,0,0,1,3-4.69,97,97,0,0,1,22.28-11c5.41-1.87,10.89-3.7,16.67-4.33,13.5-1.48,26.7-1.12,39.68,3.84,12.54,4.8,25.45,8.55,39,9.62a17.36,17.36,0,0,1,1.86.45c1.15.21,3.42,2.89,3.66,4.13a40.09,40.09,0,0,1,0,13.34c-.4,2.81-3.71,5.73-6.73,5.85-3.19.13-6.39.28-9.58.29-12.79,0-25.59,0-38.38.05-3.83,0-7.67.17-11.49.43a8.29,8.29,0,0,0-6.31,3.83c-1.11,1.56-2.26,3.11-3.23,4.75-3.26,5.5-6.45,11-9.68,16.57-6.45,11-12.83,22.13-19.39,33.11a32.92,32.92,0,0,0-5,18.15c.27,12.15.11,24.31.07,36.47,0,3.83-.21,7.66-.4,11.49a6.37,6.37,0,0,1-6.41,5.82c-3.19.13-6.38.27-9.58.28q-28.78,0-57.57,0c-5.11,0-10.23.06-15.34.18a19.91,19.91,0,0,0-3.74.64,2.57,2.57,0,0,0-2.32,2.38c-.16,1.56,1.59,4,3.07,4.08,1.91.15,3.82.45,5.73.44,12.79-.1,25.59-.36,38.38-.38,13.43,0,26.86.13,40.29.26a27.74,27.74,0,0,1,3.78.6c1.21.18,3.45,2.72,3.5,4.1.2,6.38.36,12.77.59,19.15.12,3.19.33,6.37.53,9.56.14,2.27,2.7,4.94,4.91,5.06,4.45.24,8.92.58,13.38.58,29.42,0,58.84-.13,88.27-.14q160.23,0,320.46,0c1.92,0,3.84,0,5.75-.09.63,0,1.25-.26,1.89-.31,2.27-.16,5-2.71,5-4.91.22-7,.39-14,.58-21.07.05-1.91.13-3.83.21-5.75a6.52,6.52,0,0,1,6-6.27c7.66-.25,15.32-.51,23-.52,19.19,0,38.38.09,57.57.08a38.47,38.47,0,0,0,7.56-.76c1.29-.26,1.89-1.59,2.35-2.72.66-1.57.33-2.55-1.23-3a14.71,14.71,0,0,0-3.62-1c-9-.12-17.9-.14-26.86-.17-7,0-14.07,0-21.11-.08a51.88,51.88,0,0,1-5.65-.7c-1.45-.19-3.3-2.64-3.28-4.22.13-12.21,2.81-24.11,4.78-36.06,2.4-14.5,4.55-29.06,7.34-43.49,1.94-10.06,3.18-20.2,4.94-30.28Q837.4,772.42,842,745q1.92-11.34,3.75-22.71c1.83-11.36,3.55-22.74,5.46-34.08,2-12,4.24-23.92,6.33-35.89,1.32-7.55,2.68-15.1,3.8-22.69,3.38-22.76,6.78-45.52,11-68.15,1.41-7.54,3-15.08,3.84-22.7,2.22-19.71,6.42-39.11,9.39-58.7,2.29-15.16,5.16-30.25,7.43-45.43,1.33-8.85,2.49-17.74,4.23-26.51,3.85-19.45,6.33-39.13,9.8-58.64q2.52-14.14,4.3-28.43c1-8.28,3-16.34,4.84-24.44.28-1.2,3.16-3.17,4.49-3.07.62.05,1.28-.18,1.89-.07,9.42,1.75,18.83,3.5,28.24,5.34a27.84,27.84,0,0,1,3.53,1.44,3.66,3.66,0,0,1,2.51,2.7c2,7.6,2.31,15.09-1.15,22.44a9.62,9.62,0,0,0,.56,9.18,6.42,6.42,0,0,1,.14,5.5c-.64,1.9-.81,4.08,1,5.2,7,4.45,8.95,10.42,6.09,18.11a10.38,10.38,0,0,0-.37,1.86,9.09,9.09,0,0,0,1,5.57,16.93,16.93,0,0,0,9.4,9.07,3.59,3.59,0,0,0,1.81.3,3.91,3.91,0,0,0,1.67-.9c2.95-2.38,5.57-5.39,9.93-5a4.53,4.53,0,0,0,1.86-.45,3.17,3.17,0,0,0,2.34-2.48,2.67,2.67,0,0,0-1.8-3.09,33,33,0,0,1-16.44-12.43c-.94-1.29-.11-4,1.58-4.73a12,12,0,0,1,1.9-.49q1.77,2.7,3.53,5.4c1.88,1.51,3.73,3.06,5.66,4.49a1.79,1.79,0,0,0,1.62.12c1-.57,1.16-1.74.27-2.83C985,354.92,983.91,354.72,979.68,356.44Z"/><path d="M976.28,350.65a10.56,10.56,0,0,0-1.86.47c-1.69.78-2.52,3.44-1.58,4.73a33,33,0,0,0,16.44,12.43,2.67,2.67,0,0,1,1.8,3.09,3.17,3.17,0,0,1-2.34,2.48,4.53,4.53,0,0,1-1.86.45c-4.36-.4-7,2.61-9.93,5a3.91,3.91,0,0,1-1.67.9,3.59,3.59,0,0,1-1.81-.3,16.93,16.93,0,0,1-9.4-9.07,9.09,9.09,0,0,1-1-5.57,10.38,10.38,0,0,1,.37-1.86c2.86-7.69.92-13.66-6.09-18.11-1.77-1.12-1.6-3.3-1-5.2a6.42,6.42,0,0,0-.14-5.5,9.62,9.62,0,0,1-.56-9.18c3.46-7.35,3.15-14.84,1.15-22.44a3.66,3.66,0,0,0-2.51-2.7,27.84,27.84,0,0,0-3.53-1.44c-9.41-1.84-18.82-3.59-28.24-5.34-.61-.11-1.27.12-1.89.07-1.33-.1-4.21,1.87-4.49,3.07-1.84,8.1-3.81,16.16-4.84,24.44q-1.77,14.26-4.3,28.43c-3.47,19.51-5.95,39.19-9.8,58.64-1.74,8.77-2.9,17.66-4.23,26.51-2.27,15.18-5.14,30.27-7.43,45.43-3,19.59-7.17,39-9.39,58.7-.86,7.62-2.43,15.16-3.84,22.7-4.23,22.63-7.63,45.39-11,68.15-1.12,7.59-2.48,15.14-3.8,22.69-2.09,12-4.31,23.91-6.33,35.89-1.91,11.34-3.63,22.72-5.46,34.08Q843.92,733.65,842,745q-4.65,27.42-9.36,54.83c-1.76,10.08-3,20.22-4.94,30.28-2.79,14.43-4.94,29-7.34,43.49-2,11.95-4.65,23.85-4.78,36.06,0,1.58,1.83,4,3.28,4.22a51.88,51.88,0,0,0,5.65.7c7,.1,14.08,0,21.11.08,9,0,17.91.05,26.86.17a14.71,14.71,0,0,1,3.62,1c1.56.45,1.89,1.43,1.23,3-.46,1.13-1.06,2.46-2.35,2.72a38.47,38.47,0,0,1-7.56.76c-19.19,0-38.38-.12-57.57-.08-7.67,0-15.33.27-23,.52a6.52,6.52,0,0,0-6,6.27c-.08,1.92-.16,3.84-.21,5.75-.19,7-.36,14-.58,21.07-.07,2.2-2.77,4.75-5,4.91-.64,0-1.26.29-1.89.31-1.91.07-3.83.08-5.75.09q-160.23,0-320.46,0c-29.43,0-58.85.13-88.27.14-4.46,0-8.93-.34-13.38-.58-2.21-.12-4.77-2.79-4.91-5.06-.2-3.19-.41-6.37-.53-9.56-.23-6.38-.39-12.77-.59-19.15,0-1.38-2.29-3.92-3.5-4.1a27.74,27.74,0,0,0-3.78-.6c-13.43-.13-26.86-.29-40.29-.26-12.79,0-25.59.28-38.38.38-1.91,0-3.82-.29-5.73-.44-1.48-.11-3.23-2.52-3.07-4.08a2.57,2.57,0,0,1,2.32-2.38,19.91,19.91,0,0,1,3.74-.64c5.11-.12,10.23-.17,15.34-.18q28.79,0,57.57,0c3.2,0,6.39-.15,9.58-.28a6.37,6.37,0,0,0,6.41-5.82c.19-3.83.38-7.66.4-11.49,0-12.16.2-24.32-.07-36.47a32.92,32.92,0,0,1,5-18.15c6.56-11,12.94-22.07,19.39-33.11,3.23-5.52,6.42-11.07,9.68-16.57,1-1.64,2.12-3.19,3.23-4.75a8.29,8.29,0,0,1,6.31-3.83c3.82-.26,7.66-.42,11.49-.43,12.79-.06,25.59,0,38.38-.05,3.19,0,6.39-.16,9.58-.29,3-.12,6.33-3,6.73-5.85a40.09,40.09,0,0,0,0-13.34c-.24-1.24-2.51-3.92-3.66-4.13a17.36,17.36,0,0,0-1.86-.45c-13.52-1.07-26.43-4.82-39-9.62-13-5-26.18-5.32-39.68-3.84-5.78.63-11.26,2.46-16.67,4.33a97,97,0,0,0-22.28,11,7,7,0,0,0-3,4.69c-.63,3.78-1.52,7.57-1.58,11.36-.14,8.31.16,16.63.27,24.94,0,1.27,0,2.54-.06,3.81,0,3-4.24,5.84-6.85,4.66-11.74-5.31-22.53-12-31.46-21.46a81,81,0,0,1-12.37-17c-4.66-8.57-6.81-17.88-7.52-27.54a33.89,33.89,0,0,1,.17-7.67c1.68-10.74,3.7-21.41,7.66-31.62,6.28-16.18,14.15-31.5,24.64-45.37,5-6.63,10.25-13.09,15.52-19.52,9.72-11.88,19.49-23.72,28.67-36,6.13-8.22,11.8-16.73,17.44-25.27.7-1.06,1.4-2.14,2-3.26,10.8-19.61,21.31-39.36,28.85-60.53a13.58,13.58,0,0,0,.69-3.75c.11-1.95-.21-4-1.82-5.2a80.09,80.09,0,0,0-9.39-6.54c-8.46-4.71-15.88-10.78-22.94-17.27-9.89-9.09-19.5-18.48-29.34-27.62a90.62,90.62,0,0,1-12.46-14.51,7.6,7.6,0,0,1-.89-7.3c1.84-4.77,4-9.43,6-14.13,1-2.34,2.11-4.65,3.14-7,4.85-11.15,4.25-14.45-4.44-24-4.73-5.21-9.47-10.41-14.27-15.55a67.89,67.89,0,0,1-15.19-26.37,41.26,41.26,0,0,1-1.82-13.24,30.53,30.53,0,0,1,6.27-17.79c6.05-8.33,16.83-9.47,24.11-6.53a12.71,12.71,0,0,1,5.78,4.89c2.79,4.26,5.23,8.75,7.83,13.14,1,1.62,3.4,2.48,4.82,1.67,1.66-.95,3.24-2.07,4.95-2.91,4.07-2,9.81.81,10.4,5.12a37.59,37.59,0,0,1,.53,7.62c-.26,3.81-1,7.59-1.52,11.39a50.08,50.08,0,0,0-.55,5.72c-.05,2.57.15,5.17,1.77,7.32,7.31,9.7,14.21,19.7,22,29.07,9,10.83,17.49,22,26.24,33.07a30.6,30.6,0,0,0,3.86,4.25,8.3,8.3,0,0,0,7.08,2.11,15.33,15.33,0,0,0,3.71-.88c2.91-1.32,5.78-2.73,8.57-4.29a28.65,28.65,0,0,0,9.85-8.95c1.79-2.65,3.51-5.35,5.4-7.93,1.51-2.06,3.19-4,4.83-5.95a36.78,36.78,0,0,1,22.74-13.22c14-2.23,27.1-7.39,40.58-11.35.92-.27,1.61-1.7,2.14-2.73.19-.35-.3-1.3-.74-1.69-3.34-3-6.69-5.91-10.13-8.75-10.51-8.69-18.37-19.56-25.22-31.17a71.38,71.38,0,0,1-8.57-23.31c-.93-5-1.73-10.09-2.22-15.18-.73-7.64-1.42-15.33,1-22.85,1.9-17,9.13-31.79,19.45-45.21.78-1,1.54-2,2.32-3,17.53-22.62,41.14-33.74,69.12-36.56,9.6,0,19.25-.14,28.69,1.69,5.61,1.09,11,3.14,16.51,4.93,2.42.79,4.69,2,7,3,12,5.14,21.76,13.29,30.49,22.8a28.67,28.67,0,0,1,2.49,2.92c7.68,11.07,14.43,22.65,18.91,35.42a34.46,34.46,0,0,1,1.38,5.58c.43,2.52.41,5.13,1,7.6,3.43,14.13,1.42,28.13-1.8,41.82a95,95,0,0,1-19.82,39,121.52,121.52,0,0,1-17.93,17.27,41.6,41.6,0,0,0-4.19,3.89c-1.14,1.22-1,2.4.32,3.16a14.82,14.82,0,0,0,3.34,1.75c3.07.89,6.3,1.31,9.28,2.4,5.39,2,10.51,4.74,16,6.31,4.87,1.41,10.16,1.28,15.1,2.49A38.55,38.55,0,0,1,676,399.42a62.09,62.09,0,0,1,13.24,16.31,23.25,23.25,0,0,0,5.91,7.47,46.93,46.93,0,0,0,15.21,8,8.66,8.66,0,0,0,8.88-2,54.44,54.44,0,0,0,5.13-5.7q8.9-11.31,17.64-22.74c7.4-9.63,14.71-19.34,22.12-29a36.94,36.94,0,0,1,5.18-5.63c4-3.4,4.19-7.6,3.14-12.21-.72-3.12-1.51-6.22-2.1-9.36a33.41,33.41,0,0,1-.07-11.46,13.24,13.24,0,0,1,3.3-6.77c1.38-1.58,4.94-2.51,7-2,2.57.68,4.4,2.53,6.6,3.78s4,1,4.88-.65c2.37-4.53,4.57-9.15,7.14-13.55a11.79,11.79,0,0,1,9.34-6,46.43,46.43,0,0,1,7.64-.15,16.27,16.27,0,0,1,10.33,4.54,51.79,51.79,0,0,1,5.13,5.65,17.88,17.88,0,0,1,3.47,8.83A44.73,44.73,0,0,1,829,356.3,115.89,115.89,0,0,1,815.59,375c-4.7,5.23-9.32,10.55-13.74,16a45.91,45.91,0,0,0-5,8.14,6.39,6.39,0,0,0-.34,5.57c3.4,7.58,6.85,15.13,10.23,22.71,1,2.33,2,4.72,2.83,7.12a7,7,0,0,1-1.61,7.16q-13.29,13.83-27,27.25c-6.4,6.26-13,12.26-19.75,18.19-3.83,3.38-8,6.36-12,9.58-6.6,5.33-14.38,8.21-22.32,10.73-2.1.67-3.7,3.55-3.09,6.26.14.62.17,1.27.35,1.88,3.18,11.07,6.57,22.07,10.75,32.79a381.69,381.69,0,0,0,27.41,57c9.5,15.94,19,31.86,29.51,47.16a393.54,393.54,0,0,1,25.27,43c.47.91,2,1.35,3.14,1.82a2,2,0,0,0,1.74-.14,2.83,2.83,0,0,0,.85-1.68c1.77-9.41,3.86-18.75,5-28.3.91-7.58,3.56-14.92,3.76-22.66,3.94-18.78,5.66-37.94,9.84-56.69,1.81-8.09,2.73-16.39,3.8-24.63,2.49-19,6.65-37.79,9.66-56.74,2-12.63,4.38-25.2,6.47-37.82,4.59-27.76,9.05-55.54,13.65-83.29,4.08-24.6,8.36-49.18,12.37-73.79,1.13-6.92,1.63-13.94,2.4-20.92.16-1.43-1.68-4.16-3-4.49-5.58-1.34-11.14-2.81-16.78-3.9a16.14,16.14,0,0,0-9.43.65c-8.25,3.43-17,5.54-25.05,9.55a21.24,21.24,0,0,1-13.14,1.67c-6.3-1.08-12.64-1.85-18.86-3.43-4.95-1.25-10.06-1.8-15.06-2.87-1.14-.24-2.14-1.28-3.13-2a2.65,2.65,0,0,1-.89-3.45c.52-1.14.87-2.52,1.75-3.31A231.61,231.61,0,0,1,812,259.08a13.08,13.08,0,0,0,4-4.06c1.18-1.94.88-5.77-.83-7.05a16.88,16.88,0,0,0-3.18-2.05c-4-1.72-5.59-4.92-5.82-9.06a4.55,4.55,0,0,0-3.4-4.11,18.13,18.13,0,0,0-3.73-.82,28.56,28.56,0,0,1-10.83-3.69c-8.3-4.8-16.57-9.67-24-15.84a4.78,4.78,0,0,1-.92-6.71,25.24,25.24,0,0,0,3.37-6.8,4.34,4.34,0,0,1,2.79-2.35c12.59-2.25,25.15-4.66,38-5.31,3.72-.18,5.44-2.63,6.54-5.92.82-2.46,3.56-3.45,6.18-2.72,3.68,1,7,3.07,10.94,3.41,1.53.13,2.49-.15,3.2-1.42a5.21,5.21,0,0,0,.69-3.61,8.77,8.77,0,0,0-.45-1.85A53.34,53.34,0,0,0,832,174c-4.57-7.69-9.28-15.31-13.81-23-1.61-2.74-2.85-5.7-4.23-8.57-.55-1.14,1.95-4.21,3.26-4,3.79.54,7.62.91,11.35,1.72,5.62,1.21,11.14,2.87,16.89,3.46,3.22.33,6.15,1.66,9.11,2.86a21.22,21.22,0,0,1,7.94,5.22c3.45,3.78,6.92,7.55,10.24,11.44a28.77,28.77,0,0,0,16.18,9.58c2.5.56,5,1.13,7.49,1.67,4.38.94,8.74,2,13.14,2.77,10.69,2,21.5,3.4,32.05,5.95s21.28,4.36,31.91,6.54c6.27,1.27,12.43,3.08,18.71,4.22,6,1.1,10.36,4.33,14.27,8.9,13.3,15.55,26.85,30.89,39.89,46.66,3.26,3.94,6.74,7.71,9.34,12.16.92,1.58.61,4.26-.8,5.08-2.2,1.29-4.35,2.68-6.63,3.81-22.36,11-45,21.41-67.85,31.41a6.24,6.24,0,0,0-3.6,4.19,31.28,31.28,0,0,0-.73,3.74c-.18,1.26.07,2.69-.44,3.79-3.08,6.66-2.75,13.67-2.48,20.72.15,3.91,1.63,7.46,2.47,11.19.4,1.8.06,3.77.08,5.66C975.76,351.07,976.28,350.65,976.28,350.65ZM449,415.17c.86-.9,1.55-2.13,2.6-2.66A28.84,28.84,0,0,1,472,409.94c6.16,1.55,12.34,3,18.39,5.13,11.43,4,23.06,7.34,34.6,11a64.14,64.14,0,0,0,13.1,2.53c2.46.25,4.66-2,4.64-4.72a9.67,9.67,0,0,0-1.54-5.43q-8-11.87-16.28-23.59a14.19,14.19,0,0,0-6.07-4.52,35.41,35.41,0,0,0-11-2.94,11.12,11.12,0,0,0-7.32,1.6c-1.39.9-1.64,2-.82,2.93,2.89,3.41,7.61,4.82,9.84,8.9.72,1.32.3,2.68-.8,3.08a8,8,0,0,1-3.67.47c-4.49-.71-8.2-3.4-12.28-5.16A38.42,38.42,0,0,0,448.87,408a3.59,3.59,0,0,0-.87,3.51c.31,1.22.76,2.41,1.11,3.61a9.51,9.51,0,0,1-1.07-.93,2.26,2.26,0,0,1-.32-.76Zm153.91-27.95c0,1.45-.77,2.29-2.15,2.21a1.56,1.56,0,0,1-1.12-1,1.83,1.83,0,0,1,.67-1.43c1.11-.87,2.1-.58,2.82.67a9.32,9.32,0,0,1-3,4.71c-2.57,1.91-5,4.05-6.28,7-2.65,5.79-6.27,11-9.5,16.42a40.06,40.06,0,0,0-2.57,5.06,8.46,8.46,0,0,0,.3,7.3,3.18,3.18,0,0,0,3.05,1.84,121.29,121.29,0,0,0,31-8.26c6.42-2.66,12.66-5.85,19.2-8.17,11.47-4.07,15.6-6.9,31.41-5.27a34,34,0,0,0,3.77-.08c2,0,3.52-1.28,5.11-2.16l-.57.94,1-.57a52.31,52.31,0,0,1-5.19-2.13c-2.76-1.49-5.27-3.53-8.14-4.74-11.6-4.88-23.22-5.06-34.8.29-3.41,1.58-6.28,4.24-10.15,4.89a3.84,3.84,0,0,1-3.56-.76c-1.18-1.12-1-4,.27-5,.48-.39.86-.92,1.37-1.27,2.6-1.76,5.25-3.47,7.86-5.22,1.62-1.09,1-2.87-1.19-4-5.31-2.76-10.62-3.84-16.19-.65C605.27,388.4,604,388,602.87,387.22ZM338.1,341.85c-.32.56-.6,1.14-1,1.66a10.44,10.44,0,0,1-1.22,1.44c-1.78,1.75-5.5,1.58-6.73-.15-4.1-5.77-6.37-12.47-9.7-18.62a62,62,0,0,0-5.16-8,6.35,6.35,0,0,0-3.27-1.78,10.05,10.05,0,0,0-9,2c-6.17,4.63-8.56,11-7.45,18.51,1.45,9.7,5.86,18.21,11.91,25.75,6.77,8.45,14,16.5,21.09,24.72a10.71,10.71,0,0,0,1.4,1.29c2.14,1.77,5.31,1.46,6.43-1,2.1-4.64,4.17-9.3,6.14-14a10.38,10.38,0,0,0,.34-7.46A27.57,27.57,0,0,1,340,356.9c0-2.55.17-5.1.13-7.65a14.36,14.36,0,0,0-2.44-7.09l1.34.4ZM570.26,798.69c17.66-.86,35.54-1.55,53.1-5.61,9.34-2.16,18.82-3.69,28.22-5.55,1.25-.25,2.45-.75,3.67-1.11,4.34-1.29,6.48-4,6.55-8.21a158.75,158.75,0,0,0-1.58-26.78c-1.18-7.61-1.66-15.26-2.21-22.92q-2.13-29.65-4.36-59.31c-.24-3.19-.74-6.35-1.07-9.53s-.66-6.36-.91-9.55c-1.49-19.12-2.09-38.31-4.55-57.36-.24-1.9-.17-3.83-.33-5.74q-1.1-13.39-2.24-26.77c-.32-3.83-.79-7.64-.91-11.47-.44-14.08-1.67-28.1-3.18-42.09a260.88,260.88,0,0,1-1.07-26.81,15.24,15.24,0,0,1,.39-1.85c.15-1.36,2.92-3.39,4.2-3.3a25.31,25.31,0,0,1,9.1,2.84c15.07,7.14,30.79,12.48,46.75,17.19a112.47,112.47,0,0,0,13,3.18c9.73,1.65,19,.91,27.31-5.43,6.11-4.64,12.38-9,18.16-14.11,9.62-8.45,18.71-17.46,28-26.25,3.71-3.51,7.06-7.4,10.53-11.16a26.37,26.37,0,0,0,2.33-3,5.41,5.41,0,0,0,.59-5.47c-3.42-6.86-7.15-13.56-10.68-20.37-4.11-7.95-8.1-16-12.19-23.92-.88-1.7-2-3.28-3-4.91-1.64-2.68-4.35-3.11-6.2-.88-4.06,4.92-8.15,9.83-12,14.9-6.22,8.12-12.27,16.38-18.42,24.56a97.11,97.11,0,0,1-15.62,16.85c-2.55,2.1-5.37,3.44-8.82,2.37-4.26-1.33-8.6-2.37-12.56-4.63-5-2.85-10.25-5.26-15.22-8.14a203.11,203.11,0,0,0-22.41-10.89,17.14,17.14,0,0,0-11.25-.68,91.16,91.16,0,0,0-16.13,6.07c-14.61,6.71-29.66,11.85-45.79,13.42a21.2,21.2,0,0,0-12,5.47,83.06,83.06,0,0,1-7.66,5.74q-8.41,5.78-16,.09c-3.06-2.31-6-4.78-9-7.18a21.69,21.69,0,0,0-10.32-4.78,151.66,151.66,0,0,1-20.59-4.6c-9.18-2.73-18.31-5.67-27.4-8.73-22.29-7.51-17-7.39-38.07,1.63-4.11,1.76-8.08,3.83-12.11,5.78-4.61,2.22-9.26,4.35-13.8,6.71s-9.67,3.33-14.68,4.26a9.16,9.16,0,0,1-7.22-1.91,33.35,33.35,0,0,1-5.7-5.09q-11.64-14-23-28.25c-5.61-7-11.07-14.08-16.66-21.08a7.26,7.26,0,0,0-2.89-2.42,4.19,4.19,0,0,0-3.49.26c-3,2.52-4.39,6.2-6.14,9.61-6.13,11.93-11,24.51-18.56,35.71a18.13,18.13,0,0,0-1.51,3.52c-1.32,3.25-.59,6.25,1.24,9.06a21.62,21.62,0,0,0,2.28,3.07c14.59,15.28,29.75,29.94,46.36,43.06A104.17,104.17,0,0,0,392,498.36a16.34,16.34,0,0,0,11.19,1.41c6.21-1.51,12.4-3.14,18.48-5.09,15.82-5.08,31.67-10.08,47-16.69a40.29,40.29,0,0,1,7.4-1.86c1.89-.41,5.21,2.49,5.31,4.51a174.52,174.52,0,0,1-.74,23c-1.34,16.58-2.69,33.15-3.51,49.76-.13,2.55-.3,5.11-.65,7.64a345,345,0,0,0-2.74,34.42,130.06,130.06,0,0,1-1,13.39c-2.62,19-3.64,38.2-5.31,57.31-1.34,15.29-1.78,30.65-3.92,45.87a72.58,72.58,0,0,0-.62,7.65c-.42,12.8-1.66,25.52-3.34,38.22-.93,6.94-.86,14-1.14,21-.13,3.28,1.89,5.68,5.48,6.8,2.44.76,4.86,1.6,7.36,2.14,6.87,1.48,13.77,2.84,20.66,4.2,11.29,2.23,22.55,4.69,34.15,4.73a40,40,0,0,1,7.63.75c6.33,1.24,12.73,1.12,19.12,1.13Zm-10.14,155v-.14q74.85,0,149.7,0,24.95,0,49.9-.15c2.53,0,5-.52,7.58-.74,1.16-.11,3.58-2.67,3.9-3.86a36.23,36.23,0,0,0,.93-9.51q.09-33.6.14-67.19c0-1.92,0-3.84-.12-5.76-.06-1.27-.29-2.53-.41-3.81-.21-2.27-2.74-5-4.9-5.16-2.54-.21-5.08-.52-7.62-.52q-66.21,0-132.43.08-98.84,0-197.67,0c-23,0-46.06-.1-69.09-.13a23.28,23.28,0,0,0-7.59.79c-1.08.37-3.9,2.73-4,3.75a29.38,29.38,0,0,0-.56,3.79q0,40.3,0,80.62a8.9,8.9,0,0,0,.76,3.73,6,6,0,0,0,2.45,2.83,18.37,18.37,0,0,0,7.52,1.18c15.35.07,30.71.23,46.06.24Q482.4,953.77,560.12,953.73ZM379.59,735c5,1,9.38,1.9,13.79,2.65A56,56,0,0,1,408,741.84c8.16,3.82,17.1,5.18,25.77,7.31a33.63,33.63,0,0,0,13.34.46c1.37-.22,3.68-2.27,4-3.69.48-2.51,1.23-5,1.49-7.5q1-9.54,1.6-19.11c1.32-20.41,4.65-40.63,5.78-61.06,1.58-8.84,2-17.78,2.35-26.72.3-7,.42-14.09,1.28-21,1.58-12.7,2.25-25.46,3.06-38.22.28-4.46.6-8.93,1.26-13.35A243.07,243.07,0,0,0,470,534.08c.53-12.14,1.24-24.26,2.61-36.33a43.42,43.42,0,0,0-.07-5.7c0-1.3-2.81-3.66-4.14-3.41a42.35,42.35,0,0,0-7.42,1.58c-10.15,3.87-20.34,7.61-30.71,10.86a23.45,23.45,0,0,0-3.48,1.56,10.27,10.27,0,0,0-4.88,5.67,49,49,0,0,0-1.51,5.53c-2.06,8-3.82,16.18-6.24,24.11a394.31,394.31,0,0,1-24.46,60.3,374.85,374.85,0,0,1-20.88,36.62,256.11,256.11,0,0,0-18.3,33.64c-4.47,9.9-9.17,19.68-12.23,30.14-6.4,14.76-9.9,30.31-12.62,46.08a4,4,0,0,0,.18,1.84,2.47,2.47,0,0,0,2.8,2,12.92,12.92,0,0,0,3.61-1A117,117,0,0,1,367,737.19C371.42,736.6,375.8,735.69,379.59,735Zm272-446.09a112.23,112.23,0,0,0-2.32-22.2c-3.47-16.74-12-30.8-23-43.52-15.2-14.56-32.9-23.94-54-26.52a91.69,91.69,0,0,0-21,0,87.84,87.84,0,0,0-39.4,13.76,96.55,96.55,0,0,0-36.3,43.5,75,75,0,0,0-6.29,27.87,184.38,184.38,0,0,0,1.29,24.86,25.79,25.79,0,0,0,.75,3.76,95.16,95.16,0,0,0,20.29,38.64,98.2,98.2,0,0,0,31.92,24,81.44,81.44,0,0,0,33.22,8.23A97.41,97.41,0,0,0,585.07,378,79.13,79.13,0,0,0,620,358.86c2.78-2.64,5.47-5.38,8.14-8.13,8.62-8.87,14.25-19.6,18.46-31.05C650.12,310,651.5,299.87,651.58,288.93ZM647.43,492.5c.17,2,.21,5.17.75,8.3a147.19,147.19,0,0,1,1.72,19.08c.52,13.42,1.36,26.8,2.91,40.14.74,6.34.87,12.75,1.26,19.13.59,9.56,1.09,19.14,1.79,28.7.51,7,1.34,14,1.91,21,.78,9.53.37,19.17,3,28.52.51,1.81.3,3.81.43,5.72.94,14,1.85,28.06,4,42,.67,4.41.67,8.92,1,13.37.76,8.92,1.5,17.83,2.38,26.74a75,75,0,0,0,1.43,7.5c.42,2.09,3.26,4.16,5.69,4.35a33.91,33.91,0,0,0,13.26-1.35c7.28-2.38,14.5-4.95,21.73-7.49a200.7,200.7,0,0,1,27.58-7.93,55.52,55.52,0,0,1,22.82.13c5,1.09,9.9,2.43,14.85,3.65a3,3,0,0,0,3.47-3.38A178.1,178.1,0,0,0,768.62,704c-4.89-11.8-9.83-23.58-15.31-35.12-4.66-9.81-9.35-19.61-14.25-29.3A521.36,521.36,0,0,1,710,570.84c-2-6.05-3.83-12.19-5.44-18.36-3.38-13-6.53-26-9.87-39a74.8,74.8,0,0,0-3-9.08,6.4,6.4,0,0,0-2.53-2.78,36.91,36.91,0,0,0-6.83-3.41c-10.26-3.55-20.42-7.35-30.4-11.61-1.45-.62-4,1.14-4.06,2.78C647.84,490,647.7,490.64,647.43,492.5ZM563,849c5.9-.2,14.23-.11,22.49-.85a187.35,187.35,0,0,1,28.72-.26q16.28,1,32.57.78c6.39-.1,12.78,0,19.17,0q41.24.06,82.45.09c4.46,0,8.93.15,13.36-.74,2.23-.45,3.94-3.85,2.79-6-8.41-15.8-18.41-30.65-27.51-46a7.58,7.58,0,0,0-6.48-3.54c-14.05-.31-28.11-.61-42.16-.73-19.47-.16-19.48-.09-39.61,5.33-1.34.36-1.85,1.43-1.39,3a3,3,0,0,0,1,1.59c2.12,1.38,4.32,2.64,6.49,3.95a59.32,59.32,0,0,1,12.15,9.29,18,18,0,0,1,4.69,8.2,7.21,7.21,0,0,1-.89,5.5,8.75,8.75,0,0,1-6,4.42,71,71,0,0,1-17.15,1.27c-11.52-.58-22.86-2.56-34.13-4.84a64.3,64.3,0,0,1-10.91-3.54,15.58,15.58,0,0,1-4.69-3.22,11.88,11.88,0,0,1-3.7-6.56c-.34-1.87-.85-3.71-1.28-5.56-.34-1.45-2.64-3.11-4.36-3.11q-26.84-.07-53.66-.1a5.68,5.68,0,0,0-5.53,4.27c-.39,1.87-.77,3.75-1.12,5.64-.79,4.19-3.73,6.55-7.26,8.29a29.21,29.21,0,0,1-5.38,2c-16.1,4.37-32.43,7.08-49.18,6.46a39.16,39.16,0,0,1-5.71-.66,18.31,18.31,0,0,1-3.61-1.23,8.11,8.11,0,0,1-4.19-11.14,23.57,23.57,0,0,1,4.21-6.35,53.7,53.7,0,0,1,10.43-8.39c2.7-1.66,5.41-3.31,8.06-5.06a3.07,3.07,0,0,0,.93-1.57c.52-1.6-.08-2.49-1.64-2.82a78.71,78.71,0,0,1-9.32-2.13c-6.16-2.07-12.47-2.59-18.89-2.61-17.26,0-34.51-.22-51.77-.25a39.65,39.65,0,0,0-7.59.84,6.21,6.21,0,0,0-3.28,1.83,40.8,40.8,0,0,0-4.52,6.16c-4.89,8.24-9.67,16.55-14.46,24.85q-4.8,8.3-9.47,16.65a3.84,3.84,0,0,0-.07,1.89,3,3,0,0,0,2,2.91c6.84,2.06,13.93,1.44,20.91,1.5,30.68.24,61.35.28,92,.35,5.75,0,11.52.13,17.25-.26a418.65,418.65,0,0,1,59.37,0C551.66,848.84,556.14,848.8,563,849ZM989.37,214.22c.19-.88.65-2.74,1-4.63.2-1.24.09-2.53.23-3.79.16-1.41-1.68-3.89-3.22-4.3-19.13-5.16-38.72-8.09-58.05-12.28-17.46-3.78-35.13-6.56-52.62-10.25-8.1-1.7-16.39-2.5-24.61-3.64-2.84-.39-6.3,2.16-7.23,5.17a51.43,51.43,0,0,0-1.54,5.52c-1.06,5.64-1.9,11.33-3,17-3.41,17.55-6.79,35.11-9.72,52.75-.31,1.86-.33,3.77-.49,5.66-.11,1.33,1.79,4,3.15,4.37,10.53,2.62,21,5.59,31.61,7.74,33.16,6.7,66.38,13.1,99.59,19.58a21.54,21.54,0,0,0,5.69.54,4.91,4.91,0,0,0,3.22-1.78,13.08,13.08,0,0,0,2.47-5.1C980.34,262.92,984.75,239.07,989.37,214.22ZM272.93,742.77c0,.53-.06,4.37.3,8.17a48.6,48.6,0,0,0,9.6,24.7,82.4,82.4,0,0,0,19.11,18.62,47.8,47.8,0,0,0,5,2.72c2.51,1.33,5.79.06,6-2.3.18-2.54.5-5.08.5-7.61a186.58,186.58,0,0,1,2.36-30.51c.32-1.89.45-3.81.62-5.71,1.5-16.62,5.63-32.65,10.58-48.51,6.7-21.43,16.4-41.52,27.62-60.88,12.48-21.54,24.42-43.35,35.52-65.64a251.85,251.85,0,0,0,21.59-63.14,3.65,3.65,0,0,0-2.94-4.11,13.61,13.61,0,0,0-1.9-.2c-3.44.12-6.37,1.42-7.55,4.78-4,11.45-9.18,22.42-14.07,33.5-11.95,27-28,51.58-46,74.86q-10.54,13.62-21.88,26.62a246.64,246.64,0,0,0-20.57,27.61,184.69,184.69,0,0,0-15.54,28.55A97.25,97.25,0,0,0,272.93,742.77ZM707,506.63a3.5,3.5,0,0,0-3.58,3.6c.47,3.79.57,7.68,1.54,11.34,5.87,22.2,11.7,44.41,20.07,65.86a656.19,656.19,0,0,0,30.11,66.14,397.59,397.59,0,0,1,22,50.89c6,16.86,11.16,33.89,13.5,51.73.91,7,2,13.88,2.1,20.92,0,3.19.17,6.38.33,9.57.09,1.9.37,3.8.5,5.7.16,2.35,3.52,3.67,5.84,2.45,4.76-2.51,8.13-6,9.19-11.49.61-3.13,1.63-6.2,2-9.35,2-15.83,5-31.5,8-47.17a21.75,21.75,0,0,0-.83-11.33,84.85,84.85,0,0,0-6.12-14c-10-17.79-20.5-35.32-32-52.21a566,566,0,0,1-38.41-66.14c-9.4-18.88-17.46-38.28-22.73-58.77a103.78,103.78,0,0,0-4.15-12.72A7.94,7.94,0,0,0,707,506.63ZM704.38,783.5c12,.21,21.54.3,31.12.59a7.47,7.47,0,0,1,6.45,3.49c7.76,12.48,15.58,24.93,23.31,37.44,3.35,5.44,6.22,11.21,9.86,16.44a32.48,32.48,0,0,1,5.71,21.75c-.23,3.18,0,6.39-.06,9.59,0,10.87-.14,21.75-.11,32.62a37.47,37.47,0,0,0,.89,5.6c.26,1.62,1.17,2.09,2.78,2a3.23,3.23,0,0,0,3.09-1.66,12.76,12.76,0,0,0,1.26-3.55q6.86-41.62,13.62-83.26c.51-3.15,1.08-6.3,1.49-9.47a32.32,32.32,0,0,0,.28-5.73c-.07-1.22-.33-2.82-1.14-3.5s-2.35-.38-3.46-.07a15.46,15.46,0,0,0-3.37,1.8c-1.1.65-2.15,1.38-3.28,2-4.35,2.38-8.08.63-8.07-3.81,0-6.39.24-12.79.13-19.18q-.15-8.62-.89-17.23a39.46,39.46,0,0,0-1.74-7.43,11.62,11.62,0,0,0-4.47-6.06,32.55,32.55,0,0,0-10.26-5.1c-3.67-1.07-7.42-1.94-11.15-2.81a35.77,35.77,0,0,0-15.24-.15c-6.26,1.27-12.48,2.71-18.32,5.47-4,1.9-8.26,3.44-12.37,5.22a79.06,79.06,0,0,1-27.8,6.69,73.55,73.55,0,0,0-9.52.88,4,4,0,0,0-2.44,2.6,16.61,16.61,0,0,0,1,11.21,6.48,6.48,0,0,0,2.62,2.62,7.71,7.71,0,0,0,3.63,1C687.56,783.54,697.15,783.5,704.38,783.5ZM907.73,296.07c-.09-1.44-.17-2.08-.16-2.72,0-1.45-2-3.58-3.56-3.79-2-.27-4.37.71-4.87,2A27.68,27.68,0,0,0,897.3,297c-1.65,10.75-3.14,21.52-4.72,32.27-2.61,17.72-6.52,35.22-8.77,53-2.44,6.7-2.25,13.88-3.83,20.71a207.47,207.47,0,0,0-3.38,20.82c-.32,2.54-.8,5-1.23,7.58q-3,18-6.06,35.92-3.31,19.88-6.57,39.76c-3,18.3-5.84,36.62-9.06,54.88-1.77,10.08-3.18,20.21-5,30.27-3.89,21.39-7,42.91-10.55,64.35q-2.85,17-5.66,34.05c-3,17.67-6.26,35.28-8.74,53-1.78,12.67-4,25.27-6,37.9-3,19-6.53,37.81-9.79,56.72-1.31,7.56-2.62,15.13-3.7,22.72-2.17,15.19-4.07,30.42-6.76,45.53a10.18,10.18,0,0,0-.14,1.91,4.73,4.73,0,0,0,.22,1.89,13,13,0,0,0,1.9,3.15c.89,1,4-.23,4.87-1.68a21.91,21.91,0,0,0,3-9c2.33-20.35,7.4-40.26,9.6-60.62,3.67-17.53,6.2-35.27,9.36-52.88s5.86-35.32,8.75-53c1.14-6.94,2.45-13.85,3.62-20.79,1-5.67,1.74-11.37,2.72-17,2.95-17,5.49-34.08,8.51-51.08,2.12-12,3.53-24,5.58-36,2.48-14.49,5.13-28.95,7.58-43.45,3.19-18.91,6.12-37.87,9.34-56.78,1.4-8.19,3.06-16.35,4.14-24.59,3.41-26,7.93-51.84,12.67-77.63,3.82-20.76,6.54-41.68,10.28-62.45,2.49-13.84,4.63-27.75,6.92-41.64C906.9,301.61,907.36,298.45,907.73,296.07Zm90.72-11.71c14.91-4.21,28.19-12.06,42-18.7a10.31,10.31,0,0,0,2.94-2.38,3,3,0,0,0,.66-3.48,47.63,47.63,0,0,0-4.11-6.42c-11.19-14-23.64-26.89-35.84-40a5.3,5.3,0,0,0-1.62-.94,2.42,2.42,0,0,0-3.32.87,9.72,9.72,0,0,0-1.69,3.37q-4.68,23.51-9.21,47.05c-1.1,5.64-2.28,11.27-3.22,16.94a22.79,22.79,0,0,0,.13,5.65c.14,1.64,1.1,2.16,2.61,2C991.72,288,994.83,285.46,998.45,284.36Zm-171.1,49.06c0-1.28,0-1.92,0-2.56-.12-7-5.41-13.37-12.55-15.06-3.13-.74-7.16.69-8.48,3-.64,1.1-1.39,2.15-2,3.29-3.35,6.9-6.65,13.82-10,20.72-1.92,4-4.37,4.41-9.28,1.66-2.33-1.3-3.84-.7-4,1.38-.7,7.55,1.7,15.37-2.09,22.68-.92,1.76-.26,3.84.54,5.58,2.15,4.63,4.43,9.2,6.72,13.77,1.18,2.34,4.87,2.91,6.48,1,7.39-8.82,14.84-17.59,22.07-26.54A66.41,66.41,0,0,0,825.12,344,37.22,37.22,0,0,0,827.35,333.42ZM829.74,218l.25,0q1.62-9.36,3.24-18.72c.18-1-1.74-4.12-3-4.65-1.77-.76-4-1.5-5.49-.52A23.23,23.23,0,0,1,810.35,198c-9-.41-17.68,1.36-26.33,3.46a12.32,12.32,0,0,0-6.22,4.12c-1.83,2-1.92,5.38,0,6.72,4.64,3.33,9.21,6.77,14,9.9s10.27,5,16.26,3.58a10.79,10.79,0,0,1,1.89-.15c3.61-.2,5,1.47,4.88,6.17,0,3,1.11,4.94,3.68,5.67a14.35,14.35,0,0,0,3.75.49,4.11,4.11,0,0,0,4.09-3.14Q828,226.4,829.74,218ZM546.27,389.11c-1.16-.14-4.32-.52-7.48-.88-2.11-.24-4.4,3.25-3.66,5.57a11.46,11.46,0,0,0,1.29,3.55c3.11,4,6.3,8,9.65,11.82,1.28,1.47,3.09,1.71,5.08.8a66.73,66.73,0,0,1,7.16-2.65,12.69,12.69,0,0,1,7.52-.14c2.45.7,4.85,1.58,7.3,2.28a5.16,5.16,0,0,0,5.12-1.51c2.4-2.2,3.88-5,5.36-7.85a11.93,11.93,0,0,0,.9-7.41c-.22-1.61-2.33-3.69-3.81-3.62-4.45.23-8.9.49-13.35.73A101.66,101.66,0,0,1,546.27,389.11ZM826.33,286.05a25,25,0,0,0,9.17-1.41c3-1.15,5.93-2.37,9-3.37,1.8-.6,2.19-1.38.93-2.82a4.58,4.58,0,0,0-1.38-1.19,37.42,37.42,0,0,0-5.32-2.14c-3.08-.83-6.21-1.53-9.36-2.07-3.46-.59-5.59-2.66-7.38-5.49a4.27,4.27,0,0,0-6.42-1.36q-6.93,5.12-13.81,10.31a3.1,3.1,0,0,0-1.13,3.46,2.22,2.22,0,0,0,1.19,1.24C809.55,284.45,817.73,285.65,826.33,286.05ZM573.88,427.14a36.62,36.62,0,0,0-1.16-6.22c-1.56-4.62-7.4-8.13-12-6.73-9.67,2.94-12.86,8.65-10.41,18.61a16.37,16.37,0,0,0,1.39,3.46c1.85,3.72,7.25,6.2,11.12,5a32.6,32.6,0,0,0,5.24-2,10,10,0,0,0,5.37-7.24A47.68,47.68,0,0,0,573.88,427.14ZM840.27,150.57l-7.87-.5c-1.59-.1-3.22,2.61-2.6,4.2a57,57,0,0,0,7.32,13.35,4.43,4.43,0,0,0,5,1.59,16.53,16.53,0,0,1,9.29-1.49c2.52.37,5.06.52,7.6.77a3.38,3.38,0,0,0,3.38-1.41,2.89,2.89,0,0,0-.19-3.48c-2.54-2.84-5.15-5.64-7.91-8.28a13.63,13.63,0,0,0-6.72-3.47C845.07,151.33,842.54,151,840.27,150.57Zm131.59,215c-1.08-.22-1.88.34-2.11,1.76a4.12,4.12,0,0,0,2.22,4.29,2,2,0,0,0,3.09-.59,2.39,2.39,0,0,0,.14-1.65A6.07,6.07,0,0,0,971.86,365.53Zm-3.13-27.81c-.35-.38-.75-1.19-1.2-1.21s-1.18.63-1.37,1.15a2.5,2.5,0,0,0,1.25,3.22c.16.09,1-.71,1.27-1.23A5.56,5.56,0,0,0,968.73,337.72Z"/><path d="M979.61,356.57c4.3-1.85,5.43-1.65,7.79,1.24.89,1.09.72,2.26-.27,2.83a1.79,1.79,0,0,1-1.62-.12c-1.93-1.43-3.78-3-5.66-4.49Z"/><path d="M979.85,356q-1.76-2.7-3.55-5.39s-.54.43-.57.44c2.74.73,3.92,2.61,3.91,5.42Z"/><path class="cls-2" d="M570.26,798.69h-17.5c-6.39,0-12.79.11-19.12-1.13a40,40,0,0,0-7.63-.75c-11.6,0-22.86-2.5-34.15-4.73-6.89-1.36-13.79-2.72-20.66-4.2-2.5-.54-4.92-1.38-7.36-2.14-3.59-1.12-5.61-3.52-5.48-6.8.28-7,.21-14.11,1.14-21,1.68-12.7,2.92-25.42,3.34-38.22a72.58,72.58,0,0,1,.62-7.65c2.14-15.22,2.58-30.58,3.92-45.87,1.67-19.11,2.69-38.28,5.31-57.31a130.06,130.06,0,0,0,1-13.39A345,345,0,0,1,476.45,561c.35-2.53.52-5.09.65-7.64.82-16.61,2.17-33.18,3.51-49.76a174.52,174.52,0,0,0,.74-23c-.1-2-3.42-4.92-5.31-4.51a40.29,40.29,0,0,0-7.4,1.86c-15.29,6.61-31.14,11.61-47,16.69-6.08,1.95-12.27,3.58-18.48,5.09A16.34,16.34,0,0,1,392,498.36a104.17,104.17,0,0,1-19.47-12.18c-16.61-13.12-31.77-27.78-46.36-43.06a21.62,21.62,0,0,1-2.28-3.07c-1.83-2.81-2.56-5.81-1.24-9.06a18.13,18.13,0,0,1,1.51-3.52c7.56-11.2,12.43-23.78,18.56-35.71,1.75-3.41,3.14-7.09,6.14-9.61a4.19,4.19,0,0,1,3.49-.26,7.26,7.26,0,0,1,2.89,2.42c5.59,7,11.05,14.1,16.66,21.08q11.41,14.21,23,28.25a33.35,33.35,0,0,0,5.7,5.09,9.16,9.16,0,0,0,7.22,1.91c5-.93,10-1.85,14.68-4.26s9.19-4.49,13.8-6.71c4-1.95,8-4,12.11-5.78,21.06-9,15.78-9.14,38.07-1.63,9.09,3.06,18.22,6,27.4,8.73a151.66,151.66,0,0,0,20.59,4.6,21.69,21.69,0,0,1,10.32,4.78c3,2.4,5.94,4.87,9,7.18q7.53,5.68,16-.09a83.06,83.06,0,0,0,7.66-5.74,21.2,21.2,0,0,1,12-5.47c16.13-1.57,31.18-6.71,45.79-13.42a91.16,91.16,0,0,1,16.13-6.07,17.14,17.14,0,0,1,11.25.68,203.11,203.11,0,0,1,22.41,10.89c5,2.88,10.22,5.29,15.22,8.14,4,2.26,8.3,3.3,12.56,4.63,3.45,1.07,6.27-.27,8.82-2.37a97.11,97.11,0,0,0,15.62-16.85c6.15-8.18,12.2-16.44,18.42-24.56,3.88-5.07,8-10,12-14.9,1.85-2.23,4.56-1.8,6.2.88,1,1.63,2.1,3.21,3,4.91,4.09,8,8.08,16,12.19,23.92,3.53,6.81,7.26,13.51,10.68,20.37a5.41,5.41,0,0,1-.59,5.47,26.37,26.37,0,0,1-2.33,3c-3.47,3.76-6.82,7.65-10.53,11.16-9.29,8.79-18.38,17.8-28,26.25-5.78,5.08-12.05,9.47-18.16,14.11-8.34,6.34-17.58,7.08-27.31,5.43a112.47,112.47,0,0,1-13-3.18c-16-4.71-31.68-10.05-46.75-17.19a25.31,25.31,0,0,0-9.1-2.84c-1.28-.09-4.05,1.94-4.2,3.3a15.24,15.24,0,0,0-.39,1.85,260.88,260.88,0,0,0,1.07,26.81c1.51,14,2.74,28,3.18,42.09.12,3.83.59,7.64.91,11.47q1.13,13.38,2.24,26.77c.16,1.91.09,3.84.33,5.74,2.46,19,3.06,38.24,4.55,57.36.25,3.19.57,6.37.91,9.55s.83,6.34,1.07,9.53q2.24,29.65,4.36,59.31c.55,7.66,1,15.31,2.21,22.92a158.75,158.75,0,0,1,1.58,26.78c-.07,4.24-2.21,6.92-6.55,8.21-1.22.36-2.42.86-3.67,1.11-9.4,1.86-18.88,3.39-28.22,5.55C605.8,797.14,587.92,797.83,570.26,798.69ZM538.89,470.91c-1.58-.51-2.16.22-2.76,1.77-2,5.37-2.13,5.35-5.94,6.56-1.21.39-2.48.61-3.7,1a5.11,5.11,0,0,0-3.68,3.94c-.29,1.24-.44,2.51-.68,3.77a5.76,5.76,0,0,1-4.91,5c-2.4.48-5.63.4-6,3.63-.36,3.45,2.74,3.39,5.13,3.91a12.49,12.49,0,0,1,3.43,1.46,2.65,2.65,0,0,1,.85,1.52,2.52,2.52,0,0,1-1.5,3.22,26.2,26.2,0,0,1-3.66,1c-1.23.31-2.48.56-3.69.95-1.6.52-2,1.57-1.33,3a5.31,5.31,0,0,0,1,1.52c2,1.8,4.72,1.75,7,2.77,1.39.61,2.11,1.51,1.8,2.55a2.68,2.68,0,0,1-1.2,1.42c-2.72,1.57-6.3,1.14-8.64,3.66-1.1,1.19-1,2.27.08,3.44,2.33,2.49,6,1.91,8.55,3.9a3.34,3.34,0,0,1,1.06,1.53c.33,1.09-.36,2-1.86,2.44-2.39.72-5.11.5-7,2.52a4.18,4.18,0,0,0-.94,1.6c-.43,1.5.05,2.59,1.35,3.07a16,16,0,0,0,3.64,1.1c3.54.37,6,2,6.79,5.58.85,4.06,2.61,7.06,7.1,7.88,3.45.64,5.68,2.67,6,6.39a7.26,7.26,0,0,0,.64,1.77,2.64,2.64,0,0,0,3,1.83,3.32,3.32,0,0,0,2.95-2,17,17,0,0,0,1-3.65,3.65,3.65,0,0,1,2.07-3c1.14-.51,3.25,1.32,3.86,3.39.36,1.22.51,2.5.83,3.74a5.59,5.59,0,0,0,.79,1.74,2.44,2.44,0,0,0,3.06,1.21,2.77,2.77,0,0,0,1.48-1.09c1.27-2.88,2.37-5.83,3.65-8.71a2.14,2.14,0,0,1,1.52-1,2,2,0,0,1,1.47.93,11.64,11.64,0,0,1,1.71,3.32c.64,2.43,1,4.9,3.61,6.23,1.76.91,2.22.36,3.83-5.32a9,9,0,0,1,.48-1.84,3.88,3.88,0,0,1,3-2,2.36,2.36,0,0,1,2.86,1.78c.6,1.8.91,3.71,1.54,5.49a2.6,2.6,0,0,0,3,1.79,2.93,2.93,0,0,0,2.65-2.24,24,24,0,0,0,.74-3.76c.41-3,2.33-4.32,5.08-4.77a24.64,24.64,0,0,0,3.78-.63,6.48,6.48,0,0,0,4.15-3.66c.7-1.76.86-3.72,1.45-5.54a4.84,4.84,0,0,1,4.16-3.42,44.49,44.49,0,0,0,5.65-1,2.3,2.3,0,0,0,1.75-2.79,3.22,3.22,0,0,0-2.27-2.8c-2.45-.68-5-1-7.43-1.75a2,2,0,0,1-1.49-2.86,5.17,5.17,0,0,1,.91-1.58,3.69,3.69,0,0,1,1.55-1.1c2.45-.67,5-1.17,7.41-1.88a2.48,2.48,0,0,0,1.26-1.39,2.84,2.84,0,0,0-.84-3.26c-2.51-2.23-6.21-1.35-8.83-3.3a2.78,2.78,0,0,1-1-1.61,2.1,2.1,0,0,1,.57-1.52c2.34-2.55,6.08-1.45,8.71-3.28a3.25,3.25,0,0,0,1.53-3.24,2,2,0,0,0-1.21-1.26c-1.81-.53-3.7-.8-5.5-1.33a11.2,11.2,0,0,1-3.37-1.53,3.45,3.45,0,0,1-1.2-3.42c.08-.46.86-1,1.42-1.14,2.45-.63,5-1,7.4-1.69a3.23,3.23,0,0,0,2.3-2.66,2.37,2.37,0,0,0-1.71-2.93c-1.84-.48-3.73-.8-5.59-1.23s-3.54-1.27-4.11-3.39c-.51-1.85-1-3.71-1.62-5.51a5.57,5.57,0,0,0-4-3.73c-1.23-.33-2.47-.62-3.71-.92-2.63-.64-4.61-1.95-5.28-4.81a20,20,0,0,0-1.28-3.54,2.81,2.81,0,0,0-3.12-1.81,3.39,3.39,0,0,0-2.39,2.52c-.39,1.21-.53,2.52-1,3.7a2.65,2.65,0,0,1-2.86,1.74A3.1,3.1,0,0,1,571.4,475c-.63-1.8-1.14-3.64-1.79-5.42s-3.3-2.07-4.55-.56c-.4.5-1,.89-1.23,1.45-.67,1.78-1.13,3.64-1.81,5.42a2.37,2.37,0,0,1-1.3,1.35,2.84,2.84,0,0,1-3.2-1.09c-1.24-2.18-2-4.61-3.15-6.86-.79-1.57-2-1.74-2.91-.57a11.21,11.21,0,0,0-2.07,3.1c-.84,2.41-1.39,5.33-4.47,5.3-1.89,0-2.49-2.42-3.18-4.14A3,3,0,0,0,538.89,470.91ZM497,628.64c8.3-2.29,11.95-3.35,15.64-4.27a7.66,7.66,0,0,1,3.72-.26c8.13,2.26,16.41,1.57,24.66,1.37a47.78,47.78,0,0,0,5.65-.82c1.19-.18,3.48-2.8,3.62-4,.7-6.32,1.28-12.63.51-19a3.58,3.58,0,0,0-.49-1.81c-.82-.92-1.79-2.25-2.79-2.35a43.64,43.64,0,0,0-9.49,0c-10.07,1.3-20.06,3.17-30.22,4-5.66.46-11.23,2-16.81,3.26-2,.44-3.1,2.19-3.54,4.06-1.16,5.05-1.23,10.14.71,15a6.73,6.73,0,0,1,0,5.49,27.08,27.08,0,0,0-2.07,11.15c-.12,8.38,1.62,10.52,9.08,11.85a103.52,103.52,0,0,0,13.24,1.58c3.79.2,7.5.08,11.23,1.26,7.31,2.3,15,2.94,22.56,3.65a30.19,30.19,0,0,0,3.78-.23c2.28-.09,4.76-2.55,5-4.8a81,81,0,0,0,.09-17.12,6.25,6.25,0,0,0-6.35-5.74c-5.72-.17-11.44-.38-17.16-.35A222.3,222.3,0,0,1,497,628.64Zm138.8,2.06c-.19-4.06-.33-7.23-.48-10.41-.12-2.45-1.85-4-5.22-4.39-.63-.08-1.28,0-1.9-.11-2.94-.41-3.7-.73-4.05-3.1a22.46,22.46,0,0,0-7.2-13.12,9,9,0,0,0-5-2.6,25.55,25.55,0,0,0-3.82-.12c-3.81,0-7.63,0-11.44.22a6.11,6.11,0,0,0-4.74,2.7c-3,4.1-6.62,7.84-7,13.3a6.2,6.2,0,0,1-4.59,2.82,5.73,5.73,0,0,0-3.44,1.45,7.5,7.5,0,0,0-2.05,5.19c0,5.09-.08,10.19.32,15.25A5.28,5.28,0,0,0,580,643c5.06.47,6.3,6.15,10.68,7.48.5.15.87.9,1.2,1.45a5.79,5.79,0,0,1,.69,1.71c.57,2.46.91,5,1.69,7.37.41,1.23,1.83,1.65,3.11,1.91s2.62,0,3.14-1.35c1.11-2.94,1.82-6,2.87-9a2.76,2.76,0,0,1,3.11-1.56c.43,0,1,.74,1.12,1.23.75,3,1.27,6.13,2.11,9.14.39,1.37,1.73,1.78,3.18,1.6a3.19,3.19,0,0,0,2.78-2.06,21.73,21.73,0,0,0,.9-3.68c.24-1.25.31-2.53.58-3.77a4.78,4.78,0,0,1,2.23-3c1.56-1.06,3.45-1.78,4.24-3.69,1.46-3.55,4.41-4,7.75-4.07a3.94,3.94,0,0,0,3.88-3.39C635.45,636.17,635.65,633,635.8,630.7Z"/><path class="cls-2" d="M560.12,953.73q-77.73,0-155.45,0c-15.35,0-30.71-.17-46.06-.24a18.37,18.37,0,0,1-7.52-1.18,6,6,0,0,1-2.45-2.83,8.9,8.9,0,0,1-.76-3.73q-.08-40.31,0-80.62a29.38,29.38,0,0,1,.56-3.79c.14-1,3-3.38,4-3.75a23.28,23.28,0,0,1,7.59-.79c23,0,46.06.12,69.09.13q98.83,0,197.67,0,66.23,0,132.43-.08c2.54,0,5.08.31,7.62.52,2.16.17,4.69,2.89,4.9,5.16.12,1.28.35,2.54.41,3.81.1,1.92.13,3.84.12,5.76q-.06,33.6-.14,67.19a36.23,36.23,0,0,1-.93,9.51c-.32,1.19-2.74,3.75-3.9,3.86-2.53.22-5,.73-7.58.74q-25,.17-49.9.15-74.85,0-149.7,0Z"/><path class="cls-2" d="M379.59,735c-3.79.67-8.17,1.58-12.59,2.17a117,117,0,0,0-34.73,10.39,12.92,12.92,0,0,1-3.61,1,2.47,2.47,0,0,1-2.8-2,4,4,0,0,1-.18-1.84c2.72-15.77,6.22-31.32,12.62-46.08,3.06-10.46,7.76-20.24,12.23-30.14a256.11,256.11,0,0,1,18.3-33.64,374.85,374.85,0,0,0,20.88-36.62A394.31,394.31,0,0,0,414.17,538c2.42-7.93,4.18-16.06,6.24-24.11a49,49,0,0,1,1.51-5.53,10.27,10.27,0,0,1,4.88-5.67,23.45,23.45,0,0,1,3.48-1.56c10.37-3.25,20.56-7,30.71-10.86a42.35,42.35,0,0,1,7.42-1.58c1.33-.25,4.11,2.11,4.14,3.41a43.42,43.42,0,0,1,.07,5.7c-1.37,12.07-2.08,24.19-2.61,36.33a243.07,243.07,0,0,1-2.09,24.83c-.66,4.42-1,8.89-1.26,13.35-.81,12.76-1.48,25.52-3.06,38.22-.86,7-1,14-1.28,21-.39,8.94-.77,17.88-2.35,26.72-1.13,20.43-4.46,40.65-5.78,61.06q-.63,9.57-1.6,19.11c-.26,2.52-1,5-1.49,7.5-.27,1.42-2.58,3.47-4,3.69a33.63,33.63,0,0,1-13.34-.46c-8.67-2.13-17.61-3.49-25.77-7.31a56,56,0,0,0-14.66-4.17C389,736.92,384.6,736,379.59,735Zm58.52-17.56c-.23-.52-.34-1.34-.73-1.5a1.88,1.88,0,0,0-1.71.32c-1.05,1-.62,1.92,1.1,2.12C437.17,718.44,437.66,717.79,438.11,717.46Z"/><path class="cls-2" d="M651.58,288.93c-.08,10.94-1.46,21.09-5,30.75-4.21,11.45-9.84,22.18-18.46,31.05-2.67,2.75-5.36,5.49-8.14,8.13A79.13,79.13,0,0,1,585.07,378a97.41,97.41,0,0,1-28.41,3.41,81.44,81.44,0,0,1-33.22-8.23,98.2,98.2,0,0,1-31.92-24,95.16,95.16,0,0,1-20.29-38.64,25.79,25.79,0,0,1-.75-3.76,184.38,184.38,0,0,1-1.29-24.86A75,75,0,0,1,475.48,254a96.55,96.55,0,0,1,36.3-43.5,87.84,87.84,0,0,1,39.4-13.76,91.69,91.69,0,0,1,21,0c21.12,2.58,38.82,12,54,26.52,11,12.72,19.58,26.78,23,43.52A112.23,112.23,0,0,1,651.58,288.93ZM528.71,311.78c-1,1.55-2,3-4,3.58-5.43,1.53-11.23.33-16.59,2.28a3.41,3.41,0,0,0-2.17,2.66c-.39,1.56,0,2.51,1.46,2.89a33.28,33.28,0,0,0,5.38,1.33,46.43,46.43,0,0,0,14.85-1.27,13.12,13.12,0,0,0,7.67-5,5.51,5.51,0,0,0,.92-3.37,2.53,2.53,0,0,0-2.53-2.36c-1.85-.15-3.71-.17-5.56-.24,1.4-3,4.47-4.43,6.61-6.75,5.92-6.42,9.06-13.68,8.13-22.58-1-9.8-6.17-16.53-15.05-20.41-7.49-3.26-15-2.47-22.25.83A24.33,24.33,0,0,0,491,288.06a28.17,28.17,0,0,0,10.37,19.78,20.89,20.89,0,0,0,12.15,5A67,67,0,0,0,528.71,311.78Zm62-1c5.68.85,11.3,2.3,17.12,1.57a20.34,20.34,0,0,0,7.3-2.13,30.86,30.86,0,0,0,9.1-7c4.74-5.61,7.28-12.1,6.42-19.48a26.66,26.66,0,0,0-28.12-23.37,29.69,29.69,0,0,0-17.44,7.16,19.18,19.18,0,0,0-7.21,15,28,28,0,0,0,6.78,19.43c2.06,2.43,4.15,4.82,6.15,7.29.36.45.31,1.23.58,1.95a4.74,4.74,0,0,1-3.5,1.23,4.31,4.31,0,0,0-1.76.61c-1.43.67-1.7,3.94-.46,4.87,8.17,6.11,17.31,7.16,27,5.16a3.17,3.17,0,0,0,1.56-1.05,4.53,4.53,0,0,0,.68-1.53c.53-1.55,0-2.42-1.45-2.95-4.86-1.78-10.05-.59-15-1.82A13.64,13.64,0,0,1,590.68,310.82Zm-32.29,44.32c4.33-.36,8.75-.54,13.12-1.14a36,36,0,0,0,14.15-5c3.89-2.42,4.05-8.46.4-11.34a18.17,18.17,0,0,0-6.69-3.38,59.74,59.74,0,0,0-37.18,2,16.68,16.68,0,0,0-7.57,5.46,4.56,4.56,0,0,0-.43,5.15,11.72,11.72,0,0,0,4,3.92,26,26,0,0,0,8.84,3.24C550.75,354.5,554.52,354.78,558.39,355.14Zm40.12-114.91a38.44,38.44,0,0,0-4.7.55,3.85,3.85,0,0,0-2.59,2.42c-.76,1.63-.24,2.3,1.4,2.83,3.08,1,6.24,1.08,9.41,1.31a28.9,28.9,0,0,1,12.56,4.22c2.19,1.28,4.27,2.77,6.45,4.07a4.11,4.11,0,0,0,1.84.31A3.19,3.19,0,0,0,626,254.3a2.38,2.38,0,0,0,0-1.87c-1.68-3.63-4.78-6-8.14-7.66A39.91,39.91,0,0,0,598.51,240.23Zm-69,4.17c-.07-1.67-1.94-3.38-3.66-3.7A33.68,33.68,0,0,0,504,244.14a18.09,18.09,0,0,0-7.88,7.82,3.34,3.34,0,0,0,.26,3.46,2.18,2.18,0,0,0,3.22.82,38.17,38.17,0,0,1,24.35-8.51,7.32,7.32,0,0,0,5.19-1.85C529.42,245.59,529.37,244.91,529.49,244.4Z"/><path class="cls-2" d="M647.43,492.5c.27-1.86.41-2.49.43-3.12.06-1.64,2.61-3.4,4.06-2.78,10,4.26,20.14,8.06,30.4,11.61a36.91,36.91,0,0,1,6.83,3.41,6.4,6.4,0,0,1,2.53,2.78,74.8,74.8,0,0,1,3,9.08c3.34,13,6.49,26,9.87,39,1.61,6.17,3.4,12.31,5.44,18.36a521.36,521.36,0,0,0,29.07,68.76c4.9,9.69,9.59,19.49,14.25,29.3,5.48,11.54,10.42,23.32,15.31,35.12a178.1,178.1,0,0,1,10.77,36.64,3,3,0,0,1-3.47,3.38c-4.95-1.22-9.87-2.56-14.85-3.65a55.52,55.52,0,0,0-22.82-.13,200.7,200.7,0,0,0-27.58,7.93c-7.23,2.54-14.45,5.11-21.73,7.49A33.91,33.91,0,0,1,675.68,757c-2.43-.19-5.27-2.26-5.69-4.35a75,75,0,0,1-1.43-7.5c-.88-8.91-1.62-17.82-2.38-26.74-.38-4.45-.38-9-1-13.37-2.1-13.92-3-28-4-42-.13-1.91.08-3.91-.43-5.72-2.61-9.35-2.2-19-3-28.52-.57-7-1.4-14-1.91-21-.7-9.56-1.2-19.14-1.79-28.7-.39-6.38-.52-12.79-1.26-19.13-1.55-13.34-2.39-26.72-2.91-40.14a147.19,147.19,0,0,0-1.72-19.08C647.64,497.67,647.6,494.46,647.43,492.5Zm58.81,128.64a2,2,0,0,0,2.87-1.57,2.2,2.2,0,0,0-.23-1.72c-1-1.18-2.22-1.27-3-.15A2.71,2.71,0,0,0,706.24,621.14Z"/><path class="cls-2" d="M563,849c-6.88-.2-11.36-.16-15.82-.48a418.65,418.65,0,0,0-59.37,0c-5.73.39-11.5.28-17.25.26-30.68-.07-61.35-.11-92-.35-7-.06-14.07.56-20.91-1.5a3,3,0,0,1-2-2.91,3.84,3.84,0,0,1,.07-1.89q4.67-8.37,9.47-16.65c4.79-8.3,9.57-16.61,14.46-24.85a40.8,40.8,0,0,1,4.52-6.16,6.21,6.21,0,0,1,3.28-1.83,39.65,39.65,0,0,1,7.59-.84c17.26,0,34.51.2,51.77.25,6.42,0,12.73.54,18.89,2.61a78.71,78.71,0,0,0,9.32,2.13c1.56.33,2.16,1.22,1.64,2.82a3.07,3.07,0,0,1-.93,1.57c-2.65,1.75-5.36,3.4-8.06,5.06a53.7,53.7,0,0,0-10.43,8.39,23.57,23.57,0,0,0-4.21,6.35,8.11,8.11,0,0,0,4.19,11.14,18.31,18.31,0,0,0,3.61,1.23,39.16,39.16,0,0,0,5.71.66c16.75.62,33.08-2.09,49.18-6.46a29.21,29.21,0,0,0,5.38-2c3.53-1.74,6.47-4.1,7.26-8.29.35-1.89.73-3.77,1.12-5.64A5.68,5.68,0,0,1,535,807.3q26.84,0,53.66.1c1.72,0,4,1.66,4.36,3.11.43,1.85.94,3.69,1.28,5.56a11.88,11.88,0,0,0,3.7,6.56,15.58,15.58,0,0,0,4.69,3.22,64.3,64.3,0,0,0,10.91,3.54c11.27,2.28,22.61,4.26,34.13,4.84A71,71,0,0,0,664.91,833a8.75,8.75,0,0,0,6-4.42,7.21,7.21,0,0,0,.89-5.5,18,18,0,0,0-4.69-8.2,59.32,59.32,0,0,0-12.15-9.29c-2.17-1.31-4.37-2.57-6.49-3.95a3,3,0,0,1-1-1.59c-.46-1.53.05-2.6,1.39-3,20.13-5.42,20.14-5.49,39.61-5.33,14.05.12,28.11.42,42.16.73a7.58,7.58,0,0,1,6.48,3.54c9.1,15.39,19.1,30.24,27.51,46,1.15,2.18-.56,5.58-2.79,6-4.43.89-8.9.74-13.36.74q-41.22,0-82.45-.09c-6.39,0-12.78-.14-19.17,0q-16.31.26-32.57-.78a187.35,187.35,0,0,0-28.72.26C577.25,848.89,568.92,848.8,563,849Z"/><path class="cls-2" d="M989.37,214.22c-4.62,24.85-9,48.7-13.56,72.53a13.08,13.08,0,0,1-2.47,5.1,4.91,4.91,0,0,1-3.22,1.78,21.54,21.54,0,0,1-5.69-.54c-33.21-6.48-66.43-12.88-99.59-19.58-10.63-2.15-21.08-5.12-31.61-7.74-1.36-.33-3.26-3-3.15-4.37.16-1.89.18-3.8.49-5.66,2.93-17.64,6.31-35.2,9.72-52.75,1.09-5.64,1.93-11.33,3-17a51.43,51.43,0,0,1,1.54-5.52c.93-3,4.39-5.56,7.23-5.17,8.22,1.14,16.51,1.94,24.61,3.64,17.49,3.69,35.16,6.47,52.62,10.25,19.33,4.19,38.92,7.12,58.05,12.28,1.54.41,3.38,2.89,3.22,4.3-.14,1.26,0,2.55-.23,3.79C990,211.48,989.56,213.34,989.37,214.22ZM923.82,263a75.1,75.1,0,0,0,8.3-1.24,7.18,7.18,0,0,0,5.2-5.1,41.8,41.8,0,0,0,1.81-15c-.09-1.32-1.94-4.14-3.09-4.54-3.63-1.25-7.33-2-11.17-1.34a2.64,2.64,0,0,0-2.18,2.69c-.14,2,.81,3.59,1.89,5.19,1.51,2.24,1.53,4.69.82,7.26-.82,3-5.09,4.25-7.77,2.35a7.7,7.7,0,0,1-3.44-6.42,74.78,74.78,0,0,1,2.93-20.69,27.24,27.24,0,0,1,2.11-5.3c.89-1.67,2.15-3.13,4.3-3.26,2.68-.17,5,.55,6.42,3a25.08,25.08,0,0,1,1.49,3.49c1,2.65,3.28,3.68,5.81,4.28a6.63,6.63,0,0,0,1.89,0,2.67,2.67,0,0,0,2.56-2.26c1.75-10.22-5.24-17.51-14.85-17.9a43.51,43.51,0,0,0-5.71.06,15.91,15.91,0,0,0-11.39,6.17,24.28,24.28,0,0,0-5.51,12c-.67,5-1.21,10.1-1.76,15.16a28.1,28.1,0,0,0,1,9.43A15.62,15.62,0,0,0,917,262.66C918.92,262.79,920.82,262.87,923.82,263Zm-27.91-8.82a49.18,49.18,0,0,0,0-5.27c-.47-4.41-1.28-8.79-1.62-13.2s0-8.86-.44-13.26c-.51-5.67-1.41-11.31-2.2-16.95-.31-2.2-2.71-4.28-5.3-4.74a10,10,0,0,0-1.89-.2,8.07,8.07,0,0,0-6.63,3,16.5,16.5,0,0,0-2,3.21c-5.07,10.94-10.81,21.5-16.81,31.95-1.54,2.69-3.17,5.52-3.2,8.82a2.91,2.91,0,0,0,.58,1.57c.91,1.33,5.88,2.37,7.13,1.5a20.21,20.21,0,0,0,4.35-3.59c2.78-3.44,6.31-3.9,10.25-3.08,3.31.68,5.76,2.45,6.61,5.93.3,1.23.53,2.48.95,3.67,1,2.9,4.49,4.56,7.77,3.68C894.51,256.94,895.26,255.93,895.91,254.21Zm49.65-2.54.18,0c-.53,3.15-1.07,6.29-1.57,9.44a7.39,7.39,0,0,0,0,1.88,4.68,4.68,0,0,0,.47,1.84,5.21,5.21,0,0,0,1.36,1.28,6.42,6.42,0,0,0,10.52-3.51c3.25-13.66,5-27.59,7.36-41.41.45-2.65-.57-4.25-3.67-6-3.25-1.86-6.21-.72-7.51,2.87a26.12,26.12,0,0,0-1.34,3.56C949.37,231.64,947.47,241.65,945.56,251.67Z"/><path class="cls-2" d="M272.93,742.77a97.25,97.25,0,0,1,8.36-38.48,184.69,184.69,0,0,1,15.54-28.55,246.64,246.64,0,0,1,20.57-27.61q11.31-13,21.88-26.62c18-23.28,34-47.83,46-74.86,4.89-11.08,10-22,14.07-33.5,1.18-3.36,4.11-4.66,7.55-4.78a13.61,13.61,0,0,1,1.9.2,3.65,3.65,0,0,1,2.94,4.11,251.85,251.85,0,0,1-21.59,63.14c-11.1,22.29-23,44.1-35.52,65.64C343.4,660.82,333.7,680.91,327,702.34c-4.95,15.86-9.08,31.89-10.58,48.51-.17,1.9-.3,3.82-.62,5.71a186.58,186.58,0,0,0-2.36,30.51c0,2.53-.32,5.07-.5,7.61-.17,2.36-3.45,3.63-6,2.3a47.8,47.8,0,0,1-5-2.72,82.4,82.4,0,0,1-19.11-18.62,48.6,48.6,0,0,1-9.6-24.7C272.87,747.14,273,743.3,272.93,742.77Z"/><path class="cls-2" d="M707,506.63a7.94,7.94,0,0,1,7.38,5,103.78,103.78,0,0,1,4.15,12.72c5.27,20.49,13.33,39.89,22.73,58.77a566,566,0,0,0,38.41,66.14c11.48,16.89,22,34.42,32,52.21a84.85,84.85,0,0,1,6.12,14,21.75,21.75,0,0,1,.83,11.33c-2.93,15.67-5.92,31.34-8,47.17-.4,3.15-1.42,6.22-2,9.35-1.06,5.46-4.43,9-9.19,11.49-2.32,1.22-5.68-.1-5.84-2.45-.13-1.9-.41-3.8-.5-5.7-.16-3.19-.28-6.38-.33-9.57-.12-7-1.19-14-2.1-20.92-2.34-17.84-7.49-34.87-13.5-51.73a397.59,397.59,0,0,0-22-50.89A656.19,656.19,0,0,1,725,587.43c-8.37-21.45-14.2-43.66-20.07-65.86-1-3.66-1.07-7.55-1.54-11.34A3.5,3.5,0,0,1,707,506.63Z"/><path class="cls-2" d="M704.38,783.5c-7.23,0-16.82,0-26.41,0a7.71,7.71,0,0,1-3.63-1,6.48,6.48,0,0,1-2.62-2.62,16.61,16.61,0,0,1-1-11.21,4,4,0,0,1,2.44-2.6,73.55,73.55,0,0,1,9.52-.88,79.06,79.06,0,0,0,27.8-6.69c4.11-1.78,8.32-3.32,12.37-5.22,5.84-2.76,12.06-4.2,18.32-5.47a35.77,35.77,0,0,1,15.24.15c3.73.87,7.48,1.74,11.15,2.81a32.55,32.55,0,0,1,10.26,5.1,11.62,11.62,0,0,1,4.47,6.06,39.46,39.46,0,0,1,1.74,7.43q.74,8.6.89,17.23c.11,6.39-.11,12.79-.13,19.18,0,4.44,3.72,6.19,8.07,3.81,1.13-.61,2.18-1.34,3.28-2a15.46,15.46,0,0,1,3.37-1.8c1.11-.31,2.76-.52,3.46.07s1.07,2.28,1.14,3.5a32.32,32.32,0,0,1-.28,5.73c-.41,3.17-1,6.32-1.49,9.47q-6.79,41.64-13.62,83.26a12.76,12.76,0,0,1-1.26,3.55,3.23,3.23,0,0,1-3.09,1.66c-1.61.1-2.52-.37-2.78-2a37.47,37.47,0,0,1-.89-5.6c0-10.87.07-21.75.11-32.62,0-3.2-.17-6.41.06-9.59a32.48,32.48,0,0,0-5.71-21.75c-3.64-5.23-6.51-11-9.86-16.44-7.73-12.51-15.55-25-23.31-37.44a7.47,7.47,0,0,0-6.45-3.49C725.92,783.8,716.33,783.71,704.38,783.5Z"/><path class="cls-2" d="M907.73,296.07c-.37,2.38-.83,5.54-1.35,8.69-2.29,13.89-4.43,27.8-6.92,41.64-3.74,20.77-6.46,41.69-10.28,62.45-4.74,25.79-9.26,51.62-12.67,77.63-1.08,8.24-2.74,16.4-4.14,24.59-3.22,18.91-6.15,37.87-9.34,56.78-2.45,14.5-5.1,29-7.58,43.45-2.05,12-3.46,24.05-5.58,36-3,17-5.56,34.07-8.51,51.08-1,5.67-1.76,11.37-2.72,17-1.17,6.94-2.48,13.85-3.62,20.79-2.89,17.67-5.59,35.38-8.75,53s-5.69,35.35-9.36,52.88c-2.2,20.36-7.27,40.27-9.6,60.62a21.91,21.91,0,0,1-3,9c-.87,1.45-4,2.68-4.87,1.68a13,13,0,0,1-1.9-3.15,4.73,4.73,0,0,1-.22-1.89,10.18,10.18,0,0,1,.14-1.91c2.69-15.11,4.59-30.34,6.76-45.53,1.08-7.59,2.39-15.16,3.7-22.72,3.26-18.91,6.79-37.77,9.79-56.72,2-12.63,4.2-25.23,6-37.9,2.48-17.72,5.79-35.33,8.74-53q2.84-17,5.66-34.05c3.58-21.44,6.66-43,10.55-64.35,1.83-10.06,3.24-20.19,5-30.27,3.22-18.26,6.06-36.58,9.06-54.88q3.27-19.87,6.57-39.76,3-18,6.06-35.92c.43-2.53.91-5,1.23-7.58A207.47,207.47,0,0,1,880,403c1.58-6.83,1.39-14,3.83-20.71,2.25-17.78,6.16-35.28,8.77-53,1.58-10.75,3.07-21.52,4.72-32.27a27.68,27.68,0,0,1,1.84-5.39c.5-1.33,2.85-2.31,4.87-2,1.56.21,3.58,2.34,3.56,3.79C907.56,294,907.64,294.63,907.73,296.07Z"/><path class="cls-2" d="M998.45,284.36c-3.62,1.1-6.73,3.67-10.66,4-1.51.13-2.47-.39-2.61-2a22.79,22.79,0,0,1-.13-5.65c.94-5.67,2.12-11.3,3.22-16.94q4.58-23.53,9.21-47.05a9.72,9.72,0,0,1,1.69-3.37,2.42,2.42,0,0,1,3.32-.87,5.3,5.3,0,0,1,1.62.94c12.2,13.1,24.65,26,35.84,40a47.63,47.63,0,0,1,4.11,6.42,3,3,0,0,1-.66,3.48,10.31,10.31,0,0,1-2.94,2.38C1026.64,272.3,1013.36,280.15,998.45,284.36Z"/><path class="cls-2" d="M337.68,342.14a14.16,14.16,0,0,1,2.48,7.11c0,2.55-.09,5.1-.13,7.65a27.57,27.57,0,0,0,1.91,9.31,10.38,10.38,0,0,1-.34,7.46c-2,4.7-4,9.36-6.14,14-1.12,2.46-4.29,2.77-6.43,1a10.71,10.71,0,0,1-1.4-1.29c-7.06-8.22-14.32-16.27-21.09-24.72-6.05-7.54-10.46-16.05-11.91-25.75-1.11-7.51,1.28-13.88,7.45-18.51a10.05,10.05,0,0,1,9-2,6.35,6.35,0,0,1,3.27,1.78,62,62,0,0,1,5.16,8c3.33,6.15,5.6,12.85,9.7,18.62,1.23,1.73,4.95,1.9,6.73.15a10.44,10.44,0,0,0,1.22-1.44c.36-.52.64-1.1,1-1.66Z"/><path class="cls-2" d="M827.35,333.42A37.22,37.22,0,0,1,825.12,344a66.41,66.41,0,0,1-10.33,18.31c-7.23,8.95-14.68,17.72-22.07,26.54-1.61,1.92-5.3,1.35-6.48-1-2.29-4.57-4.57-9.14-6.72-13.77-.8-1.74-1.46-3.82-.54-5.58,3.79-7.31,1.39-15.13,2.09-22.68.19-2.08,1.7-2.68,4-1.38,4.91,2.75,7.36,2.3,9.28-1.66,3.34-6.9,6.64-13.82,10-20.72.56-1.14,1.31-2.19,2-3.29,1.32-2.3,5.35-3.73,8.48-3,7.14,1.69,12.43,8.05,12.55,15.06C827.36,331.5,827.35,332.14,827.35,333.42Z"/><path class="cls-2" d="M675.69,406c-1.66.88-3.15,2.16-5.18,2.16a34,34,0,0,1-3.77.08c-15.81-1.63-19.94,1.2-31.41,5.27-6.54,2.32-12.78,5.51-19.2,8.17a121.29,121.29,0,0,1-31,8.26,3.18,3.18,0,0,1-3.05-1.84,8.46,8.46,0,0,1-.3-7.3,40.06,40.06,0,0,1,2.57-5.06c3.23-5.44,6.85-10.63,9.5-16.42,1.33-2.92,3.71-5.06,6.28-7a9.32,9.32,0,0,0,3-4.71l-.24-.52c1.12.83,2.42,1.27,3.5.64,5.57-3.19,10.88-2.11,16.19.65,2.21,1.16,2.81,2.94,1.19,4-2.61,1.75-5.26,3.46-7.86,5.22-.51.35-.89.88-1.37,1.27-1.24,1-1.45,3.87-.27,5a3.84,3.84,0,0,0,3.56.76c3.87-.65,6.74-3.31,10.15-4.89,11.58-5.35,23.2-5.17,34.8-.29,2.87,1.21,5.38,3.25,8.14,4.74a52.31,52.31,0,0,0,5.19,2.13Z"/><path class="cls-2" d="M449.15,415.1c-.39-1.2-.84-2.39-1.15-3.61a3.59,3.59,0,0,1,.87-3.51,38.42,38.42,0,0,1,43.87-8.77c4.08,1.76,7.79,4.45,12.28,5.16a8,8,0,0,0,3.67-.47c1.1-.4,1.52-1.76.8-3.08-2.23-4.08-6.95-5.49-9.84-8.9-.82-1-.57-2,.82-2.93a11.12,11.12,0,0,1,7.32-1.6,35.41,35.41,0,0,1,11,2.94,14.19,14.19,0,0,1,6.07,4.52q8.26,11.7,16.28,23.59a9.67,9.67,0,0,1,1.54,5.43c0,2.72-2.18,5-4.64,4.72a64.14,64.14,0,0,1-13.1-2.53c-11.54-3.65-23.17-7-34.6-11-6.05-2.09-12.23-3.58-18.39-5.13a28.84,28.84,0,0,0-20.43,2.57c-1.05.53-1.74,1.76-2.6,2.66Z"/><path class="cls-2" d="M829.74,218q-1.72,8.39-3.45,16.77a4.11,4.11,0,0,1-4.09,3.14,14.35,14.35,0,0,1-3.75-.49c-2.57-.73-3.72-2.64-3.68-5.67.07-4.7-1.27-6.37-4.88-6.17a10.79,10.79,0,0,0-1.89.15c-6,1.38-11.36-.37-16.26-3.58s-9.35-6.57-14-9.9c-1.87-1.34-1.78-4.67,0-6.72a12.32,12.32,0,0,1,6.22-4.12c8.65-2.1,17.34-3.87,26.33-3.46a23.23,23.23,0,0,0,14.43-3.79c1.47-1,3.72-.24,5.49.52,1.22.53,3.14,3.65,3,4.65q-1.61,9.38-3.24,18.72Z"/><path class="cls-2" d="M546.27,389.11a101.66,101.66,0,0,0,21.08.69c4.45-.24,8.9-.5,13.35-.73,1.48-.07,3.59,2,3.81,3.62a11.93,11.93,0,0,1-.9,7.41c-1.48,2.81-3,5.65-5.36,7.85a5.16,5.16,0,0,1-5.12,1.51c-2.45-.7-4.85-1.58-7.3-2.28a12.69,12.69,0,0,0-7.52.14,66.73,66.73,0,0,0-7.16,2.65c-2,.91-3.8.67-5.08-.8-3.35-3.82-6.54-7.79-9.65-11.82a11.46,11.46,0,0,1-1.29-3.55c-.74-2.32,1.55-5.81,3.66-5.57C542,388.59,545.11,389,546.27,389.11Z"/><path class="cls-2" d="M826.33,286.05c-8.6-.4-16.78-1.6-24.55-4.84a2.22,2.22,0,0,1-1.19-1.24,3.1,3.1,0,0,1,1.13-3.46q6.87-5.2,13.81-10.31a4.27,4.27,0,0,1,6.42,1.36c1.79,2.83,3.92,4.9,7.38,5.49,3.15.54,6.28,1.24,9.36,2.07a37.42,37.42,0,0,1,5.32,2.14,4.58,4.58,0,0,1,1.38,1.19c1.26,1.44.87,2.22-.93,2.82-3,1-6,2.22-9,3.37A25,25,0,0,1,826.33,286.05Z"/><path class="cls-2" d="M573.88,427.14a47.68,47.68,0,0,1-.43,4.9,10,10,0,0,1-5.37,7.24,32.6,32.6,0,0,1-5.24,2c-3.87,1.16-9.27-1.32-11.12-5a16.37,16.37,0,0,1-1.39-3.46c-2.45-10,.74-15.67,10.41-18.61,4.58-1.4,10.42,2.11,12,6.73A36.62,36.62,0,0,1,573.88,427.14Z"/><path class="cls-2" d="M840.27,150.57c2.27.39,4.8.76,7.29,1.28a13.63,13.63,0,0,1,6.72,3.47c2.76,2.64,5.37,5.44,7.91,8.28a2.89,2.89,0,0,1,.19,3.48,3.38,3.38,0,0,1-3.38,1.41c-2.54-.25-5.08-.4-7.6-.77a16.53,16.53,0,0,0-9.29,1.49,4.43,4.43,0,0,1-5-1.59,57,57,0,0,1-7.32-13.35c-.62-1.59,1-4.3,2.6-4.2Z"/><path class="cls-2" d="M971.86,365.53a6.07,6.07,0,0,1,3.34,3.81,2.39,2.39,0,0,1-.14,1.65,2,2,0,0,1-3.09.59,4.12,4.12,0,0,1-2.22-4.29C970,365.87,970.78,365.31,971.86,365.53Z"/><path class="cls-2" d="M603.09,387.65c-.72-1.25-1.71-1.54-2.82-.67a1.83,1.83,0,0,0-.67,1.43,1.56,1.56,0,0,0,1.12,1c1.38.08,2.1-.76,2.14-2.26C602.85,387.13,603.09,387.65,603.09,387.65Z"/><path class="cls-2" d="M968.73,337.72a5.56,5.56,0,0,1-.05,1.93c-.23.52-1.11,1.32-1.27,1.23a2.5,2.5,0,0,1-1.25-3.22c.19-.52.92-1.18,1.37-1.15S968.38,337.34,968.73,337.72Z"/><path class="cls-2" d="M676.07,406.38l-1,.57s.57-.94.6-.94A4,4,0,0,1,676.07,406.38Z"/><path class="cls-2" d="M449,415.17l-1.24-1.76a2.26,2.26,0,0,0,.32.76,8.21,8.21,0,0,0,1.09.93Z"/><path class="cls-2" d="M338.1,341.85l1,.71-1.36-.41A4.17,4.17,0,0,1,338.1,341.85Z"/><path d="M538.89,470.91a3,3,0,0,1,2.85,2c.69,1.72,1.29,4.11,3.18,4.14,3.08,0,3.63-2.89,4.47-5.3a11.21,11.21,0,0,1,2.07-3.1c1-1.17,2.12-1,2.91.57,1.13,2.25,1.91,4.68,3.15,6.86a2.84,2.84,0,0,0,3.2,1.09,2.37,2.37,0,0,0,1.3-1.35c.68-1.78,1.14-3.64,1.81-5.42.21-.56.83-.95,1.23-1.45,1.25-1.51,3.9-1.23,4.55.56s1.16,3.62,1.79,5.42a3.1,3.1,0,0,0,2.91,2.17,2.65,2.65,0,0,0,2.86-1.74c.48-1.18.62-2.49,1-3.7a3.39,3.39,0,0,1,2.39-2.52,2.81,2.81,0,0,1,3.12,1.81,20,20,0,0,1,1.28,3.54c.67,2.86,2.65,4.17,5.28,4.81,1.24.3,2.48.59,3.71.92a5.57,5.57,0,0,1,4,3.73c.64,1.8,1.11,3.66,1.62,5.51.57,2.12,2.19,2.95,4.11,3.39s3.75.75,5.59,1.23a2.37,2.37,0,0,1,1.71,2.93,3.23,3.23,0,0,1-2.3,2.66c-2.44.66-4.95,1.06-7.4,1.69-.56.14-1.34.68-1.42,1.14a3.45,3.45,0,0,0,1.2,3.42,11.2,11.2,0,0,0,3.37,1.53c1.8.53,3.69.8,5.5,1.33a2,2,0,0,1,1.21,1.26,3.25,3.25,0,0,1-1.53,3.24c-2.63,1.83-6.37.73-8.71,3.28a2.1,2.1,0,0,0-.57,1.52,2.78,2.78,0,0,0,1,1.61c2.62,1.95,6.32,1.07,8.83,3.3a2.84,2.84,0,0,1,.84,3.26,2.48,2.48,0,0,1-1.26,1.39c-2.45.71-5,1.21-7.41,1.88a3.69,3.69,0,0,0-1.55,1.1,5.17,5.17,0,0,0-.91,1.58,2,2,0,0,0,1.49,2.86c2.43.73,5,1.07,7.43,1.75a3.22,3.22,0,0,1,2.27,2.8,2.3,2.3,0,0,1-1.75,2.79,44.49,44.49,0,0,1-5.65,1,4.84,4.84,0,0,0-4.16,3.42c-.59,1.82-.75,3.78-1.45,5.54a6.48,6.48,0,0,1-4.15,3.66,24.64,24.64,0,0,1-3.78.63c-2.75.45-4.67,1.78-5.08,4.77a24,24,0,0,1-.74,3.76,2.93,2.93,0,0,1-2.65,2.24,2.6,2.6,0,0,1-3-1.79c-.63-1.78-.94-3.69-1.54-5.49a2.36,2.36,0,0,0-2.86-1.78,3.88,3.88,0,0,0-3,2,9,9,0,0,0-.48,1.84c-1.61,5.68-2.07,6.23-3.83,5.32-2.59-1.33-3-3.8-3.61-6.23a11.64,11.64,0,0,0-1.71-3.32,2,2,0,0,0-1.47-.93,2.14,2.14,0,0,0-1.52,1c-1.28,2.88-2.38,5.83-3.65,8.71a2.77,2.77,0,0,1-1.48,1.09,2.44,2.44,0,0,1-3.06-1.21,5.59,5.59,0,0,1-.79-1.74c-.32-1.24-.47-2.52-.83-3.74-.61-2.07-2.72-3.9-3.86-3.39a3.65,3.65,0,0,0-2.07,3,17,17,0,0,1-1,3.65,3.32,3.32,0,0,1-2.95,2,2.64,2.64,0,0,1-3-1.83,7.26,7.26,0,0,1-.64-1.77c-.36-3.72-2.59-5.75-6-6.39-4.49-.82-6.25-3.82-7.1-7.88-.75-3.59-3.25-5.21-6.79-5.58a16,16,0,0,1-3.64-1.1c-1.3-.48-1.78-1.57-1.35-3.07a4.18,4.18,0,0,1,.94-1.6c1.91-2,4.63-1.8,7-2.52,1.5-.45,2.19-1.35,1.86-2.44a3.34,3.34,0,0,0-1.06-1.53c-2.52-2-6.22-1.41-8.55-3.9-1.09-1.17-1.18-2.25-.08-3.44,2.34-2.52,5.92-2.09,8.64-3.66a2.68,2.68,0,0,0,1.2-1.42c.31-1-.41-1.94-1.8-2.55-2.32-1-5.06-1-7-2.77a5.31,5.31,0,0,1-1-1.52c-.71-1.39-.27-2.44,1.33-3,1.21-.39,2.46-.64,3.69-.95a26.2,26.2,0,0,0,3.66-1,2.52,2.52,0,0,0,1.5-3.22,2.65,2.65,0,0,0-.85-1.52,12.49,12.49,0,0,0-3.43-1.46c-2.39-.52-5.49-.46-5.13-3.91.34-3.23,3.57-3.15,6-3.63a5.76,5.76,0,0,0,4.91-5c.24-1.26.39-2.53.68-3.77a5.11,5.11,0,0,1,3.68-3.94c1.22-.38,2.49-.6,3.7-1,3.81-1.21,3.9-1.19,5.94-6.56C536.73,471.13,537.31,470.4,538.89,470.91Zm22.93,16.84c-9.23.16-16.87.28-24.5.47a8.5,8.5,0,0,0-3.68.68,6.6,6.6,0,0,0-2.55,2.71,8.33,8.33,0,0,0-.8,3.7q0,22.9.1,45.82a7.55,7.55,0,0,0,.92,3.62,7,7,0,0,0,2.68,2.57,8.37,8.37,0,0,0,3.7.81q22.9,0,45.81-.13a7.83,7.83,0,0,0,3.67-.88,7,7,0,0,0,2.6-2.7,8.91,8.91,0,0,0,.84-3.7c.66-15.27.56-30.55-.07-45.82a8.06,8.06,0,0,0-.89-3.68c-.61-1-1.71-2.32-2.77-2.5C578.05,487.18,569.12,487.93,561.82,487.75Z"/><path d="M497,628.64a222.3,222.3,0,0,0,30.64,1.89c5.72,0,11.44.18,17.16.35a6.25,6.25,0,0,1,6.35,5.74,81,81,0,0,1-.09,17.12c-.29,2.25-2.77,4.71-5,4.8a30.19,30.19,0,0,1-3.78.23c-7.6-.71-15.25-1.35-22.56-3.65-3.73-1.18-7.44-1.06-11.23-1.26a103.52,103.52,0,0,1-13.24-1.58c-7.46-1.33-9.2-3.47-9.08-11.85a27.08,27.08,0,0,1,2.07-11.15,6.73,6.73,0,0,0,0-5.49c-1.94-4.86-1.87-9.95-.71-15,.44-1.87,1.53-3.62,3.54-4.06,5.58-1.23,11.15-2.8,16.81-3.26,10.16-.83,20.15-2.7,30.22-4a43.64,43.64,0,0,1,9.49,0c1,.1,2,1.43,2.79,2.35a3.58,3.58,0,0,1,.49,1.81c.77,6.35.19,12.66-.51,19-.14,1.25-2.43,3.87-3.62,4a47.78,47.78,0,0,1-5.65.82c-8.25.2-16.53.89-24.66-1.37a7.66,7.66,0,0,0-3.72.26C509,625.29,505.3,626.35,497,628.64Z"/><path d="M635.8,630.7c-.15,2.3-.35,5.47-.56,8.64a3.94,3.94,0,0,1-3.88,3.39c-3.34,0-6.29.52-7.75,4.07-.79,1.91-2.68,2.63-4.24,3.69a4.78,4.78,0,0,0-2.23,3c-.27,1.24-.34,2.52-.58,3.77a21.73,21.73,0,0,1-.9,3.68,3.19,3.19,0,0,1-2.78,2.06c-1.45.18-2.79-.23-3.18-1.6-.84-3-1.36-6.1-2.11-9.14-.12-.49-.69-1.18-1.12-1.23a2.76,2.76,0,0,0-3.11,1.56c-1.05,3-1.76,6-2.87,9-.52,1.36-1.85,1.61-3.14,1.35s-2.7-.68-3.11-1.91c-.78-2.38-1.12-4.91-1.69-7.37a5.79,5.79,0,0,0-.69-1.71c-.33-.55-.7-1.3-1.2-1.45-4.38-1.33-5.62-7-10.68-7.48a5.28,5.28,0,0,1-4.74-5.17c-.4-5.06-.31-10.16-.32-15.25a7.5,7.5,0,0,1,2.05-5.19,5.73,5.73,0,0,1,3.44-1.45,6.2,6.2,0,0,0,4.59-2.82c.38-5.46,4-9.2,7-13.3a6.11,6.11,0,0,1,4.74-2.7c3.81-.19,7.63-.17,11.44-.22A25.55,25.55,0,0,1,612,597a9,9,0,0,1,5,2.6,22.46,22.46,0,0,1,7.2,13.12c.35,2.37,1.11,2.69,4.05,3.1.62.09,1.27,0,1.9.11,3.37.43,5.1,1.94,5.22,4.39C635.47,623.47,635.61,626.64,635.8,630.7Z"/><path d="M438.11,717.46c-.45.33-.94,1-1.34.94-1.72-.2-2.15-1.08-1.1-2.12a1.88,1.88,0,0,1,1.71-.32C437.77,716.12,437.88,716.94,438.11,717.46Z"/><path d="M591.24,311.2c-.15-.62-.1-1.4-.46-1.85-2-2.47-4.09-4.86-6.15-7.29a28,28,0,0,1-6.78-19.43,19.18,19.18,0,0,1,7.21-15,29.69,29.69,0,0,1,17.44-7.16,26.66,26.66,0,0,1,28.12,23.37c.86,7.38-1.68,13.87-6.42,19.48a30.86,30.86,0,0,1-9.1,7,20.34,20.34,0,0,1-7.3,2.13c-5.82.73-11.44-.72-17.12-1.57Zm-5.31-25.39c-.69,3.94.93,7.92,3.83,11.53a25,25,0,0,0,7.33,5.93,14.69,14.69,0,0,0,14.53.36,22.45,22.45,0,0,0,6.1-4.43c7.55-7.94,8.44-21.75-4-29.12-1.08-.64-2.32-1-3.47-1.54-7.27-3.46-18,1.09-21.43,7.54A21.78,21.78,0,0,0,585.93,285.81Z"/><path d="M558.39,355.14c-3.87-.36-7.64-.64-11.39-1.09a26,26,0,0,1-8.84-3.24,11.72,11.72,0,0,1-4-3.92,4.56,4.56,0,0,1,.43-5.15,16.68,16.68,0,0,1,7.57-5.46,59.74,59.74,0,0,1,37.18-2,18.17,18.17,0,0,1,6.69,3.38c3.65,2.88,3.49,8.92-.4,11.34a36,36,0,0,1-14.15,5C567.14,354.6,562.72,354.78,558.39,355.14Z"/><path d="M528.74,311.76a66.22,66.22,0,0,1-15.21,1.07,20.89,20.89,0,0,1-12.15-5A28.17,28.17,0,0,1,491,288.06a24.33,24.33,0,0,1,14.55-24.69c7.21-3.3,14.76-4.09,22.25-.83,8.88,3.88,14,10.61,15.05,20.41.93,8.9-2.21,16.16-8.13,22.58-2.14,2.32-5.21,3.72-6.61,6.75ZM535.66,285c0-7.09-3.13-12.21-9.51-15.31-1.14-.56-2.37-.95-3.55-1.42a11.06,11.06,0,0,0-7.5-.23A39.67,39.67,0,0,0,508,270.8c-6.16,3.37-9.18,8.78-9,15.75a19.05,19.05,0,0,0,7.39,14.93c5,3.95,10.39,4.83,16.17,2.62C531.65,300.63,536,293.56,535.66,285Z"/><path d="M598.51,240.23a39.91,39.91,0,0,1,19.35,4.54c3.36,1.7,6.46,4,8.14,7.66a2.38,2.38,0,0,1,0,1.87,3.19,3.19,0,0,1-3.08,1.64,4.11,4.11,0,0,1-1.84-.31c-2.18-1.3-4.26-2.79-6.45-4.07A28.9,28.9,0,0,0,602,247.34c-3.17-.23-6.33-.31-9.41-1.31-1.64-.53-2.16-1.2-1.4-2.83a3.85,3.85,0,0,1,2.59-2.42A38.44,38.44,0,0,1,598.51,240.23Z"/><path d="M529.49,244.4c-.12.51-.07,1.19-.39,1.48a7.32,7.32,0,0,1-5.19,1.85,38.17,38.17,0,0,0-24.35,8.51,2.18,2.18,0,0,1-3.22-.82,3.34,3.34,0,0,1-.26-3.46,18.09,18.09,0,0,1,7.88-7.82,33.68,33.68,0,0,1,21.87-3.44C527.55,241,529.42,242.73,529.49,244.4Z"/><path d="M528.12,312.28c1.85.07,3.71.09,5.56.24a2.53,2.53,0,0,1,2.53,2.36,5.51,5.51,0,0,1-.92,3.37,13.12,13.12,0,0,1-7.67,5,46.43,46.43,0,0,1-14.85,1.27,33.28,33.28,0,0,1-5.38-1.33c-1.48-.38-1.85-1.33-1.46-2.89a3.41,3.41,0,0,1,2.17-2.66c5.36-1.95,11.16-.75,16.59-2.28,2-.56,3-2,4-3.59Z"/><path d="M590.68,310.82a13.64,13.64,0,0,0,7.78,5c4.94,1.23,10.13,0,15,1.82,1.44.53,2,1.4,1.45,2.95a4.53,4.53,0,0,1-.68,1.53,3.17,3.17,0,0,1-1.56,1.05c-9.71,2-18.85.95-27-5.16-1.24-.93-1-4.2.46-4.87a4.31,4.31,0,0,1,1.76-.61,4.37,4.37,0,0,0,3.44-1.28Z"/><path d="M706.24,621.14a2.71,2.71,0,0,1-.4-3.44c.82-1.12,2.06-1,3,.15a2.2,2.2,0,0,1,.23,1.72A2,2,0,0,1,706.24,621.14Z"/><path d="M923.82,263c-3-.16-4.9-.24-6.8-.37a15.62,15.62,0,0,1-13.57-11.59,28.1,28.1,0,0,1-1-9.43c.55-5.06,1.09-10.12,1.76-15.16a24.28,24.28,0,0,1,5.51-12,15.91,15.91,0,0,1,11.39-6.17,43.51,43.51,0,0,1,5.71-.06c9.61.39,16.6,7.68,14.85,17.9a2.67,2.67,0,0,1-2.56,2.26,6.63,6.63,0,0,1-1.89,0c-2.53-.6-4.77-1.63-5.81-4.28a25.08,25.08,0,0,0-1.49-3.49c-1.42-2.45-3.74-3.17-6.42-3-2.15.13-3.41,1.59-4.3,3.26a27.24,27.24,0,0,0-2.11,5.3,74.78,74.78,0,0,0-2.93,20.69,7.7,7.7,0,0,0,3.44,6.42c2.68,1.9,7,.62,7.77-2.35.71-2.57.69-5-.82-7.26-1.08-1.6-2-3.17-1.89-5.19a2.64,2.64,0,0,1,2.18-2.69c3.84-.69,7.54.09,11.17,1.34,1.15.4,3,3.22,3.09,4.54a41.8,41.8,0,0,1-1.81,15,7.18,7.18,0,0,1-5.2,5.1A75.1,75.1,0,0,1,923.82,263Z"/><path d="M895.91,254.21c-.65,1.72-1.4,2.73-2.5,3-3.28.88-6.76-.78-7.77-3.68-.42-1.19-.65-2.44-.95-3.67-.85-3.48-3.3-5.25-6.61-5.93-3.94-.82-7.47-.36-10.25,3.08a20.21,20.21,0,0,1-4.35,3.59c-1.25.87-6.22-.17-7.13-1.5a2.91,2.91,0,0,1-.58-1.57c0-3.3,1.66-6.13,3.2-8.82,6-10.45,11.74-21,16.81-31.95a16.5,16.5,0,0,1,2-3.21,8.07,8.07,0,0,1,6.63-3,10,10,0,0,1,1.89.2c2.59.46,5,2.54,5.3,4.74.79,5.64,1.69,11.28,2.2,16.95.4,4.4.1,8.85.44,13.26s1.15,8.79,1.62,13.2A49.18,49.18,0,0,1,895.91,254.21Zm-13.64-26.1a4.19,4.19,0,0,0-1.6-3c-1.19-1-3.1.5-3.42,2.87a11.32,11.32,0,0,0,.19,3.43c.1.53.57,1.29,1,1.39a2.44,2.44,0,0,0,2.95-1.34A20.12,20.12,0,0,0,882.27,228.11Z"/><path d="M945.56,251.67c1.91-10,3.81-20,5.78-30a26.12,26.12,0,0,1,1.34-3.56c1.3-3.59,4.26-4.73,7.51-2.87,3.1,1.77,4.12,3.37,3.67,6C961.5,235,959.75,249,956.5,262.63A6.42,6.42,0,0,1,946,266.14a5.21,5.21,0,0,1-1.36-1.28,4.68,4.68,0,0,1-.47-1.84,7.39,7.39,0,0,1,0-1.88c.5-3.15,1-6.29,1.57-9.44Z"/><path class="cls-2" d="M561.82,487.75c7.3.18,16.23-.57,25.06,1,1.06.18,2.16,1.46,2.77,2.5a8.06,8.06,0,0,1,.89,3.68c.63,15.27.73,30.55.07,45.82a8.91,8.91,0,0,1-.84,3.7,7,7,0,0,1-2.6,2.7,7.83,7.83,0,0,1-3.67.88q-22.9.15-45.81.13a8.37,8.37,0,0,1-3.7-.81,7,7,0,0,1-2.68-2.57,7.55,7.55,0,0,1-.92-3.62q-.14-22.9-.1-45.82a8.33,8.33,0,0,1,.8-3.7,6.6,6.6,0,0,1,2.55-2.71,8.5,8.5,0,0,1,3.68-.68C545,488,552.59,487.91,561.82,487.75Zm16.6,28.18c-.16-2.7-.4-7.13-.67-11.56-.08-1.34-2.34-3.78-3.61-3.91a126.3,126.3,0,0,0-28.43,0,3.08,3.08,0,0,0-1.75.67c-.87.87-2.08,1.85-2.24,2.91a115.91,115.91,0,0,0-.05,28.41c.31,2,3.16,4.41,5.48,4.58a168.29,168.29,0,0,0,24.7-.07c.63,0,1.25-.25,1.88-.33,1.13-.13,3.53-2.75,3.84-3.86C579,527.8,578.12,522.71,578.42,515.93Z"/><path class="cls-2" d="M585.93,285.81a21.78,21.78,0,0,1,2.91-9.73c3.47-6.45,14.16-11,21.43-7.54,1.15.54,2.39.9,3.47,1.54,12.42,7.37,11.53,21.18,4,29.12a22.45,22.45,0,0,1-6.1,4.43,14.69,14.69,0,0,1-14.53-.36,25,25,0,0,1-7.33-5.93C586.86,293.73,585.24,289.75,585.93,285.81Zm20.3-5.2a25.76,25.76,0,0,0-4,2.3c-1,.78-.62,3.9.27,5,1.71,2.15,6.51,2,8-.52a5.67,5.67,0,0,0,.24-3.49C610.48,282.32,608.41,280.72,606.23,280.61Z"/><path class="cls-2" d="M535.66,285c.36,8.55-4,15.62-13.09,19.09-5.78,2.21-11.21,1.33-16.17-2.62A19.05,19.05,0,0,1,499,286.55c-.22-7,2.8-12.38,9-15.75a39.67,39.67,0,0,1,7.13-2.75,11.06,11.06,0,0,1,7.5.23c1.18.47,2.41.86,3.55,1.42C532.53,272.8,535.68,277.92,535.66,285ZM515.34,282a14.09,14.09,0,0,0-1.6.65,2.42,2.42,0,0,0-1.3,3.24,6.83,6.83,0,0,0,1.91,3c1,.77,4.3-.68,4.8-2.05a3.88,3.88,0,0,0-.53-3.49A2.71,2.71,0,0,0,515.34,282Z"/><path class="cls-2" d="M882.27,228.11a20.12,20.12,0,0,1-.87,3.31,2.44,2.44,0,0,1-2.95,1.34c-.44-.1-.91-.86-1-1.39a11.32,11.32,0,0,1-.19-3.43c.32-2.37,2.23-3.87,3.42-2.87A4.19,4.19,0,0,1,882.27,228.11Z"/><path d="M578.42,515.93c-.3,6.78.55,11.87-.85,16.87-.31,1.11-2.71,3.73-3.84,3.86-.63.08-1.25.28-1.88.33a168.29,168.29,0,0,1-24.7.07c-2.32-.17-5.17-2.54-5.48-4.58a115.91,115.91,0,0,1,.05-28.41c.16-1.06,1.37-2,2.24-2.91a3.08,3.08,0,0,1,1.75-.67,126.3,126.3,0,0,1,28.43,0c1.27.13,3.53,2.57,3.61,3.91C578,508.8,578.26,513.23,578.42,515.93ZM561.1,530.71l5.16-.26c2.27-.13,4.69-2.56,5.16-4.9a40.46,40.46,0,0,0,.2-13.31c-.3-2.3-2.76-5-4.86-5.3a51,51,0,0,0-13.35-.08c-2.11.23-5.07,3-5.32,4.86-.65,5.09-.94,10.19.51,15.17a5,5,0,0,0,2.54,2.66C554.09,531,557.35,530.65,561.1,530.71Z"/><path d="M606.23,280.61c2.18.11,4.25,1.71,4.5,3.32a5.67,5.67,0,0,1-.24,3.49c-1.5,2.48-6.3,2.67-8,.52-.89-1.13-1.25-4.25-.27-5A25.76,25.76,0,0,1,606.23,280.61Z"/><path d="M515.34,282a2.71,2.71,0,0,1,3.28,1.34,3.88,3.88,0,0,1,.53,3.49c-.5,1.37-3.76,2.82-4.8,2.05a6.83,6.83,0,0,1-1.91-3,2.42,2.42,0,0,1,1.3-3.24A14.09,14.09,0,0,1,515.34,282Z"/><path class="cls-2" d="M561.1,530.71c-3.75-.06-7,.26-10-1.16a5,5,0,0,1-2.54-2.66c-1.45-5-1.16-10.08-.51-15.17.25-1.9,3.21-4.63,5.32-4.86a51,51,0,0,1,13.35.08c2.1.33,4.56,3,4.86,5.3a40.46,40.46,0,0,1-.2,13.31c-.47,2.34-2.89,4.77-5.16,4.9Z"/></svg>