<svg id="Ebene_1" data-name="Ebene 1" xmlns="http://www.w3.org/2000/svg" viewBox="0 0 1200.08 1106.42"><defs><style>.cls-1{fill:#f9f9f9;}.cls-2{fill:#fff;}</style></defs><path class="cls-1" d="M862.62,970.87c0,.1,0,.2,0,.31h55.63q73.86,0,147.73,0c3.17,0,6.41.28,9.43-1.13a3.39,3.39,0,0,0,2-3,3.83,3.83,0,0,0-3-4c-8.25-1.22-16.56-1-24.85-.94-4.48,0-9,.31-13.42.43-1.92,0-3.84,0-5.76,0-5.52,0-7.46-3.1-7.69-6.72-.38-5.74-.39-11.51-.4-17.26q0-95,0-190,0-9.58-.21-19.18a47.75,47.75,0,0,0-.69-5.69c-.38-2.65-3.57-6.13-6.19-6.69a33,33,0,0,0-5.64-.94c-5.73-.17-11.48-.12-17.22-.22-2,0-5.12-3.13-5.17-5-.11-3.83-.33-7.66-.34-11.49q-.06-30.7,0-61.41,0-52.77.12-105.55c0-11.51.06-23,0-34.54a60.73,60.73,0,0,0-.75-7.6c-.36-2.8-3.67-6-6.26-6.6-3.79-.88-7.62-.79-11.44-.79q-44.13,0-88.25,0c-3.19,0-6.38-.16-9.58-.27-1.14,0-3.6-2.54-4-3.65a19.91,19.91,0,0,1-.91-7.57c.15-9.59.52-19.18.55-28.77q.15-55.65.14-111.31c0-3.19-.09-6.39-.22-9.59-.06-1.26-.37-2.52-.53-3.79a10.76,10.76,0,0,0-9-8.75,80.13,80.13,0,0,0-9.54-.61c-21.74.16-43.49.41-65.23.6-2.55,0-5.1-.11-7.65-.19-2.32-.08-5-2.74-4.87-5,.46-12.14,1-24.27,1.41-36.41a155.41,155.41,0,0,1,1.71-21c1.17-7,1.1-14,1.41-21,.13-3-2.91-6.17-6-6.41-1.91-.16-3.82-.29-5.73-.41-5.74-.35-11.52-.42-17.22-1.07-14-1.62-28.06-2-42.09-2.84-5.1-.32-10.24-.41-15.3-1-13.34-1.66-26.77-2-40.16-2.9-7-.44-14.06-.65-21-1.31-20.37-1.9-40.86-2.25-61.17-4.94-3.15-.42-6.38-.19-9.58-.36-10.85-.58-21.76-.67-32.53-1.93-17.82-2.07-35.72-2.31-53.58-3.44-3.81-.24-7.66,0-11.48.07-2.12,0-5.32,2.67-5.6,4.5-.19,1.26-.56,2.51-.63,3.77-1.12,21.71-3.48,43.34-4.25,65.07a287,287,0,0,1-3.31,32.41c-.2,1.3-2.61,3.43-4.09,3.51-4.46.21-8.93.52-13.39.51-22.38-.05-44.76-.21-67.15-.3-4.47,0-8.95,0-13.42.18-7.33.28-11.4,4.51-11.77,12.35-.18,3.83-.18,7.67-.18,11.51q.06,69.09.12,138.17c0,2.54-.13,5.08-.21,7.62,0,1.11-2.61,4.11-3.59,4.15-3.83.17-7.66.44-11.49.45-24.3,0-48.6-.05-72.9-.05q-9.6,0-19.19.24a44.4,44.4,0,0,0-5.69.77c-2.76.43-6.17,3.81-6.39,6.39-.26,3.18-.6,6.36-.62,9.54q-.36,56.61-.61,113.22c-.09,28.14,0,56.29,0,84.44,0,4.46-.37,8.93-.58,13.4-.05,1.06-2.81,3.59-4,3.72-1.89.2-3.77.64-5.66.72-5.11.21-10.24.13-15.33.5-1.81.13-3.59,1.13-5.31,1.9-1.91.85-2.52,2.76-3.19,4.53a5.5,5.5,0,0,0-.19,1.91q-.17,39.33-.31,78.66-.18,71-.3,142c0,3.2,0,6.4-.19,9.59,0,1.27-.44,2.51-.61,3.77s-2.6,3.61-3.93,3.77a69.81,69.81,0,0,1-7.59.81c-12.15.13-24.3.11-36.45.22a12.75,12.75,0,0,0-5.53,1.2c-1.51.71-1.82,1.38-1.46,3a3.29,3.29,0,0,0,2.13,2.78c3.06,1.27,6.25,1.08,9.41,1.09,33.9.15,67.79.35,101.69.37q84.41.06,168.83-.07,70,0,140,0a31.47,31.47,0,0,0,11.29-1.75c9.56-3.6,19.17-7.09,28.73-10.73a34.33,34.33,0,0,0,5-2.77,7.19,7.19,0,0,0,3.55-6.34c.1-3.19.07-6.39.09-9.58.09-14.69-.55-29.43,2.75-43.92.18-5.75.48-11.5.52-17.24,0-8.32-.22-16.63-.1-25a57.37,57.37,0,0,1,1.22-9.46c.36-2,1.8-3.16,3.62-4s2.48-.5,2.75,1.29a28.84,28.84,0,0,1,.71,3.71c.2,26.23.51,52.45-.22,78.67-.2,7-.23,14.07-.23,21.1a23.19,23.19,0,0,0,.65,5.7,6.48,6.48,0,0,0,3.11,4.56c10.23,5.38,21.37,8.48,32,12.88a43,43,0,0,0,16.85,2.94c48-.09,95.92,0,143.89-.12C821.7,971.25,842.16,971,862.62,970.87Z"/><path d="M862.62,970.87c-20.46.15-40.92.38-61.38.42-48,.08-95.93,0-143.89.12a43,43,0,0,1-16.85-2.94c-10.61-4.4-21.75-7.5-32-12.88a6.48,6.48,0,0,1-3.11-4.56,23.19,23.19,0,0,1-.65-5.7c0-7,0-14.07.23-21.1.73-26.22.42-52.44.22-78.67a28.84,28.84,0,0,0-.71-3.71c-.27-1.79-1.07-2.07-2.75-1.29s-3.26,2.06-3.62,4a57.37,57.37,0,0,0-1.22,9.46c-.12,8.32.14,16.63.1,25,0,5.74-.34,11.49-.52,17.24-3.3,14.49-2.66,29.23-2.75,43.92,0,3.19,0,6.39-.09,9.58a7.19,7.19,0,0,1-3.55,6.34,34.33,34.33,0,0,1-5,2.77c-9.56,3.64-19.17,7.13-28.73,10.73a31.47,31.47,0,0,1-11.29,1.75q-70,0-140,0-84.42,0-168.83.07c-33.9,0-67.79-.22-101.69-.37-3.16,0-6.35.18-9.41-1.09a3.29,3.29,0,0,1-2.13-2.78c-.36-1.64,0-2.31,1.46-3a12.75,12.75,0,0,1,5.53-1.2c12.15-.11,24.3-.09,36.45-.22a69.81,69.81,0,0,0,7.59-.81c1.33-.16,3.76-2.54,3.93-3.77s.56-2.5.61-3.77c.14-3.19.18-6.39.19-9.59q.15-71,.3-142,.09-39.33.31-78.66a5.5,5.5,0,0,1,.19-1.91c.67-1.77,1.28-3.68,3.19-4.53,1.72-.77,3.5-1.77,5.31-1.9,5.09-.37,10.22-.29,15.33-.5,1.89-.08,3.77-.52,5.66-.72,1.2-.13,4-2.66,4-3.72.21-4.47.57-8.94.58-13.4.06-28.15,0-56.3,0-84.44q.19-56.61.61-113.22c0-3.18.36-6.36.62-9.54.22-2.58,3.63-6,6.39-6.39a44.4,44.4,0,0,1,5.69-.77q9.6-.24,19.19-.24c24.3,0,48.6.06,72.9.05,3.83,0,7.66-.28,11.49-.45,1,0,3.56-3,3.59-4.15.08-2.54.22-5.08.21-7.62q0-69.09-.12-138.17c0-3.84,0-7.68.18-11.51.37-7.84,4.44-12.07,11.77-12.35,4.47-.17,9-.19,13.42-.18,22.39.09,44.77.25,67.15.3,4.46,0,8.93-.3,13.39-.51,1.48-.08,3.89-2.21,4.09-3.51a287,287,0,0,0,3.31-32.41c.77-21.73,3.13-43.36,4.25-65.07.07-1.26.44-2.51.63-3.77.28-1.83,3.48-4.47,5.6-4.5,3.82-.07,7.67-.31,11.48-.07,17.86,1.13,35.76,1.37,53.58,3.44,10.77,1.26,21.68,1.35,32.53,1.93,3.2.17,6.43-.06,9.58.36,20.31,2.69,40.8,3,61.17,4.94,7,.66,14,.87,21,1.31,13.39.86,26.82,1.24,40.16,2.9,5.06.63,10.2.72,15.3,1,14,.86,28.1,1.22,42.09,2.84,5.7.65,11.48.72,17.22,1.07,1.91.12,3.82.25,5.73.41,3,.24,6.08,3.45,6,6.41-.31,7-.24,14.06-1.41,21a155.41,155.41,0,0,0-1.71,21c-.37,12.14-1,24.27-1.41,36.41-.09,2.29,2.55,4.95,4.87,5,2.55.08,5.1.21,7.65.19,21.74-.19,43.49-.44,65.23-.6a80.13,80.13,0,0,1,9.54.61,10.76,10.76,0,0,1,9,8.75c.16,1.27.47,2.53.53,3.79.13,3.2.23,6.4.22,9.59q0,55.65-.14,111.31c0,9.59-.4,19.18-.55,28.77a19.91,19.91,0,0,0,.91,7.57c.42,1.11,2.88,3.61,4,3.65,3.2.11,6.39.27,9.58.27q44.13,0,88.25,0c3.82,0,7.65-.09,11.44.79,2.59.61,5.9,3.8,6.26,6.6a60.73,60.73,0,0,1,.75,7.6c.08,11.52,0,23,0,34.54q-.06,52.78-.12,105.55,0,30.71,0,61.41c0,3.83.23,7.66.34,11.49,0,1.84,3.21,4.94,5.17,5,5.74.1,11.49,0,17.22.22a33,33,0,0,1,5.64.94c2.62.56,5.81,4,6.19,6.69a47.75,47.75,0,0,1,.69,5.69q.21,9.58.21,19.18,0,95,0,190c0,5.75,0,11.52.4,17.26.23,3.62,2.17,6.76,7.69,6.72,1.92,0,3.84.07,5.76,0,4.47-.12,8.94-.39,13.42-.43,8.29-.08,16.6-.28,24.85.94a3.83,3.83,0,0,1,3,4,3.39,3.39,0,0,1-2,3c-3,1.41-6.26,1.13-9.43,1.13q-73.86,0-147.73,0H862.63C862.63,971.07,862.63,971,862.62,970.87Zm-381-763.15c-5.11-.08-10.21-.2-15.32-.24a6.19,6.19,0,0,0-6.44,5.66c-.52,7-.67,14.06-1.57,21-1.39,10.79-1.84,21.64-2.42,32.48-1.29,24.25-3.94,48.4-4.65,72.68a59.3,59.3,0,0,1-.72,7.64c-2.16,13.29-2.15,26.74-2.88,40.13a16.69,16.69,0,0,0,.6,5.63,4.26,4.26,0,0,0,2.39,2.66c7.46,1.87,15.11,2.35,22.76,2.78,2.29.13,4.61-2,5-4.73.4-2.52.66-5.06,1.13-7.56a7.84,7.84,0,0,1,6.61-6,8.3,8.3,0,0,1,7.06,2.18,13.13,13.13,0,0,1,3.23,4.65c1.14,3,1.78,6.11,2.67,9.16a5.14,5.14,0,0,0,4,3.61,44.66,44.66,0,0,0,7.57.86c5.74.21,11.5-.1,17.21.9a158,158,0,0,0,22.9,1.89c17.87.56,35.75,1.08,53.57,2.79,7.63.73,15.29,1.31,22.95,1.5,24.3.59,48.44,3.1,72.6,5.53,5.08.51,10.19.76,15.29,1a8.24,8.24,0,0,0,3.72-.64,6.94,6.94,0,0,0,2.81-2.39c2.5-3.87,1.87-8.68,3.62-12.81a11.17,11.17,0,0,1,5-5.56c4.08-2.24,9.67.09,10.87,4.43a20,20,0,0,1,.8,3.7c.19,2.54.17,5.1.3,7.64.09,1.73,1.74,3.12,3.94,3.43,3.51.49,6.52-1.61,6.81-4.94.78-8.91,1.87-17.81,2.1-26.74.67-26.85,4-53.52,4.88-80.36,0-1.28.11-2.56.24-3.83,2.16-21,2.67-42.08,4.4-63.1.25-3-2.6-6-6-6.21-5.73-.44-11.5-.51-17.2-1.2-20.95-2.5-42.12-2.06-63-5-1.88-.26-3.83-.08-5.74-.17-14.68-.73-29.37-1.23-44-2.3-14-1-28-2-42-3-3.82-.27-7.64-.55-11.46-.92-14.63-1.39-29.29-2.33-44-2.64-7-.15-14.08-.39-21-1.24C500.68,209,491.16,208.08,481.57,207.72ZM544,843h.21q0-51.78,0-103.55c0-3.19-.28-6.38-.48-9.56-.14-2.22-2.77-4.78-5.05-5-1.9-.16-3.8-.43-5.7-.46-7.67-.11-15.34-.14-23-.21q-49.84-.45-99.68-.88c-5.11,0-10.21.23-15.32.37-2,.06-5,2.69-5.39,4.78a50.32,50.32,0,0,0-1.2,7.54c-.2,7.67-.21,15.34-.17,23,.15,31.31.41,62.63.5,94,.07,27.48-.07,55-.06,82.45,0,6.39.21,12.78.42,19.16a23,23,0,0,0,.85,3.68c.23,1.12,3,3.77,4,3.86,2.53.22,5.07.63,7.61.63q64.23.06,128.45,0c1.91,0,3.84,0,5.74-.21,1.26-.11,2.5-.49,3.76-.71,1.09-.2,3.53-2.9,3.84-4,1.27-4.38,1-8.87.94-13.32Q544.17,893.78,544,843Zm267-1.68c-.12-19.92-.23-39.73-.36-59.55-.09-15.34-.15-30.68-.35-46a29.7,29.7,0,0,0-1.12-7.49,5.23,5.23,0,0,0-2.57-2.6,8.77,8.77,0,0,0-3.7-.85c-26.82-1.2-53.63-2-80.48-.87a316,316,0,0,1-32.57-.28c-7.63-.46-15.32-.18-23,0a48.79,48.79,0,0,0-7.52,1.26c-1.32.24-3.43,2.76-3.75,4-.95,3.78-.66,7.61-.65,11.43.07,22.37.21,44.74.23,67.11q.07,68.07.09,136.15c0,4.46.25,8.93.44,13.39.09,2.14,2.78,4.92,4.91,5.14,2.54.25,5.08.64,7.62.64q65.18.06,130.36,0a21.59,21.59,0,0,0,7.57-.83,4.4,4.4,0,0,0,2.86-2.32,22.16,22.16,0,0,0,1.74-5.37,134.14,134.14,0,0,0,.37-26.8c-.64-7.68-.55-15.32-.44-23C811.05,883.35,811.86,862.26,811,841.28ZM540.58,696.86l.17,0c-.12,2.55-.27,5.11-.35,7.66,0,1.28.05,2.56.06,3.84,0,3.86,1.45,6.3,4.81,7.36a219.57,219.57,0,0,1,31.78,13.32c2.86,1.43,5.74,2.82,8.58,4.28a18.44,18.44,0,0,1,3.24,2c2,1.62,3.93,3.43,4,6.21.26,7.67.35,15.34.58,23,.07,2.55.34,5.09.52,7.64.1,1.35,2.26,3.52,3.73,3.82,5.42,1.14,7.47-.87,8-5.35.14-1.26.22-2.54.24-3.82.16-8.31.21-16.62.49-24.93a8.81,8.81,0,0,1,5.05-7.65c11.47-5.63,23.1-10.94,34.64-16.43a28.35,28.35,0,0,1,11.12-2.54c1.89-.09,3.77-.55,5.66-.79,1.36-.18,3.52-2.55,3.57-4,.27-8.31.69-16.61.74-24.92a183.47,183.47,0,0,1,2.89-30.51,20.94,20.94,0,0,1,4.81-10.29A337.72,337.72,0,0,0,714,588a280,280,0,0,0,26.2-67.74c5.29-21.13,8.06-42.69,10.63-64.28a17.34,17.34,0,0,0-.3-5.7c-.25-1.12-1.12-2.65-2.06-3-4.23-1.44-8.58-2.51-12.89-3.69-1.53-.42-3.83,1.12-4.28,2.89a77.63,77.63,0,0,0-2.17,9.29c-1.91,15.9-5.39,31.49-8.92,47.08A197.14,197.14,0,0,1,694,566.41a247.25,247.25,0,0,1-15.67,21.79c-4.83,6-10.72,10.95-16.75,15.72a18.15,18.15,0,0,1-3.18,2.12c-6.89,3.36-13.62,7.2-21.27,8.56a41.13,41.13,0,0,0-12.57,4.48c-6.48,3.53-13.44,3.81-20.52,2.92a21.61,21.61,0,0,1-5.5-1.57,16.79,16.79,0,0,1-5-2.81c-4.34-4.09-9.16-6.9-15.27-7a56.67,56.67,0,0,1-32-19.72c-12.66-15.36-23.67-31.75-32.15-49.8a138.25,138.25,0,0,1-7.7-19.61c-2.89-9.81-5.68-19.66-8.17-29.57a347,347,0,0,1-8.09-45.27c-.36-3.16-.89-6.3-1.37-9.45-.17-1.13-2.81-3.59-4-3.79a27.12,27.12,0,0,0-11.38.25c-1.65.43-3.68,2.37-3.82,3.76-.89,9,.76,17.88,1.31,26.79a315.81,315.81,0,0,0,8.23,54.93,191.85,191.85,0,0,0,10,31c9.39,21.77,20.94,42.39,33.12,62.68,4.93,8.22,9.94,16.43,15.5,24.22,4.32,6.07,6.34,12.4,5.69,19.75-.45,5.09-.63,10.21-1,15.31C541.86,680.3,541.21,688.58,540.58,696.86ZM187.25,843.09h-.2q0,51.75,0,103.5c0,3.81-.38,7.65.57,11.44.28,1.12,2.59,3.87,3.74,4,3.17.28,6.34.76,9.52.76q52.69.07,105.39,0c2.55,0,5.1-.23,7.64-.4,3-.2,6.34-3.22,6.4-6,.23-10.22.53-20.43.53-30.65q0-84.33-.1-168.67c0-7.67.1-15.34.05-23a55.09,55.09,0,0,0-.66-5.69c-.15-1.28-2.48-3.67-3.85-3.83a62.56,62.56,0,0,0-7.57-.74c-12.77.11-25.55.54-38.32.52-24.26,0-48.53-.36-72.8-.5a45.8,45.8,0,0,0-5.66.7c-1.34.16-4,2.53-4,3.67-.23,3.82-.62,7.63-.63,11.45Q187.21,791.33,187.25,843.09ZM369,608.79h.47q-.07,48.91-.13,97.84c0,4.48,0,9,.1,13.43a11.53,11.53,0,0,0,.58,3.75,7.84,7.84,0,0,0,3.77,4.13c1.85,1,5.65-.43,6.61-2.43,1.1-2.28,2-4.67,3.09-7a5.21,5.21,0,0,1,4.62-2.86c5.1-.26,10.22-.35,15.33-.35,21.1,0,42.19,0,63.29-.05,3.82,0,7.66.22,11.45-.72,1.19-.3,3.91-2.58,4-3.69.23-3.18.61-6.37.63-9.55q.25-63.32.41-126.62a80.43,80.43,0,0,0-.29-9.58,37,37,0,0,0-2-9.32A253.92,253.92,0,0,1,470.46,523c-.84-3.38-3.48-5.2-6.56-6.41a25.74,25.74,0,0,0-3.66-1.11c-3.12-.69-6.28-1.19-9.38-2-22.29-5.64-44.57-11.35-66.87-17-3.09-.78-6.27-1.21-9.42-1.79-1.65-.3-4.08,1.36-4.32,3a41.76,41.76,0,0,0-.87,5.62c-.27,23.65-1.09,47.3-.46,71C369.22,585.76,369,597.28,369,608.79ZM880.34,841.12q0,47,0,93.93c0,5.75,0,11.51.14,17.25a45,45,0,0,0,.83,5.63c.19,1.28,2.67,3.74,3.79,4,3.76,1,7.59.8,11.41.8q49.83,0,99.66,0c2.55,0,5.11,0,7.66-.13,1.27,0,2.53-.3,3.8-.43,2-.2,4.78-3.07,4.87-5.17.2-4.46.45-8.93.46-13.39q.07-100.63.08-201.29c0-3.19,0-6.39-.14-9.58,0-1.27-.38-2.52-.54-3.79-.14-1-2.91-3.47-4.11-3.58-2.53-.24-5.06-.72-7.59-.73q-27.79-.15-55.58-.15c-14.69,0-29.38.27-44.06-.68-3.82-.25-7.66,0-11.49.1a27.53,27.53,0,0,0-3.77.65c-1.73.3-4.83,3.58-4.9,5.33-.21,5.1-.5,10.2-.5,15.31Q880.3,793.2,880.34,841.12ZM839.15,607.53H839q0,52.68,0,105.34c0,2.54.32,5.09.5,7.63.11,1.51,2.6,3.25,4.15,3.11a47.46,47.46,0,0,0,9.26-2.2c12.89-3.83,25.92-6.38,39.52-6.16,21.06.35,42.12.09,63.19.09,3.83,0,7.66,0,11.48-.07,1.91,0,3.81-.35,5.71-.48,2.35-.16,4.9-2.61,4.94-4.91.19-13.4.48-26.79.52-40.19q.13-43.1.06-86.19,0-39.27-.14-78.53a53.8,53.8,0,0,0-.92-9.48,4.13,4.13,0,0,0-2.44-2.7,28.24,28.24,0,0,0-7.47-1.1c-24.26-.1-48.51-.09-72.77-.1-13.4,0-26.8,0-40.21,0-3.18,0-6.37.22-9.55.36-3,.14-5.68,3.11-5.71,6.39,0,1.92,0,3.83,0,5.75Zm-477.93.78h0q0-46,0-92.12c0-4.47,0-9-.08-13.43,0-1.9-.37-3.8-.56-5.7-.23-2.35-2.71-4.92-4.93-5-3.19-.18-6.38-.46-9.57-.46q-54.68,0-109.36,0c-2.56,0-5.12,0-7.67.21a9.24,9.24,0,0,0-3.71.84,5.3,5.3,0,0,0-2.64,2.62,30.11,30.11,0,0,0-1.07,7.55c-.12,14.72-.11,29.43-.11,44.14q0,72.93,0,145.86c0,5.74.3,11.49.52,17.24.09,2.2,2.74,4.63,5.17,4.75,4.46.21,8.92.5,13.39.51,23.66.05,47.33.25,71-.07A105.57,105.57,0,0,1,340,719.1c3.7,1,7.31,2.32,11,3.29a47.32,47.32,0,0,0,5.63.71c1.42.19,3.85-2,3.94-3.52.24-4.46.63-8.93.64-13.39Q361.27,657.24,361.22,608.31Zm469.9,2.63h.22c0-21.76,0-43.51,0-65.27-.06-14.72-.3-29.43-.45-44.15,0-.64,0-1.27-.06-1.91-.08-2.17-3-4.74-5.08-4.63a45.08,45.08,0,0,0-11.29,2.08c-9.14,2.92-18.49,5.07-27.74,7.58-9.86,2.69-19.61,5.76-29.65,7.77a7.37,7.37,0,0,0-5.62,4.74c-1.52,4.2-2.8,8.5-4,12.8-5.55,19.76-12.43,39-22.34,57-1.84,3.36-3.44,6.86-5.17,10.29a22.41,22.41,0,0,0-2.44,9.2c-.2,4.47-.32,8.95-.32,13.43q-.06,39.35,0,78.7c0,3.2.06,6.4.25,9.59a8,8,0,0,0,1,3.6,6.25,6.25,0,0,0,2.73,2.44c3,1.25,6.27,1.06,9.46,1.06,21.75,0,43.5,0,65.25.05,5.11,0,10.23.16,15.34.33,3.42.12,5,1.69,6.33,6,.37,1.23.58,2.5.94,3.72a12.77,12.77,0,0,0,.84,1.7c1,2,2.89,2.42,4.75,2.49,3.44.14,6.62-2.53,6.8-5.41.12-1.91.34-3.82.34-5.74Q831.14,664.69,831.12,610.94ZM540.26,517.17c-1.27,23,12.62,49.73,33.1,62.75,17.79,11.3,36.24,14.58,56.59,8.57,14.61-4.31,26.74-12,35.71-24.22,11.33-15.38,17.09-32.74,15.94-52a62.79,62.79,0,0,0-8.82-29,82.55,82.55,0,0,0-18.64-21.64,64.81,64.81,0,0,0-18.09-10.53,74.71,74.71,0,0,0-20.47-4.58,56.65,56.65,0,0,0-13.34.3c-20.48,3.39-36.7,13.92-49.29,30.26a39.22,39.22,0,0,0-3.06,4.85A74.27,74.27,0,0,0,540.26,517.17ZM328.7,842.43h.13q.21,48.84.41,97.68c0,3.83,0,7.66.08,11.49.05,1.91.34,3.8.5,5.7.18,2.14,2.83,4.63,5.16,4.85,9.66.91,32.38.93,40.11-.16a5.66,5.66,0,0,0,3.15-2,6.31,6.31,0,0,0,1.43-3.49c.28-5.74.47-11.48.47-17.22q0-90,0-180.06c0-3.83,0-7.66-.08-11.49-.15-7.3-1.53-9.19-8-10.81-12.37-3.1-24.67-6.51-37.26-8.68-.61-.1-1.25-.07-1.87-.19-1.48-.29-3.79,1.7-3.89,3.32-.12,1.91-.36,3.82-.37,5.73Q328.68,789.75,328.7,842.43Zm543.46,3.43h0q0-45,0-90c0-5.75,0-11.5-.23-17.24a69.69,69.69,0,0,0-1-7.56c-.24-1.68-2.29-3-4.24-2.64-7.52,1.34-15.09,2.29-22.39,4.82-6,2.09-12.27,3.46-18.41,5.15a7.12,7.12,0,0,0-5.44,7c-.26,7-.49,14-.56,21-.1,10.85-.08,21.7-.08,32.56q0,39.25.05,78.52c0,23.61.71,47.23-.12,70.85,0,1.28-.05,2.56,0,3.83s.15,2.55.21,3.82a6.91,6.91,0,0,0,6,6.32c12.75.78,25.5.59,38.25.14.64,0,1.26-.23,1.9-.27,1.83-.13,4.76-3.31,4.89-5.28.08-1.27.39-2.53.37-3.8-.41-24.26.45-48.5.82-72.76C872.31,868.85,872.16,857.35,872.16,845.86ZM343.53,399.37h-.1V412.8c0,17.28,0,34.55,0,51.83,0,3.83.17,7.67.34,11.5a6.77,6.77,0,0,0,6,6.27c3.83.16,7.66.37,11.49.38a45.78,45.78,0,0,1,13.24,2c17.74,5.48,36,8.82,53.88,13.78,10.46,2.91,21.17,4.93,31.77,7.31,3.14.71,6.14-2.41,5.64-5.8-2.79-19-5.41-38-6.6-57.17,0-.63-.26-1.24-.34-1.87-.25-2.13-2.95-4.56-5.18-5a47.5,47.5,0,0,0-13.36-.34c-12.13,1.12-24.28,1-36.43,1-7.68,0-15.35.05-23,0-3.84,0-7.68,0-11.5-.26a32.85,32.85,0,0,1-5.56-1.27,6.74,6.74,0,0,1-3.74-4A76.78,76.78,0,0,1,360,413.9c.17-2,3.07-4.8,5.18-4.91,3.82-.19,7.65-.45,11.48-.45,14.08,0,28.15.16,42.22.12,7.67,0,15.34-.26,23-.54a9.56,9.56,0,0,0,3.53-1.26c.2-.09.23-1.24,0-1.34-5.8-3.09-12.84-5.17-17.91-5.19-16-.05-32,0-48-.07-4.47,0-8.95-.13-13.42-.27-3.66-.12-6.19-2.46-6.46-5.68A60.59,60.59,0,0,1,360,379c.38-2.18,2.93-4.82,5.11-5a55,55,0,0,1,5.7-.58c9-.08,17.91,0,26.87-.08,12.15-.05,24.3-.15,36.45-.21a7.17,7.17,0,0,0,3.55-1.17c1.35-.74,1.67-1.57,1.45-3.15-.18-1.33-.53-2.4-2-2.8a23.45,23.45,0,0,0-5.52-1.17c-10.88-.14-21.75-.12-32.62-.17-9,0-17.91,0-26.87-.22a57.64,57.64,0,0,1-7.57-1.05c-1.14-.18-3.73-2.77-4-3.82a38.44,38.44,0,0,1-.13-17c.27-1.33,2.54-3.5,4-3.65,3.18-.34,6.35-.88,9.53-.94,8.95-.14,17.91-.13,26.86-.08,9.6,0,19.19.24,28.79.29,2.54,0,5.09-.26,7.64-.41,2.14-.13,4.6-2.52,5.31-4.85a19.34,19.34,0,0,0,.21-11.32,4.72,4.72,0,0,0-2.61-2.56,16.31,16.31,0,0,0-5.6-1.1c-5.75,0-11.55.69-17.25.18-12.17-1.09-24.27-.08-36.4.31-7.67.25-15.35.15-23,.29-3.19.06-6.38.34-9.56.54-1.46.1-3.91,2.2-4.15,3.48a21.48,21.48,0,0,0-.73,3.74c-.19,14.72-.4,29.43-.42,44.14C343.05,380.18,343.36,389.77,343.53,399.37Zm514.85.17h-.27q0-34.5,0-69a30.9,30.9,0,0,0-.7-7.58,5.44,5.44,0,0,0-3.75-4,15.44,15.44,0,0,0-3.66-1c-9.57-.25-19.15-.62-28.72-.5-14,.19-28.08.75-42.13,1.17-1.9.05-3.81.23-5.71.35a7.15,7.15,0,0,0-5.52,4.59,21.16,21.16,0,0,0-.11,11.33,4.14,4.14,0,0,0,2.6,2.45,32.9,32.9,0,0,0,7.52,1c16,.09,31.94,0,47.91.12,3.17,0,6.34.54,9.5.86,1.66.17,4.92,3.59,5.14,5.25.69,5.08,1,10.14-.17,15.2a6.59,6.59,0,0,1-5.51,4.5c-3.83.16-7.65.36-11.48.37-14,.05-28.1,0-42.16,0-3.82,0-7.65.13-11.47.38a16.26,16.26,0,0,0-3.56,1.16c-1.53.48-1.79,1.44-1.7,3a2.84,2.84,0,0,0,1.9,2.85,17.67,17.67,0,0,0,7.45,1.2c17.25,0,34.5,0,51.74.07,3.18,0,6.36.35,9.54.6,1.93.15,4.85,3.09,5.23,5a52.26,52.26,0,0,1,.32,15.24,6.43,6.43,0,0,1-6.46,5.72c-4.47.15-8.93.3-13.4.32-14.69.05-29.38,0-44.07.06-3.18,0-6.36-.08-9.49.78a5.73,5.73,0,0,0-3.39,4.16c-.12,1.88,1.31,4.22,2.76,4.43a45.3,45.3,0,0,0,5.6.9c8.31.12,16.61,0,24.91.13,3.18,0,6.36.32,9.53.54,2.28.15,4.83,2.73,5.21,4.86a49.48,49.48,0,0,1,.05,15.22c-.18,1.35-2.32,3.93-3.56,4.17a34.23,34.23,0,0,1-5.62,1c-8.94.19-17.88.16-26.82.36-3.18.07-6.35.55-9.52.86-1.3.13-3.67,2.48-4,3.67-1.5,4.93-1.91,10-2.31,15.1a300.15,300.15,0,0,1-4,32.32,73.43,73.43,0,0,0-.69,9.52c-.09,1.56,2.22,3.61,3.66,3.31,16.25-3.37,32.26-7.75,48.2-12.32,14.22-4.06,28.45-7.2,43.35-6.2a12.48,12.48,0,0,0,1.88-.26c2.23-.16,5.13-2.7,5.28-4.77.27-3.81.65-7.62.66-11.44C858.42,444.26,858.38,421.9,858.38,399.54ZM646.7,845.64h-.06c0-21.09,0-42.19,0-63.29.05-14.06.3-28.12.35-42.19a47.31,47.31,0,0,0-.79-7.58,2.93,2.93,0,0,0-2.68-2.26,7.16,7.16,0,0,0-3.72.16c-5.81,2.63-11.53,5.49-17.3,8.22s-8.31,7.39-8.37,13.8c-.5,53.06-1.24,106.12-.6,159.18.1,8.31.15,16.62.28,24.93,0,2.55.17,5.11.41,7.65a7.57,7.57,0,0,0,4.26,6,159.05,159.05,0,0,0,21.09,9.06,16.52,16.52,0,0,0,1.9.19c1.58.35,4.09-1.29,4.47-2.66.89-3.14.72-6.34.72-9.52Q646.73,896.47,646.7,845.64Zm-94.31-1.58h.14q.16,49.89.38,99.76c0,3.81-.36,7.64.87,11.39.43,1.32,3,3.27,4.4,3,4.39-.9,8.8-1.7,13.13-2.77a52.1,52.1,0,0,0,7.21-2.59c3.25-1.35,4.73-4.1,5.31-7.39a25.59,25.59,0,0,0,.36-3.81c.07-3.2.08-6.4.08-9.59q0-70-.09-140.06c0-12.15.1-24.3.05-36.45a69.28,69.28,0,0,0-.73-9.54,7.65,7.65,0,0,0-4.34-6c-7-3.15-14-6-21.1-9a3.66,3.66,0,0,0-1.86-.16c-1.42.21-2.64.88-2.84,2-1.43,7.61-.4,15.3-.46,22.95C552.66,785.23,552.55,814.64,552.39,844.06Zm47.19-429.8v.1c-5.11-.35-10.23-.5-15.31-1.08-12.72-1.45-25.5-1.92-38.26-2.58-4.46-.23-8.93,0-13.4,0-1.23,0-3.87,2.34-4,3.56a92.89,92.89,0,0,0-1,9.53q-.1,37.43,0,74.84a51.26,51.26,0,0,0,.92,7.58c.08.55.6,1.47.92,1.47,1.58,0,2.13-1,2.31-2.5,2.49-21.35,19-46.6,42.27-58.51,9.81-5,20.12-8.25,31.16-8.68a134.89,134.89,0,0,1,15.31.38A68,68,0,0,1,656,451.59c3.61,2.64,7,5.58,10.46,8.41a2.79,2.79,0,0,0,3.49.29,2.2,2.2,0,0,0,.83-1.54,314.39,314.39,0,0,0,0-34.46c0-.63-.24-1.25-.32-1.89-.14-1.14-2.76-3.56-4-3.72-8.87-1.15-17.77-1.9-26.7-2.38C626.4,415.59,613,414.94,599.58,414.26Zm97.94,6.25-14.15-.32c-1.28,0-3.88,2.29-4,3.52-.17,1.91-.48,3.81-.48,5.72,0,11.5.27,23,0,34.5a49.69,49.69,0,0,0,4.14,20.48c1.73,4.12,3.32,8.31,4.75,12.54a34.66,34.66,0,0,1,1.73,7.44c1.7,16.1.83,31.91-5.82,47-1.29,2.93-2.6,5.84-3.77,8.81a14.09,14.09,0,0,0-.78,3.71,4,4,0,0,0,.5,1.78c.51,1.15,1.54,1.17,2.74-.15a39.52,39.52,0,0,0,3.57-4.47c10.51-15.53,16.5-33.12,22.33-50.68a181.16,181.16,0,0,0,7.12-29.79c2.21-14.51,5.38-28.9,6.35-43.6a22.28,22.28,0,0,0,0-3.83c-.22-1.89-.61-3.77-1-5.64-.52-2.48-2.88-4.89-5.05-5.12C710.07,421.78,704.36,421.21,697.52,420.51Zm-205,229.62h-.13c0,17.18-.05,34.37,0,51.56a94.44,94.44,0,0,0,.86,9.46c.13,1.19,2.75,3.36,4.06,3.54a80.34,80.34,0,0,0,20.9,0c2-.26,4.59-3,4.79-5.27.12-1.26.43-2.52.43-3.78q.07-27.69.07-55.37a88.9,88.9,0,0,0-1.82-17.07,32,32,0,0,0-2.35-7.21c-2.08-4.45-18.57-30.64-22.23-35.57-.2-.27-1.13-.11-1.68,0s-1.42.36-1.54.74a18.86,18.86,0,0,0-1.34,5.48C492.45,614.49,492.49,632.31,492.49,650.13Zm216.08,19h0c0-11.43,0-22.86,0-34.28a74,74,0,0,0-.51-7.58,2.84,2.84,0,0,0-2.51-2.4,3,3,0,0,0-1.76.45c-3.47,1.84-5.87,4.89-7.82,8.1a138.91,138.91,0,0,1-13.33,18.5c-3.05,3.56-4.23,7.76-4.52,12.28-.41,6.33-.37,12.7-1.07,19a232,232,0,0,0-1,24.72c0,.64.13,1.27.15,1.9.07,2.26,2.53,4.71,4.86,5,7,.87,13.93.56,20.9.21a6.67,6.67,0,0,0,6.24-5.92c.13-2.53.34-5.06.35-7.6C708.59,690.7,708.57,679.91,708.57,669.11ZM519.1,466.74h.38c0-14.71,0-29.41,0-44.12,0-2.54-.37-5.09-.61-7.62-.2-2.14-2.83-4.49-5.34-4.67a35.41,35.41,0,0,0-5.73-.09A10.88,10.88,0,0,0,498,420.35a42.27,42.27,0,0,0-.31,5.72,204.68,204.68,0,0,0,2.6,22.84c1.88,10.69,3.12,21.5,5.64,32.09,2.66,11.19,5.47,22.34,8.26,33.5a3.51,3.51,0,0,0,1,1.55,2.77,2.77,0,0,0,1.52.77,2.28,2.28,0,0,0,1.67-.48,4.89,4.89,0,0,0,1.1-3.58Q519.27,489.75,519.1,466.74ZM410.92,429.1v0c8.93,0,17.87.09,26.8,0,5.1-.07,10.19-.47,15.29-.77,1.83-.1,4.24-3.66,3.89-5.8a10.69,10.69,0,0,0-1-3.61c-1-1.61-2.12-3.16-4.37-3.17-18.51-.09-37-.26-55.51-.28-6.38,0-12.76.3-19.13.58a30.7,30.7,0,0,0-5.63.89c-2,.48-3,2.14-3.8,3.91a5.66,5.66,0,0,0-.21,1.86c-.16,3.57,2.24,6.39,5.44,6.39Zm391.26-48.57c-10.32.18-18.61.29-26.91.47-1.9.05-3.8.34-5.71.5-3.41.28-5.49,2.62-5.7,6.36-.09,1.55,1.63,4.25,2.88,4.5a35.35,35.35,0,0,0,5.61,1c18.5.48,37,.43,55.49,0,2.33-.05,4.52-2.23,5-4.93a13,13,0,0,0,.12-1.88c.08-2.65-2-5.31-4.1-5.56C819.28,379.89,809.71,380.82,802.18,380.53ZM405.6,346.25V346H379c-1.9,0-3.8.07-5.7.16-.62,0-1.23.26-1.85.33-1.49.16-3.23,2.33-3.27,4.06-.06,3,1.67,5.47,3.83,5.7a34.68,34.68,0,0,0,3.78.42q27.58-.15,55.18-.4a30.64,30.64,0,0,0,5.59-.87,3.59,3.59,0,0,0,1.66-.89,5.37,5.37,0,0,0,1.79-4.94,3,3,0,0,0-2.17-2.75,14.17,14.17,0,0,0-5.57-.93C423.35,345.92,414.47,346.1,405.6,346.25Zm-2.89,34.27c-8.91,0-17.82,0-26.72,0a34.43,34.43,0,0,0-5.56.9c-1.8.32-3.14,3.11-3,6.29,0,1.52,2,4.07,3.2,4.23.62.07,1.24.32,1.86.33q27.66.42,55.33.76a20.75,20.75,0,0,0,5.65-.76,5.87,5.87,0,0,0,3.12-2.05,6.34,6.34,0,0,0,.88-3.61,6.57,6.57,0,0,0-1.1-3.57,6,6,0,0,0-3.14-2,26.23,26.23,0,0,0-5.68-.52C419.26,380.5,411,380.52,402.71,380.52Zm395.71-34.81v.57c-5.74,0-11.49-.07-17.24,0-3.81.07-7.61.36-11.41.58-1.52.08-3.27,2.32-3.29,4.07,0,2,1.24,4.24,2.66,4.59,1.22.3,2.41,1,3.62,1,17.88.05,35.76,0,53.64,0a5.94,5.94,0,0,0,1.88-.26,15.41,15.41,0,0,0,1.67-.94c2-1,2.15-2.94,2.25-4.8a4.31,4.31,0,0,0-3.21-4.11,51.59,51.59,0,0,0-5.66-.64C815,345.67,806.73,345.71,798.42,345.71Zm-270.48,189c-.66,9.07,1,16.43,5.49,22.93q9.83,14.07,20,27.88c3.83,5.22,9,9,14.63,12a39.46,39.46,0,0,0,12.59,4.25,9.51,9.51,0,0,0,3.66-.33,2.41,2.41,0,0,0,1.92-2.9,3.42,3.42,0,0,0-.43-1.65c-2.17-2.5-5.33-3.34-8.15-4.75-20.94-10.42-35.15-26.83-43-48.74-1.49-4.15-2.06-8.63-3.16-12.94a2.09,2.09,0,0,0-1.43-1.07c-.32-.06-1,.54-1.14,1C528.42,532.16,528.09,534,527.94,534.69ZM476.07,424.57c10.42,0,12.78-2,14.24-11.85.36-2.48.63-5,.78-7.49a20.37,20.37,0,0,0-1.8-9.16c-.06-.16-.9-.23-1-.08-1.54,2.14-1,4.8-1.67,7.17-.57,1.9-2.18,3.64-3.73,3.74-5,.32-10,.62-15,.93-1.63.1-3.2,2.24-3.11,3.93a24.5,24.5,0,0,0,2.23,9.09,5.78,5.78,0,0,0,4.32,3.25A47.41,47.41,0,0,0,476.07,424.57Zm309.16-6.64v-.11c-3.77,0-7.54-.1-11.3,0a39.24,39.24,0,0,0-7.42.94,4.78,4.78,0,0,0-2.75,2.27,5.66,5.66,0,0,0,.11,5.39,4.56,4.56,0,0,0,2.79,2.19,175,175,0,0,0,33.79-.32c.58-.05,1.09-.61,1.68-.77,1.39-.38,2.63-2.49,2.73-4.52.08-1.81-1.41-4.11-2.82-4.36a24.79,24.79,0,0,0-3.63-.72C794,417.88,789.62,417.93,785.23,417.93Zm-56.46-6a40.3,40.3,0,0,0,3.39,19.86,6,6,0,0,0,2.67,2.5,21.45,21.45,0,0,0,12.73,2.53,7.44,7.44,0,0,0,4.86-2.53c3.18-3.63,1.68-10.7-4-11.87-3.06-.62-6.18-1-9.26-1.49-1-.17-3.57-3.08-3.68-4.09-.14-1.24-.32-2.49-.34-3.74-.05-2.51.08-5,0-7.52-.07-1.73-1-2.44-2.16-1.75s-2.35,1.35-2.71,2.34A38.3,38.3,0,0,0,728.77,411.9ZM671.15,580.68a26.74,26.74,0,0,0-1-3.56c-.63-1.55-2.54-1.37-4.66.78a62.62,62.62,0,0,1-25.71,16.16,13.5,13.5,0,0,0-3.4,1.74,6.52,6.52,0,0,0-2.9,4.68c-.36,2.49,2.53,5.26,4.71,4.58a51.62,51.62,0,0,0,15.51-7.38c4.63-3.41,9.12-7,13.61-10.61a10.74,10.74,0,0,0,2.5-2.87A19.77,19.77,0,0,0,671.15,580.68Zm-57.92,18.39c-3.29,0-6.48-.08-9.65,0a23.94,23.94,0,0,0-3.67.76c-1.51.3-2.07,1.21-2.23,2.73a8.34,8.34,0,0,0,3.44,8.26,17.66,17.66,0,0,0,8.77,3.4,12.17,12.17,0,0,0,13.57-10.55c.26-1.72-1.27-4.19-2.77-4.25C618.17,599.36,615.65,599.2,613.23,599.07ZM530.85,703.31a6.32,6.32,0,0,0,.66-1.78q1-21,2-42.07a21.43,21.43,0,0,0-.35-3.81c-.18-1.44-.84-2.46-1.91-2.56-.34,0-1.07.9-1.11,1.43a321.67,321.67,0,0,0,0,47.79C530.15,702.66,530.6,703,530.85,703.31Z"/><path class="cls-2" d="M481.57,207.72c9.59.36,19.11,1.25,28.64,2.41,7,.85,14,1.09,21,1.24,14.7.31,29.36,1.25,44,2.64,3.82.37,7.64.65,11.46.92,14,1,28,2,42,3,14.65,1.07,29.34,1.57,44,2.3,1.91.09,3.86-.09,5.74.17,20.92,2.89,42.09,2.45,63,5,5.7.69,11.47.76,17.2,1.2,3.36.26,6.21,3.23,6,6.21-1.73,21-2.24,42.12-4.4,63.1-.13,1.27-.21,2.55-.24,3.83-.83,26.84-4.21,53.51-4.88,80.36-.23,8.93-1.32,17.83-2.1,26.74-.29,3.33-3.3,5.43-6.81,4.94-2.2-.31-3.85-1.7-3.94-3.43-.13-2.54-.11-5.1-.3-7.64a20,20,0,0,0-.8-3.7c-1.2-4.34-6.79-6.67-10.87-4.43a11.17,11.17,0,0,0-5,5.56c-1.75,4.13-1.12,8.94-3.62,12.81a6.94,6.94,0,0,1-2.81,2.39,8.24,8.24,0,0,1-3.72.64c-5.1-.24-10.21-.49-15.29-1-24.16-2.43-48.3-4.94-72.6-5.53-7.66-.19-15.32-.77-22.95-1.5-17.82-1.71-35.7-2.23-53.57-2.79a158,158,0,0,1-22.9-1.89c-5.71-1-11.47-.69-17.21-.9a44.66,44.66,0,0,1-7.57-.86,5.14,5.14,0,0,1-4-3.61c-.89-3.05-1.53-6.2-2.67-9.16a13.13,13.13,0,0,0-3.23-4.65,8.3,8.3,0,0,0-7.06-2.18,7.84,7.84,0,0,0-6.61,6c-.47,2.5-.73,5-1.13,7.56-.43,2.72-2.75,4.86-5,4.73-7.65-.43-15.3-.91-22.76-2.78a4.26,4.26,0,0,1-2.39-2.66,16.69,16.69,0,0,1-.6-5.63c.73-13.39.72-26.84,2.88-40.13a59.3,59.3,0,0,0,.72-7.64c.71-24.28,3.36-48.43,4.65-72.68.58-10.84,1-21.69,2.42-32.48.9-7,1.05-14,1.57-21a6.19,6.19,0,0,1,6.44-5.66C471.36,207.52,476.46,207.64,481.57,207.72Zm54.68,154.9c.23-4.25.49-6.8.47-9.34s-.32-5.07-.53-7.59c-.14-1.6-2.77-3.43-4.21-2.77a10.87,10.87,0,0,0-2.91,2.15,3.11,3.11,0,0,0-.52,1.8c-.95,10.15-1.9,20.29-2.76,30.44a6.86,6.86,0,0,0,.61,3.72,5.07,5.07,0,0,0,2.83,2.34c9.47,2.16,19-.72,28.54.22,1.08.11,2.39-.79,3.38-1.51,1.53-1.11,2.77-2.64,4.34-3.69,2.18-1.45,7.17-.63,8.83,1.27s2.74,4.28,5.14,5.51a3.06,3.06,0,0,0,3.56-.06,10,10,0,0,0,2.14-2.9,2.87,2.87,0,0,0,.14-1.88c-2.65-10.49-6.13-20.76-8.1-31.44a7,7,0,0,0-2.12-3.07c-2.48-2.58-8.26-1.37-9.75,2.09a114.11,114.11,0,0,0-4.18,10.65,173.89,173.89,0,0,1-6.72,17.88c-.54,1.2-3.5,2.49-5,2.12-3.07-.77-6.13-1.57-9.2-2.35-1.81-.46-3.6-2.3-3.66-3.84C536.45,368.56,536.32,364.74,536.25,362.62Zm-.51-55.31c-.44,4.56-.94,9-1.27,13.4a18.52,18.52,0,0,0,.44,3.74c.18,1.32,2.62,3.15,4.26,3.1a3.54,3.54,0,0,0,3.2-1.78,13,13,0,0,0,1.14-3.54c.5-2.4-.13-5.14,2.2-7,2.75,1.24,1.87,4,2.44,6.07.49,1.8.9,3.64,1.5,5.41.75,2.21,4.53,2.88,6.52,1.4,2.2-1.64,2.89-4.06,3.84-6.4a2.28,2.28,0,0,1,1.32-1.15c1-.31,1.74.51,2,2.12.17,1.26.23,2.54.52,3.78a4.44,4.44,0,0,0,7.38,2.14,5.16,5.16,0,0,0,1.86-3.2,156.17,156.17,0,0,0,1.53-32.26,4.92,4.92,0,0,0-3.56-3.85c-3.48-.55-6.25.52-8.11,3.48a26.92,26.92,0,0,0-2.49,5.12c-.88,2.37-1.45,4.86-2.24,7.26-.61,1.89-3.26,3.74-4.27,3.17a3.84,3.84,0,0,1-1.88-2.81c-.58-3.12-1-6.28-1.71-9.36a42.9,42.9,0,0,0-2.11-5.27c-.8-2-2.64-2.67-4.47-3a14.75,14.75,0,0,0-3.72.25,2.88,2.88,0,0,0-2.67,2.35C535.51,296,536.08,301.78,535.74,307.31Zm158.87-45.42c.1-4.52.33-10.25.24-16,0-.95-1.25-2-2.16-2.79a2.82,2.82,0,0,0-3.6,0A5.51,5.51,0,0,0,687,245.9c-.54,3.13-.62,6.33-1,9.48-.19,1.45-1,2.45-1.92,2.47a2.22,2.22,0,0,1-1.51-1.07,39.22,39.22,0,0,1-2.62-5.07c-.73-1.76-1.14-3.64-1.77-5.44-1.18-3.31-3.16-4.51-7.34-4.63-1.49,0-4.25,1.73-4.54,2.89-2.9,11.21-3.27,22.6-2.43,34.06a2.74,2.74,0,0,0,2.51,2.47c2.28.43,4.08-.52,4.72-2.12,1.42-3.56.6-7.61,2.52-11.06a3.75,3.75,0,0,1,2.83-2.28c.37,0,1,.69,1.21,1.19,1.39,3.54,2.66,7.13,4,10.68a11.77,11.77,0,0,0,1.69,3.38,6.94,6.94,0,0,0,3.05,2,5.57,5.57,0,0,0,6.89-4.6C693.73,273.24,694.1,268.17,694.61,261.89ZM548.1,246.74c-.05-1.31-.2-6.4-.52-11.48-.09-1.43-1.19-2.13-2.35-2.59-1.39-.56-2.55-.52-3.52.6-.82.94-1.94,1.85-2.22,2.95a59.09,59.09,0,0,0-1.16,7.52c-.78,6.31-.54,12.74-2.3,18.91a3,3,0,0,1-2.78,2.07,3,3,0,0,1-3.19-1.45c-.32-.55-1-1-1-1.59-.32-3.17-.68-6.35-.69-9.53,0-5.1.29-10.21.29-15.31a11.73,11.73,0,0,0-1-3.59c-.46-1.34-1.49-1.75-3-1.48a3.52,3.52,0,0,0-2.85,2.07,11.86,11.86,0,0,0-1.06,3.62c-.94,8.87-1.81,17.77-2,26.68-.06,3.4,2.32,5.9,5.28,7.42a19.5,19.5,0,0,0,16.67.95,10,10,0,0,0,6.66-8.61C547.72,259.47,547.73,255,548.1,246.74Zm68.36,66.31c-.45,4.48-1,10.17-1.6,15.85-.14,1.42,2,3.94,3.4,4.1,1.81.2,4.5-.82,4.93-2.06.63-1.79,1.11-3.63,1.59-5.46.34-1.31,1-2.93,1.93-2.79s2,1.48,2.61,2.51c1,1.61,1.71,3.41,2.58,5.1,1.74,3.34,4,4.41,7.76,3.8a2.94,2.94,0,0,0,2.47-4c-.7-1.77-1.51-3.5-2.19-5.28a21.49,21.49,0,0,1-1.08-3.65,7.54,7.54,0,0,1,.94-5.46c1.29-2.16,2.8-4.34,3.45-6.72,2.29-8.4-1.93-14.29-9.3-15.82-3.7-.77-7.57-.75-11.37-1-2.39-.16-5.14,2.23-5.26,4.46C617.06,301.7,616.79,306.77,616.46,313.05ZM647.89,370h-.13c-.09,5.1-.2,10.21-.24,15.31a2.66,2.66,0,0,0,.65,1.75,7.16,7.16,0,0,0,2.88,2.15,2.88,2.88,0,0,0,3.11-1.66,24.82,24.82,0,0,0,1.31-3.53c.53-1.59.35-4.06,2.52-4,2,0,2.94,2.18,3.87,3.86a33.47,33.47,0,0,0,2.8,5,7,7,0,0,0,3.22,1.85c2.81.95,5.54-1.19,5-3.76a16.65,16.65,0,0,0-1.1-3.6c-2-4.41-1.7-8.37.94-12.62,2.83-4.56,2.51-9.81,1-14.81a7.74,7.74,0,0,0-5.23-5.16,35.21,35.21,0,0,0-15.1-1.15,6.08,6.08,0,0,0-4.8,5.16C648.32,359.81,648.11,364.9,647.89,370Zm-68.55-52c-.12-1.48-.14.46.22,2.31.88,4.6,3.12,8.35,7.6,10.22a32,32,0,0,0,7.26,2.18c6.17,1,12.85-3.63,14.45-9.84a55.7,55.7,0,0,0,1.65-17,31,31,0,0,0-1-5.62,11.84,11.84,0,0,0-5.69-7.3,29.81,29.81,0,0,0-5.3-2.09c-6-2.21-13.72,2-16,7.13S578.84,308.77,579.34,318Zm80.07-58.44c-.16-2.55-.29-5.1-.48-7.64a13.26,13.26,0,0,0-2.75-7c-4.58-6.15-10.61-7.38-17-5.61a10.27,10.27,0,0,0-6.11,4.35,29.72,29.72,0,0,0-3.59,6.73,39.3,39.3,0,0,0-.77,20.81,12.63,12.63,0,0,0,9,9,25,25,0,0,0,11.37-.12,11.4,11.4,0,0,0,6.28-4.1,15.51,15.51,0,0,0,3.6-8.7C659.21,264.66,659.29,262.11,659.41,259.55Zm6.43,35.54-7.79-.62c-.64-.05-1.27-.07-1.91-.11a6.12,6.12,0,0,0-6.57,5.44c-.62,10.16-1.17,20.32-1.73,30.48-.12,2.13,2.32,5,4.46,5.54a49,49,0,0,0,15.1,1.46,5.89,5.89,0,0,0,1.74-.63,3.08,3.08,0,0,0,2-3,2.92,2.92,0,0,0-1.91-2.87c-2.42-.71-4.93-1.09-7.4-1.63s-3.84-2.78-3.57-5.8a3.31,3.31,0,0,1,2-3.07c2.93-1,6-1.69,8.9-2.64.49-.16.92-.94,1.08-1.52a3.35,3.35,0,0,0-.65-3.41c-2-1.83-4.81-1.44-7.09-2.45a6.16,6.16,0,0,1-2.53-2.55,2.55,2.55,0,0,1,.67-3.33,5.83,5.83,0,0,1,3.42-1.43c2.5-.29,5-.27,7.4-1.47a2.88,2.88,0,0,0,1.83-3,2.67,2.67,0,0,0-2-2.67A41.93,41.93,0,0,0,665.84,295.09ZM565.56,233.81c-6.29,0-10.81,3.73-11.75,10.16a10,10,0,0,0,3,8.7c2.27,2.18,5,3.84,7.46,5.86a28.16,28.16,0,0,1,4,4.07,3.54,3.54,0,0,1,.28,3.54c-.56,1.38-1.84,2.3-3.06,1.64-2.71-1.47-5.13-3.48-7.84-5-1-.53-2.48-.31-3.68-.11s-1.87,4-1.18,5.18a11.28,11.28,0,0,0,1,1.64,17.68,17.68,0,0,0,13.18,6.64c4.68.35,11.41-3.27,11.76-10,.25-4.77-1-8.81-4.82-11.81-2-1.56-4.19-2.89-6.16-4.49a11.07,11.07,0,0,1-2.28-2.87,2.76,2.76,0,0,1-.23-1.78,2.09,2.09,0,0,1,2.84-1.86,21,21,0,0,1,3.43,1.37,31.56,31.56,0,0,0,3.39,1.7,3.23,3.23,0,0,0,3.36-.88,3.33,3.33,0,0,0,.72-3.53c-1.41-4.8-4.67-7.36-9.58-7.91A34.69,34.69,0,0,0,565.56,233.81Zm135.58,26.85c-.45,7.16-.81,12.86-1.17,18.56-.09,1.52,1.84,4,3.13,4.38,5,1.28,10.07,1.24,15.15,1.19a15,15,0,0,0,1.83-.41c1.66-.26,2.24-1.12,1.89-2.69a3.62,3.62,0,0,0-2.1-2.84c-2.36-.92-4.85-1.52-7.23-2.39-2.91-1.06-3.55-6-1-7.87a12.5,12.5,0,0,1,3.24-1.91c1.78-.65,3.71-.9,5.49-1.57a2.83,2.83,0,0,0,2-2.57,2.44,2.44,0,0,0-1.06-1.54,23.41,23.41,0,0,0-3.24-1.92c-1.13-.56-2.37-.9-3.5-1.47a4,4,0,0,1-2-4.81,3.73,3.73,0,0,1,2.36-2.69c1.82-.51,3.76-.58,5.6-1,1.39-.33,2.46-1.18,2.5-2.16A2.81,2.81,0,0,0,721,244.1a28.62,28.62,0,0,0-15-.95c-1.41.25-3.67,2.35-3.78,3.76C701.79,252,701.42,257.05,701.14,260.66Zm-66,86.95c-4.14-.3-6-.46-8-.56-3.59-.19-6.23,1.83-6.59,5.23-1,9.5-2.26,19-2.54,28.55,0,1.28.11,2.55.14,3.82s2.5,3.5,3.87,3.78a34.1,34.1,0,0,0,15.11,0c1.41-.34,2.27-1.23,2-2.75-.22-1.15-.65-2.82-1.46-3.17a65.94,65.94,0,0,0-7.31-2.1c-1.91-.57-3.27-2.75-2.85-4.37a5,5,0,0,1,3.62-3.87c1.22-.33,2.49-.49,3.73-.75.63-.13,1.25-.26,1.86-.45,1.41-.43,3.65-3.27,3.19-4.29a3.82,3.82,0,0,0-3-2.11c-1.87-.35-3.78-.57-5.61-1.05a3.14,3.14,0,0,1-2.1-2.81,3.79,3.79,0,0,1,1.09-3.47,4.15,4.15,0,0,1,1.47-1.1c1.21-.37,2.47-.55,3.71-.81a44.53,44.53,0,0,0,5.55-1.21,2.51,2.51,0,0,0,1.63-3,3,3,0,0,0-2.25-2.7A53.43,53.43,0,0,0,635.1,347.61Zm-44.9-2.09a9,9,0,0,0-1.84.47c-1.83.92-2.37,2.75-2,4.72.55,3.21,2,6,3.22,9,2.91,7.13,5.26,14.37,4.92,22.24a8.79,8.79,0,0,0,1.14,3.55,2.8,2.8,0,0,0,3.12,1.61,4,4,0,0,0,3.64-3.64,55,55,0,0,1,6.77-21.76c1.8-3.34,3.12-6.95,4.62-10.45a3.35,3.35,0,0,0-2.62-4.28c-2-.3-3.9,0-5.07,1.7-1.44,2.1-2.6,4.39-3.88,6.6a3.17,3.17,0,0,1-3.1,1.76c-.45,0-.9-.88-1.2-1.43-1.54-2.77-2-6.13-4.4-8.39A12.59,12.59,0,0,0,590.2,345.52ZM513.84,244.64c-.13-2.38-.29-6.18-.56-10,0-.58-.56-1.12-.83-1.7a2.55,2.55,0,0,0-3.05-1.5,4.15,4.15,0,0,0-3.6,3.68q-1.68,12.24-3.34,24.48c-.23,1.72-2.87,3.1-4.27,2.2-1.59-1-3.05-2.23-4.68-3.16a3.85,3.85,0,0,0-5,1.32,5.15,5.15,0,0,0-.1,5.35,12.84,12.84,0,0,0,10.79,6.74c6.43.49,12.95-4.67,13.5-10.83C513.17,256.2,513.41,251.13,513.84,244.64Zm79.59,12c-.18,6-.38,9.8-.36,13.58a11,11,0,0,0,.91,3.57,2.86,2.86,0,0,0,2.82,1.91c1.51.15,2.54-.16,3.11-1.55a12.71,12.71,0,0,0,1.34-3.42c.41-5,.54-10.07.93-15.1a42.58,42.58,0,0,1,1.16-7.46,5.94,5.94,0,0,1,3.61-4c1.17-.46,2.4-.81,3.54-1.34,2.21-1,2.76-2.47,1.89-4.39a3.34,3.34,0,0,0-2.7-2.28A168.89,168.89,0,0,0,589,235a17.39,17.39,0,0,0-1.81.41c-1.69.2-2.3,1.07-1.82,2.68.16.56.15,1.3.51,1.65a10.83,10.83,0,0,0,2.92,2.29c3.27,1.47,4.63,4,4.67,7.45C593.46,252.59,593.43,255.74,593.43,256.65Z"/><path class="cls-2" d="M544,843q.13,50.81.24,101.62c0,4.45.33,8.94-.94,13.32-.31,1.06-2.75,3.76-3.84,4-1.26.22-2.5.6-3.76.71-1.9.17-3.83.21-5.74.21q-64.23,0-128.45,0c-2.54,0-5.08-.41-7.61-.63-1-.09-3.76-2.74-4-3.86a23,23,0,0,1-.85-3.68c-.21-6.38-.42-12.77-.42-19.16,0-27.49.13-55,.06-82.45-.09-31.32-.35-62.64-.5-94,0-7.67,0-15.34.17-23a50.32,50.32,0,0,1,1.2-7.54c.38-2.09,3.37-4.72,5.39-4.78,5.11-.14,10.21-.41,15.32-.37q49.83.38,99.68.88c7.66.07,15.33.1,23,.21,1.9,0,3.8.3,5.7.46,2.28.19,4.91,2.75,5.05,5,.2,3.18.48,6.37.48,9.56q.06,51.78,0,103.55Zm-76.62-71.25v.37q25.78-.23,51.56-.47c1.89,0,3.78-.43,5.67-.65,1.07-.12,3.54-2.8,3.81-3.94,1.35-5.67,1-11.32,0-17-.35-2-3.13-4.44-5.42-4.64-2.53-.21-5.06-.58-7.59-.58q-50.61,0-101.22,0c-1.9,0-3.8.31-5.69.47-2.16.18-4.39,3-4.28,5.42q.3,6.67.68,13.35c0,.63.22,1.25.29,1.88.22,2,3.13,5.09,4.94,5.19,3.81.22,7.62.52,11.43.53C436.83,771.74,452.1,771.71,467.38,771.71Zm-1.89,35.51h0c12.79,0,25.57.11,38.35-.05,6.38-.09,12.75-.64,19.12-1.07,2.86-.19,5.53-3.19,6.14-6.4a31.77,31.77,0,0,0-.32-13.31c-.68-3-3.75-6.06-6.48-6.26-3.18-.23-6.36-.53-9.54-.54q-43.15-.18-86.29-.25c-3.83,0-7.67.06-11.5.22-1.9.08-3.78.48-5.68.68-1.37.14-3.6,2.25-3.93,3.74-1,4.36-2.05,8.73-1.74,13.25.36,5.4,4,8.82,8.21,9,7.66.4,15.32.81,23,.92C445,807.34,455.27,807.22,465.49,807.22Zm-11.63,7.4H441.6c-7.62,0-15.23-.07-22.85,0-2.54,0-5.07.15-7.61.27-3.57.17-6.93,3.56-7.44,7.41a43,43,0,0,0,.07,13.26,5.34,5.34,0,0,0,.58,1.81c1,1.61,1.88,3.35,3.94,3.79a27.6,27.6,0,0,0,5.57,1q33.33.07,66.65-.05c4.43,0,8.85-.59,13.27-1,2.63-.23,5.88-3.56,6.27-6.38a30.09,30.09,0,0,0-.13-11.35,20.75,20.75,0,0,0-1.26-3.57c-1.09-2.47-3-4.39-5.66-4.46C479.68,814.94,466.35,814.81,453.86,814.62Zm64,3.2c-1.53.07-3.43.09-5.32.25-2.76.22-5.81,3.38-6.23,6.3a28.76,28.76,0,0,0,.19,9.44,9.36,9.36,0,0,0,8,7.05,26.67,26.67,0,0,0,5.65-.06,9.94,9.94,0,0,0,8.48-8.87,42.22,42.22,0,0,0-.21-7.54c-.31-2.76-3.73-5.93-6.4-6.24C520.72,818,519.46,818,517.83,817.82Z"/><path class="cls-2" d="M811,841.28c.82,21,0,42.07-.3,63.16-.11,7.66-.2,15.3.44,23a134.14,134.14,0,0,1-.37,26.8,22.16,22.16,0,0,1-1.74,5.37,4.4,4.4,0,0,1-2.86,2.32,21.59,21.59,0,0,1-7.57.83q-65.19,0-130.36,0c-2.54,0-5.08-.39-7.62-.64-2.13-.22-4.82-3-4.91-5.14-.19-4.46-.44-8.93-.44-13.39q-.07-68.07-.09-136.15c0-22.37-.16-44.74-.23-67.11,0-3.82-.3-7.65.65-11.43.32-1.24,2.43-3.76,3.75-4a48.79,48.79,0,0,1,7.52-1.26c7.66-.17,15.35-.45,23,0a316,316,0,0,0,32.57.28c26.85-1.13,53.66-.33,80.48.87a8.77,8.77,0,0,1,3.7.85,5.23,5.23,0,0,1,2.57,2.6,29.7,29.7,0,0,1,1.12,7.49c.2,15.34.26,30.68.35,46C810.81,801.55,810.92,821.36,811,841.28Zm-78.1-96.47v0q-22,0-43.94,0c-3.81,0-7.64.08-11.45.26a8.31,8.31,0,0,0-3.62.93,5.43,5.43,0,0,0-2.52,2.63c-1.49,5-1,10.09-.76,15.17.2,4.5,2,7.32,6.69,7.64,5.71.39,11.44.86,17.16.86q43,0,86-.33c3.17,0,6.34-.36,9.51-.61,2.76-.21,5.95-3.52,6.14-6.45.33-5.07.91-10.14-.37-15.19-.36-1.42-2.36-3.81-3.68-4a62.11,62.11,0,0,0-7.54-.84C767.32,744.77,750.13,744.81,732.94,744.81Zm.76,34.78v-.14c-11.46,0-22.91,0-34.36,0-7,0-14,.2-21,.3-6.28.09-7.64,3.7-7.77,8.59-.09,3.81.06,7.63.21,11.44.11,2.73,3.32,6,6.17,6.47,1.25.21,2.48.57,3.74.68,1.9.18,3.81.27,5.71.27q46.76,0,93.52-.05c3.17,0,6.34-.36,9.51-.61,2.8-.23,6-3.37,6.55-6.09a45.53,45.53,0,0,0,.49-13.28,8.93,8.93,0,0,0-2.44-5,4.89,4.89,0,0,0-3.17-1.93,51.29,51.29,0,0,0-5.65-.59C768.05,779.57,750.87,779.59,733.7,779.59Zm-14.54,62.25v.23c12.08-.17,24.16-.32,36.24-.55,2.54,0,5.07-.39,7.6-.62,1.82-.17,4.64-3.3,4.84-5.25a50.08,50.08,0,0,0-.63-15.16c-.4-2-3.23-5-5-5.24a69.15,69.15,0,0,0-7.57-.7q-37.21,0-74.42.13a34.23,34.23,0,0,0-3.76.49c-2.12.23-4.75,2.87-5.25,4.93-1.05,4.4-.74,8.83-.59,13.27.19,5.33,2.64,7.72,8.47,8,7,.27,14,.41,21,.5C706.44,841.9,712.8,841.84,719.16,841.84Zm65.39-24c-7,0-10.07,3.25-10.07,10.59a33.91,33.91,0,0,0,.25,3.76,8,8,0,0,0,5.55,6.91,20.16,20.16,0,0,0,5.46,1.26c6.21.46,10.9-3.78,11.39-10,.55-7.18-3.29-12.4-10.69-12.54Z"/><path class="cls-2" d="M540.58,696.86c.63-8.28,1.28-16.56,1.88-24.84.37-5.1.55-10.22,1-15.31.65-7.35-1.37-13.68-5.69-19.75-5.56-7.79-10.57-16-15.5-24.22-12.18-20.29-23.73-40.91-33.12-62.68a191.85,191.85,0,0,1-10-31,315.81,315.81,0,0,1-8.23-54.93c-.55-8.91-2.2-17.8-1.31-26.79.14-1.39,2.17-3.33,3.82-3.76a27.12,27.12,0,0,1,11.38-.25c1.22.2,3.86,2.66,4,3.79.48,3.15,1,6.29,1.37,9.45a347,347,0,0,0,8.09,45.27c2.49,9.91,5.28,19.76,8.17,29.57a138.25,138.25,0,0,0,7.7,19.61c8.48,18.05,19.49,34.44,32.15,49.8a56.67,56.67,0,0,0,32,19.72c6.11.14,10.93,2.95,15.27,7a16.79,16.79,0,0,0,5,2.81,21.61,21.61,0,0,0,5.5,1.57c7.08.89,14,.61,20.52-2.92a41.13,41.13,0,0,1,12.57-4.48c7.65-1.36,14.38-5.2,21.27-8.56a18.15,18.15,0,0,0,3.18-2.12c6-4.77,11.92-9.72,16.75-15.72A247.25,247.25,0,0,0,694,566.41a197.14,197.14,0,0,0,26.15-63.49c3.53-15.59,7-31.18,8.92-47.08a77.63,77.63,0,0,1,2.17-9.29c.45-1.77,2.75-3.31,4.28-2.89,4.31,1.18,8.66,2.25,12.89,3.69.94.32,1.81,1.85,2.06,3a17.34,17.34,0,0,1,.3,5.7c-2.57,21.59-5.34,43.15-10.63,64.28A280,280,0,0,1,714,588a337.72,337.72,0,0,1-39.07,56.74,20.94,20.94,0,0,0-4.81,10.29,183.47,183.47,0,0,0-2.89,30.51c-.05,8.31-.47,16.61-.74,24.92-.05,1.45-2.21,3.82-3.57,4-1.89.24-3.77.7-5.66.79a28.35,28.35,0,0,0-11.12,2.54c-11.54,5.49-23.17,10.8-34.64,16.43a8.81,8.81,0,0,0-5.05,7.65c-.28,8.31-.33,16.62-.49,24.93,0,1.28-.1,2.56-.24,3.82-.49,4.48-2.54,6.49-8,5.35-1.47-.3-3.63-2.47-3.73-3.82-.18-2.55-.45-5.09-.52-7.64-.23-7.66-.32-15.33-.58-23-.1-2.78-2-4.59-4-6.21a18.44,18.44,0,0,0-3.24-2c-2.84-1.46-5.72-2.85-8.58-4.28a219.57,219.57,0,0,0-31.78-13.32c-3.36-1.06-4.8-3.5-4.81-7.36,0-1.28-.1-2.56-.06-3.84.08-2.55.23-5.11.35-7.66Z"/><path class="cls-2" d="M187.25,843.09q0-51.75,0-103.51c0-3.82.4-7.63.63-11.45.07-1.14,2.7-3.51,4-3.67a45.8,45.8,0,0,1,5.66-.7c24.27.14,48.54.45,72.8.5,12.77,0,25.55-.41,38.32-.52a62.56,62.56,0,0,1,7.57.74c1.37.16,3.7,2.55,3.85,3.83a55.09,55.09,0,0,1,.66,5.69c.05,7.66-.05,15.33-.05,23q.06,84.33.1,168.67c0,10.22-.3,20.43-.53,30.65-.06,2.82-3.36,5.84-6.4,6-2.54.17-5.09.4-7.64.4q-52.69,0-105.39,0c-3.18,0-6.35-.48-9.52-.76-1.15-.1-3.46-2.85-3.74-4-.95-3.79-.57-7.63-.57-11.44q-.06-51.75,0-103.5Zm63.4-35.87v0c14,0,28.1,0,42.14-.05a33.83,33.83,0,0,0,7.53-1.11,7,7,0,0,0,5.14-5.15,22.66,22.66,0,0,0-.29-13.2c-.56-1.75-1.9-3.25-2.9-4.86a5.36,5.36,0,0,0-3.08-2.14c-3.09-1.06-6.28-1-9.46-1q-37.35,0-74.71,0c-1.28,0-2.56,0-3.83.1s-2.53.33-3.8.42c-2.15.15-4.73,2.6-5.35,4.79a37.29,37.29,0,0,0-.66,17,6.5,6.5,0,0,0,5.23,4.78c1.91.13,3.81.4,5.72.41Q231.49,807.25,250.65,807.22Zm1.7-62.36v-.07c-12.07,0-24.15,0-36.22,0-3.17,0-6.33.34-9.5.58-2.16.16-4.4,2.79-4.71,5.24a77.23,77.23,0,0,0-.38,15.2c.11,1.77,3.07,5.24,4.7,5.43a64.85,64.85,0,0,0,7.57.82q38.13.1,76.26,0a74.27,74.27,0,0,0,7.6-.55c1.26-.13,2.49-.51,3.74-.73s3.53-2.76,3.83-3.93a39.24,39.24,0,0,0,.23-16.95c-.21-1.15-2.57-3.94-3.65-4.09a56.71,56.71,0,0,0-7.52-1C280.32,744.81,266.34,744.86,252.35,744.86Zm-13.27,70.57v-.13q-15.3,0-30.61,0a7.76,7.76,0,0,0-6.87,5.62,35.88,35.88,0,0,0,0,17c.26,1.11,2.95,3.47,4.15,3.61a35.25,35.25,0,0,0,3.75.61c17.86.05,35.72.13,53.58,0,3.78,0,7.57-.93,11.34-1.5,1.85-.28,4.62-3.51,4.65-5.48.05-3.81.08-7.63-.11-11.44-.17-3.57-3.9-7.34-7.35-7.74a54.92,54.92,0,0,0-5.7-.54C256.94,815.39,248,815.43,239.08,815.43Zm55.61,2.23c-1.48,0-2.73-.08-4,0a7.72,7.72,0,0,0-6.59,5.72,25.26,25.26,0,0,0,.71,12.91c.65,2.13,3.26,4.52,5.31,4.7a19.8,19.8,0,0,0,7.43-.45c5.12-1.5,8.47-5.41,8.51-10.91s-3.09-10-8-11.33C296.92,818,295.68,817.85,294.69,817.66Z"/><path class="cls-2" d="M369,608.79c0-11.51.25-23-.05-34.53-.63-23.67.19-47.32.46-71a41.76,41.76,0,0,1,.87-5.62c.24-1.61,2.67-3.27,4.32-3,3.15.58,6.33,1,9.42,1.79,22.3,5.62,44.58,11.33,66.87,17,3.1.79,6.26,1.29,9.38,2a25.74,25.74,0,0,1,3.66,1.11c3.08,1.21,5.72,3,6.56,6.41a253.92,253.92,0,0,0,10.44,32.86,37,37,0,0,1,2,9.32,80.43,80.43,0,0,1,.29,9.58q-.17,63.3-.41,126.62c0,3.18-.4,6.37-.63,9.55-.08,1.11-2.8,3.39-4,3.69-3.79.94-7.63.72-11.45.72-21.1,0-42.19,0-63.29.05-5.11,0-10.23.09-15.33.35a5.21,5.21,0,0,0-4.62,2.86c-1.1,2.28-2,4.67-3.09,7-1,2-4.76,3.4-6.61,2.43a7.84,7.84,0,0,1-3.77-4.13,11.53,11.53,0,0,1-.58-3.75c-.09-4.48-.11-8.95-.1-13.43q0-48.92.13-97.84Z"/><path class="cls-2" d="M880.34,841.12q0-47.93,0-95.85c0-5.11.29-10.21.5-15.31.07-1.75,3.17-5,4.9-5.33a27.53,27.53,0,0,1,3.77-.65c3.83-.12,7.67-.35,11.49-.1,14.68,1,29.37.65,44.06.68q27.79,0,55.58.15c2.53,0,5.06.49,7.59.73,1.2.11,4,2.56,4.11,3.58.16,1.27.49,2.52.54,3.79.11,3.19.14,6.39.14,9.58q0,100.65-.08,201.29c0,4.46-.26,8.93-.46,13.39-.09,2.1-2.87,5-4.87,5.17-1.27.13-2.53.39-3.8.43-2.55.1-5.11.13-7.66.13q-49.83,0-99.66,0c-3.82,0-7.65.16-11.41-.8-1.12-.29-3.6-2.75-3.79-4a45,45,0,0,1-.83-5.63c-.14-5.74-.14-11.5-.14-17.25Q880.34,888.09,880.34,841.12Zm66.36-96.41v.07c-13.43,0-26.86,0-40.28,0-2.54,0-5.09.35-7.63.56-1.61.13-4,2.12-4.18,3.37a57.06,57.06,0,0,0,0,17.16c.31,2,3,4.71,5.09,5.13,6.31,1.29,12.7,1.34,19.09,1.34q32.61,0,65.21,0c3.18,0,6.36-.33,9.54-.56,2.12-.15,4.48-2.66,5.1-5.07a36.16,36.16,0,0,0,.59-15.18c-.48-2.88-3.75-5.9-6.53-6.07-1.92-.11-3.83-.26-5.75-.29Q966.84,744.91,946.7,744.71Zm.59,34.93h-21c-7,0-14,0-21,.08-1.9,0-3.78.39-5.68.58-2.09.21-4.62,2.94-5,5.1-.87,5.08-.58,10.15-.19,15.23a7.1,7.1,0,0,0,6.26,6.16c3.81.2,7.63.42,11.44.43q32.5.06,65,0c3.82,0,7.65,0,11.46-.17a47,47,0,0,0,5.63-.88c2-.33,4.58-3,5.34-5,1.39-3.69,1.32-7.51,1.11-11.31-.24-4.48-2.76-10-9.36-10-3.19,0-6.37-.19-9.56-.2Q964.5,779.62,947.29,779.64Zm-16,35.82c-8.35-.15-19.15-.35-29.94-.53-2.64,0-6.41,3.2-6.88,5.7a52.33,52.33,0,0,0-.19,15.15c.29,2.87,3.34,5.81,6.41,6.06,1.9.16,3.8.4,5.7.41q27.61,0,55.25,0c1.89,0,3.78-.29,5.67-.47,2.73-.26,5.87-3.5,6.22-6.35a40.91,40.91,0,0,0-.42-15.12c-.54-2.13-3.15-4.87-5.15-5-2.52-.18-5-.53-7.56-.49C951.5,814.9,942.61,815.17,931.28,815.46Zm45.93,13.12c.25,2.53.41,4.42.64,6.31A7.54,7.54,0,0,0,984.2,841a26.81,26.81,0,0,0,3.8.12c5.85-.31,9.15-3,10.92-8.8a27.2,27.2,0,0,0,.74-3.72c.62-4.06-2.84-9.25-6.59-10.52A21.14,21.14,0,0,0,983.7,817c-2,.23-5.26,2.87-5.53,4.66C977.8,824.18,977.48,826.68,977.21,828.58Z"/><path class="cls-2" d="M839.15,607.53V504.11c0-1.92-.06-3.83,0-5.75,0-3.28,2.69-6.25,5.71-6.39,3.18-.14,6.37-.35,9.55-.36,13.41-.05,26.81,0,40.21,0,24.26,0,48.51,0,72.77.1a28.24,28.24,0,0,1,7.47,1.1,4.13,4.13,0,0,1,2.44,2.7,53.8,53.8,0,0,1,.92,9.48q.17,39.27.14,78.53,0,43.1-.06,86.19c0,13.4-.33,26.79-.52,40.19,0,2.3-2.59,4.75-4.94,4.91-1.9.13-3.8.43-5.71.48-3.82.09-7.65.06-11.48.07-21.07,0-42.13.26-63.19-.09-13.6-.22-26.63,2.33-39.52,6.16a47.46,47.46,0,0,1-9.26,2.2c-1.55.14-4-1.6-4.15-3.11-.18-2.54-.5-5.09-.5-7.63q0-52.67,0-105.34Zm69.48-69.4c0-.17,0-.35,0-.52,12.13,0,24.26,0,36.39,0,3.82,0,7.64-.23,11.46-.41a8.07,8.07,0,0,0,6.75-5.86A38,38,0,0,0,963.3,518c-.45-2.58-3.89-5.69-6.77-5.92-3.18-.25-6.36-.58-9.53-.58-19.79,0-39.59-.05-59.38.13-7.65.07-15.3.61-23,1.09a29.49,29.49,0,0,0-5.56,1.24,5.14,5.14,0,0,0-3.87,3.82,36.41,36.41,0,0,0-.06,15.17,6.17,6.17,0,0,0,5.6,4.27Q884.71,537.7,908.63,538.13Zm.33,35.08v.22q22-.37,44.06-.78c1.9,0,3.8-.41,5.7-.62,1.18-.13,3.48-2.73,3.7-3.93,1-5.07.62-10.17.49-15.27-.08-2.67-3.45-5.78-6.47-6.08-1.27-.12-2.53-.39-3.8-.43-7.66-.23-15.32-.61-23-.57-21.07.09-42.15.35-63.22.58-1.91,0-3.81.33-5.71.5-2.32.21-5.11,2.64-5.47,4.65a45.89,45.89,0,0,0,0,17.09c.24,1.24,2.54,3.53,4,3.69a95.06,95.06,0,0,0,9.5.9C882.13,573.26,895.54,573.21,909,573.21Zm-14.22,35v0c10.23,0,20.47,0,30.7,0a35.76,35.76,0,0,0,5.66-.88c1.39-.23,3.43-2.61,3.64-4a47.16,47.16,0,0,0,.1-13.37,5.78,5.78,0,0,0-.4-1.87c-.87-1.7-1.81-3.35-3.69-4.19a31.87,31.87,0,0,0-13.09-2.41q-25.92-.11-51.82,0a47.81,47.81,0,0,0-5.68.77c-2,.26-5.09,3.3-5.24,5a62.67,62.67,0,0,0,.11,15.3,6.24,6.24,0,0,0,5.22,4.74c3.18.31,6.35.83,9.54.88C878.1,608.34,886.42,608.25,894.74,608.25ZM963,593.92a28.9,28.9,0,0,0-.57-4.07c-.74-2.49-2.12-4.51-4.76-5.38a15.06,15.06,0,0,0-11,.11,4,4,0,0,0-1.64.91c-2.34,3.09-3.91,6.56-3.34,10.49a42.33,42.33,0,0,0,2.19,7.15,3.64,3.64,0,0,0,2.71,2.43,15.63,15.63,0,0,0,12.62-1.85,7.14,7.14,0,0,0,3.12-4.52A42.61,42.61,0,0,0,963,593.92Z"/><path class="cls-2" d="M361.22,608.31q0,48.95,0,97.88c0,4.46-.4,8.93-.64,13.39-.09,1.55-2.52,3.71-3.94,3.52a47.32,47.32,0,0,1-5.63-.71c-3.71-1-7.32-2.32-11-3.29a105.57,105.57,0,0,0-28.4-3.86c-23.65.32-47.32.12-71,.07-4.47,0-8.93-.3-13.39-.51-2.43-.12-5.08-2.55-5.17-4.75-.22-5.75-.52-11.5-.52-17.24q-.06-72.93,0-145.86c0-14.71,0-29.42.11-44.14a30.11,30.11,0,0,1,1.07-7.55,5.3,5.3,0,0,1,2.64-2.62,9.24,9.24,0,0,1,3.71-.84c2.55-.17,5.11-.21,7.67-.21q54.68,0,109.36,0c3.19,0,6.38.28,9.57.46,2.22.12,4.7,2.69,4.93,5,.19,1.9.52,3.8.56,5.7.1,4.48.08,9,.08,13.43q0,46.06,0,92.12Zm-71.57-69.86v-.13c10.23,0,20.45,0,30.68,0,5.11,0,10.22-.08,15.32-.3a18.88,18.88,0,0,0,5.58-1.11,5.16,5.16,0,0,0,2.74-2.47,29.42,29.42,0,0,0,1.83-15c-.35-3-3.12-6.26-5.9-6.67a131.31,131.31,0,0,0-19.11-1.09c-10.86,0-21.72-.08-32.59-.1-12.78,0-25.56,0-38.34,0a75.07,75.07,0,0,0-7.6.71c-2.21.25-5.12,2.94-5.39,4.85a43.75,43.75,0,0,0,.71,17.06,4.56,4.56,0,0,0,2.48,2.62,15.65,15.65,0,0,0,5.51,1.19C260.26,538.2,275,538.31,289.65,538.45ZM289,573.2v0c14,0,28,0,42,0,3.16,0,6.33-.4,9.49-.66,1.39-.11,3.73-2.38,4-3.61a55.46,55.46,0,0,0,.19-17.06c-.25-2.06-3-4.88-5.06-5-3.8-.24-7.6-.55-11.4-.58q-37.2-.27-74.39-.43c-3.18,0-6.36,0-9.54,0-4.29.07-7.46,2.8-7.84,6.63a57.8,57.8,0,0,0,.06,15.21,4.06,4.06,0,0,0,.49,1.82c.77,1,1.6,2.24,2.65,2.52a29.88,29.88,0,0,0,7.46,1.08C261,573.25,275,573.2,289,573.2Zm-14,35.19v-.27c9.57,0,19.14.11,28.71-.06a74.32,74.32,0,0,0,9.45-1.24c1.37-.2,3.45-2.64,3.69-3.93.95-5.08.63-10.16.19-15.25-.16-1.86-3-4.76-5-5.08a63,63,0,0,0-7.57-1c-21-.52-42.08,0-63.11.54-1.4,0-4,2.2-4.14,3.44-.21,1.89-.52,3.78-.58,5.68-.08,2.55,0,5.11.09,7.66.19,6.05,2.18,8.38,7.7,8.59C254.59,607.87,264.8,608.1,275,608.39Zm61-2c7.59-.09,13.08-7.68,10.45-14.54a25.58,25.58,0,0,0-2.59-5.08,7.37,7.37,0,0,0-2.83-2.42c-4.64-2.22-11.84-1.49-15.41,3.7-.72,1.05-1.29,2.19-2,3.27a5.13,5.13,0,0,0-.75,3.64C324.17,602.68,330.43,606.81,336,606.4Z"/><path class="cls-2" d="M831.12,610.94q0,53.74,0,107.49c0,1.92-.22,3.83-.34,5.74-.18,2.88-3.36,5.55-6.8,5.41-1.86-.07-3.78-.48-4.75-2.49a12.77,12.77,0,0,1-.84-1.7c-.36-1.22-.57-2.49-.94-3.72-1.28-4.31-2.91-5.88-6.33-6-5.11-.17-10.23-.32-15.34-.33-21.75,0-43.5,0-65.25-.05-3.19,0-6.45.19-9.46-1.06a6.25,6.25,0,0,1-2.73-2.44,8,8,0,0,1-1-3.6c-.19-3.19-.25-6.39-.25-9.59q0-39.35,0-78.7c0-4.48.12-9,.32-13.43a22.41,22.41,0,0,1,2.44-9.2c1.73-3.43,3.33-6.93,5.17-10.29,9.91-18.05,16.79-37.27,22.34-57,1.21-4.3,2.49-8.6,4-12.8a7.37,7.37,0,0,1,5.62-4.74c10-2,19.79-5.08,29.65-7.77,9.25-2.51,18.6-4.66,27.74-7.58A45.08,45.08,0,0,1,825.73,495c2.08-.11,5,2.46,5.08,4.63,0,.64.05,1.27.06,1.91.15,14.72.39,29.43.45,44.15.07,21.76,0,43.51,0,65.27Z"/><path class="cls-2" d="M540.26,517.17A74.27,74.27,0,0,1,549.89,482a39.22,39.22,0,0,1,3.06-4.85c12.59-16.34,28.81-26.87,49.29-30.26a56.65,56.65,0,0,1,13.34-.3,74.71,74.71,0,0,1,20.47,4.58,64.81,64.81,0,0,1,18.09,10.53,82.55,82.55,0,0,1,18.64,21.64,62.79,62.79,0,0,1,8.82,29c1.15,19.22-4.61,36.58-15.94,52-9,12.19-21.1,19.91-35.71,24.22-20.35,6-38.8,2.73-56.59-8.57C552.88,566.9,539,540.2,540.26,517.17Zm83,44.42c5.6-.4,10.62-.73,15.64-1.14,3.25-.26,6-1.89,8.56-3.7a7.31,7.31,0,0,0,2-10c-2.73-4.63-6.91-7.24-11.89-8.64a32.85,32.85,0,0,0-16.82-.17,19.65,19.65,0,0,0-5.12,2.32,25.88,25.88,0,0,0-8.08,7.82,10.33,10.33,0,0,0-1.68,7.15c.21,2.12,2.76,5,4.75,5.17C615.07,560.89,619.45,561.24,623.3,561.59Zm-23.17-41.34c2.76.35,6.5-1.84,7.66-4.5a7.32,7.32,0,0,0-.32-7.15,9.32,9.32,0,0,0-5.78-4.43c-2.82-.73-6.8,1.52-7.34,4.4a20.27,20.27,0,0,0-.3,5.55A7,7,0,0,0,600.13,520.25Zm56.71-2.48c2.14-.36,3.83-1,5-2.68a9.52,9.52,0,0,0,1.73-5.21c.07-3.62-1.85-6.5-4.79-7.07-4.26-.81-7.73.86-9.06,4.57a6.87,6.87,0,0,0-.33,3.61,9,9,0,0,0,4.18,5.9A5.22,5.22,0,0,0,656.84,517.77Z"/><path class="cls-2" d="M328.7,842.43q0-52.68,0-105.35c0-1.91.25-3.82.37-5.73.1-1.62,2.41-3.61,3.89-3.32.62.12,1.26.09,1.87.19,12.59,2.17,24.89,5.58,37.26,8.68,6.46,1.62,7.84,3.51,8,10.81.08,3.83.08,7.66.08,11.49q0,90,0,180.06c0,5.74-.19,11.48-.47,17.22a6.31,6.31,0,0,1-1.43,3.49,5.66,5.66,0,0,1-3.15,2c-7.73,1.09-30.45,1.07-40.11.16-2.33-.22-5-2.71-5.16-4.85-.16-1.9-.45-3.79-.5-5.7-.09-3.83-.06-7.66-.08-11.49q-.19-48.84-.41-97.68Z"/><path class="cls-2" d="M872.16,845.86c0,11.49.15,23,0,34.47-.37,24.26-1.23,48.5-.82,72.76,0,1.27-.29,2.53-.37,3.8-.13,2-3.06,5.15-4.89,5.28-.64,0-1.26.24-1.9.27-12.75.45-25.5.64-38.25-.14a6.91,6.91,0,0,1-6-6.32c-.06-1.27-.17-2.54-.21-3.82s0-2.55,0-3.83c.83-23.62.16-47.24.12-70.85q-.06-39.27-.05-78.52c0-10.86,0-21.71.08-32.56.07-7,.3-14,.56-21a7.12,7.12,0,0,1,5.44-7c6.14-1.69,12.4-3.06,18.41-5.15,7.3-2.53,14.87-3.48,22.39-4.82,2-.35,4,1,4.24,2.64a69.69,69.69,0,0,1,1,7.56c.21,5.74.23,11.49.23,17.24q0,45,0,90Z"/><path class="cls-2" d="M343.53,399.37c-.17-9.6-.48-19.19-.48-28.79,0-14.71.23-29.42.42-44.14a21.48,21.48,0,0,1,.73-3.74c.24-1.28,2.69-3.38,4.15-3.48,3.18-.2,6.37-.48,9.56-.54,7.67-.14,15.35,0,23-.29,12.13-.39,24.23-1.4,36.4-.31,5.7.51,11.5-.22,17.25-.18a16.31,16.31,0,0,1,5.6,1.1,4.72,4.72,0,0,1,2.61,2.56,19.34,19.34,0,0,1-.21,11.32c-.71,2.33-3.17,4.72-5.31,4.85-2.55.15-5.1.43-7.64.41-9.6-.05-19.19-.25-28.79-.29-8.95-.05-17.91-.06-26.86.08-3.18.06-6.35.6-9.53.94-1.47.15-3.74,2.32-4,3.65a38.44,38.44,0,0,0,.13,17c.26,1.05,2.85,3.64,4,3.82a57.64,57.64,0,0,0,7.57,1.05c9,.18,17.91.18,26.87.22,10.87.05,21.74,0,32.62.17a23.45,23.45,0,0,1,5.52,1.17c1.48.4,1.83,1.47,2,2.8.22,1.58-.1,2.41-1.45,3.15a7.17,7.17,0,0,1-3.55,1.17c-12.15.06-24.3.16-36.45.21-9,0-17.91,0-26.87.08a55,55,0,0,0-5.7.58c-2.18.23-4.73,2.87-5.11,5a60.59,60.59,0,0,0-.35,15.28c.27,3.22,2.8,5.56,6.46,5.68,4.47.14,8.95.26,13.42.27,16,.05,32,0,48,.07,5.07,0,12.11,2.1,17.91,5.19.19.1.16,1.25,0,1.34a9.56,9.56,0,0,1-3.53,1.26c-7.67.28-15.34.52-23,.54-14.07,0-28.14-.12-42.22-.12-3.83,0-7.66.26-11.48.45-2.11.11-5,2.94-5.18,4.91a76.78,76.78,0,0,0,.15,17.21,6.74,6.74,0,0,0,3.74,4,32.85,32.85,0,0,0,5.56,1.27c3.82.25,7.66.25,11.5.26,7.68,0,15.35,0,23,0,12.15,0,24.3.15,36.43-1a47.5,47.5,0,0,1,13.36.34c2.23.42,4.93,2.85,5.18,5,.08.63.3,1.24.34,1.87,1.19,19.18,3.81,38.18,6.6,57.17.5,3.39-2.5,6.51-5.64,5.8-10.6-2.38-21.31-4.4-31.77-7.31-17.87-5-36.14-8.3-53.88-13.78a45.78,45.78,0,0,0-13.24-2c-3.83,0-7.66-.22-11.49-.38a6.77,6.77,0,0,1-6-6.27c-.17-3.83-.33-7.67-.34-11.5-.05-17.28,0-34.55,0-51.83V399.37Z"/><path class="cls-2" d="M858.38,399.54c0,22.36,0,44.72,0,67.08,0,3.82-.39,7.63-.66,11.44-.15,2.07-3.05,4.61-5.28,4.77a12.48,12.48,0,0,1-1.88.26c-14.9-1-29.13,2.14-43.35,6.2-15.94,4.57-31.95,8.95-48.2,12.32-1.44.3-3.75-1.75-3.66-3.31a73.43,73.43,0,0,1,.69-9.52,300.15,300.15,0,0,0,4-32.32c.4-5.08.81-10.17,2.31-15.1.36-1.19,2.73-3.54,4-3.67,3.17-.31,6.34-.79,9.52-.86,8.94-.2,17.88-.17,26.82-.36a34.23,34.23,0,0,0,5.62-1c1.24-.24,3.38-2.82,3.56-4.17a49.48,49.48,0,0,0-.05-15.22c-.38-2.13-2.93-4.71-5.21-4.86-3.17-.22-6.35-.51-9.53-.54-8.3-.1-16.6,0-24.91-.13a45.3,45.3,0,0,1-5.6-.9c-1.45-.21-2.88-2.55-2.76-4.43a5.73,5.73,0,0,1,3.39-4.16c3.13-.86,6.31-.77,9.49-.78,14.69,0,29.38,0,44.07-.06,4.47,0,8.93-.17,13.4-.32a6.43,6.43,0,0,0,6.46-5.72,52.26,52.26,0,0,0-.32-15.24c-.38-1.92-3.3-4.86-5.23-5-3.18-.25-6.36-.59-9.54-.6-17.24-.07-34.49,0-51.74-.07a17.67,17.67,0,0,1-7.45-1.2,2.84,2.84,0,0,1-1.9-2.85c-.09-1.58.17-2.54,1.7-3a16.26,16.26,0,0,1,3.56-1.16c3.82-.25,7.65-.36,11.47-.38,14.06,0,28.11,0,42.16,0,3.83,0,7.65-.21,11.48-.37a6.59,6.59,0,0,0,5.51-4.5c1.18-5.06.86-10.12.17-15.2-.22-1.66-3.48-5.08-5.14-5.25-3.16-.32-6.33-.84-9.5-.86-16-.1-31.94,0-47.91-.12a32.9,32.9,0,0,1-7.52-1,4.14,4.14,0,0,1-2.6-2.45,21.16,21.16,0,0,1,.11-11.33,7.15,7.15,0,0,1,5.52-4.59c1.9-.12,3.81-.3,5.71-.35,14-.42,28.09-1,42.13-1.17,9.57-.12,19.15.25,28.72.5a15.44,15.44,0,0,1,3.66,1,5.44,5.44,0,0,1,3.75,4,30.9,30.9,0,0,1,.7,7.58q.07,34.5,0,69Zm-29.44,12.13c-5.69.17-9.71,3.89-10.11,9.4a12.2,12.2,0,0,0,0,1.91,18.91,18.91,0,0,0,2,7.3,5.3,5.3,0,0,0,2.64,2.64,12.42,12.42,0,0,0,15.24-4.09,8.36,8.36,0,0,0,1.36-3.51,27.45,27.45,0,0,0,0-5.66,9.07,9.07,0,0,0-7.4-7.72A29.81,29.81,0,0,0,828.94,411.67Z"/><path class="cls-2" d="M646.7,845.64q0,50.83,0,101.65c0,3.18.17,6.38-.72,9.52-.38,1.37-2.89,3-4.47,2.66a16.52,16.52,0,0,1-1.9-.19,159.05,159.05,0,0,1-21.09-9.06,7.57,7.57,0,0,1-4.26-6c-.24-2.54-.37-5.1-.41-7.65-.13-8.31-.18-16.62-.28-24.93-.64-53.06.1-106.12.6-159.18.06-6.41,2.51-11,8.37-13.8s11.49-5.59,17.3-8.22a7.16,7.16,0,0,1,3.72-.16,2.93,2.93,0,0,1,2.68,2.26,47.31,47.31,0,0,1,.79,7.58c0,14.07-.3,28.13-.35,42.19-.07,21.1,0,42.2,0,63.29Z"/><path class="cls-2" d="M552.39,844.06c.16-29.42.27-58.83.51-88.25.06-7.65-1-15.34.46-22.95.2-1.12,1.42-1.79,2.84-2a3.66,3.66,0,0,1,1.86.16c7.05,3,14.13,5.85,21.1,9a7.65,7.65,0,0,1,4.34,6,69.28,69.28,0,0,1,.73,9.54c0,12.15-.05,24.3-.05,36.45q0,70,.09,140.06c0,3.19,0,6.39-.08,9.59a25.59,25.59,0,0,1-.36,3.81c-.58,3.29-2.06,6-5.31,7.39a52.1,52.1,0,0,1-7.21,2.59c-4.33,1.07-8.74,1.87-13.13,2.77-1.43.29-4-1.66-4.4-3-1.23-3.75-.86-7.58-.87-11.39q-.24-49.87-.38-99.76Z"/><path class="cls-2" d="M599.58,414.26c13.41.68,26.82,1.33,40.22,2,8.93.48,17.83,1.23,26.7,2.38,1.23.16,3.85,2.58,4,3.72.08.64.29,1.26.32,1.89a314.39,314.39,0,0,1,0,34.46,2.2,2.2,0,0,1-.83,1.54,2.79,2.79,0,0,1-3.49-.29c-3.46-2.83-6.85-5.77-10.46-8.41a68,68,0,0,0-35.46-13.24,134.89,134.89,0,0,0-15.31-.38c-11,.43-21.35,3.65-31.16,8.68-23.24,11.91-39.78,37.16-42.27,58.51-.18,1.53-.73,2.5-2.31,2.5-.32,0-.84-.92-.92-1.47a51.26,51.26,0,0,1-.92-7.58q-.12-37.41,0-74.84a92.89,92.89,0,0,1,1-9.53c.14-1.22,2.78-3.56,4-3.56,4.47,0,8.94-.21,13.4,0,12.76.66,25.54,1.13,38.26,2.58,5.08.58,10.2.73,15.31,1.08Z"/><path class="cls-2" d="M697.52,420.51c6.84.7,12.55,1.27,18.26,1.89,2.17.23,4.53,2.64,5.05,5.12.39,1.87.78,3.75,1,5.64a22.28,22.28,0,0,1,0,3.83c-1,14.7-4.14,29.09-6.35,43.6a181.16,181.16,0,0,1-7.12,29.79c-5.83,17.56-11.82,35.15-22.33,50.68a39.52,39.52,0,0,1-3.57,4.47c-1.2,1.32-2.23,1.3-2.74.15a4,4,0,0,1-.5-1.78,14.09,14.09,0,0,1,.78-3.71c1.17-3,2.48-5.88,3.77-8.81,6.65-15.08,7.52-30.89,5.82-47a34.66,34.66,0,0,0-1.73-7.44c-1.43-4.23-3-8.42-4.75-12.54a49.69,49.69,0,0,1-4.14-20.48c.23-11.49,0-23,0-34.5,0-1.91.31-3.81.48-5.72.11-1.23,2.71-3.54,4-3.52Z"/><path class="cls-2" d="M492.49,650.13c0-17.82,0-35.64.06-53.46a18.86,18.86,0,0,1,1.34-5.48c.12-.38,1-.61,1.54-.74s1.48-.28,1.68,0c3.66,4.93,20.15,31.12,22.23,35.57a32,32,0,0,1,2.35,7.21,88.9,88.9,0,0,1,1.82,17.07q0,27.68-.07,55.37c0,1.26-.31,2.52-.43,3.78-.2,2.24-2.77,5-4.79,5.27a80.34,80.34,0,0,1-20.9,0c-1.31-.18-3.93-2.35-4.06-3.54a94.44,94.44,0,0,1-.86-9.46c-.09-17.19,0-34.38,0-51.56Z"/><path class="cls-2" d="M708.57,669.11c0,10.8,0,21.59,0,32.38,0,2.54-.22,5.07-.35,7.6A6.67,6.67,0,0,1,702,715c-7,.35-13.94.66-20.9-.21-2.33-.29-4.79-2.74-4.86-5,0-.63-.16-1.26-.15-1.9a232,232,0,0,1,1-24.72c.7-6.3.66-12.67,1.07-19,.29-4.52,1.47-8.72,4.52-12.28a138.91,138.91,0,0,0,13.33-18.5c2-3.21,4.35-6.26,7.82-8.1a3,3,0,0,1,1.76-.45,2.84,2.84,0,0,1,2.51,2.4,74,74,0,0,1,.51,7.58c.06,11.42,0,22.85,0,34.28Z"/><path class="cls-2" d="M519.1,466.74q.2,23,.39,46a4.89,4.89,0,0,1-1.1,3.58,2.28,2.28,0,0,1-1.67.48,2.77,2.77,0,0,1-1.52-.77,3.51,3.51,0,0,1-1-1.55c-2.79-11.16-5.6-22.31-8.26-33.5-2.52-10.59-3.76-21.4-5.64-32.09a204.68,204.68,0,0,1-2.6-22.84,42.27,42.27,0,0,1,.31-5.72,10.88,10.88,0,0,1,9.78-10.12,35.41,35.41,0,0,1,5.73.09c2.51.18,5.14,2.53,5.34,4.67.24,2.53.6,5.08.61,7.62.06,14.71,0,29.41,0,44.12Z"/><path class="cls-2" d="M410.92,429.1H372.64c-3.2,0-5.6-2.82-5.44-6.39a5.66,5.66,0,0,1,.21-1.86c.76-1.77,1.78-3.43,3.8-3.91a30.7,30.7,0,0,1,5.63-.89c6.37-.28,12.75-.58,19.13-.58,18.5,0,37,.19,55.51.28,2.25,0,3.41,1.56,4.37,3.17a10.69,10.69,0,0,1,1,3.61c.35,2.14-2.06,5.7-3.89,5.8-5.1.3-10.19.7-15.29.77-8.93.13-17.87,0-26.8,0Z"/><path class="cls-2" d="M802.18,380.53c7.53.29,17.1-.64,26.64.48,2.14.25,4.18,2.91,4.1,5.56a13,13,0,0,1-.12,1.88c-.44,2.7-2.63,4.88-5,4.93-18.5.42-37,.47-55.49,0a35.35,35.35,0,0,1-5.61-1c-1.25-.25-3-2.95-2.88-4.5.21-3.74,2.29-6.08,5.7-6.36,1.91-.16,3.81-.45,5.71-.5C783.57,380.82,791.86,380.71,802.18,380.53Z"/><path class="cls-2" d="M405.6,346.25c8.87-.15,17.75-.33,26.63-.41a14.17,14.17,0,0,1,5.57.93,3,3,0,0,1,2.17,2.75,5.37,5.37,0,0,1-1.79,4.94,3.59,3.59,0,0,1-1.66.89,30.64,30.64,0,0,1-5.59.87q-27.58.28-55.18.4a34.68,34.68,0,0,1-3.78-.42c-2.16-.23-3.89-2.74-3.83-5.7,0-1.73,1.78-3.9,3.27-4.06.62-.07,1.23-.3,1.85-.33,1.9-.09,3.8-.15,5.7-.16H405.6Z"/><path class="cls-2" d="M402.71,380.52c8.27,0,16.55,0,24.82,0a26.23,26.23,0,0,1,5.68.52,6,6,0,0,1,3.14,2,6.57,6.57,0,0,1,1.1,3.57,6.34,6.34,0,0,1-.88,3.61,5.87,5.87,0,0,1-3.12,2.05,20.75,20.75,0,0,1-5.65.76q-27.68-.3-55.33-.76c-.62,0-1.24-.26-1.86-.33-1.24-.16-3.15-2.71-3.2-4.23-.12-3.18,1.22-6,3-6.29a34.43,34.43,0,0,1,5.56-.9C384.89,380.47,393.8,380.52,402.71,380.52Z"/><path class="cls-2" d="M798.42,345.71c8.31,0,16.61,0,24.91,0a51.59,51.59,0,0,1,5.66.64,4.31,4.31,0,0,1,3.21,4.11c-.1,1.86-.27,3.77-2.25,4.8a15.41,15.41,0,0,1-1.67.94,5.94,5.94,0,0,1-1.88.26c-17.88,0-35.76.07-53.64,0-1.21,0-2.4-.67-3.62-1-1.42-.35-2.67-2.58-2.66-4.59,0-1.75,1.77-4,3.29-4.07,3.8-.22,7.6-.51,11.41-.58,5.75-.09,11.5,0,17.24,0Z"/><path class="cls-2" d="M527.94,534.69c.15-.68.48-2.53,1-4.35.11-.41.82-1,1.14-1a2.09,2.09,0,0,1,1.43,1.07c1.1,4.31,1.67,8.79,3.16,12.94,7.87,21.91,22.08,38.32,43,48.74,2.82,1.41,6,2.25,8.15,4.75a3.42,3.42,0,0,1,.43,1.65,2.41,2.41,0,0,1-1.92,2.9,9.51,9.51,0,0,1-3.66.33,39.46,39.46,0,0,1-12.59-4.25c-5.61-3.07-10.8-6.8-14.63-12q-10.16-13.83-20-27.88C528.9,551.12,527.28,543.76,527.94,534.69Z"/><path class="cls-2" d="M476.07,424.57a47.41,47.41,0,0,1-4.78-.47,5.78,5.78,0,0,1-4.32-3.25,24.5,24.5,0,0,1-2.23-9.09c-.09-1.69,1.48-3.83,3.11-3.93,5-.31,10-.61,15-.93,1.55-.1,3.16-1.84,3.73-3.74.7-2.37.13-5,1.67-7.17.11-.15,1-.08,1,.08a20.37,20.37,0,0,1,1.8,9.16c-.15,2.5-.42,5-.78,7.49C488.85,422.54,486.49,424.6,476.07,424.57Z"/><path class="cls-2" d="M785.23,417.93c4.39,0,8.78-.05,13.18,0a24.79,24.79,0,0,1,3.63.72c1.41.25,2.9,2.55,2.82,4.36-.1,2-1.34,4.14-2.73,4.52-.59.16-1.1.72-1.68.77a175,175,0,0,1-33.79.32,4.56,4.56,0,0,1-2.79-2.19,5.66,5.66,0,0,1-.11-5.39,4.78,4.78,0,0,1,2.75-2.27,39.24,39.24,0,0,1,7.42-.94c3.76-.14,7.53,0,11.3,0Z"/><path class="cls-2" d="M728.77,411.9a38.3,38.3,0,0,1,1.43-5.76c.36-1,1.68-1.73,2.71-2.34s2.09,0,2.16,1.75c.1,2.5,0,5,0,7.52,0,1.25.2,2.5.34,3.74.11,1,2.67,3.92,3.68,4.09,3.08.52,6.2.87,9.26,1.49,5.73,1.17,7.23,8.24,4,11.87a7.44,7.44,0,0,1-4.86,2.53,21.45,21.45,0,0,1-12.73-2.53,6,6,0,0,1-2.67-2.5A40.3,40.3,0,0,1,728.77,411.9Z"/><path class="cls-2" d="M671.15,580.68a19.77,19.77,0,0,1-1.32,3.52,10.74,10.74,0,0,1-2.5,2.87c-4.49,3.6-9,7.2-13.61,10.61a51.62,51.62,0,0,1-15.51,7.38c-2.18.68-5.07-2.09-4.71-4.58a6.52,6.52,0,0,1,2.9-4.68,13.5,13.5,0,0,1,3.4-1.74,62.62,62.62,0,0,0,25.71-16.16c2.12-2.15,4-2.33,4.66-.78A26.74,26.74,0,0,1,671.15,580.68Z"/><path class="cls-2" d="M613.23,599.07c2.42.13,4.94.29,7.46.38,1.5.06,3,2.53,2.77,4.25a12.17,12.17,0,0,1-13.57,10.55,17.66,17.66,0,0,1-8.77-3.4,8.34,8.34,0,0,1-3.44-8.26c.16-1.52.72-2.43,2.23-2.73a23.94,23.94,0,0,1,3.67-.76C606.75,599,609.94,599.07,613.23,599.07Z"/><path class="cls-2" d="M530.85,703.31c-.25-.33-.7-.65-.73-1a321.67,321.67,0,0,1,0-47.79c0-.53.77-1.46,1.11-1.43,1.07.1,1.73,1.12,1.91,2.56a21.43,21.43,0,0,1,.35,3.81q-.93,21-2,42.07A6.32,6.32,0,0,1,530.85,703.31Z"/><path d="M536.25,362.62c.07,2.12.2,5.94.35,9.75.06,1.54,1.85,3.38,3.66,3.84,3.07.78,6.13,1.58,9.2,2.35,1.47.37,4.43-.92,5-2.12a173.89,173.89,0,0,0,6.72-17.88,114.11,114.11,0,0,1,4.18-10.65c1.49-3.46,7.27-4.67,9.75-2.09a7,7,0,0,1,2.12,3.07c2,10.68,5.45,20.95,8.1,31.44a2.87,2.87,0,0,1-.14,1.88,10,10,0,0,1-2.14,2.9,3.06,3.06,0,0,1-3.56.06c-2.4-1.23-3.49-3.62-5.14-5.51s-6.65-2.72-8.83-1.27c-1.57,1.05-2.81,2.58-4.34,3.69-1,.72-2.3,1.62-3.38,1.51-9.52-.94-19.07,1.94-28.54-.22A5.07,5.07,0,0,1,526.4,381a6.86,6.86,0,0,1-.61-3.72c.86-10.15,1.81-20.29,2.76-30.44a3.11,3.11,0,0,1,.52-1.8,10.87,10.87,0,0,1,2.91-2.15c1.44-.66,4.07,1.17,4.21,2.77.21,2.52.5,5.06.53,7.59S536.48,358.37,536.25,362.62Zm34.24,3.67c-.28-.41-.5-1.08-.86-1.16a1.42,1.42,0,0,0-1.18.76c-.38,1.28.2,1.93,1.38,1.6C570.14,367.4,570.27,366.71,570.49,366.29Z"/><path d="M535.74,307.31c.34-5.53-.23-11.28,1.61-16.82a2.88,2.88,0,0,1,2.67-2.35,14.75,14.75,0,0,1,3.72-.25c1.83.36,3.67,1,4.47,3a42.9,42.9,0,0,1,2.11,5.27c.74,3.08,1.13,6.24,1.71,9.36a3.84,3.84,0,0,0,1.88,2.81c1,.57,3.66-1.28,4.27-3.17.79-2.4,1.36-4.89,2.24-7.26a26.92,26.92,0,0,1,2.49-5.12c1.86-3,4.63-4,8.11-3.48a4.92,4.92,0,0,1,3.56,3.85,156.17,156.17,0,0,1-1.53,32.26,5.16,5.16,0,0,1-1.86,3.2,4.44,4.44,0,0,1-7.38-2.14c-.29-1.24-.35-2.52-.52-3.78-.22-1.61-.91-2.43-2-2.12a2.28,2.28,0,0,0-1.32,1.15c-1,2.34-1.64,4.76-3.84,6.4-2,1.48-5.77.81-6.52-1.4-.6-1.77-1-3.61-1.5-5.41-.57-2.12.31-4.83-2.44-6.07-2.33,1.82-1.7,4.56-2.2,7a13,13,0,0,1-1.14,3.54,3.54,3.54,0,0,1-3.2,1.78c-1.64.05-4.08-1.78-4.26-3.1a18.52,18.52,0,0,1-.44-3.74C534.8,316.28,535.3,311.87,535.74,307.31Z"/><path d="M694.61,261.89c-.51,6.28-.88,11.35-1.36,16.41a5.57,5.57,0,0,1-6.89,4.6,6.94,6.94,0,0,1-3.05-2,11.77,11.77,0,0,1-1.69-3.38c-1.37-3.55-2.64-7.14-4-10.68-.19-.5-.84-1.23-1.21-1.19a3.75,3.75,0,0,0-2.83,2.28c-1.92,3.45-1.1,7.5-2.52,11.06-.64,1.6-2.44,2.55-4.72,2.12a2.74,2.74,0,0,1-2.51-2.47c-.84-11.46-.47-22.85,2.43-34.06.29-1.16,3-2.93,4.54-2.89,4.18.12,6.16,1.32,7.34,4.63.63,1.8,1,3.68,1.77,5.44a39.22,39.22,0,0,0,2.62,5.07,2.22,2.22,0,0,0,1.51,1.07c.93,0,1.73-1,1.92-2.47.4-3.15.48-6.35,1-9.48a5.51,5.51,0,0,1,2.14-2.81,2.82,2.82,0,0,1,3.6,0c.91.74,2.15,1.84,2.16,2.79C694.94,251.64,694.71,257.37,694.61,261.89Z"/><path d="M548.1,246.74c-.37,8.24-.38,12.73-.82,17.16a10,10,0,0,1-6.66,8.61,19.5,19.5,0,0,1-16.67-.95c-3-1.52-5.34-4-5.28-7.42.16-8.91,1-17.81,2-26.68a11.86,11.86,0,0,1,1.06-3.62,3.52,3.52,0,0,1,2.85-2.07c1.55-.27,2.58.14,3,1.48a11.73,11.73,0,0,1,1,3.59c0,5.1-.31,10.21-.29,15.31,0,3.18.37,6.36.69,9.53.05.55.71,1,1,1.59a3,3,0,0,0,3.19,1.45,3,3,0,0,0,2.78-2.07c1.76-6.17,1.52-12.6,2.3-18.91a59.09,59.09,0,0,1,1.16-7.52c.28-1.1,1.4-2,2.22-2.95,1-1.12,2.13-1.16,3.52-.6,1.16.46,2.26,1.16,2.35,2.59C547.9,240.34,548.05,245.43,548.1,246.74Z"/><path d="M616.46,313.05c.33-6.28.6-11.35.86-16.43.12-2.23,2.87-4.62,5.26-4.46,3.8.26,7.67.24,11.37,1,7.37,1.53,11.59,7.42,9.3,15.82-.65,2.38-2.16,4.56-3.45,6.72a7.54,7.54,0,0,0-.94,5.46,21.49,21.49,0,0,0,1.08,3.65c.68,1.78,1.49,3.51,2.19,5.28a2.94,2.94,0,0,1-2.47,4c-3.8.61-6-.46-7.76-3.8-.87-1.69-1.57-3.49-2.58-5.1-.64-1-1.62-2.36-2.61-2.51s-1.59,1.48-1.93,2.79c-.48,1.83-1,3.67-1.59,5.46-.43,1.24-3.12,2.26-4.93,2.06-1.44-.16-3.54-2.68-3.4-4.1C615.43,323.22,616,317.53,616.46,313.05Zm13.47-12.58a6.74,6.74,0,0,0-1.7.84,8,8,0,0,0-2.26,5,3.35,3.35,0,0,0,1.13,3.48,4,4,0,0,0,5.06-.45c2.48-2.61,2.34-5.66-.45-8.24A4.89,4.89,0,0,0,629.93,300.47Z"/><path d="M647.89,370c.22-5.1.43-10.19.67-15.28a6.08,6.08,0,0,1,4.8-5.16,35.21,35.21,0,0,1,15.1,1.15,7.74,7.74,0,0,1,5.23,5.16c1.51,5,1.83,10.25-1,14.81-2.64,4.25-3,8.21-.94,12.62a16.65,16.65,0,0,1,1.1,3.6c.57,2.57-2.16,4.71-5,3.76a7,7,0,0,1-3.22-1.85,33.47,33.47,0,0,1-2.8-5c-.93-1.68-1.9-3.84-3.87-3.86-2.17,0-2,2.44-2.52,4a24.82,24.82,0,0,1-1.31,3.53,2.88,2.88,0,0,1-3.11,1.66,7.16,7.16,0,0,1-2.88-2.15,2.66,2.66,0,0,1-.65-1.75c0-5.1.15-10.21.24-15.31Zm18-7.83a4.4,4.4,0,0,0-3.1-4.28,3.47,3.47,0,0,0-3.46.36c-2.35,1.86-2.53,5.89-.51,8.22a3.6,3.6,0,0,0,4.85.27A6.84,6.84,0,0,0,665.88,362.17Z"/><path d="M579.34,318c-.5-9.22.83-14.7,3.18-20s10-9.34,16-7.13a29.81,29.81,0,0,1,5.3,2.09,11.84,11.84,0,0,1,5.69,7.3,31,31,0,0,1,1,5.62,55.7,55.7,0,0,1-1.65,17c-1.6,6.21-8.28,10.84-14.45,9.84a32,32,0,0,1-7.26-2.18c-4.48-1.87-6.72-5.62-7.6-10.22C579.2,318.45,579.22,316.51,579.34,318Zm10.09-7.48c-.38,5-.33,7.56.49,10,.43,1.28,2.9,3.21,4.35,3.19a6.39,6.39,0,0,0,6.49-5.59c.31-3.79.47-7.59.52-11.4a13.32,13.32,0,0,0-.85-3.69c-.66-2.34-6.4-4.27-8.06-2.63a6.85,6.85,0,0,0-2,3.15C589.77,306.68,589.52,309.85,589.43,310.51Z"/><path d="M659.41,259.55c-.12,2.56-.2,5.11-.38,7.66a15.51,15.51,0,0,1-3.6,8.7,11.4,11.4,0,0,1-6.28,4.1,25,25,0,0,1-11.37.12,12.63,12.63,0,0,1-9-9,39.3,39.3,0,0,1,.77-20.81,29.72,29.72,0,0,1,3.59-6.73,10.27,10.27,0,0,1,6.11-4.35c6.35-1.77,12.38-.54,17,5.61a13.26,13.26,0,0,1,2.75,7C659.12,254.45,659.25,257,659.41,259.55Zm-8.72-.19a34,34,0,0,0-.51-5.72,19.24,19.24,0,0,0-2.26-5.13c-1.45-2.41-6.5-2.56-8.22-.33a11.66,11.66,0,0,0-1.94,3.21,29.4,29.4,0,0,0-.88,14.92,12,12,0,0,0,1.49,3.4c1.57,2.86,6.81,4.29,9.45.3a17.44,17.44,0,0,0,2.3-5.11A33.58,33.58,0,0,0,650.69,259.36Z"/><path d="M665.84,295.09a41.93,41.93,0,0,1,5.46.72,2.67,2.67,0,0,1,2,2.67,2.88,2.88,0,0,1-1.83,3c-2.35,1.2-4.9,1.18-7.4,1.47a5.83,5.83,0,0,0-3.42,1.43,2.55,2.55,0,0,0-.67,3.33,6.16,6.16,0,0,0,2.53,2.55c2.28,1,5.11.62,7.09,2.45a3.35,3.35,0,0,1,.65,3.41c-.16.58-.59,1.36-1.08,1.52-2.94.95-6,1.65-8.9,2.64a3.31,3.31,0,0,0-2,3.07c-.27,3,1.11,5.27,3.57,5.8s5,.92,7.4,1.63a2.92,2.92,0,0,1,1.91,2.87,3.08,3.08,0,0,1-2,3,5.89,5.89,0,0,1-1.74.63,49,49,0,0,1-15.1-1.46c-2.14-.56-4.58-3.41-4.46-5.54.56-10.16,1.11-20.32,1.73-30.48a6.12,6.12,0,0,1,6.57-5.44c.64,0,1.27.06,1.91.11Z"/><path d="M565.56,233.81a34.69,34.69,0,0,1,3.8.28c4.91.55,8.17,3.11,9.58,7.91a3.33,3.33,0,0,1-.72,3.53,3.23,3.23,0,0,1-3.36.88,31.56,31.56,0,0,1-3.39-1.7,21,21,0,0,0-3.43-1.37,2.09,2.09,0,0,0-2.84,1.86,2.76,2.76,0,0,0,.23,1.78,11.07,11.07,0,0,0,2.28,2.87c2,1.6,4.16,2.93,6.16,4.49,3.83,3,5.07,7,4.82,11.81-.35,6.75-7.08,10.37-11.76,10a17.68,17.68,0,0,1-13.18-6.64,11.28,11.28,0,0,1-1-1.64c-.69-1.23.08-5,1.18-5.18s2.71-.42,3.68.11c2.71,1.48,5.13,3.49,7.84,5,1.22.66,2.5-.26,3.06-1.64a3.54,3.54,0,0,0-.28-3.54,28.16,28.16,0,0,0-4-4.07c-2.43-2-5.19-3.68-7.46-5.86a10,10,0,0,1-3-8.7C554.75,237.54,559.27,233.77,565.56,233.81Z"/><path d="M701.14,260.66c.28-3.61.65-8.68,1.06-13.75.11-1.41,2.37-3.51,3.78-3.76a28.62,28.62,0,0,1,15,.95,2.81,2.81,0,0,1,2.08,2.83c0,1-1.11,1.83-2.5,2.16-1.84.44-3.78.51-5.6,1a3.73,3.73,0,0,0-2.36,2.69,4,4,0,0,0,2,4.81c1.13.57,2.37.91,3.5,1.47a23.41,23.41,0,0,1,3.24,1.92,2.44,2.44,0,0,1,1.06,1.54,2.83,2.83,0,0,1-2,2.57c-1.78.67-3.71.92-5.49,1.57a12.5,12.5,0,0,0-3.24,1.91c-2.51,1.91-1.87,6.81,1,7.87,2.38.87,4.87,1.47,7.23,2.39a3.62,3.62,0,0,1,2.1,2.84c.35,1.57-.23,2.43-1.89,2.69a15,15,0,0,1-1.83.41c-5.08,0-10.16.09-15.15-1.19-1.29-.33-3.22-2.86-3.13-4.38C700.33,273.52,700.69,267.82,701.14,260.66Z"/><path d="M635.1,347.61a53.43,53.43,0,0,1,5.33.82,3,3,0,0,1,2.25,2.7,2.51,2.51,0,0,1-1.63,3,44.53,44.53,0,0,1-5.55,1.21c-1.24.26-2.5.44-3.71.81a4.15,4.15,0,0,0-1.47,1.1,3.79,3.79,0,0,0-1.09,3.47,3.14,3.14,0,0,0,2.1,2.81c1.83.48,3.74.7,5.61,1.05a3.82,3.82,0,0,1,3,2.11c.46,1-1.78,3.86-3.19,4.29-.61.19-1.23.32-1.86.45-1.24.26-2.51.42-3.73.75a5,5,0,0,0-3.62,3.87c-.42,1.62.94,3.8,2.85,4.37a65.94,65.94,0,0,1,7.31,2.1c.81.35,1.24,2,1.46,3.17.29,1.52-.57,2.41-2,2.75a34.1,34.1,0,0,1-15.11,0c-1.37-.28-3.84-2.6-3.87-3.78s-.18-2.54-.14-3.82c.28-9.56,1.53-19.05,2.54-28.55.36-3.4,3-5.42,6.59-5.23C629.06,347.15,631,347.31,635.1,347.61Z"/><path d="M590.2,345.52a12.59,12.59,0,0,1,3.29,1.68c2.39,2.26,2.86,5.62,4.4,8.39.3.55.75,1.38,1.2,1.43a3.17,3.17,0,0,0,3.1-1.76c1.28-2.21,2.44-4.5,3.88-6.6,1.17-1.71,3.08-2,5.07-1.7a3.35,3.35,0,0,1,2.62,4.28c-1.5,3.5-2.82,7.11-4.62,10.45a55,55,0,0,0-6.77,21.76,4,4,0,0,1-3.64,3.64,2.8,2.8,0,0,1-3.12-1.61,8.79,8.79,0,0,1-1.14-3.55c.34-7.87-2-15.11-4.92-22.24-1.2-2.94-2.67-5.77-3.22-9-.34-2,.2-3.8,2-4.72A9,9,0,0,1,590.2,345.52Z"/><path d="M513.84,244.64c-.43,6.49-.67,11.56-1.12,16.61-.55,6.16-7.07,11.32-13.5,10.83a12.84,12.84,0,0,1-10.79-6.74,5.15,5.15,0,0,1,.1-5.35,3.85,3.85,0,0,1,5-1.32c1.63.93,3.09,2.15,4.68,3.16,1.4.9,4-.48,4.27-2.2q1.68-12.24,3.34-24.48a4.15,4.15,0,0,1,3.6-3.68,2.55,2.55,0,0,1,3.05,1.5c.27.58.79,1.12.83,1.7C513.55,238.46,513.71,242.26,513.84,244.64Z"/><path d="M593.43,256.65c0-.91,0-4.06,0-7.22,0-3.42-1.4-6-4.67-7.45a10.83,10.83,0,0,1-2.92-2.29c-.36-.35-.35-1.09-.51-1.65-.48-1.61.13-2.48,1.82-2.68A17.39,17.39,0,0,1,589,235a168.89,168.89,0,0,1,20.72,1.18,3.34,3.34,0,0,1,2.7,2.28c.87,1.92.32,3.37-1.89,4.39-1.14.53-2.37.88-3.54,1.34a5.94,5.94,0,0,0-3.61,4,42.58,42.58,0,0,0-1.16,7.46c-.39,5-.52,10.07-.93,15.1a12.71,12.71,0,0,1-1.34,3.42c-.57,1.39-1.6,1.7-3.11,1.55A2.86,2.86,0,0,1,594,273.8a11,11,0,0,1-.91-3.57C593.05,266.45,593.25,262.67,593.43,256.65Z"/><path d="M467.38,771.71c-15.28,0-30.55,0-45.83,0-3.81,0-7.62-.31-11.43-.53-1.81-.1-4.72-3.23-4.94-5.19-.07-.63-.26-1.25-.29-1.88q-.37-6.68-.68-13.35c-.11-2.46,2.12-5.24,4.28-5.42,1.89-.16,3.79-.47,5.69-.47q50.61-.06,101.22,0c2.53,0,5.06.37,7.59.58,2.29.2,5.07,2.66,5.42,4.64,1,5.67,1.36,11.32,0,17-.27,1.14-2.74,3.82-3.81,3.94-1.89.22-3.78.62-5.67.65q-25.79.28-51.56.47Zm-1-7.92v.15c14.7,0,29.39,0,44.09,0A56.6,56.6,0,0,0,518,763c1.41-.2,3.17-2.44,3.18-4.29a6.66,6.66,0,0,0-.69-3.66,6.29,6.29,0,0,0-3.21-1.86,13,13,0,0,0-3.8-.41q-46,0-92,0c-1.27,0-2.54.23-3.82.33-3.18.24-4.91,3.84-3.53,7.24a4.4,4.4,0,0,0,2.58,2.54c2.43,1,5,.95,7.52.95Q445.27,763.82,466.35,763.79Z"/><path d="M465.49,807.22c-10.22,0-20.45.12-30.68,0-7.66-.11-15.32-.52-23-.92-4.19-.22-7.85-3.64-8.21-9-.31-4.52.76-8.89,1.74-13.25.33-1.49,2.56-3.6,3.93-3.74,1.9-.2,3.78-.6,5.68-.68,3.83-.16,7.67-.23,11.5-.22q43.14.09,86.29.25c3.18,0,6.36.31,9.54.54,2.73.2,5.8,3.26,6.48,6.26a31.77,31.77,0,0,1,.32,13.31c-.61,3.21-3.28,6.21-6.14,6.4-6.37.43-12.74,1-19.12,1.07-12.78.16-25.56.05-38.35.05Zm-.26-8v.15c14.68,0,29.35,0,44,0,3.17,0,6.35-.41,9.52-.67,1.79-.15,4.16-3.74,3.89-5.81-.33-2.55-2.6-5.21-4.64-5.39-2.53-.22-5.07-.58-7.6-.59q-43.06-.08-86.13,0c-2.54,0-5.08.28-7.62.46-3.72.26-6.43,4.47-5.44,8.45a3.35,3.35,0,0,0,2.47,2.52,23.31,23.31,0,0,0,5.59.91C434.61,799.22,449.92,799.19,465.23,799.19Z"/><path d="M453.86,814.62c12.49.19,25.82.32,39.14.69,2.64.07,4.57,2,5.66,4.46a20.75,20.75,0,0,1,1.26,3.57,30.09,30.09,0,0,1,.13,11.35c-.39,2.82-3.64,6.15-6.27,6.38-4.42.39-8.84.95-13.27,1q-33.31.16-66.65.05a27.6,27.6,0,0,1-5.57-1c-2.06-.44-3-2.18-3.94-3.79a5.34,5.34,0,0,1-.58-1.81,43,43,0,0,1-.07-13.26c.51-3.85,3.87-7.24,7.44-7.41,2.54-.12,5.07-.26,7.61-.27,7.62,0,15.23,0,22.85,0Zm-2.37,19.69v-.07c10.15,0,20.31,0,30.46,0,2.53,0,5.05-.34,7.58-.54a5.47,5.47,0,0,0,4-3.43,7.06,7.06,0,0,0-.8-5.45c-.56-.94-2-1.52-3.16-1.91a11.86,11.86,0,0,0-3.76-.5q-33.32,0-66.63,0a37.25,37.25,0,0,0-3.77.45c-3,.31-5,4.09-4,7.27a5.2,5.2,0,0,0,4,3.49,24.38,24.38,0,0,0,5.64.68C431.18,834.34,441.34,834.31,451.49,834.31Z"/><path d="M517.83,817.82c1.63.13,2.89.19,4.15.33,2.67.31,6.09,3.48,6.4,6.24a42.22,42.22,0,0,1,.21,7.54,9.94,9.94,0,0,1-8.48,8.87,26.67,26.67,0,0,1-5.65.06,9.36,9.36,0,0,1-8-7.05,28.76,28.76,0,0,1-.19-9.44c.42-2.92,3.47-6.08,6.23-6.3C514.4,817.91,516.3,817.89,517.83,817.82ZM520.91,829a4,4,0,0,0-1.91-3c-1.24-.7-4.33.71-4.88,2s.56,4.39,2,4.9a3.78,3.78,0,0,0,3.49-.57A2.88,2.88,0,0,0,520.91,829Z"/><path d="M732.94,744.81c17.19,0,34.38,0,51.57,0a62.11,62.11,0,0,1,7.54.84c1.32.18,3.32,2.57,3.68,4,1.28,5.05.7,10.12.37,15.19-.19,2.93-3.38,6.24-6.14,6.45-3.17.25-6.34.59-9.51.61q-43,.24-86,.33c-5.72,0-11.45-.47-17.16-.86-4.66-.32-6.49-3.14-6.69-7.64-.23-5.08-.73-10.21.76-15.17a5.43,5.43,0,0,1,2.52-2.63,8.31,8.31,0,0,1,3.62-.93c3.81-.18,7.64-.25,11.45-.26q22,0,43.94,0Zm.33,19h0c15.32,0,30.64,0,46,0a33.68,33.68,0,0,0,5.6-.84c1.84-.32,3.52-3.8,3.07-6.24a5.12,5.12,0,0,0-3.92-3.52c-1.9-.17-3.81-.48-5.71-.48q-45,0-90,0c-1.91,0-3.82.25-5.73.39-3.23.23-4.93,3.88-3.45,7.24a3.75,3.75,0,0,0,2.64,2.47,42.36,42.36,0,0,0,7.49,1C703.9,763.84,718.58,763.79,733.27,763.79Z"/><path d="M733.7,779.59c17.17,0,34.35,0,51.52,0a51.29,51.29,0,0,1,5.65.59,4.89,4.89,0,0,1,3.17,1.93,8.93,8.93,0,0,1,2.44,5,45.53,45.53,0,0,1-.49,13.28c-.52,2.72-3.75,5.86-6.55,6.09-3.17.25-6.34.6-9.51.61q-46.75.09-93.52.05c-1.9,0-3.81-.09-5.71-.27-1.26-.11-2.49-.47-3.74-.68-2.85-.49-6.06-3.74-6.17-6.47-.15-3.81-.3-7.63-.21-11.44.13-4.89,1.49-8.5,7.77-8.59,7-.1,14-.27,21-.3,11.45-.05,22.9,0,34.36,0Zm-.41,19.58v.23q18.23,0,36.46,0c3.84,0,7.68,0,11.51-.18a10.76,10.76,0,0,0,3.75-.71,6.82,6.82,0,0,0,3-2.25c2.09-3.33-.36-8.5-4-8.84-2.54-.24-5.09-.58-7.63-.59q-42.22-.06-84.44,0c-1.92,0-3.84,0-5.75.15a11.83,11.83,0,0,0-3.77.63,6.41,6.41,0,0,0-3,2.23c-2,3.37.43,8.5,4.06,8.77,3.18.24,6.37.55,9.56.57C706.42,799.21,719.86,799.17,733.29,799.17Z"/><path d="M719.16,841.84c-6.36,0-12.72.06-19.08,0-7-.09-14-.23-21-.5-5.83-.23-8.28-2.62-8.47-8-.15-4.44-.46-8.87.59-13.27.5-2.06,3.13-4.7,5.25-4.93a34.23,34.23,0,0,1,3.76-.49q37.2-.12,74.42-.13a69.15,69.15,0,0,1,7.57.7c1.77.2,4.6,3.27,5,5.24a50.08,50.08,0,0,1,.63,15.16c-.2,2-3,5.08-4.84,5.25-2.53.23-5.06.57-7.6.62-12.08.23-24.16.38-36.24.55Zm-.9-7.59h0c10.17,0,20.35,0,30.52,0a50.61,50.61,0,0,0,7.58-.58,5.65,5.65,0,0,0,.1-10.86,22.86,22.86,0,0,0-5.67-.6q-31.47,0-62.93,0c-1.9,0-3.8.24-5.71.33-3.73.19-6.47,4.95-4.69,8.48a4.78,4.78,0,0,0,2.74,2.37,36.72,36.72,0,0,0,7.55.79C697.92,834.3,708.09,834.25,718.26,834.25Z"/><path d="M784.55,817.86h1.89c7.4.14,11.24,5.36,10.69,12.54-.49,6.2-5.18,10.44-11.39,10a20.16,20.16,0,0,1-5.46-1.26,8,8,0,0,1-5.55-6.91,33.91,33.91,0,0,1-.25-3.76C774.48,821.11,777.59,817.85,784.55,817.86Zm.18,7a4.58,4.58,0,0,0-2.18,5.94,3.77,3.77,0,0,0,4.31,2.17,3.9,3.9,0,0,0,2.66-4,4.68,4.68,0,0,0-3-4A5.77,5.77,0,0,0,784.73,824.88Z"/><path d="M250.65,807.22q-19.17,0-38.32,0c-1.91,0-3.81-.28-5.72-.41a6.5,6.5,0,0,1-5.23-4.78,37.29,37.29,0,0,1,.66-17c.62-2.19,3.2-4.64,5.35-4.79,1.27-.09,2.53-.33,3.8-.42s2.55-.1,3.83-.1q37.35,0,74.71,0c3.18,0,6.37-.06,9.46,1a5.36,5.36,0,0,1,3.08,2.14c1,1.61,2.34,3.11,2.9,4.86a22.66,22.66,0,0,1,.29,13.2,7,7,0,0,1-5.14,5.15,33.83,33.83,0,0,1-7.53,1.11c-14,.1-28.09.05-42.14.05Zm4.71-7.67v-.19c10.82,0,21.65,0,32.47,0a33.71,33.71,0,0,0,7.48-1,4.44,4.44,0,0,0,2.6-2.38,6.52,6.52,0,0,0-4.84-8.6c-5.72-1-11.44-.2-17.15-.27-18.46-.21-36.92-.23-55.39-.26a67,67,0,0,0-7.6.55c-.55.06-1,.78-1.58,1a3.1,3.1,0,0,0-1.9,3c-.45,5.26,1.15,7.56,5.81,7.64C228.62,799.29,242,799.4,255.36,799.55Z"/><path d="M252.35,744.86c14,0,28-.05,42,0a56.71,56.71,0,0,1,7.52,1c1.08.15,3.44,2.94,3.65,4.09a39.24,39.24,0,0,1-.23,16.95c-.3,1.17-2.72,3.73-3.83,3.93s-2.48.6-3.74.73a74.27,74.27,0,0,1-7.6.55q-38.13,0-76.26,0a64.85,64.85,0,0,1-7.57-.82c-1.63-.19-4.59-3.66-4.7-5.43a77.23,77.23,0,0,1,.38-15.2c.31-2.45,2.55-5.08,4.71-5.24,3.17-.24,6.33-.56,9.5-.58,12.07-.07,24.15,0,36.22,0ZM253.63,764v-.2c8.3.15,16.61.43,24.91.4,5.09,0,10.19-.49,15.28-.83,2.11-.14,4.06-2.93,4.09-5.62,0-2-1.47-4-3.06-4.23a74.53,74.53,0,0,0-7.56-.79c-6.39-.11-12.77,0-19.16,0q-25.87,0-51.74.06a12.55,12.55,0,0,0-5.54,1.08,3.5,3.5,0,0,0-2.14,2.91,4.79,4.79,0,0,0,.5,3.66c1,1.59,2,3.39,4.2,3.4C226.81,763.91,240.22,763.94,253.63,764Z"/><path d="M239.08,815.43c8.93,0,17.86,0,26.79,0a54.92,54.92,0,0,1,5.7.54c3.45.4,7.18,4.17,7.35,7.74.19,3.81.16,7.63.11,11.44,0,2-2.8,5.2-4.65,5.48-3.77.57-7.56,1.47-11.34,1.5-17.86.15-35.72.07-53.58,0a35.25,35.25,0,0,1-3.75-.61c-1.2-.14-3.89-2.5-4.15-3.61a35.88,35.88,0,0,1,0-17,7.76,7.76,0,0,1,6.87-5.62q15.32,0,30.61,0Zm5.39,19c3.07,0,10.65.05,18.23,0a44.29,44.29,0,0,0,5.59-.72c1.51-.2,3.17-2.23,3.35-4.07.35-3.57-1.86-6.6-4.88-6.69a13.25,13.25,0,0,1-1.88-.16c-5.11-.92-9.93,2.27-15,1.24-5.64-1.15-11.31-1-17-1-6.94,0-13.89.26-20.83.5-3.11.1-5.46,3.3-5.17,6.69a5.34,5.34,0,0,0,4.69,5.06,93.28,93.28,0,0,0,9.44.5C227.36,835.48,233.66,835,244.47,834.39Z"/><path d="M294.69,817.66c1,.19,2.23.34,3.43.66,4.88,1.31,8,5.89,8,11.33s-3.39,9.41-8.51,10.91a19.8,19.8,0,0,1-7.43.45c-2-.18-4.66-2.57-5.31-4.7a25.26,25.26,0,0,1-.71-12.91,7.72,7.72,0,0,1,6.59-5.72C292,817.58,293.21,817.66,294.69,817.66Zm3.93,12.45a5.12,5.12,0,0,0,.05-1.78,2.57,2.57,0,0,0-2.52-1.93,2.76,2.76,0,0,0-2.79,1.74,3.81,3.81,0,0,0-.17,1.72,3.65,3.65,0,0,0,1.75,2.8C296.25,833.55,298,832.38,298.62,830.11Z"/><path d="M946.7,744.71q20.13.22,40.27.45c1.92,0,3.83.18,5.75.29,2.78.17,6,3.19,6.53,6.07a36.16,36.16,0,0,1-.59,15.18c-.62,2.41-3,4.92-5.1,5.07-3.18.23-6.36.56-9.54.56q-32.61.09-65.21,0c-6.39,0-12.78,0-19.09-1.34-2.05-.42-4.78-3.11-5.09-5.13a57.06,57.06,0,0,1,0-17.16c.19-1.25,2.57-3.24,4.18-3.37,2.54-.21,5.09-.55,7.63-.56,13.42-.06,26.85,0,40.28,0Zm1.26,7.94v.09c-12.78,0-25.56,0-38.35,0a10.25,10.25,0,0,0-3.54,1.08,3.17,3.17,0,0,0-2,3c-.31,3.72,1.73,6.5,5,6.68,1.27.07,2.54.3,3.82.31q34.51.25,69,.43a50.06,50.06,0,0,0,5.7-.59c1-.11,3.32-2.86,3.55-4.17.67-3.83-1.19-6.35-4.87-6.52-3.18-.15-6.37-.36-9.56-.37C967.14,752.62,957.55,752.65,948,752.65Z"/><path d="M947.29,779.64q17.21,0,34.41,0c3.19,0,6.37.19,9.56.2,6.6,0,9.12,5.53,9.36,10,.21,3.8.28,7.62-1.11,11.31-.76,2-3.39,4.71-5.34,5a47,47,0,0,1-5.63.88c-3.81.17-7.64.17-11.46.17q-32.51,0-65,0c-3.81,0-7.63-.23-11.44-.43a7.1,7.1,0,0,1-6.26-6.16c-.39-5.08-.68-10.15.19-15.23.37-2.16,2.9-4.89,5-5.1,1.9-.19,3.78-.56,5.68-.58,7-.09,14-.07,21-.08h21Zm.8,7v.16q-15.24,0-30.47,0c-2.54,0-5.08,0-7.62.16a10.74,10.74,0,0,0-3.71.72,6.71,6.71,0,0,0-2.92,2.29c-2.13,3.33.32,8.42,4.06,8.78,1.89.18,3.78.53,5.67.54q34.29.06,68.57,0a47.29,47.29,0,0,0,5.67-.55,13.47,13.47,0,0,0,1.77-.57c1.42-.38,2.93-2.54,2.77-4.51-.15-1.81,0-3.91-2.23-4.8a11.06,11.06,0,0,0-3.5-1.21C973.46,787.29,960.78,787,948.09,786.66Z"/><path d="M931.28,815.46c11.33-.29,20.22-.56,29.11-.7,2.52,0,5,.31,7.56.49,2,.15,4.61,2.89,5.15,5a40.91,40.91,0,0,1,.42,15.12c-.35,2.85-3.49,6.09-6.22,6.35-1.89.18-3.78.47-5.67.47q-27.63.07-55.25,0c-1.9,0-3.8-.25-5.7-.41-3.07-.25-6.12-3.19-6.41-6.06a52.33,52.33,0,0,1,.19-15.15c.47-2.5,4.24-5.74,6.88-5.7C912.13,815.11,922.93,815.31,931.28,815.46Zm3.19,6.85c-9.07.26-18.63.43-28.18.91a5,5,0,0,0-4.15,3.49c-1.12,3.2.63,6.8,3.5,7.7a28.79,28.79,0,0,0,9.43,1.22q22-.52,44-1.13a17.27,17.27,0,0,0,1.9-.22,5.33,5.33,0,0,0,1.88-.32,14.8,14.8,0,0,0,3-2.27c.37-.37.3-1.21.33-1.85.22-4.68-2-7.27-6.42-7.42a57.4,57.4,0,0,0-7.64-.13A81.48,81.48,0,0,1,934.47,822.31Z"/><path d="M977.21,828.58c.27-1.9.59-4.4,1-6.9.27-1.79,3.54-4.43,5.53-4.66a21.14,21.14,0,0,1,9.37,1.06c3.75,1.27,7.21,6.46,6.59,10.52a27.2,27.2,0,0,1-.74,3.72c-1.77,5.83-5.07,8.49-10.92,8.8a26.81,26.81,0,0,1-3.8-.12,7.54,7.54,0,0,1-6.35-6.11C977.62,833,977.46,831.11,977.21,828.58Zm15.28,1.34a2.76,2.76,0,0,0-1.18-3.29,4,4,0,0,0-3.37-.76c-.48.13-.93.85-1.16,1.4-1.3,3.08-.65,4.81,2.06,5.71C990.64,833.58,991.78,832.62,992.49,829.92Z"/><path d="M908.63,538.13q-23.93-.45-47.85-.92a6.17,6.17,0,0,1-5.6-4.27,36.41,36.41,0,0,1,.06-15.17,5.14,5.14,0,0,1,3.87-3.82,29.49,29.49,0,0,1,5.56-1.24c7.65-.48,15.3-1,23-1.09,19.79-.18,39.59-.15,59.38-.13,3.17,0,6.35.33,9.53.58,2.88.23,6.32,3.34,6.77,5.92a38,38,0,0,1-.06,13.33,8.07,8.07,0,0,1-6.75,5.86c-3.82.18-7.64.39-11.46.41-12.13,0-24.26,0-36.39,0C908.64,537.78,908.64,538,908.63,538.13Zm-1.24-7.72h0c12.06,0,24.13,0,36.19,0,2.53,0,5.07-.23,7.6-.39,3.12-.2,4.88-4,3.42-7.23A3.86,3.86,0,0,0,952,520.3a25.21,25.21,0,0,0-5.54-.95q-38.09-.06-76.18,0a37.7,37.7,0,0,0-3.78.43c-1.85.18-4,3.25-4,5.7,0,1.9,1.55,4,3.15,4.14a73.28,73.28,0,0,0,7.52.72C884.54,530.45,896,530.41,907.39,530.41Z"/><path d="M909,573.21c-13.42,0-26.83,0-40.24-.05a95.06,95.06,0,0,1-9.5-.9c-1.42-.16-3.72-2.45-4-3.69a45.89,45.89,0,0,1,0-17.09c.36-2,3.15-4.44,5.47-4.65,1.9-.17,3.8-.48,5.71-.5,21.07-.23,42.15-.49,63.22-.58,7.66,0,15.32.34,23,.57,1.27,0,2.53.31,3.8.43,3,.3,6.39,3.41,6.47,6.08.13,5.1.47,10.2-.49,15.27-.22,1.2-2.52,3.8-3.7,3.93-1.9.21-3.8.58-5.7.62q-22,.44-44.06.78Zm1.28-7.66v.32q19.13.38,38.25.72a8.32,8.32,0,0,0,3.75-.47,5.67,5.67,0,0,0,2.55-2.66,9.26,9.26,0,0,0,.06-7.39,3.64,3.64,0,0,0-2.63-2.45c-3.13-.94-6.31-.82-9.47-.75q-34.43.81-68.87.39c-1.91,0-3.81.18-5.72.25-4.31.15-6.43,3.14-5.7,7.88a3.15,3.15,0,0,0,2.15,2.84,12.31,12.31,0,0,0,3.55,1C882.19,565.39,896.22,565.46,910.24,565.55Z"/><path d="M894.74,608.25c-8.32,0-16.64.09-25,0-3.19-.05-6.36-.57-9.54-.88a6.24,6.24,0,0,1-5.22-4.74,62.67,62.67,0,0,1-.11-15.3c.15-1.75,3.25-4.79,5.24-5a47.81,47.81,0,0,1,5.68-.77q25.9-.08,51.82,0a31.87,31.87,0,0,1,13.09,2.41c1.88.84,2.82,2.49,3.69,4.19a5.78,5.78,0,0,1,.4,1.87,47.16,47.16,0,0,1-.1,13.37c-.21,1.37-2.25,3.75-3.64,4a35.76,35.76,0,0,1-5.66.88c-10.23.09-20.47,0-30.7,0Zm1.26-6.9,27.39-1a4.51,4.51,0,0,0,3.24-1.68c2-2.16,1.14-7.11-1.5-8a10.15,10.15,0,0,0-1.73-.78c-9.56-1.33-45.27-1.72-56.9-.66-2,.19-4,2.75-4.31,5.54a4.93,4.93,0,0,0,4.29,5.19C876,600.39,885.45,600.84,896,601.35Z"/><path d="M963,593.92a42.61,42.61,0,0,1-.7,5.27,7.14,7.14,0,0,1-3.12,4.52,15.63,15.63,0,0,1-12.62,1.85,3.64,3.64,0,0,1-2.71-2.43,42.33,42.33,0,0,1-2.19-7.15c-.57-3.93,1-7.4,3.34-10.49a4,4,0,0,1,1.64-.91,15.06,15.06,0,0,1,11-.11c2.64.87,4,2.89,4.76,5.38A28.9,28.9,0,0,1,963,593.92Zm-5.22.82c0-.6,0-1.21,0-1.81-.12-2.08-1.47-3.26-3.15-4.18-1.51-.83-3.2-.46-5,1.11-3.06,2.62-2.35,7.62,1.27,9C953.76,600,957.62,597.67,957.76,594.74Z"/><path d="M289.65,538.45c-14.69-.14-29.39-.25-44.08-.48a15.65,15.65,0,0,1-5.51-1.19,4.56,4.56,0,0,1-2.48-2.62,43.75,43.75,0,0,1-.71-17.06c.27-1.91,3.18-4.6,5.39-4.85a75.07,75.07,0,0,1,7.6-.71c12.78-.07,25.56,0,38.34,0,10.87,0,21.73.1,32.59.1a131.31,131.31,0,0,1,19.11,1.09c2.78.41,5.55,3.63,5.9,6.67a29.42,29.42,0,0,1-1.83,15,5.16,5.16,0,0,1-2.74,2.47,18.88,18.88,0,0,1-5.58,1.11c-5.1.22-10.21.28-15.32.3-10.23.05-20.45,0-30.68,0Zm3.08-8.28c10.47,1.05,23.24-.58,36,.24a9.12,9.12,0,0,0,5.54-1c.54-.34,1.46-.52,1.6-1,.58-1.79,1.11-3.62.22-5.53a3.87,3.87,0,0,0-2.61-2.47,23.42,23.42,0,0,0-5.6-.88c-8.92.11-17.83.12-26.75-.24a37.93,37.93,0,0,0-5.74.16,85,85,0,0,1-11.4.11c-11.47-.28-23-.07-34.44,0-3.18,0-5.15,2.93-4.89,6.67a3.25,3.25,0,0,0,2,2.92,11,11,0,0,0,5.55,1.1C265,530.32,277.71,530.23,292.73,530.17Z"/><path d="M289,573.2c-14,0-28,0-42-.05a29.88,29.88,0,0,1-7.46-1.08c-1.05-.28-1.88-1.56-2.65-2.52a4.06,4.06,0,0,1-.49-1.82,57.8,57.8,0,0,1-.06-15.21c.38-3.83,3.55-6.56,7.84-6.63,3.18,0,6.36,0,9.54,0q37.18.2,74.39.43c3.8,0,7.6.34,11.4.58,2.07.13,4.81,2.95,5.06,5a55.46,55.46,0,0,1-.19,17.06c-.23,1.23-2.57,3.5-4,3.61-3.16.26-6.33.64-9.49.66-14,.07-28,0-42,0Zm-.15-7.81v.16c6.37.13,12.75.35,19.12.36,7.64,0,15.29-.09,22.93-.28a7.51,7.51,0,0,0,3.52-1.14c2.55-1.5,2.69-4,2.32-6.6-.18-1.27-2.38-4.1-3.37-4.2a32.57,32.57,0,0,0-3.79-.43q-40.17,0-80.33.16c-3.84,0-6.17,4.1-4.79,8.35a3.77,3.77,0,0,0,2.51,2.56,21.64,21.64,0,0,0,5.54,1C264.59,565.44,276.7,565.39,288.82,565.39Z"/><path d="M275,608.39c-10.2-.29-20.41-.52-30.61-.9-5.52-.21-7.51-2.54-7.7-8.59-.08-2.55-.17-5.11-.09-7.66.06-1.9.37-3.79.58-5.68.13-1.24,2.74-3.4,4.14-3.44,21-.54,42.07-1.06,63.11-.54a63,63,0,0,1,7.57,1c2.06.32,4.88,3.22,5,5.08.44,5.09.76,10.17-.19,15.25-.24,1.29-2.32,3.73-3.69,3.93a74.32,74.32,0,0,1-9.45,1.24c-9.57.17-19.14.06-28.71.06Zm3.54-19.51c-4.18,0-6.71,0-9.24,0-6.95.05-13.9.12-20.86.16-2.13,0-3.37,1.33-4.48,2.87a4.88,4.88,0,0,0-.67,3.62,5.17,5.17,0,0,0,5.2,4.58c10.09.54,20.19.87,30.29,1.22,6.93.24,13.81-.74,20.73-.79a42.37,42.37,0,0,0,7.42-1.22,2.7,2.7,0,0,0,2.22-2.73c.05-.61.17-1.22.17-1.84,0-2.91-1.76-5.15-4-5.47C295.83,588,286.34,589.91,278.54,588.88Z"/><path d="M336,606.4c-5.59.41-11.85-3.72-13.09-11.43a5.13,5.13,0,0,1,.75-3.64c.67-1.08,1.24-2.22,2-3.27,3.57-5.19,10.77-5.92,15.41-3.7a7.37,7.37,0,0,1,2.83,2.42,25.58,25.58,0,0,1,2.59,5.08C349.1,598.72,343.61,606.31,336,606.4Zm4.09-10.83c.22-2.2-1-4.19-3.52-5.48a3,3,0,0,0-3.48.36c-2.1,1.75-2.89,5.07-1.62,6.77a6.2,6.2,0,0,0,4.84,2.43C338.22,599.77,340,598.23,340.11,595.57Z"/><path d="M623.3,561.59c-3.85-.35-8.23-.7-12.6-1.15-2-.21-4.54-3.05-4.75-5.17a10.33,10.33,0,0,1,1.68-7.15,25.88,25.88,0,0,1,8.08-7.82,19.65,19.65,0,0,1,5.12-2.32,32.85,32.85,0,0,1,16.82.17c5,1.4,9.16,4,11.89,8.64a7.31,7.31,0,0,1-2,10c-2.6,1.81-5.31,3.44-8.56,3.7C633.92,560.86,628.9,561.19,623.3,561.59Z"/><path d="M600.13,520.25a7,7,0,0,1-6.08-6.13,20.27,20.27,0,0,1,.3-5.55c.54-2.88,4.52-5.13,7.34-4.4a9.32,9.32,0,0,1,5.78,4.43,7.32,7.32,0,0,1,.32,7.15C606.63,518.41,602.89,520.6,600.13,520.25Z"/><path d="M656.84,517.77a5.22,5.22,0,0,1-3.31-.88,9,9,0,0,1-4.18-5.9,6.87,6.87,0,0,1,.33-3.61c1.33-3.71,4.8-5.38,9.06-4.57,2.94.57,4.86,3.45,4.79,7.07a9.52,9.52,0,0,1-1.73,5.21C660.67,516.79,659,517.41,656.84,517.77Z"/><path d="M828.94,411.67a29.81,29.81,0,0,1,3.8.27,9.07,9.07,0,0,1,7.4,7.72,27.45,27.45,0,0,1,0,5.66,8.36,8.36,0,0,1-1.36,3.51,12.42,12.42,0,0,1-15.24,4.09,5.3,5.3,0,0,1-2.64-2.64,18.91,18.91,0,0,1-2-7.3,12.2,12.2,0,0,1,0-1.91C819.23,415.56,823.25,411.84,828.94,411.67ZM835,423a6,6,0,0,0-2.28-4.74,4.36,4.36,0,0,0-6.26,1c-1.85,2.69-1,6.6,1.25,8.08,2.64,1.74,6.39.52,7-2.57C834.88,424.18,834.91,423.59,835,423Z"/><path class="cls-2" d="M570.49,366.29c-.22.42-.35,1.11-.66,1.2-1.18.33-1.76-.32-1.38-1.6a1.42,1.42,0,0,1,1.18-.76C570,365.21,570.21,365.88,570.49,366.29Z"/><path class="cls-2" d="M629.93,300.47a4.89,4.89,0,0,1,1.78.64c2.79,2.58,2.93,5.63.45,8.24a4,4,0,0,1-5.06.45,3.35,3.35,0,0,1-1.13-3.48,8,8,0,0,1,2.26-5A6.74,6.74,0,0,1,629.93,300.47Z"/><path class="cls-2" d="M665.88,362.17a6.84,6.84,0,0,1-2.22,4.57,3.6,3.6,0,0,1-4.85-.27c-2-2.33-1.84-6.36.51-8.22a3.47,3.47,0,0,1,3.46-.36A4.4,4.4,0,0,1,665.88,362.17Z"/><path class="cls-2" d="M589.43,310.51c.09-.66.34-3.83.94-6.94a6.85,6.85,0,0,1,2-3.15c1.66-1.64,7.4.29,8.06,2.63a13.32,13.32,0,0,1,.85,3.69c0,3.81-.21,7.61-.52,11.4a6.39,6.39,0,0,1-6.49,5.59c-1.45,0-3.92-1.91-4.35-3.19C589.1,318.07,589.05,315.55,589.43,310.51Z"/><path class="cls-2" d="M650.69,259.36a33.58,33.58,0,0,1-.57,5.54,17.44,17.44,0,0,1-2.3,5.11c-2.64,4-7.88,2.56-9.45-.3a12,12,0,0,1-1.49-3.4,29.4,29.4,0,0,1,.88-14.92,11.66,11.66,0,0,1,1.94-3.21c1.72-2.23,6.77-2.08,8.22.33a19.24,19.24,0,0,1,2.26,5.13A34,34,0,0,1,650.69,259.36Z"/><path class="cls-2" d="M466.35,763.79q-21.09,0-42.17,0c-2.53,0-5.09,0-7.52-.95a4.4,4.4,0,0,1-2.58-2.54c-1.38-3.4.35-7,3.53-7.24,1.28-.1,2.55-.33,3.82-.33q46,0,92,0a13,13,0,0,1,3.8.41,6.29,6.29,0,0,1,3.21,1.86,6.66,6.66,0,0,1,.69,3.66c0,1.85-1.77,4.09-3.18,4.29a56.6,56.6,0,0,1-7.52.94c-14.7.09-29.39,0-44.09,0Z"/><path class="cls-2" d="M465.23,799.19c-15.31,0-30.62,0-45.93,0a23.31,23.31,0,0,1-5.59-.91,3.35,3.35,0,0,1-2.47-2.52c-1-4,1.72-8.19,5.44-8.45,2.54-.18,5.08-.46,7.62-.46q43.07,0,86.13,0c2.53,0,5.07.37,7.6.59,2,.18,4.31,2.84,4.64,5.39.27,2.07-2.1,5.66-3.89,5.81-3.17.26-6.35.65-9.52.67-14.68.07-29.35,0-44,0Z"/><path class="cls-2" d="M451.49,834.31c-10.15,0-20.31,0-30.46,0a24.38,24.38,0,0,1-5.64-.68,5.2,5.2,0,0,1-4-3.49c-1-3.18,1-7,4-7.27a37.25,37.25,0,0,1,3.77-.45q33.32,0,66.63,0a11.86,11.86,0,0,1,3.76.5c1.16.39,2.6,1,3.16,1.91a7.06,7.06,0,0,1,.8,5.45,5.47,5.47,0,0,1-4,3.43c-2.53.2-5,.53-7.58.54-10.15.07-20.31,0-30.46,0Z"/><path class="cls-2" d="M520.91,829a2.88,2.88,0,0,1-1.32,3.35,3.78,3.78,0,0,1-3.49.57c-1.42-.51-2.53-3.57-2-4.9s3.64-2.74,4.88-2A4,4,0,0,1,520.91,829Z"/><path class="cls-2" d="M733.27,763.79c-14.69,0-29.37.05-44.06,0a42.36,42.36,0,0,1-7.49-1,3.75,3.75,0,0,1-2.64-2.47c-1.48-3.36.22-7,3.45-7.24,1.91-.14,3.82-.39,5.73-.39q45,0,90,0c1.9,0,3.81.31,5.71.48a5.12,5.12,0,0,1,3.92,3.52c.45,2.44-1.23,5.92-3.07,6.24a33.68,33.68,0,0,1-5.6.84c-15.33.06-30.65,0-46,0Z"/><path class="cls-2" d="M733.29,799.17c-13.43,0-26.87,0-40.3,0-3.19,0-6.38-.33-9.56-.57-3.63-.27-6.08-5.4-4.06-8.77a6.41,6.41,0,0,1,3-2.23,11.83,11.83,0,0,1,3.77-.63c1.91-.13,3.83-.15,5.75-.15q42.23,0,84.44,0c2.54,0,5.09.35,7.63.59,3.69.34,6.14,5.51,4,8.84a6.82,6.82,0,0,1-3,2.25,10.76,10.76,0,0,1-3.75.71c-3.83.13-7.67.17-11.51.18q-18.22,0-36.46,0Z"/><path class="cls-2" d="M718.26,834.25c-10.17,0-20.34,0-30.51,0a36.72,36.72,0,0,1-7.55-.79,4.78,4.78,0,0,1-2.74-2.37c-1.78-3.53,1-8.29,4.69-8.48,1.91-.09,3.81-.32,5.71-.33q31.47-.06,62.93,0a22.86,22.86,0,0,1,5.67.6,5.52,5.52,0,0,1-.1,10.86,50.61,50.61,0,0,1-7.58.58c-10.17.06-20.35,0-30.52,0Z"/><path class="cls-2" d="M784.73,824.88a5.77,5.77,0,0,1,1.78.12,4.68,4.68,0,0,1,3,4,3.9,3.9,0,0,1-2.66,4,3.77,3.77,0,0,1-4.31-2.17A4.58,4.58,0,0,1,784.73,824.88Z"/><path class="cls-2" d="M255.36,799.55c-13.37-.15-26.74-.26-40.1-.47-4.66-.08-6.26-2.38-5.81-7.64a3.1,3.1,0,0,1,1.9-3c.57-.24,1-1,1.58-1a67,67,0,0,1,7.6-.55c18.47,0,36.93,0,55.39.26,5.71.07,11.43-.71,17.15.27a6.52,6.52,0,0,1,4.84,8.6,4.44,4.44,0,0,1-2.6,2.38,33.71,33.71,0,0,1-7.48,1c-10.82.09-21.65,0-32.47,0Z"/><path class="cls-2" d="M253.63,764c-13.41,0-26.82-.08-40.22-.2-2.15,0-3.17-1.81-4.2-3.4a4.79,4.79,0,0,1-.5-3.66,3.5,3.5,0,0,1,2.14-2.91,12.55,12.55,0,0,1,5.54-1.08q25.88-.06,51.74-.06c6.39,0,12.77-.07,19.16,0a74.53,74.53,0,0,1,7.56.79c1.59.19,3.08,2.28,3.06,4.23,0,2.69-2,5.48-4.09,5.62-5.09.34-10.19.81-15.28.83-8.3,0-16.61-.25-24.91-.4Z"/><path class="cls-2" d="M244.47,834.39c-10.81.62-17.11,1.09-23.42,1.29a93.28,93.28,0,0,1-9.44-.5,5.34,5.34,0,0,1-4.69-5.06c-.29-3.39,2.06-6.59,5.17-6.69,6.94-.24,13.89-.5,20.83-.5,5.67,0,11.34-.12,17,1,5,1,9.87-2.16,15-1.24a13.25,13.25,0,0,0,1.88.16c3,.09,5.23,3.12,4.88,6.69-.18,1.84-1.84,3.87-3.35,4.07a44.29,44.29,0,0,1-5.59.72C255.12,834.44,247.54,834.39,244.47,834.39Z"/><path class="cls-2" d="M298.62,830.11c-.66,2.27-2.37,3.44-3.68,2.55a3.65,3.65,0,0,1-1.75-2.8,3.81,3.81,0,0,1,.17-1.72,2.76,2.76,0,0,1,2.79-1.74,2.57,2.57,0,0,1,2.52,1.93A5.12,5.12,0,0,1,298.62,830.11Z"/><path class="cls-2" d="M948,752.65c9.59,0,19.18,0,28.77,0,3.19,0,6.38.22,9.56.37,3.68.17,5.54,2.69,4.87,6.52-.23,1.31-2.56,4.06-3.55,4.17a50.06,50.06,0,0,1-5.7.59q-34.53-.15-69-.43c-1.28,0-2.55-.24-3.82-.31-3.24-.18-5.28-3-5-6.68a3.17,3.17,0,0,1,2-3,10.25,10.25,0,0,1,3.54-1.08c12.79-.08,25.57,0,38.35,0Z"/><path class="cls-2" d="M948.09,786.66c12.69.33,25.37.63,38.06,1a11.06,11.06,0,0,1,3.5,1.21c2.21.89,2.08,3,2.23,4.8.16,2-1.35,4.13-2.77,4.51a13.47,13.47,0,0,1-1.77.57,47.29,47.29,0,0,1-5.67.55q-34.29,0-68.57,0c-1.89,0-3.78-.36-5.67-.54-3.74-.36-6.19-5.45-4.06-8.78a6.71,6.71,0,0,1,2.92-2.29A10.74,10.74,0,0,1,910,787c2.54-.14,5.08-.16,7.62-.16q15.23,0,30.47,0Z"/><path class="cls-2" d="M934.47,822.31a81.48,81.48,0,0,0,17.67,0,57.4,57.4,0,0,1,7.64.13c4.4.15,6.64,2.74,6.42,7.42,0,.64,0,1.48-.33,1.85a14.8,14.8,0,0,1-3,2.27,5.33,5.33,0,0,1-1.88.32,17.27,17.27,0,0,1-1.9.22q-22,.59-44,1.13a28.79,28.79,0,0,1-9.43-1.22c-2.87-.9-4.62-4.5-3.5-7.7a5,5,0,0,1,4.15-3.49C915.84,822.74,925.4,822.57,934.47,822.31Z"/><path class="cls-2" d="M992.49,829.92c-.71,2.7-1.85,3.66-3.65,3.06-2.71-.9-3.36-2.63-2.06-5.71.23-.55.68-1.27,1.16-1.4a4,4,0,0,1,3.37.76A2.76,2.76,0,0,1,992.49,829.92Z"/><path class="cls-2" d="M907.39,530.41c-11.43,0-22.85,0-34.27,0a73.28,73.28,0,0,1-7.52-.72c-1.6-.17-3.15-2.24-3.15-4.14,0-2.45,2.19-5.52,4-5.7a37.7,37.7,0,0,1,3.78-.43q38.09-.06,76.18,0a25.21,25.21,0,0,1,5.54.95,3.86,3.86,0,0,1,2.61,2.48c1.46,3.22-.3,7-3.42,7.23-2.53.16-5.07.38-7.6.39-12.06,0-24.13,0-36.19,0Z"/><path class="cls-2" d="M910.24,565.55c-14-.09-28-.16-42.08-.31a12.31,12.31,0,0,1-3.55-1,3.15,3.15,0,0,1-2.15-2.84c-.73-4.74,1.39-7.73,5.7-7.88,1.91-.07,3.81-.27,5.72-.25q34.44.45,68.87-.39c3.16-.07,6.34-.19,9.47.75a3.64,3.64,0,0,1,2.63,2.45,9.26,9.26,0,0,1-.06,7.39,5.67,5.67,0,0,1-2.55,2.66,8.32,8.32,0,0,1-3.75.47q-19.12-.32-38.25-.72Z"/><path class="cls-2" d="M896,601.35c-10.55-.51-20-1-29.52-1.45a4.93,4.93,0,0,1-4.29-5.19c.27-2.79,2.29-5.35,4.31-5.54,11.63-1.06,47.34-.67,56.9.66a10.15,10.15,0,0,1,1.73.78c2.64.91,3.52,5.86,1.5,8a4.51,4.51,0,0,1-3.24,1.68Z"/><path class="cls-2" d="M957.76,594.74c-.14,2.93-4,5.23-6.91,4.12-3.62-1.38-4.33-6.38-1.27-9,1.83-1.57,3.52-1.94,5-1.11,1.68.92,3,2.1,3.15,4.18C957.79,593.53,957.76,594.14,957.76,594.74Z"/><path class="cls-2" d="M292.73,530.17c-15,.06-27.77.15-40.53.14a11,11,0,0,1-5.55-1.1,3.25,3.25,0,0,1-2-2.92c-.26-3.74,1.71-6.64,4.89-6.67,11.48-.09,23-.3,34.44,0a85,85,0,0,0,11.4-.11,37.93,37.93,0,0,1,5.74-.16c8.92.36,17.83.35,26.75.24a23.42,23.42,0,0,1,5.6.88,3.87,3.87,0,0,1,2.61,2.47c.89,1.91.36,3.74-.22,5.53-.14.45-1.06.63-1.6,1a9.12,9.12,0,0,1-5.54,1C316,529.59,303.2,531.22,292.73,530.17Z"/><path class="cls-2" d="M288.82,565.39c-12.12,0-24.23.05-36.34,0a21.64,21.64,0,0,1-5.54-1,3.77,3.77,0,0,1-2.51-2.56c-1.38-4.25.95-8.34,4.79-8.35q40.17-.12,80.33-.16a32.57,32.57,0,0,1,3.79.43c1,.1,3.19,2.93,3.37,4.2.37,2.62.23,5.1-2.32,6.6a7.51,7.51,0,0,1-3.52,1.14c-7.64.19-15.29.3-22.93.28-6.37,0-12.75-.23-19.12-.36Z"/><path class="cls-2" d="M278.54,588.88c7.8,1,17.29-.91,26.75.41,2.27.32,4,2.56,4,5.47,0,.62-.12,1.23-.17,1.84a2.7,2.7,0,0,1-2.22,2.73,42.37,42.37,0,0,1-7.42,1.22c-6.92.05-13.8,1-20.73.79-10.1-.35-20.2-.68-30.29-1.22a5.17,5.17,0,0,1-5.2-4.58,4.88,4.88,0,0,1,.67-3.62c1.11-1.54,2.35-2.86,4.48-2.87,7,0,13.91-.11,20.86-.16C271.83,588.87,274.36,588.88,278.54,588.88Z"/><path class="cls-2" d="M340.11,595.57c-.15,2.66-1.89,4.2-3.78,4.08a6.2,6.2,0,0,1-4.84-2.43c-1.27-1.7-.48-5,1.62-6.77a3,3,0,0,1,3.48-.36C339.07,591.38,340.33,593.37,340.11,595.57Z"/><path class="cls-2" d="M835,423c-.08.56-.11,1.15-.24,1.73-.66,3.09-4.41,4.31-7,2.57-2.26-1.48-3.1-5.39-1.25-8.08a4.36,4.36,0,0,1,6.26-1A6,6,0,0,1,835,423Z"/></svg>