<svg id="Ebene_1" data-name="Ebene 1" xmlns="http://www.w3.org/2000/svg" viewBox="0 0 1200.08 1106.42"><defs><style>.cls-1{fill:#f9f9f9;}.cls-2{fill:#fff;}</style></defs><path class="cls-1" d="M643.82,491.31c-1-1.22-1.9-2.13-2.6-3.16-2.67-3.92-6.55-6-11-7.14a8.19,8.19,0,0,0-7.21,1.58,44.7,44.7,0,0,0-4,4.14c-1.48,1.48-3.79,2-5.14,1.1-9.08-6-19.11-10.37-27.8-17a14.46,14.46,0,0,0-1.68-.94A11.82,11.82,0,0,0,569,473.15a45.68,45.68,0,0,0-4.13,6.44,14.12,14.12,0,0,1-6.67,6.57,18.48,18.48,0,0,0-7.34,6A21.65,21.65,0,0,0,547,502.89c-.39,5.76-.38,11.47,1.23,17.13a72.27,72.27,0,0,1,1.62,9.43,6.28,6.28,0,0,1-1.63,5.29A91.39,91.39,0,0,0,540,545.31q-11.58,16.49-23.36,32.84c-2.6,3.63-5.36,7.16-8.08,10.71-2,2.62-5.17,4.1-7.59.3-4.47-7-8.83-14.06-12.63-21.47-4.38-8.53-9.1-16.88-13.67-25.31a125.61,125.61,0,0,0-11.83-17.45,36.55,36.55,0,0,0-13.35-10.68c-3.47-1.63-6.91-3.48-10.57-4.51-8-2.26-15.45-6.17-23.79-7.2a3,3,0,0,1-1.68-.9c-.82-.91-2-1.93-2.08-3a4.38,4.38,0,0,1,1.69-3.14,18.08,18.08,0,0,1,5-2.73c15.5-5.46,27.88-15.59,39.15-27,10.46-10.58,17.72-23.46,22.7-37.47a93,93,0,0,0,4.76-16.56c2.92-18.11,3.06-19.65.62-38.11-.08-.64-.23-1.27-.28-1.9-1.09-12.31-5.22-23.64-10.84-34.55-13.87-27-35.55-44.81-64-54.53a86.25,86.25,0,0,0-22.46-4.76c-14.12-.89-28.09-.23-41.82,3.71-15.59,4.48-29.82,11.39-42,22.21a113.23,113.23,0,0,0-30,41.7c-3.93,9.47-7.23,19.17-8.08,29.48a168.43,168.43,0,0,0,.1,28.76,65.08,65.08,0,0,0,1.19,7.57,117.31,117.31,0,0,0,20.18,45.2,77.17,77.17,0,0,0,6,7.49c11.95,12.74,25.32,23.45,42.16,29.14a8.41,8.41,0,0,1,3.16,2,10.1,10.1,0,0,1,2,3.19c.57,1.38-.89,4.48-2.13,4.89-1.81.6-3.63,1.19-5.44,1.77-9.75,3.08-19.57,5.93-29.09,9.75-10.22,4.1-19.62,9.31-26.86,17.86-.41.48-.9.91-1.35,1.36a81,81,0,0,0-14.73,20c-3.82,7.37-7.81,14.66-11.4,22.16a196.21,196.21,0,0,1-10.15,18.48c-2.24,3.61-5,5.65-9.23,5.6-3.2,0-6.4-.1-9.6-.13-12.15-.1-24.3-.24-36.45-.24a69.43,69.43,0,0,0-9.55.74,13,13,0,0,0-6.8,3.31,31.15,31.15,0,0,0-9.27,14.31,36.38,36.38,0,0,0-.08,20.83,10,10,0,0,0,6.33,6.75,38.27,38.27,0,0,0,7.46,1.61c3.16.45,6.35.63,9.52,1,1.34.14,3.5,2.79,3.53,4.11.14,7.06-1,14-2,20.94a147.14,147.14,0,0,0-.7,36.37c2.54,24.23,2.8,48.52,2.5,72.83a152.39,152.39,0,0,1-1.41,21c-1.8,12-3.59,24-6.46,35.86-.15.62-.44,1.21-.57,1.83-.32,1.46-2.59,3.45-4,3.74-5.06,1.07-10.2.39-15.3.71-1.89.12-3.77.5-5.66.79-1.43.21-3.47,2.35-3.84,3.89-2.15,9.1-.76,17.79,3.36,26a14.81,14.81,0,0,0,3.74,4.29,33.2,33.2,0,0,0,19,8.21c1.91.18,3.81.42,5.73.52,16,.78,31.93,1.4,47.88,2.32,23,1.32,45.91,3.32,68.9,4.29,2.14.09,4.76,2.76,5,5,.28,2.54.65,5.08.68,7.62.11,7.68,0,15.36.12,23,0,2.54.4,5.08.65,7.62.21,2,3.17,4.85,5.14,5,.64,0,1.27.24,1.91.24q23,0,46,.06a9.3,9.3,0,0,0,1.88-.29,5.71,5.71,0,0,0,4.17-3.5,21.27,21.27,0,0,0,1.67-5.46c.6-5.08.92-10.19,1.37-15.28S366,910.1,366.5,905c.15-1.6,2.19-3.82,3.63-4,3.17-.36,6.33-.74,9.5-1a33.76,33.76,0,0,0,14.62-4.2,24.19,24.19,0,0,1,5.29-2,2.15,2.15,0,0,1,3,1.56,16.21,16.21,0,0,1,.68,1.78c1.79,12,3.53,24,5.33,36,.28,1.89.82,3.74,1.25,5.61.74,3.17,3.62,5.84,6.64,5.85q23,.06,46,0a3.35,3.35,0,0,0,1.86-.35,9,9,0,0,0,2.7-2.53,6.9,6.9,0,0,0,.8-3.68c-1.15-16.58-2-33.2-3.74-49.73-1.47-14-2.35-28-3-42.1-.28-6.38-.78-12.76-1.24-19.14-.65-8.93-1.22-17.86-2.09-26.77-.52-5.3,0-10.09,3.45-14.46,1.07-1.35,1.37-3.59,1.43-5.44A105,105,0,0,0,462.3,769c-1.4-17.21-1.77-34.48-3.22-51.69-1.23-14.65-1.41-29.39-1.81-44.09a265.13,265.13,0,0,0-2.18-30.59c-.45-3.1.11-6.35.32-9.52a2.15,2.15,0,0,1,1-1.4,2.53,2.53,0,0,1,3.52.42c4.32,5.54,8.5,11.18,12.77,16.76,5.16,6.77,12,11.43,19.52,15.15a17.53,17.53,0,0,0,3.61,1.25c10.56,2.54,20.31,1,28.89-6a51.27,51.27,0,0,0,5.6-5.22c3.84-4.29,7.63-8.62,11.24-13.1,10.84-13.46,20.46-27.79,29.88-42.26,7-10.75,13.54-21.69,17.14-34.15a16.87,16.87,0,0,1,6.63-9.19c10.58-7.35,19.64-16.34,28.43-25.66a46.78,46.78,0,0,1,5.76-5,2.67,2.67,0,0,1,3.47,0c2.23,2.27,4.32,4.68,6.39,7.1,6.25,7.29,12.47,14.67,20.78,19.71a24.39,24.39,0,0,1,11.82,16.62c.65,3,2.55,5.82,4,8.66,8.13,16,18.57,30.61,29,45.18a221.8,221.8,0,0,0,23.61,27.72,71.65,71.65,0,0,0,16.73,12.65,28.44,28.44,0,0,0,14.77,3.32,21.42,21.42,0,0,0,10.89-3.18,60.68,60.68,0,0,0,16.9-15.42c2.3-3.08,4.54-6.2,7-9.18s4-6.5,6.84-9.11a2.5,2.5,0,0,1,1.72-.42c.55,0,1.47.33,1.53.65a42.55,42.55,0,0,1,.2,13.37c-1.26,10.81-1.54,21.68-2.14,32.53-.4,7-.42,14.08-1.1,21.07-1.32,13.38-2,26.78-2.66,40.2-.52,10.85-1.06,21.71-2.16,32.53-.52,5.08-.66,10.2-1,15.31a11.39,11.39,0,0,0,4.45,10,7,7,0,0,1,2.34,5.09,38.43,38.43,0,0,1-.29,7.65c-1.58,12.7-2.64,25.44-3.77,38.19-1.4,15.92-3.36,31.8-4.19,47.77a63.1,63.1,0,0,1-.91,7.62c-2.23,12.64-2.33,25.46-3.15,38.21a11,11,0,0,0,.9,3.63c.48,1.5,1.5,1.79,2.89,1.86s2.55-.17,3.13-1.62a12.39,12.39,0,0,0,1.29-3.5c.57-9.58,1.58-19.11,3.09-28.6.7-4.41.85-8.9,1.25-13.36.62-7,1.2-14,1.86-21,.48-5.1,1.11-10.18,1.58-15.27,1.66-17.83,3.26-35.67,5-53.49a36.45,36.45,0,0,1,1.32-5.58c.58-2.21,3.37-4.63,5.48-4.7,5.11-.16,10.22-.38,15.33-.39,10.28,0,20.43-.74,30.23-4.26a15.66,15.66,0,0,1,11.27.55c6,2.41,12.24,3.72,18.4,5.4,11.77,3.22,23.75,5.08,36,4.12a95.81,95.81,0,0,1,9.59-.1,8.94,8.94,0,0,1,3.7.75,6.45,6.45,0,0,1,2.7,2.47,8.25,8.25,0,0,1,.71,3.69,6.28,6.28,0,0,1-3.86,5.93,86.72,86.72,0,0,1-18.81,3.53c-3.18.3-6.35.79-9.49,1.34-4.23.74-8.16,5.07-8.32,9.36a97.68,97.68,0,0,0,.12,11.48c1,12.77,4,25.26,5.66,37.93a20.66,20.66,0,0,0,1.15,3.66A13,13,0,0,0,924,891.22a41.46,41.46,0,0,0,7.64-.15c3.79-.49,7.54-1.35,11.31-2,1.37-.24,4.17,1.76,4.31,3.08.27,2.53.82,5,.84,7.56.11,11.52.07,23,.1,34.55a20.93,20.93,0,0,0,1,7.53,3.71,3.71,0,0,0,2.59,2.35c1.53.45,4.13-1.22,4.26-2.77.22-2.54.61-5.08.62-7.62.06-12.16,0-24.32,0-36.47,0-2.54.4-5.08.65-7.61.14-1.41,2.28-3.8,3.67-4,10.07-1.7,20.13-3.43,30.21-5.05,12-1.94,24-3.71,36-5.67,13.88-2.28,27.7-4.85,41.65-6.74,8.21-1.11,16.35-2.87,24.48-4.58,4.56-1,8.54-6.78,8.37-11.64a31.08,31.08,0,0,0-.38-5.72c-2.77-12.49-4.62-25.15-6.72-37.77-.31-1.88-.77-3.75-1.24-5.6-1.54-6.09-8.27-10.66-14.64-10-.63.07-1.29,0-1.91.12-11.26,2.43-22.84,2.93-34,5.68a10.12,10.12,0,0,1-1.91.15c-.64,0-1.28,0-1.92.06-2.64.23-5.27-1.78-5.4-4.2-.34-6.37-.18-12.82-1.12-19.11-.77-5.11-1.2-10-.27-15.15a72,72,0,0,0,.67-13.39c-.21-21.75-.27-43.51-.91-65.24a197.08,197.08,0,0,0-3.89-32.35c-6.41-32.18-17.53-62.76-31.86-92.2-2.24-4.59-4.85-9-7.39-13.44-4.53-7.94-11.08-14-18.29-19.41a42.08,42.08,0,0,0-8.46-4.45c-5.26-2.3-10.69-4.24-15.92-6.63a97.67,97.67,0,0,0-19.86-6.94c-2.43-.53-4.62-2.05-7-2.91-1.85-.67-2.26-5.66-.53-6.78,1.06-.68,1.92-1.72,3-2.29,3.41-1.75,6.92-3.3,10.36-5a107.47,107.47,0,0,0,33.23-25.63c16.13-18.31,25.44-39.73,27-64.24,1-15.42.07-30.7-5-45.47a126.25,126.25,0,0,0-13.25-27.59,100.88,100.88,0,0,0-21.77-24.14,110.63,110.63,0,0,0-67.22-24.63A116.73,116.73,0,0,0,851,282a101.74,101.74,0,0,0-39,20,118.74,118.74,0,0,0-33,44.16,88,88,0,0,0-7.81,33.4,203,203,0,0,0,.44,23A74.87,74.87,0,0,0,773.34,414c5.32,21.57,15.21,40.62,31.57,56,1.4,1.31,2.69,2.74,4.1,4,9,8.26,18.59,15.64,30.43,19.54a20.06,20.06,0,0,1,4.86,2.92,3.14,3.14,0,0,1,.86,1.69c.42,1.54-.89,4.34-2.22,4.8-4.22,1.45-8.35,3.31-12.68,4.2-9,1.85-16.85,5.83-24.36,10.85a40.68,40.68,0,0,0-9.83,9,195.92,195.92,0,0,0-17.71,27.34q-7.65,14.4-15.31,28.79c-1.2,2.24-2.55,4.42-3.85,6.61a4,4,0,0,1-6.45.79c-9.59-10.35-17.56-22-25.77-33.39-4.47-6.21-8.35-12.86-12.46-19.33a15.55,15.55,0,0,1-2.53-11c1.37-8.36.61-16.59-1.2-24.75-1.17-5.25-4-9.63-9-11.69-5.61-2.28-9.84-5.65-12.43-11.2a15.45,15.45,0,0,0-3.62-4.39,7.25,7.25,0,0,0-3.35-1.74,19.46,19.46,0,0,0-5.64-.42,21.21,21.21,0,0,0-10.54,4.23c-3.62,2.62-6.74,5.85-10.86,7.85S647.62,489.12,643.82,491.31Z"/><path class="cls-1" d="M875.15,832.79c-3.51.51-7.91,1.13-12.31,1.82-2.19.34-4.68,2.87-5.17,5.06-.13.62-.4,1.21-.51,1.83-4.25,23.2-8,46.49-11.53,69.8q-1.59,10.4-3.38,20.75c-.54,3.11-.94,6.3,0,9.45a3.28,3.28,0,0,0,2.57,2.38,3.1,3.1,0,0,0,3.44-1,13.21,13.21,0,0,0,3.17-6.79c1.83-8.74,2.31-17.67,4.07-26.45,2.12-10.61,3.33-21.4,5-32.11q2.31-15.12,4.68-30.22a3.8,3.8,0,0,1,.58-1.81,9.09,9.09,0,0,1,2.71-2.58,14.07,14.07,0,0,1,9.3-1,6.43,6.43,0,0,1,4.34,3.42,11.46,11.46,0,0,1,1.15,3.61c2.71,18.92,5.42,37.85,8,56.8,1.47,10.73,2.7,21.5,4.11,32.25a12.11,12.11,0,0,0,1.24,3.55,3.35,3.35,0,0,0,3,2c.64,0,1.61.36,1.85.07a9.57,9.57,0,0,0,1.83-3.22,10,10,0,0,0,.28-3.78q-1.07-10.45-2.3-20.9c-.67-5.7-1.65-11.36-2.18-17.06-1.78-19.06-4.72-38-8-56.8a10.8,10.8,0,0,0-9.24-8.41C879.89,833.18,878,833,875.15,832.79Z"/><path class="cls-1" d="M595.57,435c-1.3.63-2,1.57-1.68,2.75,1.6,6.1,5.16,11.15,8.9,16.08a3.16,3.16,0,0,0,3.21,1.28c1.82-.31,3.33-2.61,2.78-4a60.06,60.06,0,0,0-8.36-14.35,6.47,6.47,0,0,0-1.39-1.21A3.74,3.74,0,0,0,595.57,435Z"/><path class="cls-1" d="M626.14,436.94c.23,3.9-.57,7.82,1.35,11.36a2.3,2.3,0,0,0,3.21.63,4.66,4.66,0,0,0,2-3,54.81,54.81,0,0,0-.14-17.15,2.46,2.46,0,0,0-1.19-1.45,15.47,15.47,0,0,0-3.41-1.3c-.16,0-.65,1-.89,1.56C625.79,430.67,626.31,433.9,626.14,436.94Z"/><path class="cls-1" d="M651.47,455c1.13-.48,2.62-.65,3.33-1.48,4.09-4.72,7.62-9.83,9.15-16,.27-1.1-.76-2.19-2.05-2.53a3.25,3.25,0,0,0-3.4.94,72.35,72.35,0,0,0-8.79,14.27C649.11,451.4,650.39,455,651.47,455Z"/><path d="M643.82,491.31c3.8-2.19,7.53-4.63,11.5-6.57s7.24-5.23,10.86-7.85a21.21,21.21,0,0,1,10.54-4.23,19.46,19.46,0,0,1,5.64.42,7.25,7.25,0,0,1,3.35,1.74,15.45,15.45,0,0,1,3.62,4.39c2.59,5.55,6.82,8.92,12.43,11.2,5.07,2.06,7.86,6.44,9,11.69,1.81,8.16,2.57,16.39,1.2,24.75a15.55,15.55,0,0,0,2.53,11c4.11,6.47,8,13.12,12.46,19.33,8.21,11.41,16.18,23,25.77,33.39a4,4,0,0,0,6.45-.79c1.3-2.19,2.65-4.37,3.85-6.61q7.69-14.38,15.31-28.79A195.92,195.92,0,0,1,796.07,527a40.68,40.68,0,0,1,9.83-9c7.51-5,15.39-9,24.36-10.85,4.33-.89,8.46-2.75,12.68-4.2,1.33-.46,2.64-3.26,2.22-4.8a3.14,3.14,0,0,0-.86-1.69,20.06,20.06,0,0,0-4.86-2.92C827.6,489.63,818,482.25,809,474c-1.41-1.3-2.7-2.73-4.1-4-16.36-15.37-26.25-34.42-31.57-56a74.87,74.87,0,0,1-1.67-11.38,203,203,0,0,1-.44-23,88,88,0,0,1,7.81-33.4A118.74,118.74,0,0,1,812,302a101.74,101.74,0,0,1,39-20,116.73,116.73,0,0,1,34.13-4.34,110.63,110.63,0,0,1,67.22,24.63,100.88,100.88,0,0,1,21.77,24.14A126.25,126.25,0,0,1,987.36,354c5.12,14.77,6,30.05,5,45.47-1.56,24.51-10.87,45.93-27,64.24a107.47,107.47,0,0,1-33.23,25.63c-3.44,1.69-6.95,3.24-10.36,5-1.11.57-2,1.61-3,2.29-1.73,1.12-1.32,6.11.53,6.78,2.37.86,4.56,2.38,7,2.91a97.67,97.67,0,0,1,19.86,6.94c5.23,2.39,10.66,4.33,15.92,6.63a42.08,42.08,0,0,1,8.46,4.45c7.21,5.38,13.76,11.47,18.29,19.41,2.54,4.44,5.15,8.85,7.39,13.44,14.33,29.44,25.45,60,31.86,92.2a197.08,197.08,0,0,1,3.89,32.35c.64,21.73.7,43.49.91,65.24a72,72,0,0,1-.67,13.39c-.93,5.16-.5,10,.27,15.15.94,6.29.78,12.74,1.12,19.11.13,2.42,2.76,4.43,5.4,4.2.64-.05,1.28,0,1.92-.06a10.12,10.12,0,0,0,1.91-.15c11.2-2.75,22.78-3.25,34-5.68.62-.13,1.28-.05,1.91-.12,6.37-.66,13.1,3.91,14.64,10,.47,1.85.93,3.72,1.24,5.6,2.1,12.62,3.95,25.28,6.72,37.77a31.08,31.08,0,0,1,.38,5.72c.17,4.86-3.81,10.68-8.37,11.64-8.13,1.71-16.27,3.47-24.48,4.58-14,1.89-27.77,4.46-41.65,6.74-12,2-24,3.73-36,5.67-10.08,1.62-20.14,3.35-30.21,5.05-1.39.24-3.53,2.63-3.67,4-.25,2.53-.64,5.07-.65,7.61-.06,12.15,0,24.31,0,36.47,0,2.54-.4,5.08-.62,7.62-.13,1.55-2.73,3.22-4.26,2.77a3.71,3.71,0,0,1-2.59-2.35,20.93,20.93,0,0,1-1-7.53c0-11.52,0-23-.1-34.55,0-2.52-.57-5-.84-7.56-.14-1.32-2.94-3.32-4.31-3.08-3.77.68-7.52,1.54-11.31,2a41.46,41.46,0,0,1-7.64.15,13,13,0,0,1-11.46-8.82,20.66,20.66,0,0,1-1.15-3.66c-1.71-12.67-4.64-25.16-5.66-37.93a97.68,97.68,0,0,1-.12-11.48c.16-4.29,4.09-8.62,8.32-9.36,3.14-.55,6.31-1,9.49-1.34a86.72,86.72,0,0,0,18.81-3.53,6.28,6.28,0,0,0,3.86-5.93,8.25,8.25,0,0,0-.71-3.69,6.45,6.45,0,0,0-2.7-2.47,8.94,8.94,0,0,0-3.7-.75,95.81,95.81,0,0,0-9.59.1c-12.29,1-24.27-.9-36-4.12-6.16-1.68-12.43-3-18.4-5.4a15.66,15.66,0,0,0-11.27-.55c-9.8,3.52-20,4.24-30.23,4.26-5.11,0-10.22.23-15.33.39-2.11.07-4.9,2.49-5.48,4.7a36.45,36.45,0,0,0-1.32,5.58c-1.69,17.82-3.29,35.66-5,53.49-.47,5.09-1.1,10.17-1.58,15.27-.66,7-1.24,14-1.86,21-.4,4.46-.55,9-1.25,13.36-1.51,9.49-2.52,19-3.09,28.6a12.39,12.39,0,0,1-1.29,3.5c-.58,1.45-1.62,1.7-3.13,1.62s-2.41-.36-2.89-1.86a11,11,0,0,1-.9-3.63c.82-12.75.92-25.57,3.15-38.21a63.1,63.1,0,0,0,.91-7.62c.83-16,2.79-31.85,4.19-47.77,1.13-12.75,2.19-25.49,3.77-38.19a38.43,38.43,0,0,0,.29-7.65,7,7,0,0,0-2.34-5.09,11.39,11.39,0,0,1-4.45-10c.29-5.11.43-10.23,1-15.31,1.1-10.82,1.64-21.68,2.16-32.53.64-13.42,1.34-26.82,2.66-40.2.68-7,.7-14.05,1.1-21.07.6-10.85.88-21.72,2.14-32.53a42.55,42.55,0,0,0-.2-13.37c-.06-.32-1-.62-1.53-.65a2.5,2.5,0,0,0-1.72.42c-2.84,2.61-4.44,6.16-6.84,9.11s-4.66,6.1-7,9.18a60.68,60.68,0,0,1-16.9,15.42,21.42,21.42,0,0,1-10.89,3.18,28.44,28.44,0,0,1-14.77-3.32,71.65,71.65,0,0,1-16.73-12.65A221.8,221.8,0,0,1,704.78,622c-10.4-14.57-20.84-29.14-29-45.18-1.44-2.84-3.34-5.63-4-8.66A24.39,24.39,0,0,0,660,551.51c-8.31-5-14.53-12.42-20.78-19.71-2.07-2.42-4.16-4.83-6.39-7.1a2.67,2.67,0,0,0-3.47,0,46.78,46.78,0,0,0-5.76,5c-8.79,9.32-17.85,18.31-28.43,25.66a16.87,16.87,0,0,0-6.63,9.19C584.94,577,578.4,588,571.4,598.73c-9.42,14.47-19,28.8-29.88,42.26-3.61,4.48-7.4,8.81-11.24,13.1a51.27,51.27,0,0,1-5.6,5.22c-8.58,7-18.33,8.51-28.89,6a17.53,17.53,0,0,1-3.61-1.25c-7.53-3.72-14.36-8.38-19.52-15.15-4.27-5.58-8.45-11.22-12.77-16.76a2.53,2.53,0,0,0-3.52-.42,2.15,2.15,0,0,0-1,1.4c-.21,3.17-.77,6.42-.32,9.52a265.13,265.13,0,0,1,2.18,30.59c.4,14.7.58,29.44,1.81,44.09,1.45,17.21,1.82,34.48,3.22,51.69a105,105,0,0,1,.33,11.49c-.06,1.85-.36,4.09-1.43,5.44-3.48,4.37-4,9.16-3.45,14.46.87,8.91,1.44,17.84,2.09,26.77.46,6.38,1,12.76,1.24,19.14.61,14.06,1.49,28.08,3,42.1,1.73,16.53,2.59,33.15,3.74,49.73a6.9,6.9,0,0,1-.8,3.68,9,9,0,0,1-2.7,2.53,3.35,3.35,0,0,1-1.86.35q-23,0-46,0c-3,0-5.9-2.68-6.64-5.85-.43-1.87-1-3.72-1.25-5.61-1.8-12-3.54-24-5.33-36a16.21,16.21,0,0,0-.68-1.78,2.15,2.15,0,0,0-3-1.56,24.19,24.19,0,0,0-5.29,2,33.76,33.76,0,0,1-14.62,4.2c-3.17.24-6.33.62-9.5,1-1.44.17-3.48,2.39-3.63,4-.49,5.09-.94,10.18-1.38,15.27s-.77,10.2-1.37,15.28a21.27,21.27,0,0,1-1.67,5.46,5.71,5.71,0,0,1-4.17,3.5,9.3,9.3,0,0,1-1.88.29q-23,0-46-.06c-.64,0-1.27-.19-1.91-.24-2-.17-4.93-3-5.14-5-.25-2.54-.61-5.08-.65-7.62-.1-7.67,0-15.35-.12-23,0-2.54-.4-5.08-.68-7.62-.24-2.28-2.86-5-5-5-23-1-45.92-3-68.9-4.29-15.95-.92-31.92-1.54-47.88-2.32-1.92-.1-3.82-.34-5.73-.52a33.2,33.2,0,0,1-19-8.21,14.81,14.81,0,0,1-3.74-4.29c-4.12-8.26-5.51-16.95-3.36-26,.37-1.54,2.41-3.68,3.84-3.89,1.89-.29,3.77-.67,5.66-.79,5.1-.32,10.24.36,15.3-.71,1.36-.29,3.63-2.28,4-3.74.13-.62.42-1.21.57-1.83,2.87-11.82,4.66-23.85,6.46-35.86a152.39,152.39,0,0,0,1.41-21c.3-24.31,0-48.6-2.5-72.83a147.14,147.14,0,0,1,.7-36.37c1-6.94,2.12-13.88,2-20.94,0-1.32-2.19-4-3.53-4.11-3.17-.34-6.36-.52-9.52-1a38.27,38.27,0,0,1-7.46-1.61,10,10,0,0,1-6.33-6.75,36.38,36.38,0,0,1,.08-20.83,31.15,31.15,0,0,1,9.27-14.31,13,13,0,0,1,6.8-3.31,69.43,69.43,0,0,1,9.55-.74c12.15,0,24.3.14,36.45.24,3.2,0,6.4.1,9.6.13,4.24,0,7-2,9.23-5.6a196.21,196.21,0,0,0,10.15-18.48c3.59-7.5,7.58-14.79,11.4-22.16a81,81,0,0,1,14.73-20c.45-.45.94-.88,1.35-1.36,7.24-8.55,16.64-13.76,26.86-17.86,9.52-3.82,19.34-6.67,29.09-9.75,1.81-.58,3.63-1.17,5.44-1.77,1.24-.41,2.7-3.51,2.13-4.89a10.1,10.1,0,0,0-2-3.19,8.41,8.41,0,0,0-3.16-2c-16.84-5.69-30.21-16.4-42.16-29.14a77.17,77.17,0,0,1-6-7.49,117.31,117.31,0,0,1-20.18-45.2,65.08,65.08,0,0,1-1.19-7.57,168.43,168.43,0,0,1-.1-28.76c.85-10.31,4.15-20,8.08-29.48a113.23,113.23,0,0,1,30-41.7c12.21-10.82,26.44-17.73,42-22.21,13.73-3.94,27.7-4.6,41.82-3.71a86.25,86.25,0,0,1,22.46,4.76c28.47,9.72,50.15,27.55,64,54.53,5.62,10.91,9.75,22.24,10.84,34.55.05.63.2,1.26.28,1.9,2.44,18.46,2.3,20-.62,38.11a93,93,0,0,1-4.76,16.56c-5,14-12.24,26.89-22.7,37.47-11.27,11.41-23.65,21.54-39.15,27a18.08,18.08,0,0,0-5,2.73,4.38,4.38,0,0,0-1.69,3.14c.07,1,1.26,2.07,2.08,3a3,3,0,0,0,1.68.9c8.34,1,15.82,4.94,23.79,7.2,3.66,1,7.1,2.88,10.57,4.51a36.55,36.55,0,0,1,13.35,10.68,125.61,125.61,0,0,1,11.83,17.45c4.57,8.43,9.29,16.78,13.67,25.31,3.8,7.41,8.16,14.46,12.63,21.47,2.42,3.8,5.6,2.32,7.59-.3,2.72-3.55,5.48-7.08,8.08-10.71Q528.4,561.77,540,545.31a91.39,91.39,0,0,1,8.24-10.57,6.28,6.28,0,0,0,1.63-5.29,72.27,72.27,0,0,0-1.62-9.43c-1.61-5.66-1.62-11.37-1.23-17.13a21.65,21.65,0,0,1,3.83-10.72,18.48,18.48,0,0,1,7.34-6,14.12,14.12,0,0,0,6.67-6.57,45.68,45.68,0,0,1,4.13-6.44,11.82,11.82,0,0,1,15.42-3.22,14.46,14.46,0,0,1,1.68.94c8.69,6.59,18.72,11,27.8,17,1.35.88,3.66.38,5.14-1.1a44.7,44.7,0,0,1,4-4.14,8.19,8.19,0,0,1,7.21-1.58c4.43,1.18,8.31,3.22,11,7.14C641.92,489.18,642.81,490.09,643.82,491.31Zm17.44,20.11c-.55,1.69-.22,2.05,1,1.07l-1.44-.73c1.19-4.31-.8-7.26-4.15-9.59-.43-.3-1.19-.66-1.53-.48a2.59,2.59,0,0,0-1.33,3.19,11.13,11.13,0,0,0,4,6.24A3.19,3.19,0,0,0,661.26,511.42Zm3.51-18.91c-.42-1.29-.65-1.36-.7-.18l1.07-.3c-.14.61-.55,1.3-.38,1.81,1.5,4.75,4.29,8.86,6.71,13.14a3.22,3.22,0,0,0,1.37,1.24,1.45,1.45,0,0,0,1.31-.16,2.19,2.19,0,0,0,.79-1.5,22.86,22.86,0,0,0-5.4-11.72A5.47,5.47,0,0,0,664.77,492.51Zm-27.14,19.2.36-.49a8,8,0,0,0,1.08,5.5c6.6,10.37,15.29,18.85,24.72,26.55,3.43,2.79,7.49,4.85,11.4,7a9.53,9.53,0,0,0,9.23-.12c6.25-3.35,11.83-7.56,15.83-13.59a16.27,16.27,0,0,0,2.85-7,81.17,81.17,0,0,0-.14-22.93,11.83,11.83,0,0,0-3.85-6.46c-2.52-2.44-6.11-2.78-8.6-.57a33.68,33.68,0,0,0-3.88,4.21c-1.94,2.43-1,4.3,2.62,4.94.63.11,1.28.1,1.9.23,3.35.72,4.29,2.61,3.28,5.5-1.26,3.59-2.78,7.08-4.35,10.54a2.63,2.63,0,0,1-3.27,1.36,14.73,14.73,0,0,0-11.07-.31,12.8,12.8,0,0,1-5.68,0c-3.79-.58-7.53-1.41-11.28-2.2a28.23,28.23,0,0,1-12-5.81c-2.46-2-4.86-4-7.35-6C639,511.7,638.23,511.78,637.63,511.71ZM414.5,746.81h-.19c.7-15.31,1.33-30.63,2.14-45.94a222.4,222.4,0,0,0,.12-24.9c-.34-5.73-.45-11.49-.77-17.23-.28-5.1-.46-10.23-1.11-15.29a37.16,37.16,0,0,0-9.16-20.7,17.83,17.83,0,0,0-15.43-6,12.9,12.9,0,0,0-7.06,2.7,24.24,24.24,0,0,0-9.76,18c-.3,4.44.15,8.92.26,13.38,0,1.81-3,5.17-4.85,5.36a35.56,35.56,0,0,1-5.69.54c-23.59-1.39-47.19-2.68-70.76-4.36-20.39-1.45-40.76-3-61.23-2.56-5.1.11-10.21-.36-15.32-.46-4.46-.1-8.93-.1-13.4-.06-4.06,0-7,2.55-7.87,6.84a94.28,94.28,0,0,0-1.67,9.42,308.1,308.1,0,0,0-.9,47.84c1.06,21.05,2.45,42.1,2,63.2-.34,15.33-.84,30.64-4.34,45.7-1.44,6.21-2.4,12.53-3.54,18.8a3,3,0,0,0,0,1.89c.63,1,1.33,2.41,2.33,2.77,4.22,1.57,8.7,2,13.17,2.18,16.59.82,33.17,1.58,49.77,2,7,.18,14.07.26,21,1,17.81,1.93,35.68,2.33,53.55,2.93,7,.23,14,.74,21,1.3a21.52,21.52,0,0,1,5.5,1.51,5.29,5.29,0,0,1,3.61,4.09c.51,3.78.32,7.66.84,11.43a18,18,0,0,0,2.3,7.23c5.26,8.06,12.81,12.27,22.56,12.05a16,16,0,0,0,8.87-3.22,37.78,37.78,0,0,0,11.38-12.77,75.18,75.18,0,0,0,9.46-30.9c.42-5.72.56-11.48.59-17.23.09-17.89.07-35.78,1-53.65C413.48,764.66,414,755.74,414.5,746.81ZM477,384.4a101.06,101.06,0,0,0-1-13.32c-4-22.73-14.08-42.51-31.32-57.83-24.25-21.54-52.76-30.35-85.07-25.07-25.64,4.19-46.79,16.47-62.74,37-11.54,14.83-19.07,31.51-21.65,50.4a100.65,100.65,0,0,0,4.22,45.34c8.72,26.73,25.83,46.57,50.79,59.57,2.83,1.47,5.72,2.84,8.66,4.06a73.08,73.08,0,0,0,16.49,4.78,132,132,0,0,0,26.7,1.59c8.3-.35,16.6-1.23,24.51-3.86,13.44-4.46,25.93-10.71,36.05-21,1.78-1.82,3.84-3.36,5.75-5.05a52.41,52.41,0,0,0,8.8-10.07c2.14-3.17,4.21-6.4,6.14-9.7,8.9-15.17,13.78-31.47,13.69-49.15Zm507,6c-.17-13.33-1.39-21.73-5.31-34.07-3.54-11.11-9.46-20.9-16.52-30.12-13.73-18-32.09-29-53.2-36a31.53,31.53,0,0,0-3.72-.91c-12.63-2.49-25.19-3.29-38.1-1.31a98.79,98.79,0,0,0-48.54,21.42c-18.9,15.48-31.24,35.27-36.41,59.35-4.28,20-2.4,39.44,4.66,58.46a96.33,96.33,0,0,0,25.88,37.62c14.38,13.14,31,22.41,50.58,25.75a103.2,103.2,0,0,0,52.86-4.74,100.91,100.91,0,0,0,38.31-24.76C973.92,441.43,982.86,417.58,984,390.39ZM952.15,696.6q.4-44.1.83-88.21a39.49,39.49,0,0,1,.85-5.66c.18-1.1,3.77-2.12,4.94-1.56A9.24,9.24,0,0,1,962.9,605a202.47,202.47,0,0,1,16,34.78c3.42,9.61,6.64,19.4,8.08,29.54,2.33,16.44,4.72,32.91,4,49.62-.21,5.11-.06,10.23,0,15.35s.2,10.22.35,15.33c.06,2,2.74,5.19,4.6,5.53a93.5,93.5,0,0,0,22.84,1.53c2.07-.14,4.6-2.82,4.76-5.23.2-3.19.46-6.37.53-9.56.52-21.75-.83-43.45-1.66-65.16a139.85,139.85,0,0,0-3.52-26.57c-2.18-9.34-5-18.5-7.16-27.81a191,191,0,0,0-9.59-29.1c-4.63-11.22-9.62-22.29-14.57-33.37a77,77,0,0,0-5.26-10.22c-6.31-9.93-14.35-17.94-25.72-22-1.81-.65-3.58-1.38-5.38-2-.59-.22-1.23-.31-1.82-.52-1.59-.54-3.49,1.35-3.56,3.13-.17,4.59,2.37,8.61,2.51,13.12a7.2,7.2,0,0,1-1.86,5.24c-1.28,1.41-2.85,2.55-4.26,3.84-.94.86-1.86,1.74-2.75,2.65a4.17,4.17,0,0,0-.06,5.15c2.35,3.55,2.64,7,.49,10.74-2.54,4.43-5.06,8.87-7.49,13.37a94.76,94.76,0,0,1-9.27,14.52c-2,2.48-3.54,5.31-5.47,7.85-5.8,7.63-11.68,15.19-17.55,22.77a9.58,9.58,0,0,1-1.32,1.38,4.23,4.23,0,0,1-1.57,1.07,13,13,0,0,1-3.66.5c-1.19,0-2.22-3.78-1.5-5a145.82,145.82,0,0,1,14.22-20.42c5.82-6.85,10.4-14.55,15.61-21.81,3.4-4.74,5.22-10.23,6.93-15.72a5.51,5.51,0,0,0-.41-3.71c-1.43-2.84-3.18-5.52-4.77-8.27-1-1.65-.54-4.28.82-5.13,3.24-2,6.62-3.86,9.69-6.11a7.26,7.26,0,0,0,3.06-6.65c-.46-5.81-2.5-11.2-4.48-16.58-.34-.93-1.92-1.52-3-2a2.56,2.56,0,0,0-3.27,1.18A37.92,37.92,0,0,0,923,527c-4.92,14.54-10.76,28.72-16.51,42.93-7.2,17.77-13.82,35.74-19.34,54.11a104.42,104.42,0,0,1-9.56,23,28.8,28.8,0,0,0-3.82,14.64c-.25,19.82-.67,39.63-.88,59.45-.17,16-.16,32-.19,48,0,2.55.18,5.1.4,7.64a7.35,7.35,0,0,0,4.31,5.92,90.54,90.54,0,0,0,29.13,9.07,159.67,159.67,0,0,0,43.94-.09,6.6,6.6,0,0,0,5.08-5c1-7.65.48-15.3.06-23C954.37,741.3,952.61,719,952.15,696.6ZM812.87,661c-.75,14.17-1.69,32.68-2.74,51.17-.29,5.1-.77,10.2-1.42,15.27-2.22,17.16-1.83,34.44-2.3,51.67a6.89,6.89,0,0,0,5.34,7,101.36,101.36,0,0,0,32.41,1.16,52.16,52.16,0,0,0,16.59-4.37,4.9,4.9,0,0,0,2.37-2.83,33.7,33.7,0,0,0,1-7.54q.39-30.68.6-61.35c.11-17.9.09-35.8.17-53.69a51.81,51.81,0,0,0-3.28-18.77c-1.17-3.11-2.71-5.6-6-6.92-2.44-1-4-3.16-5.12-5.48-5.73-12.13-11.53-24.23-17-36.49-3.11-7-6.19-14-10.29-20.53a21.27,21.27,0,0,1-2.38-5.2,5.78,5.78,0,0,1,.1-3.7,58.47,58.47,0,0,1,3.66-6.67c1-1.66.82-4-.56-5.12s-3.23-2.06-4.66-3.29c-2-1.7-3.57-3.77-2.74-6.61,1.26-4.28,2.68-8.51,4-12.76.47-1.47.14-2.82-1.27-3.19a5.35,5.35,0,0,0-3.57.35,51.41,51.41,0,0,0-20.66,19.46c-3.93,6.57-7.63,13.3-11.11,20.12-3.19,6.25-6,12.72-8.9,19.1a117.29,117.29,0,0,1-11.42,19.91,10.61,10.61,0,0,1-4.51,3.45,5.7,5.7,0,0,1-5.48,0,12.84,12.84,0,0,1-3.21-2c-6.33-7.19-12.73-14.35-18-22.39-7-10.72-15.18-20.54-22.56-31-.85-1.2-4.08-2-5.23-1.28l-21.3,12.87a4.47,4.47,0,0,0-1.53,5c11.53,25.94,27.86,48.73,46.21,70.16a136.32,136.32,0,0,0,12.28,12.11,35,35,0,0,0,13.23,7.51,15,15,0,0,0,12.88-1.71,35.72,35.72,0,0,0,7.28-6.14c4.27-4.75,8.11-9.88,12.34-14.67a101.68,101.68,0,0,0,13-18.92c1.84-3.37,3.55-6.8,5.53-10.08a57.68,57.68,0,0,1,4.47-6.12,2.17,2.17,0,0,1,3.4-.3c.46.37,1.25.68,1.32,1.11a53.86,53.86,0,0,1,.81,7.58C814.77,623.46,814.36,640.06,812.87,661ZM913.39,838c.41,3.59.59,6.8,1.17,9.94,1.75,9.42,3.58,18.83,4.41,28.4a12.43,12.43,0,0,0,.61,1.81c.67,2.56,4.78,5.42,7.43,5,10.1-1.56,20.26-2.8,30.26-4.83,26.33-5.32,53-8.51,79.46-13,17.23-1.53,34-5.86,51-8.69,3.52-.58,6.67-5,6.11-8.61q-2.62-17-5.47-34c-.42-2.51-1.17-5-1.81-7.44s-4.79-5.61-7.25-5.46c-.63,0-1.3-.13-1.91,0-15.12,2.59-30.23,5.27-45.48,7-1.89.22-3.74.8-5.63,1.14-10,1.82-20,4.13-30.08,5.84-18.27,3.12-36.62,5.7-54.93,8.57-7.57,1.19-15.11,2.54-22.67,3.83-2.07.36-4.83,3.3-4.94,5.27S913.46,836.52,913.39,838Zm-667,19.55c.9,0-.37,0-1.65,0-21-.64-42.07-1-63-3-6.34-.59-12.75-.54-19.13-.69a27.07,27.07,0,0,0-3.74.57c-1.24.16-3.4,2.89-3.44,4.2a23.28,23.28,0,0,0,2.85,11c2.74,5.48,7.35,8.68,13.26,10a33.93,33.93,0,0,0,5.68.8c15.92.88,31.84,1.67,47.71,3.2,2.54.24,5.11.14,7.65.27,13.38.68,26.79,1,40.13,2.16,24.16,2.1,48.41,2.18,72.59,3.71a27.36,27.36,0,0,0,5.61-.55c1.53-.21,2.12-1.2,2.13-2.76,0-3.32-2.2-5.88-2.88-9a94.32,94.32,0,0,0-2.34-9.26,6.24,6.24,0,0,0-3.9-3.93,21.91,21.91,0,0,0-5.56-1.29c-8.27-.59-16.55-1.14-24.83-1.47-18.48-.74-37-1.35-55.38-3.18C254.93,858.11,251.74,858,246.38,857.57ZM202.31,608.26c-5.76,0-11.52,0-17.28,0-1.91,0-3.83.2-5.74.37a15.6,15.6,0,0,0-13.85,13.65,34.36,34.36,0,0,0,.39,9.55,9.1,9.1,0,0,0,6.17,6.62,51,51,0,0,0,11.43,1c10.22.14,20.42.28,30.65,1.29a232.46,232.46,0,0,0,30.66,1c12.19-.43,24.27.37,36.39,1.22,14,1,28.06,2.12,42.1,2.77,11.5.54,23,.45,34.49,1.65a13.74,13.74,0,0,0,1.85-.31c1.3,0,3.93-2.28,4.12-3.61.52-3.79,1.1-7.58,1.49-11.39.46-4.52,3.67-8.16,3.84-12.77.06-1.62-1.51-3.79-3.32-3.92-2.54-.19-5.08-.47-7.63-.52-19.18-.38-38.36-.68-57.51-2-.63,0-1.27.16-1.9.17a7.79,7.79,0,0,0-6.06,4.11q-2.48,6.24-4.87,12.5a9.14,9.14,0,0,1-3.75,4.23c-2.66,1.79-5.47,3.47-8.68,3.92-7.6,1.06-15.2,2.08-22.9.84a26.35,26.35,0,0,1-13.49-6.84c-3.51-3.16-4.85-7.41-5.33-12-.07-.63-.1-1.27-.15-1.91s-.07-1.28-.17-1.91c-.54-3.62-2.75-5.8-6.07-6.28A180.06,180.06,0,0,0,202.31,608.26Zm778.91,111.2c-.51-10.88-1.28-19.79-1.27-28.7a113.3,113.3,0,0,0-4.29-30.18c-2.52-9.2-5.13-18.4-8.49-27.35a11.75,11.75,0,0,0-2.14-3.11,3.38,3.38,0,0,0-1.52-.94c-1.71-.59-2.34.09-2.39,1.91-.64,21-.55,42-.08,63.08.2,8.91.11,17.87.93,26.74,1.34,14.61,1.6,29.26,2.31,43.89.35,7,.32,14,.24,21,0,3.17-.67,6.32-1,9.48a3.51,3.51,0,0,1-2,3.06c-1.13.57-2.26,1.15-3.33,1.82-2.41,1.53-3,3.8-2.69,6.53s2.7,4.86,4.94,4.85a76.83,76.83,0,0,0,17-2.24,11.78,11.78,0,0,0,3.24-1.92c1.11-.73,1.58-4.38.61-5.13-2-1.56-4.08-3-6.09-4.56a11,11,0,0,1-4.39-10,39.31,39.31,0,0,1,4.81-16.38,88.63,88.63,0,0,0,6-11.92c1.81-4.88.43-10.12.48-15.19C982.24,735.29,982.53,726.34,981.22,719.46ZM555.64,513c1.64,6.82,3.72,15.48,5.83,24.14a8.79,8.79,0,0,0,3.11,4.67,69.4,69.4,0,0,0,13,8,6.76,6.76,0,0,0,5.53.35,51.06,51.06,0,0,0,16.29-9.75c4.26-3.81,8.3-7.88,12.48-11.8,8.5-8,14.49-17.62,19-28.32.65-1.55.86-2.51-.69-3a2,2,0,0,0-1.67.73q-6.74,9.24-13.36,18.58a4.14,4.14,0,0,1-3.09,2,23.19,23.19,0,0,0-9,2.87,9.76,9.76,0,0,1-7.42.72c-3.67-1.1-7.48-1.53-11.13-2.51a13.34,13.34,0,0,0-10.81,1.24,2.77,2.77,0,0,1-3.35-1c-2.48-3.72-3.93-7.92-5.3-12.14-.52-1.59.76-4.22,2.34-4.58,1.85-.42,3.74-.63,5.56-1.13.48-.12.91-.9,1.1-1.47a2.84,2.84,0,0,0-.88-3.32,15.52,15.52,0,0,0-6.93-3c-2.71-.47-6.7,1.51-8,4A22.6,22.6,0,0,0,555.64,513Zm452.11,252.33c-4.62,0-8.45-.12-12.27.08a5.51,5.51,0,0,0-3.35,1.58,69.15,69.15,0,0,0-11.33,15.41c-.29.55-.36,1.22-.65,1.78A4,4,0,0,0,982,789c1.17.52,2.38,1,3.59,1.35a7.15,7.15,0,0,1,5.15,5.11c.48,1.85.82,3.74,1.26,5.6.55,2.35,3.48,4.7,5.55,4.44,7-.87,13.93-1.69,20.86-2.81a6.22,6.22,0,0,0,4.32-3.5,14.16,14.16,0,0,0,1.45-3.51,60.72,60.72,0,0,0-.64-24.75c-.58-2.38-3-4.88-5.12-5C1014.61,765.69,1010.79,765.51,1007.75,765.35Zm-745.12-134c3.15-.47,6.31-.86,9.44-1.46a10.56,10.56,0,0,0,3.52-1.46c2.17-1.36,4.26-2.94,4.93-5.59a91.23,91.23,0,0,0,2-9.36c.69-4.82,3.34-8.08,7.39-10.5,1.33-.78,1.1-1.93-.3-3a23.55,23.55,0,0,0-3-2.38,38.05,38.05,0,0,0-27.88-3.42c-1.24.32-2.45.75-3.7,1-4.74,1-7.78,4-10,8.2-2.8,5.34-3.27,11-2.52,16.78a9.77,9.77,0,0,0,3.73,6.46,15.31,15.31,0,0,0,6.77,3.43C256.22,630.67,259.41,631,262.63,631.38ZM838.09,517.86a3.32,3.32,0,0,0-3.2,1.5c-2.56,5.1-5,10.29-7.35,15.47-1,2.17.08,5.12,2.42,6.49,2.74,1.59,5.66,2.85,8.08,5a5,5,0,0,1,.94,5.16c-1.36,3-3.9,5-5.77,7.53a5.36,5.36,0,0,0-.74,5.41c7,14.24,13,28.94,19,43.63a12.35,12.35,0,0,0,1,1.63,3.49,3.49,0,0,0,3.07,1.85c.25,0,.72-1.06.72-1.63a40.16,40.16,0,0,0-.28-7.53c-1.56-8.1-3.46-16.14-5.06-24.24-3.82-19.31-8.22-38.51-10.33-58.12a2.83,2.83,0,0,0-.68-1.73C839.49,517.92,838.71,518,838.09,517.86ZM371.21,566.92c.22-8.5.43-13.52.45-18.55a11.61,11.61,0,0,0-2.63-6.91c-.91-1.25-3.75-2.48-4.93-2-2.33.94-4.64,1.91-7,2.91-2.1.92-3.12,2.64-2.53,4.38,3.6,10.71,7.19,21.42,10.92,32.09.35,1,1.71,1.65,2.6,2.47.77-.95,2.09-1.82,2.2-2.84C370.89,573.48,371.11,568.46,371.21,566.92ZM886,563.81c.32,4.47.71,10.13,1.19,15.78a13.51,13.51,0,0,0,.9,3.63c.13.32,1,.5,1.49.49s1.36-.17,1.55-.53c6.23-11.73,9.84-24.48,14.47-36.85.65-1.74-.48-3.12-3-3.74-3-.76-6.09-1.47-9.12-2.26-1.85-.48-5.54,1.67-6,3.51a18.42,18.42,0,0,0-.92,3.65C886.26,552.52,886.16,557.56,886,563.81ZM377,500.73l-17.14-.92c-1.27-.06-2.55-.09-3.82-.14-1.7-.06-3.88,2.17-3.38,3.61.4,1.14.81,2.78,1.68,3.17a63.41,63.41,0,0,0,22,5.73,15.51,15.51,0,0,0,7.48-1.08c4.05-1.79,8-3.86,11.93-5.87a2.79,2.79,0,0,0,1.31-1.34A3.08,3.08,0,0,0,397,502c-.14-.46-.55-1.14-.91-1.19C389.71,499.92,383.35,500.92,377,500.73Zm506.11.19c-7-.29-13.31-.59-19.66-.78-1.63-.05-2.41.88-2.25,2.22.07.6.06,1.37.42,1.73,3.66,3.7,8.28,5.85,13,7.66a15.12,15.12,0,0,0,5.62.75,37.57,37.57,0,0,0,21.39-7.06,3.07,3.07,0,0,0,1.12-1.47,3,3,0,0,0-.08-1.88,1.81,1.81,0,0,0-1.16-1C895.2,499.88,888.84,501.55,883.1,500.92Zm17.69,32.44a5.58,5.58,0,0,0,1.83,0,54.39,54.39,0,0,0,5.25-2.13A10.77,10.77,0,0,0,913.2,526c1.33-2.88,2.49-5.83,3.56-8.81a3.67,3.67,0,0,0-4.27-4.53A138,138,0,0,0,891,520c-1.31.6-1.63,1.65-1,3.12,1.93,4.18,5.35,7,9,9.58A6.69,6.69,0,0,0,900.79,533.36ZM392.05,550.31c1.35,7.83,2.92,17.1,4.57,26.35.29,1.61,1.17,2.31,1.87,1.85a2.65,2.65,0,0,0,1-1.53,242,242,0,0,0,4.69-33.47c0-.62-.08-1.25-.09-1.88,0-1.14-2.59-3.27-4-3.27-3.52,0-7.62,3.53-7.79,6.72C392.26,546.33,392.19,547.58,392.05,550.31Zm461.38-4a45.17,45.17,0,0,0,.48,5.32c1.12,5.61,2.35,11.19,3.61,16.77.36,1.59,1.33,2.1,2.61,1.79a3.23,3.23,0,0,0,2.64-2.39c1.71-6.79,2.26-13.77,3.11-20.7.34-2.71-1-4.91-2.49-7-1.31-1.93-5.09-2.25-6.75-.77A9.48,9.48,0,0,0,853.43,546.35ZM352.08,514.48c-.62-.12-1.23-.22-1.84-.36a3.79,3.79,0,0,0-4.39,4.36,21.44,21.44,0,0,0,2.59,8.92,13.83,13.83,0,0,0,8.53,6.81,3.19,3.19,0,0,0,3.49-.77,41.48,41.48,0,0,0,6.9-11c.52-1.18.1-2.22-1.17-3.07C361.91,516.48,356.9,515.75,352.08,514.48ZM855.6,530c3.64-1.52,6.48-4.07,9.28-6.67,1.44-1.33,1.54-4,.22-5a56.3,56.3,0,0,0-11.51-6.69c-1.33-.57-4.1,1.34-4.18,2.85-.25,4.49-.07,8.91,1.61,13.17C851.68,529.4,854.32,530.82,855.6,530ZM407.85,516.88c0-.62,0-1.24,0-1.86,0-1.51-2.49-3.29-3.92-3a21.49,21.49,0,0,0-9.77,5,3.83,3.83,0,0,0-1.11,3.27c1.5,4.28,4.66,7.16,8.7,9.11,1.61.77,4.16-.15,4.67-1.56A29.81,29.81,0,0,0,407.85,516.88ZM594,489.73a7.22,7.22,0,0,0-1.63-1.23c-1.27-.44-2.69-.15-3.08,1-1.55,4.59-3.64,9-4.66,13.75-.1.45.46,1.16.9,1.54.17.14,1.11-.18,1.26-.5C589.23,499.41,592.09,494.76,594,489.73ZM606.79,498c-.18-1.27-.9-2.45-2.18-2.46a5.61,5.61,0,0,0-3.45,1.29A14,14,0,0,0,596,508.5a2.67,2.67,0,0,0,1,1.6,1.44,1.44,0,0,0,1.38,0c3.53-2.77,5.58-6.74,8.16-10.29C606.86,499.36,606.72,498.6,606.79,498Zm-25.2-18.23a6.72,6.72,0,0,0-.81-1.53c-.86-.92-2.23-1.59-3.39-1a7.61,7.61,0,0,0-4.52,7.61,2.72,2.72,0,0,0,3.86,2.49A9.12,9.12,0,0,0,581.59,479.76Zm96.08,2.1c-.51.47-1.29.82-1.34,1.28a6.74,6.74,0,0,0,3.72,7.32c.44.25,1.14.5,1.5.31a2.44,2.44,0,0,0,1.33-3c-.55-2.39-1.53-4.48-3.8-5.68A4.2,4.2,0,0,0,677.67,481.86Z"/><path d="M875.15,832.79c2.84.25,4.74.39,6.64.6A10.8,10.8,0,0,1,891,841.8c3.26,18.85,6.2,37.74,8,56.8.53,5.7,1.51,11.36,2.18,17.06q1.24,10.44,2.3,20.9a10,10,0,0,1-.28,3.78,9.57,9.57,0,0,1-1.83,3.22c-.24.29-1.21,0-1.85-.07a3.35,3.35,0,0,1-3-2A12.11,12.11,0,0,1,895.3,938c-1.41-10.75-2.64-21.52-4.11-32.25-2.59-19-5.3-37.88-8-56.8a11.46,11.46,0,0,0-1.15-3.61,6.43,6.43,0,0,0-4.34-3.42,14.07,14.07,0,0,0-9.3,1,9.09,9.09,0,0,0-2.71,2.58,3.8,3.8,0,0,0-.58,1.81q-2.37,15.11-4.68,30.22c-1.63,10.71-2.84,21.5-5,32.11-1.76,8.78-2.24,17.71-4.07,26.45a13.21,13.21,0,0,1-3.17,6.79,3.1,3.1,0,0,1-3.44,1,3.28,3.28,0,0,1-2.57-2.38c-.9-3.15-.5-6.34,0-9.45q1.79-10.37,3.38-20.75c3.57-23.31,7.28-46.6,11.53-69.8.11-.62.38-1.21.51-1.83.49-2.19,3-4.72,5.17-5.06C867.24,833.92,871.64,833.3,875.15,832.79Z"/><path d="M595.57,435a3.74,3.74,0,0,1,3.46.51,6.47,6.47,0,0,1,1.39,1.21,60.06,60.06,0,0,1,8.36,14.35c.55,1.43-1,3.73-2.78,4a3.16,3.16,0,0,1-3.21-1.28c-3.74-4.93-7.3-10-8.9-16.08C593.59,436.58,594.27,435.64,595.57,435Z"/><path d="M626.14,436.94c.17-3-.35-6.27.94-9.31.24-.57.73-1.6.89-1.56a15.47,15.47,0,0,1,3.41,1.3,2.46,2.46,0,0,1,1.19,1.45,54.81,54.81,0,0,1,.14,17.15,4.66,4.66,0,0,1-2,3,2.3,2.3,0,0,1-3.21-.63C625.57,444.76,626.37,440.84,626.14,436.94Z"/><path d="M651.47,455c-1.08,0-2.36-3.56-1.76-4.81a72.35,72.35,0,0,1,8.79-14.27,3.25,3.25,0,0,1,3.4-.94c1.29.34,2.32,1.43,2.05,2.53-1.53,6.18-5.06,11.29-9.15,16C654.09,454.31,652.6,454.48,651.47,455Z"/><path class="cls-2" d="M414.5,746.81c-.5,8.93-1,17.85-1.5,26.78-1,17.87-.95,35.76-1,53.65,0,5.75-.17,11.51-.59,17.23a75.18,75.18,0,0,1-9.46,30.9,37.78,37.78,0,0,1-11.38,12.77,16,16,0,0,1-8.87,3.22c-9.75.22-17.3-4-22.56-12.05a18,18,0,0,1-2.3-7.23c-.52-3.77-.33-7.65-.84-11.43a5.29,5.29,0,0,0-3.61-4.09,21.52,21.52,0,0,0-5.5-1.51c-7-.56-14-1.07-21-1.3-17.87-.6-35.74-1-53.55-2.93-7-.76-14-.84-21-1-16.6-.4-33.18-1.16-49.77-2-4.47-.22-8.95-.61-13.17-2.18-1-.36-1.7-1.73-2.33-2.77a3,3,0,0,1,0-1.89c1.14-6.27,2.1-12.59,3.54-18.8,3.5-15.06,4-30.37,4.34-45.7.46-21.1-.93-42.15-2-63.2a308.1,308.1,0,0,1,.9-47.84,94.28,94.28,0,0,1,1.67-9.42c.91-4.29,3.81-6.8,7.87-6.84,4.47,0,8.94,0,13.4.06,5.11.1,10.22.57,15.32.46,20.47-.44,40.84,1.11,61.23,2.56,23.57,1.68,47.17,3,70.76,4.36a35.56,35.56,0,0,0,5.69-.54c1.87-.19,4.89-3.55,4.85-5.36-.11-4.46-.56-8.94-.26-13.38a24.24,24.24,0,0,1,9.76-18,12.9,12.9,0,0,1,7.06-2.7,17.83,17.83,0,0,1,15.43,6,37.16,37.16,0,0,1,9.16,20.7c.65,5.06.83,10.19,1.11,15.29.32,5.74.43,11.5.77,17.23a222.4,222.4,0,0,1-.12,24.9c-.81,15.31-1.44,30.63-2.14,45.94Zm-95.2,34.32c6.37.31,12.76.35,19.09,1,10.19,1,20.37.88,30.57.64a3.55,3.55,0,0,0,1.71-.7,3,3,0,0,0,1.09-1.28c.59-1.57,0-2.52-1.55-2.86a21.36,21.36,0,0,0-3.69-.85c-22.3-.7-44.51-3-66.81-3.68-19.75-.58-39.47-1.84-59.18-3.17-5.08-.34-10.18-.3-15.27-.26a9,9,0,0,0-3.54,1.21c-.42.2-.67.87-.86,1.38a2,2,0,0,0,1.21,3,13.9,13.9,0,0,0,5.59,1c11.47.42,23,.09,34.38,1.3C281.1,779.88,300.22,780.05,319.3,781.13Zm-21.62-31.31,0,.34-34.31-1.47c-12.7-.55-25.4-1.15-38.1-1.61a7.63,7.63,0,0,0-3.5,1.28c-.28.14-.19,1.1-.15,1.68s.08,1.52.4,1.65c4.21,1.76,8.75,1.48,13.16,1.72,10.16.55,20.37.41,30.5,1.26,19,1.59,38.07,2.49,57.15,3,7.62.22,15.29.42,22.84,1.38s15.24.74,22.86,1a8.61,8.61,0,0,0,1.89-.2c.61-.12,1.2-.32,1.8-.49a2.44,2.44,0,0,0,1.94-2.78c0-1.44-.54-2.2-2.21-2.3q-20-1.17-40-2.36Q314.82,750.9,297.68,749.82Zm14.9-73.7c-3.11.19-8.19.49-13.27.82-1.51.1-3.21,2.07-3.48,4-.68,5.06-1.46,10.1-2,15.18a17.17,17.17,0,0,0,.52,5.65,3,3,0,0,0,2.79,2.14,2,2,0,0,0,2.49-2.07c.65-5.68,1.1-11.39,1.88-17.05.18-1.32,1.63-1.83,2.83-2a2.41,2.41,0,0,1,3.05,1.67,12.87,12.87,0,0,1,1.21,3.55c.25,5.08.24,10.17.43,15.26.06,1.59,1.05,2.15,2.42,2.25s2.41-.33,2.73-1.91a41.05,41.05,0,0,0,.84-5.61c.21-3.19.12-6.39.4-9.56a9.59,9.59,0,0,1,1.43-3.4,3.1,3.1,0,0,1,3.26-1.62,2.81,2.81,0,0,1,2.41,2.37,74.06,74.06,0,0,1,.56,7.61c.16,3.18.31,6.36.39,9.55,0,1.63.74,2.4,2.32,2.44a4.15,4.15,0,0,0,3.08-1.6c3.46-3.43,3.55-3.41,7.24.15a18.91,18.91,0,0,1,1.38,1.3,2.84,2.84,0,0,0,3.44.95,3.26,3.26,0,0,0,2.28-2.66c.72-7,1.3-13.94,1.88-20.91a10.63,10.63,0,0,0-.37-1.85c-.22-1.77-2.75-3-4.41-2.1a10.17,10.17,0,0,0-1.53,1.06c-3.48,2.82-3.54,2.88-6.2.77-2-1.59-3.84-3.24-6.61-3.37C322.19,676.9,318.38,676.55,312.58,676.12Zm-12.86,58c17.76,1.11,35.61.58,53.33,2.56,5.68.64,11.42.67,17.14.85a11.8,11.8,0,0,0,3.65-.77c.51-.15,1.37-.76,1.31-.94-.34-1.13-.59-2.6-1.42-3.2-2.12-1.53-4.77-1.6-7.31-1.74-23.48-1.26-47-1.73-70.45-3.83-1.9-.17-3.81-.21-5.72-.24-20.35-.27-40.67-1-60.95-2.91a19.64,19.64,0,0,0-5.65.49,2.57,2.57,0,0,0-2.11,2.54c-.14,1.67.49,2.41,2.07,2.53,3.8.28,7.58.88,11.38,1,16.53.41,33,1.46,49.5,2.78C289.56,733.62,294.64,733.82,299.72,734.12Zm85.9-42.78c-.16-2-.37-5.1-.74-8.24a2.11,2.11,0,0,0-1.2-1.41,1.93,1.93,0,0,0-1.73.37,22.55,22.55,0,0,0-2,3.07c-.72,1.19-1.81,1.47-2.85.4-1.32-1.37-2.37-3-3.58-4.48-2-2.42-4.73-1-7.11-1.39-1.87-.34-3.64-1.17-5.5-1.57a19.83,19.83,0,0,0-7.6,0,5.56,5.56,0,0,0-3.85,3.71,148,148,0,0,0-1.75,22.84c.86.89,1.56,2.17,2.6,2.56a19.14,19.14,0,0,0,5.59,1.05,34.34,34.34,0,0,0,5.72-.3q4.71-.51,9.39-1.24a2.88,2.88,0,0,0,1.54-1c1.48-1.69,2.89-2.11,4.62-.26a18.24,18.24,0,0,0,3,2.31c1.51,1.06,4.12-.19,4.61-1.84C386.11,701.46,385.36,697,385.62,691.34ZM200.91,690a24.85,24.85,0,0,0,.92,5.71c1.68,5,6.57,10,13.32,6,.55-.33,1.11-.63,1.64-1,2.38-1.64,4.56-1.5,6.82.39a11.31,11.31,0,0,0,5.11,2.44c3.59.7,8.1-1.73,9.28-5.06a33.89,33.89,0,0,0,1.78-15.06A16.22,16.22,0,0,0,238,678a9.36,9.36,0,0,0-11.47-4.27,10.71,10.71,0,0,0-3.29,1.91c-1.7,1.54-3.51,1.18-5.25.51-1.15-.45-2.06-1.49-3.16-2.12-4.41-2.51-8.91-1.16-11.36,3.12C201.45,680.64,200.82,684.32,200.91,690Zm67.57,112.08c15.23.9,30.45,1.87,45.72,1.34a13.12,13.12,0,0,0,3.62-1,1.25,1.25,0,0,0,.55-1.07c-.21-.58-.63-1.41-1.09-1.51-13.72-2.87-27.7-3.21-41.63-4q-16.18-.95-32.37-1.61c-6.35-.26-12.71-.28-19.06-.27a9.91,9.91,0,0,0-3.57,1.07,2.31,2.31,0,0,0-1.15,1.23c-.58,1.58,0,2.64,1.47,2.74Q244.72,800.63,268.48,802.12Zm-3.09-114.81c0-.11.06-2.65,0-5.19a26.62,26.62,0,0,0-.57-3.74,2.73,2.73,0,0,0-2.6-2.42,3.33,3.33,0,0,0-3.26,1.24c-1.07,1.55-1.82,3.32-2.83,4.91s-3.62,1.13-4.67-.63-1.89-3.28-2.92-4.86c-.8-1.21-4.29-.67-5,.62a16.4,16.4,0,0,0-2,7.3c-.29,5.12.66,10.14,1.5,15.16a2.51,2.51,0,0,0,2.51,2.37c5,.3,10.09.54,15.14.8,1.55.08,3.66-1.92,3.79-3.6C264.72,696.1,265,692.93,265.39,687.31Zm-7.5,136.63c5.33.48,10.42.84,15.5,1.41a97,97,0,0,0,17.21.34,4,4,0,0,0,1.77-.67,1.75,1.75,0,0,0,.79-1.15,2.9,2.9,0,0,0-.47-1.82c-1.73-2.12-4.16-2.79-6.75-2.88-17.22-.63-34.44-1.21-51.64-2.36-3.82-.26-7.65-.24-11.48-.34a7.59,7.59,0,0,0-1.91.1,3.17,3.17,0,0,0-2.59,2.17c-.37,1.58.23,2.58,1.67,2.82a66.3,66.3,0,0,0,7.53,1.09C237.72,823.16,247.92,823.53,257.89,823.94ZM269,688.59h.33c0,3.83,0,7.66,0,11.48a2.8,2.8,0,0,0,3.75,2.75c3.14-1.05,6.29.89,9.31-.49a23,23,0,0,0,3.5,1.54,2.23,2.23,0,0,0,2.76-1.72c1.33-7.19,2.11-18.29,1.62-22.7a3.33,3.33,0,0,0-2.45-2.69,3.16,3.16,0,0,0-3.41,1.11c-1.19,1.48-2.25,3.07-3.39,4.6-1.62,2.16-2.26,2-4-1.09-.62-1.1-1.12-2.28-1.84-3.31a3.5,3.5,0,0,0-3.2-1.57,2.56,2.56,0,0,0-2.44,2.56C269.34,682.24,269.2,685.42,269,688.59ZM403,682.18c-5-2.51-6.92-2.86-10.68-1.95a2.56,2.56,0,0,0-1.54,3.94,12.53,12.53,0,0,1,2.94,8.7c-.21,3.14-.48,6.29-.52,9.43a10.71,10.71,0,0,0,.86,3.58c.45,1.27,1.59,1.74,3,1.24a2.88,2.88,0,0,0,1.2-1.26c1-1.68.9-3.59,1.06-5.45C400.17,690.49,400.18,690.49,403,682.18Z"/><path class="cls-2" d="M477,384.4v7.69c.09,17.68-4.79,34-13.69,49.15-1.93,3.3-4,6.53-6.14,9.7a52.41,52.41,0,0,1-8.8,10.07c-1.91,1.69-4,3.23-5.75,5.05-10.12,10.28-22.61,16.53-36.05,21-7.91,2.63-16.21,3.51-24.51,3.86a132,132,0,0,1-26.7-1.59,73.08,73.08,0,0,1-16.49-4.78c-2.94-1.22-5.83-2.59-8.66-4.06-25-13-42.07-32.84-50.79-59.57a100.65,100.65,0,0,1-4.22-45.34c2.58-18.89,10.11-35.57,21.65-50.4,16-20.52,37.1-32.8,62.74-37,32.31-5.28,60.82,3.53,85.07,25.07,17.24,15.32,27.36,35.1,31.32,57.83A101.06,101.06,0,0,1,477,384.4Zm-56.24,56.76c6.94-.16,13.89-.24,20.82-.53a14.67,14.67,0,0,0,5.43-1.39,5.27,5.27,0,0,0,2.22-2.8c.5-1.32-1.52-4-2.82-4.11-15.15-1.69-30.22-.13-45.29,1.25a6,6,0,0,0-3.37,1.52,5.38,5.38,0,0,0-1.47,3.18,2.62,2.62,0,0,0,1.89,2.83C405.67,442.79,413.21,441.89,420.75,441.16Zm-28.59-58c-5.51-.16-10.1,3.36-11,8.41-.79,4.43,1.51,8.46,5.87,10.83,5.34,2.9,12.63-1.64,13-6.81a43.91,43.91,0,0,0,0-5.62C399.82,385.89,395.13,383.18,392.16,383.21Zm72.55,10c0-1,0-1.61,0-2.23-.21-5.67-4.54-8.93-9.87-9-3.76,0-8.67,3.11-8.95,7.87a21.21,21.21,0,0,0,.21,5.52,7,7,0,0,0,4.76,5.24,13.58,13.58,0,0,0,7.34.24A8.25,8.25,0,0,0,464.71,393.24Z"/><path class="cls-2" d="M984,390.39c-1.13,27.19-10.07,51-29.51,70.73a100.91,100.91,0,0,1-38.31,24.76,103.2,103.2,0,0,1-52.86,4.74c-19.62-3.34-36.2-12.61-50.58-25.75a96.33,96.33,0,0,1-25.88-37.62c-7.06-19-8.94-38.49-4.66-58.46,5.17-24.08,17.51-43.87,36.41-59.35A98.79,98.79,0,0,1,867.14,288c12.91-2,25.47-1.18,38.1,1.31a31.53,31.53,0,0,1,3.72.91c21.11,7,39.47,18,53.2,36,7.06,9.22,13,19,16.52,30.12C982.6,368.66,983.82,377.06,984,390.39Zm-144.57,51V442c7.57,0,15.15,0,22.72,0,.55,0,1.11-.55,1.65-.87a2.88,2.88,0,0,0,1.56-3.1c-.26-1.07-1.09-2.53-2-2.81a47.84,47.84,0,0,0-9.21-2,312.86,312.86,0,0,0-35.95-1.85,42.81,42.81,0,0,0-5.59.74c-1.17.17-3.56,3.08-3.45,4.18s2.71,3.76,3.82,3.9c1.87.23,3.73.59,5.61.66C825.53,441,832.47,441.2,839.42,441.4Zm-25.74-53c.08-6.93-5.51-11.8-12.3-10.56a7,7,0,0,0-4.66,2.88,12,12,0,0,0-1,12.43,6.57,6.57,0,0,0,4.18,3.48,13.65,13.65,0,0,0,7.39.13C810.66,396,813.64,392,813.68,388.4Zm64.45-24.84a51.94,51.94,0,0,0-18.55,3.79,22,22,0,0,0-4.79,3,3.92,3.92,0,0,0-1.43,3.36c0,.62-.19,1.6.12,1.81a7.52,7.52,0,0,0,3.3,1.52c4,.31,7-2.8,10.71-3.56,4.35-.88,8.7-1.83,13-3,1.07-.29,2-1.5,2.73-2.46.23-.3-.18-1.24-.48-1.78A4.94,4.94,0,0,0,878.13,363.56ZM867,385.11a14.55,14.55,0,0,0-7.28,1.43,5.93,5.93,0,0,0-3.11,4.32c-.34,1.46,1.57,4.33,2.79,4.25a14.7,14.7,0,0,0,3.72-.3,13.71,13.71,0,0,1,12.54,1.5,8.69,8.69,0,0,0,3.58.85,3.68,3.68,0,0,0,3.28-1.33,2.69,2.69,0,0,0,.69-3.39c-.55-1.08-1.06-2.42-2-3A28.15,28.15,0,0,0,867,385.11Z"/><path class="cls-2" d="M952.15,696.6c.46,22.39,2.22,44.7,3.46,67,.42,7.66.94,15.31-.06,23a6.6,6.6,0,0,1-5.08,5,159.67,159.67,0,0,1-43.94.09,90.54,90.54,0,0,1-29.13-9.07,7.35,7.35,0,0,1-4.31-5.92c-.22-2.54-.4-5.09-.4-7.64,0-16,0-32,.19-48,.21-19.82.63-39.63.88-59.45A28.8,28.8,0,0,1,877.58,647a104.42,104.42,0,0,0,9.56-23c5.52-18.37,12.14-36.34,19.34-54.11,5.75-14.21,11.59-28.39,16.51-42.93a37.92,37.92,0,0,1,3.44-6.82A2.56,2.56,0,0,1,929.7,519c1.12.47,2.7,1.06,3,2,2,5.38,4,10.77,4.48,16.58a7.26,7.26,0,0,1-3.06,6.65c-3.07,2.25-6.45,4.09-9.69,6.11-1.36.85-1.78,3.48-.82,5.13,1.59,2.75,3.34,5.43,4.77,8.27a5.51,5.51,0,0,1,.41,3.71c-1.71,5.49-3.53,11-6.93,15.72-5.21,7.26-9.79,15-15.61,21.81a145.82,145.82,0,0,0-14.22,20.42c-.72,1.24.31,5,1.5,5a13,13,0,0,0,3.66-.5,4.23,4.23,0,0,0,1.57-1.07,9.58,9.58,0,0,0,1.32-1.38c5.87-7.58,11.75-15.14,17.55-22.77,1.93-2.54,3.48-5.37,5.47-7.85a94.76,94.76,0,0,0,9.27-14.52c2.43-4.5,5-8.94,7.49-13.37,2.15-3.72,1.86-7.19-.49-10.74a4.17,4.17,0,0,1,.06-5.15c.89-.91,1.81-1.79,2.75-2.65,1.41-1.29,3-2.43,4.26-3.84a7.2,7.2,0,0,0,1.86-5.24c-.14-4.51-2.68-8.53-2.51-13.12.07-1.78,2-3.67,3.56-3.13.59.21,1.23.3,1.82.52,1.8.66,3.57,1.39,5.38,2,11.37,4.06,19.41,12.07,25.72,22a77,77,0,0,1,5.26,10.22c4.95,11.08,9.94,22.15,14.57,33.37a191,191,0,0,1,9.59,29.1c2.2,9.31,5,18.47,7.16,27.81a139.85,139.85,0,0,1,3.52,26.57c.83,21.71,2.18,43.41,1.66,65.16-.07,3.19-.33,6.37-.53,9.56-.16,2.41-2.69,5.09-4.76,5.23a93.5,93.5,0,0,1-22.84-1.53c-1.86-.34-4.54-3.52-4.6-5.53-.15-5.11-.28-10.22-.35-15.33s-.21-10.24,0-15.35c.69-16.71-1.7-33.18-4-49.62-1.44-10.14-4.66-19.93-8.08-29.54a202.47,202.47,0,0,0-16-34.78,9.24,9.24,0,0,0-4.13-3.78c-1.17-.56-4.76.46-4.94,1.56a39.49,39.49,0,0,0-.85,5.66Q952.5,652.49,952.15,696.6Z"/><path class="cls-2" d="M812.87,661c1.49-20.91,1.9-37.51,1.84-54.13a53.86,53.86,0,0,0-.81-7.58c-.07-.43-.86-.74-1.32-1.11a2.17,2.17,0,0,0-3.4.3,57.68,57.68,0,0,0-4.47,6.12c-2,3.28-3.69,6.71-5.53,10.08a101.68,101.68,0,0,1-13,18.92c-4.23,4.79-8.07,9.92-12.34,14.67a35.72,35.72,0,0,1-7.28,6.14,15,15,0,0,1-12.88,1.71,35,35,0,0,1-13.23-7.51,136.32,136.32,0,0,1-12.28-12.11C709.85,615,693.52,592.25,682,566.31a4.47,4.47,0,0,1,1.53-5l21.3-12.87c1.15-.69,4.38.08,5.23,1.28,7.38,10.43,15.58,20.25,22.56,31,5.24,8,11.64,15.2,18,22.39a12.84,12.84,0,0,0,3.21,2,5.7,5.7,0,0,0,5.48,0,10.61,10.61,0,0,0,4.51-3.45,117.29,117.29,0,0,0,11.42-19.91c2.95-6.38,5.71-12.85,8.9-19.1,3.48-6.82,7.18-13.55,11.11-20.12a51.41,51.41,0,0,1,20.66-19.46,5.35,5.35,0,0,1,3.57-.35c1.41.37,1.74,1.72,1.27,3.19-1.36,4.25-2.78,8.48-4,12.76-.83,2.84.76,4.91,2.74,6.61,1.43,1.23,3.16,2.12,4.66,3.29s1.55,3.46.56,5.12a58.47,58.47,0,0,0-3.66,6.67,5.78,5.78,0,0,0-.1,3.7,21.27,21.27,0,0,0,2.38,5.2c4.1,6.52,7.18,13.51,10.29,20.53,5.43,12.26,11.23,24.36,17,36.49,1.1,2.32,2.68,4.5,5.12,5.48,3.29,1.32,4.83,3.81,6,6.92a51.81,51.81,0,0,1,3.28,18.77c-.08,17.89-.06,35.79-.17,53.69q-.19,30.68-.6,61.35a33.7,33.7,0,0,1-1,7.54,4.9,4.9,0,0,1-2.37,2.83,52.16,52.16,0,0,1-16.59,4.37,101.36,101.36,0,0,1-32.41-1.16,6.89,6.89,0,0,1-5.34-7c.47-17.23.08-34.51,2.3-51.67.65-5.07,1.13-10.17,1.42-15.27C811.18,693.65,812.12,675.14,812.87,661Z"/><path class="cls-2" d="M913.39,838c.07-1.5.15-3.4.27-5.3s2.87-4.91,4.94-5.27c7.56-1.29,15.1-2.64,22.67-3.83,18.31-2.87,36.66-5.45,54.93-8.57,10.06-1.71,20-4,30.08-5.84,1.89-.34,3.74-.92,5.63-1.14,15.25-1.75,30.36-4.43,45.48-7,.61-.1,1.28.08,1.91,0,2.46-.15,6.59,2.91,7.25,5.46s1.39,4.93,1.81,7.44q2.82,17,5.47,34c.56,3.62-2.59,8-6.11,8.61-17,2.83-33.76,7.16-51,8.69-26.46,4.51-53.13,7.7-79.46,13-10,2-20.16,3.27-30.26,4.83-2.65.41-6.76-2.45-7.43-5a12.43,12.43,0,0,1-.61-1.81c-.83-9.57-2.66-19-4.41-28.4C914,844.82,913.8,841.61,913.39,838ZM1052.07,833c.63,2.82,1,4.06,1.17,5.31.66,5.21.54,6.83-5.89,6.8a3.28,3.28,0,0,1-3.1-1.91,3.39,3.39,0,0,1,.14-3.56c.73-1,1.73-1.85,2.49-2.84,1.39-1.81,1.25-3.73-.3-5-.49-.41-1.07-.7-1.57-1.09-2.86-2.21-3-2.5-1-4.16,1.42-1.24,3.28-2.17,3.9-4a2.23,2.23,0,0,0-1.44-3c-5.16-1.1-10.15-1.29-13.78,3.6a2.73,2.73,0,0,1-3.25,1.21c-4.9-1.63-9.8-3-14.88-.7a3.79,3.79,0,0,0-2.41,2.74c-.23,1.24-.35,2.5-.48,3.76s-.13,2.53-.36,3.76a3.51,3.51,0,0,1-2.3,2.81c-2.42.8-5,1.25-7.36,2.05a2.81,2.81,0,0,0-1.92,2.93,3.44,3.44,0,0,0,3.69,3.45c1.9-.05,3.79-.21,5.69-.39,2.45-.23,4.05.48,4.63,2.13.41,1.2.64,2.46,1.06,3.66a21.89,21.89,0,0,0,1.48,3.49,3.68,3.68,0,0,0,3,1.9c1.46.09,2.08-.83,2.64-2.24,1.28-3.17,1.78-3.4,3.61-2.42,1.12.59,2.13,1.38,3.28,1.89a3.7,3.7,0,0,0,3.66-.3,2.68,2.68,0,0,0,.94-3.37c-.77-1.73-1.87-3.32-2.56-5.07a9.5,9.5,0,0,1-.6-3.7,2.06,2.06,0,0,1,2.3-2.11,2.61,2.61,0,0,1,1.57,1c2.5,3.19,1.83,7.31,3.1,10.87a3.1,3.1,0,0,0,2.8,2.25,17.66,17.66,0,0,0,7.56-.46c3-.87,6-2,9-3s6.29.81,9.44,0c1.22-.33,2.7-.38,3.59-1.12,3.19-2.62,7-2.46,10.74-3.07,1.5-.25,2-1.22,1.54-2.82-.17-.55-.33-1.29-.74-1.55-3.21-2-6.65-3.7-7.88-7.73a5.43,5.43,0,0,0-1.13-1.5c-1.21-1.5-5.68-1.75-7-.12a5,5,0,0,0-.32,5.4c.67,1.44.7,2.66-.9,3.07-1,.26-2.17-.91-2.45-2.23-.66-3.1-1.18-6.24-1.67-9.37a4.54,4.54,0,0,1,2.92-4.36c1.24-.26,2.56-.13,3.79-.42,2.41-.56,3.33-2.4,2.09-4-3.8-4.85-8.87-5.21-12.9-1a11.54,11.54,0,0,0-3.66,8.49C1052.12,829.45,1052.07,832,1052.07,833Zm-116.71,4.28a48.21,48.21,0,0,0-5.46.36,7.81,7.81,0,0,0-5.85,4.35,9,9,0,0,0,.53,9,10,10,0,0,0,2.53,2.79,43.51,43.51,0,0,0,4.75,3.16c3.29,2,3.64,4.73-.75,6.63-2.75,1.19-3.73,2.9-3.07,3.93a6.71,6.71,0,0,0,4.45,3.29,8.86,8.86,0,0,0,3.73,0,25.91,25.91,0,0,0,5.26-2.17c2.32-1.23,4.68-2.06,7.26-1.26a11,11,0,0,0,5.64.33A117.7,117.7,0,0,1,975,864.62c3.11-.13,6.19-1.34,9.25-2.16,5.38-1.45,6.05-2.11,6.25-7.66a15.89,15.89,0,0,1,2.85-8.84c2-2.85,1.68-3.21-1.79-6.05-.49-.39-1.12-.61-1.6-1-1.52-1.27-1-3.42,1-4.33,1.7-.76,3.49-1.35,5.13-2.23A2.35,2.35,0,0,0,997,829a3,3,0,0,0-2.91-1.74,47.63,47.63,0,0,0-7.56.67c-4.36.83-6.85,4.11-6.28,8.05.64,4.4,1.47,8.77,2.12,13.17a31.73,31.73,0,0,1,0,3.78c0,1.56-1.91,3.54-3.7,3.6-.62,0-1.25.06-1.88.06a5.6,5.6,0,0,1-4.36-3.1c-1.78-6.09-1.89-12.59-4.5-18.49a3.83,3.83,0,0,0-4.53-2,45,45,0,0,1-9.46.92,25.38,25.38,0,0,0-11,2.63A10.61,10.61,0,0,1,935.36,837.24Z"/><path class="cls-2" d="M246.38,857.57c5.36.38,8.55.54,11.72.85,18.42,1.83,36.9,2.44,55.38,3.18,8.28.33,16.56.88,24.83,1.47a21.91,21.91,0,0,1,5.56,1.29,6.24,6.24,0,0,1,3.9,3.93,94.32,94.32,0,0,1,2.34,9.26c.68,3.08,2.92,5.64,2.88,9,0,1.56-.6,2.55-2.13,2.76a27.36,27.36,0,0,1-5.61.55c-24.18-1.53-48.43-1.61-72.59-3.71-13.34-1.16-26.75-1.48-40.13-2.16-2.54-.13-5.11,0-7.65-.27-15.87-1.53-31.79-2.32-47.71-3.2a33.93,33.93,0,0,1-5.68-.8c-5.91-1.34-10.52-4.54-13.26-10a23.28,23.28,0,0,1-2.85-11c0-1.31,2.2-4,3.44-4.2a27.07,27.07,0,0,1,3.74-.57c6.38.15,12.79.1,19.13.69,21,2,42,2.35,63,3C246,857.6,247.28,857.57,246.38,857.57Z"/><path class="cls-2" d="M202.31,608.26a180.06,180.06,0,0,1,24.88,1.51c3.32.48,5.53,2.66,6.07,6.28.1.63.12,1.27.17,1.91s.08,1.28.15,1.91c.48,4.58,1.82,8.83,5.33,12a26.35,26.35,0,0,0,13.49,6.84c7.7,1.24,15.3.22,22.9-.84,3.21-.45,6-2.13,8.68-3.92a9.14,9.14,0,0,0,3.75-4.23q2.4-6.26,4.87-12.5a7.79,7.79,0,0,1,6.06-4.11c.63,0,1.27-.21,1.9-.17,19.15,1.31,38.33,1.61,57.51,2,2.55.05,5.09.33,7.63.52,1.81.13,3.38,2.3,3.32,3.92-.17,4.61-3.38,8.25-3.84,12.77-.39,3.81-1,7.6-1.49,11.39-.19,1.33-2.82,3.56-4.12,3.61a13.74,13.74,0,0,1-1.85.31c-11.47-1.2-23-1.11-34.49-1.65-14-.65-28.07-1.8-42.1-2.77-12.12-.85-24.2-1.65-36.39-1.22a232.46,232.46,0,0,1-30.66-1c-10.23-1-20.43-1.15-30.65-1.29a51,51,0,0,1-11.43-1,9.1,9.1,0,0,1-6.17-6.62,34.36,34.36,0,0,1-.39-9.55,15.6,15.6,0,0,1,13.85-13.65c1.91-.17,3.83-.36,5.74-.37C190.79,608.23,196.55,608.26,202.31,608.26Z"/><path class="cls-2" d="M981.22,719.46c1.31,6.88,1,15.83.92,24.74,0,5.07,1.33,10.31-.48,15.19a88.63,88.63,0,0,1-6,11.92,39.31,39.31,0,0,0-4.81,16.38,11,11,0,0,0,4.39,10c2,1.55,4.09,3,6.09,4.56,1,.75.5,4.4-.61,5.13a11.78,11.78,0,0,1-3.24,1.92,76.83,76.83,0,0,1-17,2.24c-2.24,0-4.61-2.24-4.94-4.85s.28-5,2.69-6.53c1.07-.67,2.2-1.25,3.33-1.82a3.51,3.51,0,0,0,2-3.06c.3-3.16.93-6.31,1-9.48.08-7,.11-14-.24-21-.71-14.63-1-29.28-2.31-43.89-.82-8.87-.73-17.83-.93-26.74-.47-21-.56-42,.08-63.08,0-1.82.68-2.5,2.39-1.91a3.38,3.38,0,0,1,1.52.94,11.75,11.75,0,0,1,2.14,3.11c3.36,8.95,6,18.15,8.49,27.35A113.3,113.3,0,0,1,980,690.76C979.94,699.67,980.71,708.58,981.22,719.46Z"/><path class="cls-2" d="M555.64,513a22.6,22.6,0,0,1,2.51-14.72c1.33-2.51,5.32-4.49,8-4a15.52,15.52,0,0,1,6.93,3,2.84,2.84,0,0,1,.88,3.32c-.19.57-.62,1.35-1.1,1.47-1.82.5-3.71.71-5.56,1.13-1.58.36-2.86,3-2.34,4.58,1.37,4.22,2.82,8.42,5.3,12.14a2.77,2.77,0,0,0,3.35,1,13.34,13.34,0,0,1,10.81-1.24c3.65,1,7.46,1.41,11.13,2.51a9.76,9.76,0,0,0,7.42-.72,23.19,23.19,0,0,1,9-2.87,4.14,4.14,0,0,0,3.09-2q6.64-9.31,13.36-18.58a2,2,0,0,1,1.67-.73c1.55.5,1.34,1.46.69,3-4.47,10.7-10.46,20.33-19,28.32-4.18,3.92-8.22,8-12.48,11.8a51.06,51.06,0,0,1-16.29,9.75,6.76,6.76,0,0,1-5.53-.35,69.4,69.4,0,0,1-13-8,8.79,8.79,0,0,1-3.11-4.67C559.36,528.5,557.28,519.84,555.64,513Z"/><path class="cls-2" d="M1007.75,765.35c3,.16,6.86.34,10.69.57,2.11.12,4.54,2.62,5.12,5a60.72,60.72,0,0,1,.64,24.75,14.16,14.16,0,0,1-1.45,3.51,6.22,6.22,0,0,1-4.32,3.5c-6.93,1.12-13.9,1.94-20.86,2.81-2.07.26-5-2.09-5.55-4.44-.44-1.86-.78-3.75-1.26-5.6a7.15,7.15,0,0,0-5.15-5.11c-1.21-.4-2.42-.83-3.59-1.35a4,4,0,0,1-1.87-4.79c.29-.56.36-1.23.65-1.78A69.15,69.15,0,0,1,992.13,767a5.51,5.51,0,0,1,3.35-1.58C999.3,765.23,1003.13,765.35,1007.75,765.35Z"/><path class="cls-2" d="M262.63,631.38c-3.22-.42-6.41-.71-9.54-1.28a15.31,15.31,0,0,1-6.77-3.43,9.77,9.77,0,0,1-3.73-6.46c-.75-5.8-.28-11.44,2.52-16.78,2.2-4.21,5.24-7.17,10-8.2,1.25-.27,2.46-.7,3.7-1a38.05,38.05,0,0,1,27.88,3.42,23.55,23.55,0,0,1,3,2.38c1.4,1.07,1.63,2.22.3,3-4.05,2.42-6.7,5.68-7.39,10.5a91.23,91.23,0,0,1-2,9.36c-.67,2.65-2.76,4.23-4.93,5.59a10.56,10.56,0,0,1-3.52,1.46C268.94,630.52,265.78,630.91,262.63,631.38Z"/><path class="cls-2" d="M637.6,511.65c.63.13,1.41.05,1.86.4,2.49,1.94,4.89,4,7.35,6a28.23,28.23,0,0,0,12,5.81c3.75.79,7.49,1.62,11.28,2.2a12.8,12.8,0,0,0,5.68,0,14.73,14.73,0,0,1,11.07.31,2.63,2.63,0,0,0,3.27-1.36c1.57-3.46,3.09-7,4.35-10.54,1-2.89.07-4.78-3.28-5.5-.62-.13-1.27-.12-1.9-.23-3.58-.64-4.56-2.51-2.62-4.94a33.68,33.68,0,0,1,3.88-4.21c2.49-2.21,6.08-1.87,8.6.57a11.83,11.83,0,0,1,3.85,6.46,81.17,81.17,0,0,1,.14,22.93,16.27,16.27,0,0,1-2.85,7c-4,6-9.58,10.24-15.83,13.59a9.53,9.53,0,0,1-9.23.12c-3.91-2.12-8-4.18-11.4-7-9.43-7.7-18.12-16.18-24.72-26.55a8,8,0,0,1-1.08-5.5Z"/><path class="cls-2" d="M838.09,517.86c.62.12,1.4.06,1.82.42a2.83,2.83,0,0,1,.68,1.73c2.11,19.61,6.51,38.81,10.33,58.12,1.6,8.1,3.5,16.14,5.06,24.24a40.16,40.16,0,0,1,.28,7.53c0,.57-.47,1.63-.72,1.63a3.49,3.49,0,0,1-3.07-1.85,12.35,12.35,0,0,1-1-1.63c-6-14.69-12-29.39-19-43.63a5.36,5.36,0,0,1,.74-5.41c1.87-2.55,4.41-4.56,5.77-7.53a5,5,0,0,0-.94-5.16c-2.42-2.15-5.34-3.41-8.08-5-2.34-1.37-3.43-4.32-2.42-6.49,2.39-5.18,4.79-10.37,7.35-15.47A3.32,3.32,0,0,1,838.09,517.86Z"/><path class="cls-2" d="M371.21,566.92c-.1,1.54-.32,6.56-.87,11.54-.11,1-1.43,1.89-2.2,2.84-.89-.82-2.25-1.47-2.6-2.47-3.73-10.67-7.32-21.38-10.92-32.09-.59-1.74.43-3.46,2.53-4.38,2.31-1,4.62-2,7-2.91,1.18-.47,4,.76,4.93,2a11.61,11.61,0,0,1,2.63,6.91C371.64,553.4,371.43,558.42,371.21,566.92Z"/><path class="cls-2" d="M886,563.81c.19-6.25.29-11.29.54-16.32a18.42,18.42,0,0,1,.92-3.65c.48-1.84,4.17-4,6-3.51,3,.79,6.08,1.5,9.12,2.26,2.52.62,3.65,2,3,3.74-4.63,12.37-8.24,25.12-14.47,36.85-.19.36-1,.52-1.55.53s-1.36-.17-1.49-.49a13.51,13.51,0,0,1-.9-3.63C886.68,573.94,886.29,568.28,886,563.81Z"/><path class="cls-2" d="M377,500.73c6.36.19,12.72-.81,19.05.11.36.05.77.73.91,1.19a3.08,3.08,0,0,1,.13,1.86,2.79,2.79,0,0,1-1.31,1.34c-3.95,2-7.88,4.08-11.93,5.87a15.51,15.51,0,0,1-7.48,1.08,63.41,63.41,0,0,1-22-5.73c-.87-.39-1.28-2-1.68-3.17-.5-1.44,1.68-3.67,3.38-3.61,1.27.05,2.55.08,3.82.14Z"/><path class="cls-2" d="M883.1,500.92c5.74.63,12.1-1,18.43.17a1.81,1.81,0,0,1,1.16,1,3,3,0,0,1,.08,1.88,3.07,3.07,0,0,1-1.12,1.47,37.57,37.57,0,0,1-21.39,7.06,15.12,15.12,0,0,1-5.62-.75c-4.75-1.81-9.37-4-13-7.66-.36-.36-.35-1.13-.42-1.73-.16-1.34.62-2.27,2.25-2.22C869.79,500.33,876.14,500.63,883.1,500.92Z"/><path class="cls-2" d="M900.79,533.36a6.69,6.69,0,0,1-1.78-.62c-3.61-2.61-7-5.4-9-9.58-.68-1.47-.36-2.52,1-3.12a138,138,0,0,1,21.49-7.39,3.67,3.67,0,0,1,4.27,4.53c-1.07,3-2.23,5.93-3.56,8.81a10.77,10.77,0,0,1-5.33,5.21,54.39,54.39,0,0,1-5.25,2.13A5.58,5.58,0,0,1,900.79,533.36Z"/><path class="cls-2" d="M392.05,550.31c.14-2.73.21-4,.28-5.23.17-3.19,4.27-6.72,7.79-6.72,1.4,0,4,2.13,4,3.27,0,.63.13,1.26.09,1.88A242,242,0,0,1,399.51,577a2.65,2.65,0,0,1-1,1.53c-.7.46-1.58-.24-1.87-1.85C395,567.41,393.4,558.14,392.05,550.31Z"/><path class="cls-2" d="M853.43,546.35a9.48,9.48,0,0,1,3.21-7c1.66-1.48,5.44-1.16,6.75.77,1.44,2.1,2.83,4.3,2.49,7-.85,6.93-1.4,13.91-3.11,20.7a3.23,3.23,0,0,1-2.64,2.39c-1.28.31-2.25-.2-2.61-1.79-1.26-5.58-2.49-11.16-3.61-16.77A45.17,45.17,0,0,1,853.43,546.35Z"/><path class="cls-2" d="M352.08,514.48c4.82,1.27,9.83,2,14.11,4.85,1.27.85,1.69,1.89,1.17,3.07a41.48,41.48,0,0,1-6.9,11,3.19,3.19,0,0,1-3.49.77,13.83,13.83,0,0,1-8.53-6.81,21.44,21.44,0,0,1-2.59-8.92,3.79,3.79,0,0,1,4.39-4.36C350.85,514.26,351.46,514.36,352.08,514.48Z"/><path class="cls-2" d="M855.6,530c-1.28.81-3.92-.61-4.58-2.29-1.68-4.26-1.86-8.68-1.61-13.17.08-1.51,2.85-3.42,4.18-2.85a56.3,56.3,0,0,1,11.51,6.69c1.32,1,1.22,3.62-.22,5C862.08,525.94,859.24,528.49,855.6,530Z"/><path class="cls-2" d="M407.85,516.88a29.81,29.81,0,0,1-1.43,11c-.51,1.41-3.06,2.33-4.67,1.56-4-2-7.2-4.83-8.7-9.11a3.83,3.83,0,0,1,1.11-3.27,21.49,21.49,0,0,1,9.77-5c1.43-.3,3.9,1.48,3.92,3C407.86,515.64,407.85,516.26,407.85,516.88Z"/><path class="cls-2" d="M594,489.73c-1.95,5-4.81,9.68-7.21,14.55-.15.32-1.09.64-1.26.5-.44-.38-1-1.09-.9-1.54,1-4.75,3.11-9.16,4.66-13.75.39-1.14,1.81-1.43,3.08-1A7.22,7.22,0,0,1,594,489.73Z"/><path class="cls-2" d="M606.79,498c-.07.61.07,1.37-.25,1.8-2.58,3.55-4.63,7.52-8.16,10.29a1.44,1.44,0,0,1-1.38,0,2.67,2.67,0,0,1-1-1.6,14,14,0,0,1,5.12-11.68,5.61,5.61,0,0,1,3.45-1.29C605.89,495.54,606.61,496.72,606.79,498Z"/><path class="cls-2" d="M581.59,479.76a9.12,9.12,0,0,1-4.86,7.56,2.72,2.72,0,0,1-3.86-2.49,7.61,7.61,0,0,1,4.52-7.61c1.16-.58,2.53.09,3.39,1A6.72,6.72,0,0,1,581.59,479.76Z"/><path class="cls-2" d="M664.78,492.5a5.49,5.49,0,0,1,4.76,2.34,22.86,22.86,0,0,1,5.4,11.72,2.19,2.19,0,0,1-.79,1.5,1.45,1.45,0,0,1-1.31.16,3.22,3.22,0,0,1-1.37-1.24c-2.42-4.28-5.21-8.39-6.71-13.14-.17-.51.24-1.2.38-1.81Z"/><path class="cls-2" d="M661.27,511.42a3.2,3.2,0,0,1-3.47-.3,11.13,11.13,0,0,1-4-6.24,2.59,2.59,0,0,1,1.33-3.19c.34-.18,1.1.18,1.53.48,3.35,2.33,5.34,5.28,4.15,9.59Z"/><path class="cls-2" d="M677.67,481.86a4.2,4.2,0,0,1,1.41.25c2.27,1.2,3.25,3.29,3.8,5.68a2.44,2.44,0,0,1-1.33,3c-.36.19-1.06-.06-1.5-.31a6.74,6.74,0,0,1-3.72-7.32C676.38,482.68,677.16,482.33,677.67,481.86Z"/><path class="cls-2" d="M660.83,511.76l1.44.73q-1.85,1.47-1-1.07Z"/><path class="cls-2" d="M638,511.22a4.37,4.37,0,0,1-.37.46A3.38,3.38,0,0,1,638,511.22Z"/><path class="cls-2" d="M665.14,492l-1.07.3c0-1.18.28-1.11.7.18Z"/><path d="M319.3,781.13c-19.08-1.08-38.2-1.25-57.26-3.28-11.37-1.21-22.91-.88-34.38-1.3a13.9,13.9,0,0,1-5.59-1,2,2,0,0,1-1.21-3c.19-.51.44-1.18.86-1.38a9,9,0,0,1,3.54-1.21c5.09,0,10.19-.08,15.27.26,19.71,1.33,39.43,2.59,59.18,3.17,22.3.66,44.51,3,66.81,3.68a21.36,21.36,0,0,1,3.69.85c1.57.34,2.14,1.29,1.55,2.86a3,3,0,0,1-1.09,1.28,3.55,3.55,0,0,1-1.71.7c-10.2.24-20.38.38-30.57-.64C332.06,781.48,325.67,781.44,319.3,781.13Z"/><path d="M297.68,749.82q17.15,1,34.27,2.1,20,1.2,40,2.36c1.67.1,2.2.86,2.21,2.3a2.44,2.44,0,0,1-1.94,2.78c-.6.17-1.19.37-1.8.49a8.61,8.61,0,0,1-1.89.2c-7.62-.23-15.23,0-22.86-1s-15.22-1.16-22.84-1.38c-19.08-.54-38.12-1.44-57.15-3-10.13-.85-20.34-.71-30.5-1.26-4.41-.24-8.95,0-13.16-1.72-.32-.13-.36-1.08-.4-1.65s-.13-1.54.15-1.68a7.63,7.63,0,0,1,3.5-1.28c12.7.46,25.4,1.06,38.1,1.61l34.31,1.47Z"/><path d="M312.58,676.12c5.8.43,9.61.78,13.43,1,2.77.13,4.61,1.78,6.61,3.37,2.66,2.11,2.72,2,6.2-.77a10.17,10.17,0,0,1,1.53-1.06c1.66-.91,4.19.33,4.41,2.1a10.63,10.63,0,0,1,.37,1.85c-.58,7-1.16,13.95-1.88,20.91a3.26,3.26,0,0,1-2.28,2.66,2.84,2.84,0,0,1-3.44-.95,18.91,18.91,0,0,0-1.38-1.3c-3.69-3.56-3.78-3.58-7.24-.15a4.15,4.15,0,0,1-3.08,1.6c-1.58,0-2.28-.81-2.32-2.44-.08-3.19-.23-6.37-.39-9.55a74.06,74.06,0,0,0-.56-7.61,2.81,2.81,0,0,0-2.41-2.37,3.1,3.1,0,0,0-3.26,1.62,9.59,9.59,0,0,0-1.43,3.4c-.28,3.17-.19,6.37-.4,9.56a41.05,41.05,0,0,1-.84,5.61c-.32,1.58-1.31,2-2.73,1.91s-2.36-.66-2.42-2.25c-.19-5.09-.18-10.18-.43-15.26a12.87,12.87,0,0,0-1.21-3.55,2.41,2.41,0,0,0-3.05-1.67c-1.2.21-2.65.72-2.83,2-.78,5.66-1.23,11.37-1.88,17.05a2,2,0,0,1-2.49,2.07,3,3,0,0,1-2.79-2.14,17.17,17.17,0,0,1-.52-5.65c.5-5.08,1.28-10.12,2-15.18.27-1.93,2-3.9,3.48-4C304.39,676.61,309.47,676.31,312.58,676.12Z"/><path d="M299.72,734.12c-5.08-.3-10.16-.5-15.23-.91-16.48-1.32-33-2.37-49.5-2.78-3.8-.09-7.58-.69-11.38-1-1.58-.12-2.21-.86-2.07-2.53a2.57,2.57,0,0,1,2.11-2.54,19.64,19.64,0,0,1,5.65-.49c20.28,1.88,40.6,2.64,60.95,2.91,1.91,0,3.82.07,5.72.24,23.44,2.1,47,2.57,70.45,3.83,2.54.14,5.19.21,7.31,1.74.83.6,1.08,2.07,1.42,3.2.06.18-.8.79-1.31.94a11.8,11.8,0,0,1-3.65.77c-5.72-.18-11.46-.21-17.14-.85C335.33,734.7,317.48,735.23,299.72,734.12Z"/><path d="M385.62,691.34c-.26,5.65.49,10.12-.82,14.52-.49,1.65-3.1,2.9-4.61,1.84a18.24,18.24,0,0,1-3-2.31c-1.73-1.85-3.14-1.43-4.62.26a2.88,2.88,0,0,1-1.54,1q-4.68.74-9.39,1.24a34.34,34.34,0,0,1-5.72.3,19.14,19.14,0,0,1-5.59-1.05c-1-.39-1.74-1.67-2.6-2.56a148,148,0,0,1,1.75-22.84,5.56,5.56,0,0,1,3.85-3.71,19.83,19.83,0,0,1,7.6,0c1.86.4,3.63,1.23,5.5,1.57,2.38.42,5.13-1,7.11,1.39,1.21,1.48,2.26,3.11,3.58,4.48,1,1.07,2.13.79,2.85-.4a22.55,22.55,0,0,1,2-3.07,1.93,1.93,0,0,1,1.73-.37,2.11,2.11,0,0,1,1.2,1.41C385.25,686.24,385.46,689.39,385.62,691.34ZM367,693.84c-.11-2-.16-3.23-.25-4.5-.3-4-2.2-5.48-6.27-5-2.31.26-3.46,1.89-2.6,3.75a17.88,17.88,0,0,0,1,1.62c1.59,2.63,2,2.61-1.66,6.3-1,1-1.93,1.72-1.66,3.17a4.38,4.38,0,0,0,3.74,3.61c.63.08,1.26.17,1.89.19,3.23.11,5-1.27,5.34-4.12C366.75,696.94,366.88,695.05,367,693.84Z"/><path d="M200.91,690c-.09-5.72.54-9.4,2.52-12.85,2.45-4.28,6.95-5.63,11.36-3.12,1.1.63,2,1.67,3.16,2.12,1.74.67,3.55,1,5.25-.51a10.71,10.71,0,0,1,3.29-1.91A9.36,9.36,0,0,1,238,678a16.22,16.22,0,0,1,1.82,5.39A33.89,33.89,0,0,1,238,698.49c-1.18,3.33-5.69,5.76-9.28,5.06a11.31,11.31,0,0,1-5.11-2.44c-2.26-1.89-4.44-2-6.82-.39-.53.36-1.09.66-1.64,1-6.75,4-11.64-1-13.32-6A24.85,24.85,0,0,1,200.91,690Zm12.37-8.65c-3.86-.55-5.6,1-5.76,5.25a22.47,22.47,0,0,0,.43,5.67,7.72,7.72,0,0,0,2,3.13c.28.3,1.22.07,1.85,0,6.12-.74,8.2-3,7.81-8.33C219.37,683.8,217.35,682,213.28,681.39Zm13.18,7c.21,1.81.24,3.06.51,4.25a2.73,2.73,0,0,0,2.28,2.29,2.51,2.51,0,0,0,3-1.63c1.48-2.94,1.33-6,.57-9a3.49,3.49,0,0,0-2.53-2.28c-1.57-.55-2.44-.08-2.77,1.55C227.15,685.37,226.73,687.15,226.46,688.38Z"/><path d="M268.48,802.12q-23.76-1.53-47.51-3.07c-1.51-.1-2.05-1.16-1.47-2.74a2.31,2.31,0,0,1,1.15-1.23,9.91,9.91,0,0,1,3.57-1.07c6.35,0,12.71,0,19.06.27q16.18.65,32.37,1.61c13.93.82,27.91,1.16,41.63,4,.46.1.88.93,1.09,1.51a1.25,1.25,0,0,1-.55,1.07,13.12,13.12,0,0,1-3.62,1C298.93,804,283.71,803,268.48,802.12Z"/><path d="M265.39,687.31c-.43,5.62-.67,8.79-.93,12-.13,1.68-2.24,3.68-3.79,3.6-5.05-.26-10.1-.5-15.14-.8A2.51,2.51,0,0,1,243,699.7c-.84-5-1.79-10-1.5-15.16a16.4,16.4,0,0,1,2-7.3c.73-1.29,4.22-1.83,5-.62,1,1.58,2,3.24,2.92,4.86s3.7,2.14,4.67.63,1.76-3.36,2.83-4.91a3.33,3.33,0,0,1,3.26-1.24,2.73,2.73,0,0,1,2.6,2.42,26.62,26.62,0,0,1,.57,3.74C265.45,684.66,265.39,687.2,265.39,687.31Z"/><path d="M257.89,823.94c-10-.41-20.17-.78-30.37-1.29a66.3,66.3,0,0,1-7.53-1.09c-1.44-.24-2-1.24-1.67-2.82a3.17,3.17,0,0,1,2.59-2.17,7.59,7.59,0,0,1,1.91-.1c3.83.1,7.66.08,11.48.34,17.2,1.15,34.42,1.73,51.64,2.36,2.59.09,5,.76,6.75,2.88a2.9,2.9,0,0,1,.47,1.82,1.75,1.75,0,0,1-.79,1.15,4,4,0,0,1-1.77.67,97,97,0,0,1-17.21-.34C268.31,824.78,263.22,824.42,257.89,823.94Z"/><path d="M269,688.59c.17-3.17.31-6.35.52-9.52a2.56,2.56,0,0,1,2.44-2.56,3.5,3.5,0,0,1,3.2,1.57c.72,1,1.22,2.21,1.84,3.31,1.76,3.08,2.4,3.25,4,1.09,1.14-1.53,2.2-3.12,3.39-4.6a3.16,3.16,0,0,1,3.41-1.11,3.33,3.33,0,0,1,2.45,2.69c.49,4.41-.29,15.51-1.62,22.7a2.23,2.23,0,0,1-2.76,1.72,23,23,0,0,1-3.5-1.54c-3,1.38-6.17-.56-9.31.49a2.8,2.8,0,0,1-3.75-2.75c0-3.82,0-7.65,0-11.48Z"/><path d="M403,682.18c-2.79,8.31-2.8,8.31-3.64,18.23-.16,1.86-.06,3.77-1.06,5.45a2.88,2.88,0,0,1-1.2,1.26c-1.45.5-2.59,0-3-1.24a10.71,10.71,0,0,1-.86-3.58c0-3.14.31-6.29.52-9.43a12.53,12.53,0,0,0-2.94-8.7,2.56,2.56,0,0,1,1.54-3.94C396.05,679.32,398,679.67,403,682.18Z"/><path d="M420.75,441.16c-7.54.73-15.08,1.63-22.59-.05a2.62,2.62,0,0,1-1.89-2.83,5.38,5.38,0,0,1,1.47-3.18,6,6,0,0,1,3.37-1.52c15.07-1.38,30.14-2.94,45.29-1.25,1.3.15,3.32,2.79,2.82,4.11a5.27,5.27,0,0,1-2.22,2.8,14.67,14.67,0,0,1-5.43,1.39C434.64,440.92,427.69,441,420.75,441.16Z"/><path d="M392.16,383.21c3,0,7.66,2.68,7.89,6.81a43.91,43.91,0,0,1,0,5.62c-.39,5.17-7.68,9.71-13,6.81-4.36-2.37-6.66-6.4-5.87-10.83C382.06,386.57,386.65,383.05,392.16,383.21Z"/><path d="M464.71,393.24a8.25,8.25,0,0,1-6.52,7.65,13.58,13.58,0,0,1-7.34-.24,7,7,0,0,1-4.76-5.24,21.21,21.21,0,0,1-.21-5.52c.28-4.76,5.19-7.91,8.95-7.87,5.33.06,9.66,3.32,9.87,9C464.73,391.63,464.71,392.25,464.71,393.24Z"/><path d="M839.42,441.4c-6.95-.2-13.89-.37-20.83-.64-1.88-.07-3.74-.43-5.61-.66-1.11-.14-3.71-2.8-3.82-3.9s2.28-4,3.45-4.18a42.81,42.81,0,0,1,5.59-.74,312.86,312.86,0,0,1,35.95,1.85,47.84,47.84,0,0,1,9.21,2c.89.28,1.72,1.74,2,2.81a2.88,2.88,0,0,1-1.56,3.1c-.54.32-1.1.86-1.65.87-7.57.06-15.15,0-22.72,0Z"/><path d="M813.68,388.4c0,3.56-3,7.55-6.4,8.36a13.65,13.65,0,0,1-7.39-.13,6.57,6.57,0,0,1-4.18-3.48,12,12,0,0,1,1-12.43,7,7,0,0,1,4.66-2.88C808.17,376.6,813.76,381.47,813.68,388.4Z"/><path d="M878.13,363.56a4.94,4.94,0,0,1,4.58,2.7c.3.54.71,1.48.48,1.78-.75,1-1.66,2.17-2.73,2.46-4.27,1.19-8.62,2.14-13,3-3.73.76-6.7,3.87-10.71,3.56a7.52,7.52,0,0,1-3.3-1.52c-.31-.21-.1-1.19-.12-1.81a3.92,3.92,0,0,1,1.43-3.36,22,22,0,0,1,4.79-3A51.94,51.94,0,0,1,878.13,363.56Z"/><path d="M867,385.11a28.15,28.15,0,0,1,14.22,4.32c.93.59,1.44,1.93,2,3a2.69,2.69,0,0,1-.69,3.39,3.68,3.68,0,0,1-3.28,1.33,8.69,8.69,0,0,1-3.58-.85,13.71,13.71,0,0,0-12.54-1.5,14.7,14.7,0,0,1-3.72.3c-1.22.08-3.13-2.79-2.79-4.25a5.93,5.93,0,0,1,3.11-4.32A14.55,14.55,0,0,1,867,385.11Z"/><path d="M1052.07,833c0-1,0-3.51,0-6.06a11.54,11.54,0,0,1,3.66-8.49c4-4.23,9.1-3.87,12.9,1,1.24,1.58.32,3.42-2.09,4-1.23.29-2.55.16-3.79.42a4.54,4.54,0,0,0-2.92,4.36c.49,3.13,1,6.27,1.67,9.37.28,1.32,1.41,2.49,2.45,2.23,1.6-.41,1.57-1.63.9-3.07a5,5,0,0,1,.32-5.4c1.32-1.63,5.79-1.38,7,.12a5.43,5.43,0,0,1,1.13,1.5c1.23,4,4.67,5.73,7.88,7.73.41.26.57,1,.74,1.55.5,1.6,0,2.57-1.54,2.82-3.69.61-7.55.45-10.74,3.07-.89.74-2.37.79-3.59,1.12-3.15.82-6.3-1.05-9.44,0s-6,2.17-9,3a17.66,17.66,0,0,1-7.56.46,3.1,3.1,0,0,1-2.8-2.25c-1.27-3.56-.6-7.68-3.1-10.87a2.61,2.61,0,0,0-1.57-1,2.06,2.06,0,0,0-2.3,2.11,9.5,9.5,0,0,0,.6,3.7c.69,1.75,1.79,3.34,2.56,5.07a2.68,2.68,0,0,1-.94,3.37,3.7,3.7,0,0,1-3.66.3c-1.15-.51-2.16-1.3-3.28-1.89-1.83-1-2.33-.75-3.61,2.42-.56,1.41-1.18,2.33-2.64,2.24a3.68,3.68,0,0,1-3-1.9,21.89,21.89,0,0,1-1.48-3.49c-.42-1.2-.65-2.46-1.06-3.66-.58-1.65-2.18-2.36-4.63-2.13-1.9.18-3.79.34-5.69.39a3.44,3.44,0,0,1-3.69-3.45,2.81,2.81,0,0,1,1.92-2.93c2.41-.8,4.94-1.25,7.36-2.05a3.51,3.51,0,0,0,2.3-2.81c.23-1.23.23-2.51.36-3.76s.25-2.52.48-3.76a3.79,3.79,0,0,1,2.41-2.74c5.08-2.27,10-.93,14.88.7a2.73,2.73,0,0,0,3.25-1.21c3.63-4.89,8.62-4.7,13.78-3.6a2.23,2.23,0,0,1,1.44,3c-.62,1.87-2.48,2.8-3.9,4-1.9,1.66-1.81,1.95,1,4.16.5.39,1.08.68,1.57,1.09,1.55,1.3,1.69,3.22.3,5-.76,1-1.76,1.82-2.49,2.84a3.39,3.39,0,0,0-.14,3.56,3.28,3.28,0,0,0,3.1,1.91c6.43,0,6.55-1.59,5.89-6.8C1053.08,837,1052.7,835.78,1052.07,833Zm-31.48-1.66c-.32.34-1,.74-1,1.13a1.7,1.7,0,0,0,1,1.18,2.13,2.13,0,0,0,2.76-1.21c.07-.16-.67-.87-1.14-1.06A5.1,5.1,0,0,0,1020.59,831.3Z"/><path d="M935.36,837.24a10.61,10.61,0,0,0,7.62-.71,25.38,25.38,0,0,1,11-2.63,45,45,0,0,0,9.46-.92,3.83,3.83,0,0,1,4.53,2c2.61,5.9,2.72,12.4,4.5,18.49a5.6,5.6,0,0,0,4.36,3.1c.63,0,1.26,0,1.88-.06,1.79-.06,3.74-2,3.7-3.6a31.73,31.73,0,0,0,0-3.78c-.65-4.4-1.48-8.77-2.12-13.17-.57-3.94,1.92-7.22,6.28-8.05a47.63,47.63,0,0,1,7.56-.67A3,3,0,0,1,997,829a2.35,2.35,0,0,1-.9,3.38c-1.64.88-3.43,1.47-5.13,2.23-2,.91-2.54,3.06-1,4.33.48.4,1.11.62,1.6,1,3.47,2.84,3.76,3.2,1.79,6.05a15.89,15.89,0,0,0-2.85,8.84c-.2,5.55-.87,6.21-6.25,7.66-3.06.82-6.14,2-9.25,2.16a117.7,117.7,0,0,0-20.65,3.12,11,11,0,0,1-5.64-.33c-2.58-.8-4.94,0-7.26,1.26a25.91,25.91,0,0,1-5.26,2.17,8.86,8.86,0,0,1-3.73,0,6.71,6.71,0,0,1-4.45-3.29c-.66-1,.32-2.74,3.07-3.93,4.39-1.9,4-4.66.75-6.63a43.51,43.51,0,0,1-4.75-3.16,10,10,0,0,1-2.53-2.79,9,9,0,0,1-.53-9,7.81,7.81,0,0,1,5.85-4.35A48.21,48.21,0,0,1,935.36,837.24Zm28.91,18.34c.36-3.92-.38-7.69-1.06-11.45-.81-4.52-4.16-5.94-8.62-3.67-2,1-2.85,3.29-1.25,4.36,4.64,3.13,2.35,6.34.53,9.77-1.26,2.37.59,5.12,3.4,5.37a13.54,13.54,0,0,0,1.91,0C962.37,859.82,964.29,858.12,964.27,855.58Zm-25.65-4.12a30.81,30.81,0,0,0,3.29,1.5c1.21.4,2.14-.33,2.27-1.87a12.33,12.33,0,0,0-.29-3.68c-.85-3.52-3.74-5.15-6.94-4-1.79.64-3.62,1.55-3.9,3.54-.18,1.22,1.08,2.12,2.27,2.68S937.48,850.82,938.62,851.46Z"/><path class="cls-2" d="M367,693.84c-.12,1.21-.25,3.1-.49,5-.36,2.85-2.11,4.23-5.34,4.12-.63,0-1.26-.11-1.89-.19a4.38,4.38,0,0,1-3.74-3.61c-.27-1.45.69-2.18,1.66-3.17,3.64-3.69,3.25-3.67,1.66-6.3a17.88,17.88,0,0,1-1-1.62c-.86-1.86.29-3.49,2.6-3.75,4.07-.45,6,1.06,6.27,5C366.84,690.61,366.89,691.88,367,693.84Z"/><path class="cls-2" d="M213.28,681.39c4.07.58,6.09,2.41,6.33,5.71.39,5.37-1.69,7.59-7.81,8.33-.63.08-1.57.31-1.85,0a7.72,7.72,0,0,1-2-3.13,22.47,22.47,0,0,1-.43-5.67C207.68,682.34,209.42,680.84,213.28,681.39Z"/><path class="cls-2" d="M226.46,688.38c.27-1.23.69-3,1-4.8.33-1.63,1.2-2.1,2.77-1.55a3.49,3.49,0,0,1,2.53,2.28c.76,3,.91,6-.57,9a2.51,2.51,0,0,1-3,1.63,2.73,2.73,0,0,1-2.28-2.29C226.7,691.44,226.67,690.19,226.46,688.38Z"/><path class="cls-2" d="M1020.59,831.3a5.1,5.1,0,0,1,1.67,0c.47.19,1.21.9,1.14,1.06a2.13,2.13,0,0,1-2.76,1.21,1.7,1.7,0,0,1-1-1.18C1019.61,832,1020.27,831.64,1020.59,831.3Z"/><path class="cls-2" d="M964.27,855.58c0,2.54-1.9,4.24-5.09,4.42a13.54,13.54,0,0,1-1.91,0c-2.81-.25-4.66-3-3.4-5.37,1.82-3.43,4.11-6.64-.53-9.77-1.6-1.07-.78-3.33,1.25-4.36,4.46-2.27,7.81-.85,8.62,3.67C963.89,847.89,964.63,851.66,964.27,855.58Z"/><path class="cls-2" d="M938.62,851.46c-1.14-.64-2.19-1.31-3.3-1.84s-2.45-1.46-2.27-2.68c.28-2,2.11-2.9,3.9-3.54,3.2-1.14,6.09.49,6.94,4a12.33,12.33,0,0,1,.29,3.68c-.13,1.54-1.06,2.27-2.27,1.87A30.81,30.81,0,0,1,938.62,851.46Z"/></svg>