<svg id="Ebene_1" data-name="Ebene 1" xmlns="http://www.w3.org/2000/svg" viewBox="0 0 1200.08 1106.42"><defs><style>.cls-1{fill:#f9f9f9;}.cls-2{fill:#fff;}</style></defs><path class="cls-1" d="M891.83,662.69h-.13c0-10.88,0-21.76,0-32.64,0-1.62.45-2.66,1.66-2.64a3.48,3.48,0,0,1,2.88,2.09,30.14,30.14,0,0,1,1.67,3.43q8.19,21.52,15.05,43.51c1.53,4.92,3.24,9.67,6.34,13.87a9.72,9.72,0,0,1,1.46,7.33c-.52,3.8-1.3,7.58-1.57,11.4a48.41,48.41,0,0,0,.27,9.55,7.53,7.53,0,0,0,4.18,6c3.44,1.69,7.08,3.09,8.59,7.12a3.72,3.72,0,0,0,1,1.63c4.63,3.72,9.86,6,15.87,5.65a12,12,0,0,0,5.43-1.63c8.2-5,12.85-12.26,13.23-22,.13-3.2.12-6.4.14-9.6a41.66,41.66,0,0,0-2.41-15.07A36.6,36.6,0,0,1,963,673.79a17.54,17.54,0,0,0-.67-5.68c-2.5-10.58-4.72-21.25-7.73-31.69-6.38-22.12-13.46-44-21.74-65.54-3.68-9.54-7.24-19.21-12-28.24-5.92-11.33-12-22.58-17.8-34-8.46-16.48-21.51-28.4-38.49-36a98.91,98.91,0,0,0-21.82-7,2.38,2.38,0,0,1-1.6-1c-.17-.38.27-1.21.66-1.62a17.7,17.7,0,0,1,6.47-3.9c18.9-7.67,33.91-20.28,46-36.52,12.61-17,18.61-36.27,19.55-57.21a111.43,111.43,0,0,0-3.85-34.2c-6.09-22.56-19.41-40.07-37.68-54.06-10.81-8.28-23.19-13.44-36.23-17a48.35,48.35,0,0,0-7.53-1.45c-10.19-1.12-20.38-1.59-30.61-.19a91.8,91.8,0,0,0-27.49,8.1,110.78,110.78,0,0,0-38.93,30.52c-12,14.93-18.53,32.09-20.84,50.79a99.48,99.48,0,0,0,2.76,40c.71,2.46,1.27,5,1.88,7.44.72,2.93-1.22,5.25-3.9,4.63-10-2.29-20-4.38-29.86-7A291.76,291.76,0,0,1,638,378.25c-14.62-6.43-29.54-12.25-43-21.15a6.68,6.68,0,0,0-7.24-.45c-4.47,2.49-9.11,4.7-13.39,7.47A81.4,81.4,0,0,1,559.1,372c-7.78,2.94-15.29,6.49-23,9.49-10.14,3.91-20.34,7.73-30.87,10.45-11.75,3.05-23.62,5.68-35.46,8.37a58.39,58.39,0,0,1-7.62.81,17.9,17.9,0,0,1-1.91-.14c-1.32,0-3.29-2.76-3-4.2,2.57-11.87,4.7-23.78,4.79-36a95.91,95.91,0,0,0-7.61-39.27c-10-23.11-25.31-41.28-48.3-52.43C391.52,262,376.43,257.21,360,258.15c-1.91.11-3.84.09-5.75,0-11.09-.36-21.71,2.25-31.82,6.24-23.38,9.22-41.71,24.57-54,46.77a95.12,95.12,0,0,0-10.71,30.65,125.89,125.89,0,0,0-.87,34.42c2.82,25.32,14.21,46.21,32.35,63.61a99.72,99.72,0,0,0,30.22,20c2.32,1,4.83,1.73,6.63,3.66a2.67,2.67,0,0,1,.78,1.57,3.3,3.3,0,0,1-1.91,3.11,15.1,15.1,0,0,1-3.54,1.26c-16.15,3.26-27.53,12.83-35.56,26.83a86.72,86.72,0,0,0-8.13,19.42,390.76,390.76,0,0,0-12.07,58.18c-2,15.86-4.57,31.68-5.13,47.7a57.3,57.3,0,0,1-.85,7.62c-1.62,9.5-1.72,19.11-2.25,28.69-.79,14.7-.73,29.42-.71,44.14,0,19.2-.33,38.41.19,57.59.45,16.64.36,33.27.47,49.91,0,2.55-.14,5.11-.12,7.67,0,4.21-2.08,7.31-5.16,9.8-3.47,2.82-7.07,5.49-10.65,8.18-5.11,3.84-10.27,7.62-15.37,11.48-12.25,9.26-24.43,18.6-36.7,27.83-11.24,8.46-22.6,16.78-33.83,25.26a50.74,50.74,0,0,0-7.07,6.43,9.63,9.63,0,0,0-2.16,9,18.81,18.81,0,0,0,1.22,3.62c7.24,15.74,16.75,30.18,26,44.73,2,3.17,5.07,5.73,7.81,8.39,1.87,1.8,4.36,2.57,6.85,3.26a5.35,5.35,0,0,0,3.71-.36c3.26-1.4,4.82-4.11,5.69-7.26a35.73,35.73,0,0,0,.7-13.35c-.59-5.73-1.52-11.42-2.15-17.14-.27-2.52-.21-5.08-.24-7.63a4.17,4.17,0,0,1,1.51-3.42,87.73,87.73,0,0,1,7.61-5.75c15.7-9.87,31.47-19.64,47.21-29.45l30.93-19.31a184.53,184.53,0,0,0,20.21-14.6,28.34,28.34,0,0,0,8.59-12.47,140.93,140.93,0,0,0,6.27-26.08c3.17-20.22,6-40.49,9.05-60.74.38-2.52.95-5,1.56-7.51a8.24,8.24,0,0,1,6.42-6.35,51.84,51.84,0,0,1,5.66-1c4-.51,7.61.36,10.34,3.64,2,2.45,4.16,4.85,6.14,7.35,13.55,17.05,25.06,35.56,38.05,53a86.29,86.29,0,0,1,13.45,27.42c.9,3.06,1.69,6.16,2.54,9.24,7,25.27,13.61,50.64,19.59,76.18,3.07,13.08,6.34,26.08,7.92,39.45a16.64,16.64,0,0,0,2.72,7.1,4.52,4.52,0,0,0,2.9,2.32,33.2,33.2,0,0,0,5.6,1c8.31.15,16.63.17,24.95.18,10.24,0,20.47.06,30.71-.15a57.11,57.11,0,0,0,11.36-1.4A9.48,9.48,0,0,0,524,962c1.28-3.43-.4-6.23-2.43-8.75a22.77,22.77,0,0,0-4.23-3.84c-5.72-4.2-12.14-7.08-18.71-9.62-4.77-1.85-9.66-3.39-14.5-5-2.71-.92-4-3-4.54-5.59a199.76,199.76,0,0,1-3.52-20.8c-.55-5.73-1.49-11.41-2.28-17.11-1.75-12.67-3.69-25.32-5.25-38s-3.85-25.29-6-37.9a124.15,124.15,0,0,0-12.2-36.21c-6.74-13.08-13.35-26.22-20.25-39.21C422.87,726.38,415.37,713,408,699.51a85.82,85.82,0,0,1-4.31-8.57c-1.45-3.56-2.51-7.33-2.05-11.22.91-7.66.62-15.34.9-23,.24-6.38.87-12.75,1.35-19.12.09-1.21,2.42-3.73,3.66-4.05a19.13,19.13,0,0,1,3.71-.91c4.46-.22,8.94-.36,13.4-.37,3.88,0,7,2.76,8.11,6.88,1.63,6.18,3.17,12.39,4.87,18.55a422.38,422.38,0,0,0,35.53,88.85,325.21,325.21,0,0,0,27.29,41.69c11.66,15.32,25.09,29,39.19,42.08A239.32,239.32,0,0,0,584.54,863a12.46,12.46,0,0,0,12.8.13c1.69-.91,3.44-1.71,5.08-2.69,26.68-15.89,49.38-36.45,69.32-60,13.63-16.14,26.08-33.21,35.64-52.19,1.15-2.28,2.47-4.48,3.75-6.7.64-1.1,1.35-2.17,2.07-3.22a6.25,6.25,0,0,1,1.22-1.47,3.12,3.12,0,0,1,1.54-.63c1.48-.17,2.36.64,2.42,2.26.54,14.09-.89,28.09-2,42.1-.77,9.56-1.72,19.11-2.55,28.67-.39,4.46-.46,9-1.1,13.38-1.29,8.89-1.71,17.83-2.29,26.77-1.48,23-4.09,45.87-5.17,68.88-.12,2.55-.82,5.07-1,7.61-.25,3.83-.32,7.69.87,11.42a28.67,28.67,0,0,1,1,11.39,51.74,51.74,0,0,0-.2,11.47c.44,3.32,3.7,7.71,6.88,8.54a68.74,68.74,0,0,0,7.47,1.66c17.13,2.49,34.4,2.88,51.66,3.21a46,46,0,0,0,5.71-.56c3-.32,5.59-3.48,5.62-6.69a12.55,12.55,0,0,0-3-8.82,25.77,25.77,0,0,0-4.07-4c-4.14-3-8.43-5.79-12.63-8.71-4-2.77-6.19-6.31-5.16-11.42,2.52-12.53,4.82-25.12,7.48-37.63,3-14.38,6.56-28.67,9.59-43.07,4.2-20,8.1-40.11,12.21-60.15,2.56-12.52,5.27-25,7.94-37.52a7.41,7.41,0,0,1,7-5.45,13.76,13.76,0,0,1,3.79.31,5.18,5.18,0,0,1,4.05,3.56c1.06,3.69,2.26,7.36,3,11.11,2,10.68,4.13,21.34,5.85,32.08,3.13,19.57,6.77,39.06,10.12,58.59q3.09,18,6,36,3,18.95,5.9,37.91a25,25,0,0,0,3.82,10.74,19.29,19.29,0,0,1,3.23,10.83c.1,3.83.37,7.66.75,11.47.33,3.2,4.43,7.22,7.7,7.78a135,135,0,0,0,20.94,2.29c10.23.15,20.47.46,30.7.46a150.58,150.58,0,0,0,15.3-.89,13.26,13.26,0,0,0,6.88-3.14,4.9,4.9,0,0,0,1.89-3.2,10.68,10.68,0,0,0-2.39-8.91c-3.31-4.09-7.75-6.71-12.34-8.94-5.16-2.52-10.61-4.44-15.84-6.83a7.14,7.14,0,0,1-4.17-6c-.86-10.19-1.65-20.39-2.25-30.6-.87-14.69-1.19-29.42-2.45-44.07-.92-10.84-1.53-21.69-2.25-32.54s-1.63-21.68-2.45-32.52c-.19-2.55-.34-5.11-.5-7.66q-1.11-18.19-2.21-36.4c-.54-8.93-1.15-17.86-1.54-26.8a8,8,0,0,1,4.45-7.84c.56-.3,1.05-.73,1.59-1.06,2.45-1.5,3.09-3.94,3.33-6.52a15.36,15.36,0,0,0-.15-3.83c-1.54-8.87-1.52-17.82-1.47-26.78C891.85,672.93,891.83,667.81,891.83,662.69Z"/><path class="cls-1" d="M943.37,513a36.07,36.07,0,0,0,5.32.15,6,6,0,0,0,3.17-1.71,2.24,2.24,0,0,0,0-3.44c-.85-.94-1.69-1.88-2.59-2.76-2.71-2.66-2.56-4.17.5-5.26s6-2.25,9-3.16c18.36-5.51,36.32-12.25,54.83-17.3,6.76-1.84,13.3-4.54,19.85-7.07a48.13,48.13,0,0,1,13-3.06,17.75,17.75,0,0,1,11.09,2.18c4.38,2.63,8.73,5.31,13.65,6.91a16.43,16.43,0,0,0,9.39.6c11.18-2.84,21.85-7.16,32.55-11.36.59-.23,1.09-.67,1.66-1,1.92-1,2.66-4.92,1.2-6.7a14.61,14.61,0,0,0-2.52-2.83c-3.66-2.55-7.46-4.91-11.16-7.42a10.25,10.25,0,0,1-2.8-2.56,5.54,5.54,0,0,1-1.16-3.48,61.91,61.91,0,0,1,2.1-7.31c1.28-4.25,3.59-8.21,3.7-12.79a3,3,0,0,0-2-2.95,7.62,7.62,0,0,0-5.56-.52c-10.84,3.77-21.48,8.15-32.64,11a10.12,10.12,0,0,0-3.44,1.64,16.63,16.63,0,0,0-4.11,3.9,73.34,73.34,0,0,0-4.3,8.54c-1.32,2.9-2.45,5.89-3.69,8.84a10.44,10.44,0,0,1-5.28,5.29,37.09,37.09,0,0,1-5.25,2.32c-27.35,8.83-54.76,17.5-82,26.61-4.78,1.59-9.69,3.23-14.85,3.37a2.39,2.39,0,0,1-1.63-.93,1.88,1.88,0,0,1-.14-1.61c1.54-3.47,3.29-6.85,4.71-10.37.5-1.23-.24-2.51-1.16-3.39a3,3,0,0,0-3.47-.68,8.82,8.82,0,0,0-3.15,2.07c-6.24,7.26-12.47,14.55-18.51,22a14.45,14.45,0,0,0-2.16,5.24,2.92,2.92,0,0,0,1.34,3.26,21.18,21.18,0,0,0,8.88,3.37C930.91,511.53,936,512.08,943.37,513Z"/><path class="cls-1" d="M169.44,542.87v0h59.27c3.19,0,6.38,0,9.56-.14,1.26,0,2.5-.4,3.76-.55,1.57-.19,3.26-2.62,2.88-4.2a3.45,3.45,0,0,0-2.3-2.56c-3.65-1.46-7.5-1.21-11.29-1.21q-62.15,0-124.29,0c-2.54,0-5.09.08-7.63.3a18.31,18.31,0,0,0-3.64,1,2.74,2.74,0,0,0-2.09,2.67c-.17,1.54.17,2.52,1.5,3.09.58.24,1.08.85,1.65.9,3.81.28,7.62.61,11.43.62C128.65,542.9,149,542.87,169.44,542.87Z"/><path class="cls-1" d="M188.41,577.07h0c12.16,0,24.31,0,36.47,0a60.22,60.22,0,0,0,7.57-.73,2.29,2.29,0,0,0,1.47-1.17c.49-1.09,1.27-2.49.93-3.39a4.43,4.43,0,0,0-2.91-2,26,26,0,0,0-5.72-.48q-36.47,0-72.93,0c-1.92,0-3.83.18-5.74.32a10.77,10.77,0,0,0-1.86.38,3,3,0,0,0-2.44,2.29c-.34,1.57,1.46,4.07,3,4.2,2.54.21,5.08.58,7.63.6C165.38,577.1,176.9,577.07,188.41,577.07Z"/><path class="cls-1" d="M929.91,525.4c-1.67-.7-4.17.08-4.84,1.5a4.46,4.46,0,0,0,1.55,4.92c.53.32,1,.76,1.55,1q8.3,4.35,16.63,8.63a4.4,4.4,0,0,0,1.8.21,3.17,3.17,0,0,0,3.06-1.72,3.09,3.09,0,0,0,.12-1.84,7.18,7.18,0,0,0-3.14-4.39C941.54,530,935.63,527.89,929.91,525.4Z"/><path class="cls-1" d="M903.13,479.82a12,12,0,0,0,.91,1.5,3.47,3.47,0,0,0,4.94-.07,29.59,29.59,0,0,0,7.93-16.36,2.75,2.75,0,0,0-.47-1.74A3.47,3.47,0,0,0,915,462a4.44,4.44,0,0,0-5,.91c-3.64,4.43-4.92,10-7,15.09C902.79,478.5,903.07,479.2,903.13,479.82Z"/><path d="M891.83,662.69c0,5.12,0,10.24,0,15.36-.05,9-.07,17.91,1.47,26.78a15.36,15.36,0,0,1,.15,3.83c-.24,2.58-.88,5-3.33,6.52-.54.33-1,.76-1.59,1.06a8,8,0,0,0-4.45,7.84c.39,8.94,1,17.87,1.54,26.8q1.1,18.2,2.21,36.4c.16,2.55.31,5.11.5,7.66.82,10.84,1.74,21.67,2.45,32.52S892.1,849.16,893,860c1.26,14.65,1.58,29.38,2.45,44.07.6,10.21,1.39,20.41,2.25,30.6a7.14,7.14,0,0,0,4.17,6c5.23,2.39,10.68,4.31,15.84,6.83,4.59,2.23,9,4.85,12.34,8.94a10.68,10.68,0,0,1,2.39,8.91,4.9,4.9,0,0,1-1.89,3.2,13.26,13.26,0,0,1-6.88,3.14,150.58,150.58,0,0,1-15.3.89c-10.23,0-20.47-.31-30.7-.46a135,135,0,0,1-20.94-2.29c-3.27-.56-7.37-4.58-7.7-7.78-.38-3.81-.65-7.64-.75-11.47a19.29,19.29,0,0,0-3.23-10.83A25,25,0,0,1,841.25,929q-2.84-19-5.9-37.91-2.9-18-6-36c-3.35-19.53-7-39-10.12-58.59-1.72-10.74-3.84-21.4-5.85-32.08-.7-3.75-1.9-7.42-3-11.11a5.18,5.18,0,0,0-4.05-3.56,13.76,13.76,0,0,0-3.79-.31,7.41,7.41,0,0,0-7,5.45c-2.67,12.5-5.38,25-7.94,37.52-4.11,20-8,40.13-12.21,60.15-3,14.4-6.54,28.69-9.59,43.07-2.66,12.51-5,25.1-7.48,37.63-1,5.11,1.18,8.65,5.16,11.42,4.2,2.92,8.49,5.71,12.63,8.71a25.77,25.77,0,0,1,4.07,4,12.55,12.55,0,0,1,3,8.82c0,3.21-2.59,6.37-5.62,6.69a46,46,0,0,1-5.71.56c-17.26-.33-34.53-.72-51.66-3.21a68.74,68.74,0,0,1-7.47-1.66c-3.18-.83-6.44-5.22-6.88-8.54a51.74,51.74,0,0,1,.2-11.47,28.67,28.67,0,0,0-1-11.39c-1.19-3.73-1.12-7.59-.87-11.42.16-2.54.86-5.06,1-7.61,1.08-23,3.69-45.9,5.17-68.88.58-8.94,1-17.88,2.29-26.77.64-4.42.71-8.92,1.1-13.38.83-9.56,1.78-19.11,2.55-28.67,1.12-14,2.55-28,2-42.1-.06-1.62-.94-2.43-2.42-2.26a3.12,3.12,0,0,0-1.54.63,6.25,6.25,0,0,0-1.22,1.47c-.72,1.05-1.43,2.12-2.07,3.22-1.28,2.22-2.6,4.42-3.75,6.7-9.56,19-22,36-35.64,52.19-19.94,23.59-42.64,44.15-69.32,60-1.64,1-3.39,1.78-5.08,2.69a12.46,12.46,0,0,1-12.8-.13,239.32,239.32,0,0,1-44.86-32.7c-14.1-13.08-27.53-26.76-39.19-42.08a325.21,325.21,0,0,1-27.29-41.69,422.38,422.38,0,0,1-35.53-88.85c-1.7-6.16-3.24-12.37-4.87-18.55-1.09-4.12-4.23-6.88-8.11-6.88-4.46,0-8.94.15-13.4.37a19.13,19.13,0,0,0-3.71.91c-1.24.32-3.57,2.84-3.66,4.05-.48,6.37-1.11,12.74-1.35,19.12-.28,7.66,0,15.34-.9,23-.46,3.89.6,7.66,2.05,11.22a85.82,85.82,0,0,0,4.31,8.57c7.34,13.48,14.84,26.87,22.05,40.42,6.9,13,13.51,26.13,20.25,39.21a124.15,124.15,0,0,1,12.2,36.21c2.15,12.61,4.43,25.19,6,37.9s3.5,25.34,5.25,38c.79,5.7,1.73,11.38,2.28,17.11a199.76,199.76,0,0,0,3.52,20.8c.54,2.64,1.83,4.67,4.54,5.59,4.84,1.65,9.73,3.19,14.5,5,6.57,2.54,13,5.42,18.71,9.62a22.77,22.77,0,0,1,4.23,3.84c2,2.52,3.71,5.32,2.43,8.75a9.48,9.48,0,0,1-6.83,6.17,57.11,57.11,0,0,1-11.36,1.4c-10.24.21-20.47.15-30.71.15-8.32,0-16.64,0-24.95-.18a33.2,33.2,0,0,1-5.6-1,4.52,4.52,0,0,1-2.9-2.32,16.64,16.64,0,0,1-2.72-7.1c-1.58-13.37-4.85-26.37-7.92-39.45-6-25.54-12.57-50.91-19.59-76.18-.85-3.08-1.64-6.18-2.54-9.24a86.29,86.29,0,0,0-13.45-27.42c-13-17.44-24.5-35.95-38.05-53-2-2.5-4.1-4.9-6.14-7.35-2.73-3.28-6.3-4.15-10.34-3.64a51.84,51.84,0,0,0-5.66,1,8.24,8.24,0,0,0-6.42,6.35c-.61,2.48-1.18,5-1.56,7.51-3,20.25-5.88,40.52-9.05,60.74a140.93,140.93,0,0,1-6.27,26.08,28.34,28.34,0,0,1-8.59,12.47,184.53,184.53,0,0,1-20.21,14.6L252.2,890.83c-15.74,9.81-31.51,19.58-47.21,29.45a87.73,87.73,0,0,0-7.61,5.75,4.17,4.17,0,0,0-1.51,3.42c0,2.55,0,5.11.24,7.63.63,5.72,1.56,11.41,2.15,17.14a35.73,35.73,0,0,1-.7,13.35c-.87,3.15-2.43,5.86-5.69,7.26a5.35,5.35,0,0,1-3.71.36c-2.49-.69-5-1.46-6.85-3.26-2.74-2.66-5.79-5.22-7.81-8.39-9.29-14.55-18.8-29-26-44.73a18.81,18.81,0,0,1-1.22-3.62,9.63,9.63,0,0,1,2.16-9,50.74,50.74,0,0,1,7.07-6.43c11.23-8.48,22.59-16.8,33.83-25.26,12.27-9.23,24.45-18.57,36.7-27.83,5.1-3.86,10.26-7.64,15.37-11.48,3.58-2.69,7.18-5.36,10.65-8.18,3.08-2.49,5.19-5.59,5.16-9.8,0-2.56.14-5.12.12-7.67-.11-16.64,0-33.27-.47-49.91-.52-19.18-.16-38.39-.19-57.59,0-14.72-.08-29.44.71-44.14.53-9.58.63-19.19,2.25-28.69a57.3,57.3,0,0,0,.85-7.62c.56-16,3.13-31.84,5.13-47.7a390.76,390.76,0,0,1,12.07-58.18,86.72,86.72,0,0,1,8.13-19.42c8-14,19.41-23.57,35.56-26.83a15.1,15.1,0,0,0,3.54-1.26,3.3,3.3,0,0,0,1.91-3.11,2.67,2.67,0,0,0-.78-1.57c-1.8-1.93-4.31-2.68-6.63-3.66a99.72,99.72,0,0,1-30.22-20c-18.14-17.4-29.53-38.29-32.35-63.61a125.89,125.89,0,0,1,.87-34.42,95.12,95.12,0,0,1,10.71-30.65c12.29-22.2,30.62-37.55,54-46.77,10.11-4,20.73-6.6,31.82-6.24,1.91.06,3.84.08,5.75,0,16.47-.94,31.56,3.87,46.14,10.94,23,11.15,38.32,29.32,48.3,52.43A95.91,95.91,0,0,1,462,360.79c-.09,12.23-2.22,24.14-4.79,36-.31,1.44,1.66,4.17,3,4.2a17.9,17.9,0,0,0,1.91.14,58.39,58.39,0,0,0,7.62-.81c11.84-2.69,23.71-5.32,35.46-8.37,10.53-2.72,20.73-6.54,30.87-10.45,7.75-3,15.26-6.55,23-9.49a81.4,81.4,0,0,0,15.32-7.9c4.28-2.77,8.92-5,13.39-7.47a6.68,6.68,0,0,1,7.24.45c13.41,8.9,28.33,14.72,43,21.15A291.76,291.76,0,0,0,681.55,393c9.88,2.59,19.9,4.68,29.86,7,2.68.62,4.62-1.7,3.9-4.63-.61-2.48-1.17-5-1.88-7.44a99.48,99.48,0,0,1-2.76-40c2.31-18.7,8.82-35.86,20.84-50.79a110.78,110.78,0,0,1,38.93-30.52,91.8,91.8,0,0,1,27.49-8.1c10.23-1.4,20.42-.93,30.61.19a48.35,48.35,0,0,1,7.53,1.45c13,3.6,25.42,8.76,36.23,17,18.27,14,31.59,31.5,37.68,54.06a111.43,111.43,0,0,1,3.85,34.2c-.94,20.94-6.94,40.25-19.55,57.21-12.08,16.24-27.09,28.85-46,36.52a17.7,17.7,0,0,0-6.47,3.9c-.39.41-.83,1.24-.66,1.62a2.38,2.38,0,0,0,1.6,1,98.91,98.91,0,0,1,21.82,7c17,7.58,30,19.5,38.49,36,5.83,11.38,11.88,22.63,17.8,34,4.72,9,8.28,18.7,12,28.24,8.28,21.5,15.36,43.42,21.74,65.54,3,10.44,5.23,21.11,7.73,31.69a17.54,17.54,0,0,1,.67,5.68,36.6,36.6,0,0,0,2.48,16.94,41.66,41.66,0,0,1,2.41,15.07c0,3.2,0,6.4-.14,9.6-.38,9.74-5,17-13.23,22a12,12,0,0,1-5.43,1.63c-6,.32-11.24-1.93-15.87-5.65a3.72,3.72,0,0,1-1-1.63c-1.51-4-5.15-5.43-8.59-7.12a7.53,7.53,0,0,1-4.18-6,48.41,48.41,0,0,1-.27-9.55c.27-3.82,1.05-7.6,1.57-11.4a9.72,9.72,0,0,0-1.46-7.33c-3.1-4.2-4.81-8.95-6.34-13.87q-6.84-22-15.05-43.51a30.14,30.14,0,0,0-1.67-3.43,3.48,3.48,0,0,0-2.88-2.09c-1.21,0-1.67,1-1.66,2.64,0,10.88,0,21.76,0,32.64Zm-66.22-87c1.27-2.2,2.44-4.45,3.8-6.59,7.21-11.27,14.13-22.72,20.62-34.43a31.14,31.14,0,0,0,2.37-5.19c.61-1.78,1-3.69-.1-5.5-1.31-2.18-2.68-4.33-3.92-6.55a6.35,6.35,0,0,1,1.07-7.07c1.74-1.84,3.72-3.47,5.43-5.34a7.52,7.52,0,0,0,1.78-7.07A69.71,69.71,0,0,0,850,480.12a3.14,3.14,0,0,0-3.18-1.69,4.73,4.73,0,0,0-2.89,1.88,19.87,19.87,0,0,0-2.67,9.09c-1.21,16-4.74,31.46-8.8,46.88-2.26,8.62-4.34,17.29-6.4,26a24.24,24.24,0,0,0,.4,13.14l-1.21-.74Q827.21,573.84,825.61,575.65ZM428.77,405.45c3.81-.24,7.62-.38,11.41-.78a5.7,5.7,0,0,0,4.53-3.11,56.88,56.88,0,0,0,3.69-8.8c1.08-3.66,1.61-7.49,2.46-11.22,5.24-22.84,1.09-44.36-9.18-65A57.32,57.32,0,0,0,437.8,310c-13.83-20.44-32.69-33.74-56.65-39.71A87.51,87.51,0,0,0,332,271.67c-14.06,4.61-27,11.56-37.45,22.37-2.23,2.29-4.55,4.49-6.72,6.83a75.74,75.74,0,0,0-19.52,38.77c-.45,2.52-.91,5-1.54,7.5-1.44,5.63-1.56,11.35-1.65,17.11-.17,9.72,2.58,18.94,4.54,28.29a26.1,26.1,0,0,0,2.08,5.35c1.59,3.48,3.19,7,5,10.36a89.61,89.61,0,0,0,22.68,28.13c13,10.85,28.19,17.41,44.59,21a77.36,77.36,0,0,0,30.47.35c12.73-2.29,24.29-7.68,34.88-15.06a11,11,0,0,0,4.87-7.93c.43-4.44.73-8.91.84-13.37.24-10.24.81-12.37,10.88-14.75a17.59,17.59,0,0,0,3.41-1.66ZM815.33,266.87c-27,.39-48.94,9.33-67.39,26.67a82.49,82.49,0,0,0-23.66,38.71c-1.36,4.93-2.44,9.89-3.46,14.89a72.52,72.52,0,0,0,0,28.5c1.42,7.55,2.8,15.07,5.45,22.27a9,9,0,0,0,6.9,6c5,.85,10.14,1.14,15.19,1.85a50,50,0,0,1,7.44,1.68,10.37,10.37,0,0,1,7.48,7.95c.82,3.72,1.14,7.56,1.62,11.35.57,4.43.91,8.89,1.65,13.28a9.48,9.48,0,0,0,4.32,6.07,30,30,0,0,0,5,2.73c8.83,3.81,18.14,6.13,27.51,8a49.14,49.14,0,0,0,13.33.65,88.37,88.37,0,0,0,36.43-10.74,107.68,107.68,0,0,0,35.33-31.73,51.75,51.75,0,0,0,5.72-9.91,140.9,140.9,0,0,0,10.46-36.71,55.52,55.52,0,0,0,.49-11.44,108.54,108.54,0,0,0-20-55.11,68.56,68.56,0,0,0-14.6-15c-13-9.88-27.68-15.7-43.54-18.75A117.8,117.8,0,0,0,815.33,266.87ZM398.05,623.2v.08c7.66-.12,15.33-.21,23-.42a11.75,11.75,0,0,0,3.6-1,3.68,3.68,0,0,0,1.51-1.15,4,4,0,0,0,.81-1.69c1-5.18-1.05-10.07-1.6-15.09-.26-2.48-1.41-4.88-2.31-7.25a5.66,5.66,0,0,0-4.23-3.53c-7.53-1.42-15-3.35-22.63-4.07-6.39-.6-12.53-2.47-18.67-4.25a15.5,15.5,0,0,1-6.4-4.06c-5.07-4.95-9.11-10.71-13-16.55-11-16.45-21.43-33.28-31.5-50.32-.53-.9-.15-2.42,0-3.62s3.38-2.19,5.05-1.48a9.67,9.67,0,0,1,3.28,1.85,39.47,39.47,0,0,1,4.79,5.93c6.18,9.7,12.1,19.57,18.37,29.2,4.53,7,9.14,13.91,14.3,20.4,8.27,10.42,11.09,10.86,22.12,14,2.33.65,5-1,5.82-3.72a53,53,0,0,0,2-7.36c1.13-7.59,2.2-15.18,3.88-22.68a18,18,0,0,1,5.58-9.75,9.12,9.12,0,0,0,3.06-6.77c.08-10.23.06-20.46.1-30.69a11.84,11.84,0,0,0-6.24-11.05,112.78,112.78,0,0,0-17.15-8.45,2.72,2.72,0,0,0-3.41.88,16.69,16.69,0,0,0-1.28,1.4c-2.86,4.55-6.95,7.14-12.08,8.79-10.26,3.29-20.14,3-29.75-1.9-3.41-1.73-6.61-3.88-10-5.76-2.23-1.24-4.51-2.41-6.82-3.48a10.56,10.56,0,0,0-7.48-.51,40.09,40.09,0,0,0-19.09,12.27,61.8,61.8,0,0,0-12.59,21.33,236.23,236.23,0,0,0-8.42,29.47c-3.67,18.16-7.29,36.35-8.46,54.91a60.61,60.61,0,0,1-.84,7.62c-1.82,9.46-2.21,19-2.89,28.61-.63,8.92-1.12,17.85-2,26.76-.79,8.25-.66,16.59-.94,24.89-.06,1.95,2.81,4.89,4.94,5.13,1.9.21,3.79.7,5.69.72,16,.13,31.9.19,47.88-1.17,16.56-1.4,33.06-3.31,49.61-4.83,4.45-.41,8.9-.93,13.12-2.58,2.53-1,4.47-2.7,4.73-5.44,1.19-12.72,2.26-25.45,3.28-38.19a6.8,6.8,0,0,0-.79-3.68,5.57,5.57,0,0,0-2.77-2.42,20.2,20.2,0,0,0-5.65-.81c-5.76-.12-11.51-.07-17.26-.12a30.76,30.76,0,0,1-12.89-3.25,38.8,38.8,0,0,1-9.69-6.1,136.27,136.27,0,0,1-12.39-12,344.38,344.38,0,0,1-36.07-49.52A24,24,0,0,1,294,549.85c-.1-1.51,2.08-3.6,3.8-3.47,2,.15,3.7.79,4.7,2.61,3.09,5.59,5.74,11.47,9.3,16.74a359.46,359.46,0,0,0,30.76,39.16c2.56,2.84,5.38,5.46,8.22,8A38.66,38.66,0,0,0,377,623.17C384,623.28,391,623.2,398.05,623.2ZM886.71,897.93c-.45-7.38-.94-16.31-1.56-25.23-.75-10.83-1.67-21.65-2.41-32.48-1.51-22.3-2.57-44.64-4.55-66.9-1.41-15.91-2.84-31.8-3.25-47.77a20.61,20.61,0,0,0-.86-3.68,3.36,3.36,0,0,0-2.56-2.59c-6.14-2-12.58-1.83-18.88-2.63-7.62-1-15.18-2-22.5-4.44-4.23-1.42-8.57-2.54-12.89-3.69a28.3,28.3,0,0,0-9.49-.77,50.46,50.46,0,0,0-13.16,2.39c-3,1.06-6.13,1.8-9.09,3a65,65,0,0,1-14.86,3.54,203.91,203.91,0,0,1-32.47,2,16.19,16.19,0,0,0-5.63.83c-1,.37-2.43,1.67-2.51,2.66-1.31,15.26-3.49,30.45-4.06,45.78-.22,5.74-.22,11.52-.84,17.22-2.24,20.32-3.25,40.74-5.27,61.07-.63,6.36-1.17,12.72-1.74,19.08-.67,7.63-1.08,15.3-2.06,22.89-1.65,12.71-2,25.46-2.27,38.24a7.06,7.06,0,0,0,5.63,6.7c8.25,1.53,16.53,1.23,24.8.42a5,5,0,0,0,4.37-3.26c1.06-3,2.61-6,2.92-9.06.77-7.69,3.12-15,4.72-22.47,2.82-13.11,5.74-26.2,8.46-39.32,6.35-30.63,13-61.21,18.93-91.92,1.34-6.89,3.11-13.69,4.8-20.51a10.07,10.07,0,0,1,8.24-7,73.62,73.62,0,0,1,15.28.1,9,9,0,0,1,6.87,5.9c.34,1.23.82,2.42,1.07,3.67,1.76,8.76,3.65,17.5,5.18,26.31,3,17.61,5.92,35.26,8.83,52.9,1.25,7.56,2.29,15.15,3.67,22.69,4.36,23.87,8,47.87,11.95,71.81.31,1.88.93,3.71,1.41,5.56.91,3.51,3.37,5.56,6.71,5.64a187.21,187.21,0,0,0,24.83-1.1c2.06-.22,4.66-3.11,4.83-5.3a37.25,37.25,0,0,0,.32-3.79C887.37,916.07,887.06,907.77,886.71,897.93ZM423.79,489.24c.23,12.78.65,25.53,1.55,38.31,1.16,16.58,2.36,33.13,4.78,49.59,3,20.24,6.22,40.41,11.32,60.26a547.29,547.29,0,0,0,16.42,53.08,387,387,0,0,0,19,44c15.68,30.32,36.33,57.09,59.86,81.7a69.27,69.27,0,0,0,5.56,5.28c6.83,5.78,13.59,11.66,20.65,17.15s14.2,10.9,22.13,15.14c3.61,1.92,7.34,2.18,10.94,0q4.92-3,9.64-6.25c13.65-9.5,27-19.35,38.8-31.18,18.63-18.64,34.47-39.44,48.64-61.56a200.7,200.7,0,0,0,11.2-20.07c4.48-9.18,8.56-18.57,12.59-28a296.73,296.73,0,0,0,12.47-34.2,905.31,905.31,0,0,0,22-93.23,50,50,0,0,0,.87-7.6c.13-7.06,1.34-14,2.22-21,.73-5.7,1.46-11.43,1.71-17.16.47-10.86.64-21.73.84-32.59.38-21.1-.34-42.2-.82-63.29-.12-5.1-.72-10.2-1.18-15.29-.44-4.89-3.58-6.64-7.51-7.27-4.41-.7-8.83-1.44-13.28-1.88a214.79,214.79,0,0,1-26.43-4.6c-10.59-2.4-21.15-4.95-31.71-7.45a47.31,47.31,0,0,1-5.55-1.51c-13.18-4.85-26.67-8.86-39.67-14.24-12.42-5.12-24.67-10.55-36.27-17.36a7.22,7.22,0,0,0-7.26-.3c-4.56,2.31-8.91,5.06-13.55,7.17-17.43,7.94-34.84,16-53.08,22a407.1,407.1,0,0,1-44.36,11.95,242,242,0,0,1-34.12,4.94,113.19,113.19,0,0,0-11.35,1.74c-3.06.5-5.36,3.16-5.83,6.64a46.25,46.25,0,0,0-.72,5.7c-.18,15.34-1.57,30.65-.59,46C424.06,479,423.79,484.12,423.79,489.24ZM883.13,614.78h-.07c-.16-14.08-.43-28.16-.43-42.23,0-10.88.31-21.76.52-32.63.08-4.48.18-9,.4-13.43a15.55,15.55,0,0,1,1-3.64,3.08,3.08,0,0,1,2.73-2.17,2.64,2.64,0,0,1,3.2,1.19,6.83,6.83,0,0,1,1.4,3.51c.12,3.19.39,6.37.37,9.56-.09,14.08-.33,28.15-.35,42.23,0,4.46.45,8.94.86,13.39a42.77,42.77,0,0,0,4.8,16.42c2.67,5.06,4.41,10.62,6.43,16,2.26,6,4.32,12,6.57,18,4.48,12,9.65,23.69,13,36.08a14.37,14.37,0,0,0,1.89,3.32,6.66,6.66,0,0,0,6.7,2.55A114.85,114.85,0,0,0,949.94,676a5.86,5.86,0,0,0,2.87-4.73,19.2,19.2,0,0,0,.05-3.79,87.8,87.8,0,0,0-3.52-16.88c-9-30-18.33-59.93-30.18-89q-4.71-11.56-10.23-22.73c-3.11-6.31-6.54-12.48-9.38-18.9a61.76,61.76,0,0,0-11.72-17.42,144.06,144.06,0,0,0-20-17.8,4.18,4.18,0,0,0-1.75-.69,2.63,2.63,0,0,0-1.68.2,2.32,2.32,0,0,0-1,1.5c-.21,4.1,2.56,7.11,4,10.62,2.16,5.21,2.17,7.2-2.66,11.77a30.92,30.92,0,0,0-3.91,4.19,6.29,6.29,0,0,0-1,5.46c.54,1.83,1.33,3.58,2,5.38.43,1.2.88,2.4,1.19,3.63a7.3,7.3,0,0,1-.73,5.57q-14.79,24.69-29.8,49.24a42.36,42.36,0,0,1-3.68,4.41,8,8,0,0,1-5,2.53,7.66,7.66,0,0,1-1.9.23,2.7,2.7,0,0,0-3,1.75c-4.79,12.65-4.8,12.65-4.8,26q0,35.52,0,71c0,1.28.1,2.56.15,3.84.16,4.29,2.45,7.71,6.11,8.75,8,2.26,16,4.48,24.05,6.6a42.19,42.19,0,0,0,7.56,1.27c7.65.56,15.32,1,23,1.36a18.26,18.26,0,0,0,3.75-.63c1.13-.18,3.8-2.78,3.86-3.82.19-3.83.51-7.66.52-11.49Q883.19,654.14,883.13,614.78Zm-77.8,36.79c.18-11.24.35-21.46.51-31.69.07-4.47.15-8.94.15-13.42a12.54,12.54,0,0,0-2.24-7.17,32,32,0,0,1-5.06-10.24c-1.86-7.47-4.91-14.52-7.85-21.6a215.65,215.65,0,0,1-7.84-21.6c-3.8-12.85-7.84-25.64-11.9-38.42a1.83,1.83,0,0,0-2.78-1.05,2.46,2.46,0,0,0-1.08,1.52c-1.24,10.78-1.71,21.62-2.26,32.46a15.82,15.82,0,0,0,2.67,9c5.74,7.67,11.55,15.29,17.24,23A31.3,31.3,0,0,1,790,582.59a9.29,9.29,0,0,1-.2,3.69c-.28,1.75-1.33,2.22-2.87,1.36a9.91,9.91,0,0,1-3.12-2c-3.93-5-7.65-10.23-11.57-15.27a45.91,45.91,0,0,0-5.16-5.55c-1.21-1.1-2.35-.68-3.16.57-2.16,3.36-2.22,7.27-2.81,11-4.13,26.3-6.92,40-12.13,62-2.06,8.69-4.78,17.23-7,25.88a237.67,237.67,0,0,1-8.15,25.54c-1.36,3.58-2.64,7.2-3.89,10.82-1.58,4.59.3,7.58,4.76,8.19,12.16,1.66,24.24.4,36.32-.82a29.91,29.91,0,0,0,5.6-1.21c8.55-2.59,17.09-5.2,25.59-7.92a5.12,5.12,0,0,0,3.35-4.27,44.17,44.17,0,0,0,.57-7.61C805.93,674.84,805.6,662.7,805.33,651.57Zm154.55,54.54c-.07-1.27-.12-3.82-.4-6.35a26,26,0,0,0-4.91-12.28,3.13,3.13,0,0,0-3.35-1.21,69.23,69.23,0,0,0-15.88,6.43,8.25,8.25,0,0,0-2.85,2.46,20.91,20.91,0,0,0-4,14.41c.18,1.7,1.78,2.82,4,2.65l1.9-.15a5.19,5.19,0,0,1,4.5,2.82c1.75,3.58.78,7.56,1.92,11.23a5.84,5.84,0,0,0,5.83,3.85,10.55,10.55,0,0,0,1.88-.32,13.67,13.67,0,0,0,8.31-7.36C959.13,717.56,959.51,712.5,959.88,706.11ZM358.62,468.3c-1.62-.08-4.77-.37-7.92-.38s-6.27.21-9.4.42a2.85,2.85,0,0,0-2.6,2.39,3.21,3.21,0,0,0,.73,3.39,13.76,13.76,0,0,0,2.81,2.49c3.28,1.87,6.6,3.7,10,5.34,7.27,3.48,14.69,3.25,22,.27a7.93,7.93,0,0,0,5-7.37,21.47,21.47,0,0,0-.32-3.74c-.23-1.84-2.17-3.71-3.72-3.64C370.2,467.71,365.17,468,358.62,468.3Zm55.87-3.17c-.14-2.26-.34-5.36-.54-8.47-.1-1.58-2.63-2.83-4.31-2.05q-9.33,4.32-18.62,8.73c-.52.25-1.18.9-1.19,1.38a19.23,19.23,0,0,0,.47,3.44c6.4,4.15,14.56,7.73,20.36,8.85a2.74,2.74,0,0,0,1.81-.37,3.07,3.07,0,0,0,1-1.42C414.76,472.25,414.25,469.08,414.49,465.13Zm381,54c-.51-3.35,2.28-7.34,1.89-11.92-.2-2.35-4.7-5.87-7-4.94s-4.64,1.93-6.93,3c-2.14,1-3.1,2.72-2.54,4.47,2.53,7.81,5,15.63,7.67,23.39a2.33,2.33,0,0,0,3.2,1.24,2.37,2.37,0,0,0,1.28-1.06C795,529.22,794.68,524.69,795.51,519.18Zm25.36-16.67A2.15,2.15,0,0,0,818,504.2c-.32,1.2-1.07,2.43-1,3.6.6,8.2,1.36,16.4,2.07,24.59.14,1.6,1,2.34,2.41,2.25a2.77,2.77,0,0,0,2.77-2c1.37-6.83,2.9-13.62,4.84-20.32a8.53,8.53,0,0,0,.21-3.76,5.52,5.52,0,0,0-1.51-3.29A12.19,12.19,0,0,0,820.87,502.51Zm-21.46-36.36c-5.8-.79-8.9-1.26-12-1.59a2,2,0,0,0-1.63.84c-.52,1.1-.38,2.61.64,3.16a55.9,55.9,0,0,0,7,2.87c7.32,2.75,14.82,2.85,22.39,1.33a11.29,11.29,0,0,0,3.36-1.61A3.43,3.43,0,0,0,820.8,468c0-.29-.94-.75-1.46-.78C811.8,466.78,804.25,466.4,799.41,466.15Zm-16.13,28a15,15,0,0,0,3.11-2.06c1.73-1.86,3.26-3.92,4.83-5.93,1.92-2.46,1.34-5.06-1.33-6.26a78.07,78.07,0,0,0-14.28-5.24,3.21,3.21,0,0,0-1.76.28,2.38,2.38,0,0,0-1.52,3.13c1.47,5.59,3.32,11,7.5,15.23A3,3,0,0,0,783.28,494.1ZM419.11,570c-.38-4.81-.54-7.35-.79-9.88-.13-1.25-.53-2.47-.66-3.72-.18-1.81-1-2.28-2.66-1.59a3.88,3.88,0,0,0-2.61,2.41c-1.55,6.19-1.83,12.55-2.18,18.89a8.29,8.29,0,0,0,.31,1.88,4,4,0,0,0,2.15,2.91c3,1.61,6.82-.53,6.71-3.69S419.14,570.92,419.11,570Zm411.43-94a30.59,30.59,0,0,0-8.51,3.09c-2.62,1.35-3.61,4.25-1.84,6.2s3.21,3.93,4.88,5.85a3.12,3.12,0,0,0,4.8-.16,18.69,18.69,0,0,0,3.51-12.56C833.25,477,832.19,476.28,830.54,476Zm-59.09-15.89c-.16-1.33-.87-2.19-2.12-2.17a1.91,1.91,0,0,0-1.32,1.15c-.48,1.4,0,2.55,1.36,2.84S771.33,461.44,771.45,460.13Z"/><path d="M943.37,513c-7.37-1-12.46-1.51-17.51-2.33a21.18,21.18,0,0,1-8.88-3.37,2.92,2.92,0,0,1-1.34-3.26,14.45,14.45,0,0,1,2.16-5.24c6-7.43,12.27-14.72,18.51-22a8.82,8.82,0,0,1,3.15-2.07,3,3,0,0,1,3.47.68c.92.88,1.66,2.16,1.16,3.39-1.42,3.52-3.17,6.9-4.71,10.37a1.88,1.88,0,0,0,.14,1.61,2.39,2.39,0,0,0,1.63.93c5.16-.14,10.07-1.78,14.85-3.37,27.27-9.11,54.68-17.78,82-26.61a37.09,37.09,0,0,0,5.25-2.32,10.44,10.44,0,0,0,5.28-5.29c1.24-2.95,2.37-5.94,3.69-8.84a73.34,73.34,0,0,1,4.3-8.54,16.63,16.63,0,0,1,4.11-3.9,10.12,10.12,0,0,1,3.44-1.64c11.16-2.87,21.8-7.25,32.64-11a7.62,7.62,0,0,1,5.56.52,3,3,0,0,1,2,2.95c-.11,4.58-2.42,8.54-3.7,12.79a61.91,61.91,0,0,0-2.1,7.31,5.54,5.54,0,0,0,1.16,3.48,10.25,10.25,0,0,0,2.8,2.56c3.7,2.51,7.5,4.87,11.16,7.42a14.61,14.61,0,0,1,2.52,2.83c1.46,1.78.72,5.74-1.2,6.7-.57.29-1.07.73-1.66,1-10.7,4.2-21.37,8.52-32.55,11.36a16.43,16.43,0,0,1-9.39-.6c-4.92-1.6-9.27-4.28-13.65-6.91a17.75,17.75,0,0,0-11.09-2.18,48.13,48.13,0,0,0-13,3.06c-6.55,2.53-13.09,5.23-19.85,7.07-18.51,5.05-36.47,11.79-54.83,17.3-3.05.91-6,2.09-9,3.16s-3.21,2.6-.5,5.26c.9.88,1.74,1.82,2.59,2.76a2.24,2.24,0,0,1,0,3.44,6,6,0,0,1-3.17,1.71A36.07,36.07,0,0,1,943.37,513Zm156.52-52.79a13.48,13.48,0,0,0-1-1.44c-3.29-3.65-7.46-4.54-12-3.37-5.46,1.41-10.85,3.08-16.22,4.82a21.69,21.69,0,0,0-5,2.58,2,2,0,0,0,0,3.12c8.63,6.74,10.89,7.14,20.47,3.11,4-1.69,8.33-2.91,11.77-5.75C1098.82,462.59,1099.25,461.29,1099.89,460.25Zm-32.27-7.37c5.75-2.07,10.86-2.65,15.21-5.38a10.11,10.11,0,0,0,4-3.82c1.14-2.22,2.43-4.35,2.87-6.89.26-1.5,0-2.55-1.42-3.16-.51-.23-1.17-.56-1.62-.41-6.56,2.14-13.22,4-19.59,6.67-4.27,1.75-6.71,5.48-7.18,10.28-.16,1.66,1.8,3.89,3.27,3.58C1065,453.37,1066.85,453,1067.62,452.88Z"/><path d="M169.44,542.87c-20.4,0-40.79,0-61.19,0-3.81,0-7.62-.34-11.43-.62-.57-.05-1.07-.66-1.65-.9-1.33-.57-1.67-1.55-1.5-3.09a2.74,2.74,0,0,1,2.09-2.67,18.31,18.31,0,0,1,3.64-1c2.54-.22,5.09-.3,7.63-.3q62.15,0,124.29,0c3.79,0,7.64-.25,11.29,1.21a3.45,3.45,0,0,1,2.3,2.56c.38,1.58-1.31,4-2.88,4.2-1.26.15-2.5.51-3.76.55-3.18.12-6.37.14-9.56.14H169.44Z"/><path d="M188.41,577.07c-11.51,0-23,0-34.54,0-2.55,0-5.09-.39-7.63-.6-1.53-.13-3.33-2.63-3-4.2a3,3,0,0,1,2.44-2.29,10.77,10.77,0,0,1,1.86-.38c1.91-.14,3.82-.32,5.74-.32q36.47,0,72.93,0a26,26,0,0,1,5.72.48,4.43,4.43,0,0,1,2.91,2c.34.9-.44,2.3-.93,3.39a2.29,2.29,0,0,1-1.47,1.17,60.22,60.22,0,0,1-7.57.73c-12.16.07-24.31,0-36.47,0Z"/><path d="M929.91,525.4c5.72,2.49,11.63,4.64,16.73,8.35a7.18,7.18,0,0,1,3.14,4.39,3.09,3.09,0,0,1-.12,1.84,3.17,3.17,0,0,1-3.06,1.72,4.4,4.4,0,0,1-1.8-.21q-8.34-4.26-16.63-8.63c-.55-.28-1-.72-1.55-1a4.46,4.46,0,0,1-1.55-4.92C925.74,525.48,928.24,524.7,929.91,525.4Z"/><path d="M903.13,479.82c-.06-.62-.34-1.32-.13-1.83,2.09-5.14,3.37-10.66,7-15.09a4.44,4.44,0,0,1,5-.91,3.47,3.47,0,0,1,1.43,1.16,2.75,2.75,0,0,1,.47,1.74A29.59,29.59,0,0,1,909,481.25a3.47,3.47,0,0,1-4.94.07A12,12,0,0,1,903.13,479.82Z"/><path class="cls-2" d="M429.34,405a17.59,17.59,0,0,1-3.41,1.66c-10.07,2.38-10.64,4.51-10.88,14.75-.11,4.46-.41,8.93-.84,13.37a11,11,0,0,1-4.87,7.93c-10.59,7.38-22.15,12.77-34.88,15.06a77.36,77.36,0,0,1-30.47-.35c-16.4-3.62-31.55-10.18-44.59-21a89.61,89.61,0,0,1-22.68-28.13c-1.76-3.4-3.36-6.88-5-10.36a26.1,26.1,0,0,1-2.08-5.35c-2-9.35-4.71-18.57-4.54-28.29.09-5.76.21-11.48,1.65-17.11.63-2.47,1.09-5,1.54-7.5a75.74,75.74,0,0,1,19.52-38.77c2.17-2.34,4.49-4.54,6.72-6.83C305.06,283.23,318,276.28,332,271.67a87.51,87.51,0,0,1,49.12-1.42c24,6,42.82,19.27,56.65,39.71a57.32,57.32,0,0,1,3.88,6.58c10.27,20.64,14.42,42.16,9.18,65-.85,3.73-1.38,7.56-2.46,11.22a56.88,56.88,0,0,1-3.69,8.8,5.7,5.7,0,0,1-4.53,3.11c-3.79.4-7.6.54-11.38.77a32.35,32.35,0,0,0,3.66-4.43,6.38,6.38,0,0,0,.33-3.58,2.63,2.63,0,0,0-2.58-2.42,18.61,18.61,0,0,0-3.76-.39c-12.69,1.24-25.39,2.48-38.06,3.89a38.54,38.54,0,0,0-7.35,2,2.23,2.23,0,0,0-1.75,2.76,3,3,0,0,0,2.36,2.64,22.42,22.42,0,0,0,5.66.32C401.3,405,415.29,404,429.34,405Zm4.94-56a14.48,14.48,0,0,0-2.47.31,9.84,9.84,0,0,0-6.63,11.78,8.59,8.59,0,0,0,5.91,6.61c3.07,1.1,7.92-.58,9.9-3.4,2.9-4.13,1.89-10.46-2.29-13.27A25.89,25.89,0,0,0,434.28,349Zm-61.59,24.43c4-.11,7.83-4.44,8-9s-3.47-8.92-7.68-9.09a9.91,9.91,0,0,0-10.24,9C362.39,368.93,367.44,373.56,372.69,373.41Z"/><path class="cls-2" d="M815.33,266.87a117.8,117.8,0,0,1,11.74,1.23c15.86,3,30.57,8.87,43.54,18.75a68.56,68.56,0,0,1,14.6,15,108.54,108.54,0,0,1,20,55.11,55.52,55.52,0,0,1-.49,11.44,140.9,140.9,0,0,1-10.46,36.71,51.75,51.75,0,0,1-5.72,9.91,107.68,107.68,0,0,1-35.33,31.73,88.37,88.37,0,0,1-36.43,10.74,49.14,49.14,0,0,1-13.33-.65c-9.37-1.9-18.68-4.22-27.51-8a30,30,0,0,1-5-2.73,9.48,9.48,0,0,1-4.32-6.07c-.74-4.39-1.08-8.85-1.65-13.28-.48-3.79-.8-7.63-1.62-11.35a10.37,10.37,0,0,0-7.48-7.95,50,50,0,0,0-7.44-1.68c-5.05-.71-10.17-1-15.19-1.85a9,9,0,0,1-6.9-6c-2.65-7.2-4-14.72-5.45-22.27a72.52,72.52,0,0,1,0-28.5c1-5,2.1-10,3.46-14.89a82.49,82.49,0,0,1,23.66-38.71C766.39,276.2,788.36,267.26,815.33,266.87Zm29.2,154.67c5.56.3,9.37.57,13.17.66a11.87,11.87,0,0,0,3.64-.71c.57-.17,1.39-.68,1.46-1.13.17-1.14.44-2.71-.15-3.45a10,10,0,0,0-6.65-3.33,99.81,99.81,0,0,0-26.58-.09c-1.82.23-3.56,1.26-5.3,2-1.51.65-2.57,3.8-1.59,4.81a6.72,6.72,0,0,0,2.9,2.14,19.56,19.56,0,0,0,5.67.3C836.16,422.39,841.2,421.85,844.53,421.54Zm37.64-55.18c-6.4,0-10,2.86-10.39,6.72a18.86,18.86,0,0,0,.34,5.65c.64,3.3,5.63,6.16,9,5.26a9.42,9.42,0,0,0,7.38-7.83,8.51,8.51,0,0,0-.82-5.53C886,367.32,883.21,366.35,882.17,366.36Zm-52.78,6.69a14.89,14.89,0,0,0,0-1.89c-.6-4.8-4.69-8.41-9.09-8-5.14.46-7.57,5.51-7.07,9.64a10.43,10.43,0,0,0,2.15,5.22c1.84,2.37,5.61,3.27,8.66,2.15C827.38,378.91,829.42,376.24,829.39,373.05Zm-.46-25.31c2.06,0,4,.08,5.85-.05a2.08,2.08,0,0,0,1.43-1.1c.18-.42-.08-1.5-.37-1.59-5.52-1.83-11.08-1.45-16.64-.17.21.43.35,1.17.63,1.23C822.9,346.69,826,347.21,828.93,347.74Zm55.13-.15c-3,0-4.24-.06-5.5,0-1.45.09-2.46.7-2.58,1.74,0,.27,1,1,1.5,1,3.13,0,6.27-.12,9.4-.29.57,0,1.47-.41,1.58-.81.22-.74-.79-1.28-2.37-1.42Z"/><path class="cls-2" d="M398.05,623.2c-7,0-14.07.08-21.1,0a38.66,38.66,0,0,1-26.17-10.24c-2.84-2.58-5.66-5.2-8.22-8a359.46,359.46,0,0,1-30.76-39.16c-3.56-5.27-6.21-11.15-9.3-16.74-1-1.82-2.72-2.46-4.7-2.61-1.72-.13-3.9,2-3.8,3.47a24,24,0,0,0,3.33,10.88,344.38,344.38,0,0,0,36.07,49.52,136.27,136.27,0,0,0,12.39,12,38.8,38.8,0,0,0,9.69,6.1,30.76,30.76,0,0,0,12.89,3.25c5.75,0,11.5,0,17.26.12a20.2,20.2,0,0,1,5.65.81,5.57,5.57,0,0,1,2.77,2.42,6.8,6.8,0,0,1,.79,3.68c-1,12.74-2.09,25.47-3.28,38.19-.26,2.74-2.2,4.46-4.73,5.44-4.22,1.65-8.67,2.17-13.12,2.58-16.55,1.52-33,3.43-49.61,4.83-16,1.36-31.91,1.3-47.88,1.17-1.9,0-3.79-.51-5.69-.72-2.13-.24-5-3.18-4.94-5.13.28-8.3.15-16.64.94-24.89.85-8.91,1.34-17.84,2-26.76.68-9.57,1.07-19.15,2.89-28.61a60.61,60.61,0,0,0,.84-7.62c1.17-18.56,4.79-36.75,8.46-54.91a236.23,236.23,0,0,1,8.42-29.47,61.8,61.8,0,0,1,12.59-21.33,40.09,40.09,0,0,1,19.09-12.27,10.56,10.56,0,0,1,7.48.51c2.31,1.07,4.59,2.24,6.82,3.48,3.34,1.88,6.54,4,10,5.76,9.61,4.86,19.49,5.19,29.75,1.9,5.13-1.65,9.22-4.24,12.08-8.79a16.69,16.69,0,0,1,1.28-1.4,2.72,2.72,0,0,1,3.41-.88,112.78,112.78,0,0,1,17.15,8.45A11.84,11.84,0,0,1,415,499.2c0,10.23,0,20.46-.1,30.69a9.12,9.12,0,0,1-3.06,6.77,18,18,0,0,0-5.58,9.75c-1.68,7.5-2.75,15.09-3.88,22.68a53,53,0,0,1-2,7.36c-.81,2.7-3.49,4.37-5.82,3.72-11-3.1-13.85-3.54-22.12-14-5.16-6.49-9.77-13.44-14.3-20.4-6.27-9.63-12.19-19.5-18.37-29.2a39.47,39.47,0,0,0-4.79-5.93,9.67,9.67,0,0,0-3.28-1.85c-1.67-.71-4.88.23-5.05,1.48s-.54,2.72,0,3.62c10.07,17,20.48,33.87,31.5,50.32,3.92,5.84,8,11.6,13,16.55a15.5,15.5,0,0,0,6.4,4.06c6.14,1.78,12.28,3.65,18.67,4.25,7.67.72,15.1,2.65,22.63,4.07a5.66,5.66,0,0,1,4.23,3.53c.9,2.37,2.05,4.77,2.31,7.25.55,5,2.6,9.91,1.6,15.09a4,4,0,0,1-.81,1.69,3.68,3.68,0,0,1-1.51,1.15,11.75,11.75,0,0,1-3.6,1c-7.67.21-15.34.3-23,.42Z"/><path class="cls-2" d="M886.71,897.93c.35,9.84.66,18.14.91,26.44a37.25,37.25,0,0,1-.32,3.79c-.17,2.19-2.77,5.08-4.83,5.3a187.21,187.21,0,0,1-24.83,1.1c-3.34-.08-5.8-2.13-6.71-5.64-.48-1.85-1.1-3.68-1.41-5.56-4-23.94-7.59-47.94-11.95-71.81-1.38-7.54-2.42-15.13-3.67-22.69-2.91-17.64-5.78-35.29-8.83-52.9-1.53-8.81-3.42-17.55-5.18-26.31-.25-1.25-.73-2.44-1.07-3.67a9,9,0,0,0-6.87-5.9,73.62,73.62,0,0,0-15.28-.1,10.07,10.07,0,0,0-8.24,7c-1.69,6.82-3.46,13.62-4.8,20.51-6,30.71-12.58,61.29-18.93,91.92-2.72,13.12-5.64,26.21-8.46,39.32-1.6,7.48-4,14.78-4.72,22.47-.31,3.09-1.86,6.06-2.92,9.06a5,5,0,0,1-4.37,3.26c-8.27.81-16.55,1.11-24.8-.42a7.06,7.06,0,0,1-5.63-6.7c.28-12.78.62-25.53,2.27-38.24,1-7.59,1.39-15.26,2.06-22.89.57-6.36,1.11-12.72,1.74-19.08,2-20.33,3-40.75,5.27-61.07.62-5.7.62-11.48.84-17.22.57-15.33,2.75-30.52,4.06-45.78.08-1,1.46-2.29,2.51-2.66a16.19,16.19,0,0,1,5.63-.83,203.91,203.91,0,0,0,32.47-2,65,65,0,0,0,14.86-3.54c3-1.18,6.09-1.92,9.09-3a50.46,50.46,0,0,1,13.16-2.39,28.3,28.3,0,0,1,9.49.77c4.32,1.15,8.66,2.27,12.89,3.69,7.32,2.45,14.88,3.47,22.5,4.44,6.3.8,12.74.66,18.88,2.63a3.36,3.36,0,0,1,2.56,2.59,20.61,20.61,0,0,1,.86,3.68c.41,16,1.84,31.86,3.25,47.77,2,22.26,3,44.6,4.55,66.9.74,10.83,1.66,21.65,2.41,32.48C885.77,881.62,886.26,890.55,886.71,897.93Z"/><path class="cls-2" d="M423.79,489.24c0-5.12.27-10.25-.05-15.34-1-15.36.41-30.67.59-46a46.25,46.25,0,0,1,.72-5.7c.47-3.48,2.77-6.14,5.83-6.64a113.19,113.19,0,0,1,11.35-1.74,242,242,0,0,0,34.12-4.94,407.1,407.1,0,0,0,44.36-11.95c18.24-6,35.65-14,53.08-22,4.64-2.11,9-4.86,13.55-7.17a7.22,7.22,0,0,1,7.26.3c11.6,6.81,23.85,12.24,36.27,17.36,13,5.38,26.49,9.39,39.67,14.24a47.31,47.31,0,0,0,5.55,1.51c10.56,2.5,21.12,5.05,31.71,7.45a214.79,214.79,0,0,0,26.43,4.6c4.45.44,8.87,1.18,13.28,1.88,3.93.63,7.07,2.38,7.51,7.27.46,5.09,1.06,10.19,1.18,15.29.48,21.09,1.2,42.19.82,63.29-.2,10.86-.37,21.73-.84,32.59-.25,5.73-1,11.46-1.71,17.16-.88,7-2.09,13.91-2.22,21a50,50,0,0,1-.87,7.6,905.31,905.31,0,0,1-22,93.23,296.73,296.73,0,0,1-12.47,34.2c-4,9.39-8.11,18.78-12.59,28a200.7,200.7,0,0,1-11.2,20.07c-14.17,22.12-30,42.92-48.64,61.56-11.82,11.83-25.15,21.68-38.8,31.18q-4.71,3.28-9.64,6.25c-3.6,2.17-7.33,1.91-10.94,0-7.93-4.24-15.08-9.65-22.13-15.14s-13.82-11.37-20.65-17.15a69.27,69.27,0,0,1-5.56-5.28c-23.53-24.61-44.18-51.38-59.86-81.7a387,387,0,0,1-19-44,547.29,547.29,0,0,1-16.42-53.08c-5.1-19.85-8.36-40-11.32-60.26-2.42-16.46-3.62-33-4.78-49.59C424.44,514.77,424,502,423.79,489.24Zm16.84,4.59a504,504,0,0,0,8.72,100.4c2.16,11.28,4.38,22.56,7,33.77,4.33,18.71,10.24,36.93,16.25,55.13,1.4,4.24,3.18,8.36,4.92,12.48,2.22,5.3,4.59,10.54,6.88,15.81a199.54,199.54,0,0,0,11.14,22.28c3.58,6,7.1,12.13,10.71,18.17,20,33.49,46.82,60.49,79.1,82.21a9.13,9.13,0,0,0,1.71.86,10.24,10.24,0,0,0,7.45.18,25.69,25.69,0,0,0,6.59-3.83,343.06,343.06,0,0,0,37.73-32.51A255.77,255.77,0,0,0,669,761.67c6.83-10.08,12.86-20.6,18.73-31.22,8-14.57,14.06-30.08,20.32-45.47a33,33,0,0,0,1.27-3.62c4-14.12,9.36-27.86,12.11-42.35a14.75,14.75,0,0,1,.43-1.86c4.44-13.39,7.26-27.16,9.56-41,1.89-11.34,4.14-22.66,5.26-34.09,1.73-17.81,2.87-35.68,3.85-53.54,1.31-23.64.47-47.29-.47-70.93a6.07,6.07,0,0,0-4.38-5.59,137.63,137.63,0,0,0-18.76-3.8,204.19,204.19,0,0,1-35.6-7.42c-11.61-3.48-23.37-6.53-34.81-10.51a335.77,335.77,0,0,1-42.31-17.92c-4-2-8.11-3.77-12.21-5.53a6.52,6.52,0,0,0-5.58.19,403,403,0,0,1-39.79,18.89c-5.93,2.38-11.82,4.78-17.94,6.67q-22,6.8-44.35,12.11a161.31,161.31,0,0,1-22.61,4,94,94,0,0,0-17,2.76c-1.23.34-3.36,2.78-3.44,4.21-.23,3.82-.59,7.65-.61,11.48C440.59,461.82,440.63,476.53,440.63,493.83Z"/><path class="cls-2" d="M883.13,614.78q0,39.36,0,78.72c0,3.83-.33,7.66-.52,11.49-.06,1-2.73,3.64-3.86,3.82a18.26,18.26,0,0,1-3.75.63c-7.66-.37-15.33-.8-23-1.36a42.19,42.19,0,0,1-7.56-1.27c-8-2.12-16.05-4.34-24.05-6.6-3.66-1-5.95-4.46-6.11-8.75,0-1.28-.15-2.56-.15-3.84q0-35.5,0-71c0-13.35,0-13.35,4.8-26a2.7,2.7,0,0,1,3-1.75,7.66,7.66,0,0,0,1.9-.23,8,8,0,0,0,5-2.53,42.36,42.36,0,0,0,3.68-4.41q15-24.57,29.8-49.24a7.3,7.3,0,0,0,.73-5.57c-.31-1.23-.76-2.43-1.19-3.63-.65-1.8-1.44-3.55-2-5.38a6.29,6.29,0,0,1,1-5.46,30.92,30.92,0,0,1,3.91-4.19c4.83-4.57,4.82-6.56,2.66-11.77-1.44-3.51-4.21-6.52-4-10.62a2.32,2.32,0,0,1,1-1.5,2.63,2.63,0,0,1,1.68-.2,4.18,4.18,0,0,1,1.75.69,144.06,144.06,0,0,1,20,17.8A61.76,61.76,0,0,1,899.55,520c2.84,6.42,6.27,12.59,9.38,18.9q5.51,11.19,10.23,22.73c11.85,29.06,21.2,59,30.18,89a87.8,87.8,0,0,1,3.52,16.88,19.2,19.2,0,0,1-.05,3.79,5.86,5.86,0,0,1-2.87,4.73A114.85,114.85,0,0,1,932.07,683a6.66,6.66,0,0,1-6.7-2.55,14.37,14.37,0,0,1-1.89-3.32C920.17,664.7,915,653,910.52,641c-2.25-6-4.31-12-6.57-18-2-5.39-3.76-11-6.43-16a42.77,42.77,0,0,1-4.8-16.42c-.41-4.45-.86-8.93-.86-13.39,0-14.08.26-28.15.35-42.23,0-3.19-.25-6.37-.37-9.56a6.83,6.83,0,0,0-1.4-3.51,2.64,2.64,0,0,0-3.2-1.19,3.08,3.08,0,0,0-2.73,2.17,15.55,15.55,0,0,0-1,3.64c-.22,4.47-.32,9-.4,13.43-.21,10.87-.53,21.75-.52,32.63,0,14.07.27,28.15.43,42.23Z"/><path class="cls-2" d="M805.33,651.57c.27,11.13.6,23.27.81,35.41a44.17,44.17,0,0,1-.57,7.61,5.12,5.12,0,0,1-3.35,4.27c-8.5,2.72-17,5.33-25.59,7.92A29.91,29.91,0,0,1,771,708c-12.08,1.22-24.16,2.48-36.32.82-4.46-.61-6.34-3.6-4.76-8.19,1.25-3.62,2.53-7.24,3.89-10.82A237.67,237.67,0,0,0,742,664.26c2.21-8.65,4.93-17.19,7-25.88,5.21-22,8-35.71,12.13-62,.59-3.74.65-7.65,2.81-11,.81-1.25,2-1.67,3.16-.57a45.91,45.91,0,0,1,5.16,5.55c3.92,5,7.64,10.24,11.57,15.27a9.91,9.91,0,0,0,3.12,2c1.54.86,2.59.39,2.87-1.36a9.29,9.29,0,0,0,.2-3.69,31.3,31.3,0,0,0-5.11-10.23c-5.69-7.7-11.5-15.32-17.24-23a15.82,15.82,0,0,1-2.67-9c.55-10.84,1-21.68,2.26-32.46a2.46,2.46,0,0,1,1.08-1.52,1.83,1.83,0,0,1,2.78,1.05c4.06,12.78,8.1,25.57,11.9,38.42a215.65,215.65,0,0,0,7.84,21.6c2.94,7.08,6,14.13,7.85,21.6a32,32,0,0,0,5.06,10.24,12.54,12.54,0,0,1,2.24,7.17c0,4.48-.08,8.95-.15,13.42C805.68,630.11,805.51,640.33,805.33,651.57Z"/><path class="cls-2" d="M826.46,575.47a24.94,24.94,0,0,1-.36-13.22c2.06-8.68,4.14-17.35,6.4-26,4.06-15.42,7.59-30.93,8.8-46.88a19.87,19.87,0,0,1,2.67-9.09,4.73,4.73,0,0,1,2.89-1.88,3.14,3.14,0,0,1,3.18,1.69,69.71,69.71,0,0,1,6.62,17.79,7.52,7.52,0,0,1-1.78,7.07c-1.71,1.87-3.69,3.5-5.43,5.34a6.35,6.35,0,0,0-1.07,7.07c1.24,2.22,2.61,4.37,3.92,6.55,1.08,1.81.71,3.72.1,5.5a31.14,31.14,0,0,1-2.37,5.19c-6.49,11.71-13.41,23.16-20.62,34.43-1.36,2.14-2.53,4.39-3.8,6.59Z"/><path class="cls-2" d="M959.88,706.11c-.37,6.39-.75,11.45-3,16.18a13.67,13.67,0,0,1-8.31,7.36,10.55,10.55,0,0,1-1.88.32,5.84,5.84,0,0,1-5.83-3.85c-1.14-3.67-.17-7.65-1.92-11.23a5.19,5.19,0,0,0-4.5-2.82l-1.9.15c-2.2.17-3.8-1-4-2.65a20.91,20.91,0,0,1,4-14.41,8.25,8.25,0,0,1,2.85-2.46,69.23,69.23,0,0,1,15.88-6.43,3.13,3.13,0,0,1,3.35,1.21,26,26,0,0,1,4.91,12.28C959.76,702.29,959.81,704.84,959.88,706.11Z"/><path class="cls-2" d="M358.62,468.3c6.55-.33,11.58-.59,16.61-.83,1.55-.07,3.49,1.8,3.72,3.64a21.47,21.47,0,0,1,.32,3.74,7.93,7.93,0,0,1-5,7.37c-7.34,3-14.76,3.21-22-.27-3.41-1.64-6.73-3.47-10-5.34a13.76,13.76,0,0,1-2.81-2.49,3.21,3.21,0,0,1-.73-3.39,2.85,2.85,0,0,1,2.6-2.39c3.13-.21,6.27-.43,9.4-.42S357,468.22,358.62,468.3Z"/><path class="cls-2" d="M414.49,465.13c-.24,3.95.27,7.12-1,10.09a3.07,3.07,0,0,1-1,1.42,2.74,2.74,0,0,1-1.81.37c-5.8-1.12-14-4.7-20.36-8.85a19.23,19.23,0,0,1-.47-3.44c0-.48.67-1.13,1.19-1.38q9.28-4.43,18.62-8.73c1.68-.78,4.21.47,4.31,2.05C414.15,459.77,414.35,462.87,414.49,465.13Z"/><path class="cls-2" d="M795.51,519.18c-.83,5.51-.55,10-2.47,14.16a2.37,2.37,0,0,1-1.28,1.06,2.33,2.33,0,0,1-3.2-1.24c-2.65-7.76-5.14-15.58-7.67-23.39-.56-1.75.4-3.48,2.54-4.47,2.29-1.05,4.6-2.05,6.93-3s6.84,2.59,7,4.94C797.79,511.84,795,515.83,795.51,519.18Z"/><path class="cls-2" d="M820.87,502.51a12.19,12.19,0,0,1,6.88,2.76,5.52,5.52,0,0,1,1.51,3.29,8.53,8.53,0,0,1-.21,3.76c-1.94,6.7-3.47,13.49-4.84,20.32a2.77,2.77,0,0,1-2.77,2c-1.44.09-2.27-.65-2.41-2.25-.71-8.19-1.47-16.39-2.07-24.59-.08-1.17.67-2.4,1-3.6A2.15,2.15,0,0,1,820.87,502.51Z"/><path class="cls-2" d="M799.41,466.15c4.84.25,12.39.63,19.93,1.06.52,0,1.45.49,1.46.78a3.43,3.43,0,0,1-1.68,3.16,11.29,11.29,0,0,1-3.36,1.61c-7.57,1.52-15.07,1.42-22.39-1.33a55.9,55.9,0,0,1-7-2.87c-1-.55-1.16-2.06-.64-3.16a2,2,0,0,1,1.63-.84C790.51,464.89,793.61,465.36,799.41,466.15Z"/><path class="cls-2" d="M783.28,494.1a3,3,0,0,1-3.45-.85c-4.18-4.26-6-9.64-7.5-15.23a2.38,2.38,0,0,1,1.52-3.13,3.21,3.21,0,0,1,1.76-.28,78.07,78.07,0,0,1,14.28,5.24c2.67,1.2,3.25,3.8,1.33,6.26-1.57,2-3.1,4.07-4.83,5.93A15,15,0,0,1,783.28,494.1Z"/><path class="cls-2" d="M419.11,570c0,.88.15,4,.27,7.21s-3.73,5.3-6.71,3.69a4,4,0,0,1-2.15-2.91,8.29,8.29,0,0,1-.31-1.88c.35-6.34.63-12.7,2.18-18.89a3.88,3.88,0,0,1,2.61-2.41c1.68-.69,2.48-.22,2.66,1.59.13,1.25.53,2.47.66,3.72C418.57,562.69,418.73,565.23,419.11,570Z"/><path class="cls-2" d="M830.54,476c1.65.26,2.71,1,2.84,2.42A18.69,18.69,0,0,1,829.87,491a3.12,3.12,0,0,1-4.8.16c-1.67-1.92-3.18-4-4.88-5.85s-.78-4.85,1.84-6.2A30.59,30.59,0,0,1,830.54,476Z"/><path class="cls-2" d="M771.45,460.13c-.12,1.31-.85,2.09-2.08,1.82s-1.84-1.44-1.36-2.84a1.91,1.91,0,0,1,1.32-1.15C770.58,457.94,771.29,458.8,771.45,460.13Z"/><path class="cls-2" d="M825.61,575.65q1.6-1.81-.32-1c.4.25.81.49,1.19.78A7.93,7.93,0,0,1,825.61,575.65Z"/><path class="cls-2" d="M1099.89,460.25c-.64,1-1.07,2.34-2,3.07-3.44,2.84-7.75,4.06-11.77,5.75-9.58,4-11.84,3.63-20.47-3.11a2,2,0,0,1,0-3.12,21.69,21.69,0,0,1,5-2.58c5.37-1.74,10.76-3.41,16.22-4.82,4.54-1.17,8.71-.28,12,3.37A13.48,13.48,0,0,1,1099.89,460.25Z"/><path class="cls-2" d="M1067.62,452.88c-.77.15-2.61.49-4.44.87-1.47.31-3.43-1.92-3.27-3.58.47-4.8,2.91-8.53,7.18-10.28,6.37-2.62,13-4.53,19.59-6.67.45-.15,1.11.18,1.62.41,1.4.61,1.68,1.66,1.42,3.16-.44,2.54-1.73,4.67-2.87,6.89a10.11,10.11,0,0,1-4,3.82C1078.48,450.23,1073.37,450.81,1067.62,452.88Z"/><path d="M429.34,405c-14-1-28,0-42,1.25a22.42,22.42,0,0,1-5.66-.32,3,3,0,0,1-2.36-2.64,2.23,2.23,0,0,1,1.75-2.76,38.54,38.54,0,0,1,7.35-2c12.67-1.41,25.37-2.65,38.06-3.89a18.61,18.61,0,0,1,3.76.39,2.63,2.63,0,0,1,2.58,2.42,6.38,6.38,0,0,1-.33,3.58,32.35,32.35,0,0,1-3.66,4.43S429.34,405,429.34,405Z"/><path d="M434.28,349a25.89,25.89,0,0,1,4.42,2c4.18,2.81,5.19,9.14,2.29,13.27-2,2.82-6.83,4.5-9.9,3.4a8.59,8.59,0,0,1-5.91-6.61,9.84,9.84,0,0,1,6.63-11.78A14.48,14.48,0,0,1,434.28,349Z"/><path d="M372.69,373.41c-5.25.15-10.3-4.48-9.93-9.11a9.91,9.91,0,0,1,10.24-9c4.21.17,7.84,4.46,7.68,9.09S376.67,373.3,372.69,373.41Z"/><path d="M844.53,421.54c-3.33.31-8.37.85-13.43,1.22a19.56,19.56,0,0,1-5.67-.3,6.72,6.72,0,0,1-2.9-2.14c-1-1,.08-4.16,1.59-4.81,1.74-.76,3.48-1.79,5.3-2a99.81,99.81,0,0,1,26.58.09,10,10,0,0,1,6.65,3.33c.59.74.32,2.31.15,3.45-.07.45-.89,1-1.46,1.13a11.87,11.87,0,0,1-3.64.71C853.9,422.11,850.09,421.84,844.53,421.54Z"/><path d="M882.17,366.36c1,0,3.82,1,5.48,4.27a8.51,8.51,0,0,1,.82,5.53,9.42,9.42,0,0,1-7.38,7.83c-3.34.9-8.33-2-9-5.26a18.86,18.86,0,0,1-.34-5.65C872.21,369.22,875.77,366.4,882.17,366.36Z"/><path d="M829.39,373.05c0,3.19-2,5.86-5.36,7.1-3,1.12-6.82.22-8.66-2.15a10.43,10.43,0,0,1-2.15-5.22c-.5-4.13,1.93-9.18,7.07-9.64,4.4-.39,8.49,3.22,9.09,8A14.89,14.89,0,0,1,829.39,373.05Z"/><path d="M828.93,347.74c-2.94-.53-6-1.05-9.1-1.68-.28-.06-.42-.8-.63-1.23,5.56-1.28,11.12-1.66,16.64.17.29.09.55,1.17.37,1.59a2.08,2.08,0,0,1-1.43,1.1C832.89,347.82,831,347.74,828.93,347.74Z"/><path d="M884.06,347.59l2,.18c1.58.14,2.59.68,2.37,1.42-.11.4-1,.78-1.58.81-3.13.17-6.27.28-9.4.29-.53,0-1.53-.68-1.5-1,.12-1,1.13-1.65,2.58-1.74C879.82,347.53,881.07,347.59,884.06,347.59Z"/><path d="M440.63,493.83c0-17.3,0-32,0-46.71,0-3.83.38-7.66.61-11.48.08-1.43,2.21-3.87,3.44-4.21a94,94,0,0,1,17-2.76,161.31,161.31,0,0,0,22.61-4q22.38-5.34,44.35-12.11c6.12-1.89,12-4.29,17.94-6.67A403,403,0,0,0,586.38,387a6.52,6.52,0,0,1,5.58-.19c4.1,1.76,8.23,3.51,12.21,5.53a335.77,335.77,0,0,0,42.31,17.92c11.44,4,23.2,7,34.81,10.51a204.19,204.19,0,0,0,35.6,7.42,137.63,137.63,0,0,1,18.76,3.8,6.07,6.07,0,0,1,4.38,5.59c.94,23.64,1.78,47.29.47,70.93-1,17.86-2.12,35.73-3.85,53.54-1.12,11.43-3.37,22.75-5.26,34.09-2.3,13.88-5.12,27.65-9.56,41a14.75,14.75,0,0,0-.43,1.86c-2.75,14.49-8.08,28.23-12.11,42.35A33,33,0,0,1,708,685c-6.26,15.39-12.28,30.9-20.32,45.47-5.87,10.62-11.9,21.14-18.73,31.22a255.77,255.77,0,0,1-30.17,37.11,343.06,343.06,0,0,1-37.73,32.51,25.69,25.69,0,0,1-6.59,3.83,10.24,10.24,0,0,1-7.45-.18,9.13,9.13,0,0,1-1.71-.86c-32.28-21.72-59.07-48.72-79.1-82.21-3.61-6-7.13-12.12-10.71-18.17a199.54,199.54,0,0,1-11.14-22.28c-2.29-5.27-4.66-10.51-6.88-15.81-1.74-4.12-3.52-8.24-4.92-12.48-6-18.2-11.92-36.42-16.25-55.13-2.59-11.21-4.81-22.49-7-33.77A504,504,0,0,1,440.63,493.83Zm292.73-8c-.34-13.8-.63-26.57-1-39.34-.13-4.72-2.2-7.31-6.38-8.11-4.39-.82-8.78-1.78-13.2-2.34A286.17,286.17,0,0,1,668,426.09c-24.54-7.25-48.51-16-71.35-27.56a13.62,13.62,0,0,0-12.83-.06c-2.87,1.38-5.78,2.71-8.63,4.14a335,335,0,0,1-86.68,29.63c-8.79,1.7-17.53,3.48-26.45,4.24a38.65,38.65,0,0,0-5.64,1.06c-1.23.31-2.38.88-3.58,1.31a5.07,5.07,0,0,0-3.4,4.23c-1.45,12.72-.91,25.52-1.2,38.28-.69,30.1,1.75,60,5.67,89.82,2.25,17.09,5.91,34,9.51,50.83,5.07,23.8,13.11,46.67,21.47,69.45,6.76,14.45,12.64,29.29,20.6,43.2,9.56,16.69,20.19,32.63,32.69,47.19,14.2,16.53,30.61,30.77,48.2,43.63a9.07,9.07,0,0,0,1.72.82,6,6,0,0,0,5.51-.28c6.83-3.63,12.31-9.07,18.27-13.87,24.67-19.88,44.28-44,60.32-71.24,10.08-17.1,18.33-35.09,25.71-53.45a342.18,342.18,0,0,0,15.51-47.29c5.38-22.34,10.76-44.69,13.91-67.52,1.13-8.23,2.48-16.41,2.74-24.73.13-3.83.43-7.65.86-11.46C732.83,519.29,732.8,502,733.36,485.82Z"/><path class="cls-2" d="M733.36,485.82c-.56,16.21-.53,33.47-2.45,50.64-.43,3.81-.73,7.63-.86,11.46-.26,8.32-1.61,16.5-2.74,24.73-3.15,22.83-8.53,45.18-13.91,67.52a342.18,342.18,0,0,1-15.51,47.29c-7.38,18.36-15.63,36.35-25.71,53.45-16,27.21-35.65,51.36-60.32,71.24-6,4.8-11.44,10.24-18.27,13.87a6,6,0,0,1-5.51.28,9.07,9.07,0,0,1-1.72-.82c-17.59-12.86-34-27.1-48.2-43.63-12.5-14.56-23.13-30.5-32.69-47.19-8-13.91-13.84-28.75-20.6-43.2-8.36-22.78-16.4-45.65-21.47-69.45-3.6-16.87-7.26-33.74-9.51-50.83-3.92-29.79-6.36-59.72-5.67-89.82.29-12.76-.25-25.56,1.2-38.28a5.07,5.07,0,0,1,3.4-4.23c1.2-.43,2.35-1,3.58-1.31a38.65,38.65,0,0,1,5.64-1.06c8.92-.76,17.66-2.54,26.45-4.24a335,335,0,0,0,86.68-29.63c2.85-1.43,5.76-2.76,8.63-4.14a13.62,13.62,0,0,1,12.83.06c22.84,11.59,46.81,20.31,71.35,27.56A286.17,286.17,0,0,0,712.81,436c4.42.56,8.81,1.52,13.2,2.34,4.18.8,6.25,3.39,6.38,8.11C732.73,459.25,733,472,733.36,485.82ZM573,622.53h-.21c.22,6.39.32,12.79.7,19.18.16,2.61,1.72,4.76,3.56,6.6a20.07,20.07,0,0,0,8.17,4.81,12.14,12.14,0,0,0,7.54,0,37.09,37.09,0,0,0,5.23-2.36c3.72-1.89,5.37-5.33,6.57-9a13.34,13.34,0,0,0,.63-3.76q.3-17.27.46-34.54a12.27,12.27,0,0,0-.35-1.85c-.15-1.11-2.83-3.25-4.3-3.44s-4.3,1.41-4.57,2.74a31.11,31.11,0,0,0-1.09,5.55c-.13,8.32,0,16.64-.14,25,0,2.55-.47,5.08-.75,7.62-.21,1.9-3.56,4.15-5.86,3.94-1.73-.16-4.12-1.82-4.39-3.18a32.22,32.22,0,0,1-.94-5.61c-.1-7.67,0-15.35,0-23,0-3.19-.32-6.38-.54-9.57-.13-2-3.1-3.83-5.76-3.64-1.39.11-3.86,2.32-4,3.58a50.36,50.36,0,0,0-.49,5.72C572.56,612.3,572.81,617.41,573,622.53Zm14.14-71.14c-.17-3.4-.34-6.58-.5-9.76-.23-4.58-2-8.68-4.22-12.56a15.33,15.33,0,0,0-7-6.3c-4.31-2-8.57-1.8-13-.22a15.38,15.38,0,0,0-8.6,7.14,26.69,26.69,0,0,0-3.81,12.68c0,5.09-.1,10.2.19,15.28a26.87,26.87,0,0,0,4.35,12.52c5.42,8.77,18.13,9,23.76,5.15a14.51,14.51,0,0,0,5.08-5.58,27,27,0,0,0,2.93-9C586.72,557.54,586.91,554.36,587.14,551.39Zm-57.62,74.53c.21,3.16.41,7,.74,10.78a18.32,18.32,0,0,0,2.5,7.14c3,5.5,7.82,8.25,13.7,9.3a12.18,12.18,0,0,0,5.63-.32,27,27,0,0,0,6.85-3.23,13.88,13.88,0,0,0,5.68-7.45,51.18,51.18,0,0,0-1.09-35.55,12.71,12.71,0,0,0-2-3.19,17,17,0,0,0-27.68,1.66A21.85,21.85,0,0,0,530,615.71C529.78,618.89,529.68,622.07,529.52,625.92Zm76.32-48.81c3-.18,5.52-.23,8-.52a13.13,13.13,0,0,0,8.23-4.27,13.59,13.59,0,0,0,3.54-8.59,22.72,22.72,0,0,0-2-11.08,9.84,9.84,0,0,1-.22-7.37,22,22,0,0,0,1.42-9.31c-.75-6.8-3.84-12.26-11.27-13.1-5-.58-10.06-1-15.09.12-1.14.25-3.93,2.54-4.08,3.55a25.78,25.78,0,0,0-.61,3.74q0,20.87.09,41.72a3.24,3.24,0,0,0,.39,1.83c.75,1,1.6,2.35,2.59,2.52C600,576.87,603.14,576.91,605.84,577.11ZM487.84,551c.47-3.81.76-7.63,1.47-11.37.35-1.8,1.46-3.47,2.3-5.16.68-1.37,3.81-2.38,5-1.64,3.21,2,6.38,4.12,9.58,6.16,1.14.72,4.38-1,4.59-2.35,1-6.46-1.85-11.58-7.6-13.68a29.64,29.64,0,0,0-5.51-1.52c-6.51-1-14.76,3.64-17.14,9.64A41.79,41.79,0,0,0,477.33,544a64.47,64.47,0,0,0,1.46,19c.29,1.24.64,2.47,1,3.67,1.59,4.55,6.7,11,14.21,11a39.78,39.78,0,0,0,9.49-.77c5.11-1.23,9.44-5.81,9.64-10.6.15-3.82,0-7.64,0-11.46,0-2.11-2.65-5.25-4.59-5.41-3.79-.33-7.61-.71-11.1,1.4a2.47,2.47,0,0,0-1.17,3.32,12.88,12.88,0,0,0,1.74,3.23c.79,1,2,1.58,2.86,2.5a4.6,4.6,0,0,1,.34,5.29c-1.89,2.6-4.27,3.48-6.46,2.39a17.63,17.63,0,0,1-1.67-.87,9.88,9.88,0,0,1-4.13-6.22A81.91,81.91,0,0,1,487.84,551ZM650.31,626.1h.07c0,6.38,0,12.76,0,19.13a9.64,9.64,0,0,0,1,3.6,5.42,5.42,0,0,0,4.41,3.07c1.56.28,4-1.52,4.23-3.06.25-1.89.55-3.77.71-5.67.27-3.16.34-6.35.73-9.5.25-2,1.89-3.17,3.66-4a7.5,7.5,0,0,1,7.27.62,4.77,4.77,0,0,1,2.22,2.91c.51,3.77.57,7.6.93,11.4a20,20,0,0,0,1.07,5.57,4.65,4.65,0,0,0,2.79,2.14,3.3,3.3,0,0,0,3.32-1.2,8,8,0,0,0,1.89-5.3q.93-20.07,0-40.16a25.83,25.83,0,0,0-.76-3.74c-.26-1.44-3.1-3.26-4.46-2.61a6.51,6.51,0,0,0-2.76,2.28,9.2,9.2,0,0,0-.93,3.65c-.37,3.16-.51,6.34-.93,9.49a5.36,5.36,0,0,1-3.5,4.12,8.31,8.31,0,0,1-7.36-.25,4.54,4.54,0,0,1-2.37-2.74c-.73-5-1.12-10.1-1.67-15.16-.24-2.22-3.95-3.4-6.09-2.05a5.45,5.45,0,0,0-2.48,2.79,12.32,12.32,0,0,0-1,3.62C650.26,612.07,650.31,619.09,650.31,626.1ZM510.39,597.39c-.94,0-2.21-.07-3.48,0a15.61,15.61,0,0,0-14.5,15,13.4,13.4,0,0,0,5.16,11.72c2.48,2,5.21,3.63,7.78,5.49a43.79,43.79,0,0,1,4.47,3.55,18.1,18.1,0,0,1,2.21,3.06c1.47,2.21.8,5.53-1.33,6.6-1.54.79-4.39.66-5.34-.43-1.24-1.41-2.32-3-3.47-4.46-1.31-1.69-3.17-1.86-5.09-1.83a4.72,4.72,0,0,0-3.94,6.85,20.93,20.93,0,0,0,7.58,8.31,16.22,16.22,0,0,0,19.45-1.48,8.88,8.88,0,0,0,2.24-3,20.68,20.68,0,0,0,1.7-5.42c1-7.49-1-13.85-7.67-18.12-2.68-1.7-5.42-3.31-8-5.1a18.87,18.87,0,0,1-2.67-2.69c-1.75-1.8-1.56-5.32.36-6.73a4.38,4.38,0,0,1,5.21,0c1.9,1.65,3.73,3.4,5.67,5a3.72,3.72,0,0,0,1.85.38c3.32.31,5.68-3.11,4.6-6.3C521.09,601.75,517,598.38,510.39,597.39Zm139.4-31c3.25-.15,5.29.78,6.67,2.95s2.67,4.33,4.07,6.45c.64,1,4,1.47,5.38.9a4.94,4.94,0,0,0,2.45-4.66,52.63,52.63,0,0,0-.93-5.64q-4.38-15.65-9-31.25c-.89-3-2.11-6-3.22-9-.91-2.41-6.09-3.66-8.33-1.93a10.66,10.66,0,0,0-2.48,2.79c-2.05,3.31-2.72,7.12-3.78,10.8-3.35,11.61-7.23,23.08-9.81,34.92a3,3,0,0,0,1.5,3.29c2.81,1.85,6.83,1.35,8.43-1.15,1-1.6,1.76-3.4,2.78-5A7,7,0,0,1,649.79,566.35Zm-21,31.27c0,.08,0,.16,0,.23-3.19,0-6.38-.07-9.57,0a25.47,25.47,0,0,0-3.7.73c-1.26.24-3.63,3-3.21,4.19a7.5,7.5,0,0,0,2.11,3,11.85,11.85,0,0,0,3.39,1.7c2.61,1,4.2,2.84,4.29,5.63.2,5.73.2,11.48.32,17.22s.17,11.48.49,17.21c.11,2,1.59,3.28,3.41,4.15s6-.64,6.33-2.56a36,36,0,0,0,.89-5.61c.17-7,.15-14,.27-21.06a86.88,86.88,0,0,1,.48-9.55,4.82,4.82,0,0,1,3.16-4.31,41.42,41.42,0,0,0,5.17-2.35c1.75-.91,2.23-2.43,1.82-4.85-.27-1.57-2.38-3.22-4.18-3.3ZM519,549h.11c0,3.82-.08,7.64,0,11.46s.36,7.61.6,11.42c.12,1.94,3.15,4.66,5.21,5a71.15,71.15,0,0,0,17.13.16,6.33,6.33,0,0,0,1.73-.63,3.1,3.1,0,0,0,1.95-3,3.93,3.93,0,0,0-2.92-4.22c-3.08-.73-6.18-1.35-9.26-2.09-1.42-.34-3.24-2.78-3.3-4.26-.12-2.54-.37-5.07-.4-7.61-.11-7.64-.11-15.29-.25-22.93,0-1.88-.46-3.75-.68-5.63-.17-1.48-2.47-3.32-4.18-3.1a7.06,7.06,0,0,0-3.52,1.17A5.19,5.19,0,0,0,519.6,528C519.29,535,519.19,542,519,549Zm155.34,1h.28c0,5.75-.07,11.5,0,17.25a40.63,40.63,0,0,0,.82,5.66c.22,1.43,2.53,3.62,3.85,3.76a71.05,71.05,0,0,0,17.18.15,17.46,17.46,0,0,0,3.6-1.19c1.34-.49,1.66-3.67.67-4.86a5.18,5.18,0,0,0-3.11-1.95c-3.11-.64-6.25-1.19-9.27-2.13a4.39,4.39,0,0,1-2.58-2.62,37.57,37.57,0,0,1-.92-7.56c-.3-8.3-.4-16.61-.74-24.91a20.65,20.65,0,0,0-1.33-5.46A3,3,0,0,0,680,524.2a3.16,3.16,0,0,0-3.25,1.28A5.8,5.8,0,0,0,675.3,529Q674.87,539.48,674.37,550Z"/><path d="M573,622.53c-.19-5.12-.44-10.23-.53-15.35a50.36,50.36,0,0,1,.49-5.72c.11-1.26,2.58-3.47,4-3.58,2.66-.19,5.63,1.65,5.76,3.64.22,3.19.52,6.38.54,9.57.07,7.68-.07,15.36,0,23a32.22,32.22,0,0,0,.94,5.61c.27,1.36,2.66,3,4.39,3.18,2.3.21,5.65-2,5.86-3.94.28-2.54.72-5.07.75-7.62.11-8.31,0-16.63.14-25a31.11,31.11,0,0,1,1.09-5.55c.27-1.33,3-2.93,4.57-2.74s4.15,2.33,4.3,3.44a12.27,12.27,0,0,1,.35,1.85q-.18,17.26-.46,34.54a13.34,13.34,0,0,1-.63,3.76c-1.2,3.72-2.85,7.16-6.57,9a37.09,37.09,0,0,1-5.23,2.36,12.14,12.14,0,0,1-7.54,0,20.07,20.07,0,0,1-8.17-4.81c-1.84-1.84-3.4-4-3.56-6.6-.38-6.39-.48-12.79-.7-19.18Z"/><path d="M587.14,551.39c-.23,3-.42,6.15-.75,9.32a27,27,0,0,1-2.93,9,14.51,14.51,0,0,1-5.08,5.58c-5.63,3.83-18.34,3.62-23.76-5.15a26.87,26.87,0,0,1-4.35-12.52c-.29-5.08-.23-10.19-.19-15.28a26.69,26.69,0,0,1,3.81-12.68,15.38,15.38,0,0,1,8.6-7.14c4.4-1.58,8.66-1.78,13,.22a15.33,15.33,0,0,1,7,6.3c2.24,3.88,4,8,4.22,12.56C586.8,544.81,587,548,587.14,551.39Zm-10.68.2c-.35-3.91-.67-8.31-1.15-12.71-.22-1.94-1.45-3.47-2.68-4.92a5.45,5.45,0,0,0-8.21.41,14.4,14.4,0,0,0-2.68,5,56.11,56.11,0,0,0-.17,20.75,10.92,10.92,0,0,0,3.86,6.34,5.25,5.25,0,0,0,6.84-.2c1.36-1.33,2.71-2.77,3-4.69C575.79,558.42,576,555.27,576.46,551.59Z"/><path d="M529.52,625.92c.16-3.85.26-7,.45-10.21a21.85,21.85,0,0,1,3.84-10.65,17,17,0,0,1,27.68-1.66,12.71,12.71,0,0,1,2,3.19,51.18,51.18,0,0,1,1.09,35.55,13.88,13.88,0,0,1-5.68,7.45,27,27,0,0,1-6.85,3.23,12.18,12.18,0,0,1-5.63.32c-5.88-1-10.72-3.8-13.7-9.3a18.32,18.32,0,0,1-2.5-7.14C529.93,632.9,529.73,629.08,529.52,625.92Zm10.7-.1c.31,3.44.42,6.63.94,9.75a9.64,9.64,0,0,0,3.85,6.29,6.23,6.23,0,0,0,7-.15,11.36,11.36,0,0,0,3.7-6.47,48.54,48.54,0,0,0,0-19,14.92,14.92,0,0,0-3.37-6.72c-2.41-2.86-8-1.92-9.51,1.65a15.26,15.26,0,0,0-1.36,3.51C541,618.49,540.62,622.28,540.22,625.82Z"/><path d="M605.84,577.11c-2.7-.2-5.87-.24-9-.76-1-.17-1.84-1.56-2.59-2.52a3.24,3.24,0,0,1-.39-1.83q-.09-20.87-.09-41.72a25.78,25.78,0,0,1,.61-3.74c.15-1,2.94-3.3,4.08-3.55,5-1.08,10-.7,15.09-.12,7.43.84,10.52,6.3,11.27,13.1a22,22,0,0,1-1.42,9.31,9.84,9.84,0,0,0,.22,7.37,22.72,22.72,0,0,1,2,11.08,13.59,13.59,0,0,1-3.54,8.59,13.13,13.13,0,0,1-8.23,4.27C611.36,576.88,608.82,576.93,605.84,577.11Zm-1.67-40.32c-.35,3.4.31,4.72,3,6s6.63-1.06,6.73-4.22c0-.62,0-1.23,0-1.85-.06-2.09-1.32-3.35-3-4.26-1.53-.82-3.44-.39-5.1,1A4.19,4.19,0,0,0,604.17,536.79Zm10,24.26-.12-1.84c-.19-2.6-2.55-4.81-4.8-4.63a5.45,5.45,0,0,0-4.92,4.7,16.86,16.86,0,0,0,.08,3.69c.21,1.51,2.36,3.37,3.87,3.55a4.86,4.86,0,0,0,5.59-3.62C614,562.29,614.09,561.67,614.19,561.05Z"/><path d="M487.84,551a81.91,81.91,0,0,0,1.15,9.47,9.88,9.88,0,0,0,4.13,6.22,17.63,17.63,0,0,0,1.67.87c2.19,1.09,4.57.21,6.46-2.39a4.6,4.6,0,0,0-.34-5.29c-.87-.92-2.07-1.54-2.86-2.5a12.88,12.88,0,0,1-1.74-3.23,2.47,2.47,0,0,1,1.17-3.32c3.49-2.11,7.31-1.73,11.1-1.4,1.94.16,4.57,3.3,4.59,5.41.05,3.82.16,7.64,0,11.46-.2,4.79-4.53,9.37-9.64,10.6a39.78,39.78,0,0,1-9.49.77c-7.51,0-12.62-6.45-14.21-11-.41-1.2-.76-2.43-1-3.67a64.47,64.47,0,0,1-1.46-19A41.79,41.79,0,0,1,480.52,531c2.38-6,10.63-10.67,17.14-9.64a29.64,29.64,0,0,1,5.51,1.52c5.75,2.1,8.55,7.22,7.6,13.68-.21,1.39-3.45,3.07-4.59,2.35-3.2-2-6.37-4.13-9.58-6.16-1.18-.74-4.31.27-5,1.64-.84,1.69-1.95,3.36-2.3,5.16C488.6,543.32,488.31,547.14,487.84,551Z"/><path d="M650.31,626.1c0-7,0-14,.05-21a12.32,12.32,0,0,1,1-3.62,5.45,5.45,0,0,1,2.48-2.79c2.14-1.35,5.85-.17,6.09,2.05.55,5.06.94,10.13,1.67,15.16A4.54,4.54,0,0,0,664,618.6a8.31,8.31,0,0,0,7.36.25,5.36,5.36,0,0,0,3.5-4.12c.42-3.15.56-6.33.93-9.49a9.2,9.2,0,0,1,.93-3.65,6.51,6.51,0,0,1,2.76-2.28c1.36-.65,4.2,1.17,4.46,2.61a25.83,25.83,0,0,1,.76,3.74q.89,20.08,0,40.16a8,8,0,0,1-1.89,5.3,3.3,3.3,0,0,1-3.32,1.2,4.65,4.65,0,0,1-2.79-2.14,20,20,0,0,1-1.07-5.57c-.36-3.8-.42-7.63-.93-11.4a4.77,4.77,0,0,0-2.22-2.91,7.5,7.5,0,0,0-7.27-.62c-1.77.82-3.41,1.94-3.66,4-.39,3.15-.46,6.34-.73,9.5-.16,1.9-.46,3.78-.71,5.67-.19,1.54-2.67,3.34-4.23,3.06a5.42,5.42,0,0,1-4.41-3.07,9.64,9.64,0,0,1-1-3.6c-.1-6.37,0-12.75,0-19.13Z"/><path d="M510.39,597.39c6.56,1,10.7,4.36,12.75,10.4,1.08,3.19-1.28,6.61-4.6,6.3a3.72,3.72,0,0,1-1.85-.38c-1.94-1.61-3.77-3.36-5.67-5a4.38,4.38,0,0,0-5.21,0c-1.92,1.41-2.11,4.93-.36,6.73a18.87,18.87,0,0,0,2.67,2.69c2.62,1.79,5.36,3.4,8,5.1,6.72,4.27,8.64,10.63,7.67,18.12a20.68,20.68,0,0,1-1.7,5.42,8.88,8.88,0,0,1-2.24,3,16.22,16.22,0,0,1-19.45,1.48,20.93,20.93,0,0,1-7.58-8.31,4.72,4.72,0,0,1,3.94-6.85c1.92,0,3.78.14,5.09,1.83,1.15,1.49,2.23,3.05,3.47,4.46.95,1.09,3.8,1.22,5.34.43,2.13-1.07,2.8-4.39,1.33-6.6a18.1,18.1,0,0,0-2.21-3.06,43.79,43.79,0,0,0-4.47-3.55c-2.57-1.86-5.3-3.51-7.78-5.49a13.4,13.4,0,0,1-5.16-11.72,15.61,15.61,0,0,1,14.5-15C508.18,597.32,509.45,597.39,510.39,597.39Z"/><path d="M649.79,566.35a7,7,0,0,0-6.23,3.51c-1,1.61-1.74,3.41-2.78,5-1.6,2.5-5.62,3-8.43,1.15a3,3,0,0,1-1.5-3.29c2.58-11.84,6.46-23.31,9.81-34.92,1.06-3.68,1.73-7.49,3.78-10.8a10.66,10.66,0,0,1,2.48-2.79c2.24-1.73,7.42-.48,8.33,1.93,1.11,3,2.33,5.91,3.22,9q4.59,15.58,9,31.25a52.63,52.63,0,0,1,.93,5.64,4.94,4.94,0,0,1-2.45,4.66c-1.36.57-4.74.07-5.38-.9-1.4-2.12-2.71-4.3-4.07-6.45S653,566.2,649.79,566.35Zm2.8-15c-.1-.61-.18-1.23-.32-1.83-.35-1.41-1.15-2.24-2.25-2-.49.09-.92.8-1.24,1.31a11.94,11.94,0,0,0-.71,1.72,3.5,3.5,0,0,0,.35,3.58c.91,1.3,2,1.51,3,.57A3.84,3.84,0,0,0,652.59,551.34Z"/><path d="M628.76,597.62l11.46.5c1.8.08,3.91,1.73,4.18,3.3.41,2.42-.07,3.94-1.82,4.85a41.42,41.42,0,0,1-5.17,2.35,4.82,4.82,0,0,0-3.16,4.31,86.88,86.88,0,0,0-.48,9.55c-.12,7-.1,14-.27,21.06a36,36,0,0,1-.89,5.61c-.34,1.92-4.4,3.49-6.33,2.56s-3.3-2.2-3.41-4.15c-.32-5.73-.38-11.47-.49-17.21s-.12-11.49-.32-17.22c-.09-2.79-1.68-4.63-4.29-5.63a11.85,11.85,0,0,1-3.39-1.7,7.5,7.5,0,0,1-2.11-3c-.42-1.15,2-3.95,3.21-4.19a25.47,25.47,0,0,1,3.7-.73c3.19-.11,6.38,0,9.57,0C628.75,597.78,628.76,597.7,628.76,597.62Z"/><path d="M519,549c.16-7,.26-14,.57-21a5.19,5.19,0,0,1,1.67-3.33,7.06,7.06,0,0,1,3.52-1.17c1.71-.22,4,1.62,4.18,3.1.22,1.88.65,3.75.68,5.63.14,7.64.14,15.29.25,22.93,0,2.54.28,5.07.4,7.61.06,1.48,1.88,3.92,3.3,4.26,3.08.74,6.18,1.36,9.26,2.09a3.93,3.93,0,0,1,2.92,4.22,3.1,3.1,0,0,1-1.95,3,6.33,6.33,0,0,1-1.73.63,71.15,71.15,0,0,1-17.13-.16c-2.06-.29-5.09-3-5.21-5-.24-3.81-.5-7.61-.6-11.42s0-7.64,0-11.46Z"/><path d="M674.37,550q.48-10.53.93-21a5.8,5.8,0,0,1,1.43-3.47A3.16,3.16,0,0,1,680,524.2a3,3,0,0,1,2.88,1.95,20.65,20.65,0,0,1,1.33,5.46c.34,8.3.44,16.61.74,24.91a37.57,37.57,0,0,0,.92,7.56,4.39,4.39,0,0,0,2.58,2.62c3,.94,6.16,1.49,9.27,2.13a5.18,5.18,0,0,1,3.11,1.95c1,1.19.67,4.37-.67,4.86a17.46,17.46,0,0,1-3.6,1.19,71.05,71.05,0,0,1-17.18-.15c-1.32-.14-3.63-2.33-3.85-3.76a40.63,40.63,0,0,1-.82-5.66c-.11-5.75,0-11.5,0-17.25Z"/><path class="cls-2" d="M576.46,551.59c-.42,3.68-.67,6.83-1.17,9.94-.31,1.92-1.66,3.36-3,4.69a5.25,5.25,0,0,1-6.84.2,10.92,10.92,0,0,1-3.86-6.34,56.11,56.11,0,0,1,.17-20.75,14.4,14.4,0,0,1,2.68-5,5.45,5.45,0,0,1,8.21-.41c1.23,1.45,2.46,3,2.68,4.92C575.79,543.28,576.11,547.68,576.46,551.59Z"/><path class="cls-2" d="M540.22,625.82c.4-3.54.75-7.33,1.29-11.09a15.26,15.26,0,0,1,1.36-3.51c1.5-3.57,7.1-4.51,9.51-1.65a14.92,14.92,0,0,1,3.37,6.72,48.54,48.54,0,0,1,0,19,11.36,11.36,0,0,1-3.7,6.47,6.23,6.23,0,0,1-7,.15,9.64,9.64,0,0,1-3.85-6.29C540.64,632.45,540.53,629.26,540.22,625.82Z"/><path class="cls-2" d="M604.17,536.79a4.19,4.19,0,0,1,1.58-3.29c1.66-1.44,3.57-1.87,5.1-1,1.71.91,3,2.17,3,4.26,0,.62,0,1.23,0,1.85-.1,3.16-3.91,5.55-6.73,4.22S603.82,540.19,604.17,536.79Z"/><path class="cls-2" d="M614.19,561.05c-.1.62-.15,1.24-.3,1.85a4.86,4.86,0,0,1-5.59,3.62c-1.51-.18-3.66-2-3.87-3.55a16.86,16.86,0,0,1-.08-3.69,5.45,5.45,0,0,1,4.92-4.7c2.25-.18,4.61,2,4.8,4.63Z"/><path class="cls-2" d="M652.59,551.34a3.84,3.84,0,0,1-1.16,3.31c-1,.94-2.1.73-3-.57a3.5,3.5,0,0,1-.35-3.58,11.94,11.94,0,0,1,.71-1.72c.32-.51.75-1.22,1.24-1.31,1.1-.2,1.9.63,2.25,2C652.41,550.11,652.49,550.73,652.59,551.34Z"/></svg>